# Blender 3.4.0
# www.blender.org
mtllib ammo_pistol_loose_mp_3_casing.mtl
o ammo_pistol_loose_mp_3_casing
v -0.000000 0.000000 0.007000
v -0.007000 0.000000 0.000000
v -0.004950 0.000000 0.004950
v -0.000000 0.024000 0.005918
v -0.000000 0.000000 -0.007000
v -0.004950 0.000000 -0.004950
v 0.007000 0.000000 0.000000
v 0.004950 0.000000 0.004950
v 0.004184 0.024000 0.004184
v 0.004950 0.000000 -0.004950
v -0.005918 0.024000 0.000000
v -0.004184 0.024000 0.004184
v -0.000000 0.024000 -0.005918
v -0.004184 0.024000 -0.004184
v 0.005918 0.024000 0.000000
v 0.004184 0.024000 -0.004184
v 0.004950 0.024000 0.004950
v -0.000000 0.024000 0.007000
v 0.004950 0.024000 -0.004950
v -0.000000 0.024000 -0.007000
v 0.007000 0.024000 0.000000
v -0.004950 0.024000 -0.004950
v -0.007000 0.024000 0.000000
v -0.004950 0.024000 0.004950
v 0.004184 0.001386 0.004184
v -0.000000 0.001386 0.005918
v 0.004184 0.001386 -0.004184
v -0.000000 0.001386 -0.005918
v 0.005918 0.001386 0.000000
v -0.004184 0.001386 -0.004184
v -0.005918 0.001386 0.000000
v -0.004184 0.001386 0.004184
vn -0.0000 -0.0000 1.0000
vn -0.7071 -0.0000 0.7071
vn -1.0000 -0.0000 -0.0000
vn -0.0000 -0.0000 -1.0000
vn -0.7071 -0.0000 -0.7071
vn 1.0000 -0.0000 -0.0000
vn 0.7071 -0.0000 -0.7071
vn 0.7071 -0.0000 0.7071
vn -0.0000 -1.0000 -0.0000
vn -0.0000 1.0000 -0.0000
vt 0.085938 0.556641
vt 0.097656 0.556641
vt 0.095644 0.632992
vt 0.097656 0.556641
vt 0.085938 0.556641
vt 0.099491 0.644533
vt 0.091797 0.556641
vt 0.099491 0.636839
vt 0.085938 0.580078
vt 0.094915 0.563814
vt 0.097656 0.580078
vt 0.097656 0.556641
vt 0.085938 0.556641
vt 0.087950 0.648380
vt 0.091797 0.556641
vt 0.095644 0.648380
vt 0.097656 0.556641
vt 0.085938 0.556641
vt 0.084103 0.636839
vt 0.091797 0.556641
vt 0.087950 0.632992
vt 0.088679 0.563814
vt 0.091797 0.580078
vt 0.091797 0.556641
vt 0.084103 0.644533
vt 0.098356 0.573492
vt 0.097656 0.580078
vt 0.085938 0.580078
vt 0.098356 0.567255
vt 0.091797 0.580078
vt 0.088679 0.576933
vt 0.097656 0.580078
vt 0.085938 0.580078
vt 0.094915 0.576933
vt 0.091797 0.580078
vt 0.085237 0.567255
vt 0.097656 0.580078
vt 0.085938 0.580078
vt 0.085237 0.573492
vt 0.091797 0.580078
vt 0.091797 0.580078
vt 0.087950 0.562680
vt 0.085938 0.580078
vt 0.097656 0.580078
vt 0.095644 0.562680
vt 0.091797 0.580078
vt 0.084103 0.574220
vt 0.097656 0.580078
vt 0.085938 0.580078
vt 0.087950 0.578067
vt 0.097656 0.580078
vt 0.085938 0.580078
vt 0.084103 0.566527
vt 0.091797 0.580078
vt 0.095644 0.578067
vt 0.097656 0.580078
vt 0.085938 0.580078
vt 0.099491 0.574220
vt 0.091797 0.580078
vt 0.099491 0.566527
vt 0.088679 0.563814
vt 0.091797 0.560547
vt 0.085938 0.560547
vt 0.094915 0.563814
vt 0.097656 0.560547
vt 0.085237 0.573492
vt 0.091797 0.560547
vt 0.088679 0.576933
vt 0.097656 0.560547
vt 0.085938 0.560547
vt 0.085237 0.567255
vt 0.097656 0.560547
vt 0.085938 0.560547
vt 0.094915 0.576933
vt 0.091797 0.560547
vt 0.098356 0.573492
vt 0.097656 0.560547
vt 0.085938 0.560547
vt 0.098356 0.567255
vt 0.091797 0.560547
s 1
usemtl ammo_mp_1
f 1/1/1 18/43/1 24/59/2 3/7/2
f 3/7/2 24/59/2 23/56/3 2/4/3
f 20/48/4 5/12/4 6/15/5 22/54/5
f 22/54/5 6/15/5 2/5/3 23/57/3
f 21/51/6 7/17/6 10/24/7 19/46/7
f 19/46/7 10/24/7 5/13/4 20/49/4
f 18/44/1 1/2/1 8/20/8 17/41/8
f 17/41/8 8/20/8 7/18/6 21/52/6
f 2/6/9 6/16/9 5/14/9 10/25/9 7/19/9 8/21/9 1/3/9 3/8/9
f 4/9/4 26/63/4 32/80/7 12/30/7
f 4/10/10 18/45/10 17/42/10 9/22/10
f 16/39/10 19/47/10 20/50/10 13/31/10
f 15/36/10 21/53/10 19/47/10 16/39/10
f 14/34/10 22/55/10 23/58/10 11/26/10
f 11/26/10 23/58/10 24/60/10 12/29/10
f 13/31/10 20/50/10 22/55/10 14/34/10
f 12/29/10 24/60/10 18/45/10 4/10/10
f 9/22/10 17/42/10 21/53/10 15/36/10
f 31/76/10 32/79/10 26/64/10 25/61/10 29/71/10 27/66/10 28/68/10 30/74/10
f 12/30/7 32/80/7 31/77/6 11/27/6
f 16/40/2 27/67/2 29/72/3 15/37/3
f 9/23/5 25/62/5 26/65/4 4/11/4
f 15/38/3 29/73/3 25/62/5 9/23/5
f 14/35/8 30/75/8 28/69/1 13/32/1
f 11/28/6 31/78/6 30/75/8 14/35/8
f 13/33/1 28/70/1 27/67/2 16/40/2
