# Blender 3.4.0
# www.blender.org
mtllib ammo_box_mp_2.mtl
o ammo_box_mp_2
v -0.077935 0.075000 -0.037500
v -0.077936 0.000000 0.037500
v -0.077936 0.075000 0.037500
v -0.077935 -0.000000 -0.037500
v 0.077938 0.075000 -0.037500
v 0.077938 -0.000000 -0.037500
v 0.077938 0.075000 0.037500
v 0.077938 0.000000 0.037500
v 0.097938 0.085000 -0.037500
v 0.097938 0.085000 0.037500
v -0.097935 0.085000 -0.037500
v -0.097936 0.085000 0.037500
v -0.077935 0.134594 -0.072605
v 0.077938 0.134594 -0.072605
v 0.107938 0.090000 -0.027500
v 0.107938 0.090000 0.027500
v -0.107935 0.090000 0.027500
v -0.107935 0.090000 -0.027500
v -0.067977 0.142372 -0.067656
v 0.067980 0.142372 -0.067656
v 0.077941 0.075894 0.037500
v 0.107491 0.090894 0.027500
v 0.097491 0.085894 0.037500
v 0.097491 0.085894 -0.037500
v 0.107491 0.090894 -0.027500
v -0.077935 0.075894 -0.037500
v 0.077938 0.075894 -0.037500
v -0.077939 0.075894 0.037500
v -0.107488 0.090894 -0.027500
v -0.097488 0.085894 -0.037500
v -0.097489 0.085894 0.037500
v -0.107488 0.090894 0.027500
v 0.067980 0.141835 -0.066812
v 0.077938 0.134585 -0.071234
v -0.077935 0.134585 -0.071234
v -0.067977 0.141835 -0.066812
v -0.077935 0.100878 -0.055376
v 0.077938 0.100878 -0.055376
v -0.077935 0.101263 -0.054367
v 0.077938 0.101263 -0.054367
v -0.077935 0.084357 -0.046385
v -0.077935 0.084866 -0.045531
v 0.077938 0.084357 -0.046385
v 0.077938 0.084866 -0.045531
v 0.077938 0.118191 -0.063377
v 0.077938 0.118634 -0.062250
v -0.077935 0.118191 -0.063377
v -0.077935 0.118634 -0.062250
vn -1.0000 -0.0000 -0.0000
vn -0.0000 -0.0000 -1.0000
vn 1.0000 -0.0000 -0.0000
vn -0.0000 -0.0000 1.0000
vn -0.0000 1.0000 -0.0000
vn -0.0000 -1.0000 -0.0000
vn 0.3192 0.1596 0.9342
vn 0.8165 0.4082 0.4082
vn 0.3201 0.1600 0.9338
vn 1.0000 0.0016 -0.0000
vn 0.6456 0.7415 0.1827
vn 0.3477 0.8538 0.3875
vn 0.3490 0.8536 0.3868
vn -0.8165 0.4082 0.4082
vn -0.3192 0.1596 0.9342
vn -0.3201 0.1600 0.9338
vn -0.4525 0.8917 -0.0000
vn -0.4472 0.8944 -0.0000
vn -0.4554 0.8903 -0.0000
vn 0.8165 0.4082 -0.4082
vn 0.3192 0.1596 -0.9342
vn 0.3201 0.1600 -0.9338
vn -1.0000 0.0016 -0.0000
vn -0.0000 0.4524 0.8918
vn -0.0000 0.4907 0.8713
vn 0.4525 0.8917 -0.0000
vn 0.4472 0.8944 -0.0000
vn 0.4554 0.8903 -0.0000
vn -0.3191 0.1596 -0.9342
vn -0.3201 0.1600 -0.9338
vn -0.8165 0.4082 -0.4083
vn -0.0000 -0.5207 0.8537
vn -0.3477 0.8538 0.3875
vn -0.6455 0.7415 0.1827
vn -0.3490 0.8536 0.3868
vn -0.0000 0.5369 -0.8437
vn -0.0000 -0.4553 -0.8903
vn -0.0000 -0.4903 -0.8715
vn -0.4472 -0.8944 -0.0000
vn 0.4472 -0.8944 -0.0000
vn -0.0000 -0.5883 -0.8086
vn -0.0000 -0.4490 -0.8935
vn -0.0000 0.5747 0.8184
vn -0.0000 0.4441 0.8960
vn -0.0000 0.6670 0.7451
vn -0.0000 -0.6886 -0.7252
vt 0.667969 0.595703
vt 0.750000 0.351562
vt 0.611297 0.624869
vt 0.530244 0.624869
vt 0.750000 0.556641
vt 0.500000 0.595703
vt 0.750000 0.513672
vt 0.500000 0.351562
vt 0.667969 0.433594
vt 0.750000 0.595703
vt 0.500000 0.433594
vt 0.667969 0.351562
vt 0.558636 0.624869
vt 0.530244 0.624869
vt 0.667969 0.556641
vt 0.667969 0.513672
vt 0.500000 0.595703
vt 0.750000 0.513672
vt 0.639690 0.624869
vt 0.750000 0.556641
vt 0.611297 0.624869
vt 0.667969 0.595703
vt 0.667969 0.513672
vt 0.500000 0.513672
vt 0.750000 0.595703
vt 0.667969 0.433594
vt 0.667969 0.513672
vt 0.639690 0.624869
vt 0.558636 0.624869
vt 0.667969 0.556641
vt 0.750000 0.513672
vt 0.667969 0.351562
vt 0.500000 0.433594
vt 0.653733 0.631891
vt 0.750000 0.583984
vt 0.653733 0.631891
vt 0.667969 0.583984
vt 0.516201 0.631891
vt 0.750000 0.583984
vt 0.516201 0.631891
vt 0.667969 0.583984
vt 0.530244 0.623188
vt 0.500000 0.666016
vt 0.500000 0.675781
vt 0.635946 0.666713
vt 0.639690 0.623188
vt 0.635946 0.666713
vt 0.667969 0.666016
vt 0.667969 0.675781
vt 0.660755 0.635402
vt 0.604275 0.635402
vt 0.738281 0.595703
vt 0.660755 0.635402
vt 0.565657 0.635402
vt 0.679688 0.595703
vt 0.509179 0.635402
vt 0.565657 0.635402
vt 0.679688 0.595703
vt 0.509180 0.635402
vt 0.604275 0.635402
vt 0.738281 0.595703
vt 0.537236 0.619713
vt 0.509766 0.675781
vt 0.632699 0.619713
vt 0.658203 0.675781
vt 0.639692 0.625497
vt 0.667969 0.556641
vt 0.558636 0.625497
vt 0.660441 0.636030
vt 0.679688 0.595703
vt 0.565657 0.636030
vt 0.653419 0.632519
vt 0.667969 0.583984
vt 0.750000 0.583984
vt 0.653419 0.632519
vt 0.738281 0.595703
vt 0.660441 0.636030
vt 0.604275 0.636030
vt 0.611297 0.625497
vt 0.750000 0.556641
vt 0.530244 0.625497
vt 0.500000 0.595703
vt 0.750000 0.556641
vt 0.639690 0.625497
vt 0.611297 0.625497
vt 0.667969 0.595703
vt 0.558636 0.625497
vt 0.667969 0.556641
vt 0.530242 0.625497
vt 0.738281 0.595703
vt 0.509494 0.636030
vt 0.604275 0.636030
vt 0.750000 0.583984
vt 0.516515 0.632519
vt 0.667969 0.583984
vt 0.516515 0.632519
vt 0.509493 0.636030
vt 0.679688 0.595703
vt 0.565657 0.636030
vt 0.509766 0.675781
vt 0.632699 0.619120
vt 0.639690 0.622225
vt 0.634983 0.666707
vt 0.667969 0.675781
vt 0.500000 0.666016
vt 0.500000 0.675781
vt 0.667969 0.666016
vt 0.530244 0.622225
vt 0.634983 0.666707
vt 0.658203 0.675781
vt 0.537236 0.619120
vt 0.623849 0.643040
vt 0.500000 0.634766
vt 0.667969 0.634766
vt 0.623849 0.643040
vt 0.623140 0.643310
vt 0.500000 0.634766
vt 0.667969 0.634766
vt 0.623140 0.643310
vt 0.500000 0.615234
vt 0.617535 0.631439
vt 0.500000 0.615234
vt 0.616936 0.631797
vt 0.617535 0.631439
vt 0.667969 0.615234
vt 0.616936 0.631797
vt 0.667969 0.615234
vt 0.667969 0.656250
vt 0.629466 0.655196
vt 0.667969 0.656250
vt 0.628675 0.655507
vt 0.629466 0.655196
vt 0.500000 0.656250
vt 0.628675 0.655507
vt 0.500000 0.656250
s 1
usemtl ammo_mp_1
f 4/16/1 2/7/1 3/10/1 1/1/1
f 6/24/2 4/16/2 1/1/2 5/17/2
f 6/23/3 5/22/3 7/25/3 8/31/3
f 2/8/4 8/32/4 7/26/4 3/11/4
f 3/12/5 7/27/5 5/18/5 1/2/5
f 4/16/6 6/24/6 8/33/6 2/9/6
f 10/36/7 16/53/8 22/69/8 23/72/9
f 3/13/10 1/3/10 26/79/10 28/87/10
f 14/46/11 20/64/12 33/101/13 34/102/11
f 45/129/3 14/47/3 34/103/3 46/131/3
f 17/56/14 12/40/15 31/96/16 32/97/14
f 7/28/4 10/36/7 23/72/9 21/66/4
f 24/74/17 23/73/17 22/70/18 25/76/18
f 27/83/19 21/67/19 23/73/17 24/74/17
f 15/50/20 9/34/21 24/75/22 25/77/20
f 9/34/21 5/19/2 27/84/2 24/75/22
f 16/54/8 15/51/20 25/78/20 22/71/8
f 5/21/23 7/29/23 21/68/23 27/85/23
f 48/135/24 46/130/24 34/104/25 35/106/25
f 1/4/4 5/19/4 27/84/4 26/81/4
f 41/121/1 1/3/1 26/79/1 42/123/1
f 31/95/26 30/93/26 29/90/27 32/98/27
f 28/88/28 26/80/28 30/93/26 31/95/26
f 1/4/2 11/38/29 30/94/30 26/81/2
f 11/38/29 18/59/31 29/91/31 30/94/30
f 18/60/31 17/57/14 32/99/14 29/92/31
f 12/40/15 3/14/4 28/89/4 31/96/16
f 35/107/32 34/105/32 33/100/32 36/110/32
f 19/62/33 13/42/34 35/108/34 36/111/35
f 20/64/12 19/62/33 36/111/35 33/101/13
f 20/65/36 14/48/36 13/43/36 19/63/36
f 47/133/37 13/44/38 14/49/38 45/128/37
f 3/15/39 12/41/39 17/58/39 18/61/39 11/39/39 1/5/39
f 5/20/40 9/35/40 15/52/40 16/55/40 10/37/40 7/30/40
f 41/120/41 37/113/42 38/114/42 43/125/41
f 47/132/1 37/112/1 39/116/1 48/134/1
f 42/122/43 44/127/43 40/118/44 39/117/44
f 43/124/3 38/115/3 40/119/3 44/126/3
f 5/21/3 43/124/3 44/126/3 27/85/3
f 26/82/45 27/86/45 44/127/43 42/122/43
f 1/6/46 41/120/41 43/125/41 5/22/46
f 37/112/1 41/121/1 42/123/1 39/116/1
f 13/45/1 47/132/1 48/134/1 35/109/1
f 37/113/42 47/133/37 45/128/37 38/114/42
f 39/117/44 40/118/44 46/130/24 48/135/24
f 38/115/3 45/129/3 46/131/3 40/119/3
