# Blender 3.4.0
# www.blender.org
mtllib ammo_pistol_loose_1pc_mp_3.mtl
o ammo_pistol_loose_1pc_mp_3
v -0.000000 0.000000 0.007000
v -0.007000 0.000000 0.000000
v -0.004950 0.000000 0.004950
v -0.007000 0.024000 0.000000
v -0.000000 0.024000 0.007000
v -0.004950 0.024000 0.004950
v -0.000000 0.000000 -0.007000
v -0.004950 0.000000 -0.004950
v -0.000000 0.024000 -0.007000
v -0.004950 0.024000 -0.004950
v 0.007000 0.000000 0.000000
v 0.004950 0.000000 0.004950
v 0.007000 0.024000 0.000000
v 0.004950 0.024000 0.004950
v 0.004950 0.000000 -0.004950
v 0.004950 0.024000 -0.004950
v -0.007000 0.028671 0.000000
v 0.000000 0.037000 -0.000000
v -0.004994 0.034146 0.000000
v -0.000000 0.028671 0.007000
v -0.000000 0.034146 0.004994
v -0.004950 0.028671 0.004950
v -0.003531 0.034146 0.003531
v -0.000000 0.028671 -0.007000
v -0.000000 0.034146 -0.004994
v -0.004950 0.028671 -0.004950
v -0.003531 0.034146 -0.003531
v 0.007000 0.028671 0.000000
v 0.004994 0.034146 0.000000
v 0.004950 0.028671 0.004950
v 0.003531 0.034146 0.003531
v 0.004950 0.028671 -0.004950
v 0.003531 0.034146 -0.003531
v -0.002907 0.036015 0.000000
v 0.002055 0.036015 0.002055
v -0.000000 0.036015 0.002907
v -0.000000 0.036015 -0.002907
v 0.002055 0.036015 -0.002055
v -0.002055 0.036015 -0.002055
v 0.002907 0.036015 0.000000
v -0.002055 0.036015 0.002055
v 0.004664 0.031409 0.004664
v -0.000000 0.031409 0.006596
v -0.000000 0.031409 -0.006596
v 0.004664 0.031409 -0.004664
v -0.006596 0.031409 0.000000
v -0.004664 0.031409 -0.004664
v 0.006596 0.031409 0.000000
v -0.004664 0.031409 0.004664
vn -0.0000 -0.0000 1.0000
vn 0.7071 -0.0000 0.7071
vn 0.7053 0.0718 0.7053
vn -0.0000 0.0718 0.9974
vn -0.7071 -0.0000 0.7071
vn -1.0000 -0.0000 -0.0000
vn -0.0000 -0.0000 -1.0000
vn -0.7071 -0.0000 -0.7071
vn 1.0000 -0.0000 -0.0000
vn 0.7071 -0.0000 -0.7071
vn -0.0000 -1.0000 -0.0000
vn -0.7053 0.0718 0.7053
vn -0.9974 0.0718 -0.0000
vn -0.0000 0.0718 -0.9974
vn 0.7053 0.0718 -0.7053
vn 0.9974 0.0718 -0.0000
vn -0.7053 0.0718 -0.7053
vn -0.0000 0.8420 0.5395
vn -0.0000 0.6147 0.7888
vn 0.5577 0.6147 0.5577
vn 0.3815 0.8420 0.3815
vn 0.6704 0.3179 0.6704
vn -0.0000 0.3179 0.9481
vn 0.3815 0.8420 -0.3815
vn 0.5577 0.6147 -0.5577
vn -0.0000 0.6147 -0.7888
vn -0.0000 0.8420 -0.5395
vn -0.0000 0.3179 -0.9481
vn 0.6704 0.3179 -0.6704
vn -0.3815 0.8420 -0.3815
vn -0.5577 0.6147 -0.5577
vn -0.7888 0.6147 -0.0000
vn -0.5395 0.8420 -0.0000
vn -0.9481 0.3179 -0.0000
vn -0.6704 0.3179 -0.6704
vn 0.5395 0.8420 -0.0000
vn 0.7888 0.6147 -0.0000
vn 0.9481 0.3179 -0.0000
vn -0.3815 0.8420 0.3815
vn -0.5577 0.6147 0.5577
vn -0.6704 0.3179 0.6704
vn -0.0000 1.0000 -0.0000
vt 0.085938 0.556641
vt 0.097656 0.556641
vt 0.095644 0.632992
vt 0.097656 0.556641
vt 0.085938 0.556641
vt 0.099491 0.644533
vt 0.091797 0.556641
vt 0.099491 0.636839
vt 0.085938 0.580078
vt 0.097656 0.580078
vt 0.085938 0.580078
vt 0.097656 0.580078
vt 0.091797 0.580078
vt 0.097656 0.556641
vt 0.085938 0.556641
vt 0.087950 0.648380
vt 0.091797 0.556641
vt 0.095644 0.648380
vt 0.097656 0.580078
vt 0.085938 0.580078
vt 0.091797 0.580078
vt 0.097656 0.556641
vt 0.085938 0.556641
vt 0.084103 0.636839
vt 0.091797 0.556641
vt 0.087950 0.632992
vt 0.097656 0.580078
vt 0.085938 0.580078
vt 0.091797 0.580078
vt 0.091797 0.556641
vt 0.084103 0.644533
vt 0.091797 0.580078
vt 0.097664 0.584931
vt 0.085925 0.584931
vt 0.091819 0.666057
vt 0.084111 0.662837
vt 0.087033 0.591063
vt 0.096614 0.591063
vt 0.085925 0.584931
vt 0.097664 0.584931
vt 0.095028 0.658378
vt 0.096614 0.591063
vt 0.087033 0.591063
vt 0.091794 0.584931
vt 0.088652 0.658351
vt 0.091022 0.591063
vt 0.092625 0.591063
vt 0.097664 0.584931
vt 0.085925 0.584931
vt 0.088610 0.673738
vt 0.087033 0.591063
vt 0.096614 0.591063
vt 0.091794 0.584931
vt 0.084111 0.669221
vt 0.091022 0.591063
vt 0.092625 0.591063
vt 0.085925 0.584931
vt 0.097664 0.584931
vt 0.099528 0.669279
vt 0.096614 0.591063
vt 0.087033 0.591063
vt 0.091794 0.584931
vt 0.099528 0.662895
vt 0.092625 0.591063
vt 0.091022 0.591063
vt 0.091794 0.584931
vt 0.094986 0.673764
vt 0.091022 0.591063
vt 0.092625 0.591063
vt 0.087715 0.664343
vt 0.095923 0.664373
vt 0.093527 0.661969
vt 0.090111 0.670146
vt 0.093505 0.670160
vt 0.087716 0.667742
vt 0.095923 0.667772
vt 0.090133 0.661955
vt 0.091808 0.587808
vt 0.097394 0.587808
vt 0.086222 0.587808
vt 0.086222 0.587808
vt 0.097394 0.587808
vt 0.091808 0.587808
vt 0.086222 0.587808
vt 0.097395 0.587808
vt 0.091808 0.587808
vt 0.097394 0.587808
vt 0.086222 0.587808
vt 0.091808 0.587808
s 1
usemtl ammo_mp_1
f 5/11/1 14/29/2 30/62/3 20/39/4
f 1/1/1 5/11/1 6/13/5 3/7/5
f 3/7/5 6/13/5 4/10/6 2/4/6
f 9/19/7 7/14/7 8/17/8 10/21/8
f 10/21/8 8/17/8 2/5/6 4/9/6
f 13/27/9 11/22/9 15/30/10 16/32/10
f 16/32/10 15/30/10 7/15/7 9/20/7
f 5/12/1 1/2/1 12/25/2 14/29/2
f 14/29/2 12/25/2 11/23/9 13/28/9
f 2/6/11 8/18/11 7/16/11 15/31/11 11/24/11 12/26/11 1/3/11 3/8/11
f 4/9/6 6/13/5 22/44/12 17/34/13
f 16/32/10 9/19/7 24/48/14 32/66/15
f 14/29/2 13/27/9 28/58/16 30/62/3
f 13/28/9 16/32/10 32/66/15 28/57/16
f 10/21/8 4/10/6 17/33/13 26/53/17
f 9/20/7 10/21/8 26/53/17 24/49/14
f 6/13/5 5/12/1 20/40/4 22/44/12
f 36/72/18 21/41/19 31/63/20 35/71/21
f 42/78/22 43/80/23 20/39/4 30/62/3
f 38/74/24 33/67/25 25/50/26 37/73/27
f 44/82/28 45/83/29 32/66/15 24/48/14
f 39/75/30 27/54/31 19/36/32 34/70/33
f 46/85/34 47/86/35 26/53/17 17/33/13
f 40/76/36 29/59/37 33/67/25 38/74/24
f 45/83/29 48/88/38 28/57/16 32/66/15
f 41/77/39 23/45/40 21/41/19 36/72/18
f 43/79/23 49/89/41 22/44/12 20/40/4
f 34/70/33 19/36/32 23/45/40 41/77/39
f 49/89/41 46/84/34 17/34/13 22/44/12
f 37/73/27 25/50/26 27/54/31 39/75/30
f 47/86/35 44/81/28 24/49/14 26/53/17
f 35/71/21 31/63/20 29/59/37 40/76/36
f 48/87/38 42/78/22 30/62/3 28/58/16
f 18/35/42 35/71/21 40/76/36
f 18/35/42 37/73/27 39/75/30
f 18/35/42 34/70/33 41/77/39
f 18/35/42 41/77/39 36/72/18
f 18/35/42 40/76/36 38/74/24
f 18/35/42 39/75/30 34/70/33
f 18/35/42 38/74/24 37/73/27
f 18/35/42 36/72/18 35/71/21
f 29/60/37 31/64/20 42/78/22 48/87/38
f 27/55/31 25/51/26 44/81/28 47/86/35
f 23/46/40 19/37/32 46/84/34 49/89/41
f 21/42/19 23/47/40 49/89/41 43/79/23
f 33/68/25 29/61/37 48/88/38 45/83/29
f 19/38/32 27/56/31 47/86/35 46/85/34
f 25/52/26 33/69/25 45/83/29 44/82/28
f 31/65/20 21/43/19 43/80/23 42/78/22
