# Blender 3.4.0
# www.blender.org
mtllib ammo_box_mp_5.mtl
o ammo_box_mp_5
v -0.100015 0.097248 -0.047450
v -0.101317 0.000000 0.048750
v -0.100017 0.097248 0.047450
v -0.101315 -0.000000 -0.048750
v 0.100020 0.097248 -0.047450
v 0.101320 -0.000000 -0.048750
v 0.100020 0.097248 0.047450
v 0.101320 0.000000 0.048750
v 0.127320 0.110500 -0.048750
v 0.127320 0.110500 0.048750
v -0.127315 0.110500 -0.048750
v -0.127317 0.110500 0.048750
v -0.101315 0.174972 -0.094387
v 0.101320 0.174972 -0.094387
v 0.140320 0.117000 -0.035750
v 0.140320 0.117000 0.035750
v -0.140316 0.117000 0.035750
v -0.140316 0.117000 -0.035750
v -0.088370 0.185084 -0.087952
v 0.088375 0.185084 -0.087952
v 0.101323 0.098663 0.048750
v 0.139738 0.118163 0.035750
v 0.126738 0.111663 0.048750
v 0.126738 0.111663 -0.048750
v 0.139738 0.118163 -0.035750
v -0.101315 0.098663 -0.048750
v 0.101320 0.098663 -0.048750
v -0.101320 0.098663 0.048750
v -0.139734 0.118163 -0.035750
v -0.126734 0.111663 -0.048750
v -0.126735 0.111663 0.048750
v -0.139735 0.118163 0.035750
v 0.088375 0.184386 -0.086856
v 0.101320 0.174960 -0.092604
v -0.101315 0.174960 -0.092604
v -0.088370 0.184386 -0.086856
v -0.101315 0.131142 -0.071989
v 0.101320 0.131142 -0.071989
v -0.101315 0.131642 -0.070677
v 0.101320 0.131642 -0.070677
v -0.101315 0.109664 -0.060300
v -0.101315 0.110326 -0.059191
v 0.101320 0.109664 -0.060300
v 0.101320 0.110326 -0.059191
v 0.101320 0.153648 -0.082390
v 0.101320 0.154224 -0.080926
v -0.101315 0.153648 -0.082390
v -0.101315 0.154224 -0.080926
v -0.101317 0.097248 0.048750
v -0.101315 0.097248 -0.048750
v 0.101320 0.097248 -0.048750
v 0.101320 0.097248 0.048750
v -0.100017 0.090748 0.047450
v -0.100015 0.090748 -0.047450
v 0.100020 0.090748 -0.047450
v 0.100020 0.090748 0.047450
v -0.100016 0.090996 -0.047450
v -0.100017 0.090996 0.047450
v 0.100010 0.090996 -0.047450
v 0.100010 0.090996 0.047450
v -0.097506 0.091000 0.039178
v -0.097506 0.091000 -0.039178
v 0.094897 0.091000 -0.039178
v 0.094897 0.091000 0.039178
v -0.083204 0.091000 0.039178
v -0.083204 0.091000 -0.039178
v -0.065004 0.091000 0.039178
v -0.065004 0.091000 -0.039178
v -0.052011 0.091000 0.039178
v -0.052011 0.091000 -0.039178
v -0.039008 0.091000 0.039178
v -0.039008 0.091000 -0.039178
v -0.022108 0.091000 0.039178
v -0.022108 0.091000 -0.039178
v -0.003908 0.091000 0.039178
v -0.003908 0.091000 -0.039178
v 0.012993 0.091000 0.039178
v 0.012993 0.091000 -0.039178
v 0.028594 0.091000 0.039178
v 0.028594 0.091000 -0.039178
v 0.049393 0.091000 0.039178
v 0.049393 0.091000 -0.039178
v 0.070191 0.091000 0.039178
v 0.070191 0.091000 -0.039178
v 0.082639 0.091000 0.039178
v 0.082639 0.091000 -0.039178
v -0.089710 0.091000 0.046524
v -0.074109 0.091000 0.046524
v -0.058508 0.091000 0.046524
v -0.045505 0.091000 0.046524
v -0.029903 0.091000 0.046524
v -0.013003 0.091000 0.046524
v 0.005197 0.091000 0.046524
v 0.020789 0.091000 0.046524
v 0.038988 0.091000 0.046524
v 0.059797 0.091000 0.046524
v 0.076698 0.091000 0.046524
v 0.088768 0.091000 0.045300
v -0.089710 0.091000 -0.045300
v -0.074109 0.091000 -0.045300
v -0.058508 0.091000 -0.045300
v -0.045505 0.091000 -0.045300
v -0.029903 0.091000 -0.045300
v -0.013003 0.091000 -0.046525
v 0.005197 0.091000 -0.046525
v 0.020789 0.091000 -0.046525
v 0.038988 0.091000 -0.046525
v 0.059797 0.091000 -0.046525
v 0.076698 0.091000 -0.046525
v 0.088768 0.091000 -0.046525
v -0.089710 0.096200 0.039178
v -0.089710 0.096200 -0.039178
v -0.074109 0.096200 0.039178
v -0.074109 0.096200 -0.039178
v -0.058508 0.096200 0.039178
v -0.058508 0.096200 -0.039178
v -0.045505 0.096200 0.039178
v -0.045505 0.096200 -0.039178
v -0.029903 0.096200 0.039178
v -0.029903 0.096200 -0.039178
v -0.013003 0.096200 0.039178
v -0.013003 0.096200 -0.039178
v 0.005197 0.096200 0.039178
v 0.005197 0.096200 -0.039178
v 0.020789 0.096200 0.039178
v 0.020789 0.096200 -0.039178
v 0.038988 0.096200 0.039178
v 0.038988 0.096200 -0.039178
v 0.059797 0.096200 0.039178
v 0.059797 0.096200 -0.039178
v 0.076698 0.096200 0.039178
v 0.076698 0.096200 -0.039178
v 0.088768 0.096200 0.039178
v 0.088768 0.096200 -0.039178
vn -1.0000 -0.0000 -0.0000
vn -0.0000 -0.0000 -1.0000
vn 1.0000 -0.0000 -0.0000
vn -0.0000 -0.0000 1.0000
vn -0.0000 -1.0000 -0.0000
vn 0.3184 0.1592 0.9345
vn 0.8165 0.4082 0.4082
vn 0.3201 0.1600 0.9338
vn 1.0000 0.0013 -0.0000
vn 0.6455 0.7415 0.1827
vn 0.3477 0.8538 0.3875
vn 0.3490 0.8536 0.3868
vn -0.8165 0.4082 0.4082
vn -0.3184 0.1592 0.9345
vn -0.3201 0.1600 0.9338
vn -0.4525 0.8917 -0.0000
vn -0.4472 0.8944 -0.0000
vn -0.4554 0.8903 -0.0000
vn 0.8165 0.4083 -0.4082
vn 0.3184 0.1592 -0.9345
vn 0.3201 0.1600 -0.9338
vn -1.0000 0.0013 -0.0000
vn -0.0000 0.4524 0.8918
vn -0.0000 0.4907 0.8713
vn 0.4525 0.8918 -0.0000
vn 0.4472 0.8944 -0.0000
vn 0.4554 0.8903 -0.0000
vn -0.3184 0.1592 -0.9345
vn -0.3201 0.1600 -0.9338
vn -0.8165 0.4082 -0.4083
vn -0.0000 -0.5207 0.8537
vn -0.3477 0.8538 0.3875
vn -0.6456 0.7415 0.1827
vn -0.3490 0.8536 0.3868
vn -0.0000 0.5369 -0.8437
vn -0.0000 -0.4553 -0.8903
vn -0.0000 -0.4903 -0.8715
vn -0.4520 -0.8920 -0.0000
vn 0.4520 -0.8920 -0.0000
vn -0.0000 -0.5842 -0.8116
vn -0.0000 -0.4490 -0.8935
vn -0.0000 0.5747 0.8184
vn -0.0000 0.4441 0.8960
vn -0.0000 0.6670 0.7451
vn -0.0000 -0.6811 -0.7322
vn -0.0000 1.0000 -0.0000
vn -0.3392 0.8933 -0.2950
vn -0.3392 0.8933 0.2950
vn 0.3412 0.8984 0.2767
vn 0.3412 0.8984 -0.2766
vn 0.5335 0.8258 -0.1830
vn -0.0000 0.9479 -0.3187
vn 0.0047 0.9887 -0.1499
vn 0.0038 0.9465 0.3228
vn 0.5865 0.7871 0.1909
vn 0.0191 0.9875 0.1563
vn 0.0001 0.9450 0.3271
vn 0.3901 0.9116 0.1292
vn 0.0002 0.9869 0.1616
vn -0.0001 0.9459 0.3244
vn 0.4131 0.8970 0.1573
vn -0.0002 0.9874 0.1583
vn -0.0001 0.9450 0.3271
vn 0.4764 0.8568 0.1975
vn -0.0003 0.9867 0.1624
vn 0.0073 0.9455 0.3256
vn 0.4909 0.8566 0.1588
vn 0.0297 0.9867 0.1597
vn 0.0001 0.9455 0.3257
vn 0.4437 0.8816 0.1608
vn 0.0004 0.9871 0.1599
vn 0.4976 0.8487 0.1790
vn 0.0001 0.9463 0.3234
vn 0.5527 0.8120 0.1874
vn 0.0002 0.9876 0.1572
vn -0.0000 0.9450 0.3272
vn 0.5349 0.8248 0.1833
vn -0.0000 0.9865 0.1637
vn -0.0000 0.9449 0.3275
vn 0.4212 0.8979 0.1283
vn 0.0079 0.9474 0.3200
vn 0.5714 0.8019 0.1744
vn 0.0365 0.9877 0.1519
vn 0.5865 0.7871 -0.1909
vn 0.0038 0.9465 -0.3228
vn 0.0210 0.9875 -0.1562
vn 0.3901 0.9117 -0.1292
vn -0.0000 0.9450 -0.3271
vn -0.0033 0.9868 -0.1617
vn 0.4131 0.8970 -0.1573
vn -0.0001 0.9459 -0.3244
vn -0.0018 0.9874 -0.1583
vn 0.4764 0.8568 -0.1975
vn -0.0001 0.9450 -0.3271
vn -0.0044 0.9867 -0.1625
vn 0.4910 0.8566 -0.1588
vn 0.0073 0.9455 -0.3256
vn 0.0296 0.9867 -0.1597
vn 0.4437 0.8816 -0.1608
vn -0.0000 0.9455 -0.3257
vn -0.0024 0.9871 -0.1600
vn 0.4959 0.8460 -0.1957
vn 0.0101 0.9132 -0.4075
vn 0.0319 0.9804 -0.1946
vn 0.5500 0.8093 -0.2064
vn 0.0001 0.9146 -0.4044
vn 0.0029 0.9815 -0.1912
vn 0.5323 0.8223 -0.2014
vn -0.0000 0.9130 -0.4080
vn -0.0018 0.9803 -0.1977
vn 0.4213 0.8958 -0.1419
vn -0.0001 0.9123 -0.4096
vn -0.0020 0.9803 -0.1976
vn 0.5691 0.7989 -0.1945
vn 0.0114 0.9158 -0.4014
vn 0.0451 0.9815 -0.1863
vn -0.0000 0.9169 0.3991
vn -0.0082 0.9829 0.1838
vn -0.5812 0.7926 0.1845
vn -0.4396 0.8779 -0.1898
vn -0.4380 0.8797 -0.1849
vn -0.5291 0.8214 -0.2130
vn -0.5424 0.8217 -0.1747
vn -0.4318 0.8872 -0.1624
vn -0.4433 0.8818 -0.1608
vn -0.4393 0.8822 -0.1695
vn -0.4827 0.8573 -0.1790
vn -0.3942 0.9106 -0.1238
vn -0.4068 0.8976 -0.1700
vn -0.5834 0.7955 -0.1638
vn -0.5490 0.8118 -0.1990
vn -0.4414 0.8799 0.1762
vn -0.4391 0.8820 0.1710
vn -0.5323 0.8237 0.1953
vn -0.5441 0.8244 0.1558
vn -0.4323 0.8894 0.1485
vn -0.4433 0.8818 0.1608
vn -0.4393 0.8822 0.1695
vn -0.4827 0.8573 0.1789
vn -0.3942 0.9106 0.1238
vn -0.4068 0.8976 0.1700
vn -0.5491 0.8117 0.1990
vn 0.5305 0.8236 0.2007
vt 0.751953 0.998047
vt 0.871094 0.917969
vt 0.750000 0.917969
vt 1.000000 0.837891
vt 0.750000 0.675781
vt 0.917969 0.757812
vt 0.750000 0.917969
vt 0.751953 0.921875
vt 0.794922 0.917969
vt 0.917969 0.837891
vt 0.916016 0.998047
vt 0.916016 0.917969
vt 0.871094 0.917969
vt 0.917969 0.837891
vt 0.750000 0.837891
vt 0.916016 0.917969
vt 0.916016 0.921875
vt 0.794922 0.917969
vt 1.000000 0.837891
vt 0.917969 0.675781
vt 0.750000 0.757812
vt 0.750000 0.675781
vt 1.000000 0.908203
vt 0.750000 0.675781
vt 0.917969 0.908203
vt 0.750000 0.675781
vt 1.000000 0.908203
vt 0.750000 0.675781
vt 0.917969 0.908203
vt 0.750000 0.990234
vt 0.750000 1.000000
vt 0.750000 0.675781
vt 0.750000 0.675781
vt 0.917969 0.990234
vt 0.917969 1.000000
vt 0.750000 0.675781
vt 0.988281 0.919922
vt 0.750000 0.675781
vt 0.929688 0.919922
vt 0.750000 0.675781
vt 0.929688 0.919922
vt 0.750000 0.675781
vt 0.988281 0.919922
vt 0.750000 0.675781
vt 0.759766 1.000000
vt 0.750000 0.675781
vt 0.908203 1.000000
vt 0.750000 0.675781
vt 0.917969 0.880859
vt 0.795526 1.000000
vt 0.929688 0.919922
vt 0.750000 0.675781
vt 0.750000 0.675781
vt 0.917969 0.908203
vt 1.000000 0.908203
vt 0.750000 0.675781
vt 0.988281 0.919922
vt 0.750000 0.675781
vt 0.873888 1.000000
vt 0.753278 1.000000
vt 1.000000 0.880859
vt 0.750000 0.675781
vt 0.750000 0.919922
vt 1.000000 0.880859
vt 0.873888 1.000000
vt 0.916137 1.000000
vt 0.750000 0.675781
vt 0.917969 0.919922
vt 0.795526 1.000000
vt 0.917969 0.880859
vt 0.750000 0.675781
vt 0.988281 0.919922
vt 0.750000 0.675781
vt 1.000000 0.908203
vt 0.750000 0.675781
vt 0.917969 0.908203
vt 0.750000 0.675781
vt 0.929688 0.919922
vt 0.750000 0.675781
vt 0.759766 1.000000
vt 0.750000 0.675781
vt 0.750000 0.675781
vt 0.917969 1.000000
vt 0.750000 0.990234
vt 0.750000 1.000000
vt 0.917969 0.990234
vt 0.750000 0.675781
vt 0.908203 1.000000
vt 0.750000 0.675781
vt 0.750000 0.675781
vt 0.750000 0.958984
vt 0.917969 0.958984
vt 0.750000 0.675781
vt 0.750000 0.675781
vt 0.750000 0.958984
vt 0.917969 0.958984
vt 0.750000 0.675781
vt 0.750000 0.939453
vt 0.750000 0.675781
vt 0.750000 0.939453
vt 0.750000 0.675781
vt 0.750000 0.675781
vt 0.917969 0.939453
vt 0.750000 0.675781
vt 0.917969 0.939453
vt 0.917969 0.980469
vt 0.750000 0.675781
vt 0.917969 0.980469
vt 0.750000 0.675781
vt 0.750000 0.675781
vt 0.750000 0.980469
vt 0.750000 0.675781
vt 0.750000 0.980469
vt 1.000000 0.919710
vt 0.750000 0.757600
vt 0.795526 0.998863
vt 0.750000 0.675781
vt 0.917958 0.881169
vt 0.750000 0.919922
vt 0.917969 0.919710
vt 0.873888 0.998863
vt 0.753278 0.998863
vt 0.750000 0.675781
vt 1.000010 0.881168
vt 0.750000 0.920189
vt 0.750000 1.000000
vt 0.750000 0.919710
vt 0.917969 0.919710
vt 0.873888 0.998863
vt 0.916137 0.998863
vt 1.000010 0.881168
vt 0.750000 0.675781
vt 0.917969 0.920189
vt 0.917969 1.000000
vt 1.000000 0.919710
vt 0.917969 0.757600
vt 0.750000 0.675781
vt 0.795526 0.998863
vt 0.917958 0.881168
vt 0.917969 0.919922
vt 0.750000 0.912109
vt 0.794922 0.912109
vt 0.871094 0.912109
vt 0.750000 0.912109
vt 0.916016 0.912109
vt 0.871094 0.912109
vt 0.916016 0.912109
vt 0.794922 0.912109
vt 0.998906 0.676821
vt 0.919062 0.676821
vt 0.998906 0.836843
vt 0.919062 0.836843
vt 0.925507 0.677894
vt 0.992590 0.677937
vt 0.992819 0.834284
vt 0.924920 0.834218
vt 0.926104 0.690633
vt 0.991808 0.690637
vt 0.926106 0.704085
vt 0.991805 0.704081
vt 0.926107 0.713905
vt 0.991797 0.713902
vt 0.926106 0.725697
vt 0.991805 0.725700
vt 0.926104 0.739321
vt 0.991837 0.739322
vt 0.926105 0.753899
vt 0.991864 0.753899
vt 0.926103 0.767542
vt 0.991866 0.767543
vt 0.926106 0.779377
vt 0.991863 0.779377
vt 0.926109 0.796825
vt 0.991860 0.796825
vt 0.926108 0.812409
vt 0.991860 0.812409
vt 0.925990 0.823058
vt 0.992010 0.823060
vt 0.919793 0.684548
vt 0.919711 0.697348
vt 0.919799 0.709027
vt 0.919799 0.720400
vt 0.919729 0.732528
vt 0.919711 0.746596
vt 0.919729 0.760761
vt 0.919748 0.773443
vt 0.919685 0.788087
vt 0.919685 0.804644
vt 0.919804 0.818248
vt 0.920057 0.828970
vt 0.998065 0.684591
vt 0.998167 0.697348
vt 0.998045 0.709027
vt 0.998050 0.720417
vt 0.998142 0.732535
vt 0.998257 0.746596
vt 0.998240 0.760761
vt 0.998221 0.773443
vt 0.998284 0.788088
vt 0.998284 0.804644
vt 0.998165 0.818248
vt 0.998055 0.829031
vt 0.926101 0.684534
vt 0.991798 0.684566
vt 0.926049 0.697348
vt 0.991863 0.697348
vt 0.926090 0.709027
vt 0.991810 0.709027
vt 0.926085 0.720413
vt 0.991817 0.720423
vt 0.926066 0.732512
vt 0.991843 0.732518
vt 0.926050 0.746596
vt 0.991919 0.746596
vt 0.926067 0.760745
vt 0.991902 0.760745
vt 0.926067 0.773444
vt 0.991902 0.773444
vt 0.926036 0.788088
vt 0.991932 0.788088
vt 0.926037 0.804644
vt 0.991932 0.804644
vt 0.926096 0.818276
vt 0.991874 0.818277
vt 0.926181 0.828942
vt 0.991864 0.828989
s 1
usemtl ammo_mp_1
f 4/10/1 2/4/1 49/114/1 50/120/1
f 6/15/2 4/10/2 50/120/2 51/127/2
f 6/14/3 51/128/3 52/135/3 8/19/3
f 2/5/4 8/20/4 52/136/4 49/115/4
f 4/10/5 6/15/5 8/21/5 2/6/5
f 10/24/6 16/38/7 22/52/7 23/53/8
f 49/116/9 50/121/9 26/59/9 28/69/9
f 14/33/10 20/46/11 33/81/12 34/82/10
f 45/107/3 14/33/3 34/82/3 46/109/3
f 17/40/13 12/28/14 31/77/15 32/79/13
f 52/137/4 10/24/6 23/53/8 21/48/4
f 24/55/16 23/54/16 22/51/17 25/57/17
f 27/64/18 21/49/18 23/54/16 24/55/16
f 15/36/19 9/22/20 24/56/21 25/58/19
f 9/22/20 51/132/2 27/67/2 24/56/21
f 16/38/7 15/36/19 25/58/19 22/52/7
f 51/129/22 52/138/22 21/50/22 27/65/22
f 48/113/23 46/108/23 34/83/24 35/85/24
f 50/122/4 51/130/4 27/66/4 26/60/4
f 41/99/1 50/123/1 26/62/1 42/101/1
f 31/76/25 30/74/25 29/72/26 32/78/26
f 28/70/27 26/61/27 30/74/25 31/76/25
f 50/123/2 11/26/28 30/75/29 26/62/2
f 11/26/28 18/42/30 29/73/30 30/75/29
f 18/42/30 17/40/13 32/79/13 29/73/30
f 12/28/14 49/117/4 28/71/4 31/77/15
f 35/86/31 34/84/31 33/80/31 36/88/31
f 19/44/32 13/32/33 35/87/33 36/89/34
f 20/46/11 19/44/32 36/89/34 33/81/12
f 20/47/35 14/34/35 13/30/35 19/45/35
f 47/111/36 13/31/37 14/35/37 45/106/36
f 49/118/38 12/29/38 17/41/38 18/43/38 11/27/38 50/124/38
f 51/131/39 9/23/39 15/37/39 16/39/39 10/25/39 52/139/39
f 41/98/40 37/91/41 38/92/41 43/103/40
f 47/110/1 37/90/1 39/94/1 48/112/1
f 42/100/42 44/105/42 40/96/43 39/95/43
f 43/102/3 38/93/3 40/97/3 44/104/3
f 51/132/3 43/102/3 44/104/3 27/67/3
f 26/63/44 27/68/44 44/105/42 42/100/42
f 50/125/45 41/98/40 43/103/40 51/133/45
f 37/90/1 41/99/1 42/101/1 39/94/1
f 13/32/1 47/110/1 48/112/1 35/87/1
f 37/91/41 47/111/36 45/106/36 38/92/41
f 39/95/43 40/96/43 46/108/23 48/113/23
f 38/93/3 45/107/3 46/109/3 40/97/3
s 0
f 7/16/2 56/147/2 53/141/2 3/7/2
f 1/1/46 50/126/46 49/119/46 3/8/46
f 7/17/46 52/140/46 51/134/46 5/11/46
f 3/8/46 49/119/46 52/140/46 7/17/46
f 5/11/46 51/134/46 50/126/46 1/1/46
f 3/9/3 53/142/3 54/143/3 1/2/3
f 1/3/4 54/144/4 55/145/4 5/12/4
f 5/13/1 55/146/1 56/148/1 7/18/1
s 1
f 60/152/47 59/151/48 57/149/49 58/150/50
f 63/155/51 110/202/52 134/226/53
f 97/189/54 85/177/55 131/223/56
f 96/188/57 83/175/58 129/221/59
f 95/187/60 81/173/61 127/219/62
f 94/186/63 79/171/64 125/217/65
f 93/185/66 77/169/67 123/215/68
f 92/184/69 75/167/70 121/213/71
f 91/183/66 73/165/72 119/211/68
f 90/182/73 71/163/74 117/209/75
f 89/181/76 69/161/77 115/207/78
f 88/180/79 67/159/80 113/205/65
f 87/179/81 65/157/82 111/203/83
f 86/178/84 109/201/85 132/224/86
f 84/176/87 108/200/88 130/222/89
f 82/174/90 107/199/91 128/220/92
f 80/172/93 106/198/94 126/218/95
f 78/170/96 105/197/97 124/216/98
f 76/168/99 104/196/100 122/214/101
f 74/166/102 103/195/103 120/212/104
f 72/164/105 102/194/106 118/210/107
f 70/162/108 101/193/109 116/208/110
f 68/160/111 100/192/112 114/206/113
f 66/158/114 99/191/115 112/204/116
f 98/190/117 133/225/118 85/177/119
f 62/154/120 112/204/116 99/191/115
f 66/158/121 114/206/113 100/192/112
f 68/160/122 116/208/110 101/193/109
f 70/162/123 118/210/107 102/194/106
f 72/164/124 120/212/104 103/195/103
f 74/166/125 122/214/101 104/196/100
f 76/168/126 124/216/98 105/197/97
f 78/170/127 126/218/95 106/198/94
f 80/172/128 128/220/92 107/199/91
f 82/174/129 130/222/89 108/200/88
f 86/178/130 85/177/119 133/225/118 134/226/53
f 84/176/131 132/224/86 109/201/85
f 87/179/81 111/203/83 61/153/132
f 88/180/79 113/205/65 65/157/133
f 112/204/116 111/203/83 65/157/82 66/158/114
f 89/181/76 115/207/78 67/159/134
f 114/206/113 113/205/65 67/159/80 68/160/111
f 90/182/73 117/209/75 69/161/135
f 68/160/122 67/159/134 115/207/78 116/208/110
f 91/183/66 119/211/68 71/163/136
f 116/208/110 115/207/78 69/161/77 70/162/108
f 92/184/69 121/213/71 73/165/137
f 120/212/104 119/211/68 73/165/72 74/166/102
f 93/185/66 123/215/68 75/167/138
f 122/214/101 121/213/71 75/167/70 76/168/99
f 94/186/63 125/217/65 77/169/139
f 124/216/98 123/215/68 77/169/67 78/170/96
f 95/187/60 127/219/62 79/171/140
f 126/218/95 125/217/65 79/171/64 80/172/93
f 96/188/57 129/221/59 81/173/141
f 128/220/92 127/219/62 81/173/61 82/174/90
f 130/222/89 129/221/59 83/175/58 84/176/87
f 97/189/54 131/223/56 83/175/142
f 84/176/131 83/175/142 131/223/56 132/224/86
f 82/174/129 81/173/141 129/221/59 130/222/89
f 80/172/128 79/171/140 127/219/62 128/220/92
f 78/170/127 77/169/139 125/217/65 126/218/95
f 76/168/126 75/167/138 123/215/68 124/216/98
f 74/166/125 73/165/137 121/213/71 122/214/101
f 118/210/107 117/209/75 71/163/74 72/164/105
f 72/164/124 71/163/136 119/211/68 120/212/104
f 70/162/123 69/161/135 117/209/75 118/210/107
f 66/158/121 65/157/133 113/205/65 114/206/113
f 62/154/120 61/153/132 111/203/83 112/204/116
f 64/156/143 133/225/118 98/190/117
f 86/178/130 134/226/53 110/202/52
f 132/224/86 131/223/56 85/177/55 86/178/84
f 134/226/53 133/225/118 64/156/143 63/155/51
