# Blender 3.4.0
# www.blender.org
mtllib battery_mp_2.mtl
o battery_mp_2
v 0.043200 0.015110 -0.000000
v 0.043200 0.018592 0.008408
v 0.043200 0.038891 -0.000000
v 0.043200 0.035409 -0.008408
v 0.043200 0.018592 -0.008408
v -0.037300 0.000000 -0.000000
v -0.037300 0.002056 0.010332
v -0.037300 0.007909 0.019092
v -0.037300 0.016668 0.024945
v -0.037300 0.027000 0.027000
v -0.037300 0.037333 0.024945
v -0.037300 0.046092 0.019092
v -0.037300 0.051945 0.010332
v -0.037300 0.054000 -0.000000
v -0.037300 0.051945 -0.010333
v -0.037300 0.046092 -0.019092
v -0.037300 0.037333 -0.024945
v -0.037300 0.027000 -0.027000
v -0.037300 0.016668 -0.024945
v -0.037300 0.007909 -0.019092
v -0.037300 0.002056 -0.010333
v 0.045200 0.004599 0.009279
v 0.042500 0.002056 0.010332
v 0.042500 0.000000 -0.000000
v 0.045200 0.002753 -0.000000
v 0.045200 0.009855 0.017145
v 0.042500 0.007909 0.019092
v 0.045200 0.017722 0.022401
v 0.042500 0.016668 0.024945
v 0.045200 0.027000 0.024247
v 0.042500 0.027000 0.027000
v 0.045200 0.036279 0.022401
v 0.042500 0.037333 0.024945
v 0.045200 0.044146 0.017145
v 0.042500 0.046092 0.019092
v 0.045200 0.049402 0.009279
v 0.042500 0.051945 0.010332
v 0.045200 0.051248 -0.000000
v 0.042500 0.054000 -0.000000
v 0.045200 0.049402 -0.009279
v 0.042500 0.051945 -0.010333
v 0.045200 0.044146 -0.017145
v 0.042500 0.046092 -0.019092
v 0.045200 0.036279 -0.022402
v 0.042500 0.037333 -0.024945
v 0.045200 0.027000 -0.024247
v 0.042500 0.027000 -0.027000
v 0.045200 0.017722 -0.022402
v 0.042500 0.016668 -0.024945
v 0.045200 0.009855 -0.017145
v 0.042500 0.007909 -0.019092
v 0.045200 0.004599 -0.009279
v 0.042500 0.002056 -0.010333
v 0.045200 0.007654 -0.000000
v 0.045200 0.009126 0.007404
v 0.043200 0.014762 0.012238
v 0.045200 0.013320 0.013680
v 0.045200 0.019597 0.017874
v 0.045200 0.027000 0.019347
v 0.045200 0.034404 0.017874
v 0.045200 0.040681 0.013680
v 0.045200 0.044875 0.007404
v 0.045200 0.046347 -0.000000
v 0.045200 0.044875 -0.007404
v 0.043200 0.039239 -0.012238
v 0.045200 0.040681 -0.013680
v 0.043200 0.033624 -0.015990
v 0.045200 0.034404 -0.017874
v 0.045200 0.027000 -0.019347
v 0.045200 0.019597 -0.017874
v 0.045200 0.013320 -0.013680
v 0.043200 0.011010 -0.006623
v 0.045200 0.009126 -0.007404
v 0.043200 0.011010 0.006623
v 0.043200 0.009693 -0.000000
v 0.043200 0.020377 0.015990
v 0.043200 0.027000 0.017307
v 0.043200 0.033624 0.015990
v 0.043200 0.039239 0.012238
v 0.043200 0.042991 0.006623
v 0.043200 0.044308 -0.000000
v 0.043200 0.042991 -0.006623
v 0.043200 0.027000 -0.017308
v 0.043200 0.020377 -0.015990
v 0.043200 0.014762 -0.012238
v 0.047300 0.021738 -0.000000
v 0.047300 0.023280 0.003721
v 0.047300 0.027000 0.005262
v 0.047300 0.030721 0.003721
v 0.047300 0.032263 -0.000000
v 0.047300 0.030721 -0.003721
v 0.047300 0.027000 -0.005262
v 0.047300 0.023280 -0.003721
v 0.044200 0.016129 -0.000000
v 0.044200 0.019313 0.007687
v 0.044200 0.027000 0.010871
v 0.043200 0.027000 0.011891
v 0.044200 0.034688 0.007687
v 0.043200 0.035409 0.008408
v 0.044200 0.037872 -0.000000
v 0.044200 0.034688 -0.007687
v 0.044200 0.027000 -0.010871
v 0.043200 0.027000 -0.011891
v 0.044200 0.019313 -0.007687
v 0.044200 0.020362 -0.000000
v 0.044200 0.022306 0.004694
v 0.044200 0.027000 0.006638
v 0.044200 0.031695 0.004694
v 0.044200 0.033639 -0.000000
v 0.044200 0.031695 -0.004694
v 0.044200 0.027000 -0.006639
v 0.044200 0.022306 -0.004694
v -0.040000 0.004599 0.009279
v -0.040000 0.002753 -0.000000
v -0.040000 0.009855 0.017145
v -0.040000 0.017722 0.022401
v -0.040000 0.027000 0.024247
v -0.040000 0.036279 0.022401
v -0.040000 0.044146 0.017145
v -0.040000 0.049402 0.009279
v -0.040000 0.051248 -0.000000
v -0.040000 0.049402 -0.009279
v -0.040000 0.044146 -0.017145
v -0.040000 0.036279 -0.022402
v -0.040000 0.027000 -0.024247
v -0.040000 0.017722 -0.022402
v -0.040000 0.009855 -0.017145
v -0.040000 0.004599 -0.009279
v -0.038000 0.005768 -0.000000
v -0.038000 0.011987 0.015013
v -0.038000 0.018875 0.019616
v -0.038000 0.035126 0.019616
v -0.038000 0.035126 -0.019616
v -0.038000 0.011987 -0.015014
v -0.038000 0.007385 -0.008125
v -0.041000 0.014540 0.012460
v -0.041000 0.020257 0.016280
v -0.041000 0.033744 0.016280
v -0.041000 0.044622 -0.000000
v -0.041000 0.020257 -0.016280
v -0.041000 0.014540 -0.012460
v -0.041000 0.010721 0.006743
v -0.041000 0.009379 -0.000000
v -0.041000 0.027000 0.017621
v -0.041000 0.039461 0.012460
v -0.041000 0.043280 0.006743
v -0.041000 0.043280 -0.006744
v -0.041000 0.039461 -0.012460
v -0.041000 0.033744 -0.016280
v -0.041000 0.027000 -0.017621
v -0.041000 0.010721 -0.006744
v -0.038000 0.007385 0.008125
v -0.038000 0.027000 0.021232
v -0.038000 0.042014 0.015013
v -0.038000 0.046616 0.008125
v -0.038000 0.048233 -0.000000
v -0.038000 0.046616 -0.008125
v -0.038000 0.042014 -0.015014
v -0.038000 0.027000 -0.021232
v -0.038000 0.018875 -0.019616
vn -0.0000 -0.9239 -0.3827
vn -0.0000 -1.0000 -0.0000
vn -0.0000 -0.7071 0.7071
vn -0.0000 -0.3827 0.9239
vn -0.0000 -0.0000 1.0000
vn -0.0000 0.3827 0.9239
vn -0.0000 0.7071 0.7071
vn -0.0000 0.9239 0.3827
vn -0.0000 1.0000 -0.0000
vn -0.0000 0.9239 -0.3827
vn -0.0000 0.7071 -0.7071
vn -0.0000 0.3827 -0.9239
vn -0.0000 -0.0000 -1.0000
vn -0.0000 -0.3827 -0.9239
vn -0.0000 -0.7071 -0.7071
vn -0.0000 -0.9239 0.3827
vn 1.0000 -0.0000 -0.0000
vn -0.7139 -0.7002 -0.0000
vn -0.7139 -0.6469 0.2680
vn 0.7139 -0.6469 0.2680
vn 0.7139 -0.7002 -0.0000
vn -0.7139 -0.4951 0.4951
vn 0.7139 -0.4951 0.4951
vn -0.7139 -0.2680 0.6469
vn 0.7139 -0.2680 0.6469
vn -0.7139 -0.0000 0.7002
vn 0.7139 -0.0000 0.7002
vn -0.7139 0.2680 0.6469
vn 0.7139 0.2680 0.6469
vn -0.7139 0.4951 0.4951
vn 0.7139 0.4951 0.4951
vn -0.7139 0.6469 0.2680
vn 0.7139 0.6469 0.2680
vn -0.7139 0.7002 -0.0000
vn 0.7139 0.7002 -0.0000
vn -0.7139 0.6469 -0.2680
vn 0.7139 0.6469 -0.2680
vn -0.7139 0.4951 -0.4951
vn 0.7139 0.4951 -0.4951
vn -0.7139 0.2680 -0.6469
vn 0.7139 0.2680 -0.6469
vn -0.7139 -0.0000 -0.7002
vn 0.7139 -0.0000 -0.7002
vn -0.7139 -0.2680 -0.6469
vn 0.7139 -0.2680 -0.6469
vn -0.7139 -0.4951 -0.4951
vn 0.7139 -0.4951 -0.4951
vn -0.7139 -0.6469 -0.2680
vn 0.7139 -0.6469 -0.2680
vn 0.4058 0.9140 -0.0000
vn 0.4058 0.6463 0.6463
vn 0.4058 -0.9140 -0.0000
vn 0.4058 -0.6463 -0.6463
vn 0.4058 0.6463 -0.6463
vn 0.4058 -0.0000 -0.9140
vn 0.4058 -0.0000 0.9140
vn 0.4058 -0.6463 0.6463
vn -0.8333 0.3909 -0.3909
vn -0.8333 0.5107 -0.2115
vn -0.8333 -0.2115 0.5107
vn -0.8333 -0.3909 0.3909
vn -0.8333 -0.0000 -0.5528
vn -0.8333 0.2115 -0.5107
vn -0.8333 -0.0000 0.5528
vn -0.8333 -0.2115 -0.5107
vn -0.8333 0.2115 0.5107
vn -0.8333 -0.3909 -0.3909
vn -0.8333 0.3909 0.3909
vn -0.8333 -0.5107 -0.2115
vn -0.8333 0.5107 0.2115
vn -0.8333 -0.5528 -0.0000
vn -0.8333 0.5528 -0.0000
vn -0.8333 -0.5107 0.2115
vn -0.7692 -0.2446 -0.5904
vn -0.7692 -0.0000 -0.6390
vn -0.7692 0.4519 0.4519
vn -0.7692 0.2446 0.5904
vn -0.7692 -0.4519 -0.4519
vn -0.7692 0.5904 0.2446
vn -0.7692 -0.5904 -0.2446
vn -0.7692 0.6390 -0.0000
vn -0.7692 -0.6390 -0.0000
vn -0.7692 0.5904 -0.2446
vn -0.7692 -0.4519 0.4519
vn -0.7692 -0.5904 0.2446
vn -0.7692 0.4519 -0.4519
vn -0.7692 -0.2446 0.5904
vn -0.7692 0.2446 -0.5904
vn -0.7692 -0.0000 0.6390
vn -1.0000 -0.0000 -0.0000
vt 0.535918 0.845501
vt 0.542487 0.842780
vt 0.535918 0.826919
vt 0.529348 0.829640
vt 0.529348 0.842780
vt 0.382812 0.898438
vt 0.570312 0.898438
vt 0.535500 0.957344
vt 0.558594 0.898438
vt 0.545891 0.955277
vt 0.546875 0.898438
vt 0.554700 0.949391
vt 0.535156 0.898438
vt 0.560586 0.940582
vt 0.523438 0.898438
vt 0.562653 0.930190
vt 0.511719 0.898438
vt 0.560586 0.919799
vt 0.500000 0.898438
vt 0.554700 0.910990
vt 0.488281 0.898438
vt 0.545891 0.905104
vt 0.476562 0.898438
vt 0.535500 0.903037
vt 0.464844 0.898438
vt 0.525109 0.905104
vt 0.453125 0.898438
vt 0.516299 0.910990
vt 0.441406 0.898438
vt 0.510413 0.919799
vt 0.429688 0.898438
vt 0.508346 0.930190
vt 0.417969 0.898438
vt 0.510413 0.940582
vt 0.406250 0.898438
vt 0.516299 0.949391
vt 0.394531 0.898438
vt 0.525109 0.955277
vt 0.472067 0.892492
vt 0.558594 0.992188
vt 0.473245 0.895334
vt 0.382812 0.992188
vt 0.570312 0.992188
vt 0.461699 0.897631
vt 0.461699 0.894554
vt 0.480858 0.886619
vt 0.546875 0.992188
vt 0.483033 0.888794
vt 0.486731 0.877829
vt 0.535156 0.992188
vt 0.489573 0.879006
vt 0.488793 0.867460
vt 0.523438 0.992188
vt 0.491870 0.867460
vt 0.486731 0.857091
vt 0.511719 0.992188
vt 0.489573 0.855914
vt 0.480858 0.848301
vt 0.500000 0.992188
vt 0.483033 0.846126
vt 0.472067 0.842428
vt 0.488281 0.992188
vt 0.473245 0.839586
vt 0.461699 0.840366
vt 0.476562 0.992188
vt 0.461699 0.837289
vt 0.451330 0.842428
vt 0.464844 0.992188
vt 0.450153 0.839586
vt 0.442540 0.848301
vt 0.453125 0.992188
vt 0.440365 0.846126
vt 0.436667 0.857091
vt 0.441406 0.992188
vt 0.433825 0.855914
vt 0.434604 0.867460
vt 0.429688 0.992188
vt 0.431528 0.867460
vt 0.436667 0.877829
vt 0.417969 0.992188
vt 0.433825 0.879006
vt 0.442540 0.886619
vt 0.406250 0.992188
vt 0.440365 0.888794
vt 0.451330 0.892492
vt 0.394531 0.992188
vt 0.450153 0.895334
vt 0.461699 0.889079
vt 0.469972 0.887433
vt 0.475374 0.881135
vt 0.545480 0.845773
vt 0.476986 0.882747
vt 0.481672 0.875733
vt 0.483318 0.867460
vt 0.481672 0.859187
vt 0.476986 0.852173
vt 0.469972 0.847487
vt 0.461699 0.845841
vt 0.453426 0.847487
vt 0.448023 0.853785
vt 0.526355 0.826648
vt 0.446412 0.852173
vt 0.443831 0.860059
vt 0.523424 0.831035
vt 0.441726 0.859187
vt 0.440080 0.867460
vt 0.441726 0.875733
vt 0.446412 0.882747
vt 0.454298 0.885328
vt 0.530743 0.848704
vt 0.453426 0.887433
vt 0.469100 0.885328
vt 0.541093 0.848704
vt 0.461699 0.886800
vt 0.535918 0.849733
vt 0.479567 0.874861
vt 0.548412 0.841385
vt 0.481039 0.867460
vt 0.549441 0.836210
vt 0.479567 0.860059
vt 0.548412 0.831035
vt 0.475374 0.853785
vt 0.545480 0.826648
vt 0.469100 0.849592
vt 0.541093 0.823716
vt 0.461699 0.848120
vt 0.535918 0.822687
vt 0.454298 0.849592
vt 0.530743 0.823716
vt 0.442359 0.867460
vt 0.522394 0.836210
vt 0.443831 0.874861
vt 0.523424 0.841385
vt 0.448023 0.881135
vt 0.526355 0.845773
vt 0.535918 0.840322
vt 0.538825 0.839117
vt 0.540029 0.836210
vt 0.538825 0.833303
vt 0.535918 0.832098
vt 0.533010 0.833303
vt 0.531806 0.836210
vt 0.533010 0.839117
vt 0.535918 0.844704
vt 0.541924 0.842216
vt 0.544412 0.836210
vt 0.545209 0.836210
vt 0.541924 0.830204
vt 0.542487 0.829640
vt 0.535918 0.827716
vt 0.529911 0.830204
vt 0.527423 0.836210
vt 0.526627 0.836210
vt 0.529911 0.842216
vt 0.535918 0.841397
vt 0.539586 0.839878
vt 0.541105 0.836210
vt 0.539586 0.832542
vt 0.535918 0.831023
vt 0.532250 0.832542
vt 0.530731 0.836210
vt 0.532250 0.839878
vt 0.544832 0.952719
vt 0.535500 0.954575
vt 0.552743 0.947433
vt 0.558029 0.939522
vt 0.559885 0.930190
vt 0.558029 0.920859
vt 0.552743 0.912948
vt 0.544832 0.907662
vt 0.535500 0.905805
vt 0.526168 0.907662
vt 0.518257 0.912948
vt 0.512971 0.920859
vt 0.511115 0.930190
vt 0.512971 0.939522
vt 0.518257 0.947433
vt 0.526168 0.952719
vt 0.535500 0.855421
vt 0.535500 0.951543
vt 0.550599 0.945289
vt 0.548921 0.849862
vt 0.555227 0.938362
vt 0.553035 0.843704
vt 0.555227 0.922019
vt 0.553035 0.829177
vt 0.515772 0.922019
vt 0.517964 0.829177
vt 0.520401 0.945289
vt 0.522079 0.849862
vt 0.527328 0.949918
vt 0.528236 0.853976
vt 0.546426 0.847261
vt 0.546320 0.847366
vt 0.546639 0.847579
vt 0.549735 0.842256
vt 0.549678 0.842394
vt 0.550053 0.842469
vt 0.549735 0.830625
vt 0.549678 0.830487
vt 0.550053 0.830412
vt 0.535425 0.821063
vt 0.535575 0.821063
vt 0.535500 0.820688
vt 0.521322 0.842394
vt 0.521265 0.842256
vt 0.520947 0.842469
vt 0.524680 0.847366
vt 0.524574 0.847261
vt 0.524361 0.847579
vt 0.541315 0.850675
vt 0.541528 0.850994
vt 0.541453 0.850618
vt 0.535575 0.851817
vt 0.535500 0.852193
vt 0.535425 0.851817
vt 0.550877 0.836366
vt 0.550877 0.836515
vt 0.551252 0.836440
vt 0.546320 0.825514
vt 0.546426 0.825620
vt 0.546638 0.825302
vt 0.541315 0.822205
vt 0.541453 0.822262
vt 0.541528 0.821887
vt 0.529546 0.822262
vt 0.529684 0.822205
vt 0.529472 0.821887
vt 0.524574 0.825620
vt 0.524679 0.825514
vt 0.524361 0.825302
vt 0.521265 0.830625
vt 0.521322 0.830487
vt 0.520947 0.830412
vt 0.520123 0.836366
vt 0.520123 0.836515
vt 0.519747 0.836440
vt 0.529684 0.850676
vt 0.529546 0.850618
vt 0.529472 0.850994
vt 0.542763 0.853976
vt 0.543671 0.949918
vt 0.556853 0.930190
vt 0.554480 0.836440
vt 0.550599 0.915092
vt 0.548921 0.823019
vt 0.543671 0.910463
vt 0.542763 0.818905
vt 0.535500 0.908837
vt 0.535500 0.817460
vt 0.527328 0.910463
vt 0.528236 0.818905
vt 0.520401 0.915092
vt 0.522079 0.823019
vt 0.514147 0.930190
vt 0.516520 0.836440
vt 0.515772 0.938362
vt 0.517964 0.843704
s 1
usemtl batteries_mp_1
f 21/37/1 53/86/1 24/42/2 6/6/2
f 8/11/3 27/47/3 29/50/4 9/13/4
f 9/13/4 29/50/4 31/53/5 10/15/5
f 10/15/5 31/53/5 33/56/6 11/17/6
f 11/17/6 33/56/6 35/59/7 12/19/7
f 12/19/7 35/59/7 37/62/8 13/21/8
f 13/21/8 37/62/8 39/65/9 14/23/9
f 14/23/9 39/65/9 41/68/10 15/25/10
f 15/25/10 41/68/10 43/71/11 16/27/11
f 16/27/11 43/71/11 45/74/12 17/29/12
f 17/29/12 45/74/12 47/77/13 18/31/13
f 18/31/13 47/77/13 49/80/14 19/33/14
f 19/33/14 49/80/14 51/83/15 20/35/15
f 20/35/15 51/83/15 53/86/1 21/37/1
f 7/9/16 23/40/16 27/47/3 8/11/3
f 6/7/2 24/43/2 23/40/16 7/9/16
f 54/88/17 55/89/17 22/39/17 25/45/17
f 64/99/17 66/102/17 42/70/17 40/67/17
f 111/161/17 112/162/17 104/154/17 102/152/17
f 57/92/17 58/93/17 28/49/17 26/46/17
f 66/102/17 68/105/17 44/73/17 42/70/17
f 58/93/17 59/94/17 30/52/17 28/49/17
f 68/105/17 69/106/17 46/76/17 44/73/17
f 59/94/17 60/95/17 32/55/17 30/52/17
f 69/106/17 70/107/17 48/79/17 46/76/17
f 60/95/17 61/96/17 34/58/17 32/55/17
f 70/107/17 71/108/17 50/82/17 48/79/17
f 61/96/17 62/97/17 36/61/17 34/58/17
f 71/108/17 73/111/17 52/85/17 50/82/17
f 62/97/17 63/98/17 38/64/17 36/61/17
f 73/111/17 54/88/17 25/45/17 52/85/17
f 63/98/17 64/99/17 40/67/17 38/64/17
f 55/89/17 57/92/17 26/46/17 22/39/17
f 6/8/18 7/10/19 113/163/19 114/164/18
f 23/41/20 24/44/21 25/45/21 22/39/20
f 7/10/19 8/12/22 115/165/22 113/163/19
f 27/48/23 23/41/20 22/39/20 26/46/23
f 8/12/22 9/14/24 116/166/24 115/165/22
f 29/51/25 27/48/23 26/46/23 28/49/25
f 9/14/24 10/16/26 117/167/26 116/166/24
f 31/54/27 29/51/25 28/49/25 30/52/27
f 10/16/26 11/18/28 118/168/28 117/167/26
f 33/57/29 31/54/27 30/52/27 32/55/29
f 11/18/28 12/20/30 119/169/30 118/168/28
f 35/60/31 33/57/29 32/55/29 34/58/31
f 12/20/30 13/22/32 120/170/32 119/169/30
f 37/63/33 35/60/31 34/58/31 36/61/33
f 13/22/32 14/24/34 121/171/34 120/170/32
f 39/66/35 37/63/33 36/61/33 38/64/35
f 14/24/34 15/26/36 122/172/36 121/171/34
f 41/69/37 39/66/35 38/64/35 40/67/37
f 15/26/36 16/28/38 123/173/38 122/172/36
f 43/72/39 41/69/37 40/67/37 42/70/39
f 16/28/38 17/30/40 124/174/40 123/173/38
f 45/75/41 43/72/39 42/70/39 44/73/41
f 17/30/40 18/32/42 125/175/42 124/174/40
f 47/78/43 45/75/41 44/73/41 46/76/43
f 18/32/42 19/34/44 126/176/44 125/175/42
f 49/81/45 47/78/43 46/76/43 48/79/45
f 19/34/44 20/36/46 127/177/46 126/176/44
f 51/84/47 49/81/45 48/79/45 50/82/47
f 20/36/46 21/38/48 128/178/48 127/177/46
f 53/87/49 51/84/47 50/82/47 52/85/49
f 21/38/48 6/8/18 114/164/18 128/178/48
f 24/44/21 53/87/49 52/85/49 25/45/21
f 55/89/37 54/88/35 75/114/35 74/112/37
f 57/92/39 55/89/37 74/112/37 56/90/39
f 58/93/41 57/92/39 56/90/39 76/116/41
f 59/94/43 58/93/41 76/116/41 77/118/43
f 60/95/45 59/94/43 77/118/43 78/120/45
f 61/96/47 60/95/45 78/120/45 79/122/47
f 62/97/49 61/96/47 79/122/47 80/124/49
f 63/98/21 62/97/49 80/124/49 81/126/21
f 64/99/20 63/98/21 81/126/21 82/128/20
f 66/102/23 64/99/20 82/128/20 65/100/23
f 68/105/25 66/102/23 65/100/23 67/103/25
f 69/106/27 68/105/25 67/103/25 83/130/27
f 70/107/29 69/106/27 83/130/27 84/132/29
f 71/108/31 70/107/29 84/132/29 85/134/31
f 73/111/33 71/108/31 85/134/31 72/109/33
f 54/88/35 73/111/33 72/109/33 75/114/35
f 97/147/17 76/117/17 2/2/17
f 2/2/17 76/117/17 56/91/17
f 97/147/17 78/121/17 77/119/17
f 99/149/17 80/125/17 79/123/17
f 103/153/17 67/104/17 4/4/17
f 4/4/17 67/104/17 65/101/17
f 103/153/17 84/133/17 83/131/17
f 5/5/17 72/110/17 85/135/17
f 107/157/17 108/158/17 98/148/17 96/146/17
f 108/158/17 109/159/17 100/150/17 98/148/17
f 112/162/17 105/155/17 94/144/17 104/154/17
f 109/159/17 110/160/17 101/151/17 100/150/17
f 109/159/50 108/158/51 89/139/51 90/140/50
f 110/160/17 111/161/17 102/152/17 101/151/17
f 106/156/17 107/157/17 96/146/17 95/145/17
f 105/155/52 112/162/53 93/143/53 86/136/52
f 110/160/54 109/159/50 90/140/50 91/141/54
f 111/161/55 110/160/54 91/141/54 92/142/55
f 108/158/51 107/157/56 88/138/56 89/139/51
f 112/162/53 111/161/55 92/142/55 93/143/53
f 89/139/17 91/141/17 90/140/17
f 2/2/23 1/1/21 94/144/21 95/145/23
f 107/157/56 106/156/57 87/137/57 88/138/56
f 97/147/27 2/2/23 95/145/23 96/146/27
f 99/149/31 97/147/27 96/146/27 98/148/31
f 4/4/39 3/3/35 100/150/35 101/151/39
f 5/5/47 103/153/43 102/152/43 104/154/47
f 103/153/43 4/4/39 101/151/39 102/152/43
f 1/1/17 2/2/17 74/113/17
f 1/1/21 5/5/47 104/154/47 94/144/21
f 105/155/17 106/156/17 95/145/17 94/144/17
f 130/181/58 152/242/59 113/163/59 115/165/58
f 133/187/60 158/253/61 123/173/61 124/174/60
f 153/243/62 131/183/63 116/166/63 117/167/62
f 159/255/64 133/187/60 124/174/60 125/175/64
f 132/185/65 153/243/62 117/167/62 118/168/65
f 160/257/66 159/255/64 125/175/64 126/176/66
f 154/245/67 132/185/65 118/168/65 119/169/67
f 134/189/68 160/257/66 126/176/66 127/177/68
f 155/247/69 154/245/67 119/169/67 120/170/69
f 135/191/70 134/189/68 127/177/68 128/178/70
f 156/249/71 155/247/69 120/170/69 121/171/71
f 129/180/72 135/191/70 128/178/70 114/164/72
f 157/251/73 156/249/71 121/171/71 122/172/73
f 131/183/63 130/181/58 115/165/58 116/166/63
f 158/253/61 157/251/73 122/172/73 123/173/61
f 140/205/74 150/235/75 159/256/75 160/258/74
f 145/220/76 138/199/77 132/186/77 154/246/76
f 141/208/78 140/206/74 160/258/74 134/190/78
f 146/223/79 145/221/76 154/246/76 155/248/79
f 151/238/80 141/209/78 134/190/78 135/192/80
f 139/202/81 146/224/79 155/248/79 156/250/81
f 143/214/82 151/239/80 135/192/80 129/179/82
f 147/226/83 139/203/81 156/250/81 157/252/83
f 136/193/84 142/211/85 152/241/85 130/182/84
f 148/229/86 147/227/83 157/252/83 158/254/86
f 137/196/87 136/194/84 130/182/84 131/184/87
f 149/232/88 148/230/86 158/254/86 133/188/88
f 144/217/89 137/197/87 131/184/87 153/244/89
f 150/236/75 149/233/88 133/188/88 159/256/75
f 138/200/77 144/218/89 153/244/89 132/186/77
f 144/219/90 138/201/90 145/222/90 146/225/90 139/204/90 147/228/90 148/231/90 149/234/90 150/237/90 140/207/90 141/210/90 151/240/90 143/215/90 142/212/90 136/195/90 137/198/90
f 99/149/17 3/3/17 80/125/17
f 142/213/85 143/216/82 129/179/82 152/241/85
f 152/242/59 129/180/72 114/164/72 113/163/59
f 74/113/17 75/115/17 1/1/17
f 97/147/17 99/149/17 78/121/17
f 3/3/17 4/4/17 82/129/17
f 103/153/17 5/5/17 84/133/17
f 82/129/17 81/127/17 3/3/17
f 5/5/17 1/1/17 72/110/17
f 3/3/35 99/149/31 98/148/31 100/150/35
f 74/113/17 2/2/17 56/91/17
f 76/117/17 97/147/17 77/119/17
f 78/121/17 99/149/17 79/123/17
f 80/125/17 3/3/17 81/127/17
f 82/129/17 4/4/17 65/101/17
f 67/104/17 103/153/17 83/131/17
f 84/133/17 5/5/17 85/135/17
f 72/110/17 1/1/17 75/115/17
f 106/156/57 105/155/52 86/136/52 87/137/57
f 88/138/17 92/142/17 91/141/17 89/139/17
f 87/137/17 86/136/17 93/143/17
f 88/138/17 87/137/17 93/143/17 92/142/17
