# Blender 3.4.0
# www.blender.org
mtllib battery_mp_3_1.mtl
o battery_mp_3_1
v 0.026396 -0.000000 -0.018399
v 0.032396 -0.000000 -0.012399
v 0.032396 -0.000000 0.012399
v 0.026396 -0.000000 0.018399
v -0.026397 -0.000000 0.018399
v -0.032397 -0.000000 0.012399
v -0.032397 -0.000000 -0.012399
v -0.026397 -0.000000 -0.018399
v 0.032396 0.095760 -0.012399
v 0.026396 0.095760 -0.018399
v 0.026396 0.095760 0.018399
v 0.032396 0.095760 0.012399
v -0.032397 0.095760 0.012399
v -0.026397 0.095760 0.018399
v -0.026397 0.095760 -0.018399
v -0.032397 0.095760 -0.012399
v -0.009228 0.096760 -0.000000
v -0.011094 0.096760 0.004506
v -0.015601 0.096760 0.006373
v -0.020107 0.096760 0.004506
v -0.021974 0.096760 -0.000000
v -0.020107 0.096760 -0.004507
v -0.015601 0.096760 -0.006373
v -0.011094 0.096760 -0.004507
v -0.012196 0.098960 0.003404
v -0.010786 0.098960 -0.000000
v -0.019005 0.098960 0.003404
v -0.015601 0.098960 0.004814
v -0.019005 0.098960 -0.003404
v -0.020415 0.098960 -0.000000
v -0.012196 0.098960 -0.003404
v -0.015601 0.098960 -0.004815
v -0.011369 0.102960 0.004232
v -0.009616 0.102960 -0.000000
v -0.019832 0.102960 0.004232
v -0.015601 0.102960 0.005984
v -0.019832 0.102960 -0.004232
v -0.021585 0.102960 -0.000000
v -0.011369 0.102960 -0.004232
v -0.015601 0.102960 -0.005985
v -0.012404 0.102960 0.003197
v -0.011080 0.102960 -0.000000
v -0.018797 0.102960 0.003197
v -0.015601 0.102960 0.004521
v -0.018797 0.102960 -0.003197
v -0.020122 0.102960 -0.000000
v -0.012404 0.102960 -0.003197
v -0.015601 0.102960 -0.004521
v 0.024363 0.097760 -0.000000
v 0.021797 0.097760 0.006196
v 0.015601 0.097760 0.008763
v 0.009404 0.097760 0.006196
v 0.006838 0.097760 -0.000000
v 0.009404 0.097760 -0.006197
v 0.015601 0.097760 -0.008763
v 0.021797 0.097760 -0.006197
v 0.020281 0.098960 0.004681
v 0.022220 0.098960 -0.000000
v 0.010920 0.098960 0.004681
v 0.015601 0.098960 0.006620
v 0.010920 0.098960 -0.004681
v 0.008981 0.098960 -0.000000
v 0.020281 0.098960 -0.004681
v 0.015601 0.098960 -0.006620
v 0.021797 0.102960 0.006196
v 0.024363 0.102960 -0.000000
v 0.009404 0.102960 0.006196
v 0.015601 0.102960 0.008763
v 0.009404 0.102960 -0.006197
v 0.006838 0.102960 -0.000000
v 0.021797 0.102960 -0.006197
v 0.015601 0.102960 -0.008763
v 0.019813 0.102960 0.004213
v 0.021558 0.102960 -0.000000
v 0.011388 0.102960 0.004213
v 0.015601 0.102960 0.005958
v 0.011388 0.102960 -0.004213
v 0.009643 0.102960 -0.000000
v 0.019813 0.102960 -0.004213
v 0.015601 0.102960 -0.005958
v -0.008840 0.096760 0.006759
v -0.006040 0.096760 -0.000000
v -0.022359 0.096760 0.006759
v -0.015600 0.096760 0.009559
v -0.022360 0.096760 -0.006760
v -0.025159 0.096760 -0.000000
v -0.008840 0.096760 -0.006760
v -0.015600 0.096760 -0.009560
v -0.008840 0.095760 0.006759
v -0.006040 0.095760 -0.000000
v -0.022359 0.095760 0.006759
v -0.015600 0.095760 0.009559
v -0.022360 0.095760 -0.006760
v -0.025159 0.095760 -0.000000
v -0.008840 0.095760 -0.006760
v -0.015600 0.095760 -0.009560
v 0.020558 0.095760 0.004957
v 0.022611 0.095760 -0.000000
v 0.010644 0.095760 0.004957
v 0.015601 0.095760 0.007010
v 0.010644 0.095760 -0.004957
v 0.008591 0.095760 -0.000000
v 0.020558 0.095760 -0.004957
v 0.015601 0.095760 -0.007011
vn 0.9239 -0.0000 -0.3827
vn 0.9239 -0.0000 0.3827
vn -0.9239 -0.0000 0.3827
vn -0.9239 -0.0000 -0.3827
vn 0.3827 -0.0000 0.9239
vn -0.3827 -0.0000 0.9239
vn -0.3827 -0.0000 -0.9239
vn 0.3827 -0.0000 -0.9239
vn -0.0000 1.0000 -0.0000
vn -0.0000 -1.0000 -0.0000
vn -0.0000 0.0625 0.9980
vn -0.7057 0.0625 0.7057
vn 0.7057 0.0625 0.7057
vn -0.7057 0.0625 -0.7057
vn -0.0000 0.0625 -0.9980
vn -0.9980 0.0625 -0.0000
vn 0.7057 0.0625 -0.7057
vn 0.9980 0.0625 -0.0000
vn -0.7052 -0.0732 0.7052
vn -0.9973 -0.0732 -0.0000
vn -0.7052 -0.0732 -0.7052
vn -0.0000 -0.0732 -0.9973
vn 0.7052 -0.0732 -0.7052
vn 0.9973 -0.0732 -0.0000
vn 0.7052 -0.0732 0.7052
vn -0.0000 -0.0732 0.9973
vn -0.0000 -0.0000 1.0000
vn -0.7071 -0.0000 0.7071
vn 0.7071 -0.0000 0.7071
vn -0.7071 -0.0000 -0.7071
vn -0.0000 -0.0000 -1.0000
vn -1.0000 -0.0000 -0.0000
vn 0.7071 -0.0000 -0.7071
vn 1.0000 -0.0000 -0.0000
vn -0.6976 -0.1633 0.6976
vn -0.9866 -0.1633 -0.0000
vn -0.6976 -0.1633 -0.6976
vn -0.0000 -0.1633 -0.9866
vn 0.6976 -0.1633 -0.6976
vn 0.9866 -0.1633 -0.0000
vn 0.6976 -0.1633 0.6976
vn -0.0000 -0.1633 0.9866
vn -0.7520 -0.6591 -0.0000
vn -0.5318 -0.6591 -0.5318
vn 0.7522 -0.6590 -0.0000
vn 0.5318 -0.6590 0.5318
vn 0.5319 -0.6590 0.5318
vn 0.5318 -0.6590 -0.5318
vn 0.5319 -0.6590 -0.5318
vn -0.5318 -0.6591 0.5318
vn -0.0000 -0.6591 -0.7521
vn -0.0000 -0.6591 0.7521
vt 0.644531 0.703125
vt 0.751220 0.651976
vt 0.613281 0.703125
vt 0.636719 0.703125
vt 0.756807 0.646389
vt 0.636719 0.703125
vt 0.756807 0.623298
vt 0.644531 0.703125
vt 0.751220 0.617710
vt 0.699219 0.703125
vt 0.702059 0.617710
vt 0.707031 0.703125
vt 0.696472 0.623298
vt 0.730469 0.703125
vt 0.707031 0.703125
vt 0.696472 0.646389
vt 0.699219 0.703125
vt 0.702060 0.651976
vt 0.613281 0.796875
vt 0.756813 0.689377
vt 0.636719 0.796875
vt 0.751226 0.694964
vt 0.644531 0.796875
vt 0.751226 0.660699
vt 0.644531 0.796875
vt 0.756813 0.666286
vt 0.636719 0.796875
vt 0.696478 0.666286
vt 0.707031 0.796875
vt 0.702066 0.660699
vt 0.699219 0.796875
vt 0.702066 0.694964
vt 0.699219 0.796875
vt 0.730469 0.796875
vt 0.696478 0.689377
vt 0.707031 0.796875
vt 0.308594 0.344166
vt 0.312495 0.344167
vt 0.304691 0.344120
vt 0.308594 0.344167
vt 0.304692 0.344167
vt 0.308594 0.344167
vt 0.304691 0.344120
vt 0.312497 0.344167
vt 0.308594 0.344166
vt 0.312496 0.344167
vt 0.350595 0.338858
vt 0.358407 0.345585
vt 0.352530 0.345584
vt 0.351812 0.341797
vt 0.355469 0.345584
vt 0.344718 0.338858
vt 0.352530 0.345585
vt 0.347656 0.337641
vt 0.355469 0.345585
vt 0.344718 0.344736
vt 0.352530 0.345585
vt 0.358407 0.345584
vt 0.343500 0.341797
vt 0.355469 0.345584
vt 0.350595 0.344736
vt 0.358407 0.345585
vt 0.347656 0.345953
vt 0.355469 0.345585
vt 0.312278 0.349158
vt 0.312247 0.344003
vt 0.304909 0.349147
vt 0.313760 0.347656
vt 0.308594 0.349159
vt 0.304909 0.349158
vt 0.304941 0.344003
vt 0.308594 0.349158
vt 0.308594 0.342490
vt 0.312279 0.349158
vt 0.304927 0.350393
vt 0.308594 0.349158
vt 0.303428 0.347656
vt 0.312265 0.350028
vt 0.308594 0.350620
vt 0.358258 0.349041
vt 0.311353 0.344897
vt 0.352679 0.349041
vt 0.312496 0.347656
vt 0.355469 0.349041
vt 0.305834 0.344897
vt 0.352679 0.349041
vt 0.308594 0.343754
vt 0.355469 0.349041
vt 0.352679 0.349041
vt 0.305834 0.350416
vt 0.358258 0.349041
vt 0.304691 0.347656
vt 0.355469 0.349041
vt 0.311353 0.350416
vt 0.358258 0.349041
vt 0.308594 0.351559
vt 0.355469 0.349041
vt 0.308594 0.344549
vt 0.303245 0.344549
vt 0.313943 0.344549
vt 0.308594 0.344549
vt 0.303245 0.344549
vt 0.308594 0.344549
vt 0.313943 0.344549
vt 0.303245 0.344549
vt 0.308594 0.344549
vt 0.313943 0.344549
vt 0.351697 0.337756
vt 0.359509 0.345584
vt 0.351428 0.345584
vt 0.353371 0.341797
vt 0.355469 0.345584
vt 0.343616 0.337756
vt 0.351428 0.345584
vt 0.347656 0.336082
vt 0.355469 0.345584
vt 0.343616 0.345838
vt 0.351428 0.345584
vt 0.359509 0.345584
vt 0.341942 0.341797
vt 0.355469 0.345584
vt 0.351697 0.345838
vt 0.359509 0.345584
vt 0.347656 0.347511
vt 0.355469 0.345584
vt 0.313943 0.349037
vt 0.313943 0.342307
vt 0.303245 0.349037
vt 0.316158 0.347656
vt 0.308594 0.349037
vt 0.303245 0.349037
vt 0.303245 0.342307
vt 0.308594 0.349037
vt 0.308594 0.340092
vt 0.313943 0.349037
vt 0.303245 0.351298
vt 0.308594 0.349037
vt 0.301029 0.347656
vt 0.313943 0.350615
vt 0.308594 0.349037
vt 0.308594 0.355221
vt 0.359172 0.349057
vt 0.312230 0.344020
vt 0.351766 0.349057
vt 0.313737 0.347656
vt 0.355469 0.349057
vt 0.304957 0.344020
vt 0.351766 0.349057
vt 0.308594 0.342513
vt 0.355469 0.349057
vt 0.351766 0.349057
vt 0.304957 0.351293
vt 0.359172 0.349057
vt 0.303451 0.347656
vt 0.355469 0.349057
vt 0.312230 0.351293
vt 0.359172 0.349057
vt 0.308594 0.352799
vt 0.355469 0.349057
vt 0.303729 0.343661
vt 0.313441 0.344549
vt 0.308595 0.344586
vt 0.303747 0.344549
vt 0.308594 0.344549
vt 0.303730 0.343662
vt 0.313466 0.344549
vt 0.308594 0.344549
vt 0.313457 0.344549
vt 0.308595 0.344586
vt 0.303780 0.343766
vt 0.313389 0.344549
vt 0.308594 0.344619
vt 0.303798 0.344549
vt 0.308594 0.344549
vt 0.303780 0.343766
vt 0.313411 0.344549
vt 0.308593 0.344549
vt 0.313404 0.344545
vt 0.308595 0.344619
vt 0.303780 0.342995
vt 0.312722 0.344549
vt 0.309131 0.344499
vt 0.304445 0.344549
vt 0.308668 0.344549
vt 0.312722 0.344549
vt 0.303780 0.342995
vt 0.308668 0.344549
vt 0.312959 0.344549
vt 0.309131 0.344499
s 1
usemtl batteries_mp_1
f 9/19/1 12/27/2 3/6/2 2/3/1
f 13/29/3 16/34/4 7/14/4 6/12/3
f 11/25/5 14/31/6 5/10/6 4/8/5
f 15/33/7 10/23/8 1/1/8 8/17/7
f 15/32/9 16/35/9 13/28/9 14/30/9 11/24/9 12/26/9 9/20/9 10/22/9
f 9/21/1 2/4/1 1/1/8 10/23/8
f 11/25/5 4/8/5 3/6/2 12/27/2
f 13/29/3 6/12/3 5/10/6 14/31/6
f 15/33/7 8/17/7 7/15/4 16/36/4
f 1/2/10 2/5/10 3/7/10 4/9/10 5/11/10 6/13/10 7/16/10 8/18/10
f 32/63/9 29/56/9 30/59/9 27/52/9 28/54/9 25/47/9 26/50/9 31/61/9
f 19/40/11 36/72/11 35/70/12 20/41/12
f 18/38/13 33/65/13 36/72/11 19/40/11
f 22/43/14 37/75/14 40/79/15 23/45/15
f 21/42/16 38/76/16 37/74/14 22/44/14
f 24/46/17 39/78/17 34/69/18 17/37/18
f 20/41/12 35/70/12 38/76/16 21/42/16
f 23/45/15 40/79/15 39/78/17 24/46/17
f 31/62/19 26/51/20 42/84/20 47/95/19
f 25/48/21 28/55/22 44/88/22 41/80/21
f 27/53/23 30/60/24 46/93/24 43/86/23
f 29/57/25 32/64/26 48/97/26 45/89/25
f 42/83/9 41/81/9 33/66/9 34/68/9
f 44/87/9 43/85/9 35/71/9 36/73/9
f 46/92/9 45/90/9 37/75/9 38/77/9
f 48/96/9 47/94/9 39/78/9 40/79/9
f 45/90/9 48/96/9 40/79/9 37/75/9
f 43/85/9 46/92/9 38/77/9 35/71/9
f 41/81/9 44/87/9 36/73/9 33/66/9
f 47/94/9 42/83/9 34/68/9 39/78/9
f 26/51/20 25/49/21 41/82/21 42/84/20
f 28/55/22 27/53/23 43/86/23 44/88/22
f 30/60/24 29/58/25 45/91/25 46/93/24
f 32/64/26 31/62/19 47/95/19 48/97/26
f 17/37/18 34/69/18 33/67/13 18/39/13
f 64/124/9 61/117/9 62/120/9 59/113/9 60/115/9 57/108/9 58/111/9 63/122/9
f 51/101/27 68/133/27 67/131/28 52/102/28
f 50/100/29 65/126/29 68/133/27 51/101/27
f 54/105/30 69/136/30 72/140/31 55/106/31
f 53/103/32 70/137/32 69/135/30 54/104/30
f 56/107/33 71/139/33 66/130/34 49/98/34
f 52/102/28 67/131/28 70/137/32 53/103/32
f 55/106/31 72/140/31 71/139/33 56/107/33
f 63/123/35 58/112/36 74/146/36 79/157/35
f 57/109/37 60/116/38 76/150/38 73/142/37
f 59/114/39 62/121/40 78/155/40 75/148/39
f 61/118/41 64/125/42 80/159/42 77/151/41
f 74/145/9 73/143/9 65/127/9 66/129/9
f 76/149/9 75/147/9 67/132/9 68/134/9
f 78/154/9 77/152/9 69/136/9 70/138/9
f 80/158/9 79/156/9 71/139/9 72/141/9
f 77/152/9 80/158/9 72/141/9 69/136/9
f 75/147/9 78/154/9 70/138/9 67/132/9
f 73/143/9 76/149/9 68/134/9 65/127/9
f 79/156/9 74/145/9 66/129/9 71/139/9
f 58/112/36 57/110/37 73/144/37 74/146/36
f 60/116/38 59/114/39 75/148/39 76/150/38
f 62/121/40 61/119/41 77/153/41 78/155/40
f 64/125/42 63/123/35 79/157/35 80/159/42
f 49/98/34 66/130/34 65/128/29 50/99/29
f 18/38/9 19/40/9 84/164/9 81/161/9
f 82/162/34 81/160/29 89/170/29 90/172/34
f 22/43/9 23/45/9 88/169/9 85/165/9
f 21/42/9 22/44/9 85/166/9 86/167/9
f 17/37/9 18/39/9 81/160/9 82/162/9
f 24/46/9 17/37/9 82/162/9 87/168/9
f 20/41/9 21/42/9 86/167/9 83/163/9
f 23/45/9 24/46/9 87/168/9 88/169/9
f 19/40/9 20/41/9 83/163/9 84/164/9
f 87/168/33 82/162/34 90/172/34 95/178/33
f 83/163/28 86/167/32 94/177/32 91/173/28
f 88/169/31 87/168/33 95/178/33 96/179/31
f 84/164/27 83/163/28 91/173/28 92/174/27
f 81/161/29 84/164/27 92/174/27 89/171/29
f 85/165/30 88/169/31 96/179/31 93/175/30
f 86/167/32 85/166/30 93/176/30 94/177/32
f 53/103/43 54/104/44 101/185/44 102/187/43
f 49/98/45 50/99/46 97/180/47 98/182/45
f 56/107/48 49/98/45 98/182/45 103/188/49
f 52/102/50 53/103/43 102/187/43 99/183/50
f 55/106/51 56/107/48 103/188/49 104/189/51
f 51/101/52 52/102/50 99/183/50 100/184/52
f 50/100/46 51/101/52 100/184/52 97/181/47
f 54/105/44 55/106/51 104/189/51 101/186/44
