# Blender 3.4.0
# www.blender.org
mtllib cash_4.mtl
o cash_4
v -0.062322 0.000000 0.114048
v -0.062322 0.036363 0.111548
v -0.062322 0.000000 -0.114048
v -0.062322 0.036363 -0.111548
v 0.062744 0.000000 0.114048
v 0.062744 0.036363 0.111548
v 0.062744 0.000000 -0.114048
v 0.062744 0.036363 -0.111548
v -0.061322 0.000000 -0.000000
v -0.061322 0.031363 -0.000000
v 0.061744 0.000000 -0.000000
v 0.061744 0.031363 -0.000000
v 0.061744 0.033863 0.057024
v -0.061322 0.033863 0.057024
v -0.061322 0.033863 -0.057024
v 0.061744 0.033863 -0.057024
vn 0.9999 0.0079 0.0101
vn 1.0000 0.0032 -0.0000
vn 0.9999 0.0093 0.0120
vn -0.0000 0.0686 -0.9976
vn -0.0000 0.0686 0.9976
vn 0.9999 0.0079 -0.0101
vn 0.9999 0.0093 -0.0120
vn -0.0000 0.9990 -0.0448
vn -0.0000 0.9990 -0.0458
vn -0.0000 0.9990 0.0448
vn -0.0000 1.0000 -0.0000
vn -1.0000 0.0032 -0.0000
vn -0.9999 0.0079 0.0101
vn -0.9999 0.0093 0.0120
vn -0.0000 -1.0000 -0.0000
vn 1.0000 -0.0000 -0.0000
vn -0.0000 0.9990 0.0458
vn -1.0000 -0.0000 -0.0000
vn -0.9999 0.0079 -0.0101
vn -0.9999 0.0093 -0.0120
vt 0.894959 0.304688
vt 0.750000 0.726562
vt 0.750000 0.375000
vt 0.894531 0.375000
vt 0.500000 1.000000
vt 0.750000 0.445312
vt 0.894959 0.304688
vt 0.500000 0.375000
vt 0.500000 0.726562
vt 0.894531 0.375000
vt 0.500000 0.445312
vt 0.750000 1.000000
vt 1.000000 0.304688
vt 0.750000 0.375000
vt 0.750000 0.453125
vt 1.000000 0.375000
vt 0.750000 0.445312
vt 0.500000 0.726562
vt 0.500000 0.375000
vt 1.000000 0.304688
vt 0.500000 0.453125
vt 0.500000 0.445312
vt 1.000000 0.375000
vt 0.750000 0.726562
vt 0.625000 0.726562
vt 0.625000 0.375000
vt 0.625000 1.000000
vt 0.625000 0.445312
vt 0.625000 0.453125
vt 0.625000 0.375000
vt 0.625000 0.726562
vt 0.625000 0.445312
vt 0.562500 0.726562
vt 0.687500 0.445312
vt 0.562500 1.000000
vt 0.687500 0.445312
vt 0.687500 1.000000
vt 0.562500 0.445312
vt 0.687500 0.726562
vt 0.562500 0.445312
s 1
usemtl money_1
f 16/40/1 11/30/2 7/19/3 8/22/3
f 3/7/4 4/10/4 8/23/4 7/20/4
f 5/13/5 6/16/5 2/4/5 1/1/5
f 11/30/2 13/34/6 6/17/7 5/14/7
f 13/33/8 14/35/8 2/5/9 6/18/9
f 16/39/10 15/37/10 10/27/11 12/31/11
f 9/26/12 15/38/13 4/11/14 3/8/14
f 9/25/15 11/29/15 5/15/15 1/2/15
f 12/31/11 10/27/11 14/35/8 13/33/8
f 11/30/2 12/32/16 13/34/6
f 3/9/15 7/21/15 11/29/15 9/25/15
f 8/24/17 4/12/17 15/37/10 16/39/10
f 9/26/12 10/28/18 15/38/13
f 14/36/19 9/26/12 1/3/20 2/6/20
f 11/30/2 16/40/1 12/32/16
f 9/26/12 14/36/19 10/28/18
