# Blender 3.4.0
# www.blender.org
mtllib cash_5_1.mtl
o cash_5_1
v -0.062322 0.002000 0.112048
v -0.062322 0.003363 0.111548
v -0.062322 0.004391 -0.112048
v -0.062322 0.005754 -0.111548
v 0.062744 0.004839 0.112048
v 0.062744 0.006202 0.111548
v 0.062744 0.002000 -0.112048
v 0.062744 0.003363 -0.111548
v -0.061322 0.000000 -0.000000
v -0.061322 0.001363 -0.000000
v 0.061744 0.000000 -0.000000
v 0.061744 0.001363 -0.000000
v 0.061744 0.001863 0.057024
v -0.061322 0.001863 0.057024
v -0.061322 0.001863 -0.057024
v 0.061744 0.001863 -0.057024
v 0.062244 0.002613 0.084286
v 0.033088 0.002000 0.112048
v 0.033088 0.003363 0.111548
v 0.062244 0.001459 0.084286
v -0.061822 0.001000 -0.057024
vn 0.9487 0.3158 0.0180
vn 0.9494 0.3135 0.0179
vn 1.0000 0.0031 -0.0000
vn 0.0066 0.3443 -0.9388
vn -0.0160 0.3443 0.9387
vn -0.0169 0.3443 0.9387
vn -0.0000 0.3444 0.9388
vn 0.9906 0.1362 -0.0158
vn 0.9922 0.1236 -0.0160
vn 0.9998 -0.0035 -0.0177
vn -0.0253 0.9982 -0.0546
vn -0.0228 0.9984 -0.0519
vn -0.0945 0.9872 -0.1282
vn -0.0000 0.9998 0.0182
vn 0.0071 0.9994 0.0343
vn -0.0000 1.0000 -0.0000
vn -1.0000 0.0035 -0.0000
vn -0.9526 0.3033 0.0242
vn -0.9519 0.3055 0.0243
vn 1.0000 -0.0000 -0.0000
vn 0.0229 -0.9988 0.0427
vn 0.0249 -0.9987 0.0444
vn 0.0946 -0.9884 0.1186
vn -0.0000 0.9998 -0.0182
vn 0.9657 0.2594 -0.0137
vn 0.0051 0.9992 0.0391
vn 0.0191 0.9973 0.0708
vn -1.0000 -0.0000 -0.0000
vn -0.0050 -0.9996 -0.0294
vn -0.0000 -1.0000 -0.0002
vn -0.0000 -1.0000 -0.0000
vn -0.0070 -0.9994 -0.0339
vn -0.9494 0.3135 -0.0179
vn -0.9487 0.3158 -0.0180
vn -0.0000 0.9996 -0.0275
vn -0.0329 0.3442 0.9383
vn -0.0003 -0.9998 0.0181
vn -0.0191 -0.9979 -0.0613
vt 0.894531 0.312500
vt 0.750000 0.390625
vt 1.000000 1.000000
vt 0.894531 0.320312
vt 0.750417 0.398438
vt 0.750000 0.726562
vt 0.894531 0.312500
vt 1.000000 0.390625
vt 0.750000 1.000000
vt 0.894531 0.320312
vt 0.999583 0.398438
vt 1.000000 0.726562
vt 0.750000 0.390625
vt 1.000000 0.726562
vt 1.000000 0.312500
vt 0.750417 0.398438
vt 0.750000 0.453125
vt 1.000000 0.320312
vt 1.000000 0.390625
vt 1.000000 0.312500
vt 0.750000 0.726562
vt 0.999583 0.398438
vt 1.000000 0.320312
vt 1.000000 0.453125
vt 0.875000 0.390625
vt 0.875000 1.000000
vt 0.875000 0.726562
vt 0.875000 0.398438
vt 0.875000 0.726562
vt 0.875000 0.390625
vt 0.875000 0.453125
vt 0.875000 0.398438
vt 0.812500 0.453125
vt 0.811315 0.398438
vt 0.811315 0.398438
vt 0.812500 0.726562
vt 0.938685 0.398438
vt 0.937500 0.726562
vt 0.938685 0.398438
vt 0.937500 0.453125
vt 0.781250 0.453125
vt 0.780866 0.398438
vt 0.970231 0.312500
vt 1.000000 0.803742
vt 0.750000 0.530305
vt 0.970231 0.320312
vt 0.780976 0.390550
vt 0.969030 0.727221
vt 0.938615 0.390580
vt 0.811384 0.999977
s 1
usemtl money_1
f 7/19/1 8/22/1 16/39/2 11/30/3
f 3/7/4 4/10/4 8/23/4 7/20/4
f 18/43/5 19/46/6 2/4/7 1/1/7
f 20/47/8 17/42/9 6/16/10 5/13/10
f 17/41/11 19/45/12 6/17/13
f 16/40/14 15/38/15 10/27/16 12/31/16
f 9/25/17 15/37/18 4/11/19 3/8/19 21/49/19
f 16/39/2 12/32/20 11/30/3
f 18/44/21 20/48/22 5/14/23
f 12/31/16 10/27/16 14/36/24 13/33/24
f 11/30/3 12/32/20 13/34/25
f 8/24/26 4/12/27 15/38/15
f 9/25/17 10/28/28 15/37/18
f 7/21/29 11/29/30 9/26/31 21/50/32
f 14/35/33 9/25/17 1/2/34 2/5/34
f 9/25/17 14/35/33 10/28/28
f 9/26/31 11/29/30 20/48/22
f 13/33/24 14/36/24 2/6/35 19/45/12 17/41/11
f 11/30/3 13/34/25 17/42/9 20/47/8
f 5/15/36 6/18/36 19/46/6 18/43/5
f 1/3/37 9/26/31 20/48/22 18/44/21
f 16/40/14 8/24/26 15/38/15
f 3/9/38 7/21/29 21/50/32
