# Blender 3.4.0
# www.blender.org
mtllib cassette_tape_mp_2.mtl
o cassette_tape_mp_2
v -0.043562 0.009000 0.005194
v -0.043562 0.012600 0.005194
v -0.043562 0.009000 -0.012806
v -0.043562 0.012600 -0.012806
v -0.025562 0.009000 0.005194
v -0.025562 0.012600 0.005194
v -0.025562 0.009000 -0.012806
v -0.025562 0.012600 -0.012806
v 0.026976 0.009000 0.005194
v 0.026976 0.012600 0.005194
v -0.075601 0.018000 0.054000
v 0.026976 0.009000 -0.012806
v -0.075601 0.003600 0.054000
v 0.026976 0.012600 -0.012806
v 0.044976 0.009000 0.005194
v 0.044976 0.012600 0.005194
v 0.044976 0.009000 -0.012806
v 0.044976 0.012600 -0.012806
v -0.082800 0.003600 0.046800
v -0.082800 0.018000 0.046800
v -0.082800 0.003600 -0.046800
v -0.075600 0.003600 -0.054000
v -0.075600 0.018000 -0.054000
v -0.082800 0.018000 -0.046800
v 0.082800 0.003600 0.046800
v 0.075600 0.003600 0.054000
v 0.075600 0.018000 0.054000
v 0.082800 0.018000 0.046800
v 0.075600 0.003600 -0.054000
v 0.082800 0.003600 -0.046800
v 0.082800 0.018000 -0.046800
v 0.075600 0.018000 -0.054000
v -0.043562 0.003600 0.005194
v -0.043562 0.003600 -0.012806
v -0.025562 0.003600 -0.012806
v -0.025562 0.003600 0.005194
v 0.026976 0.003600 -0.012806
v 0.026976 0.003600 0.005194
v 0.044976 0.003600 0.005194
v 0.044976 0.003600 -0.012806
v 0.026976 0.018000 0.005194
v 0.026976 0.018000 -0.012806
v 0.044976 0.018000 -0.012806
v 0.044976 0.018000 0.005194
v -0.043562 0.018000 0.005194
v -0.043562 0.018000 -0.012806
v -0.025562 0.018000 -0.012806
v -0.025562 0.018000 0.005194
v 0.018220 0.018000 -0.012806
v -0.016806 0.018000 -0.012806
v 0.018220 0.018000 0.005194
v -0.016806 0.018000 0.005194
v -0.016806 0.003600 -0.012806
v 0.018220 0.003600 -0.012806
v -0.016806 0.003600 0.005194
v 0.018220 0.003600 0.005194
v 0.018220 0.016200 -0.012806
v -0.016806 0.016200 -0.012806
v 0.018220 0.016200 0.005194
v -0.016806 0.016200 0.005194
v -0.016806 0.005400 -0.012806
v 0.018220 0.005400 -0.012806
v -0.016806 0.005400 0.005194
v 0.018220 0.005400 0.005194
v -0.050400 0.000000 0.054000
v -0.050400 0.021600 0.054000
v -0.050400 -0.000000 0.025200
v -0.050400 0.021600 0.025200
v 0.054000 0.000000 0.054000
v 0.054000 0.021600 0.054000
v 0.054000 -0.000000 0.025200
v 0.054000 0.021600 0.025200
v -0.050400 0.018000 0.054000
v 0.054000 0.018000 0.054000
v 0.054000 0.003600 0.054000
v -0.050400 0.003600 0.054000
v 0.054000 0.003600 0.025200
v -0.050400 0.003600 0.025200
v -0.050400 0.018000 0.025200
v 0.054000 0.018000 0.025200
vn -0.0000 -0.0000 1.0000
vn -0.0000 -0.0000 -1.0000
vn 1.0000 -0.0000 -0.0000
vn -1.0000 -0.0000 -0.0000
vn 0.7071 -0.0000 -0.7071
vn 0.7071 -0.0000 0.7071
vn -0.7071 -0.0000 0.7071
vn -0.0000 -1.0000 -0.0000
vn -0.0000 1.0000 -0.0000
vn -0.7071 -0.0000 -0.7071
vt 0.562500 0.718750
vt 0.520833 0.656250
vt 0.520833 0.718750
vt 0.520833 0.656250
vt 0.520833 0.718750
vt 0.562500 0.593750
vt 0.520833 0.656250
vt 0.520833 0.593750
vt 0.520833 0.656250
vt 0.520833 0.593750
vt 0.562500 0.718750
vt 0.604167 0.656250
vt 0.604167 0.718750
vt 0.520833 0.718750
vt 0.604167 0.656250
vt 0.604167 0.718750
vt 0.604167 0.656250
vt 0.562500 0.593750
vt 0.604167 0.593750
vt 0.604167 0.656250
vt 0.520833 0.593750
vt 0.604167 0.593750
vt 0.562500 0.718750
vt 0.187500 0.656250
vt 0.187500 0.718750
vt 0.520833 0.718750
vt 0.187500 0.656250
vt 0.187500 0.718750
vt 0.020833 0.062500
vt 0.854167 0.250000
vt 0.045905 0.257134
vt 0.562500 0.593750
vt 0.187500 0.656250
vt 0.187500 0.593750
vt 0.020833 0.156250
vt 0.916667 0.250000
vt 0.045905 0.257134
vt 0.520833 0.593750
vt 0.187500 0.656250
vt 0.187500 0.593750
vt 0.562500 0.718750
vt 0.270833 0.656250
vt 0.270833 0.718750
vt 0.520833 0.718750
vt 0.270833 0.656250
vt 0.270833 0.718750
vt 0.270833 0.656250
vt 0.562500 0.593750
vt 0.270833 0.593750
vt 0.270833 0.656250
vt 0.520833 0.593750
vt 0.270833 0.593750
vt 0.916667 0.312500
vt 0.012891 0.306659
vt 0.854167 0.312500
vt 0.012891 0.306659
vt 0.012891 0.950476
vt 0.916667 0.937500
vt 0.045907 0.500000
vt 0.916667 1.000000
vt 0.045907 1.000000
vt 0.045907 0.400951
vt 0.854167 1.000000
vt 0.045907 1.000000
vt 0.854167 0.937500
vt 0.012891 0.950476
vt 0.916667 0.312500
vt 0.772265 0.306659
vt 0.770833 0.156250
vt 0.916667 0.250000
vt 0.739249 0.257134
vt 0.770833 0.062500
vt 0.854167 0.250000
vt 0.739249 0.257134
vt 0.854167 0.312500
vt 0.772265 0.306659
vt 0.739249 0.500000
vt 0.916667 1.000000
vt 0.739249 1.000000
vt 0.916667 0.937500
vt 0.772265 0.950476
vt 0.854167 0.937500
vt 0.772265 0.950476
vt 0.739249 0.400951
vt 0.854167 1.000000
vt 0.739249 1.000000
vt 0.192820 0.592841
vt 0.520833 0.718750
vt 0.520833 0.593750
vt 0.192820 0.716652
vt 0.520833 0.593750
vt 0.604167 0.593750
vt 0.520833 0.593750
vt 0.275361 0.716652
vt 0.520833 0.718750
vt 0.604167 0.593750
vt 0.275361 0.592841
vt 0.520833 0.593750
vt 0.187500 0.593750
vt 0.516281 0.716652
vt 0.520833 0.718750
vt 0.187500 0.593750
vt 0.516281 0.592841
vt 0.520833 0.718750
vt 0.270833 0.593750
vt 0.598821 0.592841
vt 0.270833 0.593750
vt 0.520833 0.593750
vt 0.598821 0.716652
vt 0.562500 0.718750
vt 0.187500 0.718750
vt 0.516281 0.592841
vt 0.562500 0.593750
vt 0.187500 0.718750
vt 0.516281 0.716652
vt 0.270833 0.718750
vt 0.562500 0.593750
vt 0.598821 0.716652
vt 0.562500 0.718750
vt 0.270833 0.718750
vt 0.598821 0.592841
vt 0.562500 0.718750
vt 0.520833 0.718750
vt 0.192820 0.592841
vt 0.562500 0.593750
vt 0.520833 0.718750
vt 0.192820 0.716652
vt 0.604167 0.718750
vt 0.562500 0.593750
vt 0.275361 0.716652
vt 0.562500 0.718750
vt 0.604167 0.718750
vt 0.275361 0.592841
vt 0.476127 0.579043
vt 0.425594 0.716652
vt 0.476127 0.716652
vt 0.315514 0.579043
vt 0.425594 0.716652
vt 0.315514 0.716652
vt 0.476127 0.579043
vt 0.425594 0.592841
vt 0.476127 0.592841
vt 0.315514 0.579043
vt 0.425594 0.592841
vt 0.315514 0.592841
vt 0.359562 0.716652
vt 0.315514 0.678092
vt 0.315514 0.716652
vt 0.359562 0.716652
vt 0.476127 0.678092
vt 0.476127 0.716652
vt 0.359562 0.592841
vt 0.315514 0.678092
vt 0.315514 0.592841
vt 0.359562 0.592841
vt 0.476127 0.678092
vt 0.476127 0.592841
vt 0.476127 0.716652
vt 0.476127 0.591424
vt 0.417340 0.716652
vt 0.315514 0.716652
vt 0.315514 0.591424
vt 0.417340 0.716652
vt 0.476127 0.591424
vt 0.476127 0.592841
vt 0.417340 0.592841
vt 0.315514 0.591424
vt 0.315514 0.592841
vt 0.417340 0.592841
vt 0.315514 0.716652
vt 0.367816 0.716652
vt 0.315514 0.665711
vt 0.367816 0.716652
vt 0.476127 0.716652
vt 0.476127 0.665711
vt 0.315514 0.592841
vt 0.367816 0.592841
vt 0.315514 0.665711
vt 0.367816 0.592841
vt 0.476127 0.592841
vt 0.476127 0.665711
vt 0.343054 0.257134
vt 0.161464 0.257134
vt 0.145833 0.187500
vt 0.442102 0.257134
vt 0.161464 0.257134
vt 0.145833 0.031250
vt 0.166667 0.562500
vt 0.343054 0.455232
vt 0.161464 0.455232
vt 0.442102 0.455232
vt 0.166667 0.531250
vt 0.161464 0.455232
vt 0.343054 0.257134
vt 0.640200 0.257134
vt 0.666667 0.187500
vt 0.442102 0.257134
vt 0.640200 0.257134
vt 0.666667 0.031250
vt 0.645833 0.562500
vt 0.343054 0.455232
vt 0.640200 0.455232
vt 0.442102 0.455232
vt 0.645833 0.531250
vt 0.640200 0.455232
vt 0.425594 0.257134
vt 0.145833 0.062500
vt 0.425594 0.257134
vt 0.666667 0.062500
vt 0.359562 0.257134
vt 0.666667 0.156250
vt 0.359562 0.257134
vt 0.145833 0.156250
vt 0.645833 0.531250
vt 0.359562 0.455232
vt 0.166667 0.531250
vt 0.359562 0.455232
vt 0.425594 0.455232
vt 0.166667 0.562500
vt 0.425594 0.455232
vt 0.645833 0.562500
s 1
usemtl cassette_tape_2
f 26/69/1 27/72/1 11/29/1 13/35/1
f 22/59/2 23/62/2 32/84/2 29/77/2
f 30/80/3 31/82/3 28/75/3 25/67/3
f 19/53/4 20/55/4 24/65/4 21/58/4
f 32/85/5 31/82/5 30/80/5 29/78/5
f 28/75/6 27/73/6 26/70/6 25/67/6
f 20/55/7 19/53/7 13/36/7 11/30/7
f 36/97/8 13/37/8 19/54/8 33/87/8
f 22/61/8 35/94/8 34/90/8 21/57/8
f 33/87/8 19/54/8 21/57/8 34/90/8
f 49/136/9 32/86/9 23/64/9 50/139/9
f 51/142/9 41/112/9 42/115/9 49/136/9
f 44/121/9 28/76/9 31/83/9 43/118/9
f 55/154/8 36/97/8 35/94/8 53/148/8
f 30/81/8 25/68/8 39/106/8 40/109/8
f 42/115/9 43/118/9 31/83/9 32/86/9
f 41/112/9 27/74/9 28/76/9 44/121/9
f 24/66/9 20/56/9 45/124/9 46/127/9
f 38/103/8 56/157/8 54/151/8 37/100/8
f 54/149/4 56/155/4 64/179/4 62/173/4
f 48/133/9 52/145/9 50/139/9 47/130/9
f 52/143/2 51/140/2 59/164/2 60/167/2
f 60/168/9 59/165/9 57/158/9 58/161/9
f 49/134/1 50/137/1 58/162/1 57/159/1
f 50/138/3 52/144/3 60/169/3 58/163/3
f 51/141/4 49/135/4 57/160/4 59/166/4
f 64/180/8 63/176/8 61/170/8 62/174/8
f 55/152/3 53/146/3 61/171/3 63/177/3
f 56/156/2 55/153/2 63/178/2 64/181/2
f 53/147/1 54/150/1 62/175/1 61/172/1
f 11/31/9 48/133/9 45/124/9 20/56/9
f 26/71/8 38/103/8 39/106/8 25/68/8
f 24/65/10 23/63/10 22/60/10 21/58/10
f 47/130/9 23/64/9 24/66/9 46/127/9
f 53/148/8 22/61/8 29/79/8 54/151/8
f 51/142/9 27/74/9 41/112/9
f 48/133/9 11/31/9 52/145/9
f 52/145/9 11/31/9 27/74/9 51/142/9
f 50/139/9 23/64/9 47/130/9
f 32/86/9 49/136/9 42/115/9
f 38/103/8 26/71/8 56/157/8
f 56/157/8 26/71/8 13/37/8 55/154/8
f 55/154/8 13/37/8 36/97/8
f 35/94/8 22/61/8 53/148/8
f 54/151/8 29/79/8 37/100/8
f 37/100/8 29/79/8 30/81/8 40/109/8
f 72/203/3 70/197/3 74/208/3 80/220/3
f 73/206/4 66/185/4 68/191/4 79/218/4
f 68/192/2 72/204/2 80/221/2 79/219/2
f 71/200/2 67/188/2 78/216/2 77/214/2
f 67/189/4 65/182/4 76/212/4 78/217/4
f 77/215/3 75/210/3 69/194/3 71/201/3
f 67/190/8 71/202/8 69/195/8 65/183/8
f 72/205/9 68/193/9 66/186/9 70/198/9
f 75/211/1 76/213/1 65/184/1 69/196/1
f 73/207/1 74/209/1 70/199/1 66/187/1
usemtl 
f 45/122/3 2/5/3 4/10/3 46/125/3
f 3/6/3 1/1/3 33/88/3 34/91/3
f 46/126/1 4/9/1 8/20/1 47/128/1
f 7/17/1 3/7/1 34/91/1 35/92/1
f 47/129/4 8/21/4 6/14/4 48/131/4
f 36/95/4 5/11/4 7/18/4 35/93/4
f 48/132/2 6/15/2 2/4/2 45/123/2
f 33/89/2 1/2/2 5/12/2 36/96/2
f 3/8/8 7/19/8 5/13/8 1/3/8
f 8/22/9 4/10/9 2/5/9 6/16/9
f 41/110/3 10/26/3 14/38/3 42/113/3
f 12/32/3 9/23/3 38/101/3 37/98/3
f 42/114/1 14/39/1 18/50/1 43/116/1
f 17/47/1 12/33/1 37/99/1 40/107/1
f 43/117/4 18/51/4 16/44/4 44/119/4
f 39/104/4 15/41/4 17/48/4 40/108/4
f 44/120/2 16/45/2 10/27/2 41/111/2
f 38/102/2 9/24/2 15/42/2 39/105/2
f 12/34/8 17/49/8 15/43/8 9/25/8
f 18/52/9 14/40/9 10/28/9 16/46/9
