# Blender 3.4.0
# www.blender.org
mtllib cell_phone_1.mtl
o cell_phone_1
v 0.025364 0.032387 -0.104866
v 0.023988 0.041213 -0.098863
v 0.031371 0.038880 -0.095117
v 0.036846 0.032390 -0.099778
v 0.034914 0.038880 -0.081632
v 0.041352 0.032391 -0.082627
v 0.037363 0.039385 -0.032951
v 0.043825 0.032392 -0.033078
v 0.036585 0.039385 0.039624
v 0.043043 0.032392 0.039905
v 0.033470 0.039383 0.080830
v 0.039879 0.032392 0.081756
v 0.031004 0.039383 0.092329
v 0.036865 0.032391 0.095922
v 0.028094 0.040082 0.094829
v 0.030536 0.032390 0.101046
v 0.000000 0.042120 -0.100419
v 0.000000 0.032829 -0.106920
v -0.025364 0.032387 -0.104866
v -0.023988 0.041213 -0.098863
v -0.036846 0.032390 -0.099778
v -0.031371 0.038880 -0.095117
v -0.041352 0.032391 -0.082627
v -0.034914 0.038880 -0.081632
v -0.043825 0.032392 -0.033078
v -0.037363 0.039385 -0.032951
v -0.043043 0.032392 0.039905
v -0.036585 0.039383 0.039624
v -0.039879 0.032392 0.081756
v -0.033470 0.039373 0.080830
v -0.036865 0.032391 0.095922
v -0.031004 0.040082 0.092329
v -0.030536 0.032390 0.101046
v -0.028094 0.040082 0.094829
v 0.000000 0.032832 0.103680
v 0.000000 0.042120 0.097176
v 0.023809 -0.001228 -0.098595
v 0.025364 0.006483 -0.104866
v 0.036846 0.006483 -0.099778
v 0.031371 0.000000 -0.095117
v 0.041352 0.006482 -0.082627
v 0.034914 0.000000 -0.081632
v 0.043825 0.006482 -0.033078
v 0.037348 -0.000253 -0.032951
v 0.043043 0.006482 0.039905
v 0.036571 -0.000252 0.039625
v 0.039879 0.006482 0.081756
v 0.033455 -0.000247 0.080833
v 0.036865 0.006482 0.095922
v 0.031004 -0.000247 0.092329
v 0.030536 0.006483 0.101046
v 0.028025 -0.000609 0.094778
v 0.000000 0.006370 -0.106920
v 0.000000 -0.001620 -0.100419
v -0.023809 -0.001228 -0.098595
v -0.025364 0.006483 -0.104866
v -0.031371 0.000000 -0.095117
v -0.036846 0.006483 -0.099778
v -0.034914 0.000000 -0.081632
v -0.041352 0.006482 -0.082627
v -0.037348 -0.000253 -0.032951
v -0.043825 0.006482 -0.033078
v -0.036571 -0.000253 0.039625
v -0.043043 0.006482 0.039905
v -0.033455 -0.000252 0.080833
v -0.039879 0.006482 0.081756
v -0.031004 -0.000252 0.092329
v -0.036865 0.006482 0.095922
v -0.028025 -0.000609 0.094778
v -0.030536 0.006483 0.101046
v 0.000000 -0.001620 0.097176
v 0.000000 0.006369 0.103680
v 0.000000 0.042120 0.039679
v 0.000000 0.042120 0.081016
v 0.000000 0.042120 -0.081851
v 0.000000 -0.001620 0.080921
v 0.000000 -0.001620 0.039651
v 0.000000 -0.001620 -0.032962
v 0.000000 -0.001620 -0.081741
v 0.000000 0.042120 -0.050369
v 0.000000 0.042120 -0.004002
v 0.032680 0.039728 -0.032954
v -0.032103 0.039770 -0.032954
v -0.031886 0.039771 -0.004002
v 0.032464 0.039728 -0.003785
v 0.032247 0.039608 -0.049719
v -0.031669 0.039566 -0.049719
v -0.031885 0.037603 -0.003993
v 0.032465 0.037603 -0.003776
v 0.032248 0.037603 -0.049710
v -0.031668 0.037603 -0.049710
vn 0.2455 -0.0000 -0.9694
vn 0.2461 -0.0000 -0.9692
vn -0.0000 -0.0000 -1.0000
vn -0.7614 -0.0000 -0.6482
vn -0.2455 -0.0000 -0.9694
vn -0.2461 -0.0000 -0.9692
vn -0.7614 -0.0000 -0.6483
vn -0.4205 -0.9055 0.0574
vn -0.0000 -1.0000 -0.0017
vn -0.0000 -0.9036 0.4284
vn -0.2008 -0.8853 0.4194
vn -0.3727 -0.0000 0.9280
vn -0.8526 -0.0000 0.5226
vn -0.8525 -0.0000 0.5226
vn -0.3736 -0.0000 0.9276
vn -0.0000 -0.0000 1.0000
vn 0.3736 -0.0000 0.9276
vn 0.3727 -0.0000 0.9280
vn -0.4503 0.8914 0.0520
vn -0.3776 0.9020 0.2095
vn -0.2131 0.8696 0.4455
vn 0.4486 0.8918 0.0586
vn -0.0001 1.0000 -0.0033
vn -0.0000 0.8937 0.4486
vn 0.2412 0.8667 0.4367
vn 0.4205 -0.9055 0.0573
vn 0.4398 -0.8652 0.2409
vn 0.2010 -0.8853 0.4192
vn -0.9883 -0.0000 -0.1528
vn 0.9998 -0.0000 -0.0196
vn 0.9883 -0.0000 -0.1528
vn -0.9998 -0.0000 -0.0196
vn 0.9991 -0.0000 0.0431
vn 0.7614 -0.0000 -0.6483
vn 0.7614 -0.0000 -0.6482
vn -0.9991 -0.0000 0.0431
vn 0.9899 -0.0000 0.1421
vn -0.9899 -0.0000 0.1421
vn 0.8526 -0.0000 0.5226
vn 0.8525 -0.0000 0.5226
vn 0.1981 0.8756 -0.4405
vn 0.4882 0.8104 -0.3239
vn 0.5605 0.7011 -0.4407
vn 0.2358 0.6134 -0.7537
vn 0.4495 0.8912 -0.0615
vn 0.7042 0.7014 -0.1100
vn 0.4378 0.8990 -0.0107
vn 0.7276 0.6858 -0.0159
vn 0.4409 0.8973 0.0182
vn 0.7336 0.6788 0.0316
vn 0.7259 0.6798 0.1045
vn 0.5043 0.8255 0.2535
vn 0.6293 0.6867 0.3639
vn 0.3094 0.6509 0.6933
vn -0.0000 0.5719 -0.8203
vn -0.2358 0.6134 -0.7537
vn -0.1981 0.8756 -0.4405
vn -0.0000 0.8909 -0.4542
vn -0.5605 0.7011 -0.4407
vn -0.4882 0.8104 -0.3239
vn -0.7042 0.7014 -0.1100
vn -0.4493 0.8913 -0.0612
vn -0.7276 0.6858 -0.0159
vn -0.4376 0.8991 -0.0104
vn -0.7335 0.6790 0.0317
vn -0.4409 0.8974 0.0182
vn -0.7358 0.6702 0.0975
vn -0.6348 0.6735 0.3786
vn -0.2980 0.6392 0.7089
vn -0.0000 0.6081 0.7939
vn 0.2051 -0.6609 -0.7218
vn 0.5352 -0.7225 -0.4377
vn 0.4164 -0.8558 -0.3070
vn 0.1502 -0.8945 -0.4211
vn 0.7004 -0.7054 -0.1089
vn 0.4237 -0.9038 -0.0612
vn 0.7172 -0.6967 -0.0149
vn 0.4130 -0.9107 -0.0090
vn 0.7199 -0.6933 0.0311
vn 0.4150 -0.9097 0.0175
vn 0.7125 -0.6942 0.1023
vn 0.6071 -0.7077 0.3615
vn 0.2841 -0.6850 0.6709
vn -0.0000 -0.9020 -0.4318
vn -0.1502 -0.8945 -0.4211
vn -0.2051 -0.6609 -0.7218
vn -0.0000 -0.6350 -0.7725
vn -0.4164 -0.8558 -0.3070
vn -0.5352 -0.7225 -0.4377
vn -0.4237 -0.9038 -0.0612
vn -0.7004 -0.7054 -0.1089
vn -0.4130 -0.9107 -0.0090
vn -0.7172 -0.6967 -0.0149
vn -0.4150 -0.9096 0.0175
vn -0.7200 -0.6933 0.0310
vn -0.7127 -0.6940 0.1024
vn -0.4391 -0.8655 0.2409
vn -0.6072 -0.7075 0.3617
vn -0.2841 -0.6849 0.6710
vn -0.0000 -0.6538 0.7567
vn -0.0001 1.0000 0.0018
vn -0.0002 1.0000 0.0005
vn -0.0741 0.9973 0.0005
vn -0.0795 0.9968 -0.0035
vn 0.0799 0.9968 -0.0040
vn 0.0741 0.9973 0.0005
vn -0.0849 0.9964 -0.0074
vn 0.0003 1.0000 -0.0080
vn 0.0002 0.9998 0.0182
vn 0.0856 0.9963 -0.0085
vn -0.0000 -1.0000 0.0009
vn -0.0000 -0.9999 0.0102
vn -0.9881 0.1538 0.0052
vn -0.9997 -0.0004 0.0258
vn -0.9996 0.0129 0.0241
vn 0.9884 0.1521 0.0052
vn 0.9999 0.0083 -0.0069
vn 0.9996 0.0140 0.0241
vn -0.0181 0.0169 0.9997
vn -0.0000 0.1386 0.9903
vn 0.0183 0.0172 0.9997
vn -0.0000 1.0000 -0.0000
vn -1.0000 -0.0006 -0.0074
vn -1.0000 0.0072 -0.0068
vn 0.0034 -0.0248 -0.9997
vn 0.0064 -0.0041 -1.0000
vn 0.0061 -0.0060 -1.0000
vn 1.0000 0.0005 -0.0075
vn 0.0202 0.0045 0.9998
vn 0.9997 0.0007 0.0259
vn -0.0198 0.0044 0.9998
vn 0.0003 -0.0041 -1.0000
vn 0.0006 -0.0060 -1.0000
vt 0.720278 0.828346
vt 0.708333 0.950484
vt 0.715240 0.808178
vt 0.734474 0.796270
vt 0.831608 0.828125
vt 0.748056 0.812721
vt 0.750000 0.950491
vt 0.744222 0.750121
vt 0.831604 0.781250
vt 0.761944 0.750221
vt 0.746027 0.607395
vt 0.831602 0.609375
vt 0.761944 0.609596
vt 0.745740 0.377585
vt 0.831601 0.375000
vt 0.761944 0.375221
vt 0.742679 0.252728
vt 0.831602 0.250000
vt 0.761944 0.250221
vt 0.733696 0.216090
vt 0.733890 0.216277
vt 0.733105 0.216630
vt 0.831604 0.203125
vt 0.750000 0.122371
vt 0.748056 0.203346
vt 0.726641 0.208331
vt 0.722222 0.122367
vt 0.734167 0.187721
vt 0.650833 0.808571
vt 0.652778 0.952510
vt 0.648613 0.828346
vt 0.653054 0.828346
vt 0.583333 0.950484
vt 0.581389 0.828346
vt 0.586281 0.808178
vt 0.555556 0.950491
vt 0.455992 0.828125
vt 0.553611 0.812721
vt 0.567063 0.796270
vt 0.455996 0.765625
vt 0.539722 0.750221
vt 0.556753 0.750121
vt 0.455999 0.609375
vt 0.535479 0.609596
vt 0.554762 0.607395
vt 0.456000 0.359375
vt 0.539722 0.375221
vt 0.555436 0.377585
vt 0.455999 0.234375
vt 0.539722 0.250221
vt 0.558958 0.252728
vt 0.555556 0.122371
vt 0.455997 0.187500
vt 0.553611 0.203346
vt 0.568480 0.216471
vt 0.568854 0.216365
vt 0.568336 0.217278
vt 0.569444 0.122367
vt 0.567500 0.187721
vt 0.575005 0.208331
vt 0.652778 0.124393
vt 0.648988 0.187721
vt 0.652678 0.187721
vt 0.650833 0.207505
vt 0.259197 0.807065
vt 0.260767 0.828125
vt 0.708333 0.877613
vt 0.918385 0.828125
vt 0.301308 0.812500
vt 0.750000 0.877612
vt 0.283812 0.796048
vt 0.918386 0.781250
vt 0.314822 0.750000
vt 0.295130 0.749904
vt 0.918386 0.609375
vt 0.314822 0.609375
vt 0.297265 0.607173
vt 0.918387 0.375000
vt 0.314822 0.375000
vt 0.296147 0.377362
vt 0.918386 0.250000
vt 0.301308 0.250000
vt 0.285165 0.252502
vt 0.918386 0.203125
vt 0.750000 0.049485
vt 0.301308 0.203125
vt 0.280050 0.215761
vt 0.279921 0.215782
vt 0.280065 0.215995
vt 0.722222 0.049486
vt 0.274281 0.187500
vt 0.270380 0.208284
vt 0.652778 0.875588
vt 0.192326 0.828125
vt 0.194291 0.828125
vt 0.193199 0.808349
vt 0.138046 0.807065
vt 0.583333 0.877613
vt 0.139145 0.828125
vt 0.114681 0.796048
vt 0.555556 0.877612
vt 0.375585 0.828125
vt 0.098604 0.812500
vt 0.103109 0.749904
vt 0.375584 0.765625
vt 0.085091 0.750000
vt 0.100769 0.607173
vt 0.375584 0.609375
vt 0.085091 0.609375
vt 0.101850 0.377362
vt 0.375583 0.359375
vt 0.085091 0.375000
vt 0.112886 0.252502
vt 0.375584 0.234375
vt 0.098604 0.250000
vt 0.118278 0.215784
vt 0.118124 0.216002
vt 0.118166 0.215763
vt 0.555556 0.049485
vt 0.375584 0.187500
vt 0.098604 0.203125
vt 0.127302 0.208284
vt 0.569444 0.049486
vt 0.125632 0.187500
vt 0.193199 0.207285
vt 0.652778 0.047461
vt 0.192446 0.187500
vt 0.194103 0.187500
vt 0.650833 0.382406
vt 0.650833 0.256661
vt 0.650833 0.752088
vt 0.193199 0.256730
vt 0.193199 0.382269
vt 0.193199 0.603153
vt 0.193199 0.751531
vt 0.650833 0.656322
vt 0.650833 0.515279
vt 0.734096 0.606896
vt 0.568287 0.606835
vt 0.568394 0.515687
vt 0.734137 0.515009
vt 0.734311 0.656318
vt 0.568128 0.656286
vt 0.568394 0.515687
vt 0.734137 0.515009
vt 0.734311 0.656318
vt 0.568128 0.656286
s 1
usemtl cell_phone_1
f 1/2/1 38/67/2 53/93/3 18/30/3
f 21/36/4 19/33/5 56/98/6 58/101/7
f 65/113/8 76/132/9 71/125/10 69/122/11
f 33/58/12 31/52/13 68/119/14 70/123/15
f 35/61/16 72/126/16 51/90/17 16/27/18
f 35/61/16 33/58/12 70/123/15 72/126/16
f 30/51/19 32/55/20 34/60/21
f 11/17/22 74/130/23 36/64/24 15/26/25
f 48/83/26 50/87/27 52/92/28
f 23/40/29 21/37/4 58/102/7 60/105/29
f 8/12/30 43/75/30 41/72/31 6/9/31
f 25/43/32 23/40/29 60/105/29 62/108/32
f 10/15/33 45/78/33 43/75/30 8/12/30
f 6/9/31 41/72/31 39/68/34 4/5/35
f 27/46/36 25/43/32 62/108/32 64/111/36
f 12/18/37 47/81/37 45/78/33 10/15/33
f 19/33/5 18/30/3 53/93/3 56/98/6
f 29/49/38 27/46/36 64/111/36 66/114/38
f 14/23/39 49/84/40 47/81/37 12/18/37
f 31/53/13 29/49/38 66/114/38 68/120/14
f 16/27/18 51/90/17 49/85/40 14/24/39
f 2/3/41 3/4/42 4/6/43 1/1/44
f 3/4/42 5/8/45 6/10/46 4/6/43
f 5/8/45 7/11/47 8/13/48 6/10/46
f 7/11/47 9/14/49 10/16/50 8/13/48
f 9/14/49 11/17/22 12/19/51 10/16/50
f 11/17/22 13/20/52 14/25/53 12/19/51
f 13/21/52 15/26/25 16/28/54 14/25/53
f 18/31/55 19/34/56 20/35/57 17/29/58
f 19/34/56 21/38/59 22/39/60 20/35/57
f 21/38/59 23/41/61 24/42/62 22/39/60
f 23/41/61 25/44/63 26/45/64 24/42/62
f 25/44/63 27/47/65 28/48/66 26/45/64
f 27/47/65 29/50/67 30/51/19 28/48/66
f 29/50/67 31/54/68 32/56/20 30/51/19
f 31/54/68 33/59/69 34/60/21 32/57/20
f 33/59/69 35/62/70 36/64/24 34/60/21
f 17/29/58 2/3/41 1/1/44 18/32/55
f 15/26/25 36/64/24 35/63/70 16/28/54
f 38/66/71 39/69/72 40/71/73 37/65/74
f 39/69/72 41/73/75 42/74/76 40/71/73
f 41/73/75 43/76/77 44/77/78 42/74/76
f 43/76/77 45/79/79 46/80/80 44/77/78
f 45/79/79 47/82/81 48/83/26 46/80/80
f 47/82/81 49/86/82 50/88/27 48/83/26
f 49/86/82 51/91/83 52/92/28 50/89/27
f 54/96/84 55/97/85 56/99/86 53/94/87
f 55/97/85 57/100/88 58/103/89 56/99/86
f 57/100/88 59/104/90 60/106/91 58/103/89
f 59/104/90 61/107/92 62/109/93 60/106/91
f 61/107/92 63/110/94 64/112/95 62/109/93
f 63/110/94 65/113/8 66/115/96 64/112/95
f 65/113/8 67/116/97 68/121/98 66/115/96
f 67/117/97 69/122/11 70/124/99 68/121/98
f 69/122/11 71/125/10 72/127/100 70/124/99
f 53/95/87 38/66/71 37/65/74 54/96/84
f 51/91/83 72/128/100 71/125/10 52/92/28
f 4/7/35 39/70/34 38/67/2 1/2/1
f 26/45/64 28/48/66 73/129/101 81/137/102 84/140/103 83/139/104
f 7/11/47 82/138/105 85/141/106 81/137/102 73/129/101 9/14/49
f 73/129/101 28/48/66 30/51/19 74/130/23
f 9/14/49 73/129/101 74/130/23 11/17/22
f 74/130/23 30/51/19 34/60/21 36/64/24
f 13/22/52 11/17/22 15/26/25
f 24/42/62 26/45/64 83/139/104 87/143/107 80/136/108 75/131/109
f 5/8/45 3/4/42 2/3/41
f 24/42/62 75/131/109 17/29/58 20/35/57
f 7/11/47 5/8/45 75/131/109 80/136/108 86/142/110 82/138/105
f 75/131/109 5/8/45 2/3/41 17/29/58
f 22/39/60 24/42/62 20/35/57
f 63/110/94 77/133/111 76/132/9 65/113/8
f 77/133/111 46/80/80 48/83/26 76/132/9
f 76/132/9 48/83/26 52/92/28 71/125/10
f 67/118/97 65/113/8 69/122/11
f 61/107/92 78/134/9 77/133/111 63/110/94
f 44/77/78 46/80/80 77/133/111 78/134/9
f 59/104/90 57/100/88 55/97/85
f 42/74/76 44/77/78 78/134/9 79/135/112
f 61/107/92 59/104/90 79/135/112 78/134/9
f 42/74/76 79/135/112 54/96/84 37/65/74
f 79/135/112 59/104/90 55/97/85 54/96/84
f 40/71/73 42/74/76 37/65/74
f 82/138/113 86/142/114 90/146/115
f 83/139/116 88/144/117 91/147/118
f 90/146/119 80/136/120 91/147/121
f 88/144/122 89/145/122 90/146/122 91/147/122
f 85/141/123 82/138/113 89/145/124
f 81/137/125 85/141/126 89/145/127
f 83/139/116 84/140/128 88/144/117
f 80/136/120 87/143/129 91/147/121
f 87/143/130 83/139/116 91/147/118
f 86/142/131 80/136/120 90/146/119
f 84/140/132 81/137/125 88/144/133
f 89/145/124 82/138/113 90/146/115
f 81/137/125 89/145/127 88/144/133
