# Blender 3.4.0
# www.blender.org
mtllib flashlight_mp_1.mtl
o flashlight_mp_1
v 0.093602 0.004285 0.019500
v 0.092358 0.018506 0.033775
v 0.090658 0.037932 0.039000
v 0.088958 0.057357 0.033775
v 0.087714 0.071578 0.019500
v 0.094057 -0.000920 0.000000
v 0.092358 0.018506 -0.033775
v 0.093602 0.004285 -0.019500
v 0.087259 0.076783 0.000000
v 0.090658 0.037932 -0.039000
v 0.087714 0.071578 -0.019500
v 0.088958 0.057357 -0.033775
v 0.066525 0.015478 0.011700
v 0.065778 0.024010 0.020265
v 0.064759 0.035666 0.023400
v 0.063739 0.047321 0.020265
v 0.062992 0.055854 0.011700
v 0.066798 0.012355 0.000000
v 0.065778 0.024010 -0.020265
v 0.066525 0.015478 -0.011700
v 0.062719 0.058977 0.000000
v 0.064759 0.035666 -0.023400
v 0.062992 0.055854 -0.011700
v 0.063739 0.047321 -0.020265
v -0.101832 0.000748 0.011700
v -0.102579 0.009281 0.020265
v -0.103598 0.020936 0.023400
v -0.104618 0.032592 0.020265
v -0.105364 0.041124 0.011700
v -0.101559 -0.002375 0.000000
v -0.102579 0.009281 -0.020265
v -0.101832 0.000748 -0.011700
v -0.105638 0.044247 0.000000
v -0.103598 0.020936 -0.023400
v -0.105364 0.041124 -0.011700
v -0.104618 0.032592 -0.020265
v -0.110890 0.029694 -0.016212
v -0.111487 0.036520 -0.009360
v -0.110074 0.020370 -0.018720
v -0.111705 0.039019 0.000000
v -0.108661 0.004219 -0.009360
v -0.109258 0.011045 -0.016212
v -0.108442 0.001721 0.000000
v -0.111487 0.036520 0.009360
v -0.110890 0.029694 0.016212
v -0.110074 0.020370 0.018720
v -0.109258 0.011045 0.016212
v -0.108661 0.004219 0.009360
v 0.118259 0.020772 0.033775
v 0.116559 0.040198 0.039000
v 0.113160 0.079049 0.000000
v 0.113615 0.073844 -0.019500
v 0.119503 0.006551 -0.019500
v 0.119958 0.001346 0.000000
v 0.116559 0.040198 -0.039000
v 0.118259 0.020772 -0.033775
v 0.114859 0.059623 -0.033775
v 0.119503 0.006551 0.019500
v 0.113615 0.073844 0.019500
v 0.114859 0.059623 0.033775
v 0.117965 0.024124 0.027947
v 0.113746 0.072346 0.000000
v 0.116559 0.040198 -0.032271
v 0.117965 0.024124 -0.027947
v 0.115153 0.056272 -0.027947
v 0.118995 0.012357 0.016135
v 0.114123 0.068039 0.016135
v 0.119372 0.008050 0.000000
v 0.116559 0.040198 0.032271
v 0.115153 0.056272 0.027947
v 0.118995 0.012357 -0.016135
v 0.114123 0.068039 -0.016135
v 0.113969 0.039971 -0.032271
v 0.115375 0.023897 -0.027947
v 0.112563 0.056045 -0.027947
v 0.116405 0.012130 0.016135
v 0.115375 0.023897 0.027947
v 0.111533 0.067812 0.016135
v 0.111156 0.072119 0.000000
v 0.120698 0.040560 0.012768
v 0.121662 0.029545 0.006384
v 0.117854 0.040311 0.023439
v 0.118875 0.028636 0.020298
v 0.113969 0.039971 0.032271
v 0.119735 0.051575 -0.006384
v 0.119735 0.051575 0.006384
v 0.116085 0.060532 -0.011719
v 0.115811 0.063660 0.000000
v 0.111533 0.067812 -0.016135
v 0.121662 0.029545 -0.006384
v 0.119623 0.020090 -0.011719
v 0.119897 0.016961 0.000000
v 0.116405 0.012130 -0.016135
v 0.116782 0.007823 0.000000
v 0.120698 0.040560 -0.012768
v 0.117854 0.040311 -0.023439
v 0.118875 0.028636 -0.020298
v 0.116833 0.051986 -0.020298
v 0.121739 0.040651 0.000000
v 0.119623 0.020090 0.011719
v 0.116085 0.060532 0.011719
v 0.116833 0.051986 0.020298
v 0.112563 0.056045 0.027947
v 0.093719 0.002867 0.000000
v 0.087995 0.068297 0.017599
v 0.090652 0.037931 -0.035198
v 0.089118 0.055463 -0.030482
v 0.093308 0.007565 0.017599
v 0.092185 0.020399 0.030482
v 0.087584 0.072995 0.000000
v 0.087995 0.068297 -0.017599
v 0.092185 0.020399 -0.030482
v 0.090652 0.037931 0.035198
v 0.093308 0.007565 -0.017599
v 0.089118 0.055463 0.030482
v 0.054643 0.055123 0.011700
v 0.054370 0.058246 0.000000
v 0.054643 0.055123 -0.011700
v 0.023076 0.052361 0.011700
v 0.022803 0.055484 0.000000
v 0.023076 0.052361 -0.011700
v 0.022736 0.056246 -0.011700
v 0.022736 0.056246 0.011700
v 0.053644 0.066534 0.000000
v 0.053918 0.063411 0.011700
v 0.053918 0.063411 -0.011700
v 0.022351 0.060650 -0.011700
v 0.022351 0.060650 0.011700
v 0.051054 0.066308 0.000000
v 0.051269 0.063855 0.009189
v 0.051269 0.063855 -0.009189
v 0.024882 0.061547 -0.009189
v 0.024882 0.061547 0.009189
v 0.025267 0.057143 0.009189
v 0.022463 0.059370 0.000000
v 0.025267 0.057143 -0.009189
v 0.051440 0.061905 0.000000
v 0.051654 0.059452 0.009189
v 0.051654 0.059452 -0.009189
v 0.041079 0.060998 0.000000
v 0.041235 0.059216 0.006677
v 0.041235 0.059216 -0.006677
v 0.027186 0.057987 -0.006677
v 0.027186 0.057987 0.006677
v 0.025135 0.059603 0.000000
v 0.024846 0.062900 0.000000
v 0.040807 0.064106 0.000000
v 0.026914 0.061095 0.006677
v 0.026914 0.061095 -0.006677
v 0.040963 0.062324 0.006677
v 0.040963 0.062324 -0.006677
vn 0.0872 -0.9962 -0.0000
vn 0.0755 -0.8627 -0.5000
vn 0.0436 -0.4981 -0.8660
vn -0.0000 -0.0000 -1.0000
vn -0.0872 0.9962 -0.0000
vn -0.0755 0.8627 -0.5000
vn -0.0436 0.4981 -0.8660
vn 0.0755 -0.8627 0.5000
vn 0.0436 -0.4981 0.8660
vn -0.0000 -0.0000 1.0000
vn -0.0755 0.8627 0.5000
vn -0.0436 0.4981 0.8660
vn -0.3324 -0.9431 -0.0000
vn -0.3430 -0.8216 0.4553
vn -0.3721 -0.4896 0.7886
vn -0.4805 0.7496 0.4553
vn -0.4911 0.8711 -0.0000
vn -0.4805 0.7496 -0.4553
vn -0.4117 -0.0360 -0.9106
vn -0.3721 -0.4896 -0.7886
vn -0.4117 -0.0360 0.9106
vn -0.3430 -0.8216 -0.4553
vn -0.4514 0.4175 -0.7886
vn -0.4514 0.4175 0.7886
vn -0.5113 -0.8594 -0.0000
vn -0.5208 -0.7511 0.4058
vn -0.8171 -0.5165 0.2559
vn -0.8112 -0.5848 -0.0000
vn -0.5208 -0.7511 -0.4058
vn -0.8171 -0.5165 -0.2559
vn -0.6174 0.3533 -0.7028
vn -0.5821 -0.0509 -0.8115
vn -0.8558 -0.0749 -0.5119
vn -0.8781 0.1801 -0.4433
vn -0.5467 -0.4552 0.7028
vn -0.8335 -0.3298 0.4433
vn -0.6174 0.3533 0.7028
vn -0.6433 0.6492 0.4058
vn -0.8944 0.3667 0.2559
vn -0.8781 0.1801 0.4433
vn -0.5467 -0.4552 -0.7028
vn -0.8335 -0.3298 -0.4433
vn -0.6528 0.7575 -0.0000
vn -0.9004 0.4351 -0.0000
vn -0.5821 -0.0509 0.8115
vn -0.8558 -0.0749 0.5119
vn -0.8944 0.3667 -0.2559
vn -0.6433 0.6492 -0.4058
vn 0.9962 0.0872 -0.0000
vn 0.9521 -0.0867 0.2933
vn 0.9356 0.0819 0.3435
vn 0.9113 0.0797 0.4039
vn 0.9289 -0.1215 0.3498
vn 0.9938 -0.0673 0.0887
vn 0.9804 0.0858 0.1774
vn 0.9938 -0.0673 -0.0887
vn 0.9078 0.4194 -0.0000
vn 0.9096 0.3782 -0.1718
vn 0.8808 0.4282 -0.2020
vn 0.8761 0.4821 -0.0000
vn 0.9669 -0.2553 -0.0000
vn 0.9615 -0.2145 -0.1718
vn 0.9465 -0.3227 -0.0000
vn 0.9418 -0.2688 -0.2020
vn 0.9670 0.2388 0.0887
vn 0.9226 0.2507 0.2933
vn 0.9670 0.2388 -0.0887
vn 0.9804 0.0858 -0.1774
vn 0.9226 0.2507 -0.2933
vn 0.9356 0.0819 -0.3435
vn 0.9521 -0.0867 -0.2933
vn 0.9289 -0.1215 -0.3498
vn 0.9113 0.0797 -0.4039
vn 0.8937 0.2809 -0.3498
vn 0.9615 -0.2145 0.1718
vn 0.9418 -0.2688 0.2020
vn 0.9096 0.3782 0.1718
vn 0.8808 0.4282 0.2020
vn 0.8937 0.2809 0.3498
vn -0.9963 -0.0863 0.0015
vn -0.9963 -0.0857 0.0008
vn -0.9963 -0.0857 -0.0008
vn -0.9963 -0.0863 -0.0015
vn -0.9962 -0.0872 0.0017
vn -0.9961 -0.0886 -0.0008
vn -0.9960 -0.0888 -0.0000
vn -0.9962 -0.0872 -0.0017
vn -0.9961 -0.0880 -0.0015
vn -0.9961 -0.0880 0.0015
vn -0.9963 -0.0855 -0.0000
vn -0.9961 -0.0886 0.0008
vn -0.9962 -0.0872 -0.0000
vn -0.0842 0.9623 0.2588
vn -0.6921 -0.0606 0.7193
vn -0.0842 0.9623 -0.2588
vn -0.0842 0.9622 -0.2588
vn -0.6921 -0.0606 -0.7193
vn -0.0809 0.9967 -0.0000
vn -0.0779 0.9595 0.2707
vn -0.0779 0.9595 -0.2707
vn -0.9581 -0.0838 -0.2741
vn -0.9581 -0.0838 0.2741
vt 0.810031 0.296868
vt 0.572329 0.250772
vt 0.846422 0.296868
vt 0.557601 0.317326
vt 0.882812 0.296868
vt 0.552179 0.389295
vt 0.919203 0.296868
vt 0.556447 0.461575
vt 0.955594 0.296868
vt 0.570104 0.529037
vt 0.991985 0.296868
vt 0.773640 0.296868
vt 0.595319 0.194354
vt 0.919203 0.296868
vt 0.557601 0.317326
vt 0.955594 0.296868
vt 0.572329 0.250772
vt 0.773640 0.296868
vt 0.991985 0.296868
vt 0.592181 0.586896
vt 0.882812 0.296868
vt 0.552179 0.389295
vt 0.810031 0.296868
vt 0.570104 0.529036
vt 0.846422 0.296868
vt 0.556447 0.461575
vt 0.478291 0.307929
vt 0.992188 0.843750
vt 0.469454 0.347862
vt 0.992188 0.890625
vt 0.466201 0.391043
vt 0.992188 0.937500
vt 0.468762 0.434411
vt 0.992188 0.796875
vt 0.992188 0.984375
vt 0.476956 0.474888
vt 0.992190 0.843750
vt 0.492085 0.274078
vt 0.992188 0.796875
vt 0.992188 0.984375
vt 0.469454 0.347862
vt 0.992188 0.890625
vt 0.478291 0.307929
vt 0.992188 0.937500
vt 0.490202 0.509603
vt 0.992190 0.890625
vt 0.466201 0.391043
vt 0.992188 0.843750
vt 0.476956 0.474888
vt 0.992190 0.937500
vt 0.468762 0.434411
vt 0.992188 0.984375
vt 0.992188 0.796875
vt 0.580334 0.605136
vt 0.679688 0.843750
vt 0.604823 0.604020
vt 0.679688 0.890625
vt 0.626684 0.627575
vt 0.679688 0.937500
vt 0.638965 0.670751
vt 0.679688 0.796875
vt 0.679688 0.984375
vt 0.638965 0.719740
vt 0.679688 0.843750
vt 0.559383 0.630131
vt 0.679688 0.796875
vt 0.679688 0.984375
vt 0.547177 0.721685
vt 0.679688 0.890625
vt 0.547256 0.672507
vt 0.679688 0.937500
vt 0.626953 0.762197
vt 0.679688 0.890625
vt 0.559479 0.765100
vt 0.679688 0.843750
vt 0.606044 0.787424
vt 0.679688 0.937500
vt 0.581462 0.788698
vt 0.679688 0.984375
vt 0.679688 0.796875
vt 0.585203 0.759388
vt 0.602038 0.758583
vt 0.570389 0.743254
vt 0.616360 0.741160
vt 0.561679 0.680450
vt 0.561817 0.714138
vt 0.569931 0.651253
vt 0.624551 0.711891
vt 0.624382 0.678331
vt 0.615811 0.649358
vt 0.601067 0.633212
vt 0.584295 0.633947
vt 0.846422 0.203132
vt 0.537975 0.350845
vt 0.882812 0.203132
vt 0.537975 0.423627
vt 0.773640 0.203132
vt 0.991985 0.203132
vt 0.592827 0.523048
vt 0.810031 0.203132
vt 0.624342 0.486657
vt 0.955594 0.203132
vt 0.624077 0.251424
vt 0.592827 0.251424
vt 0.991985 0.203132
vt 0.773640 0.203132
vt 0.587686 0.251424
vt 0.882812 0.203132
vt 0.642538 0.350845
vt 0.919203 0.203132
vt 0.624342 0.287814
vt 0.846422 0.203132
vt 0.642538 0.423627
vt 0.810031 0.203132
vt 0.556171 0.287814
vt 0.955594 0.203132
vt 0.556436 0.523048
vt 0.587686 0.523048
vt 0.919203 0.203132
vt 0.556171 0.486657
vt 0.549692 0.357124
vt 0.599624 0.878130
vt 0.589687 0.499614
vt 0.599624 0.637236
vt 0.630821 0.357124
vt 0.599624 0.456566
vt 0.615765 0.304969
vt 0.599624 0.396342
vt 0.630821 0.417348
vt 0.599624 0.516789
vt 0.564748 0.304969
vt 0.599624 0.938353
vt 0.559576 0.499614
vt 0.590826 0.499614
vt 0.599624 0.697459
vt 0.590826 0.274857
vt 0.599624 0.998576
vt 0.599624 0.275895
vt 0.549692 0.417348
vt 0.599624 0.817906
vt 0.564748 0.469503
vt 0.599624 0.757683
vt 0.620937 0.274857
vt 0.589687 0.274857
vt 0.599624 0.336119
vt 0.615765 0.469503
vt 0.599624 0.577012
vt 0.594937 0.456566
vt 0.991140 0.539470
vt 0.594937 0.396342
vt 0.976029 0.427612
vt 0.594937 0.516789
vt 0.976108 0.651359
vt 0.594937 0.938353
vt 0.823300 0.346044
vt 0.594937 0.878130
vt 0.782379 0.427886
vt 0.594937 0.697459
vt 0.823432 0.733354
vt 0.594937 0.637236
vt 0.879322 0.763153
vt 0.837135 0.539791
vt 0.858122 0.466788
vt 0.800411 0.539940
vt 0.810937 0.461094
vt 0.594937 0.817906
vt 0.767346 0.539775
vt 0.900365 0.612457
vt 0.858266 0.612623
vt 0.918769 0.675950
vt 0.879399 0.697144
vt 0.594937 0.577012
vt 0.935187 0.733202
vt 0.900221 0.466622
vt 0.918499 0.402987
vt 0.879088 0.382101
vt 0.594937 0.336119
vt 0.935055 0.345892
vt 0.594937 0.998576
vt 0.594937 0.275895
vt 0.879164 0.316092
vt 0.921351 0.539455
vt 0.958076 0.539305
vt 0.947391 0.460554
vt 0.947549 0.618151
vt 0.879243 0.539623
vt 0.839717 0.403296
vt 0.839987 0.676258
vt 0.811096 0.618691
vt 0.594937 0.757683
vt 0.782458 0.651633
vt 0.456024 0.201129
vt 0.596728 0.201518
vt 0.573171 0.525413
vt 0.432412 0.525679
vt 0.414934 0.389404
vt 0.555755 0.389410
vt 0.419097 0.459894
vt 0.559912 0.459797
vt 0.434582 0.254316
vt 0.575336 0.254590
vt 0.420222 0.319215
vt 0.561035 0.319324
vt 0.452993 0.580209
vt 0.593703 0.579826
vt 0.432412 0.525679
vt 0.573171 0.525413
vt 0.420222 0.319215
vt 0.561035 0.319324
vt 0.414934 0.389404
vt 0.555755 0.389410
vt 0.434582 0.254316
vt 0.575336 0.254590
vt 0.559912 0.459797
vt 0.419097 0.459894
vt 0.359653 0.291029
vt 0.308026 0.291029
vt 0.329956 0.302781
vt 0.359653 0.291029
vt 0.351886 0.291029
vt 0.308026 0.291029
vt 0.300259 0.291029
vt 0.329956 0.302781
vt 0.300259 0.291029
vt 0.351886 0.291029
vt 0.351886 0.305649
vt 0.300259 0.305649
vt 0.300259 0.356360
vt 0.308026 0.305649
vt 0.300259 0.268640
vt 0.300259 0.305649
vt 0.359653 0.312500
vt 0.329956 0.333971
vt 0.359653 0.322218
vt 0.359653 0.268640
vt 0.308026 0.322218
vt 0.359653 0.322218
vt 0.351886 0.322218
vt 0.359653 0.356360
vt 0.300259 0.322218
vt 0.300259 0.356360
vt 0.300259 0.268640
vt 0.300259 0.322218
vt 0.354779 0.312500
vt 0.329956 0.333971
vt 0.354779 0.278055
vt 0.354779 0.324741
vt 0.312733 0.324741
vt 0.354779 0.324741
vt 0.354779 0.346945
vt 0.347179 0.324741
vt 0.305133 0.324741
vt 0.305133 0.346945
vt 0.305133 0.278055
vt 0.305133 0.324741
vt 0.305133 0.308172
vt 0.305133 0.278055
vt 0.329956 0.317401
vt 0.300259 0.312500
vt 0.305133 0.308172
vt 0.305133 0.346945
vt 0.329956 0.317401
vt 0.354779 0.312500
vt 0.354779 0.308172
vt 0.312733 0.308172
vt 0.354779 0.278055
vt 0.354779 0.308172
vt 0.347179 0.308172
vt 0.354779 0.346945
vt 0.579956 0.309650
vt 0.594956 0.302943
vt 0.567441 0.302943
vt 0.592471 0.302943
vt 0.594956 0.302943
vt 0.592471 0.302943
vt 0.568523 0.302943
vt 0.568523 0.302943
vt 0.567441 0.302943
vt 0.579956 0.309650
vt 0.564956 0.312500
vt 0.579956 0.322057
vt 0.594956 0.312500
vt 0.579956 0.321346
vt 0.568523 0.314639
vt 0.568523 0.287469
vt 0.567441 0.314639
vt 0.568523 0.337531
vt 0.592471 0.314639
vt 0.568523 0.314639
vt 0.594956 0.314639
vt 0.594956 0.287469
vt 0.567441 0.314639
vt 0.592471 0.314639
vt 0.594956 0.337531
vt 0.594956 0.314639
s 1
usemtl flashlight_1
f 54/105/1 6/11/1 8/16/2 53/102/2
f 53/102/2 8/16/2 7/14/3 56/110/3
f 56/110/3 7/14/3 10/21/4 55/108/4
f 9/18/5 51/97/5 52/100/6 11/23/6
f 11/23/6 52/100/6 57/112/7 12/25/7
f 12/25/7 57/112/7 55/108/4 10/21/4
f 6/12/1 54/106/1 58/114/8 1/1/8
f 1/1/8 58/114/8 49/93/9 2/3/9
f 2/3/9 49/93/9 50/95/10 3/5/10
f 51/98/5 9/19/5 5/9/11 59/116/11
f 59/116/11 5/9/11 4/7/12 60/119/12
f 60/119/12 4/7/12 3/5/10 50/95/10
f 104/192/13 108/200/14 13/27/14 18/38/13
f 108/200/14 109/202/15 14/29/15 13/27/14
f 105/195/16 110/204/17 21/45/17 17/36/16
f 110/204/17 111/206/18 23/49/18 21/45/17
f 106/196/19 112/208/20 19/41/20 22/47/19
f 109/202/15 113/210/21 15/31/21 14/29/15
f 112/208/20 114/212/22 20/43/22 19/41/20
f 107/198/23 106/196/19 22/47/19 24/51/23
f 114/212/22 104/192/13 18/38/13 20/43/22
f 113/210/21 115/215/24 16/33/24 15/31/21
f 111/206/18 107/198/23 24/51/23 23/49/18
f 30/65/25 25/54/26 48/92/27 43/87/28
f 32/70/29 30/65/25 43/87/28 41/85/30
f 36/78/31 34/74/32 39/83/33 37/81/34
f 25/54/26 26/56/35 47/91/36 48/92/27
f 28/60/37 29/63/38 44/88/39 45/89/40
f 34/74/32 31/68/41 42/86/42 39/83/33
f 29/63/38 33/72/43 40/84/44 44/88/39
f 26/56/35 27/58/45 46/90/46 47/91/36
f 43/87/28 48/92/27 47/91/36 46/90/46 45/89/40 44/88/39 40/84/44 38/82/47 37/81/34 39/83/33 42/86/42 41/85/30
f 35/76/48 36/78/31 37/81/34 38/82/47
f 31/68/41 32/70/29 41/85/30 42/86/42
f 33/72/43 35/76/48 38/82/47 40/84/44
f 27/58/45 28/60/37 45/89/40 46/90/46
f 61/121/49 69/139/49 50/96/49 49/94/49
f 62/123/49 72/146/49 52/101/49 51/99/49
f 71/143/49 68/136/49 54/107/49 53/103/49
f 63/125/49 64/127/49 56/111/49 55/109/49
f 64/127/49 71/144/49 53/104/49 56/111/49
f 72/146/49 65/129/49 57/113/49 52/101/49
f 65/129/49 63/125/49 55/109/49 57/113/49
f 68/136/49 66/131/49 58/115/49 54/107/49
f 66/131/49 61/121/49 49/94/49 58/115/49
f 67/133/49 62/123/49 51/99/49 59/117/49
f 70/141/49 67/134/49 59/118/49 60/120/49
f 69/139/49 70/141/49 60/120/49 50/96/49
f 63/126/10 65/130/9 75/152/9 73/148/10
f 66/132/6 68/137/5 94/179/5 76/154/6
f 69/140/4 61/122/7 77/156/7 84/166/4
f 68/138/5 71/145/11 93/177/11 94/180/5
f 64/128/12 63/126/10 73/148/10 74/150/12
f 65/130/9 72/147/8 89/172/8 75/152/9
f 62/124/1 67/135/2 78/158/2 79/160/1
f 71/145/11 64/128/12 74/150/12 93/177/11
f 61/122/7 66/132/6 76/154/6 77/156/7
f 67/135/2 70/142/3 103/190/3 78/158/2
f 70/142/3 69/140/4 84/166/4 103/190/3
f 72/147/8 62/124/1 79/160/1 89/172/8
f 83/165/50 82/164/51 84/167/52 77/157/53
f 81/163/54 99/186/49 80/162/55
f 99/186/49 81/163/54 90/174/56
f 88/171/57 87/170/58 89/173/59 79/161/60
f 92/176/61 90/174/56 81/163/54
f 90/174/56 92/176/61 91/175/62
f 91/175/62 92/176/61 94/181/63 93/178/64
f 80/162/55 86/169/65 102/189/66
f 85/168/67 95/182/68 98/185/69
f 96/183/70 97/184/71 74/151/72 73/149/73
f 97/184/71 91/175/62 93/178/64 74/151/72
f 99/186/49 90/174/56 95/182/68
f 87/170/58 98/185/69 75/153/74 89/173/59
f 80/162/55 99/186/49 86/169/65
f 98/185/69 96/183/70 73/149/73 75/153/74
f 90/174/56 97/184/71 95/182/68
f 92/176/61 100/187/75 76/155/76 94/181/63
f 86/169/65 85/168/67 88/171/57
f 100/187/75 83/165/50 77/157/53 76/155/76
f 101/188/77 88/171/57 79/161/60 78/159/78
f 99/186/49 95/182/68 85/168/67
f 86/169/65 99/186/49 85/168/67
f 102/189/66 101/188/77 78/159/78 103/191/79
f 82/164/51 102/189/66 103/191/79 84/167/52
f 81/163/54 80/162/55 83/165/50
f 98/185/69 95/182/68 96/183/70
f 83/165/50 100/187/75 81/163/54
f 102/189/66 86/169/65 101/188/77
f 88/171/57 85/168/67 87/170/58
f 97/184/71 96/183/70 95/182/68
f 98/185/69 87/170/58 85/168/67
f 92/176/61 81/163/54 100/187/75
f 88/171/57 101/188/77 86/169/65
f 102/189/66 82/164/51 80/162/55
f 83/165/50 80/162/55 82/164/51
f 97/184/71 90/174/56 91/175/62
f 4/8/80 5/10/81 105/194/81 115/214/80
f 11/24/82 12/26/83 107/199/83 111/207/82
f 3/6/84 4/8/80 115/214/80 113/211/84
f 8/17/85 6/13/86 104/193/86 114/213/85
f 12/26/83 10/22/87 106/197/87 107/199/83
f 7/15/88 8/17/85 114/213/85 112/209/88
f 2/4/89 3/6/84 113/211/84 109/203/89
f 10/22/87 7/15/88 112/209/88 106/197/87
f 9/20/90 11/24/82 111/207/82 110/205/90
f 5/10/81 9/20/90 110/205/90 105/194/81
f 1/2/91 2/4/89 109/203/89 108/201/91
f 6/13/86 1/2/91 108/201/91 104/193/86
f 115/215/24 105/195/16 17/36/16 16/33/24
f 16/34/12 17/37/11 29/64/11 28/61/12
f 18/39/1 13/28/8 25/55/8 30/66/1
f 24/52/7 36/79/7 35/77/6 23/50/6
f 20/44/2 18/40/1 30/67/1 32/71/2
f 15/32/10 16/35/12 28/62/12 27/59/10
f 22/48/4 19/42/3 31/69/3 34/75/4
f 24/53/7 22/48/4 34/75/4 36/80/7
f 33/73/5 29/64/11 17/37/11 21/46/5
f 19/42/3 20/44/2 32/71/2 31/69/3
f 35/77/6 33/73/5 21/46/5 23/50/6
f 13/28/8 14/30/9 26/57/9 25/55/8
f 14/30/9 15/32/10 27/59/10 26/57/9
f 120/223/92 119/221/92 123/229/92 135/258/92
f 122/227/4 127/240/4 126/237/4 118/219/4 121/224/4
f 121/225/92 120/223/92 135/258/92 122/226/92
f 118/220/49 126/238/49 124/233/49 117/218/49
f 123/230/93 134/257/93 135/259/5
f 116/216/10 125/234/10 128/243/10 123/231/10 119/222/10
f 122/227/94 136/260/94 132/252/94 127/240/94
f 136/260/10 139/267/10 131/249/10 132/252/10
f 136/261/95 122/228/95 135/259/5
f 129/244/5 130/246/93 125/235/93 124/232/5
f 131/250/96 129/244/5 124/232/5 126/239/96
f 132/253/95 131/250/95 126/239/95 127/241/95
f 130/246/93 133/254/93 128/242/93 125/235/93
f 138/264/4 134/256/4 133/255/4 130/247/4
f 134/256/97 123/231/97 128/243/97 133/255/97
f 137/262/92 138/265/92 130/248/92 129/245/92
f 139/268/92 137/262/92 129/245/92 131/251/92
f 117/218/49 124/233/49 125/236/49 116/217/49
f 134/257/93 138/266/93 137/263/5 135/259/5
f 135/259/5 137/263/5 139/269/95 136/261/95
f 140/270/49 142/273/49 151/293/49 147/283/49
f 144/277/10 141/271/10 150/290/10 148/284/10
f 147/282/98 146/280/98 148/285/99 150/291/99
f 149/287/100 146/280/98 147/282/98 151/294/100
f 143/275/101 145/279/92 146/281/92 149/288/101
f 142/274/4 143/276/4 149/289/4 151/295/4
f 141/272/49 140/270/49 147/283/49 150/292/49
f 145/279/92 144/278/102 148/286/102 146/281/92
