# Blender 3.4.0
# www.blender.org
mtllib key_mp_1.mtl
o key_mp_1
v -0.007335 -0.000014 0.030951
v -0.006073 -0.000014 0.032528
v -0.006021 -0.000021 0.067098
v -0.002080 -0.000021 0.070514
v 0.004184 -0.000020 0.065390
v 0.004184 -0.000020 0.063287
v 0.004622 -0.000020 0.062324
v 0.003308 -0.000019 0.061097
v 0.003264 -0.000019 0.058776
v 0.004797 -0.000019 0.057068
v 0.003527 -0.000018 0.055316
v 0.004709 -0.000018 0.053520
v 0.003439 -0.000018 0.051944
v 0.003351 -0.000017 0.049710
v 0.003789 -0.000017 0.048396
v 0.002388 -0.000017 0.047345
v 0.002388 -0.000016 0.045199
v 0.006039 -0.000015 0.040927
v 0.006092 -0.000015 0.039876
v 0.006775 -0.000015 0.039508
v 0.008036 -0.000015 0.039245
v 0.008089 -0.000015 0.036459
v 0.006215 -0.000014 0.034743
v 0.005616 -0.000014 0.033164
v 0.006748 -0.000013 0.030390
v 0.013119 -0.000012 0.025379
v 0.016588 -0.000011 0.018336
v 0.016851 -0.000010 0.010767
v 0.015463 -0.000009 0.007359
v 0.013781 -0.000008 0.004258
v 0.008894 -0.000007 -0.000578
v 0.002534 -0.000007 -0.002995
v -0.004666 -0.000007 -0.002995
v -0.010763 -0.000007 -0.000262
v -0.015283 -0.000008 0.004363
v -0.016965 -0.000009 0.006991
v -0.017964 -0.000009 0.009829
v -0.018384 -0.000011 0.015926
v -0.016387 -0.000012 0.022075
v -0.013233 -0.000013 0.027068
v -0.000580 -0.000008 0.003154
v -0.002288 -0.000008 0.003504
v -0.003909 -0.000008 0.004731
v -0.004960 -0.000009 0.006351
v -0.005179 -0.000009 0.008147
v -0.004610 -0.000009 0.009767
v -0.003252 -0.000010 0.010906
v -0.001719 -0.000010 0.011694
v -0.000274 -0.000010 0.011826
v 0.001654 -0.000010 0.011256
v 0.002924 -0.000009 0.009767
v 0.003668 -0.000009 0.007709
v 0.003493 -0.000009 0.006088
v 0.002836 -0.000008 0.004862
v 0.001654 -0.000008 0.003723
v -0.007335 0.002986 0.030951
v -0.006073 0.002986 0.032528
v -0.006021 0.002979 0.067098
v -0.002080 0.002979 0.070515
v 0.004184 0.002980 0.065390
v 0.004184 0.002980 0.063288
v 0.004622 0.002980 0.062324
v 0.003308 0.002981 0.061098
v 0.003264 0.002981 0.058777
v 0.004797 0.002981 0.057069
v 0.003527 0.002982 0.055317
v 0.004709 0.002982 0.053521
v 0.003439 0.002982 0.051944
v 0.003351 0.002983 0.049710
v 0.003789 0.002983 0.048397
v 0.002388 0.002983 0.047345
v 0.002388 0.002984 0.045199
v 0.006039 0.002985 0.040927
v 0.006092 0.002985 0.039876
v 0.006775 0.002985 0.039508
v 0.008036 0.002985 0.039245
v 0.008089 0.002985 0.036460
v 0.006215 0.002986 0.034743
v 0.005616 0.002986 0.033165
v 0.006748 0.002987 0.030391
v 0.013119 0.002988 0.025379
v 0.016588 0.002989 0.018336
v 0.016851 0.002990 0.010768
v 0.015463 0.002991 0.007359
v 0.013781 0.002992 0.004258
v 0.008894 0.002993 -0.000577
v 0.002534 0.002993 -0.002995
v -0.004666 0.002993 -0.002995
v -0.010763 0.002993 -0.000262
v -0.015283 0.002992 0.004363
v -0.016965 0.002991 0.006991
v -0.017964 0.002991 0.009829
v -0.018384 0.002989 0.015926
v -0.016387 0.002988 0.022075
v -0.013233 0.002987 0.027068
v -0.000580 0.002992 0.003154
v -0.002288 0.002992 0.003505
v -0.003909 0.002992 0.004731
v -0.004960 0.002991 0.006352
v -0.005179 0.002991 0.008147
v -0.004610 0.002991 0.009768
v -0.003252 0.002990 0.010907
v -0.001719 0.002990 0.011695
v -0.000274 0.002990 0.011826
v 0.001654 0.002990 0.011257
v 0.002924 0.002991 0.009768
v 0.003668 0.002991 0.007709
v 0.003493 0.002991 0.006089
v 0.002836 0.002992 0.004863
v 0.001654 0.002992 0.003724
vn -0.0000 1.0000 0.0002
vn -0.0000 -1.0000 -0.0002
vn 0.7788 0.0001 -0.6273
vn 0.9998 -0.0000 0.0189
vn 0.8352 -0.0001 0.5500
vn 0.9773 -0.0000 0.2117
vn 0.9104 -0.0001 0.4138
vn 0.7602 -0.0001 0.6497
vn 0.5410 0.0002 -0.8410
vn 0.1806 0.0002 -0.9835
vn 1.0000 -0.0000 -0.0000
vn 0.2791 0.0002 -0.9603
vn 0.5534 0.0002 -0.8329
vn 0.7770 -0.0001 0.6295
vn 0.9698 -0.0000 0.2437
vn 0.6823 0.0001 -0.7311
vn -0.0982 0.0002 -0.9952
vn -0.9554 -0.0001 0.2953
vn -0.9928 -0.0000 -0.1194
vn -0.7137 -0.0001 0.7004
vn -0.6736 -0.0001 0.7391
vn 0.6332 -0.0002 0.7740
vn -0.6549 -0.0002 0.7557
vn 0.7322 -0.0001 0.6811
vn 0.4124 -0.0002 0.9110
vn -0.5722 0.0002 -0.8201
vn -0.7828 0.0001 -0.6222
vn -0.9434 -0.0001 0.3317
vn -0.9053 -0.0001 0.4247
vn 0.9988 -0.0000 0.0499
vn -0.8988 0.0001 -0.4384
vn 0.9846 -0.0000 -0.1750
vn -0.4865 -0.0002 0.8737
vn -0.7973 -0.0001 0.6036
vn 0.8096 0.0001 -0.5870
vn -0.2833 0.0002 -0.9590
vn 0.8277 0.0001 -0.5612
vn 0.9999 -0.0000 0.0125
vn 0.7998 0.0001 -0.6003
vn 0.9040 0.0001 -0.4275
vn -1.0000 -0.0000 0.0015
vn 0.9992 -0.0000 -0.0392
vn 0.9900 -0.0000 0.1408
vn 0.9399 -0.0001 0.3414
vn 0.9941 -0.0000 -0.1081
vn -0.8645 0.0001 -0.5026
vn -0.7608 0.0001 -0.6489
vn 0.6755 0.0001 -0.7374
vn 0.6426 0.0001 -0.7662
vn -0.9925 -0.0000 0.1223
vn -0.2092 0.0002 -0.9779
vn 0.9435 0.0001 -0.3315
vn -0.9793 -0.0000 -0.2022
vn 0.9998 -0.0000 -0.0189
vn 0.4741 -0.0002 0.8805
vn 0.3426 -0.0002 0.9395
vn 0.9487 -0.0001 0.3162
vn -0.0236 -0.0002 0.9997
vn 0.7986 -0.0001 0.6018
vn 0.7442 -0.0001 0.6679
vn 0.2040 -0.0002 0.9790
vn 0.6000 0.0002 -0.8000
vt 0.307425 0.949465
vt 0.307425 0.934106
vt 0.268002 0.945587
vt 0.307425 0.936800
vt 0.269883 0.943195
vt 0.307425 0.947309
vt 0.307425 0.994734
vt 0.269961 0.890754
vt 0.308594 1.000000
vt 0.307425 0.940842
vt 0.275845 0.885571
vt 0.307425 0.991770
vt 0.308594 0.984375
vt 0.285185 0.893345
vt 0.307425 0.988267
vt 0.285185 0.896534
vt 0.285838 0.897996
vt 0.307425 0.986650
vt 0.307425 0.929525
vt 0.283878 0.899856
vt 0.307425 0.931681
vt 0.307425 0.984495
vt 0.283813 0.903377
vt 0.307425 0.980722
vt 0.286099 0.905968
vt 0.307425 0.977758
vt 0.307425 0.975064
vt 0.284205 0.908626
vt 0.285969 0.911350
vt 0.307425 0.971830
vt 0.307425 0.969405
vt 0.284074 0.913742
vt 0.307425 0.965632
vt 0.283943 0.917130
vt 0.307425 0.963477
vt 0.284597 0.919124
vt 0.307425 0.930872
vt 0.282506 0.920718
vt 0.307425 0.961591
vt 0.307425 0.933297
vt 0.282506 0.923974
vt 0.307425 0.958088
vt 0.287953 0.930454
vt 0.307425 0.950812
vt 0.288031 0.932049
vt 0.307425 0.949195
vt 0.307425 0.927100
vt 0.289051 0.932607
vt 0.307425 0.926022
vt 0.290932 0.933005
vt 0.307425 0.948118
vt 0.307425 0.923866
vt 0.291011 0.937231
vt 0.307425 0.943267
vt 0.307425 0.923866
vt 0.288215 0.939835
vt 0.307425 0.940573
vt 0.307425 0.926830
vt 0.287322 0.942230
vt 0.307425 0.937878
vt 0.289010 0.946437
vt 0.307425 0.926022
vt 0.307425 0.933297
vt 0.298515 0.954040
vt 0.307425 0.924944
vt 0.303689 0.964724
vt 0.307425 0.913088
vt 0.304081 0.976205
vt 0.307425 0.900423
vt 0.302012 0.981376
vt 0.307425 0.894764
vt 0.299503 0.986080
vt 0.307425 0.889375
vt 0.292211 0.993415
vt 0.307425 0.922519
vt 0.307425 0.933028
vt 0.282724 0.997082
vt 0.271982 0.997082
vt 0.307425 0.945154
vt 0.262887 0.992936
vt 0.307425 0.955393
vt 0.307425 0.889645
vt 0.256144 0.985920
vt 0.253635 0.981934
vt 0.307425 0.893956
vt 0.252146 0.977628
vt 0.307425 0.898806
vt 0.251518 0.968380
vt 0.307425 0.909046
vt 0.254498 0.959052
vt 0.307425 0.919285
vt 0.307425 0.959435
vt 0.307425 0.927639
vt 0.259202 0.951477
vt 0.278078 0.987754
vt 0.307425 0.938148
vt 0.275530 0.987223
vt 0.307425 0.941112
vt 0.307425 0.943806
vt 0.273112 0.985362
vt 0.307425 0.890184
vt 0.271544 0.982904
vt 0.307425 0.892878
vt 0.271218 0.980180
vt 0.307425 0.895842
vt 0.272067 0.977722
vt 0.307425 0.944884
vt 0.307425 0.898537
vt 0.307425 0.942728
vt 0.274093 0.975994
vt 0.307425 0.940303
vt 0.276379 0.974798
vt 0.278536 0.974599
vt 0.307425 0.937878
vt 0.281410 0.975463
vt 0.307425 0.934645
vt 0.307425 0.901231
vt 0.283305 0.977722
vt 0.307425 0.898537
vt 0.284416 0.980844
vt 0.307425 0.895303
vt 0.284155 0.983303
vt 0.307425 0.892609
vt 0.283175 0.985163
vt 0.307425 0.932489
vt 0.307425 0.890453
vt 0.281410 0.986891
vt 0.307425 0.934645
vt 0.312425 0.949465
vt 0.312425 0.934106
vt 0.268002 0.945587
vt 0.312425 0.936800
vt 0.269883 0.943195
vt 0.312425 0.947309
vt 0.312425 0.994734
vt 0.269961 0.890754
vt 0.312500 1.000000
vt 0.312425 0.940842
vt 0.275845 0.885571
vt 0.285185 0.893345
vt 0.312425 0.991770
vt 0.312500 0.984375
vt 0.312425 0.988267
vt 0.285185 0.896534
vt 0.285838 0.897996
vt 0.312425 0.986650
vt 0.312425 0.929525
vt 0.312425 0.931681
vt 0.312425 0.984495
vt 0.283878 0.899856
vt 0.283813 0.903377
vt 0.312425 0.980722
vt 0.286099 0.905968
vt 0.312425 0.977758
vt 0.284205 0.908626
vt 0.312425 0.975064
vt 0.285969 0.911350
vt 0.312425 0.971830
vt 0.312425 0.969405
vt 0.284074 0.913742
vt 0.283943 0.917130
vt 0.312425 0.965632
vt 0.284597 0.919124
vt 0.312425 0.963477
vt 0.312425 0.930872
vt 0.282506 0.920718
vt 0.312425 0.961591
vt 0.312425 0.933297
vt 0.282506 0.923974
vt 0.312425 0.958088
vt 0.287953 0.930454
vt 0.312425 0.950812
vt 0.312425 0.949195
vt 0.312425 0.927100
vt 0.288031 0.932049
vt 0.289051 0.932607
vt 0.312425 0.926022
vt 0.290932 0.933005
vt 0.312425 0.948118
vt 0.312425 0.923866
vt 0.291011 0.937231
vt 0.312425 0.943267
vt 0.312425 0.923866
vt 0.312425 0.940573
vt 0.312425 0.926830
vt 0.288215 0.939835
vt 0.287322 0.942230
vt 0.312425 0.937878
vt 0.289010 0.946437
vt 0.312425 0.926022
vt 0.312425 0.933297
vt 0.298515 0.954040
vt 0.312425 0.924944
vt 0.303689 0.964724
vt 0.312425 0.913088
vt 0.304081 0.976205
vt 0.312425 0.900423
vt 0.302012 0.981376
vt 0.312425 0.894764
vt 0.299503 0.986080
vt 0.312425 0.889375
vt 0.292211 0.993415
vt 0.312425 0.922519
vt 0.282724 0.997082
vt 0.312425 0.933028
vt 0.271982 0.997082
vt 0.312425 0.945154
vt 0.262887 0.992936
vt 0.312425 0.955393
vt 0.256144 0.985920
vt 0.312425 0.889645
vt 0.253635 0.981934
vt 0.312425 0.893956
vt 0.252146 0.977628
vt 0.312425 0.898806
vt 0.251518 0.968380
vt 0.312425 0.909046
vt 0.254498 0.959052
vt 0.312425 0.919285
vt 0.259202 0.951477
vt 0.312425 0.959435
vt 0.312425 0.927639
vt 0.278078 0.987754
vt 0.312425 0.938148
vt 0.275530 0.987223
vt 0.312425 0.941112
vt 0.273112 0.985362
vt 0.312425 0.943806
vt 0.312425 0.890184
vt 0.271544 0.982904
vt 0.312425 0.892878
vt 0.271218 0.980180
vt 0.312425 0.895842
vt 0.272067 0.977722
vt 0.312425 0.944884
vt 0.312425 0.898537
vt 0.274093 0.975994
vt 0.312425 0.942728
vt 0.312425 0.940303
vt 0.276379 0.974798
vt 0.312425 0.937878
vt 0.278536 0.974599
vt 0.281410 0.975463
vt 0.312425 0.934645
vt 0.312425 0.901231
vt 0.283305 0.977722
vt 0.312425 0.898537
vt 0.284416 0.980844
vt 0.312425 0.895303
vt 0.284155 0.983303
vt 0.312425 0.892609
vt 0.283175 0.985163
vt 0.312425 0.932489
vt 0.312425 0.890453
vt 0.281410 0.986891
vt 0.312425 0.934645
s 1
usemtl keys_mp_1
f 63/150/1 64/151/1 58/136/1
f 28/68/2 27/66/2 51/118/2
f 40/94/2 39/90/2 46/106/2 47/110/2
f 81/192/1 82/194/1 106/246/1 105/243/1
f 80/189/1 56/131/1 57/133/1 79/187/1
f 31/74/2 54/124/2 55/127/2 32/77/2
f 24/59/2 23/56/2 2/5/2
f 23/56/2 20/48/2 19/45/2
f 19/45/2 18/43/2 17/41/2
f 56/131/1 103/240/1 102/237/1 95/220/1
f 68/160/1 69/161/1 70/163/1 71/166/1
f 17/41/2 16/38/2 2/5/2
f 36/84/2 45/104/2 37/86/2
f 92/214/1 93/216/1 101/234/1 100/232/1
f 94/218/1 95/220/1 102/237/1 101/234/1
f 68/160/1 58/136/1 66/155/1 67/157/1
f 64/151/1 65/153/1 66/155/1 58/136/1
f 8/20/2 7/17/2 6/16/2
f 77/181/1 78/186/1 75/176/1 76/178/1
f 60/140/1 61/144/1 59/139/1
f 9/23/2 8/20/2 3/8/2
f 39/90/2 38/88/2 46/106/2
f 46/106/2 38/88/2 37/86/2 45/104/2
f 99/230/1 98/227/1 89/208/1 90/210/1
f 98/227/1 97/225/1 88/206/1 89/208/1
f 97/225/1 96/223/1 87/204/1 88/206/1
f 110/255/1 109/252/1 86/202/1 87/204/1
f 86/202/1 109/252/1 108/250/1 85/200/1
f 100/232/1 99/230/1 90/210/1 91/212/1
f 32/77/2 55/127/2 41/95/2
f 82/194/1 83/196/1 106/246/1
f 51/118/2 52/120/2 29/70/2 28/68/2
f 27/66/2 26/64/2 50/115/2 51/118/2
f 25/61/2 49/113/2 50/115/2 26/64/2
f 48/112/2 49/113/2 25/61/2 1/3/2
f 22/53/2 21/50/2 20/48/2 23/56/2
f 105/243/1 104/242/1 80/189/1 81/192/1
f 78/186/1 79/187/1 57/133/1
f 100/232/1 91/212/1 92/214/1
f 108/250/1 107/248/1 84/198/1 85/200/1
f 74/175/1 75/176/1 78/186/1
f 72/169/1 73/171/1 74/175/1
f 19/45/2 17/41/2 2/5/2 23/56/2
f 71/166/1 72/169/1 57/133/1
f 93/216/1 94/218/1 101/234/1
f 3/8/2 2/5/2 16/38/2 13/32/2
f 4/11/2 3/8/2 8/20/2 6/16/2
f 11/28/2 3/8/2 13/32/2 12/29/2
f 61/144/1 62/145/1 63/150/1
f 35/83/2 44/102/2 45/104/2 36/84/2
f 53/122/2 54/124/2 31/74/2 30/72/2
f 42/97/2 43/100/2 34/80/2 33/78/2
f 84/198/1 107/248/1 106/246/1 83/196/1
f 52/120/2 53/122/2 30/72/2 29/70/2
f 110/255/1 87/204/1 96/223/1
f 67/158/3 12/30/3 13/31/3 68/159/3
f 76/179/4 21/51/4 22/54/4 77/182/4
f 66/156/5 11/27/5 12/30/5 67/158/5
f 61/143/6 6/15/6 7/18/7 62/146/7
f 72/170/8 17/42/8 18/44/8 73/172/8
f 86/203/9 31/75/9 32/76/10 87/205/10
f 60/141/11 5/12/11 6/15/6 61/143/6
f 103/239/12 48/111/12 47/109/13 102/238/13
f 81/193/14 26/65/14 27/67/15 82/195/15
f 62/147/16 7/19/16 8/21/16 63/148/16
f 104/241/17 49/114/17 48/111/12 103/239/12
f 108/251/18 53/123/18 52/121/19 107/249/19
f 95/221/20 40/92/20 1/1/21 56/129/21
f 59/137/22 4/9/22 5/13/22 60/142/22
f 58/134/23 3/6/23 4/10/23 59/138/23
f 98/228/24 43/99/24 42/98/25 97/226/25
f 89/209/26 34/81/26 35/82/27 90/211/27
f 56/130/21 1/2/21 2/4/28 57/132/28
f 94/219/29 39/91/29 40/93/20 95/222/20
f 73/172/30 18/44/30 19/46/30 74/173/30
f 91/213/31 90/211/27 35/82/27 36/85/31
f 82/195/15 27/67/15 28/69/32 83/197/32
f 110/256/33 55/128/33 54/125/34 109/253/34
f 65/154/35 10/26/35 11/27/35 66/156/35
f 105/244/36 50/116/36 49/114/17 104/241/17
f 78/184/37 23/57/37 24/60/38 79/188/38
f 85/201/39 84/199/40 29/71/40 30/73/39
f 57/132/28 2/4/28 3/7/41 58/135/41
f 68/159/42 13/31/42 14/33/43 69/162/43
f 99/231/44 100/233/45 45/105/45 44/103/44
f 106/247/46 51/119/46 50/117/47 105/245/47
f 77/183/48 22/55/48 23/58/37 78/185/37
f 107/249/19 52/121/19 51/119/46 106/247/46
f 102/238/13 47/109/13 46/107/49 101/235/49
f 85/201/39 30/73/39 31/75/9 86/203/9
f 93/217/50 38/89/50 39/91/29 94/219/29
f 87/205/10 32/76/10 33/79/51 88/207/51
f 101/236/52 46/108/52 45/105/45 100/233/45
f 109/254/34 54/126/34 53/123/18 108/251/18
f 37/87/53 92/215/53 91/213/31 36/85/31
f 64/152/54 63/149/54 8/22/54 9/24/54
f 74/174/55 19/47/55 20/49/56 75/177/56
f 69/162/43 14/33/43 15/35/57 70/164/57
f 96/224/58 41/96/58 55/128/33 110/256/33
f 14/34/2 13/32/2 16/38/2 15/36/2
f 41/95/2 42/97/2 33/78/2 32/77/2
f 5/14/2 4/11/2 6/16/2
f 34/80/2 43/100/2 44/102/2 35/83/2
f 58/136/1 68/160/1 71/166/1 57/133/1
f 9/23/2 3/8/2 11/28/2 10/25/2
f 74/175/1 78/186/1 57/133/1 72/169/1
f 1/3/2 25/61/2 24/59/2 2/5/2
f 104/242/1 103/240/1 56/131/1 80/189/1
f 61/144/1 63/150/1 58/136/1 59/139/1
f 92/215/53 37/87/53 38/89/50 93/217/50
f 83/197/32 28/69/32 29/71/40 84/199/40
f 99/231/44 44/103/44 43/101/24 98/229/24
f 88/207/51 33/79/51 34/81/26 89/209/26
f 81/193/14 80/190/59 25/62/59 26/65/14
f 71/167/11 16/39/11 17/42/11 72/170/11
f 97/226/25 42/98/25 41/96/58 96/224/58
f 80/191/59 79/188/38 24/60/38 25/63/59
f 64/152/60 9/24/60 10/26/60 65/154/60
f 48/112/2 1/3/2 40/94/2 47/110/2
f 75/177/56 20/49/56 21/52/61 76/180/61
f 70/165/62 15/37/62 16/40/62 71/168/62
