# Blender 3.4.0
# www.blender.org
mtllib lighter_mp_1.mtl
o lighter_mp_1
v 0.010000 0.017038 -0.065880
v 0.010000 0.002962 -0.065880
v 0.010000 0.001000 -0.052000
v 0.010000 0.019000 -0.052000
v -0.018000 0.004957 0.072000
v -0.014044 0.001000 0.072000
v 0.016108 0.001000 0.072000
v 0.020000 0.004891 0.072000
v -0.014044 0.019000 0.072000
v -0.018000 0.015043 0.072000
v 0.020000 0.015109 0.072000
v 0.016108 0.019000 0.072000
v -0.014029 0.001000 -0.052000
v -0.018000 0.004972 -0.052000
v -0.018000 0.015029 -0.052000
v -0.014029 0.019000 -0.052000
v 0.016097 0.001000 -0.044000
v 0.020000 0.004903 -0.044000
v 0.020000 0.015097 -0.044000
v 0.016097 0.019000 -0.044000
v -0.018000 0.004971 -0.044000
v -0.014029 0.001000 -0.044000
v -0.014029 0.019000 -0.044000
v -0.018000 0.015029 -0.044000
v -0.015015 0.000000 -0.052000
v -0.019000 0.003985 -0.052000
v 0.017096 -0.000000 -0.044000
v 0.020999 0.003903 -0.044000
v -0.015016 0.020000 -0.052000
v -0.019000 0.016015 -0.052000
v 0.017108 0.020000 -0.052000
v 0.021000 0.016109 -0.052000
v -0.015015 0.020000 -0.044000
v -0.019000 0.016015 -0.044000
v 0.017097 0.020000 -0.044000
v 0.020999 0.016097 -0.044000
v 0.021000 0.003891 -0.052000
v 0.017108 0.000000 -0.052000
v -0.019000 0.003985 -0.044000
v -0.015015 0.000000 -0.044000
v 0.010000 0.019000 -0.063000
v 0.010000 0.001000 -0.063000
v -0.018000 0.004957 -0.072000
v -0.014044 0.001000 -0.072000
v -0.014044 0.019000 -0.072000
v -0.018000 0.015043 -0.072000
v -0.001426 0.002962 -0.072000
v -0.001426 0.017038 -0.072000
v 0.019998 0.017000 -0.062000
v 0.019998 0.003000 -0.062000
v 0.010000 0.003000 -0.053000
v 0.010000 0.017000 -0.053000
v 0.010000 0.017000 -0.061000
v 0.010000 0.003000 -0.061000
v 0.019998 0.003000 -0.058000
v 0.019998 0.017000 -0.058000
v 0.017992 0.005160 -0.056999
v 0.017992 0.014840 -0.056999
v 0.009998 0.005160 -0.053000
v 0.009998 0.014840 -0.053000
v 0.009998 0.005160 -0.052000
v 0.009998 0.014840 -0.052000
v 0.017992 0.005160 -0.052000
v 0.017992 0.014840 -0.052000
v 0.009241 0.016000 -0.064055
v 0.005001 0.016000 -0.062299
v 0.010997 0.016000 -0.068295
v 0.009241 0.004000 -0.064055
v 0.010997 0.004000 -0.068295
v 0.000753 0.004000 -0.072543
v -0.001000 0.004000 -0.068303
v 0.004992 0.004000 -0.074299
v 0.000753 0.016000 -0.072543
v 0.004992 0.016000 -0.074299
v 0.000760 0.004000 -0.064055
v 0.005001 0.004000 -0.062299
v 0.000760 0.016000 -0.064055
v -0.001000 0.016000 -0.068295
v 0.009241 0.004000 -0.072543
v 0.009241 0.016000 -0.072543
v 0.007036 0.016000 -0.070338
v 0.005001 0.016000 -0.065416
v 0.007880 0.016000 -0.068296
v 0.007036 0.016000 -0.066259
v 0.007880 0.004000 -0.068296
v 0.007036 0.004000 -0.066259
v 0.007036 0.004000 -0.070338
v 0.002117 0.004000 -0.068304
v 0.004993 0.004000 -0.071182
v 0.002959 0.004000 -0.070339
v 0.004993 0.016000 -0.071182
v 0.002960 0.016000 -0.070340
v 0.002117 0.016000 -0.068298
v 0.002963 0.016000 -0.066260
v 0.005001 0.004000 -0.065416
v 0.002964 0.004000 -0.066260
v 0.007036 0.017000 -0.066259
v 0.005001 0.017000 -0.065416
v 0.007880 0.017000 -0.068296
v 0.002960 0.017000 -0.070340
v 0.004993 0.017000 -0.071182
v 0.002963 0.017000 -0.066260
v 0.002117 0.017000 -0.068298
v 0.007036 0.017000 -0.070338
v 0.007036 0.003000 -0.066259
v 0.007880 0.003000 -0.068296
v 0.002959 0.003000 -0.070339
v 0.002117 0.003000 -0.068304
v 0.004993 0.003000 -0.071182
v 0.002964 0.003000 -0.066260
v 0.005001 0.003000 -0.065416
v 0.007036 0.003000 -0.070338
v 0.007000 0.001000 -0.072000
v 0.010000 0.001000 -0.069000
v 0.010000 0.019000 -0.069000
v 0.007000 0.019000 -0.072000
v 0.007000 0.017038 -0.072000
v 0.010000 0.017038 -0.069000
v 0.010000 0.002962 -0.069000
v 0.007000 0.002962 -0.072000
vn -0.0000 -0.0000 1.0000
vn -1.0000 -0.0000 -0.0000
vn -0.0000 -0.0000 -1.0000
vn -0.9239 -0.3826 -0.0000
vn -0.9239 -0.3827 -0.0000
vn -0.9239 0.3827 -0.0000
vn -0.9239 0.3826 -0.0000
vn 0.9239 -0.3827 -0.0000
vn 0.9239 -0.3826 -0.0000
vn 0.9239 0.3827 -0.0000
vn -0.3827 0.9239 -0.0000
vn 0.3827 0.9239 -0.0000
vn 1.0000 -0.0000 -0.0000
vn 0.3824 0.9240 0.0006
vn 0.3830 0.9238 0.0006
vn 0.9238 -0.3830 0.0006
vn 0.9238 0.3830 0.0006
vn 0.9240 0.3824 0.0006
vn 0.9240 -0.3824 0.0006
vn -0.3827 -0.9239 -0.0000
vn 0.3830 -0.9237 0.0006
vn 0.3824 -0.9240 0.0006
vn -0.7071 -0.7071 0.0005
vn -0.7071 0.7071 0.0005
vn 0.3827 -0.9239 -0.0000
vn -0.0000 1.0000 -0.0000
vn -0.0000 -1.0000 -0.0000
vn 0.4722 -0.0000 -0.8815
vn 0.0001 -0.0000 1.0000
vn 0.7071 -0.0000 0.7071
vn 1.0000 -0.0000 0.0003
vn -0.0004 -0.0000 -1.0000
vn 0.7071 -0.0000 -0.7071
vn -1.0000 -0.0000 0.0005
vn -1.0000 -0.0000 0.0008
vn -0.7075 0.0001 -0.7067
vn -0.7070 -0.0001 0.7073
vn -0.0995 -0.0000 -0.9950
vn 0.4473 -0.0000 0.8944
vn -0.7076 -0.0000 -0.7066
vn -1.0000 -0.0000 0.0010
vn -0.7068 -0.0000 0.7074
vn -1.0000 -0.0000 0.0003
vn -0.7074 -0.0000 -0.7068
vn -0.7071 -0.0000 0.7071
vt 0.324198 0.402778
vt 0.324370 0.402282
vt 0.320702 0.348611
vt 0.324562 0.902778
vt 0.263521 0.402778
vt 0.263158 0.902778
vt 0.267018 0.348611
vt 0.263350 0.402282
vt 0.333333 0.486111
vt 0.258958 0.624895
vt 0.122807 0.861111
vt 0.254386 0.486111
vt 0.329419 0.624895
vt 0.122807 0.861111
vt 0.271742 0.263889
vt 0.231822 0.000000
vt 0.000001 0.000000
vt 0.254386 0.236411
vt 0.017355 0.000000
vt 0.254386 0.027021
vt 0.149601 0.000000
vt 0.271454 0.000000
vt 0.232110 0.000000
vt 0.166667 0.000000
vt 0.333333 0.236410
vt 0.017355 0.000000
vt 0.170231 0.000000
vt 0.315978 0.263889
vt 0.187587 0.000000
vt 0.316267 0.000000
vt 0.187297 0.000000
vt 0.333333 0.027023
vt 0.149600 0.000000
vt 0.170231 0.000000
vt 0.250000 0.861111
vt 0.258958 0.773826
vt 0.017418 0.861111
vt 0.232456 0.861111
vt 0.227248 0.861111
vt 0.274504 0.798439
vt 0.184211 0.861111
vt 0.189419 0.861111
vt 0.313873 0.798439
vt 0.166667 0.861111
vt 0.329419 0.773826
vt 0.017418 0.861111
vt 0.269999 0.592195
vt 0.149551 0.805556
vt 0.232060 0.805556
vt 0.166667 0.805556
vt 0.283010 0.571597
vt 0.187347 0.805555
vt 0.316990 0.571597
vt 0.149550 0.805556
vt 0.170231 0.805555
vt 0.330000 0.592196
vt 0.231759 0.805555
vt 0.000001 0.805556
vt 0.283238 0.772156
vt 0.269999 0.751197
vt 0.017418 0.805555
vt 0.017418 0.805556
vt 0.170231 0.805556
vt 0.330000 0.751196
vt 0.187648 0.805555
vt 0.316762 0.772156
vt 0.013093 0.861111
vt 0.255043 0.779938
vt 0.026316 0.861111
vt 0.236086 0.861111
vt 0.270642 0.804635
vt 0.000001 0.861111
vt 0.153933 0.805556
vt 0.266666 0.586920
vt 0.149120 0.805556
vt 0.236446 0.805556
vt 0.279676 0.566321
vt 0.175443 0.805556
vt 0.013091 0.861111
vt 0.026316 0.861111
vt 0.333333 0.779940
vt 0.183322 0.861111
vt 0.000001 0.861111
vt 0.317735 0.804637
vt 0.333333 0.580835
vt 0.153986 0.861111
vt 0.149123 0.861111
vt 0.318101 0.556717
vt 0.182912 0.861111
vt 0.175439 0.861111
vt 0.013094 0.805556
vt 0.333333 0.756400
vt 0.026316 0.805556
vt 0.183322 0.805556
vt 0.320050 0.777431
vt 0.000000 0.805555
vt 0.153935 0.805555
vt 0.149120 0.805556
vt 0.333333 0.586918
vt 0.182963 0.805556
vt 0.175442 0.805555
vt 0.320323 0.566320
vt 0.270276 0.556717
vt 0.236497 0.861111
vt 0.175439 0.861111
vt 0.255043 0.580834
vt 0.153987 0.861111
vt 0.149123 0.861111
vt 0.236086 0.805556
vt 0.279949 0.777431
vt 0.000000 0.805556
vt 0.013090 0.805556
vt 0.266666 0.756401
vt 0.026316 0.805556
vt 0.254386 0.402778
vt 0.122807 0.937500
vt 0.333333 0.423611
vt 0.333333 0.402778
vt 0.122807 0.937500
vt 0.254386 0.423611
vt 0.232456 1.000000
vt 0.227248 1.000000
vt 0.271930 0.527778
vt 0.250000 1.000000
vt 0.017355 1.000000
vt 0.254386 0.500000
vt 0.166667 1.000000
vt 0.017356 1.000000
vt 0.333333 0.500000
vt 0.184211 1.000000
vt 0.189419 1.000000
vt 0.315790 0.527778
vt 0.263158 0.416667
vt 0.263158 1.000000
vt 0.267018 0.412674
vt 0.324562 0.416667
vt 0.320702 0.412674
vt 0.324562 1.000000
vt 0.175926 0.861111
vt 0.268519 0.798623
vt 0.166667 0.916667
vt 0.166667 0.916667
vt 0.240741 0.861111
vt 0.333333 0.798623
vt 0.122807 0.861111
vt 0.324562 0.781112
vt 0.122807 0.861111
vt 0.263158 0.781112
vt 0.268519 0.868056
vt 0.122807 0.916667
vt 0.122807 0.916667
vt 0.333333 0.868056
vt 0.166667 0.888889
vt 0.240741 0.833333
vt 0.324562 0.861111
vt 0.175926 0.833333
vt 0.166667 0.888889
vt 0.263158 0.861111
vt 0.315088 0.844588
vt 0.272632 0.844588
vt 0.315574 0.781311
vt 0.272145 0.781311
vt 0.315088 0.772306
vt 0.315585 0.773038
vt 0.272135 0.773038
vt 0.272632 0.772305
vt 0.315088 0.827003
vt 0.315207 0.827868
vt 0.315088 0.827818
vt 0.272513 0.827868
vt 0.272632 0.827003
vt 0.272632 0.827818
vt 0.324562 0.361111
vt 0.324562 0.402778
vt 0.320152 0.455556
vt 0.324562 0.319444
vt 0.304988 0.431584
vt 0.324562 0.361111
vt 0.320169 0.489485
vt 0.263158 0.361111
vt 0.263158 0.402778
vt 0.304988 0.513565
vt 0.263158 0.361111
vt 0.320140 0.489574
vt 0.263158 0.361111
vt 0.283539 0.431575
vt 0.263158 0.319444
vt 0.263158 0.402778
vt 0.268401 0.455576
vt 0.263158 0.319444
vt 0.263158 0.402778
vt 0.304962 0.431571
vt 0.324562 0.361111
vt 0.268387 0.489583
vt 0.324562 0.319444
vt 0.324562 0.402778
vt 0.283545 0.513551
vt 0.263158 0.361111
vt 0.268401 0.489570
vt 0.263158 0.319444
vt 0.283559 0.513565
vt 0.324562 0.361111
vt 0.283554 0.431607
vt 0.324562 0.319444
vt 0.324562 0.402778
vt 0.268399 0.455608
vt 0.263158 0.361111
vt 0.263158 0.402778
vt 0.320154 0.455588
vt 0.324562 0.361111
vt 0.324562 0.402778
vt 0.305014 0.513551
vt 0.333287 0.632540
vt 0.304215 0.632540
vt 0.304138 0.632540
vt 0.333296 0.632540
vt 0.275045 0.632540
vt 0.304138 0.655159
vt 0.275045 0.655159
vt 0.333296 0.655159
vt 0.333287 0.655159
vt 0.304255 0.655159
vt 0.304104 0.655159
vt 0.333327 0.655159
vt 0.275042 0.655159
vt 0.304104 0.632540
vt 0.333333 0.632540
vt 0.275057 0.632540
vt 0.304168 0.632540
vt 0.275105 0.632540
vt 0.304215 0.655159
vt 0.275048 0.655159
vt 0.333296 0.655159
vt 0.275045 0.655159
vt 0.304215 0.655159
vt 0.304138 0.655159
vt 0.333333 0.655159
vt 0.275057 0.655159
vt 0.304104 0.655159
vt 0.275105 0.655159
vt 0.304168 0.655159
vt 0.333287 0.655159
vt 0.275045 0.632540
vt 0.333296 0.632540
vt 0.304138 0.632540
vt 0.333327 0.632540
vt 0.275042 0.632540
vt 0.304255 0.632540
vt 0.304104 0.632540
vt 0.275048 0.632540
vt 0.304215 0.632540
vt 0.333287 0.632540
vt 0.109649 1.000000
vt 0.254386 0.360954
vt 0.122807 0.979167
vt 0.254386 0.341131
vt 0.254386 0.377679
vt 0.122807 0.979167
vt 0.333333 0.377679
vt 0.333333 0.341131
vt 0.109650 1.000000
vt 0.333333 0.360954
vt 0.320702 0.354167
vt 0.324562 0.360965
vt 0.324370 0.378032
vt 0.320702 0.340822
vt 0.324562 0.341131
vt 0.267018 0.340822
vt 0.263158 0.341131
vt 0.263350 0.378032
vt 0.267018 0.354167
vt 0.263158 0.360965
s 1
usemtl lighters_mp_1
f 5/15/1 6/18/1 7/20/1 8/22/1 11/30/1 12/32/1 9/25/1 10/28/1
f 43/121/2 14/38/2 15/41/2 46/130/2
f 44/126/3 47/133/3 120/272/3 113/254/3
f 21/57/4 5/16/5 10/29/6 24/65/7
f 8/23/8 18/49/9 19/52/10 11/31/10
f 9/26/11 12/33/12 20/54/12 23/62/11
f 15/43/3 14/40/3 26/71/3 30/84/3
f 47/133/3 44/126/3 45/129/3 48/136/3
f 42/118/13 41/115/13 4/12/13 3/9/13
f 117/264/3 48/136/3 45/129/3 116/262/3
f 19/53/1 18/51/1 28/77/1 36/102/1
f 3/10/3 4/13/3 16/45/3 29/81/3 31/85/3 32/88/3 37/103/3 38/106/3 25/68/3 13/36/3
f 23/64/1 20/56/1 35/99/1 33/92/1
f 33/91/11 35/97/14 31/86/15 29/79/11
f 37/104/16 32/89/17 36/100/18 28/76/19
f 25/67/20 38/107/21 27/73/22 40/112/20
f 39/109/5 34/94/6 30/82/6 26/70/5
f 21/59/1 24/66/1 34/95/1 39/110/1
f 17/47/1 22/60/1 40/113/1 27/74/1
f 22/61/20 6/19/20 5/17/5 21/58/4
f 24/65/7 10/29/6 9/27/11 23/63/11
f 23/64/1 33/92/1 34/95/1 24/66/1
f 40/113/1 22/60/1 21/59/1 39/110/1
f 44/124/23 13/35/23 14/39/23 43/122/23
f 46/131/24 15/42/24 16/44/24 45/127/24
f 7/21/25 17/48/25 18/50/9 8/24/8
f 11/31/10 19/52/10 20/55/12 12/34/12
f 13/36/3 25/68/3 26/71/3 14/40/3
f 17/47/1 27/74/1 28/77/1 18/51/1
f 36/101/18 32/90/17 31/87/15 35/98/14
f 19/53/1 36/102/1 35/99/1 20/56/1
f 30/83/6 34/96/6 33/93/11 29/80/11
f 27/75/22 38/108/21 37/105/16 28/78/19
f 29/81/3 16/45/3 15/43/3 30/84/3
f 25/69/20 40/114/20 39/111/5 26/72/5
f 22/61/20 17/48/25 7/21/25 6/19/20
f 2/5/13 1/1/13 41/117/13 42/120/13
f 41/116/26 115/258/26 116/261/26 45/128/26 16/46/26 4/14/26
f 13/37/27 44/125/27 113/253/27 114/255/27 42/119/27 3/11/27
f 1/2/13 118/265/13 115/259/13 41/117/13
f 45/129/3 44/126/3 43/123/3 46/132/3
f 117/263/27 118/266/27 1/3/27 48/137/27
f 1/4/28 2/6/28 47/134/28 48/138/28
f 119/268/26 120/271/26 47/135/26 2/7/26
f 66/176/29 76/200/29 68/180/30 65/173/30
f 65/174/30 68/181/30 69/183/31 67/178/31
f 72/190/32 74/195/32 80/210/33 79/207/33
f 79/208/33 80/211/33 67/178/31 69/183/31
f 71/187/34 78/204/35 73/193/36 70/185/36
f 70/185/36 73/193/36 74/196/32 72/191/32
f 76/200/29 66/176/29 77/202/37 75/198/37
f 75/198/37 77/202/37 78/205/35 71/188/34
f 51/145/27 54/151/27 50/142/27 55/153/27
f 55/154/13 50/143/13 49/139/13 56/156/13
f 53/149/38 49/140/38 50/144/38 54/152/38
f 52/147/26 56/157/26 49/141/26 53/150/26
f 52/148/39 51/146/39 55/155/39 56/158/39
f 58/160/26 60/162/26 62/165/26 64/170/26
f 63/167/1 64/171/1 62/166/1 61/163/1
f 59/161/27 57/159/27 63/168/27 61/164/27
f 57/159/13 58/160/13 64/172/13 63/169/13
f 76/201/27 75/199/27 71/189/27 70/186/27 72/192/27 79/209/27 69/184/27 68/182/27
f 80/212/26 74/197/26 73/194/26 78/206/26 77/203/26 66/177/26 65/175/26 67/179/26
f 85/218/31 86/219/30 105/243/30 106/245/31
f 92/227/40 93/229/41 103/241/41 100/237/40
f 82/214/29 84/216/30 97/233/30 98/235/29
f 93/229/41 94/230/42 102/240/42 103/241/41
f 91/226/32 92/228/40 100/238/40 101/239/32
f 94/230/42 82/214/29 98/235/29 102/240/42
f 83/215/31 81/213/33 104/242/33 99/236/31
f 84/217/30 83/215/31 99/236/31 97/234/30
f 81/213/33 91/226/32 101/239/32 104/242/33
f 87/221/33 85/218/31 106/245/31 112/252/33
f 89/223/32 87/221/33 112/252/33 109/249/32
f 88/222/43 90/224/44 107/246/44 108/248/43
f 86/220/30 95/231/29 111/251/29 105/244/30
f 95/231/29 96/232/45 110/250/45 111/251/29
f 96/232/45 88/222/43 108/248/43 110/250/45
f 90/225/44 89/223/32 109/249/32 107/247/44
f 117/264/33 116/262/33 115/260/33 118/267/33
f 113/254/33 120/272/33 119/269/33 114/256/33
f 119/270/13 2/8/13 42/120/13 114/257/13
