# Blender 3.4.0
# www.blender.org
mtllib meat_1.mtl
o meat_1
v -0.149832 0.045000 0.130500
v -0.171000 0.045000 0.109331
v -0.148128 0.051694 0.107628
v -0.171000 0.045000 -0.110231
v -0.149832 0.045000 -0.131400
v 0.171000 0.045000 0.109331
v 0.149831 0.045000 0.130500
v 0.148128 0.051694 0.107628
v 0.149831 0.045000 -0.131400
v 0.171000 0.045000 -0.110231
v 0.148128 0.051694 -0.108528
v -0.134848 0.036000 0.117405
v -0.153900 0.036000 0.098353
v -0.144374 0.036000 0.114853
v -0.151348 0.036000 0.107879
v -0.153900 0.036000 -0.099253
v -0.134848 0.036000 -0.118305
v -0.151348 0.036000 -0.108779
v -0.144374 0.036000 -0.115753
v 0.153900 0.036000 0.098353
v 0.134848 0.036000 0.117405
v 0.151347 0.036000 0.107879
v 0.144374 0.036000 0.114853
v 0.134848 0.036000 -0.118305
v 0.153900 0.036000 -0.099253
v 0.144374 0.036000 -0.115753
v 0.151347 0.036000 -0.108779
v -0.106694 -0.000000 0.084834
v -0.112913 0.006720 0.098234
v -0.109006 0.001968 0.092487
v -0.128814 0.006659 0.082248
v -0.114120 -0.000000 0.077408
v -0.122152 0.001950 0.079316
v -0.120860 0.006684 0.096073
v -0.110841 -0.000000 0.083723
v -0.115705 0.001958 0.090683
v -0.126679 0.006661 0.090222
v -0.113009 -0.000000 0.081555
v -0.120355 0.001951 0.086023
v -0.114120 -0.000000 -0.078308
v -0.128814 0.006659 -0.083148
v -0.122152 0.001950 -0.080216
v -0.112913 0.006720 -0.099134
v -0.106694 -0.000000 -0.085734
v -0.109006 0.001968 -0.093387
v -0.113009 -0.000000 -0.082455
v -0.126679 0.006661 -0.091122
v -0.120355 0.001951 -0.086923
v -0.110841 -0.000000 -0.084623
v -0.120860 0.006684 -0.096973
v -0.115705 0.001958 -0.091583
v 0.114120 -0.000000 0.077408
v 0.128813 0.006659 0.082248
v 0.122151 0.001950 0.079316
v 0.112912 0.006720 0.098234
v 0.106693 -0.000000 0.084834
v 0.109006 0.001968 0.092487
v 0.113009 -0.000000 0.081555
v 0.126678 0.006661 0.090222
v 0.120355 0.001951 0.086023
v 0.110840 -0.000000 0.083723
v 0.120860 0.006684 0.096073
v 0.115705 0.001958 0.090683
v 0.106693 -0.000000 -0.085734
v 0.112912 0.006720 -0.099134
v 0.109006 0.001968 -0.093387
v 0.128813 0.006659 -0.083148
v 0.114120 -0.000000 -0.078308
v 0.122151 0.001950 -0.080216
v 0.110840 -0.000000 -0.084623
v 0.120860 0.006684 -0.096973
v 0.115705 0.001958 -0.091583
v 0.113009 -0.000000 -0.082455
v 0.126678 0.006661 -0.091122
v 0.120355 0.001951 -0.086923
v -0.149832 0.054000 0.130500
v -0.171000 0.054000 0.109331
v -0.149832 0.054000 -0.131400
v -0.171000 0.054000 -0.110231
v 0.171000 0.054000 -0.110231
v 0.149831 0.054000 -0.131400
v 0.149831 0.054000 0.130500
v 0.171000 0.054000 0.109331
v -0.150949 0.054000 0.110448
v -0.152133 0.054000 0.106847
v -0.150949 0.054000 -0.111348
v -0.147348 0.054000 -0.112532
v 0.150948 0.054000 -0.111348
v 0.152132 0.054000 -0.107747
v 0.150948 0.054000 0.110448
v 0.147347 0.054000 0.111632
v -0.147348 0.054000 0.111632
v 0.152132 0.054000 0.106847
v 0.147347 0.054000 -0.112532
v -0.114120 -0.000000 -0.000450
v 0.114120 -0.000000 -0.000450
v 0.114120 -0.000000 -0.076344
v -0.148128 0.051694 -0.108528
v -0.152133 0.054000 -0.107747
v -0.148128 0.051694 0.107628
v -0.148128 0.051694 -0.108528
v 0.148128 0.051694 -0.108528
v 0.125339 0.051694 -0.108528
v 0.079761 0.051694 -0.108528
v 0.034183 0.051694 -0.108528
v -0.011396 0.051694 -0.108535
v -0.056978 0.051694 -0.108580
v -0.102551 0.051694 -0.108531
v 0.102561 0.051694 0.107643
v 0.056973 0.051694 0.107630
v 0.011415 0.051694 0.107705
v -0.034181 0.051694 0.107656
v -0.079780 0.051694 0.107684
v -0.125340 0.051694 0.107628
v -0.148128 0.051694 0.091001
v -0.148128 0.051694 0.057746
v -0.148128 0.051694 0.024491
v -0.148130 0.051694 -0.008764
v -0.148139 0.051694 -0.042022
v -0.148131 0.051694 -0.075274
v 0.148138 0.051694 0.074373
v 0.148199 0.051694 0.041122
v 0.148169 0.051694 0.007865
v 0.148128 0.051694 -0.025391
v 0.148128 0.051694 -0.058646
v 0.148128 0.051694 -0.091901
v 0.125509 0.053641 -0.075384
v 0.125381 0.052994 -0.042020
v 0.125591 0.055018 -0.008814
v 0.126265 0.057670 0.024522
v 0.125854 0.055749 0.057861
v 0.148128 0.051694 0.107628
v 0.080054 0.063518 -0.076367
v 0.080592 0.066194 -0.042331
v 0.080945 0.068380 -0.008827
v 0.080674 0.068553 0.024742
v 0.080461 0.069292 0.059223
v 0.079850 0.057552 0.091556
v 0.034358 0.061042 -0.076632
v 0.034459 0.069111 -0.042690
v 0.034493 0.074361 -0.008973
v 0.034617 0.072608 0.024833
v 0.034899 0.071130 0.059555
v 0.034453 0.057309 0.091758
v -0.011401 0.061510 -0.076539
v -0.011362 0.070582 -0.042702
v -0.010867 0.075161 -0.008948
v -0.011233 0.073278 0.024824
v -0.011369 0.069995 0.059438
v -0.011403 0.059278 0.092054
v -0.057117 0.062013 -0.076683
v -0.057045 0.069087 -0.042650
v -0.057599 0.072273 -0.008794
v -0.058040 0.072905 0.024970
v -0.057292 0.070201 0.059064
v -0.056970 0.060213 0.091713
v -0.103131 0.057942 -0.075848
v -0.103775 0.064328 -0.042446
v -0.104153 0.065275 -0.008586
v -0.104493 0.062566 0.024940
v -0.103892 0.062859 0.057897
v -0.102707 0.054448 0.091158
v -0.164290 0.045000 0.123790
v -0.164290 0.054000 0.123790
v -0.164290 0.054000 -0.124690
v -0.164290 0.045000 -0.124690
v 0.164290 0.054000 -0.124690
v 0.164290 0.045000 -0.124690
v 0.164290 0.054000 0.123790
v 0.164290 0.045000 0.123790
vn 0.2156 -0.0000 0.9765
vn -0.2156 -0.0000 0.9765
vn 0.9765 -0.0000 -0.2156
vn 0.9765 -0.0000 0.2156
vn -0.9765 -0.0000 0.2156
vn -0.9765 -0.0000 -0.2156
vn -0.2156 -0.0000 -0.9765
vn 0.2156 -0.0000 -0.9765
vn -0.7071 -0.0000 0.7071
vn 0.7071 -0.0000 -0.7071
vn -0.7071 -0.0000 -0.7071
vn -0.1219 -0.8668 -0.4834
vn -0.0921 -0.7466 -0.6589
vn -0.2895 -0.8208 -0.4925
vn -0.3019 -0.9088 -0.2881
vn 0.7071 -0.0000 0.7071
vn 0.3019 -0.9088 -0.2881
vn 0.4278 -0.8988 -0.0960
vn 0.5834 -0.8076 -0.0857
vn 0.4675 -0.8399 -0.2756
vn -0.1219 -0.8668 0.4834
vn -0.3019 -0.9088 0.2881
vn -0.2895 -0.8208 0.4925
vn -0.0921 -0.7466 0.6589
vn 0.5834 -0.8076 0.0857
vn 0.6544 -0.7519 0.0798
vn 0.6544 -0.7519 -0.0798
vn 0.3019 -0.9088 0.2881
vn 0.4675 -0.8399 0.2756
vn 0.4278 -0.8988 0.0960
vn -0.4278 -0.8988 -0.0960
vn -0.4675 -0.8399 -0.2756
vn -0.5834 -0.8076 -0.0857
vn 0.1219 -0.8668 0.4834
vn 0.0921 -0.7466 0.6589
vn 0.2895 -0.8208 0.4925
vn 0.2895 -0.8208 -0.4925
vn 0.0921 -0.7466 -0.6589
vn 0.1219 -0.8668 -0.4834
vn -0.4278 -0.8988 0.0960
vn -0.5834 -0.8076 0.0857
vn -0.0000 1.0000 -0.0000
vn -0.4675 -0.8399 0.2756
vn -0.0835 -0.6924 0.7166
vn 0.0835 -0.6924 0.7166
vn 0.5448 -0.7791 0.3102
vn -0.5448 -0.7791 0.3102
vn -0.3133 -0.7571 0.5732
vn -0.0835 -0.6924 -0.7166
vn -0.3133 -0.7571 -0.5732
vn -0.5448 -0.7791 -0.3102
vn 0.5448 -0.7791 -0.3102
vn 0.3133 -0.7571 -0.5732
vn 0.3133 -0.7571 0.5732
vn 0.1188 -0.9929 -0.0000
vn 0.1251 -0.9920 0.0153
vn 0.0151 -0.9912 0.1313
vn -0.6544 -0.7519 0.0798
vn -0.6544 -0.7519 -0.0798
vn 0.0835 -0.6924 -0.7166
vn -0.0637 -0.9912 0.1160
vn -0.0151 -0.9912 0.1313
vn -0.0482 -0.8923 0.4489
vn -0.1978 -0.9082 0.3688
vn -0.1125 -0.9916 0.0644
vn -0.3506 -0.9151 0.1992
vn -0.1251 -0.9920 0.0153
vn -0.4124 -0.9097 0.0483
vn -0.0151 -0.9912 -0.1313
vn -0.0637 -0.9912 -0.1160
vn -0.1978 -0.9082 -0.3688
vn -0.0482 -0.8923 -0.4489
vn -0.1125 -0.9916 -0.0644
vn -0.3506 -0.9151 -0.1992
vn -0.1251 -0.9920 -0.0153
vn -0.4124 -0.9097 -0.0483
vn 0.1251 -0.9920 -0.0153
vn 0.1125 -0.9916 -0.0644
vn 0.3506 -0.9151 -0.1992
vn 0.4124 -0.9097 -0.0483
vn 0.0637 -0.9912 -0.1160
vn 0.1978 -0.9082 -0.3688
vn 0.0151 -0.9912 -0.1313
vn 0.0482 -0.8923 -0.4489
vn 0.0637 -0.9912 0.1160
vn 0.1978 -0.9082 0.3688
vn 0.0482 -0.8923 0.4489
vn 0.1125 -0.9916 0.0644
vn 0.3506 -0.9151 0.1992
vn 0.4124 -0.9097 0.0483
vn -0.1188 -0.9929 -0.0000
vn 0.1698 0.8392 0.5165
vn 0.0638 0.8593 0.5074
vn 0.0672 0.8588 0.5078
vn -0.5165 0.8392 0.1698
vn -0.5074 0.8593 0.0638
vn -0.5078 0.8588 0.0672
vn 0.5165 0.8392 -0.1698
vn 0.5074 0.8593 -0.0638
vn 0.5078 0.8588 -0.0672
vn -0.0638 0.8593 -0.5074
vn 0.0638 0.8593 -0.5074
vn 0.0672 0.8588 -0.5078
vn -0.0672 0.8588 -0.5078
vn -0.5074 0.8593 -0.0638
vn -0.5078 0.8588 -0.0672
vn -0.0638 0.8593 0.5074
vn -0.0672 0.8588 0.5078
vn -0.1698 0.8392 0.5166
vn -0.5165 0.8392 -0.1698
vn 0.1698 0.8392 -0.5165
vn 0.5074 0.8593 0.0638
vn 0.5165 0.8392 0.1698
vn 0.5078 0.8588 0.0672
vn -0.1698 0.8392 -0.5166
vn 0.0221 0.9789 0.2030
vn 0.0458 0.9982 0.0392
vn -0.0066 0.9984 0.0567
vn 0.0029 0.9787 0.2051
vn -0.1028 0.9938 0.0431
vn -0.0799 0.9812 0.1759
vn -0.2213 0.9749 0.0256
vn -0.1820 0.9773 0.1082
vn -0.0889 0.9928 0.0804
vn -0.0363 0.9959 0.0831
vn -0.0922 0.9772 0.1911
vn 0.1600 0.9830 -0.0904
vn 0.0847 0.9804 -0.1780
vn 0.0013 0.9678 -0.2516
vn 0.0367 0.9857 -0.1643
vn 0.1712 0.9848 -0.0297
vn 0.0714 0.9974 0.0079
vn 0.1245 0.9901 -0.0650
vn 0.0672 0.9903 -0.1214
vn 0.0430 0.9988 -0.0236
vn 0.2464 0.9691 -0.0093
vn 0.2047 0.9783 -0.0331
vn 0.2116 0.9762 -0.0478
vn 0.1878 0.9810 -0.0481
vn 0.1735 0.9848 0.0029
vn 0.1945 0.9792 0.0584
vn 0.1569 0.9700 0.1858
vn 0.0581 0.9490 0.3100
vn 0.0110 0.9356 0.3530
vn -0.0034 0.9830 -0.1838
vn 0.0051 0.9639 -0.2662
vn -0.0364 0.9690 -0.2444
vn -0.0694 0.9860 -0.1513
vn 0.2212 0.9749 0.0238
vn 0.0917 0.9925 0.0813
vn 0.1790 0.9839 0.0001
vn 0.0611 0.9971 -0.0444
vn -0.0101 0.9989 -0.0468
vn 0.0001 0.9397 0.3421
vn 0.0104 0.9249 0.3800
vn -0.0977 0.9947 -0.0325
vn -0.0020 0.9412 0.3378
vn -0.1046 0.9817 -0.1591
vn -0.1784 0.9796 -0.0925
vn -0.0441 0.9307 0.3631
vn -0.2158 0.9764 -0.0028
vn 0.0249 0.9223 0.3858
vn 0.0086 0.8907 0.4544
vn -0.0724 0.9423 0.3268
vn 0.1016 0.9945 -0.0246
vn 0.0412 0.9645 -0.2610
vn -0.0101 0.9537 -0.3005
vn 0.0053 0.9558 -0.2939
vn -0.0197 0.9613 -0.2749
vn -0.0573 0.9832 -0.1731
vn -0.0691 0.9931 -0.0947
vn -0.1389 0.9857 -0.0952
vn -0.1986 0.9781 0.0623
vn -0.2562 0.9664 0.0179
vn -0.2768 0.9609 0.0112
vn -0.2463 0.9676 -0.0551
vt 0.070462 0.189503
vt 0.061896 0.130602
vt 0.180318 0.130602
vt 0.134403 0.196682
vt 0.098020 0.316575
vt 0.093703 0.317933
vt 0.092163 0.322433
vt 0.822314 0.130602
vt 0.865597 0.196682
vt 0.070462 0.189503
vt 0.061896 0.130602
vt 0.180318 0.130602
vt 0.134403 0.196682
vt 0.938102 0.130602
vt 0.929538 0.189503
vt 0.908188 0.322783
vt 0.906830 0.318466
vt 0.902331 0.316925
vt 0.938102 0.130602
vt 0.929538 0.189503
vt 0.822314 0.130602
vt 0.865597 0.196682
vt 0.907838 0.907724
vt 0.901981 0.913582
vt 0.906298 0.912224
vt 0.113417 0.163702
vt 0.170963 0.166710
vt 0.086107 0.163702
vt 0.139239 0.166710
vt 0.066115 0.163702
vt 0.829037 0.166710
vt 0.113417 0.163702
vt 0.860761 0.166710
vt 0.066115 0.163702
vt 0.086107 0.163702
vt 0.170963 0.166710
vt 0.886585 0.163702
vt 0.139239 0.166710
vt 0.933885 0.163702
vt 0.913895 0.163702
vt 0.886585 0.163702
vt 0.829037 0.166710
vt 0.913895 0.163702
vt 0.860761 0.166710
vt 0.933885 0.163702
vt 0.194129 0.060497
vt 0.198795 0.003176
vt 0.176300 0.079761
vt 0.187503 0.066139
vt 0.224597 0.068999
vt 0.177830 0.024141
vt 0.267575 0.057832
vt 0.234361 0.053318
vt 0.261878 0.063654
vt 0.153519 0.079657
vt 0.182242 0.060497
vt 0.187089 0.006313
vt 0.168296 0.066109
vt 0.136839 0.079591
vt 0.198042 0.069003
vt 0.176026 0.060497
vt 0.255196 0.057832
vt 0.180967 0.012434
vt 0.154965 0.066089
vt 0.241857 0.063656
vt 0.212026 0.053319
vt 0.822167 0.025761
vt 0.732425 0.057832
vt 0.775403 0.068999
vt 0.765640 0.053318
vt 0.738122 0.063654
vt 0.176300 0.079761
vt 0.194129 0.060497
vt 0.801202 0.004796
vt 0.187503 0.066139
vt 0.176026 0.060497
vt 0.744804 0.057832
vt 0.819030 0.014054
vt 0.136839 0.079591
vt 0.801958 0.069003
vt 0.154965 0.066089
vt 0.758144 0.063656
vt 0.787975 0.053319
vt 0.182242 0.060497
vt 0.812909 0.007933
vt 0.153519 0.079657
vt 0.168296 0.066109
vt 0.267575 0.057832
vt 0.822167 0.024142
vt 0.224597 0.068999
vt 0.253126 0.077712
vt 0.261878 0.063654
vt 0.823700 0.079761
vt 0.805871 0.060497
vt 0.801202 0.003176
vt 0.812501 0.066139
vt 0.823976 0.060497
vt 0.255196 0.057832
vt 0.819030 0.012434
vt 0.198042 0.069003
vt 0.863165 0.079591
vt 0.229322 0.077715
vt 0.845036 0.066089
vt 0.241857 0.063656
vt 0.817758 0.060497
vt 0.812909 0.006313
vt 0.846485 0.079657
vt 0.831704 0.066109
vt 0.805871 0.060497
vt 0.198795 0.004796
vt 0.823700 0.079761
vt 0.812501 0.066139
vt 0.775403 0.068999
vt 0.746874 0.077712
vt 0.732425 0.057832
vt 0.177830 0.025761
vt 0.738122 0.063654
vt 0.817758 0.060497
vt 0.187089 0.007933
vt 0.846485 0.079657
vt 0.831704 0.066109
vt 0.744804 0.057832
vt 0.823976 0.060497
vt 0.180967 0.014054
vt 0.801958 0.069003
vt 0.770678 0.077715
vt 0.863165 0.079591
vt 0.758143 0.063656
vt 0.845036 0.066089
vt 0.089662 0.256449
vt 0.061896 0.156918
vt 0.180318 0.156918
vt 0.031686 0.314423
vt 0.089662 0.973709
vt 0.061896 0.156918
vt 0.822314 0.156918
vt 0.031686 0.915735
vt 0.822314 0.156918
vt 0.968314 0.915735
vt 0.938102 0.156918
vt 0.910342 0.973709
vt 0.938102 0.156918
vt 0.910342 0.256449
vt 0.180318 0.156918
vt 0.968314 0.314423
vt 0.085782 0.312183
vt 0.087421 0.310544
vt 0.083359 0.321226
vt 0.085782 0.917974
vt 0.087421 0.919613
vt 0.096464 0.922036
vt 0.914219 0.917974
vt 0.912580 0.919613
vt 0.916642 0.908932
vt 0.912580 0.310544
vt 0.914219 0.312183
vt 0.903538 0.308121
vt 0.096464 0.308121
vt 0.916642 0.321226
vt 0.903538 0.922036
vt 0.177830 0.243939
vt 0.822167 0.245559
vt 0.500000 0.057832
vt 0.500000 0.057832
vt 0.822167 0.243939
vt 0.177830 0.245559
vt 0.726563 0.057832
vt 0.177830 0.031305
vt 0.097671 0.913232
vt 0.093171 0.911692
vt 0.091813 0.907375
vt 0.083359 0.908932
vt 0.098020 0.316575
vt 0.091813 0.907375
vt 0.901981 0.913582
vt 0.839660 0.913105
vt 0.715019 0.912150
vt 0.590378 0.911195
vt 0.465737 0.910240
vt 0.341095 0.909285
vt 0.216454 0.908330
vt 0.783547 0.321828
vt 0.658906 0.320873
vt 0.534265 0.319918
vt 0.409623 0.318963
vt 0.284982 0.318008
vt 0.160341 0.317053
vt 0.097543 0.362021
vt 0.096588 0.452913
vt 0.095633 0.543806
vt 0.094678 0.634698
vt 0.093723 0.725590
vt 0.092768 0.816482
vt 0.907233 0.413675
vt 0.906278 0.504567
vt 0.905323 0.595459
vt 0.904368 0.686352
vt 0.903413 0.777244
vt 0.902458 0.868136
vt 0.840615 0.822212
vt 0.841570 0.731320
vt 0.842525 0.640428
vt 0.843480 0.549536
vt 0.844435 0.458643
vt 0.908500 0.323334
vt 0.906865 0.324125
vt 0.905016 0.325260
vt 0.715974 0.821257
vt 0.716929 0.730365
vt 0.717884 0.639473
vt 0.718839 0.548581
vt 0.719794 0.457688
vt 0.720749 0.366796
vt 0.591333 0.820302
vt 0.592288 0.729410
vt 0.593243 0.638518
vt 0.594198 0.547626
vt 0.595153 0.456733
vt 0.596108 0.365841
vt 0.466692 0.819348
vt 0.467647 0.728455
vt 0.468602 0.637563
vt 0.469557 0.546671
vt 0.470512 0.455778
vt 0.471467 0.364886
vt 0.342050 0.818393
vt 0.343005 0.727500
vt 0.343960 0.636608
vt 0.344915 0.545716
vt 0.345870 0.454823
vt 0.346825 0.363931
vt 0.217409 0.817437
vt 0.218364 0.726545
vt 0.219319 0.635653
vt 0.220274 0.544761
vt 0.221229 0.453868
vt 0.222184 0.362976
vt 0.029013 0.189503
vt 0.019620 0.130602
vt 0.050063 0.274825
vt 0.019620 0.156918
vt 0.050063 0.955332
vt 0.864590 0.156918
vt 0.029013 0.189503
vt 0.864590 0.130602
vt 0.864590 0.156918
vt 0.949937 0.955332
vt 0.864590 0.130602
vt 0.970989 0.189503
vt 0.980379 0.156918
vt 0.949937 0.274825
vt 0.980379 0.130602
vt 0.970989 0.189503
s 1
usemtl meat_1
f 7/14/1 82/142/1 76/131/2 1/2/2
f 10/21/3 80/138/3 83/144/4 6/12/4
f 2/3/5 77/132/5 79/136/6 4/8/6
f 5/11/7 78/135/7 81/140/8 9/19/8
f 164/241/9 77/132/5 2/3/5 163/239/9
f 10/21/3 168/248/10 167/246/10 80/138/3
f 166/245/11 4/8/6 79/136/6 165/243/11
f 5/10/12 17/32/13 19/35/14 166/244/15
f 168/248/10 9/19/8 81/140/8 167/246/10
f 7/14/1 170/252/16 169/250/16 82/142/1
f 170/252/16 6/12/4 83/144/4 169/250/16
f 168/249/17 10/22/18 25/42/19 27/45/20
f 1/1/21 163/238/22 14/28/23 12/26/24
f 25/42/19 20/36/25 53/90/26 67/113/27
f 170/253/28 22/38/29 20/36/25 6/13/30
f 4/9/31 166/244/15 18/33/32 16/31/33
f 170/253/28 7/15/34 21/37/35 23/40/36
f 168/249/17 26/43/37 24/41/38 9/20/39
f 2/4/40 4/9/31 16/31/33 13/27/41
f 5/10/12 9/20/39 24/41/38 17/32/13
f 94/160/42 88/152/42 167/247/42 81/141/42
f 10/22/18 6/13/30 20/36/25 25/42/19
f 2/4/40 13/27/41 15/30/43 163/238/22
f 7/15/34 1/1/21 12/26/24 21/37/35
f 21/37/35 12/26/24 29/48/44 55/93/45
f 20/36/25 22/38/29 59/100/46 53/90/26
f 14/28/23 15/30/43 37/59/47 34/55/48
f 19/35/14 17/32/13 43/72/49 50/86/50
f 18/34/32 19/35/14 50/86/50 47/79/51
f 26/43/37 27/45/20 74/127/52 71/120/53
f 23/40/36 21/37/35 55/93/45 62/107/54
f 96/165/55 52/89/56 56/95/57
f 15/29/43 13/27/41 31/50/58 37/60/47
f 27/44/20 25/42/19 67/113/27 74/125/52
f 16/31/33 18/33/32 47/80/51 41/69/59
f 22/39/29 23/40/36 62/107/54 59/101/46
f 13/27/41 16/31/33 41/69/59 31/50/58
f 24/41/38 26/43/37 71/120/53 65/111/60
f 17/32/13 24/41/38 65/111/60 43/72/49
f 35/56/61 28/46/62 30/49/63 36/58/64
f 36/58/64 30/49/63 29/48/44 34/55/48
f 38/61/65 35/56/61 36/58/64 39/64/66
f 39/64/66 36/58/64 34/55/48 37/59/47
f 32/52/67 38/62/65 39/65/66 33/54/68
f 33/53/68 39/66/66 37/60/47 31/50/58
f 44/73/69 49/84/70 51/87/71 45/75/72
f 45/75/72 51/87/71 50/86/50 43/72/49
f 49/84/70 46/76/73 48/81/74 51/87/71
f 51/87/71 48/81/74 47/79/51 50/86/50
f 46/77/73 40/68/75 42/71/76 48/82/74
f 48/83/74 42/70/76 41/69/59 47/80/51
f 68/115/77 73/122/78 75/128/79 69/117/80
f 69/117/80 75/128/79 74/126/52 67/114/27
f 73/123/78 70/118/81 72/121/82 75/129/79
f 75/129/79 72/121/82 71/120/53 74/127/52
f 70/118/81 64/109/83 66/112/84 72/121/82
f 72/121/82 66/112/84 65/111/60 71/120/53
f 56/94/57 61/105/85 63/108/86 57/96/87
f 57/96/87 63/108/86 62/107/54 55/93/45
f 61/105/85 58/97/88 60/103/89 63/108/86
f 63/108/86 60/103/89 59/101/46 62/107/54
f 58/98/88 52/88/56 54/92/90 60/104/89
f 60/104/89 54/92/90 53/91/26 59/102/46
f 31/50/58 41/69/59 42/70/76 33/53/68
f 33/54/68 42/71/76 95/163/91
f 43/72/49 65/111/60 66/112/84 45/75/72
f 45/75/72 66/112/84 64/109/83 44/73/69
f 67/114/27 53/91/26 54/92/90 69/117/80
f 54/92/90 52/88/56 96/164/55
f 55/93/45 29/48/44 30/49/63 57/96/87
f 57/96/87 30/49/63 28/46/62 56/94/57
f 12/26/24 14/28/23 34/55/48 29/48/44
f 164/240/42 84/146/42 85/148/42 77/133/42
f 80/139/42 167/247/42 88/152/42 89/154/42
f 99/172/42 86/150/42 165/242/42 79/137/42
f 82/143/42 169/251/42 90/155/42 91/157/42
f 93/159/42 90/155/42 169/251/42 83/145/42
f 84/146/42 164/240/42 76/130/42 92/158/42
f 85/148/42 99/172/42 79/137/42 77/133/42
f 91/157/42 92/158/42 76/130/42 82/143/42
f 89/154/42 93/159/42 83/145/42 80/139/42
f 87/151/42 94/160/42 81/141/42 78/134/42
f 86/149/92 98/169/93 87/151/94
f 88/153/95 11/23/96 89/154/97
f 84/147/98 3/7/99 85/148/100
f 8/18/101 3/5/102 92/158/103 91/157/104
f 11/23/96 8/16/105 93/159/106 89/154/97
f 98/169/93 11/24/107 94/160/108 87/151/94
f 11/25/107 88/153/109 94/160/108
f 8/17/105 90/156/110 93/159/106
f 3/6/102 84/147/111 92/158/103
f 98/170/112 86/149/113 99/172/114
f 90/156/115 8/18/101 91/157/104
f 96/166/55 64/110/83 97/168/55
f 95/161/91 28/47/62 32/51/67
f 40/67/75 44/74/69 95/162/91
f 69/117/80 54/92/90 96/164/55
f 96/164/55 97/167/55 68/115/77 69/117/80
f 56/95/57 52/89/56 58/99/88 61/106/85
f 97/168/55 64/110/83 70/119/81 73/124/78 68/116/77
f 32/51/67 28/47/62 35/57/61 38/63/65
f 44/74/69 40/67/75 46/78/73 49/85/70
f 28/47/62 95/161/91 96/165/55 56/95/57
f 95/162/91 44/74/69 64/110/83 96/166/55
f 95/163/91 42/71/76 40/68/75
f 95/163/91 32/52/67 33/54/68
f 3/7/99 98/171/112 99/172/114 85/148/100
f 143/218/116 142/217/117 148/223/118 149/224/119
f 149/224/119 148/223/118 154/229/120 155/230/121
f 155/230/121 154/229/120 160/235/122 161/236/123
f 115/188/124 114/187/125 162/237/126
f 134/209/127 133/208/128 139/214/129 140/215/130
f 128/201/131 125/198/132 127/200/133
f 102/175/42 103/176/134 126/199/135
f 130/203/136 123/196/137 129/202/138
f 128/201/131 127/200/133 133/208/128 134/209/127
f 129/202/138 128/201/131 134/209/127 135/210/139
f 130/203/136 129/202/138 135/210/139 136/211/140
f 131/204/141 130/203/136 136/211/140 137/212/142
f 137/212/142 136/211/140 142/217/117 143/218/116
f 138/213/143 137/212/142 143/218/116 144/219/144
f 146/221/145 145/220/146 151/226/147 152/227/148
f 131/204/141 122/195/149 130/203/136
f 132/205/150 121/194/151 131/204/141
f 141/216/152 140/215/130 146/221/145 147/222/153
f 138/213/143 109/182/154 132/206/150
f 142/217/117 141/216/152 147/222/153 148/223/118
f 144/219/144 143/218/116 149/224/119 150/225/155
f 147/222/153 146/221/145 152/227/148 153/228/156
f 144/219/144 110/183/157 138/213/143
f 152/227/148 151/226/147 157/232/158 158/233/159
f 148/223/118 147/222/153 153/228/156 154/229/120
f 150/225/155 149/224/119 155/230/121 156/231/160
f 153/228/156 152/227/148 158/233/159 159/234/161
f 150/225/155 111/184/162 144/219/144
f 154/229/120 153/228/156 159/234/161 160/235/122
f 156/231/160 155/230/121 161/236/123 162/237/126
f 156/231/160 112/185/163 150/225/155
f 162/237/126 113/186/164 156/231/160
f 131/204/141 137/212/142 138/213/143
f 129/202/138 124/197/165 128/201/131
f 140/215/130 139/214/129 145/220/146 146/221/145
f 115/188/124 100/173/42 114/187/125
f 135/210/139 134/209/127 140/215/130 141/216/152
f 133/208/128 127/200/133 103/176/134 104/177/166
f 139/214/129 133/208/128 104/177/166 105/178/167
f 145/220/146 139/214/129 105/178/167 106/179/168
f 151/226/147 145/220/146 106/179/168 107/180/169
f 157/232/158 151/226/147 107/180/169 108/181/170
f 108/181/170 101/174/171 120/193/172 157/232/158
f 127/200/133 126/199/135 103/176/134
f 138/213/143 110/183/157 109/182/154
f 144/219/144 111/184/162 110/183/157
f 150/225/155 112/185/163 111/184/162
f 156/231/160 113/186/164 112/185/163
f 162/237/126 114/187/125 113/186/164
f 116/189/173 115/188/124 162/237/126 161/236/123
f 117/190/174 116/189/173 161/236/123 160/235/122
f 118/191/175 117/190/174 160/235/122 159/234/161
f 119/192/176 118/191/175 159/234/161 158/233/159
f 120/193/172 119/192/176 158/233/159 157/232/158
f 131/204/141 121/194/151 122/195/149
f 130/203/136 122/195/149 123/196/137
f 129/202/138 123/196/137 124/197/165
f 128/201/131 124/197/165 125/198/132
f 127/200/133 125/198/132 126/199/135
f 136/211/140 135/210/139 141/216/152 142/217/117
f 132/207/150 131/204/141 138/213/143
f 22/39/29 170/253/28 23/40/36
f 14/28/23 163/238/22 15/30/43
f 26/43/37 168/249/17 27/45/20
f 78/134/42 165/242/42 86/150/42 87/151/42
f 18/34/32 166/244/15 19/35/14
f 5/11/7 166/245/11 165/243/11 78/135/7
f 76/131/2 164/241/9 163/239/9 1/2/2
