# Blender 3.4.0
# www.blender.org
mtllib pills_bottle_1.mtl
o pills_bottle_1
v 0.000000 0.110700 -0.037800
v 0.026729 0.110700 -0.026729
v 0.037800 0.110700 -0.000000
v 0.026729 0.110700 0.026729
v 0.000000 0.110700 0.037800
v -0.026729 0.110700 0.026729
v -0.037800 0.110700 -0.000000
v -0.026729 0.110700 -0.026729
v -0.000000 0.001602 -0.030092
v 0.000000 0.009162 -0.037800
v -0.000000 0.003816 -0.035542
v 0.021278 0.001602 -0.021278
v 0.026729 0.009162 -0.026729
v 0.025132 0.003816 -0.025132
v 0.030092 0.001602 -0.000000
v 0.037800 0.009162 -0.000000
v 0.035542 0.003816 -0.000000
v 0.021278 0.001602 0.021278
v 0.026729 0.009162 0.026729
v 0.025132 0.003816 0.025132
v 0.000000 0.001602 0.030092
v 0.000000 0.009162 0.037800
v 0.000000 0.003816 0.035542
v -0.021278 0.001602 0.021278
v -0.026729 0.009162 0.026729
v -0.025132 0.003816 0.025132
v -0.030092 0.001602 -0.000000
v -0.037800 0.009162 -0.000000
v -0.035542 0.003816 -0.000000
v -0.021278 0.001602 -0.021278
v -0.026729 0.009162 -0.026729
v -0.025132 0.003816 -0.025132
v 0.000000 0.110700 -0.041580
v 0.029402 0.110700 -0.029402
v 0.041580 0.110700 -0.000000
v 0.029402 0.110700 0.029401
v 0.000000 0.110700 0.041580
v -0.029402 0.110700 0.029401
v -0.041580 0.110700 -0.000000
v -0.029402 0.110700 -0.029402
v 0.000000 0.129600 -0.041580
v 0.000000 0.133380 -0.037726
v 0.000000 0.132273 -0.040451
v 0.026676 0.133380 -0.026676
v 0.029402 0.129600 -0.029402
v 0.028603 0.132273 -0.028603
v 0.037726 0.133380 -0.000000
v 0.041580 0.129600 -0.000000
v 0.040451 0.132273 -0.000000
v 0.026676 0.133380 0.026676
v 0.029402 0.129600 0.029401
v 0.028603 0.132273 0.028603
v 0.000000 0.133380 0.037726
v 0.000000 0.129600 0.041580
v 0.000000 0.132273 0.040451
v -0.026676 0.133380 0.026676
v -0.029402 0.129600 0.029401
v -0.028603 0.132273 0.028603
v -0.037726 0.133380 -0.000000
v -0.041580 0.129600 -0.000000
v -0.040451 0.132273 -0.000000
v -0.026676 0.133380 -0.026676
v -0.029402 0.129600 -0.029402
v -0.028603 0.132273 -0.028603
v 0.014300 0.110700 -0.034523
v 0.014300 0.009162 -0.034523
v 0.013446 0.003816 -0.032461
v 0.011384 0.001602 -0.027483
v 0.015730 0.110700 -0.037975
v 0.015730 0.129600 -0.037975
v 0.015303 0.132273 -0.036944
v 0.014272 0.133380 -0.034455
v 0.034523 0.110700 -0.014300
v 0.034523 0.009162 -0.014300
v 0.032461 0.003816 -0.013446
v 0.027483 0.001602 -0.011384
v 0.037975 0.110700 -0.015730
v 0.037975 0.129600 -0.015730
v 0.036944 0.132273 -0.015303
v 0.034455 0.133380 -0.014272
v 0.034523 0.110700 0.014300
v 0.034523 0.009162 0.014300
v 0.032461 0.003816 0.013446
v 0.027483 0.001602 0.011384
v 0.037975 0.110700 0.015730
v 0.037975 0.129600 0.015730
v 0.036944 0.132273 0.015303
v 0.034455 0.133380 0.014272
v 0.014300 0.110700 0.034523
v 0.014300 0.009162 0.034523
v 0.013446 0.003816 0.032461
v 0.011384 0.001602 0.027483
v 0.015730 0.110700 0.037975
v 0.015730 0.129600 0.037975
v 0.015303 0.132273 0.036944
v 0.014272 0.133380 0.034455
v -0.014300 0.110700 0.034523
v -0.014300 0.009162 0.034523
v -0.013446 0.003816 0.032461
v -0.011384 0.001602 0.027483
v -0.015730 0.110700 0.037975
v -0.015730 0.129600 0.037975
v -0.015303 0.132273 0.036944
v -0.014272 0.133380 0.034455
v -0.034523 0.110700 -0.014300
v -0.034523 0.009162 -0.014300
v -0.032461 0.003816 -0.013446
v -0.027483 0.001602 -0.011384
v -0.037975 0.110700 -0.015730
v -0.037975 0.129600 -0.015730
v -0.036944 0.132273 -0.015303
v -0.034455 0.133380 -0.014272
v -0.034523 0.110700 0.014300
v -0.034523 0.009162 0.014300
v -0.032461 0.003816 0.013446
v -0.027483 0.001602 0.011384
v -0.037975 0.110700 0.015730
v -0.037975 0.129600 0.015730
v -0.036944 0.132273 0.015303
v -0.034455 0.133380 0.014272
v -0.014300 0.110700 -0.034523
v -0.014300 0.009162 -0.034523
v -0.013446 0.003816 -0.032461
v -0.011384 0.001602 -0.027483
v -0.015730 0.110700 -0.037975
v -0.015730 0.129600 -0.037975
v -0.015303 0.132273 -0.036944
v -0.014272 0.133380 -0.034455
vn -0.9804 -0.1971 0.0001
vn -1.0000 -0.0000 -0.0000
vn -0.9239 -0.0000 -0.3827
vn -0.9081 -0.1923 -0.3719
vn 0.3827 -0.0000 -0.9239
vn 0.3726 -0.1952 -0.9072
vn -0.0001 -0.1971 -0.9804
vn -0.0000 -0.0000 -1.0000
vn 0.6933 -0.1972 0.6931
vn 0.7071 -0.0000 0.7071
vn 0.3827 -0.0000 0.9239
vn 0.3780 -0.1952 0.9050
vn 0.9050 -0.1952 -0.3780
vn 0.9239 -0.0000 -0.3827
vn 1.0000 -0.0000 -0.0000
vn 0.9804 -0.1971 -0.0001
vn -0.0000 -1.0000 -0.0000
vn -0.3792 -0.1923 -0.9051
vn -0.3827 -0.0000 -0.9239
vn 0.9081 -0.1923 0.3719
vn 0.9239 -0.0000 0.3827
vn -0.1412 -0.9806 -0.1361
vn -0.2661 -0.9265 -0.2661
vn -0.1455 -0.9249 -0.3512
vn -0.0876 -0.9805 -0.1757
vn -0.5034 0.7054 0.4989
vn -0.6514 0.3891 0.6514
vn -0.3531 0.3853 0.8526
vn -0.2929 0.7011 0.6501
vn -0.1361 -0.9806 0.1412
vn -0.2661 -0.9265 0.2661
vn -0.3512 -0.9249 0.1455
vn -0.1967 -0.9749 0.1041
vn 0.6514 -0.3891 -0.6514
vn 0.6966 -0.1930 -0.6910
vn 0.8526 -0.3853 -0.3531
vn 0.1961 -0.9806 -0.0037
vn 0.3764 -0.9265 -0.0000
vn 0.3512 -0.9249 0.1455
vn 0.2127 -0.9749 0.0655
vn 0.7306 0.6822 -0.0274
vn 0.6501 0.7011 0.2929
vn 0.8526 0.3853 0.3531
vn 0.9212 0.3891 -0.0000
vn -0.1961 -0.9806 0.0037
vn -0.3764 -0.9265 -0.0000
vn -0.3512 -0.9249 -0.1455
vn -0.2127 -0.9749 -0.0655
vn 0.6514 -0.3891 0.6514
vn 0.3531 -0.3853 0.8526
vn 0.1413 -0.9806 0.1361
vn 0.2661 -0.9265 0.2661
vn 0.1455 -0.9249 0.3512
vn 0.1041 -0.9749 0.1967
vn -0.0040 -0.1930 0.9812
vn -0.0000 -0.0000 1.0000
vn -0.3827 -0.0000 0.9239
vn -0.3752 -0.1964 0.9059
vn 0.0221 -0.9746 -0.2227
vn -0.0000 -0.9265 -0.3764
vn 0.1455 -0.9249 -0.3512
vn 0.0593 -0.9780 -0.2000
vn -0.6669 0.7011 0.2526
vn -0.8526 0.3853 0.3531
vn -0.1731 0.9746 -0.1419
vn -0.0623 0.9805 -0.1862
vn -0.2526 0.7011 -0.6669
vn -0.5360 0.6822 -0.4972
vn -0.0000 -0.3891 -0.9212
vn 0.3531 -0.3853 -0.8526
vn 0.1419 0.9746 -0.1731
vn 0.1768 0.9815 -0.0732
vn 0.6516 0.7089 -0.2699
vn 0.4972 0.6822 -0.5360
vn -0.7071 -0.0000 0.7071
vn -0.6967 -0.1930 0.6909
vn 0.0032 0.7054 -0.7088
vn -0.0000 0.3891 -0.9212
vn -0.3531 0.3853 -0.8526
vn -0.6514 0.3891 -0.6514
vn -0.8526 0.3853 -0.3531
vn -0.6516 0.7089 -0.2699
vn 0.7071 -0.0000 -0.7071
vn -0.7071 -0.0000 -0.7071
vn -0.6933 -0.1971 -0.6931
vn 0.4990 0.7054 0.5034
vn 0.2526 0.7011 0.6669
vn 0.3531 0.3853 0.8526
vn 0.6514 0.3891 0.6514
vn 0.0037 -0.9806 0.1961
vn -0.0000 -0.9265 0.3764
vn -0.1455 -0.9249 0.3512
vn -0.0655 -0.9749 0.2127
vn -0.7306 0.6822 0.0274
vn -0.9212 0.3891 -0.0000
vn 0.1730 0.9746 0.1419
vn 0.0732 0.9815 0.1768
vn -0.1418 0.9746 0.1731
vn -0.0732 0.9815 0.1768
vn 0.0274 0.6822 0.7306
vn -0.0000 0.3891 0.9212
vn 0.0221 0.9746 0.2227
vn -0.2227 0.9746 0.0221
vn -0.1768 0.9815 -0.0732
vn -0.6514 -0.3891 0.6514
vn -0.3531 -0.3853 0.8526
vn 0.2227 0.9746 -0.0221
vn 0.6514 0.3891 -0.6514
vn 0.3531 0.3853 -0.8526
vn 0.2929 0.7011 -0.6501
vn 0.0995 0.9780 -0.1834
vn 0.0037 0.9806 -0.1961
vn 0.1967 -0.9749 -0.1041
vn -0.1768 0.9815 0.0732
vn 0.1768 0.9815 0.0732
vn 0.1361 -0.9806 -0.1412
vn -0.9239 -0.0000 0.3827
vn -0.0000 -0.3891 0.9212
vn -0.6514 -0.3891 -0.6514
vn -0.3531 -0.3853 -0.8526
vn 0.2661 -0.9265 -0.2661
vn -0.9050 -0.1951 0.3779
vn 0.9212 -0.3891 -0.0000
vn 0.8526 0.3853 -0.3531
vn -0.9212 -0.3891 -0.0000
vn -0.8526 -0.3853 0.3531
vn -0.8526 -0.3853 -0.3531
vn 0.3512 -0.9249 -0.1455
vn 0.8526 -0.3853 0.3531
vt 0.500000 0.854167
vt 0.000000 0.854167
vt 0.905801 0.905433
vt 0.905721 0.905305
vt 0.250000 0.854167
vt 0.749573 0.969983
vt 0.000000 0.854167
vt 0.500000 0.854167
vt 0.593425 0.905305
vt 0.250000 0.854167
vt 0.528747 0.749156
vt 0.593425 0.593009
vt 0.500000 0.854167
vt 0.593127 0.593514
vt 0.000000 0.854167
vt 0.250000 0.854167
vt 0.749197 0.528647
vt 0.500000 0.854167
vt 0.905423 0.593137
vt 0.000000 0.854167
vt 0.970291 0.749207
vt 0.250000 0.854167
vt 0.554643 0.245226
vt 0.500000 0.046875
vt -0.000000 0.046875
vt 0.500000 -0.000000
vt 0.516050 0.244498
vt -0.000000 -0.000000
vt 0.615021 0.108419
vt 0.250000 0.046875
vt 0.250000 -0.000000
vt 0.588304 0.080575
vt 0.754654 0.054490
vt -0.000000 0.046875
vt 0.500000 0.046875
vt -0.000000 -0.000000
vt 0.755420 0.015896
vt 0.500000 -0.000000
vt 0.891402 0.115041
vt 0.250000 0.046875
vt 0.919280 0.088352
vt 0.250000 -0.000000
vt 0.945356 0.254774
vt 0.500000 0.046875
vt -0.000000 0.046875
vt 0.500000 -0.000000
vt -0.000000 -0.000000
vt 0.983949 0.255502
vt 0.884979 0.391581
vt 0.250000 0.046875
vt 0.911696 0.419425
vt 0.250000 -0.000000
vt 0.745346 0.445510
vt 0.500000 0.046875
vt -0.000000 0.046875
vt 0.744579 0.484104
vt -0.000000 -0.000000
vt 0.500000 -0.000000
vt 0.608598 0.384959
vt 0.250000 0.046875
vt 0.580719 0.411648
vt 0.250000 -0.000000
vt 0.921435 0.921029
vt 0.921336 0.920920
vt 0.103273 0.854167
vt 0.437820 0.854167
vt 0.270547 0.854167
vt 0.749573 0.992066
vt 0.437820 0.854167
vt 0.103273 0.854167
vt 0.577810 0.920919
vt 0.270547 0.854167
vt 0.506664 0.749157
vt 0.577810 0.577394
vt 0.577494 0.577919
vt 0.437820 0.854167
vt 0.103273 0.854167
vt 0.749171 0.506564
vt 0.270547 0.854167
vt 0.103273 0.854167
vt 0.921019 0.577503
vt 0.437820 0.854167
vt 0.270547 0.854167
vt 0.992373 0.749180
vt 0.103273 0.963048
vt 0.437820 0.963048
vt 0.522458 0.754387
vt 0.103273 0.978673
vt 0.504595 0.754778
vt 0.437820 0.978673
vt 0.592540 0.913729
vt 0.270547 0.963048
vt 0.580176 0.926638
vt 0.270547 0.978673
vt 0.754638 0.977523
vt 0.437820 0.963048
vt 0.103273 0.963048
vt 0.437820 0.978673
vt 0.103273 0.978673
vt 0.755005 0.995388
vt 0.914058 0.907660
vt 0.270547 0.963048
vt 0.926956 0.920021
vt 0.270547 0.978673
vt 0.977580 0.745624
vt 0.437820 0.963048
vt 0.103273 0.963048
vt 0.103273 0.978673
vt 0.437820 0.978673
vt 0.995444 0.745224
vt 0.907462 0.586193
vt 0.270547 0.963048
vt 0.270547 0.978673
vt 0.919832 0.573297
vt 0.745499 0.522422
vt 0.103273 0.963048
vt 0.437820 0.963048
vt 0.437820 0.978673
vt 0.103273 0.978673
vt 0.745126 0.504558
vt 0.586024 0.592290
vt 0.270547 0.963048
vt 0.573120 0.579923
vt 0.270547 0.978673
vt 0.833113 0.950838
vt 0.375000 0.854167
vt 0.374577 0.054134
vt 0.375423 0.054134
vt 0.375000 0.046875
vt 0.539620 0.157237
vt 0.375000 0.006825
vt 0.539753 0.156907
vt 0.574257 0.172196
vt 0.573270 0.171700
vt 0.841466 0.971007
vt 0.354183 0.854167
vt 0.354347 0.957725
vt 0.354183 0.963048
vt 0.354019 0.957725
vt 0.529275 0.846611
vt 0.529177 0.846385
vt 0.354183 0.973495
vt 0.544021 0.839943
vt 0.545226 0.839458
vt 0.125000 0.854167
vt 0.666034 0.950838
vt 0.124577 0.054134
vt 0.125000 0.046875
vt 0.125423 0.054134
vt 0.125000 0.006825
vt 0.667054 0.035459
vt 0.666744 0.035598
vt 0.680276 0.069657
vt 0.680635 0.070697
vt 0.186910 0.854167
vt 0.657680 0.971006
vt 0.186910 0.963048
vt 0.187074 0.957725
vt 0.186746 0.957725
vt 0.662253 0.974371
vt 0.662482 0.974450
vt 0.186910 0.973495
vt 0.668718 0.958121
vt 0.668239 0.959321
vt 0.375000 0.854167
vt 0.547892 0.832696
vt 0.375000 0.046875
vt 0.375423 0.054134
vt 0.374577 0.054134
vt 0.842663 0.039572
vt 0.842994 0.039704
vt 0.375000 0.006825
vt 0.828141 0.073199
vt 0.827666 0.074195
vt 0.527723 0.841050
vt 0.354183 0.854167
vt 0.354019 0.957725
vt 0.354347 0.957725
vt 0.354183 0.963048
vt 0.846869 0.970812
vt 0.354183 0.973495
vt 0.846642 0.970915
vt 0.840249 0.956075
vt 0.839734 0.954864
vt 0.125000 0.854167
vt 0.547892 0.665617
vt 0.124577 0.054134
vt 0.125000 0.046875
vt 0.125423 0.054134
vt 0.964261 0.166812
vt 0.125000 0.006825
vt 0.964394 0.167110
vt 0.930165 0.180351
vt 0.929142 0.180704
vt 0.527723 0.657264
vt 0.186910 0.854167
vt 0.186746 0.957725
vt 0.187074 0.957725
vt 0.186910 0.963048
vt 0.974550 0.837948
vt 0.186910 0.973495
vt 0.974635 0.837711
vt 0.958309 0.831499
vt 0.959525 0.832008
vt 0.375000 0.854167
vt 0.665681 0.547893
vt 0.375000 0.046875
vt 0.375423 0.054134
vt 0.374577 0.054134
vt 0.960380 0.342763
vt 0.375000 0.006825
vt 0.960247 0.343093
vt 0.925743 0.327804
vt 0.926730 0.328300
vt 0.657303 0.527735
vt 0.354183 0.854167
vt 0.354347 0.957725
vt 0.354019 0.957725
vt 0.354183 0.963048
vt 0.970752 0.653363
vt 0.354183 0.973495
vt 0.970848 0.653582
vt 0.955995 0.660025
vt 0.954796 0.660510
vt 0.375000 0.854167
vt 0.951045 0.665691
vt 0.375000 0.046875
vt 0.374577 0.054134
vt 0.375423 0.054134
vt 0.657337 0.460428
vt 0.657005 0.460296
vt 0.375000 0.006825
vt 0.671859 0.426801
vt 0.672333 0.425805
vt 0.971203 0.657313
vt 0.354183 0.854167
vt 0.354347 0.957725
vt 0.354019 0.957725
vt 0.354183 0.963048
vt 0.354183 0.973495
vt 0.653456 0.529029
vt 0.653230 0.529130
vt 0.659864 0.543872
vt 0.660371 0.545082
vt 0.832760 0.547691
vt 0.125000 0.854167
vt 0.125423 0.054134
vt 0.124577 0.054134
vt 0.125000 0.046875
vt 0.833256 0.464402
vt 0.832946 0.464541
vt 0.125000 0.006825
vt 0.819724 0.430343
vt 0.819364 0.429303
vt 0.841089 0.527513
vt 0.186910 0.854167
vt 0.186746 0.957725
vt 0.187074 0.957725
vt 0.186910 0.963048
vt 0.186910 0.973495
vt 0.837819 0.525577
vt 0.837585 0.525496
vt 0.831831 0.540611
vt 0.831352 0.541819
vt 0.951247 0.832769
vt 0.125000 0.854167
vt 0.124577 0.054134
vt 0.125423 0.054134
vt 0.125000 0.046875
vt 0.535739 0.333188
vt 0.535605 0.332890
vt 0.125000 0.006825
vt 0.569835 0.319649
vt 0.570857 0.319296
vt 0.186910 0.854167
vt 0.971425 0.841099
vt 0.187074 0.957725
vt 0.186910 0.963048
vt 0.186746 0.957725
vt 0.525505 0.662019
vt 0.525422 0.662254
vt 0.186910 0.973495
vt 0.540535 0.667976
vt 0.541749 0.668476
s 1
usemtl pills_bottle_1
f 28/54/1 7/18/2 105/225/3 106/227/4
f 65/126/5 66/129/6 10/24/7 1/1/8
f 19/40/9 4/10/10 89/185/11 90/188/12
f 74/148/13 73/145/14 3/7/15 16/34/16
f 117/255/17 113/245/17 6/17/17 38/78/17
f 10/25/7 122/269/18 121/266/19 1/2/8
f 5/12/17 89/186/17 93/195/17 37/74/17
f 125/276/17 33/63/17 1/3/17 121/265/17
f 82/167/20 81/165/21 4/10/10 19/40/9
f 30/59/22 32/61/23 123/270/24 124/274/25
f 58/113/26 57/112/27 102/217/28 103/221/29
f 24/49/30 26/51/31 115/250/32 116/254/33
f 14/31/34 13/30/35 74/147/13 75/150/36
f 15/33/37 17/37/38 83/170/39 84/174/40
f 49/98/41 87/181/42 86/177/43 48/96/44
f 27/53/45 29/56/46 107/230/47 108/234/48
f 20/42/49 19/40/9 90/187/12 91/191/50
f 18/39/51 20/41/52 91/190/53 92/194/54
f 22/44/55 5/13/56 97/205/57 98/207/58
f 9/23/59 11/27/60 67/130/61 68/133/62
f 58/113/26 119/260/63 118/257/64 57/112/27
f 62/121/65 128/284/66 127/280/67 64/123/68
f 11/26/69 10/24/7 66/127/6 67/131/70
f 44/91/71 80/163/72 79/160/73 46/93/74
f 98/207/58 97/205/57 6/16/75 25/50/76
f 86/179/21 85/176/21 35/69/15 48/96/15
f 77/156/17 35/71/17 3/9/17 73/146/17
f 109/235/17 40/84/17 8/21/17 105/226/17
f 43/88/77 41/85/78 126/277/79 127/282/67
f 85/175/17 36/73/17 4/11/17 81/166/17
f 117/255/17 39/81/17 7/19/17 113/245/17
f 101/215/17 97/206/17 5/14/17 37/75/17
f 64/124/68 63/122/80 110/237/81 111/240/82
f 90/188/12 89/185/11 5/15/56 22/45/55
f 34/67/83 69/136/5 70/138/5 45/92/83
f 106/227/4 105/225/3 8/22/84 31/60/85
f 63/122/84 40/83/84 109/236/3 110/239/3
f 13/30/35 2/5/83 73/145/14 74/148/13
f 69/135/17 65/125/17 1/4/17 33/64/17
f 52/104/86 95/201/87 94/197/88 51/102/89
f 21/43/90 23/48/91 99/210/92 100/213/93
f 61/118/94 111/240/82 110/238/81 60/117/95
f 50/101/96 96/203/97 95/200/87 52/103/86
f 61/119/94 60/116/95 118/258/64 119/260/63
f 56/111/98 58/114/26 103/220/29 104/224/99
f 55/108/100 54/107/101 94/198/88 95/201/87
f 53/105/102 55/110/100 95/202/87 96/203/97
f 54/106/56 102/219/57 101/216/57 37/76/56
f 59/115/103 112/244/104 111/241/82 61/120/94
f 26/52/105 99/211/106 98/208/58 25/50/76
f 47/95/107 49/100/41 79/161/73 80/163/72
f 46/94/74 45/92/108 70/137/109 71/142/110
f 44/91/71 46/93/74 71/140/110 72/144/111
f 48/97/15 35/70/15 77/155/14 78/157/14
f 72/143/111 42/87/112 128/283/66
f 68/134/62 76/153/113 15/33/37 84/173/40
f 112/243/104 59/115/103 120/263/114
f 84/173/40 92/193/54 21/43/90 100/214/93
f 116/253/33 108/233/48 100/214/93 24/49/30
f 96/204/97 50/101/96 88/183/115
f 72/143/111 128/283/66 62/121/65 112/243/104
f 80/164/72 44/91/71 72/143/111
f 78/157/14 77/155/14 34/67/83 45/92/83
f 84/173/40 18/39/51 92/193/54
f 96/204/97 88/183/115 104/223/99 53/105/102
f 80/164/72 72/143/111 88/183/115 47/95/107
f 116/253/33 27/53/45 108/233/48
f 124/273/25 9/23/59 68/134/62
f 68/134/62 12/29/116 76/153/113
f 124/273/25 68/134/62 108/233/48 30/59/22
f 118/259/117 60/116/2 39/80/2 117/256/117
f 23/46/118 22/44/55 98/209/58 99/211/106
f 32/62/119 31/60/85 122/267/18 123/272/120
f 14/31/34 67/131/70 66/128/6 13/30/35
f 126/278/19 41/85/8 33/65/8 125/275/19
f 12/29/116 68/133/62 67/132/61 14/32/121
f 55/109/100 103/221/29 102/218/28 54/106/101
f 25/50/76 6/16/75 113/246/117 114/249/122
f 9/23/59 124/274/25 123/271/24 11/27/60
f 109/235/17 105/226/17 7/19/17 39/81/17
f 24/49/30 100/213/93 99/212/92 26/51/31
f 50/101/96 52/103/86 87/180/42 88/184/115
f 112/243/104 120/263/114 56/111/98 104/223/99
f 104/223/99 88/183/115 72/143/111 112/243/104
f 53/105/102 104/224/99 103/222/29 55/110/100
f 11/28/69 123/272/120 122/268/18 10/25/7
f 100/214/93 108/233/48 68/134/62 84/173/40
f 56/111/98 120/264/114 119/261/63 58/114/26
f 17/36/123 75/150/36 74/149/13 16/34/16
f 126/278/19 125/275/19 40/83/84 63/122/84
f 69/135/17 34/68/17 2/6/17 65/125/17
f 27/53/45 116/254/33 115/251/32 29/56/46
f 23/47/118 91/191/50 90/189/12 22/45/55
f 13/30/35 66/129/6 65/126/5 2/5/83
f 49/99/41 48/97/44 78/158/124 79/162/73
f 110/239/3 109/236/3 39/82/2 60/117/2
f 42/87/112 43/89/77 127/281/67 128/284/66
f 52/104/86 51/102/89 86/178/43 87/181/42
f 82/167/20 16/35/16 3/8/15 81/165/21
f 62/121/65 64/123/68 111/242/82 112/244/104
f 77/156/17 73/146/17 2/6/17 34/68/17
f 30/59/22 108/234/48 107/231/47 32/61/23
f 46/94/74 79/162/73 78/159/124 45/92/108
f 93/196/11 36/72/10 51/102/10 94/199/11
f 85/175/17 81/166/17 3/9/17 35/71/17
f 21/43/90 92/194/54 91/192/53 23/48/91
f 29/57/125 115/252/126 114/247/122 28/55/1
f 70/138/5 69/136/5 33/66/8 41/86/8
f 18/39/51 84/174/40 83/171/39 20/41/52
f 29/58/125 28/54/1 106/228/4 107/232/127
f 51/102/10 36/72/10 85/176/21 86/179/21
f 125/276/17 121/265/17 8/21/17 40/84/17
f 15/33/37 76/154/113 75/151/128 17/37/38
f 32/62/119 107/232/127 106/229/4 31/60/85
f 122/269/18 31/60/85 8/22/84 121/266/19
f 47/95/107 88/184/115 87/182/42 49/100/41
f 26/52/105 25/50/76 114/248/122 115/252/126
f 114/249/122 113/246/117 7/20/2 28/55/1
f 93/195/17 89/186/17 4/11/17 36/73/17
f 59/115/103 61/120/94 119/262/63 120/264/114
f 20/42/49 83/172/129 82/168/20 19/40/9
f 57/112/75 118/259/117 117/256/117 38/79/75
f 42/87/112 72/144/111 71/141/110 43/89/77
f 43/90/77 71/142/110 70/139/109 41/86/78
f 64/124/68 127/282/67 126/279/79 63/122/80
f 12/29/116 14/32/121 75/152/128 76/154/113
f 17/38/123 16/35/16 82/169/20 83/172/129
f 54/107/56 37/77/56 93/196/11 94/199/11
f 101/215/17 38/78/17 6/17/17 97/206/17
f 57/112/75 38/79/75 101/216/57 102/219/57
