# Blender 3.4.0
# www.blender.org
mtllib pills_1.mtl
o pills_1
v 0.004447 0.002709 -0.014524
v 0.004447 0.009709 -0.014524
v 0.025661 0.002709 -0.035737
v 0.025661 0.009709 -0.035737
v 0.011518 0.002709 -0.007452
v 0.011518 0.009709 -0.007452
v 0.032732 0.002709 -0.028666
v 0.032732 0.009709 -0.028666
v 0.007454 0.001742 -0.019483
v 0.002898 0.006209 -0.014524
v 0.020701 0.010676 -0.032730
v 0.025661 0.006209 -0.037286
v 0.029971 0.001942 -0.032976
v 0.029971 0.010476 -0.032976
v 0.034281 0.006209 -0.028666
v 0.029725 0.001742 -0.023706
v 0.016478 0.010676 -0.010459
v 0.011518 0.006209 -0.005903
v 0.007208 0.001942 -0.010213
v 0.007208 0.010476 -0.010213
v 0.020701 0.001742 -0.032730
v 0.007454 0.010676 -0.019483
v 0.016478 0.001742 -0.010459
v 0.029725 0.010676 -0.023706
v 0.019081 0.006209 -0.034504
v 0.031597 0.006209 -0.034602
v 0.018099 0.006209 -0.008686
v 0.005582 0.006209 -0.008587
v 0.011889 0.000062 -0.014895
v 0.011889 0.012356 -0.014895
v 0.025290 0.012356 -0.028295
v 0.025290 0.000062 -0.028295
v 0.031499 0.006209 -0.022086
v 0.005680 0.006209 -0.021104
v -0.024067 0.002709 0.008647
v -0.024067 0.009709 0.008647
v 0.001914 0.002709 0.023647
v 0.001914 0.009709 0.023647
v -0.029067 0.002709 0.017307
v -0.029067 0.009709 0.017307
v -0.003086 0.002709 0.032307
v -0.003086 0.009709 0.032307
v -0.018498 0.001742 0.010267
v -0.024468 0.006209 0.007150
v -0.002274 0.010676 0.019634
v 0.003411 0.006209 0.023246
v 0.000363 0.001942 0.028525
v 0.000363 0.010476 0.028525
v -0.002685 0.006209 0.033804
v -0.008655 0.001742 0.030687
v -0.024879 0.010676 0.021319
v -0.030564 0.006209 0.017708
v -0.027516 0.001942 0.012429
v -0.027516 0.010476 0.012429
v -0.002274 0.001742 0.019634
v -0.018498 0.010676 0.010267
v -0.024879 0.001742 0.021319
v -0.008655 0.010676 0.030687
v -0.000980 0.006209 0.017610
v 0.002354 0.006209 0.029674
v -0.026173 0.006209 0.023344
v -0.029507 0.006209 0.011279
v -0.021782 0.000062 0.015739
v -0.021782 0.012356 0.015739
v -0.005371 0.012356 0.025214
v -0.005371 0.000062 0.025214
v -0.009761 0.006209 0.032819
v -0.017392 0.006209 0.008135
vn -0.5446 -0.7690 -0.3348
vn -0.8176 -0.0000 -0.5757
vn -0.5757 -0.0000 -0.8176
vn -0.3348 -0.7690 -0.5446
vn -0.3348 0.7690 -0.5446
vn 0.0127 0.6734 -0.7391
vn 0.0128 -0.0000 -0.9999
vn 0.0127 -0.6734 -0.7391
vn 0.7071 -0.0000 -0.7071
vn 0.4574 -0.7626 -0.4574
vn 0.4574 0.7626 -0.4574
vn 0.7391 0.6734 -0.0127
vn 0.9999 -0.0000 -0.0128
vn 0.7391 -0.6734 -0.0127
vn -0.5446 0.7690 -0.3348
vn 0.5446 -0.7690 0.3348
vn 0.8176 -0.0000 0.5757
vn 0.5757 -0.0000 0.8176
vn 0.3348 -0.7690 0.5446
vn 0.3348 0.7690 0.5446
vn -0.0127 0.6734 0.7391
vn -0.0128 -0.0000 0.9999
vn -0.0127 -0.6734 0.7391
vn -0.7071 -0.0000 0.7071
vn -0.4574 -0.7626 0.4574
vn -0.4574 0.7626 0.4574
vn -0.7391 0.6734 0.0127
vn -0.9999 -0.0000 0.0128
vn -0.7391 -0.6734 0.0127
vn 0.5446 0.7690 0.3348
vn 0.0888 -0.9921 -0.0888
vn -0.0888 -0.9921 0.0888
vn 0.0888 0.9921 -0.0888
vn -0.0888 0.9921 0.0888
vn 0.1824 -0.7690 -0.6127
vn 0.3445 -0.0000 -0.9388
vn 0.6408 -0.0000 -0.7677
vn 0.4394 -0.7690 -0.4643
vn 0.4394 0.7690 -0.4643
vn 0.7172 0.6734 -0.1790
vn 0.9692 -0.0000 -0.2464
vn 0.7172 -0.6734 -0.1790
vn 0.8660 -0.0000 0.5000
vn 0.5602 -0.7626 0.3234
vn 0.5602 0.7626 0.3234
vn 0.2036 0.6734 0.7107
vn 0.2712 -0.0000 0.9625
vn 0.2036 -0.6734 0.7107
vn 0.1824 0.7690 -0.6127
vn -0.1824 -0.7690 0.6127
vn -0.3445 -0.0000 0.9388
vn -0.6408 -0.0000 0.7677
vn -0.4394 -0.7690 0.4643
vn -0.4394 0.7690 0.4643
vn -0.7172 0.6734 0.1790
vn -0.9692 -0.0000 0.2464
vn -0.7172 -0.6734 0.1790
vn -0.8660 -0.0000 -0.5000
vn -0.5602 -0.7626 -0.3234
vn -0.5602 0.7626 -0.3234
vn -0.2036 0.6734 -0.7107
vn -0.2712 -0.0000 -0.9625
vn -0.2036 -0.6734 -0.7107
vn -0.1824 0.7690 0.6127
vn 0.1087 -0.9921 0.0628
vn -0.1087 -0.9921 -0.0628
vn 0.1087 0.9921 0.0628
vn -0.1087 0.9921 -0.0628
vt 0.653170 0.660793
vt 0.595067 0.661250
vt 0.654933 0.838750
vt 0.596830 0.839207
vt 0.595067 0.661250
vt 0.653170 0.660793
vt 0.596830 0.839207
vt 0.654933 0.838750
vt 0.662818 0.694090
vt 0.669136 0.640898
vt 0.578990 0.641998
vt 0.587182 0.805910
vt 0.671010 0.858002
vt 0.580864 0.859102
vt 0.625996 0.842359
vt 0.625996 0.842359
vt 0.580864 0.859102
vt 0.671010 0.858002
vt 0.587182 0.805910
vt 0.662818 0.694090
vt 0.578990 0.641998
vt 0.669136 0.640898
vt 0.624004 0.657641
vt 0.624004 0.657641
vt 0.664268 0.805849
vt 0.585732 0.694151
vt 0.585732 0.694151
vt 0.664268 0.805849
vt 0.697085 0.814084
vt 0.552915 0.814656
vt 0.626316 0.875283
vt 0.552915 0.685916
vt 0.697085 0.685344
vt 0.623684 0.624717
vt 0.624203 0.695572
vt 0.624203 0.695572
vt 0.625797 0.804428
vt 0.625797 0.804428
vt 0.552915 0.814656
vt 0.697085 0.814084
vt 0.697085 0.685344
vt 0.552915 0.685916
vt 0.653170 0.660793
vt 0.595067 0.661250
vt 0.654933 0.838750
vt 0.596830 0.839207
vt 0.595067 0.661250
vt 0.653170 0.660793
vt 0.596830 0.839207
vt 0.654933 0.838750
vt 0.662818 0.694090
vt 0.669136 0.640898
vt 0.578990 0.641998
vt 0.587182 0.805910
vt 0.671010 0.858002
vt 0.580864 0.859102
vt 0.625996 0.842359
vt 0.625996 0.842359
vt 0.580864 0.859102
vt 0.671010 0.858002
vt 0.587182 0.805910
vt 0.662818 0.694090
vt 0.578990 0.641998
vt 0.669136 0.640898
vt 0.624004 0.657641
vt 0.624004 0.657641
vt 0.664268 0.805849
vt 0.585732 0.694151
vt 0.585732 0.694151
vt 0.664268 0.805849
vt 0.697085 0.814084
vt 0.552915 0.814656
vt 0.626316 0.875283
vt 0.552915 0.685916
vt 0.697085 0.685344
vt 0.623684 0.624717
vt 0.624203 0.695572
vt 0.624203 0.695572
vt 0.625797 0.804428
vt 0.625797 0.804428
vt 0.552915 0.814656
vt 0.697085 0.814084
vt 0.697085 0.685344
vt 0.552915 0.685916
s 1
usemtl pills_bottle_1
f 9/9/1 34/41/2 25/29/3 21/25/4
f 25/30/3 11/12/5 4/4/6 12/14/7
f 21/25/4 25/29/3 12/13/7 3/3/8
f 3/3/8 12/13/7 26/31/9 13/15/10
f 12/14/7 4/4/6 14/16/11 26/31/9
f 26/31/9 14/16/11 8/8/12 15/18/13
f 13/15/10 26/31/9 15/17/13 7/7/14
f 34/42/2 22/26/15 11/12/5 25/30/3
f 16/19/16 33/39/17 27/32/18 23/27/19
f 27/33/18 17/20/20 6/6/21 18/22/22
f 23/27/19 27/32/18 18/21/22 5/5/23
f 5/5/23 18/21/22 28/34/24 19/23/25
f 18/22/22 6/6/21 20/24/26 28/34/24
f 28/34/24 20/24/26 2/2/27 10/11/28
f 19/23/25 28/34/24 10/10/28 1/1/29
f 33/40/17 24/28/30 17/20/20 27/33/18
f 21/25/4 32/38/31 29/35/32 9/9/1
f 29/35/32 23/27/19 5/5/23 19/23/25
f 9/9/1 29/35/32 19/23/25 1/1/29
f 32/38/31 16/19/16 23/27/19 29/35/32
f 24/28/30 31/37/33 30/36/34 17/20/20
f 30/36/34 22/26/15 2/2/27 20/24/26
f 17/20/20 30/36/34 20/24/26 6/6/21
f 8/8/12 14/16/11 31/37/33 24/28/30
f 14/16/11 4/4/6 11/12/5 31/37/33
f 3/3/8 13/15/10 32/38/31 21/25/4
f 13/15/10 7/7/14 16/19/16 32/38/31
f 7/7/14 15/17/13 33/39/17 16/19/16
f 15/18/13 8/8/12 24/28/30 33/40/17
f 1/1/29 10/10/28 34/41/2 9/9/1
f 10/11/28 2/2/27 22/26/15 34/42/2
f 31/37/33 11/12/5 22/26/15 30/36/34
f 43/51/35 68/83/36 59/71/37 55/67/38
f 59/72/37 45/54/39 38/46/40 46/56/41
f 55/67/38 59/71/37 46/55/41 37/45/42
f 37/45/42 46/55/41 60/73/43 47/57/44
f 46/56/41 38/46/40 48/58/45 60/73/43
f 60/73/43 48/58/45 42/50/46 49/60/47
f 47/57/44 60/73/43 49/59/47 41/49/48
f 68/84/36 56/68/49 45/54/39 59/72/37
f 50/61/50 67/81/51 61/74/52 57/69/53
f 61/75/52 51/62/54 40/48/55 52/64/56
f 57/69/53 61/74/52 52/63/56 39/47/57
f 39/47/57 52/63/56 62/76/58 53/65/59
f 52/64/56 40/48/55 54/66/60 62/76/58
f 62/76/58 54/66/60 36/44/61 44/53/62
f 53/65/59 62/76/58 44/52/62 35/43/63
f 67/82/51 58/70/64 51/62/54 61/75/52
f 55/67/38 66/80/65 63/77/66 43/51/35
f 63/77/66 57/69/53 39/47/57 53/65/59
f 43/51/35 63/77/66 53/65/59 35/43/63
f 66/80/65 50/61/50 57/69/53 63/77/66
f 58/70/64 65/79/67 64/78/68 51/62/54
f 64/78/68 56/68/49 36/44/61 54/66/60
f 51/62/54 64/78/68 54/66/60 40/48/55
f 42/50/46 48/58/45 65/79/67 58/70/64
f 48/58/45 38/46/40 45/54/39 65/79/67
f 37/45/42 47/57/44 66/80/65 55/67/38
f 47/57/44 41/49/48 50/61/50 66/80/65
f 41/49/48 49/59/47 67/81/51 50/61/50
f 49/60/47 42/50/46 58/70/64 67/82/51
f 35/43/63 44/52/62 68/83/36 43/51/35
f 44/53/62 36/44/61 56/68/49 68/84/36
f 65/79/67 45/54/39 56/68/49 64/78/68
