# Blender 3.4.0
# www.blender.org
mtllib pistol_mp_1_mag_extended_loaded.mtl
o pistol_mp_1_mag_extended_loaded
v -0.026437 -0.137519 0.006448
v -0.035198 -0.136423 0.015000
v -0.035198 -0.136423 -0.015000
v -0.026437 -0.137519 -0.006448
v -0.074663 -0.130919 0.015000
v -0.074663 -0.130919 -0.015000
v -0.033192 -0.136699 0.018000
v -0.023963 -0.137860 0.008566
v -0.023963 -0.137860 -0.008565
v -0.033192 -0.136699 -0.018000
v -0.079616 -0.130238 0.018000
v -0.079616 -0.130238 -0.018000
v -0.036335 -0.143607 0.018000
v -0.027107 -0.144768 0.008566
v -0.027107 -0.144768 -0.008565
v -0.036335 -0.143607 -0.018000
v -0.081181 -0.133678 0.018000
v -0.078985 -0.137672 0.018000
v -0.078985 -0.137672 -0.018000
v -0.081181 -0.133678 -0.018000
v 0.049199 0.061581 0.015000
v 0.049199 0.061581 -0.015000
v 0.052965 0.061581 0.006448
v 0.052965 0.061581 -0.006448
v 0.009739 0.061581 0.015000
v 0.009739 0.061581 -0.015000
v 0.014739 0.061581 -0.006448
v 0.014739 0.061581 0.006448
v 0.051128 0.069081 0.015000
v 0.055509 0.066581 0.006448
v 0.055509 0.066581 -0.006448
v 0.051128 0.069081 -0.015000
v 0.013241 0.069081 0.015000
v 0.013241 0.069081 -0.015000
v 0.014738 0.066581 0.006448
v 0.014738 0.066581 -0.006448
v 0.057965 0.061581 0.006448
v 0.057965 0.061581 -0.006448
v 0.009739 0.061581 -0.011448
v 0.009739 0.061581 0.011448
v 0.055508 0.069081 0.009302
v 0.055508 0.069081 -0.009302
v 0.013241 0.069081 0.009302
v 0.013241 0.069081 -0.009302
v 0.012503 0.056581 -0.006448
v 0.012503 0.056581 0.006448
v 0.050728 0.056581 0.006448
v 0.050728 0.056581 -0.006448
v 0.015999 0.064000 0.007000
v 0.015999 0.071000 -0.000000
v 0.015999 0.068950 0.004950
v 0.039999 0.071000 -0.000000
v 0.039999 0.064000 0.007000
v 0.039999 0.068950 0.004950
v 0.015999 0.064000 -0.007000
v 0.015999 0.068950 -0.004950
v 0.039999 0.064000 -0.007000
v 0.039999 0.068950 -0.004950
v 0.015999 0.057000 -0.000000
v 0.015999 0.059050 0.004950
v 0.039999 0.057000 -0.000000
v 0.039999 0.059050 0.004950
v 0.015999 0.059050 -0.004950
v 0.039999 0.059050 -0.004950
v 0.044670 0.071000 -0.000000
v 0.052999 0.064000 -0.000000
v 0.050145 0.068993 -0.000000
v 0.044670 0.064000 0.007000
v 0.050145 0.064000 0.004993
v 0.044670 0.068950 0.004950
v 0.050145 0.067531 0.003531
v 0.044670 0.064000 -0.007000
v 0.050145 0.064000 -0.004994
v 0.044670 0.068950 -0.004950
v 0.050145 0.067531 -0.003531
v 0.044670 0.057000 -0.000000
v 0.050145 0.059006 -0.000000
v 0.044670 0.059050 0.004950
v 0.050145 0.060469 0.003531
v 0.044670 0.059050 -0.004950
v 0.050145 0.060469 -0.003531
v 0.052014 0.066907 -0.000000
v 0.052014 0.061944 0.002055
v 0.052014 0.064000 0.002907
v 0.052014 0.064000 -0.002907
v 0.052014 0.061944 -0.002056
v 0.052014 0.066055 -0.002056
v 0.052014 0.061093 -0.000000
v 0.052014 0.066055 0.002055
v 0.047407 0.059336 0.004664
v 0.047407 0.064000 0.006596
v 0.047407 0.064000 -0.006597
v 0.047407 0.059336 -0.004664
v 0.047407 0.070596 -0.000000
v 0.047407 0.068664 -0.004664
v 0.047407 0.057403 -0.000000
v 0.047407 0.068664 0.004664
vn 0.1300 0.9915 0.0056
vn 0.1300 0.9915 -0.0056
vn 0.1364 0.9907 -0.0000
vn 0.1380 0.9904 0.0009
vn 0.1380 0.9904 -0.0009
vn 0.1362 0.9907 -0.0000
vn -0.9102 0.4142 -0.0000
vn -0.0000 -0.0000 -1.0000
vn 0.4187 -0.1905 -0.8879
vn 0.3044 -0.1385 -0.9424
vn 0.8553 -0.3892 -0.3421
vn 0.8553 -0.3892 0.3421
vn 0.8375 -0.3811 0.3917
vn 0.8375 -0.3811 -0.3917
vn -0.1361 -0.9907 -0.0000
vn 0.4188 -0.1905 0.8879
vn 0.3044 -0.1385 0.9424
vn -0.8763 -0.4818 -0.0000
vn -0.0000 -0.0000 1.0000
vn 0.6612 -0.2811 -0.6955
vn 0.6734 -0.2367 -0.7004
vn 0.7019 -0.1914 -0.6860
vn -0.9158 0.4016 -0.0000
vn 0.6612 -0.2811 0.6955
vn 0.7019 -0.1914 0.6860
vn 0.6734 -0.2367 0.7004
vn 0.9207 -0.3903 -0.0000
vn -0.0000 1.0000 -0.0000
vn -0.0000 0.7523 -0.6589
vn 0.7288 -0.1069 0.6763
vn -0.9061 0.4230 -0.0000
vn -0.7469 0.0876 -0.6591
vn -0.7854 0.1990 -0.5861
vn -0.7579 0.1157 -0.6420
vn 0.8375 0.4113 0.3599
vn -0.0000 0.7523 0.6589
vn -0.7579 0.1157 0.6420
vn -0.7854 0.1990 0.5861
vn -0.7469 0.0876 0.6591
vn 0.7288 -0.1069 -0.6763
vn 0.7925 0.0277 -0.6093
vn 0.8375 0.4113 -0.3599
vn 0.7925 0.0277 0.6093
vn -0.7071 -0.0002 -0.7071
vn -0.7071 -0.0002 0.7071
vn -0.9128 0.4083 -0.0000
vn 0.9128 -0.4083 -0.0000
vn -0.0000 -0.7071 0.7071
vn 0.0718 -0.7053 0.7053
vn 0.0718 -0.0000 0.9974
vn -0.0000 0.7071 0.7071
vn -0.0000 0.7071 -0.7071
vn -0.0000 -1.0000 -0.0000
vn -0.0000 -0.7071 -0.7071
vn -1.0000 -0.0000 -0.0000
vn 0.0718 0.7053 0.7053
vn 0.0718 0.9974 -0.0000
vn 0.0718 -0.0000 -0.9974
vn 0.0718 -0.7053 -0.7053
vn 0.0718 -0.9974 -0.0000
vn 0.0718 0.7053 -0.7053
vn 0.8420 -0.0000 0.5395
vn 0.6147 -0.0000 0.7888
vn 0.6147 -0.5577 0.5577
vn 0.8420 -0.3815 0.3815
vn 0.3179 -0.6704 0.6704
vn 0.3179 -0.0000 0.9481
vn 0.8420 -0.3815 -0.3815
vn 0.6147 -0.5577 -0.5577
vn 0.6147 -0.0000 -0.7888
vn 0.8420 -0.0000 -0.5395
vn 0.3179 -0.0000 -0.9481
vn 0.3179 -0.6704 -0.6704
vn 0.8420 0.3815 -0.3815
vn 0.6147 0.5577 -0.5577
vn 0.6147 0.7888 -0.0000
vn 0.8420 0.5395 -0.0000
vn 0.3179 0.9481 -0.0000
vn 0.3179 0.6704 -0.6704
vn 0.8420 -0.5395 -0.0000
vn 0.6147 -0.7888 -0.0000
vn 0.3179 -0.9481 -0.0000
vn 0.8420 0.3815 0.3815
vn 0.6147 0.5577 0.5577
vn 0.3179 0.6704 0.6704
vn 1.0000 -0.0000 -0.0000
vt 0.030381 0.783709
vt 0.069738 0.680126
vt 0.070312 0.691406
vt 0.018272 0.769573
vt 0.061778 0.676751
vt 0.062466 0.769573
vt 0.061778 0.676751
vt 0.050356 0.783709
vt 0.069738 0.680126
vt 0.054688 0.691406
vt 0.018396 0.712666
vt 0.011063 0.662227
vt 0.022000 0.682250
vt 0.062341 0.712666
vt 0.011063 0.662227
vt 0.061718 0.682250
vt 0.013299 0.772772
vt 0.026208 0.788148
vt 0.054529 0.788148
vt 0.067438 0.772772
vt 0.014002 0.705546
vt 0.066735 0.705546
vt 0.013442 0.769558
vt 0.025687 0.785139
vt 0.055049 0.785139
vt 0.067290 0.769564
vt 0.014000 0.705225
vt 0.013953 0.710158
vt 0.066783 0.710159
vt 0.066737 0.705225
vt 0.059704 0.963094
vt 0.059136 0.838083
vt 0.059704 0.963094
vt 0.059136 0.838083
vt 0.051541 0.805029
vt 0.038853 0.805029
vt 0.035751 0.805314
vt 0.051541 0.805029
vt 0.054897 0.805029
vt 0.048725 0.805314
vt 0.011947 0.941578
vt 0.022000 0.937379
vt 0.011063 0.816899
vt 0.022000 0.823512
vt 0.011947 0.941577
vt 0.061715 0.937380
vt 0.011063 0.816899
vt 0.061718 0.823512
vt 0.051540 0.757471
vt 0.049161 0.754707
vt 0.051540 0.757471
vt 0.037572 0.754707
vt 0.022000 0.802882
vt 0.058008 0.847473
vt 0.033258 0.808683
vt 0.045320 0.808195
vt 0.066890 0.849296
vt 0.066890 0.849296
vt 0.050395 0.808683
vt 0.045320 0.808195
vt 0.061718 0.802882
vt 0.058008 0.847472
vt 0.011387 0.827785
vt 0.022002 0.752723
vt 0.022000 0.831709
vt 0.011387 0.827784
vt 0.061717 0.752723
vt 0.061718 0.831709
vt 0.033320 0.754705
vt 0.045320 0.757469
vt 0.050395 0.754705
vt 0.045320 0.757469
vt 0.068579 0.968519
vt 0.070312 0.984375
vt 0.051541 0.811250
vt 0.069024 0.843648
vt 0.038853 0.811250
vt 0.068579 0.968519
vt 0.054688 0.984375
vt 0.069024 0.843648
vt 0.051541 0.811250
vt 0.054897 0.811250
vt 0.057015 0.823512
vt 0.053705 0.748087
vt 0.051540 0.751250
vt 0.033323 0.748087
vt 0.026703 0.823512
vt 0.051540 0.751250
vt 0.029141 0.808681
vt 0.064818 0.850074
vt 0.054533 0.808682
vt 0.064818 0.850074
vt 0.042372 0.754730
vt 0.029298 0.752723
vt 0.029533 0.831728
vt 0.054185 0.831728
vt 0.054419 0.752723
vt 0.042372 0.754731
vt 0.049200 0.752736
vt 0.037620 0.752736
vt 0.035854 0.802444
vt 0.048750 0.802444
vt 0.009766 0.556641
vt 0.021484 0.556641
vt 0.018973 0.632903
vt 0.021484 0.556641
vt 0.009766 0.556641
vt 0.023383 0.643928
vt 0.015625 0.556641
vt 0.023383 0.637313
vt 0.021484 0.582031
vt 0.009766 0.582031
vt 0.009766 0.603516
vt 0.021484 0.603516
vt 0.009766 0.603516
vt 0.009766 0.582031
vt 0.021484 0.582031
vt 0.021484 0.603516
vt 0.015625 0.582031
vt 0.015625 0.603516
vt 0.021484 0.556641
vt 0.009766 0.556641
vt 0.012358 0.648337
vt 0.015625 0.556641
vt 0.018973 0.648337
vt 0.021484 0.582031
vt 0.009766 0.582031
vt 0.021484 0.603516
vt 0.009766 0.603516
vt 0.015625 0.582031
vt 0.015625 0.603516
vt 0.021484 0.556641
vt 0.009766 0.556641
vt 0.007949 0.637313
vt 0.015625 0.556641
vt 0.012358 0.632903
vt 0.021484 0.582031
vt 0.009766 0.582031
vt 0.021484 0.603516
vt 0.009766 0.603516
vt 0.015625 0.582031
vt 0.015625 0.603516
vt 0.015625 0.556641
vt 0.007949 0.643928
vt 0.015625 0.582031
vt 0.015625 0.603516
vt 0.021492 0.608368
vt 0.009753 0.608368
vt 0.015655 0.665960
vt 0.007830 0.662691
vt 0.010861 0.614501
vt 0.020443 0.614501
vt 0.009753 0.608368
vt 0.021492 0.608368
vt 0.018912 0.658164
vt 0.020442 0.614501
vt 0.010861 0.614501
vt 0.015623 0.608368
vt 0.012440 0.658137
vt 0.014850 0.614501
vt 0.016453 0.614501
vt 0.021492 0.608368
vt 0.009753 0.608368
vt 0.012397 0.673757
vt 0.010861 0.614501
vt 0.020442 0.614501
vt 0.015623 0.608368
vt 0.007830 0.669171
vt 0.014851 0.614501
vt 0.016453 0.614501
vt 0.009753 0.608368
vt 0.021492 0.608368
vt 0.023481 0.669230
vt 0.020442 0.614501
vt 0.010861 0.614501
vt 0.015623 0.608368
vt 0.023481 0.662749
vt 0.016453 0.614501
vt 0.014850 0.614501
vt 0.015623 0.608368
vt 0.018870 0.673784
vt 0.014850 0.614501
vt 0.016453 0.614501
vt 0.011489 0.664220
vt 0.019821 0.664250
vt 0.017389 0.661810
vt 0.013921 0.670110
vt 0.017366 0.670125
vt 0.011489 0.667670
vt 0.019821 0.667701
vt 0.013944 0.661795
vt 0.015636 0.611246
vt 0.021223 0.611246
vt 0.010050 0.611246
vt 0.010050 0.611246
vt 0.021223 0.611246
vt 0.015636 0.611246
vt 0.010050 0.611246
vt 0.021223 0.611246
vt 0.015636 0.611246
vt 0.021223 0.611246
vt 0.010050 0.611246
vt 0.015636 0.611246
s 1
usemtl pistols_mp_1
f 2/4/1 7/17/1 8/18/1 1/1/1
f 4/8/2 9/19/2 10/20/2 3/6/2
f 1/1/3 8/18/3 9/19/3 4/8/3
f 5/11/4 11/21/4 7/17/4 2/4/4
f 3/6/5 10/20/5 12/22/5 6/14/5
f 6/14/6 12/22/6 11/21/6 5/11/6
f 11/21/7 12/22/7 20/30/7 17/27/7
f 12/22/8 10/20/9 16/26/10 19/29/8 20/30/8
f 9/19/11 8/18/12 14/24/13 15/25/14
f 19/29/15 16/26/15 15/25/15 14/24/15 13/23/15 18/28/15
f 8/18/12 7/17/16 13/23/17 14/24/13
f 10/20/9 9/19/11 15/25/14 16/26/10
f 19/29/18 18/28/18 17/27/18 20/30/18
f 7/17/16 11/21/19 17/27/19 18/28/19 13/23/17
f 3/7/8 6/15/8 26/45/8 22/33/8
f 4/9/20 3/7/20 22/33/21 38/78/22
f 5/12/19 2/5/19 21/31/19 25/41/19
f 6/16/23 5/13/23 25/42/23 26/46/23
f 2/5/24 1/2/24 37/73/25 21/31/26
f 1/3/27 4/10/27 38/79/27 37/74/27
f 28/51/8 35/70/8 30/56/8 23/35/8
f 26/47/8 34/66/8 32/62/8 22/34/8
f 44/97/28 42/91/28 32/61/28 34/67/28
f 43/94/29 41/89/29 30/55/29 35/69/29
f 37/76/25 29/54/30 21/32/26
f 39/83/31 44/96/31 34/68/31 26/48/31
f 40/88/32 43/93/33 35/70/34
f 21/32/19 29/54/19 33/63/19 25/43/19
f 36/72/19 27/49/19 24/38/19 31/60/19
f 38/80/35 42/92/35 31/58/35
f 27/50/28 39/84/28 40/86/28 28/52/28
f 30/56/8 37/75/8 23/35/8
f 45/99/28 46/100/28 47/101/28 48/102/28
f 33/64/28 29/53/28 41/89/28 43/94/28
f 36/71/36 31/59/36 42/91/36 44/97/36
f 36/72/37 44/98/38 39/85/39
f 25/44/31 33/65/31 43/95/31 40/87/31
f 22/34/21 32/62/40 38/80/22
f 32/62/40 42/92/41 38/80/22
f 30/57/42 41/90/42 37/76/42
f 41/90/43 29/54/30 37/76/25
f 28/51/44 40/88/32 35/70/34
f 27/49/45 36/72/37 39/85/39
f 31/60/19 24/38/19 38/81/19
f 38/82/28 24/39/28 23/36/28 37/77/28
f 27/50/19 45/99/19 48/102/19 24/40/19
f 24/40/46 48/102/46 47/101/46 23/37/46
f 23/37/8 47/101/8 46/100/8 28/52/8
f 28/52/47 46/100/47 45/99/47 27/50/47
usemtl ammo_mp_1
f 53/115/19 62/142/48 78/176/49 68/153/50
f 49/103/19 53/116/19 54/119/51 51/109/51
f 51/109/51 54/119/51 52/111/28 50/106/28
f 57/126/8 55/121/8 56/124/52 58/130/52
f 58/130/52 56/124/52 50/107/28 52/112/28
f 61/137/53 59/132/53 63/143/54 64/145/54
f 64/145/54 63/143/54 55/122/8 57/127/8
f 53/117/19 49/104/19 60/135/48 62/141/48
f 62/141/48 60/135/48 59/133/53 61/138/53
f 50/108/55 56/125/55 55/123/55 63/144/55 59/134/55 60/136/55 49/105/55 51/110/55
f 52/113/28 54/120/51 70/158/56 65/148/57
f 64/146/54 57/128/8 72/162/58 80/180/59
f 62/142/48 61/139/53 76/172/60 78/176/49
f 61/140/53 64/146/54 80/180/59 76/171/60
f 58/131/52 52/114/28 65/147/57 74/167/61
f 57/129/8 58/131/52 74/167/61 72/163/58
f 54/120/51 53/118/19 68/154/50 70/158/56
f 84/186/62 69/155/63 79/177/64 83/185/65
f 90/192/66 91/194/67 68/153/50 78/176/49
f 86/188/68 81/181/69 73/164/70 85/187/71
f 92/196/72 93/197/73 80/180/59 72/162/58
f 87/189/74 75/168/75 67/150/76 82/184/77
f 94/199/78 95/200/79 74/167/61 65/147/57
f 88/190/80 77/173/81 81/181/69 86/188/68
f 93/197/73 96/202/82 76/171/60 80/180/59
f 89/191/83 71/159/84 69/155/63 84/186/62
f 91/193/67 97/203/85 70/158/56 68/154/50
f 82/184/77 67/150/76 71/159/84 89/191/83
f 97/203/85 94/198/78 65/148/57 70/158/56
f 85/187/71 73/164/70 75/168/75 87/189/74
f 95/200/79 92/195/72 72/163/58 74/167/61
f 83/185/65 79/177/64 77/173/81 88/190/80
f 96/201/82 90/192/66 78/176/49 76/172/60
f 66/149/86 83/185/65 88/190/80
f 66/149/86 85/187/71 87/189/74
f 66/149/86 82/184/77 89/191/83
f 66/149/86 89/191/83 84/186/62
f 66/149/86 88/190/80 86/188/68
f 66/149/86 87/189/74 82/184/77
f 66/149/86 86/188/68 85/187/71
f 66/149/86 84/186/62 83/185/65
f 77/174/81 79/178/64 90/192/66 96/201/82
f 75/169/75 73/165/70 92/195/72 95/200/79
f 71/160/84 67/151/76 94/198/78 97/203/85
f 69/156/63 71/161/84 97/203/85 91/193/67
f 81/182/69 77/175/81 96/202/82 93/197/73
f 67/152/76 75/170/75 95/200/79 94/199/78
f 73/166/70 81/183/69 93/197/73 92/196/72
f 79/179/64 69/157/63 91/194/67 90/192/66
