# Blender 3.4.0
# www.blender.org
mtllib pistol_mp_1_mag_empty.mtl
o pistol_mp_1_mag_empty
v -0.002626 -0.081772 0.006448
v -0.011387 -0.080675 0.015000
v -0.011387 -0.080675 -0.015000
v -0.002626 -0.081772 -0.006448
v 0.049204 0.061581 0.015000
v 0.052965 0.061581 0.006448
v 0.052965 0.061581 -0.006448
v 0.049204 0.061581 -0.015000
v 0.009739 0.061581 0.015000
v 0.009739 0.061581 -0.015000
v -0.050851 -0.075171 0.015000
v -0.050851 -0.075171 -0.015000
v -0.009381 -0.080951 0.018000
v -0.000152 -0.082112 0.008566
v -0.000152 -0.082112 -0.008565
v -0.009381 -0.080951 -0.018000
v -0.055805 -0.074490 0.018000
v -0.055805 -0.074490 -0.018000
v -0.012524 -0.087859 0.018000
v -0.003295 -0.089020 0.008566
v -0.003295 -0.089020 -0.008565
v -0.012524 -0.087859 -0.018000
v -0.057370 -0.077930 0.018000
v -0.055173 -0.081924 0.018000
v -0.055173 -0.081924 -0.018000
v -0.057370 -0.077930 -0.018000
v 0.014739 0.061581 -0.006448
v 0.014739 0.061581 0.006448
v 0.051128 0.069081 0.015000
v 0.055509 0.066581 0.006448
v 0.055509 0.066581 -0.006448
v 0.051128 0.069081 -0.015000
v 0.013241 0.069081 0.015000
v 0.013241 0.069081 -0.015000
v 0.014738 0.066581 0.006448
v 0.014738 0.066581 -0.006448
v 0.057965 0.061581 0.006448
v 0.057965 0.061581 -0.006448
v 0.009739 0.061581 -0.011448
v 0.009739 0.061581 0.011448
v 0.050726 0.056581 0.006448
v 0.050726 0.056581 -0.006448
v 0.055508 0.069081 0.009302
v 0.055508 0.069081 -0.009302
v 0.013241 0.069081 0.009302
v 0.013241 0.069081 -0.009302
v 0.012503 0.056581 -0.006448
v 0.012503 0.056581 0.006448
vn 0.9211 -0.3893 -0.0000
vn -0.0000 -0.0000 -1.0000
vn 0.6614 -0.2806 0.6955
vn -0.9143 0.4051 -0.0000
vn -0.0000 -0.0000 1.0000
vn 0.6614 -0.2806 -0.6955
vn 0.1300 0.9915 0.0056
vn 0.1300 0.9915 -0.0056
vn 0.1364 0.9907 -0.0000
vn 0.1380 0.9904 0.0009
vn 0.1380 0.9904 -0.0009
vn 0.1362 0.9907 -0.0000
vn -0.9102 0.4142 -0.0000
vn 0.4188 -0.1905 -0.8879
vn 0.3044 -0.1385 -0.9424
vn 0.8553 -0.3892 -0.3421
vn 0.8553 -0.3892 0.3421
vn 0.8375 -0.3811 0.3917
vn 0.8375 -0.3811 -0.3917
vn -0.1361 -0.9907 -0.0000
vn 0.4188 -0.1905 0.8879
vn 0.3044 -0.1385 0.9424
vn -0.8763 -0.4818 -0.0000
vn -0.0000 1.0000 -0.0000
vn -0.0000 0.7523 -0.6589
vn 0.7407 -0.0847 0.6664
vn 0.7289 -0.1066 0.6762
vn 0.6876 -0.1764 0.7044
vn -0.9061 0.4230 -0.0000
vn -0.7469 0.0876 -0.6591
vn -0.7854 0.1990 -0.5861
vn -0.7579 0.1157 -0.6420
vn 0.8375 0.4113 0.3599
vn -0.0000 0.7523 0.6589
vn -0.7579 0.1157 0.6420
vn -0.7854 0.1990 0.5861
vn -0.7469 0.0876 0.6591
vn 0.6876 -0.1764 -0.7044
vn 0.7289 -0.1066 -0.6762
vn 0.7407 -0.0847 -0.6664
vn 0.7925 0.0277 -0.6093
vn 0.8375 0.4113 -0.3599
vn 0.7925 0.0277 0.6093
vn -0.7071 -0.0002 -0.7071
vn -0.7071 -0.0002 0.7071
vn -0.9127 0.4086 -0.0000
vn 0.9128 -0.4083 -0.0000
vt 0.052626 0.758654
vt 0.070229 0.636800
vt 0.031326 0.770368
vt 0.061852 0.633259
vt 0.163073 0.559565
vt 0.018530 0.756561
vt 0.061852 0.633259
vt 0.163073 0.559565
vt 0.062207 0.756560
vt 0.069698 0.758654
vt 0.070229 0.636800
vt 0.049416 0.770363
vt 0.367757 0.559241
vt 0.059136 0.838083
vt 0.051541 0.805029
vt 0.038853 0.805029
vt 0.035751 0.805314
vt 0.051541 0.805029
vt 0.054897 0.805029
vt 0.048725 0.805314
vt 0.367757 0.559241
vt 0.059136 0.838083
vt 0.346573 0.511169
vt 0.011063 0.816899
vt 0.022000 0.823512
vt 0.346573 0.511169
vt 0.011063 0.816899
vt 0.061718 0.823512
vt 0.022000 0.642793
vt 0.148549 0.511004
vt 0.018393 0.704552
vt 0.061718 0.642793
vt 0.148549 0.511005
vt 0.062343 0.704553
vt 0.014506 0.760077
vt 0.026541 0.774121
vt 0.054195 0.774122
vt 0.066225 0.760085
vt 0.014028 0.709884
vt 0.066705 0.709889
vt 0.014171 0.758007
vt 0.025577 0.771576
vt 0.055156 0.771578
vt 0.066559 0.758015
vt 0.013999 0.716080
vt 0.013954 0.717917
vt 0.066780 0.717919
vt 0.066733 0.716084
vt 0.051540 0.757471
vt 0.049161 0.754707
vt 0.051540 0.757471
vt 0.037572 0.754707
vt 0.022000 0.802882
vt 0.058008 0.847473
vt 0.033258 0.808683
vt 0.045320 0.808195
vt 0.066890 0.849296
vt 0.066890 0.849296
vt 0.050395 0.808683
vt 0.045320 0.808195
vt 0.061718 0.802882
vt 0.058008 0.847472
vt 0.011387 0.827785
vt 0.022002 0.752723
vt 0.022000 0.831709
vt 0.011387 0.827784
vt 0.061717 0.752723
vt 0.061718 0.831709
vt 0.033320 0.754705
vt 0.045320 0.757469
vt 0.050395 0.754705
vt 0.045320 0.757469
vt 0.052626 0.948512
vt 0.051541 0.811250
vt 0.069024 0.843648
vt 0.038853 0.811250
vt 0.069698 0.948512
vt 0.069024 0.843648
vt 0.051541 0.811250
vt 0.054897 0.811250
vt 0.057015 0.823512
vt 0.053705 0.748087
vt 0.051540 0.751250
vt 0.033323 0.748087
vt 0.026703 0.823512
vt 0.051540 0.751250
vt 0.035854 0.802444
vt 0.048750 0.802444
vt 0.029141 0.808681
vt 0.064818 0.850074
vt 0.054533 0.808682
vt 0.064818 0.850074
vt 0.042372 0.754730
vt 0.029298 0.752723
vt 0.029533 0.831728
vt 0.054185 0.831728
vt 0.054419 0.752723
vt 0.042372 0.754731
vt 0.049200 0.752736
vt 0.037620 0.752736
s 1
usemtl pistols_mp_1
f 4/10/1 38/77/1 37/73/1 1/1/1
f 28/51/2 35/70/2 30/56/2 6/15/2
f 1/2/3 37/75/3 5/14/3 2/4/3
f 11/29/4 9/25/4 40/85/4 39/81/4 10/28/4 12/32/4
f 2/5/5 5/13/5 9/23/5 11/30/5
f 3/7/6 8/22/6 38/78/6 4/11/6
f 12/33/2 10/26/2 8/21/2 3/8/2
f 2/6/7 13/35/7 14/36/7 1/3/7
f 4/12/8 15/37/8 16/38/8 3/9/8
f 1/3/9 14/36/9 15/37/9 4/12/9
f 11/31/10 17/39/10 13/35/10 2/6/10
f 3/9/11 16/38/11 18/40/11 12/34/11
f 12/34/12 18/40/12 17/39/12 11/31/12
f 17/39/13 18/40/13 26/48/13 23/45/13
f 18/40/2 16/38/14 22/44/15 25/47/2 26/48/2
f 15/37/16 14/36/17 20/42/18 21/43/19
f 25/47/20 22/44/20 21/43/20 20/42/20 19/41/20 24/46/20
f 14/36/17 13/35/21 19/41/22 20/42/18
f 16/38/14 15/37/16 21/43/19 22/44/15
f 25/47/23 24/46/23 23/45/23 26/48/23
f 13/35/21 17/39/5 23/45/5 24/46/5 19/41/22
f 10/27/2 34/66/2 32/62/2 8/22/2
f 47/99/24 48/100/24 41/87/24 42/88/24
f 46/97/24 44/91/24 32/61/24 34/67/24
f 45/94/25 43/89/25 30/55/25 35/69/25
f 37/75/26 29/54/27 5/14/28
f 39/81/29 46/96/29 34/68/29 10/28/29
f 40/86/30 45/93/31 35/70/32
f 5/14/5 29/54/5 33/63/5 9/24/5
f 36/72/5 27/49/5 7/18/5 31/60/5
f 38/78/33 44/92/33 31/58/33
f 27/50/24 39/82/24 40/84/24 28/52/24
f 30/56/2 37/74/2 6/15/2
f 33/64/24 29/53/24 43/89/24 45/94/24
f 36/71/34 31/59/34 44/91/34 46/97/34
f 36/72/35 46/98/36 39/83/37
f 9/25/29 33/65/29 45/95/29 40/85/29
f 8/22/38 32/62/39 38/78/40
f 32/62/39 44/92/41 38/78/40
f 30/57/42 43/90/42 37/75/42
f 43/90/43 29/54/27 37/75/26
f 28/51/44 40/86/30 35/70/32
f 27/49/45 36/72/35 39/83/37
f 31/60/5 7/18/5 38/79/5
f 38/80/24 7/19/24 6/16/24 37/76/24
f 27/50/5 47/99/5 42/88/5 7/20/5
f 7/20/46 42/88/46 41/87/46 6/17/46
f 6/17/2 41/87/2 48/100/2 28/52/2
f 28/52/47 48/100/47 47/99/47 27/50/47
