# Blender 3.4.0
# www.blender.org
mtllib screwdriver_mp_2_1.mtl
o screwdriver_mp_2_1
v 0.007781 0.013482 0.010000
v -0.007787 0.013482 0.010000
v -0.007787 -0.013482 0.010000
v -0.015571 -0.000000 0.010000
v 0.007781 -0.013482 0.010000
v 0.015564 -0.000000 0.010000
v 0.009825 0.017023 0.005000
v -0.009831 0.017023 0.005000
v -0.009831 -0.017023 0.005000
v -0.019659 -0.000000 0.005000
v 0.019653 -0.000000 0.005000
v 0.008297 -0.014372 -0.000000
v -0.008303 -0.014372 -0.000000
v -0.016603 -0.000000 -0.000000
v 0.009825 -0.017023 0.005000
v 0.016596 -0.000000 -0.000000
v 0.008297 0.014376 -0.000000
v -0.008303 0.014372 -0.000000
v 0.019216 0.000000 0.020000
v 0.009606 -0.016644 0.020000
v 0.009606 0.016644 0.020000
v -0.019222 -0.000000 0.020000
v -0.009613 -0.016644 0.020000
v -0.009613 0.016644 0.020000
v 0.004757 -0.008244 0.138000
v 0.009606 -0.016644 0.128000
v 0.019216 -0.000000 0.128000
v 0.009517 -0.000000 0.138000
v -0.009523 -0.000000 0.138000
v -0.019222 -0.000000 0.128000
v -0.009613 -0.016644 0.128000
v -0.004763 -0.008244 0.138000
v 0.009606 0.016644 0.128000
v 0.004757 0.008244 0.138000
v -0.004763 0.008244 0.138000
v -0.009613 0.016644 0.128000
v 0.001001 0.003396 -0.000000
v -0.001001 0.003396 -0.000000
v 0.001001 -0.003402 -0.000000
v -0.001001 -0.003402 -0.000000
v -0.001001 0.003396 -0.114000
v -0.001001 -0.003402 -0.114000
v 0.003348 -0.001003 -0.114000
v 0.003348 0.000997 -0.114000
v -0.003347 0.000997 -0.114000
v -0.003347 -0.001003 -0.114000
v 0.001000 0.003396 -0.114000
v 0.001000 -0.003402 -0.114000
v 0.001000 0.000997 -0.117000
v 0.001000 -0.001003 -0.117000
v -0.001000 -0.001003 -0.117000
v -0.001000 0.000997 -0.117000
v 0.003348 -0.001003 -0.124000
v 0.003348 0.000997 -0.124000
v -0.003347 0.000997 -0.124000
v -0.003347 -0.001003 -0.124000
v -0.001000 0.000997 -0.127000
v 0.001000 0.000997 -0.127000
v 0.001000 -0.001003 -0.127000
v -0.001000 -0.001003 -0.127000
v -0.001000 0.003396 -0.124000
v 0.001000 0.003396 -0.124000
v 0.001000 -0.003402 -0.124000
v -0.001000 -0.003402 -0.124000
v 0.003348 0.000997 -0.000000
v -0.003348 0.000997 -0.000000
v -0.003348 -0.001003 -0.000000
v 0.003348 -0.001003 -0.000000
vn 0.8257 0.4767 -0.3015
vn -0.0000 0.9535 -0.3015
vn -0.7653 -0.4419 -0.4680
vn -0.0000 -0.0000 -1.0000
vn 0.7653 -0.4419 -0.4680
vn -0.8257 -0.4767 -0.3015
vn -0.8257 0.4767 -0.3015
vn -0.0000 0.8161 0.5779
vn -0.0000 -0.8161 0.5779
vn -0.7068 -0.4080 0.5779
vn -0.7068 0.4080 0.5779
vn 0.7068 0.4080 0.5779
vn -0.0000 -0.8836 -0.4683
vn -0.0001 0.8837 -0.4681
vn -0.7653 0.4419 -0.4680
vn 0.7654 0.4419 -0.4679
vn 0.8257 -0.4767 -0.3015
vn -0.0000 -0.9535 -0.3015
vn 0.7068 -0.4080 0.5779
vn -0.0000 -1.0000 -0.0000
vn -0.8660 -0.5000 -0.0000
vn -0.0000 -0.0000 1.0000
vn 0.8660 0.5000 -0.0000
vn -0.0000 1.0000 -0.0000
vn -0.8660 0.5000 -0.0000
vn 0.6631 -0.3829 0.6432
vn -0.6631 -0.3829 0.6432
vn 0.6631 0.3829 0.6432
vn -0.6631 0.3829 0.6432
vn -0.0000 0.7657 0.6432
vn -0.0000 -0.7657 0.6432
vn 0.8660 -0.5000 -0.0000
vn -0.6239 0.6102 -0.4882
vn -0.6239 -0.6102 -0.4882
vn -0.7149 0.6993 -0.0000
vn 0.6238 -0.6104 -0.4881
vn 0.7148 -0.6993 -0.0000
vn 1.0000 -0.0000 -0.0000
vn -1.0000 -0.0002 -0.0001
vn 0.6238 0.6104 -0.4881
vn -0.0000 0.7810 -0.6245
vn -0.0000 -0.7810 -0.6245
vn -0.7876 -0.0000 -0.6162
vn 0.7876 -0.0000 -0.6162
vn -1.0000 0.0002 -0.0001
vn -1.0000 -0.0000 -0.0000
vn 0.7148 0.6993 -0.0000
vn -0.7149 -0.6993 -0.0000
vt 0.656764 0.861924
vt 0.591604 0.818606
vt 0.674968 0.851572
vt 0.579699 0.801378
vt 0.643239 0.801378
vt 0.597298 0.851572
vt 0.583663 0.835677
vt 0.688602 0.835677
vt 0.642414 0.780453
vt 0.580524 0.780453
vt 0.615502 0.861924
vt 0.631334 0.818606
vt 0.636133 0.865516
vt 0.611469 0.825235
vt 0.586387 0.825554
vt 0.654487 0.889801
vt 0.571355 0.803801
vt 0.638661 0.915553
vt 0.651582 0.803801
vt 0.683249 0.942838
vt 0.650540 0.777380
vt 0.572397 0.777380
vt 0.652681 0.942718
vt 0.685061 0.889801
vt 0.611469 0.833923
vt 0.690763 0.916369
vt 0.690876 0.916749
vt 0.679599 0.935707
vt 0.679394 0.935705
vt 0.657273 0.935709
vt 0.657137 0.935435
vt 0.698976 0.917025
vt 0.636551 0.825554
vt 0.679602 0.897033
vt 0.680615 0.897068
vt 0.657273 0.897033
vt 0.658417 0.896886
vt 0.646111 0.916373
vt 0.646767 0.915739
vt 0.636133 0.879837
vt 0.557292 0.989583
vt 0.557292 0.963542
vt 0.610662 0.875403
vt 0.557292 0.963542
vt 0.557292 0.989583
vt 0.661603 0.875403
vt 0.557292 0.963542
vt 0.557292 0.989583
vt 0.571355 0.842999
vt 0.700910 0.842999
vt 0.557292 0.989583
vt 0.703125 0.989583
vt 0.588188 0.862622
vt 0.557292 0.989583
vt 0.557292 0.963542
vt 0.684077 0.862622
vt 0.557292 0.963542
vt 0.703125 0.963542
vt 0.611057 0.919791
vt 0.593488 0.931193
vt 0.703125 0.963542
vt 0.630622 0.919813
vt 0.703125 0.989583
vt 0.703125 0.989583
vt 0.616814 0.947535
vt 0.703125 0.963542
vt 0.606841 0.929843
vt 0.587085 0.920102
vt 0.593558 0.911575
vt 0.612696 0.920102
vt 0.703125 0.989583
vt 0.557292 0.989583
vt 0.583594 0.893890
vt 0.703125 0.989583
vt 0.703125 0.963542
vt 0.614549 0.893890
vt 0.604566 0.910751
vt 0.606293 0.931193
vt 0.703125 0.963542
vt 0.703125 0.989583
vt 0.585844 0.947537
vt 0.593488 0.909012
vt 0.595827 0.930700
vt 0.606293 0.909012
vt 0.589388 0.921609
vt 0.703125 0.963542
vt 0.557292 0.963542
vt 0.569814 0.921603
vt 0.374881 0.989483
vt 0.378167 0.989482
vt 0.374933 0.989482
vt 0.378219 0.989483
vt 0.380536 0.815303
vt 0.380621 0.815304
vt 0.367546 0.815144
vt 0.367337 0.815134
vt 0.385578 0.815145
vt 0.385790 0.815135
vt 0.372486 0.815302
vt 0.372571 0.815301
vt 0.372271 0.795750
vt 0.372313 0.795750
vt 0.380846 0.795751
vt 0.380804 0.795750
vt 0.370233 0.795683
vt 0.369976 0.795664
vt 0.382903 0.795684
vt 0.383165 0.795665
vt 0.388045 0.795644
vt 0.364997 0.795642
vt 0.365103 0.795642
vt 0.388151 0.795645
vt 0.377852 0.795833
vt 0.375182 0.795834
vt 0.375241 0.795833
vt 0.377911 0.795834
vt 0.370122 0.989482
vt 0.382919 0.989480
vt 0.382919 0.989482
vt 0.370122 0.989479
s 1
usemtl misc_mp_1
f 1/1/1 21/46/1 19/40/1 6/13/1
f 2/3/2 24/56/2 21/46/2 1/1/2
f 14/31/3 13/29/3 9/20/3 10/23/3
f 13/28/4 14/30/4 18/38/4 17/36/4 16/34/4 12/26/4
f 12/27/5 16/35/5 11/24/5 15/32/5
f 23/53/6 22/49/6 4/7/6 3/6/6
f 4/8/7 22/50/7 24/56/7 2/3/7
f 8/17/8 2/4/8 1/2/8 7/15/8
f 9/19/9 15/33/9 5/12/9 3/5/9
f 3/5/10 4/9/10 10/21/10 9/19/10
f 4/10/11 2/4/11 8/17/11 10/22/11
f 1/2/12 6/14/12 11/25/12 7/15/12
f 13/29/13 12/27/13 15/32/13 9/20/13
f 8/18/14 7/16/14 17/37/14 18/39/14
f 14/31/15 10/23/15 8/18/15 18/39/15
f 16/35/16 17/37/16 7/16/16 11/24/16
f 6/13/17 19/40/17 20/43/17 5/11/17
f 3/6/18 5/11/18 20/43/18 23/53/18
f 5/12/19 15/33/19 11/25/19 6/14/19
f 23/54/20 20/44/20 26/61/20 31/74/20
f 22/51/21 23/55/21 31/75/21 30/71/21
f 29/70/22 28/68/22 34/82/22 35/84/22
f 19/41/23 21/47/23 33/79/23 27/64/23
f 21/48/24 24/57/24 36/86/24 33/80/24
f 24/58/25 22/52/25 30/72/25 36/87/25
f 26/62/26 27/65/26 28/67/26 25/59/26
f 30/73/27 31/76/27 32/77/27 29/69/27
f 27/65/28 33/81/28 34/83/28 28/67/28
f 36/88/29 30/73/29 29/69/29 35/85/29
f 33/81/30 36/88/30 35/85/30 34/83/30
f 31/76/31 26/62/31 25/59/31 32/77/31
f 20/45/32 19/42/32 27/66/32 26/63/32
f 32/78/22 25/60/22 28/68/22 29/70/22
f 41/93/33 52/104/33 45/97/33
f 51/103/34 42/94/34 46/98/34
f 66/118/35 38/90/35 41/93/35 45/97/35
f 43/95/36 48/100/36 50/102/36
f 39/91/20 40/92/20 42/94/20 48/100/20
f 38/90/24 37/89/24 47/99/24 41/93/24
f 68/120/37 39/91/37 48/100/37 43/95/37
f 65/117/38 68/120/38 43/95/38 44/96/38
f 52/104/39 41/93/39 61/113/39 57/109/39
f 48/100/20 42/94/20 64/116/20 63/115/20
f 51/103/20 46/98/20 56/108/20 60/112/20
f 49/101/24 44/96/24 54/106/24 58/110/24
f 47/99/38 49/101/38 58/110/38 62/114/38
f 47/99/40 44/96/40 49/101/40
f 58/110/4 59/111/4 60/112/4 57/109/4
f 57/109/41 61/113/41 62/114/41 58/110/41
f 64/116/42 60/112/42 59/111/42 63/115/42
f 60/112/43 56/108/43 55/107/43 57/109/43
f 53/105/44 59/111/44 58/110/44 54/106/44
f 45/97/24 52/104/24 57/109/24 55/107/24
f 42/94/45 51/103/45 60/112/45 64/116/45
f 46/98/46 45/97/46 55/107/46 56/108/46
f 41/93/24 47/99/24 62/114/24 61/113/24
f 43/95/20 50/102/20 59/111/20 53/105/20
f 44/96/38 43/95/38 53/105/38 54/106/38
f 50/102/38 48/100/38 63/115/38 59/111/38
f 37/89/47 65/117/47 44/96/47 47/99/47
f 40/92/48 67/119/48 46/98/48 42/94/48
f 67/119/46 66/118/46 45/97/46 46/98/46
