# Blender 3.4.0
# www.blender.org
mtllib screwdriver_mp_1_1.mtl
o screwdriver_mp_1_1
v 0.007781 0.013482 0.010000
v -0.007787 0.013482 0.010000
v -0.007787 -0.013482 0.010000
v -0.015571 -0.000000 0.010000
v 0.007781 -0.013482 0.010000
v 0.015564 -0.000000 0.010000
v 0.009825 0.017023 0.005000
v -0.009831 0.017023 0.005000
v -0.009831 -0.017023 0.005000
v -0.019659 -0.000000 0.005000
v 0.019653 -0.000000 0.005000
v 0.008297 -0.014372 -0.000000
v -0.008303 -0.014372 -0.000000
v -0.016603 -0.000000 -0.000000
v 0.009825 -0.017023 0.005000
v 0.016596 -0.000000 -0.000000
v 0.008297 0.014376 -0.000000
v -0.008303 0.014372 -0.000000
v 0.019216 0.000000 0.020000
v 0.009606 -0.016644 0.020000
v 0.009606 0.016644 0.020000
v -0.019222 -0.000000 0.020000
v -0.009613 -0.016644 0.020000
v -0.009613 0.016644 0.020000
v 0.004757 -0.008244 0.138000
v 0.009606 -0.016644 0.128000
v 0.019216 -0.000000 0.128000
v 0.009517 -0.000000 0.138000
v -0.009523 -0.000000 0.138000
v -0.019222 -0.000000 0.128000
v -0.009613 -0.016644 0.128000
v -0.004763 -0.008244 0.138000
v 0.009606 0.016644 0.128000
v 0.004757 0.008244 0.138000
v -0.004763 0.008244 0.138000
v -0.009613 0.016644 0.128000
v 0.003925 -0.000003 -0.000000
v 0.001962 0.003396 -0.000000
v -0.003925 -0.000003 -0.000000
v -0.001962 0.003396 -0.000000
v 0.001962 -0.003402 -0.000000
v -0.001962 -0.003402 -0.000000
v 0.003925 -0.000003 -0.144000
v 0.001962 0.003396 -0.144000
v -0.003925 -0.000003 -0.144000
v -0.001962 0.003396 -0.144000
v -0.001962 -0.003402 -0.144000
v 0.001962 -0.003402 -0.144000
v 0.004564 -0.000003 -0.152960
v 0.002282 0.002279 -0.152960
v -0.004564 -0.000003 -0.152960
v -0.002282 0.002279 -0.152960
v -0.002282 -0.002285 -0.152960
v 0.002282 -0.002285 -0.152960
v -0.004908 0.001959 -0.155200
v -0.004908 -0.001966 -0.155200
v 0.004908 0.001959 -0.155200
v 0.003924 0.000978 -0.177600
v -0.003924 0.000978 -0.177600
v -0.003924 -0.000984 -0.177600
v 0.003924 -0.000984 -0.177600
v 0.004902 -0.001966 -0.155200
vn 0.8257 0.4767 -0.3015
vn -0.0000 0.9535 -0.3015
vn -0.7653 -0.4419 -0.4680
vn -0.0000 -0.0000 -1.0000
vn 0.7653 -0.4419 -0.4680
vn -0.8257 -0.4767 -0.3015
vn -0.8257 0.4767 -0.3015
vn -0.0000 0.8161 0.5779
vn -0.0000 -0.8161 0.5779
vn -0.7068 -0.4080 0.5779
vn -0.7068 0.4080 0.5779
vn 0.7068 0.4080 0.5779
vn -0.0000 -0.8836 -0.4683
vn -0.0001 0.8837 -0.4681
vn -0.7653 0.4419 -0.4680
vn 0.7654 0.4419 -0.4679
vn 0.8257 -0.4767 -0.3015
vn -0.0000 -0.9535 -0.3015
vn 0.7068 -0.4080 0.5779
vn -0.0000 -1.0000 -0.0000
vn -0.8660 -0.5000 -0.0000
vn -0.0000 -0.0000 1.0000
vn 0.8660 0.5000 -0.0000
vn -0.0000 1.0000 -0.0000
vn -0.8660 0.5000 -0.0000
vn 0.6631 -0.3829 0.6432
vn -0.6631 -0.3829 0.6432
vn 0.6631 0.3829 0.6432
vn -0.6631 0.3829 0.6432
vn -0.0000 0.7657 0.6432
vn -0.0000 -0.7657 0.6432
vn 0.8660 -0.5000 -0.0000
vn -0.0000 0.9980 -0.0627
vn -0.0000 0.9923 -0.1237
vn -0.0000 -0.9980 -0.0627
vn -0.0000 -0.9923 -0.1237
vn 0.8364 -0.5482 0.0027
vn 0.8347 -0.5508 0.0028
vn -0.8364 0.5482 0.0027
vn -0.8347 0.5508 0.0028
vn -0.8347 -0.5508 0.0028
vn -0.8364 -0.5482 0.0027
vn 0.8347 0.5508 0.0028
vn 0.8364 0.5482 0.0027
vn -0.8011 -0.5985 0.0056
vn -0.0000 -0.9900 -0.1413
vn 0.8011 -0.5985 0.0056
vn -0.8011 0.5985 0.0056
vn 0.8011 0.5985 0.0056
vn -0.5717 0.5717 0.5885
vn 0.5717 0.5717 0.5885
vn -0.0000 0.9900 -0.1413
vn 0.9990 -0.0010 -0.0437
vn -0.0000 0.9990 -0.0438
vn -0.0000 -0.9990 -0.0438
vn -0.5717 -0.5717 0.5885
vn -0.9990 -0.0000 -0.0439
vn 0.5722 -0.5722 0.5875
vn 0.9886 -0.0015 0.1503
vn -0.9884 -0.0000 0.1516
vt 0.659205 0.861924
vt 0.594045 0.818606
vt 0.677409 0.851572
vt 0.582140 0.801378
vt 0.645680 0.801378
vt 0.599739 0.851572
vt 0.586104 0.835677
vt 0.691044 0.835677
vt 0.644855 0.780453
vt 0.582966 0.780453
vt 0.617943 0.861924
vt 0.633775 0.818606
vt 0.638574 0.865516
vt 0.613910 0.825235
vt 0.588828 0.825554
vt 0.656929 0.889801
vt 0.573797 0.803801
vt 0.641102 0.915553
vt 0.654024 0.803801
vt 0.685691 0.942838
vt 0.652982 0.777380
vt 0.574839 0.777380
vt 0.655122 0.942718
vt 0.687503 0.889801
vt 0.613910 0.833923
vt 0.693205 0.916369
vt 0.693318 0.916749
vt 0.682040 0.935707
vt 0.681836 0.935705
vt 0.659714 0.935709
vt 0.659578 0.935435
vt 0.701417 0.917025
vt 0.638992 0.825554
vt 0.682044 0.897033
vt 0.683056 0.897068
vt 0.659714 0.897033
vt 0.660858 0.896886
vt 0.648553 0.916373
vt 0.649209 0.915739
vt 0.638574 0.879837
vt 0.557292 0.989583
vt 0.557292 0.963542
vt 0.613104 0.875403
vt 0.557292 0.963542
vt 0.557292 0.989583
vt 0.664045 0.875403
vt 0.557292 0.963542
vt 0.557292 0.989583
vt 0.573797 0.842999
vt 0.703351 0.842999
vt 0.557292 0.989583
vt 0.703125 0.989583
vt 0.590630 0.862622
vt 0.557292 0.989583
vt 0.557292 0.963542
vt 0.686519 0.862622
vt 0.557292 0.963542
vt 0.703125 0.963542
vt 0.613498 0.919791
vt 0.595929 0.931193
vt 0.703125 0.963542
vt 0.633063 0.919813
vt 0.703125 0.989583
vt 0.703125 0.989583
vt 0.619255 0.947535
vt 0.703125 0.963542
vt 0.609282 0.929843
vt 0.589526 0.920102
vt 0.595999 0.911575
vt 0.615138 0.920102
vt 0.703125 0.989583
vt 0.557292 0.989583
vt 0.586035 0.893890
vt 0.703125 0.989583
vt 0.703125 0.963542
vt 0.616990 0.893890
vt 0.607008 0.910751
vt 0.608735 0.931193
vt 0.703125 0.963542
vt 0.703125 0.989583
vt 0.588285 0.947537
vt 0.595929 0.909012
vt 0.598269 0.930700
vt 0.608735 0.909012
vt 0.591829 0.921609
vt 0.703125 0.963542
vt 0.557292 0.963542
vt 0.572255 0.921603
vt 0.368622 0.989483
vt 0.373906 0.989483
vt 0.384473 0.989483
vt 0.379189 0.989481
vt 0.373906 0.989481
vt 0.379189 0.989483
vt 0.368622 0.795622
vt 0.373899 0.795834
vt 0.384414 0.795620
vt 0.379138 0.795833
vt 0.379196 0.795834
vt 0.373957 0.795833
vt 0.368981 0.783306
vt 0.344196 0.915144
vt 0.355091 0.784051
vt 0.373394 0.783658
vt 0.348438 0.914218
vt 0.384057 0.783306
vt 0.358819 0.915144
vt 0.353260 0.869670
vt 0.379645 0.783657
vt 0.354577 0.914218
vt 0.379701 0.783658
vt 0.354578 0.914219
vt 0.373450 0.783657
vt 0.348438 0.914220
vt 0.358110 0.911175
vt 0.350523 0.866709
vt 0.358109 0.911175
vt 0.355800 0.866538
vt 0.344906 0.911175
vt 0.352320 0.786980
vt 0.352320 0.817171
vt 0.350523 0.825968
vt 0.346229 0.881013
vt 0.356787 0.881013
vt 0.350865 0.836520
vt 0.356781 0.881013
vt 0.353503 0.836435
vt 0.354957 0.817286
vt 0.353161 0.825882
vt 0.346223 0.881015
vt 0.344914 0.911177
vt 0.357594 0.787211
s 1
usemtl misc_mp_1
f 1/1/1 21/46/1 19/40/1 6/13/1
f 2/3/2 24/56/2 21/46/2 1/1/2
f 14/31/3 13/29/3 9/20/3 10/23/3
f 13/28/4 14/30/4 18/38/4 17/36/4 16/34/4 12/26/4
f 12/27/5 16/35/5 11/24/5 15/32/5
f 23/53/6 22/49/6 4/7/6 3/6/6
f 4/8/7 22/50/7 24/56/7 2/3/7
f 8/17/8 2/4/8 1/2/8 7/15/8
f 9/19/9 15/33/9 5/12/9 3/5/9
f 3/5/10 4/9/10 10/21/10 9/19/10
f 4/10/11 2/4/11 8/17/11 10/22/11
f 1/2/12 6/14/12 11/25/12 7/15/12
f 13/29/13 12/27/13 15/32/13 9/20/13
f 8/18/14 7/16/14 17/37/14 18/39/14
f 14/31/15 10/23/15 8/18/15 18/39/15
f 16/35/16 17/37/16 7/16/16 11/24/16
f 6/13/17 19/40/17 20/43/17 5/11/17
f 3/6/18 5/11/18 20/43/18 23/53/18
f 5/12/19 15/33/19 11/25/19 6/14/19
f 23/54/20 20/44/20 26/61/20 31/74/20
f 22/51/21 23/55/21 31/75/21 30/71/21
f 29/70/22 28/68/22 34/82/22 35/84/22
f 19/41/23 21/47/23 33/79/23 27/64/23
f 21/48/24 24/57/24 36/86/24 33/80/24
f 24/58/25 22/52/25 30/72/25 36/87/25
f 26/62/26 27/65/26 28/67/26 25/59/26
f 30/73/27 31/76/27 32/77/27 29/69/27
f 27/65/28 33/81/28 34/83/28 28/67/28
f 36/88/29 30/73/29 29/69/29 35/85/29
f 33/81/30 36/88/30 35/85/30 34/83/30
f 31/76/31 26/62/31 25/59/31 32/77/31
f 20/45/32 19/42/32 27/66/32 26/63/32
f 32/78/22 25/60/22 28/68/22 29/70/22
f 46/98/33 44/96/33 50/104/34 52/109/34
f 41/93/20 42/94/20 47/99/35 48/100/35
f 48/100/35 47/99/35 53/111/36 54/113/36
f 37/89/32 41/93/32 48/100/37 43/95/38
f 39/91/25 40/92/25 46/98/39 45/97/40
f 42/94/21 39/91/21 45/97/41 47/99/42
f 38/90/23 37/89/23 43/95/43 44/96/44
f 47/99/42 45/97/41 51/106/45 53/111/45
f 54/114/46 53/112/46 56/117/46 62/131/46
f 43/95/38 48/100/37 54/113/47 49/101/47
f 45/97/40 46/98/39 52/109/48 51/106/48
f 44/96/44 43/95/43 49/101/49 50/104/49
f 40/92/24 38/90/24 44/96/33 46/98/33
f 51/107/50 52/110/50 55/115/50
f 50/105/51 49/102/51 57/119/51
f 52/110/52 50/105/52 57/119/52 55/115/52
f 61/128/53 58/121/53 57/120/53 62/132/53
f 61/129/4 60/127/4 59/125/4 58/122/4
f 55/115/54 57/119/54 58/123/54 59/124/54
f 62/131/55 56/117/55 60/126/55 61/130/55
f 53/112/56 51/107/56 56/117/56
f 59/125/57 60/127/57 56/118/57 55/116/57
f 54/114/58 62/131/58 49/102/58
f 62/132/59 57/120/59 49/103/59
f 56/118/60 51/108/60 55/116/60
