# Blender 3.4.0
# www.blender.org
mtllib shotgun_1.mtl
o shotgun_1
v -0.372281 0.047040 -0.005805
v -0.253253 0.047040 -0.051036
v -0.198500 0.047040 -0.086744
v 0.570043 0.054091 -0.010185
v -0.281019 0.047040 0.013089
v -0.371281 0.047040 0.065660
v -0.733184 0.047040 0.150335
v -0.424653 0.018960 -0.029611
v -0.397276 0.018960 -0.010566
v -0.372281 0.018960 -0.005805
v -0.253253 0.018960 -0.051036
v -0.198500 0.018960 -0.086744
v 0.561102 0.018960 -0.086744
v 0.570043 0.010365 -0.080231
v -0.371281 0.018960 0.065660
v -0.399054 0.018960 0.089465
v -0.409965 0.018960 0.072603
v -0.465371 0.018960 0.075116
v -0.686895 0.018960 0.158600
v -0.724918 0.018960 0.159427
v -0.726983 0.018960 0.014492
v -0.717927 0.009600 0.014492
v -0.427295 0.009600 -0.020047
v -0.400986 0.009600 -0.001744
v -0.371431 0.009600 0.003885
v -0.248985 0.009600 -0.042644
v -0.195649 0.009600 -0.077428
v 0.560990 0.018960 -0.006144
v 0.570043 0.011909 -0.010185
v 0.560989 0.009600 -0.016192
v -0.198327 0.009600 -0.016192
v -0.282112 0.009600 0.003071
v -0.281019 0.018960 0.013089
v -0.349408 0.009600 0.038822
v -0.344500 0.018960 0.046813
v -0.379424 0.009600 0.059945
v -0.384552 0.009600 0.078748
v -0.377232 0.018960 0.087481
v -0.394268 0.009600 0.079631
v -0.405024 0.009600 0.063009
v -0.467346 0.009600 0.065836
v -0.688433 0.009600 0.149272
v -0.723667 0.009600 0.149977
v -0.733184 0.018960 0.150335
v 0.560989 0.009600 -0.062530
v 0.560992 0.009600 -0.063478
v -0.205679 0.018960 -0.006144
v -0.225056 0.018960 -0.003430
v -0.251558 0.018960 0.007114
v -0.244254 0.018960 0.002940
v 0.561090 0.009600 -0.077428
v -0.168115 0.016620 -0.077512
v -0.168115 0.016620 -0.051020
v -0.726983 0.047040 0.014492
v -0.717927 0.056400 0.014492
v -0.427295 0.056400 -0.020047
v -0.424653 0.047040 -0.029611
v -0.400986 0.056400 -0.001744
v -0.397276 0.047040 -0.010566
v -0.371431 0.056400 0.003885
v -0.248985 0.056400 -0.042644
v 0.570043 0.055635 -0.080231
v 0.560989 0.056400 -0.016192
v 0.560992 0.047040 -0.006144
v -0.198327 0.056400 -0.016192
v -0.282112 0.056400 0.003071
v -0.349408 0.056400 0.038822
v -0.344500 0.047040 0.046813
v -0.379424 0.056400 0.059945
v -0.384552 0.056400 0.078748
v -0.377232 0.047040 0.087481
v -0.394268 0.056400 0.079631
v -0.399054 0.047040 0.089465
v -0.405024 0.056400 0.063009
v -0.409965 0.047040 0.072603
v -0.467346 0.056400 0.065836
v -0.465371 0.047040 0.075116
v -0.688433 0.056400 0.149272
v -0.686895 0.047040 0.158600
v -0.723667 0.056400 0.149977
v -0.724918 0.047040 0.159427
v -0.225056 0.047040 -0.003430
v -0.251558 0.047040 0.007114
v -0.244254 0.047040 0.002940
v -0.195649 0.056400 -0.077428
v 0.561102 0.047040 -0.086744
v 0.561090 0.056400 -0.077428
v -0.254310 0.056400 -0.003321
v -0.254310 0.009600 -0.003321
v -0.717926 0.047040 0.004780
v -0.717926 0.018960 0.004780
v 0.561086 0.044274 -0.082601
v 0.561086 0.044274 -0.041085
v 0.561086 0.053293 -0.050105
v 0.561086 0.021726 -0.082601
v 0.561086 0.021726 -0.041085
v 0.561086 0.012707 -0.073582
v 0.561086 0.012707 -0.050105
v 0.561086 0.053293 -0.073582
v 0.561086 0.033000 -0.084677
v 0.561086 0.033000 -0.039010
v 0.561086 0.010678 -0.061843
v 0.561086 0.055322 -0.061843
v 0.560986 0.047040 -0.086744
v 0.560986 0.018960 -0.086744
v 0.560988 0.009600 -0.077428
v 0.560989 0.056400 -0.077428
v 0.703395 0.053293 -0.073582
v 0.703395 0.044274 -0.082601
v 0.703395 0.044274 -0.041085
v 0.703395 0.053293 -0.050105
v 0.703395 0.021726 -0.082601
v 0.703395 0.012707 -0.073582
v 0.703395 0.012707 -0.050105
v 0.703395 0.021726 -0.041085
v 0.703395 0.033000 -0.084677
v 0.703395 0.055322 -0.061843
v 0.703395 0.033000 -0.039010
v 0.703395 0.010678 -0.061843
v 0.560989 0.056400 -0.062530
v 0.560992 0.056400 -0.063478
v -0.231085 0.040020 -0.001893
v -0.244254 0.025974 0.002940
v -0.232181 0.025974 0.004549
v -0.233605 0.025974 0.020792
v -0.244254 0.040014 0.002940
v -0.232181 0.040014 0.004549
v -0.233605 0.040014 0.020792
v -0.227621 0.040014 0.022217
v -0.231085 0.025974 -0.001893
v -0.227621 0.025974 0.022217
v -0.263164 0.037680 0.018048
v -0.263164 0.028320 0.018048
v -0.201764 0.018960 0.022763
v -0.192739 0.028320 0.026975
v -0.210503 0.018960 0.031502
v -0.206626 0.028320 0.040862
v -0.247849 0.018960 0.031502
v -0.254237 0.028320 0.040862
v -0.256152 0.018960 0.010282
v -0.207036 0.018960 0.021553
v -0.201764 0.047040 0.022763
v -0.192739 0.037680 0.026975
v -0.210503 0.047040 0.031502
v -0.206626 0.037680 0.040862
v -0.247849 0.047040 0.031502
v -0.254237 0.037680 0.040862
v -0.256152 0.047040 0.010282
v -0.207036 0.047040 0.021553
v -0.244434 0.047040 0.027061
v -0.213088 0.047040 0.027061
v -0.189769 0.047040 -0.006144
v -0.189769 0.018960 -0.006144
v -0.244434 0.018960 0.027061
v -0.213088 0.018960 0.027061
v -0.205679 0.047040 -0.006144
v 0.394464 0.047040 0.005154
v 0.394464 0.018960 0.005154
v 0.404693 0.009600 -0.016085
v 0.404693 0.018960 -0.006749
v 0.131611 0.018960 0.006146
v 0.121943 0.009600 -0.013101
v 0.121943 0.018960 -0.003773
v 0.404693 0.009600 -0.063478
v 0.121943 0.009600 -0.063478
v 0.404693 0.000240 -0.016085
v 0.390789 0.000240 -0.004193
v 0.134571 0.000240 -0.003227
v 0.121943 0.000240 -0.013101
v 0.404693 0.056400 -0.016085
v 0.404693 0.047040 -0.006749
v 0.131611 0.047040 0.006146
v 0.121943 0.056400 -0.013101
v 0.121943 0.047040 -0.003773
v 0.404693 0.065760 -0.016085
v 0.390789 0.065760 -0.004193
v 0.134571 0.065760 -0.003227
v 0.121943 0.065760 -0.013101
v 0.404693 0.000240 -0.054118
v 0.404693 0.002981 -0.060736
v 0.121943 0.000240 -0.054118
v 0.121943 0.002981 -0.060736
v 0.404693 0.056400 -0.063478
v 0.404693 0.065760 -0.054118
v 0.404693 0.063019 -0.060736
v 0.121943 0.065760 -0.054118
v 0.121943 0.056400 -0.063478
v 0.121943 0.063019 -0.060736
vn -0.1596 -0.6963 -0.6998
vn -0.2567 -0.7072 0.6588
vn -0.2570 -0.7074 0.6585
vn 0.5677 -0.0000 0.8232
vn -0.0000 1.0000 -0.0000
vn -0.0000 -1.0000 -0.0000
vn -0.1596 0.6963 -0.6998
vn -0.2567 0.7072 0.6588
vn 0.0901 0.5951 0.7986
vn -1.0000 -0.0000 -0.0000
vn 0.1082 -0.7774 0.6196
vn 0.4961 -0.0000 0.8682
vn -0.5970 -0.5776 -0.5567
vn -0.5970 0.5776 -0.5567
vn 0.0003 1.0000 -0.0000
vn 1.0000 -0.0002 -0.0001
vn 1.0000 -0.0002 -0.0000
vn -0.0006 -1.0000 -0.0000
vn 0.3149 -0.0000 0.9491
vn 0.2257 -0.6974 0.6802
vn 0.3527 0.7409 0.5716
vn 0.4692 -0.0000 0.8831
vn 0.1387 -0.0000 0.9903
vn -0.7314 -0.0000 -0.6820
vn 0.9648 -0.0000 0.2631
vn 0.0453 -0.0000 0.9990
vn -0.8396 -0.0000 0.5432
vn -0.9990 -0.0000 -0.0456
vn -0.0000 0.1811 0.9835
vn -0.0000 -0.0000 1.0000
vn -0.7399 -0.0000 0.6727
vn -0.0000 -0.9854 0.1703
vn -0.0000 0.9854 -0.1703
vn -0.0000 -0.0000 -1.0000
vn 0.2584 0.7071 0.6582
vn 0.2123 0.7071 0.6745
vn 0.2583 0.7071 0.6582
vn 0.0148 0.7083 0.7058
vn -0.2512 0.7071 -0.6610
vn -0.3863 0.7071 -0.5923
vn 0.6822 -0.7071 0.1860
vn -0.0000 0.7317 0.6816
vn -0.7098 -0.7037 -0.0312
vn 0.0901 -0.5951 0.7986
vn 0.3317 0.7071 0.6245
vn 0.4069 0.7071 0.5783
vn 0.6822 0.7071 0.1860
vn 0.0640 0.7071 0.7042
vn -0.5937 0.7071 0.3841
vn 0.0320 0.7071 0.7064
vn -0.2669 -0.0000 -0.9637
vn -0.0686 -0.0000 -0.9976
vn 0.1082 0.7774 0.6196
vn -0.5840 0.6141 0.5309
vn -0.7098 0.7037 -0.0312
vn 0.1615 -0.6035 0.7808
vn -0.5937 -0.7071 0.3841
vn -0.0000 -0.9854 -0.1703
vn 0.5755 -0.0000 0.8178
vn 0.3317 -0.7071 0.6245
vn 0.4038 -0.7071 -0.5805
vn 0.1323 -0.7071 -0.6946
vn -0.3863 -0.7071 -0.5923
vn 0.4069 -0.7071 0.5783
vn 1.0000 -0.0000 -0.0000
vn -0.5840 -0.6141 0.5309
vn 0.1663 0.9860 0.0117
vn -0.2676 -0.0000 0.9635
vn 0.0148 -0.7083 0.7058
vn 0.2123 -0.7071 0.6745
vn 0.2584 -0.7071 0.6582
vn 0.1871 -0.0000 -0.9823
vn 0.3654 -0.0000 0.9309
vn 0.3003 -0.0000 0.9539
vn -0.1887 -0.7071 -0.6815
vn -0.0485 -0.7071 -0.7054
vn -0.3552 -0.0000 -0.9348
vn -0.0000 -0.7317 0.6816
vn 0.3527 -0.7409 0.5716
vn 0.1615 0.6035 0.7808
vn 0.7422 -0.0000 0.6701
vn 0.2257 0.6974 0.6802
vn 0.1663 -0.9860 0.0117
vn 0.4077 -0.0000 0.9131
vn 0.5711 -0.0000 -0.8209
vn -0.0000 -0.1811 0.9835
vn -0.0000 -0.7071 -0.7071
vn -0.0000 -0.7071 0.7071
vn -0.0000 0.7071 -0.7071
vn -0.0000 0.1811 -0.9835
vn 0.0217 -0.0000 0.9998
vn -0.0000 0.9854 0.1703
vn -0.5463 -0.0000 -0.8376
vn -0.0000 -0.1811 -0.9835
vn -0.0000 -0.7054 -0.7088
vn 0.5888 -0.0000 -0.8083
vn -0.0000 0.7071 0.7071
vn -0.2512 -0.7071 -0.6610
vn 0.0320 -0.7071 0.7064
vn 0.4038 0.7071 -0.5805
vn 0.0905 -0.0000 0.9959
vn 0.1323 0.7071 -0.6946
vn 0.0640 -0.7071 0.7042
vn -0.0000 0.7054 -0.7088
vn -0.0001 1.0000 0.0010
vn -0.2316 -0.0000 0.9728
vn 0.9683 -0.0000 -0.2499
vn 0.9858 -0.0000 0.1677
vn -0.8588 -0.0000 0.5123
vn 0.9417 -0.0000 -0.3363
vn 0.6329 0.7284 0.2626
vn -0.9312 -0.0000 0.3644
vn 0.5000 0.7071 0.5000
vn -0.6585 0.7071 0.2577
vn 0.9960 -0.0000 0.0893
vn -0.6585 -0.7071 0.2577
vn 0.5000 -0.7071 0.5000
vn 0.6329 -0.7284 0.2626
vn 0.7071 -0.0000 0.7071
vn -0.6731 -0.0000 -0.7396
vn -0.9988 -0.0000 -0.0489
vn 0.6464 0.3905 0.6555
vn 0.0034 0.4472 0.8944
vn 0.0038 -0.0000 1.0000
vn -0.6108 -0.3919 0.6880
vn 0.6464 -0.3905 0.6555
vn -0.0000 0.9239 -0.3827
vn 0.7584 -0.0000 0.6518
vn -0.7161 -0.0000 0.6980
vn -0.6108 0.3919 0.6880
vn 0.0034 -0.4472 0.8944
vn -0.0000 -0.9239 -0.3827
vn -0.0000 -0.3827 -0.9239
vn -0.0000 0.3827 -0.9239
vn -0.1887 0.7071 -0.6815
vn -0.0485 0.7071 -0.7054
vt 0.257813 0.333333
vt 0.257630 0.775224
vt 0.335122 0.871871
vt 0.335938 0.333333
vt 0.370768 0.948171
vt 0.375000 0.333333
vt 0.374548 0.948171
vt 0.864096 0.790960
vt 0.628103 0.349656
vt 0.869463 0.790942
vt 0.871068 0.179487
vt 0.317045 0.734853
vt 0.320312 0.153846
vt 0.258281 0.622522
vt 0.265625 0.153846
vt 0.033072 0.446953
vt 0.223533 0.826091
vt 0.226563 0.256410
vt 0.241357 0.785398
vt 0.242188 0.256410
vt 0.257813 0.256410
vt 0.257630 0.775224
vt 0.335938 0.256410
vt 0.335122 0.871871
vt 0.370768 0.948171
vt 0.375000 0.256410
vt 0.374548 0.948171
vt 0.866064 0.946483
vt 0.867586 0.256288
vt 0.679525 0.241162
vt 0.867872 0.936280
vt 0.872371 0.230769
vt 0.265625 0.076923
vt 0.258281 0.622522
vt 0.242188 0.076923
vt 0.240199 0.571656
vt 0.234375 0.076923
vt 0.233096 0.607687
vt 0.203125 0.076923
vt 0.197024 0.602316
vt 0.052803 0.423931
vt 0.054687 0.076923
vt 0.056515 0.421318
vt 0.028048 0.422164
vt 0.031250 0.076923
vt 0.059413 0.770698
vt 0.056515 0.780205
vt 0.056515 0.763453
vt 0.056646 0.763290
vt 0.064329 0.754570
vt 0.032600 0.731854
vt 0.221813 0.805655
vt 0.238941 0.766548
vt 0.258183 0.754519
vt 0.337900 0.853941
vt 0.381703 0.907651
vt 0.372624 0.928266
vt 0.376403 0.928266
vt 0.864021 0.780858
vt 0.860667 0.156250
vt 0.858622 0.802187
vt 0.867450 0.076586
vt 0.864096 0.790960
vt 0.628130 0.245070
vt 0.869463 0.790942
vt 0.871094 0.051282
vt 0.864173 0.801433
vt 0.765625 -129.273438
vt -36.443359 -292.572266
vt 0.860282 0.783202
vt 0.858976 0.832748
vt 0.864188 0.803638
vt 0.370880 0.797418
vt 0.380010 0.783585
vt 0.380236 0.820961
vt 0.316333 0.756259
vt 0.317045 0.734853
vt 0.320312 0.076923
vt 0.272521 0.679867
vt 0.281250 0.076923
vt 0.275716 0.662792
vt 0.252979 0.634733
vt 0.249640 0.594555
vt 0.257812 0.076923
vt 0.254406 0.575895
vt 0.243315 0.592668
vt 0.236312 0.628186
vt 0.195738 0.622146
vt 0.051801 0.443864
vt 0.064385 0.439712
vt 0.063462 0.445488
vt 0.028863 0.442292
vt 0.056515 0.446953
vt 0.765625 -129.164062
vt -36.347656 -291.685547
vt 0.541116 0.234773
vt 0.369048 0.156250
vt 0.374952 0.790121
vt 0.366094 0.771976
vt 0.515525 0.234773
vt 0.353478 0.770150
vt 0.480526 0.234773
vt 0.336225 0.747621
vt 0.490171 0.234773
vt 0.489660 0.234808
vt 0.340980 0.756538
vt 0.865068 0.932201
vt 0.865132 0.930381
vt 0.030173 0.770698
vt 0.033072 0.780205
vt 0.033072 0.763453
vt 0.032941 0.763290
vt 0.025257 0.754570
vt 0.032600 0.731854
vt 0.221813 0.805655
vt 0.226563 0.333333
vt 0.223533 0.826091
vt 0.238941 0.766548
vt 0.242188 0.333333
vt 0.241357 0.785398
vt 0.258183 0.754519
vt 0.337900 0.853941
vt 0.679525 0.353488
vt 0.867872 0.936280
vt 0.872384 0.358974
vt 0.864174 0.801433
vt 0.769390 0.784371
vt 236.300781 -58.601562
vt 0.858976 0.832748
vt 0.860282 0.783202
vt 0.864188 0.803638
vt 0.864021 0.780858
vt 0.860667 0.083333
vt 0.858623 0.802187
vt 0.867448 0.154183
vt 0.380236 0.820961
vt 0.380010 0.783585
vt 0.370880 0.797418
vt 0.316333 0.756259
vt 0.272521 0.679867
vt 0.275716 0.662792
vt 0.281250 0.153846
vt 0.252979 0.634733
vt 0.249640 0.594555
vt 0.254406 0.575895
vt 0.257812 0.153846
vt 0.243315 0.592668
vt 0.240199 0.571656
vt 0.242188 0.153846
vt 0.236312 0.628186
vt 0.234375 0.153846
vt 0.233096 0.607687
vt 0.195738 0.622146
vt 0.197024 0.602316
vt 0.203125 0.153846
vt 0.051801 0.443864
vt 0.052803 0.423931
vt 0.054688 0.153846
vt 0.026124 0.445487
vt 0.025202 0.439712
vt 0.028862 0.442358
vt 0.028048 0.422164
vt 0.033072 0.421318
vt 0.031250 0.153846
vt 0.515525 0.356484
vt 0.353478 0.770150
vt 0.480526 0.356484
vt 0.336225 0.747621
vt 0.490171 0.356484
vt 0.489707 0.356484
vt 0.340981 0.756539
vt 0.372624 0.928266
vt 0.381703 0.907651
vt 0.376403 0.928266
vt 0.866064 0.946483
vt 0.867587 0.333456
vt 0.865068 0.932201
vt 0.865132 0.930381
vt 0.334433 0.769917
vt 0.334433 0.769917
vt 0.033072 0.780205
vt 0.029839 0.333333
vt 0.032600 0.752607
vt 0.056515 0.780205
vt 0.029839 0.256410
vt 0.032600 0.752607
vt 0.868570 0.945222
vt 0.868455 0.906947
vt 0.868570 0.923755
vt 0.868570 0.871667
vt 0.868570 0.944170
vt 0.868049 0.945222
vt 0.868455 0.855664
vt 0.873938 0.872719
vt 0.873938 0.851252
vt 0.869684 0.924807
vt 0.872304 0.871667
vt 0.868570 0.924807
vt 0.868455 0.881306
vt 0.868570 0.898237
vt 0.873938 0.898237
vt 0.870994 0.898237
vt 0.868570 0.898237
vt 0.867110 0.333333
vt 0.868944 0.951656
vt 0.867110 0.256410
vt 0.868944 0.951656
vt 0.765625 -127.804688
vt -36.472656 -292.632812
vt 0.860280 0.907495
vt 0.868914 0.930901
vt 0.769390 0.902866
vt 236.648438 -58.562500
vt 0.860280 0.907495
vt 0.868914 0.930901
vt 0.968164 0.924807
vt 0.956364 0.524586
vt 0.968164 0.945222
vt 0.968278 0.906947
vt 0.962949 0.502975
vt 0.968164 0.923755
vt 0.932639 0.502975
vt 0.968164 0.871667
vt 0.968164 0.944170
vt 0.939224 0.524586
vt 0.968164 0.945222
vt 0.968278 0.855664
vt 0.962949 0.448948
vt 0.968164 0.924807
vt 0.956364 0.427337
vt 0.968164 0.871667
vt 0.939224 0.427337
vt 0.968164 0.872719
vt 0.968164 0.851252
vt 0.932639 0.448948
vt 0.968278 0.881306
vt 0.964464 0.475962
vt 0.968164 0.898237
vt 0.947794 0.529449
vt 0.968164 0.898237
vt 0.931124 0.475962
vt 0.968164 0.898237
vt 0.947794 0.422474
vt 0.769390 0.874037
vt 236.101562 -58.453125
vt 0.349554 0.766866
vt 0.340980 0.756538
vt 0.348840 0.753101
vt 0.347913 0.718393
vt 0.340980 0.756538
vt 0.348840 0.753101
vt 0.347913 0.718393
vt 0.351809 0.715349
vt 0.349554 0.766866
vt 0.351809 0.715349
vt 0.328125 0.153846
vt 0.328669 0.724256
vt 0.420086 0.315635
vt 0.328125 0.076923
vt 0.328669 0.724256
vt 0.420086 0.273767
vt 0.368643 0.714182
vt 0.413660 0.231899
vt 0.407919 0.273767
vt 0.534745 0.234773
vt 0.401750 0.231899
vt 0.362953 0.695508
vt 0.539865 0.275343
vt 0.388994 0.273767
vt 0.485424 0.234773
vt 0.401750 0.231899
vt 0.338640 0.695508
vt 0.388993 0.273767
vt 0.476987 0.275343
vt 0.430671 0.231899
vt 0.333234 0.740851
vt 0.539324 0.234773
vt 0.365211 0.716767
vt 0.413660 0.357503
vt 0.368643 0.714182
vt 0.407919 0.315635
vt 0.401750 0.357503
vt 0.534745 0.356484
vt 0.362953 0.695508
vt 0.539865 0.315914
vt 0.388994 0.315635
vt 0.338640 0.695508
vt 0.401750 0.357503
vt 0.485424 0.356484
vt 0.388993 0.315635
vt 0.476987 0.315914
vt 0.333234 0.740851
vt 0.430671 0.357503
vt 0.539324 0.356484
vt 0.365211 0.716767
vt 0.340863 0.704998
vt 0.489934 0.356484
vt 0.361271 0.704998
vt 0.531332 0.356484
vt 0.453112 0.356994
vt 0.453064 0.357503
vt 0.376452 0.761369
vt 0.453064 0.231900
vt 0.376452 0.761369
vt 0.453112 0.232408
vt 0.489934 0.234773
vt 0.340863 0.704998
vt 0.361271 0.704998
vt 0.531332 0.234773
vt 0.541116 0.356484
vt 0.369048 0.083333
vt 0.374952 0.790121
vt 0.366094 0.771976
vt 0.745514 0.790156
vt 0.746249 0.143958
vt 0.592113 0.845706
vt 0.746249 0.086811
vt 0.592113 0.804033
vt 0.745514 0.790156
vt 0.602953 0.788729
vt 0.599211 0.804033
vt 0.588189 0.086811
vt 0.592691 0.844845
vt 0.588984 0.785392
vt 0.602301 0.859978
vt 0.598776 0.844845
vt 0.624263 0.781140
vt 0.762606 0.898457
vt 0.624243 0.869465
vt 0.579632 0.898457
vt 0.602496 0.774919
vt 0.750602 0.808005
vt 0.594236 0.773285
vt 0.742993 0.783635
vt 0.743322 0.835034
vt 0.594732 0.874578
vt 0.591313 0.781656
vt 0.590992 0.830398
vt 0.601764 0.873355
vt 0.584287 0.801889
vt 0.602953 0.861011
vt 0.599211 0.845706
vt 0.588984 0.785392
vt 0.588189 0.143958
vt 0.592691 0.804368
vt 0.602301 0.789235
vt 0.598776 0.804368
vt 0.602496 0.874821
vt 0.750602 0.808005
vt 0.594236 0.876454
vt 0.743322 0.835034
vt 0.742993 0.783635
vt 0.590992 0.830398
vt 0.591313 0.781656
vt 0.594732 0.774634
vt 0.601764 0.775858
vt 0.584287 0.801889
vt 0.619597 0.768829
vt 0.750482 0.885939
vt 0.622707 0.771814
vt 0.750452 0.905119
vt 0.762606 0.898457
vt 0.619629 0.881079
vt 0.583891 0.885939
vt 0.622669 0.878407
vt 0.583800 0.905119
vt 0.579632 0.898457
vt 0.624263 0.868599
vt 0.762606 0.898457
vt 0.619597 0.880910
vt 0.750482 0.885939
vt 0.622707 0.877925
vt 0.750452 0.905119
vt 0.762606 0.898457
vt 0.619629 0.768134
vt 0.583891 0.885939
vt 0.624243 0.779748
vt 0.579632 0.898457
vt 0.622669 0.770805
vt 0.583800 0.905119
vt 0.579632 0.898457
s 0
usemtl shotgun_1
f 13/28/1 14/31/1 51/107/1
f 30/67/2 29/63/3 28/59/3
f 148/292/4 140/276/4 49/102/4 83/168/4
f 61/122/5 88/179/5 65/138/5 85/172/5
f 26/55/6 89/180/6 32/76/6
f 86/175/7 87/177/7 62/124/7
f 63/126/8 64/132/8 4/8/8
f 148/292/9 5/12/9 132/257/9
f 107/212/10 120/244/10 63/127/10
f 61/122/5 66/139/5 88/179/5
f 140/276/11 33/77/11 32/76/11 89/180/11
f 50/104/12 84/169/12 83/167/12 49/102/12
f 91/184/13 22/50/13 21/46/13
f 90/181/14 54/109/14 55/113/14
f 107/213/15 63/128/15 121/245/15
f 106/208/16 30/68/17 45/94/17
f 46/95/18 30/69/18 106/209/18
f 69/143/5 67/140/5 60/121/5
f 25/54/6 34/79/6 36/82/6
f 84/170/19 50/105/19 48/100/19 82/165/19
f 48/101/20 50/106/20 89/180/20
f 88/179/21 148/292/21 83/168/21 84/171/21
f 5/13/22 68/142/22 35/80/22 33/78/22
f 31/73/6 89/180/6 26/55/6 27/57/6
f 156/310/23 82/165/23 48/100/23 47/96/23
f 54/110/24 90/181/24 91/184/24 21/47/24
f 6/15/25 71/146/25 38/84/25 15/33/25
f 17/37/26 75/151/26 77/155/26 18/39/26
f 73/149/27 75/151/27 17/37/27 16/35/27
f 7/16/28 54/111/28 21/48/28 44/93/28
f 110/221/29 93/189/29 101/200/29 118/240/29
f 28/60/30 64/133/30 156/311/30 47/97/30
f 20/43/31 81/163/31 7/16/31 44/93/31
f 114/231/32 98/197/32 102/202/32 119/242/32
f 108/216/33 99/198/33 103/203/33 117/238/33
f 3/6/34 104/204/34 105/206/34 12/26/34
f 43/92/6 22/51/6 42/89/6
f 76/153/35 78/156/36 79/157/36 77/154/37
f 79/157/38 78/156/38 80/161/38 81/162/38
f 1/2/39 60/121/39 61/122/39 2/3/39
f 2/3/40 61/122/40 85/172/40 3/5/40
f 37/83/41 36/82/41 15/34/41 38/85/41
f 156/312/42 64/134/42 63/129/42 65/136/42
f 22/50/43 43/90/43 44/93/43 21/49/43
f 140/276/44 133/260/44 33/77/44
f 5/12/45 66/139/45 67/140/45 68/141/45
f 6/14/46 68/141/46 67/140/46 69/143/46
f 6/14/47 69/143/47 70/144/47 71/145/47
f 73/148/48 71/145/48 70/144/48 72/147/48
f 75/152/49 73/148/49 72/147/49 74/150/49
f 75/152/50 74/150/50 76/153/50 77/154/50
f 90/182/51 57/116/52 8/18/52 91/185/51
f 66/139/53 5/12/53 148/292/53 88/179/53
f 7/16/54 81/163/54 80/159/54
f 7/16/55 80/160/55 55/113/55 54/112/55
f 66/139/5 61/122/5 60/121/5 67/140/5
f 78/156/5 55/114/5 80/161/5
f 107/214/5 85/173/5 65/137/5 63/130/5
f 31/73/56 47/99/56 48/101/56 89/180/56
f 17/38/57 40/87/57 39/86/57 16/36/57
f 119/242/58 102/202/58 97/196/58 113/229/58
f 68/142/59 6/15/59 15/33/59 35/80/59
f 58/118/5 56/115/5 76/153/5 74/150/5
f 31/74/6 27/56/6 106/210/6 30/70/6
f 34/79/60 32/76/60 33/77/60 35/81/60
f 9/19/61 24/53/61 23/52/61 8/17/61
f 10/22/62 25/54/62 24/53/62 9/19/62
f 27/57/63 26/55/63 11/24/63 12/25/63
f 15/34/64 36/82/64 34/79/64 35/81/64
f 62/123/65 4/9/65 29/64/65 14/30/65
f 44/93/66 43/91/66 20/43/66
f 58/118/5 74/150/5 69/143/5 60/121/5
f 63/131/67 4/10/67 62/124/67 87/178/67
f 133/259/68 132/256/68 5/13/68 33/78/68
f 76/153/5 56/115/5 55/114/5 78/156/5
f 43/92/69 42/89/69 19/41/69 20/44/69
f 42/89/70 41/88/71 18/40/71 19/41/70
f 59/119/72 1/1/72 10/21/72 9/20/72
f 77/155/73 79/158/74 19/42/74 18/39/73
f 22/51/75 91/186/75 8/17/76 23/52/76
f 1/1/77 2/4/77 11/23/77 10/21/77
f 47/98/78 31/75/78 30/71/78 28/61/78
f 49/103/79 140/276/79 89/180/79 50/106/79
f 82/166/80 156/313/80 65/138/80 88/179/80
f 132/257/81 133/260/81 140/276/81 148/292/81
f 84/171/82 82/166/82 88/179/82
f 30/72/83 51/108/83 14/31/83 29/65/83
f 29/66/84 4/11/84 64/135/84 28/62/84
f 57/116/85 59/119/85 9/20/85 8/18/85
f 118/240/86 101/201/86 96/194/86 115/233/86
f 113/229/87 97/196/87 95/192/87 112/226/87
f 98/197/88 114/231/88 115/234/88 96/195/88
f 92/187/89 99/198/89 108/216/89 109/218/89
f 92/188/90 109/219/90 116/236/90 100/199/90
f 79/158/91 81/164/91 20/45/91 19/42/91
f 117/238/92 103/203/92 94/190/92 111/223/92
f 2/4/93 3/6/93 12/26/93 11/23/93
f 100/199/94 116/236/94 112/227/94 95/193/94
f 39/86/6 40/87/6 36/82/6 37/83/6
f 27/58/95 12/27/95 105/207/95 106/211/95
f 86/176/96 62/125/96 14/32/96 13/29/96
f 110/221/97 111/224/97 94/191/97 93/189/97
f 26/55/98 25/54/98 10/22/98 11/24/98
f 41/88/99 40/87/99 17/38/99 18/40/99
f 118/241/65 115/235/65 114/232/65 119/243/65 113/230/65 112/228/65 116/237/65 109/220/65 108/217/65 117/239/65 111/225/65 110/222/65
f 59/120/100 57/117/100 56/115/100 58/118/100
f 71/146/101 73/149/101 16/35/101 38/84/101
f 36/82/6 40/87/6 24/53/6 25/54/6
f 41/88/6 23/52/6 24/53/6 40/87/6
f 1/2/102 59/120/102 58/118/102 60/121/102
f 16/36/103 39/86/103 37/83/103 38/85/103
f 41/88/6 42/89/6 22/51/6 23/52/6
f 72/147/5 70/144/5 69/143/5 74/150/5
f 32/76/6 34/79/6 25/54/6 26/55/6
f 104/205/104 3/7/104 85/174/104 107/215/104
f 126/250/105 127/251/105 122/246/105
f 123/247/6 130/254/6 124/248/6
f 127/251/5 126/250/5 128/252/5 129/253/5
f 131/255/106 129/253/106 128/252/106 125/249/106
f 124/248/107 127/251/107 129/253/107 131/255/107
f 124/248/6 131/255/6 125/249/6 123/247/6
f 130/254/108 122/246/108 127/251/108 124/248/108
f 125/249/109 128/252/109 126/250/109 123/247/109
f 154/307/110 49/103/110 83/168/110 150/296/110
f 152/300/111 142/279/111 143/281/111
f 83/168/5 148/292/5 146/287/5 150/296/5
f 144/284/5 151/298/5 150/296/5 146/287/5
f 132/258/112 133/261/112 139/273/112 147/290/112
f 143/281/113 142/279/113 144/282/113 145/286/113
f 132/258/114 147/290/114 146/288/114 148/293/114
f 135/264/115 153/303/115 152/301/115 143/281/115
f 138/270/88 136/265/88 137/268/88 139/274/88
f 136/267/6 155/308/6 141/278/6 134/262/6
f 133/261/116 140/275/116 138/271/116 139/273/116
f 136/266/117 134/263/117 135/264/117 137/269/117
f 142/280/5 152/302/5 156/313/5 149/295/5
f 139/274/30 137/268/30 145/285/30 147/291/30
f 47/99/6 153/304/6 134/262/6 141/278/6
f 153/305/118 135/264/118 134/263/118
f 145/285/97 144/283/97 146/289/97 147/291/97
f 149/295/5 151/298/5 144/284/5 142/280/5
f 136/267/6 138/272/6 154/307/6 155/308/6
f 137/269/119 135/264/119 143/281/119 145/286/119
f 150/297/34 151/299/34 155/309/34 154/306/34
f 151/299/120 149/294/120 141/277/120 155/309/120
f 149/295/121 156/313/121 47/99/121 141/278/121
f 138/272/6 140/276/6 49/103/6 154/307/6
f 163/326/10 162/325/10 169/339/10
f 159/320/65 160/321/65 166/331/65
f 179/358/65 180/360/65 164/327/65
f 174/347/10 178/356/10 173/346/10
f 170/341/65 175/348/65 171/342/65
f 183/368/65 185/372/65 184/370/65
f 159/320/65 166/331/65 179/358/65 164/327/65
f 165/329/10 182/365/10 181/363/10
f 171/342/122 175/348/122 176/350/122 157/316/122
f 172/343/123 157/314/123 176/351/123 177/353/123
f 157/315/124 172/344/124 161/322/124 158/317/124
f 168/336/125 161/323/125 163/326/125 169/339/125
f 167/333/126 166/331/126 160/321/126 158/318/126
f 188/379/10 187/377/10 186/375/10
f 170/341/65 183/368/65 184/370/65 175/348/65
f 168/337/6 169/340/6 166/332/6 167/334/6
f 181/363/10 169/339/10 162/325/10 165/329/10
f 184/371/127 185/373/127 188/380/127 186/376/127
f 173/346/10 178/356/10 186/375/10 187/377/10
f 181/364/6 179/359/6 166/332/6 169/340/6
f 171/342/128 157/316/128 158/318/128 160/321/128
f 172/345/129 174/347/129 163/326/129 161/323/129
f 177/354/5 176/352/5 175/349/5 178/357/5
f 174/347/130 172/345/130 177/355/130 178/356/130
f 167/335/131 158/319/131 161/324/131 168/338/131
f 180/361/132 179/359/132 181/364/132 182/366/132
f 164/328/133 180/362/133 182/367/133 165/330/133
f 185/374/134 183/369/134 187/378/134 188/381/134
f 186/376/5 178/357/5 175/349/5 184/371/5
f 55/114/135 56/115/136 57/117/136 90/183/135
l 52 53
