# Blender 3.4.0
# www.blender.org
mtllib walkie_talkie_1.mtl
o walkie_talkie_1
v -0.028179 0.011577 -0.131483
v -0.035205 0.011577 -0.130897
v -0.028179 0.018423 -0.131483
v -0.035205 0.018423 -0.130897
v -0.026608 0.010000 -0.116842
v -0.036776 0.010000 -0.116842
v -0.026608 0.020000 -0.116842
v -0.036776 0.020000 -0.116842
v -0.036063 0.011577 -0.217813
v -0.043088 0.011577 -0.217228
v -0.036063 0.018423 -0.217813
v -0.043088 0.018423 -0.217228
v -0.035488 0.010208 -0.223896
v -0.045324 0.010208 -0.223076
v -0.035488 0.019792 -0.223896
v -0.045324 0.019792 -0.223076
v -0.037628 0.011645 -0.230086
v -0.044513 0.011645 -0.229512
v -0.037628 0.018355 -0.230086
v -0.044513 0.018355 -0.229512
v 0.014413 0.030000 -0.002879
v 0.008044 0.029993 -0.002879
v 0.008316 0.037967 -0.001728
v 0.000740 0.029993 0.000493
v 0.001473 0.037967 0.001428
v -0.003849 0.029993 0.006861
v -0.002743 0.037967 0.007285
v -0.004692 0.029993 0.013885
v -0.003521 0.037967 0.013723
v -0.002257 0.029993 0.020721
v -0.001221 0.037967 0.020168
v 0.002425 0.029993 0.025685
v 0.003003 0.037967 0.024655
v 0.009543 0.029993 0.028307
v 0.009758 0.037967 0.027145
v 0.016754 0.029993 0.027932
v 0.016427 0.037967 0.026797
v 0.023028 0.029993 0.023905
v 0.022176 0.037967 0.023098
v 0.027336 0.029993 0.016975
v 0.026202 0.037967 0.016632
v 0.027805 0.029993 0.010326
v 0.026633 0.037967 0.010490
v 0.025182 0.029993 0.003583
v 0.024193 0.037967 0.004228
v 0.020125 0.029993 -0.000912
v 0.019559 0.037967 0.000120
v 0.014184 0.037967 -0.001728
v -0.031762 0.030000 -0.005374
v -0.015732 0.030000 0.023429
v -0.014451 0.030000 0.022099
v -0.015639 0.030000 -0.005378
v 0.016260 0.032500 0.044618
v 0.019373 0.032500 0.059980
v 0.025162 0.032500 0.062279
v 0.028397 0.032500 0.037930
v 0.024965 0.032500 0.036894
v 0.024914 0.036388 0.037719
v 0.021409 0.032500 0.037507
v 0.021702 0.036388 0.038273
v 0.018467 0.032500 0.039346
v 0.019052 0.036388 0.039929
v 0.017065 0.036388 0.044703
v 0.016393 0.032500 0.054531
v 0.017195 0.036388 0.054363
v 0.019942 0.036388 0.059387
v 0.025160 0.036388 0.061453
v 0.030611 0.032500 0.059895
v 0.029999 0.036388 0.059346
v 0.032739 0.032500 0.054872
v 0.031937 0.036388 0.054774
v 0.032910 0.032500 0.044315
v 0.032103 0.036388 0.044468
v 0.031888 0.032500 0.041846
v 0.031178 0.036388 0.042234
v 0.027989 0.036388 0.038646
v 0.025087 0.030000 0.033829
v 0.018467 0.030000 0.035423
v 0.015402 0.030000 0.038488
v 0.013563 0.030000 0.044986
v 0.013563 0.030000 0.054426
v 0.014176 0.030000 0.057368
v 0.018099 0.030000 0.062762
v 0.024965 0.030000 0.064601
v 0.031708 0.030000 0.062517
v 0.035263 0.030000 0.056142
v 0.035385 0.030000 0.044127
v 0.034405 0.030000 0.040572
v 0.030236 0.030000 0.035546
v 0.025087 0.032500 0.033829
v 0.018467 0.032500 0.035423
v 0.015402 0.032500 0.038488
v 0.013563 0.032500 0.044986
v 0.013563 0.032500 0.054426
v 0.014176 0.032500 0.057368
v 0.018099 0.032500 0.062762
v 0.024965 0.032500 0.064601
v 0.031708 0.032500 0.062517
v 0.035263 0.032500 0.056142
v 0.035385 0.032500 0.044127
v 0.034405 0.032500 0.040572
v 0.030236 0.032500 0.035546
v -0.031741 0.033000 -0.003145
v -0.033975 0.030000 -0.003671
v -0.033890 0.030000 0.021699
v -0.032434 0.030000 0.023429
v -0.031664 0.033000 0.021200
v -0.016680 0.033000 0.021200
v -0.016678 0.033000 -0.003149
v -0.014449 0.030000 -0.003736
v -0.033679 0.030000 -0.106419
v 0.039345 0.030000 -0.008571
v 0.040626 0.030000 -0.009901
v 0.037437 0.030000 -0.106424
v -0.033658 0.033000 -0.104190
v -0.035892 0.030000 -0.104717
v -0.037807 0.030000 -0.010301
v -0.036351 0.030000 -0.008571
v -0.035581 0.033000 -0.010800
v 0.038397 0.033000 -0.010800
v 0.036399 0.033000 -0.104194
v 0.038628 0.030000 -0.104781
v -0.037850 0.030000 -0.067344
v 0.038398 0.033000 -0.067332
v -0.035620 0.033000 -0.067330
v 0.040627 0.030000 -0.067176
v -0.039145 0.030000 -0.110674
v -0.041779 0.023831 -0.116842
v -0.042453 0.030000 -0.107682
v -0.048622 0.023831 -0.110403
v -0.042453 0.030000 0.119878
v -0.048622 0.023831 0.122210
v -0.044695 0.023831 0.126046
v 0.040897 0.030000 0.119878
v 0.043682 0.023831 0.126047
v 0.047066 0.023831 0.122209
v 0.040897 0.030000 -0.107968
v 0.047065 0.023831 -0.110403
v 0.041044 0.023831 -0.116842
v 0.038367 0.030000 -0.110674
v 0.047066 -0.003831 0.122209
v -0.048622 -0.003831 -0.110403
v 0.047065 -0.003831 -0.110403
v 0.047066 0.005000 -0.046211
v 0.047066 0.005000 -0.001598
v 0.055260 0.005000 -0.041011
v 0.055260 0.005000 -0.006446
v 0.047066 0.015000 -0.046211
v 0.047066 0.015000 -0.001598
v 0.055260 0.015000 -0.041011
v 0.055260 0.015000 -0.006446
v 0.047066 0.005000 -0.023904
v 0.052260 0.005000 -0.023729
v 0.052260 0.015000 -0.023729
v 0.047066 0.015000 -0.023904
v -0.039145 -0.010000 -0.110674
v -0.041779 -0.003831 -0.116842
v -0.042453 -0.010000 0.119878
v -0.048622 -0.003831 0.122210
v -0.044695 -0.003831 0.126046
v 0.040897 -0.010000 0.119878
v 0.043682 -0.003831 0.126047
v 0.038367 -0.010000 -0.110674
v 0.041044 -0.003831 -0.116842
v -0.042453 -0.010000 -0.107682
v 0.040897 -0.010000 -0.107968
vn -0.6853 -0.0000 -0.7283
vn 0.7501 -0.0000 0.6614
vn -0.0000 -0.0000 -1.0000
vn -0.0000 -0.0000 1.0000
vn 1.0000 -0.0000 -0.0000
vn -0.6989 -0.0000 0.7152
vn -0.9959 -0.0000 0.0909
vn -0.0037 -0.9940 -0.1092
vn -0.0037 0.9940 -0.1092
vn 0.9943 -0.0000 -0.1067
vn -0.9938 -0.0000 -0.1111
vn 0.0184 0.9750 0.2212
vn -0.0000 1.0000 -0.0000
vn 0.9959 -0.0000 -0.0909
vn -0.0000 -1.0000 -0.0000
vn 0.9451 -0.0000 -0.3267
vn 0.9956 -0.0000 0.0940
vn 0.0184 -0.9750 0.2212
vn -0.9341 -0.0000 0.3571
vn -0.0830 -0.0000 -0.9965
vn -0.0183 -0.9753 -0.2202
vn -0.9922 -0.0000 -0.1250
vn -0.0183 0.9753 -0.2202
vn -0.2126 0.1466 -0.9661
vn -0.6287 0.1476 -0.7635
vn -0.6296 0.1476 -0.7628
vn -0.2119 0.1466 -0.9662
vn -0.9216 0.1467 -0.3594
vn -0.9215 0.1467 -0.3597
vn -0.9830 0.1469 0.1104
vn -0.9831 0.1469 0.1093
vn -0.8445 0.1452 0.5155
vn -0.8434 0.1451 0.5174
vn -0.5442 0.1463 0.8261
vn -0.5468 0.1462 0.8244
vn -0.1489 0.1466 0.9779
vn -0.1477 0.1466 0.9781
vn 0.3026 0.1467 0.9418
vn 0.3040 0.1467 0.9413
vn 0.7050 0.1452 0.6942
vn 0.9411 0.1472 0.3045
vn 0.9408 0.1472 0.3053
vn 0.7044 0.1452 0.6948
vn 0.9780 0.1468 -0.1481
vn 0.9779 0.1468 -0.1485
vn 0.8123 0.1465 -0.5645
vn 0.8115 0.1465 -0.5656
vn 0.4987 0.1458 -0.8544
vn 0.4995 0.1458 -0.8540
vn 0.1636 0.1455 -0.9757
vn 0.1627 0.1455 -0.9759
vn 0.6970 0.2072 0.6865
vn 0.9584 0.2029 0.2007
vn 0.9576 0.2028 0.2048
vn 0.6937 0.2072 0.6898
vn -0.9468 0.2059 0.2472
vn -0.6493 0.2071 0.7318
vn -0.6465 0.2070 0.7342
vn -0.9460 0.2059 0.2502
vn 0.0597 0.2078 -0.9763
vn -0.3490 0.2062 -0.9142
vn -0.7438 0.2078 -0.6353
vn -0.7479 0.2077 -0.6305
vn -0.9619 0.2025 -0.1838
vn -0.9611 0.2024 -0.1882
vn 0.0160 0.2067 0.9783
vn 0.0174 0.2067 0.9783
vn 0.9612 0.2066 -0.1830
vn 0.8303 0.2029 -0.5190
vn 0.8290 0.2029 -0.5211
vn 0.5249 0.2077 -0.8254
vn 0.5279 0.2076 -0.8235
vn -1.0000 -0.0000 -0.0000
vn 0.9916 -0.0000 -0.1291
vn 0.8866 -0.0000 -0.4624
vn 0.6295 -0.0000 0.7770
vn 0.9665 -0.0000 0.2566
vn 0.0190 -0.0000 0.9998
vn -0.9947 -0.0000 0.1025
vn -0.9143 -0.0000 0.4051
vn -0.9905 -0.0000 -0.1375
vn -0.5662 -0.0000 0.8243
vn -0.4889 -0.0000 -0.8723
vn -0.8625 -0.0000 -0.5061
vn 0.5647 -0.0000 -0.8253
vn 0.0427 -0.0000 -0.9991
vn -0.5244 0.5101 -0.6818
vn -0.8025 0.5966 0.0026
vn -0.6342 0.5594 0.5337
vn -0.0000 0.5964 0.8027
vn 0.5782 0.5964 0.5568
vn 0.8027 0.5964 0.0001
vn 0.6581 0.5825 -0.4771
vn -0.0002 0.5964 -0.8027
vn -0.8015 0.5977 -0.0207
vn -0.8028 0.5963 0.0006
vn -0.8014 0.5977 -0.0210
vn 0.8018 0.5973 -0.0207
vn 0.8004 0.5979 -0.0430
vn 0.8017 0.5973 -0.0223
vn -0.0000 0.5965 -0.8026
vn 0.8027 0.5964 -0.0000
vn -0.7998 0.5988 -0.0422
vn 0.7304 -0.0000 -0.6830
vn -0.5018 0.6960 0.5136
vn -0.0000 0.7071 0.7071
vn 0.5304 0.7071 0.4677
vn 0.7071 0.7071 -0.0000
vn 0.5165 0.7071 -0.4830
vn -0.7071 0.7071 -0.0000
vn -0.0000 0.7071 -0.7071
vn -0.4780 0.7118 -0.5146
vn -0.5092 -0.0000 -0.8607
vn -0.5358 -0.0000 0.8444
vn -0.9853 -0.0000 0.1710
vn -0.9853 -0.0000 -0.1710
vn -0.4780 -0.7118 -0.5146
vn -0.5018 -0.6960 0.5136
vn -0.0000 -0.7071 0.7071
vn 0.5304 -0.7071 0.4677
vn 0.7071 -0.7071 -0.0000
vn 0.5165 -0.7071 -0.4830
vn -0.0000 -0.7071 -0.7071
vn -0.7071 -0.7071 -0.0000
vt 0.296653 0.931963
vt 0.292207 0.979276
vt 0.313789 0.979152
vt 0.317850 0.931868
vt 0.315838 0.979326
vt 0.296520 0.955997
vt 0.294585 0.979478
vt 0.317748 0.955903
vt 0.296653 0.931963
vt 0.294303 0.956025
vt 0.317850 0.931868
vt 0.315885 0.955901
vt 0.296604 0.956118
vt 0.317748 0.955903
vt 0.346520 0.930881
vt 0.341296 0.988841
vt 0.343407 0.965416
vt 0.341295 0.988841
vt 0.346520 0.930881
vt 0.344357 0.954879
vt 0.343407 0.965416
vt 0.344357 0.954879
vt 0.011499 0.953484
vt 0.013347 0.932991
vt 0.069107 0.969034
vt 0.070954 0.948541
vt 0.013548 0.953658
vt 0.013245 0.957026
vt 0.070852 0.972576
vt 0.071155 0.969208
vt 0.070954 0.948541
vt 0.013347 0.932991
vt 0.013595 0.930233
vt 0.071202 0.945783
vt 0.015644 0.930407
vt 0.070852 0.972576
vt 0.013245 0.957026
vt 0.073251 0.945957
vt 0.047404 0.971877
vt 0.049847 0.944782
vt 0.049704 0.978431
vt 0.050273 0.972121
vt 0.050339 0.939326
vt 0.049847 0.944782
vt 0.053207 0.939569
vt 0.049704 0.978431
vt 0.026183 0.965155
vt 0.074548 0.943544
vt 0.027530 0.950209
vt 0.072440 0.966927
vt 0.027430 0.973764
vt 0.028191 0.965326
vt 0.028237 0.942369
vt 0.098025 0.945537
vt 0.027530 0.950209
vt 0.095918 0.968921
vt 0.030245 0.942539
vt 0.027430 0.973764
vt 0.048592 0.051014
vt 0.217034 0.051014
vt 0.025102 0.051014
vt 0.217034 0.025173
vt 0.025102 0.025173
vt 0.235733 0.510531
vt 0.187121 0.051014
vt 0.187121 0.025173
vt 0.214847 0.501057
vt 0.158198 0.051014
vt 0.158198 0.025173
vt 0.201979 0.483481
vt 0.132168 0.051014
vt 0.132168 0.025173
vt 0.199608 0.464158
vt 0.105098 0.051014
vt 0.105098 0.025173
vt 0.206626 0.444813
vt 0.080168 0.051014
vt 0.080168 0.025173
vt 0.219519 0.431347
vt 0.051785 0.051014
vt 0.051785 0.025173
vt 0.240134 0.423874
vt 0.025102 0.051014
vt 0.205114 0.051014
vt 0.025102 0.025173
vt 0.205114 0.025173
vt 0.260488 0.424918
vt 0.177677 0.051014
vt 0.177677 0.025173
vt 0.278034 0.436020
vt 0.147390 0.051014
vt 0.147390 0.025173
vt 0.290323 0.455427
vt 0.122773 0.051014
vt 0.122773 0.025173
vt 0.291638 0.473860
vt 0.095981 0.051014
vt 0.095981 0.025173
vt 0.284191 0.492654
vt 0.071103 0.051014
vt 0.071103 0.025173
vt 0.270045 0.504983
vt 0.048592 0.025173
vt 0.253643 0.510531
vt 0.103376 0.529247
vt 0.157613 0.433408
vt 0.162207 0.438083
vt 0.157950 0.529404
vt 0.289446 0.326566
vt 0.289446 0.370742
vt 0.279763 0.335264
vt 0.296916 0.335264
vt 0.289446 0.307333
vt 0.306502 0.335264
vt 0.296331 0.335264
vt 0.296181 0.346444
vt 0.295932 0.309432
vt 0.285796 0.335264
vt 0.286662 0.346444
vt 0.287250 0.310885
vt 0.285993 0.366588
vt 0.277079 0.335264
vt 0.289446 0.311407
vt 0.278812 0.346444
vt 0.300965 0.313082
vt 0.279230 0.362434
vt 0.300965 0.326810
vt 0.274163 0.350453
vt 0.289446 0.355073
vt 0.300965 0.354589
vt 0.274492 0.326216
vt 0.300965 0.369038
vt 0.281450 0.346444
vt 0.281504 0.313605
vt 0.296909 0.346444
vt 0.294818 0.308421
vt 0.289446 0.370497
vt 0.313060 0.335264
vt 0.300965 0.368920
vt 0.311248 0.346444
vt 0.307166 0.313709
vt 0.289446 0.356053
vt 0.300965 0.355771
vt 0.312112 0.325180
vt 0.289446 0.325695
vt 0.300965 0.326136
vt 0.312536 0.351041
vt 0.289446 0.318595
vt 0.300965 0.319710
vt 0.310177 0.356649
vt 0.300965 0.309393
vt 0.305291 0.346444
vt 0.304241 0.311864
vt 0.302037 0.365652
vt 0.245933 0.678411
vt 0.226571 0.678411
vt 0.217607 0.678411
vt 0.240485 0.651933
vt 0.240485 0.670086
vt 0.240485 0.696460
vt 0.240485 0.704680
vt 0.225495 0.678411
vt 0.240485 0.719750
vt 0.245575 0.678411
vt 0.240485 0.719065
vt 0.265296 0.678411
vt 0.240485 0.701255
vt 0.240485 0.667689
vt 0.240485 0.657756
vt 0.260993 0.678411
vt 0.240485 0.643713
vt 0.245933 0.638918
vt 0.245933 0.685395
vt 0.226571 0.643371
vt 0.226571 0.685395
vt 0.217607 0.651933
vt 0.217607 0.685395
vt 0.247797 0.651933
vt 0.212228 0.670086
vt 0.247797 0.670086
vt 0.247797 0.696460
vt 0.212228 0.696460
vt 0.214021 0.704680
vt 0.247797 0.704680
vt 0.225495 0.685395
vt 0.225495 0.719750
vt 0.247797 0.719750
vt 0.245575 0.685395
vt 0.245575 0.724888
vt 0.247797 0.719065
vt 0.265296 0.685395
vt 0.265296 0.719065
vt 0.247797 0.701255
vt 0.275694 0.701255
vt 0.247797 0.667689
vt 0.276053 0.667689
vt 0.273184 0.657756
vt 0.247797 0.657756
vt 0.260993 0.643713
vt 0.260993 0.685395
vt 0.247797 0.643713
vt 0.103757 0.521490
vt 0.095950 0.523623
vt 0.095962 0.439412
vt 0.101109 0.433449
vt 0.103959 0.441286
vt 0.154221 0.441251
vt 0.154221 0.521629
vt 0.162227 0.523749
vt 0.095560 0.863340
vt 0.331920 0.545731
vt 0.335582 0.549367
vt 0.325558 0.865608
vt 0.098654 0.857484
vt 0.096898 0.859752
vt 0.090412 0.550601
vt 0.090845 0.548546
vt 0.092042 0.552933
vt 0.328609 0.552385
vt 0.321732 0.858519
vt 0.328712 0.860472
vt 0.089623 0.738135
vt 0.327911 0.738345
vt 0.097211 0.738055
vt 0.335592 0.737833
vt 0.065773 0.888671
vt 0.984375 0.604478
vt 0.984375 0.880597
vt 0.056337 0.909780
vt 0.053916 0.878433
vt 0.984375 0.567164
vt 0.851562 0.873134
vt 0.031818 0.887744
vt 0.053916 0.104347
vt 0.867188 0.410448
vt 0.851562 0.097015
vt 0.031818 0.096371
vt 0.984375 0.388060
vt 0.867188 0.388060
vt 0.045888 0.083238
vt 0.352527 0.104347
vt 0.984375 0.097015
vt 0.362506 0.083238
vt 0.984375 0.074627
vt 0.734375 0.097015
vt 0.374626 0.096371
vt 0.352527 0.879413
vt 0.734375 0.873134
vt 0.867188 0.880597
vt 0.374626 0.887744
vt 0.984375 0.604478
vt 0.867188 0.917910
vt 0.353054 0.909780
vt 0.343458 0.888671
vt 0.867188 0.074627
vt 0.851562 0.097015
vt 0.730248 0.093107
vt 0.867188 0.567164
vt 0.734375 0.873134
vt 0.387441 0.889144
vt 0.851562 0.873134
vt 0.984375 0.880597
vt 0.730248 0.889144
vt 0.135474 0.957577
vt 0.169404 0.951967
vt 0.326111 0.951967
vt 0.135474 0.950174
vt 0.135474 0.984571
vt 0.187667 0.969262
vt 0.135474 0.975994
vt 0.309082 0.968644
vt 0.170600 0.957577
vt 0.169404 0.951967
vt 0.326111 0.951967
vt 0.170600 0.950174
vt 0.170600 0.984571
vt 0.187667 0.934553
vt 0.187667 0.979902
vt 0.309082 0.979903
vt 0.170600 0.975994
vt 0.309082 0.934553
vt 0.247757 0.951967
vt 0.248374 0.969211
vt 0.248374 0.934553
vt 0.248374 0.969675
vt 0.247757 0.951967
vt 0.421395 0.890070
vt 0.867188 0.604478
vt 0.867188 0.880597
vt 0.411959 0.911179
vt 0.409539 0.101082
vt 0.984375 0.410448
vt 0.734375 0.097015
vt 0.387441 0.093107
vt 0.867188 0.388060
vt 0.984375 0.388060
vt 0.401511 0.079973
vt 0.708150 0.101082
vt 0.867188 0.097015
vt 0.718129 0.079973
vt 0.699080 0.890070
vt 0.867188 0.604478
vt 0.984375 0.917910
vt 0.708676 0.911179
vt 0.409539 0.879832
vt 0.708150 0.880812
s 1
usemtl walkie_talkie_1
f 142/258/1 130/231/1 128/227/1 157/288/1
f 135/242/2 162/299/2 141/255/2 136/244/2
f 128/228/3 139/251/3 164/302/3 157/289/3
f 135/242/4 133/238/4 160/295/4 162/299/4
f 141/256/5 143/261/5 138/248/5 136/245/5
f 160/296/6 133/239/6 132/235/6 159/292/6
f 2/5/7 4/14/7 12/35/7 10/27/7
f 2/6/8 1/1/8 5/15/8 6/17/8
f 3/9/9 4/13/9 8/21/9 7/19/9
f 1/2/10 3/10/10 7/20/10 5/16/10
f 4/13/11 2/7/11 6/18/11 8/22/11
f 12/36/12 11/31/12 15/44/12 16/46/12
f 4/14/13 3/11/13 11/32/13 12/37/13
f 3/12/14 1/3/14 9/23/14 11/33/14
f 1/4/15 2/8/15 10/28/15 9/24/15
f 15/43/16 13/39/16 17/47/16 19/53/16
f 11/34/17 9/25/17 13/39/17 15/43/17
f 9/26/18 10/29/18 14/41/18 13/40/18
f 10/30/19 12/38/19 16/45/19 14/42/19
f 17/48/20 18/50/20 20/56/20 19/54/20
f 13/40/21 14/41/21 18/51/21 17/49/21
f 14/42/22 16/45/22 20/57/22 18/52/22
f 16/46/23 15/44/23 19/55/23 20/58/23
f 22/60/24 24/65/25 25/66/26 23/62/27
f 24/65/25 26/68/28 27/69/29 25/66/26
f 26/68/28 28/71/30 29/72/31 27/69/29
f 28/71/30 30/74/32 31/75/33 29/72/31
f 30/74/32 32/77/34 33/78/35 31/75/33
f 32/77/34 34/80/36 35/81/37 33/78/35
f 34/80/36 36/83/38 37/85/39 35/81/37
f 38/88/40 40/91/41 41/92/42 39/89/43
f 40/91/41 42/94/44 43/95/45 41/92/42
f 42/94/44 44/97/46 45/98/47 43/95/45
f 44/97/46 46/100/48 47/101/49 45/98/47
f 46/100/48 21/59/50 48/103/51 47/101/49
f 36/84/38 38/88/40 39/89/43 37/86/39
f 21/59/50 22/61/24 23/63/27 48/103/51
f 108/207/13 109/208/13 103/202/13 107/206/13
f 68/137/52 70/142/53 71/143/54 69/139/55
f 64/129/56 54/110/57 66/132/58 65/130/59
f 57/115/60 59/118/61 60/119/61 58/116/60
f 59/118/61 61/122/62 62/124/63 60/119/61
f 53/109/64 63/127/65 62/125/63 61/123/62
f 53/109/64 64/129/56 65/130/59 63/127/65
f 54/111/57 55/112/66 67/135/67 66/133/58
f 68/138/52 69/140/55 67/135/67 55/112/66
f 70/142/53 72/145/68 73/146/68 71/143/54
f 72/145/68 74/148/69 75/149/70 73/146/68
f 56/113/71 76/151/72 75/149/70 74/148/69
f 56/114/71 57/115/60 58/116/60 76/152/72
f 142/259/73 159/293/73 132/236/73 130/232/73
f 31/76/13 25/67/13 27/70/13 29/73/13
f 35/82/13 48/104/13 23/64/13 33/79/13
f 47/102/13 48/104/13 35/82/13 37/87/13
f 63/128/13 65/131/13 71/144/13 73/147/13
f 43/96/13 45/99/13 39/90/13 41/93/13
f 60/120/13 76/153/13 58/117/13
f 71/144/13 65/131/13 66/134/13 69/141/13
f 66/134/13 67/136/13 69/141/13
f 33/79/13 23/64/13 25/67/13 31/76/13
f 63/128/13 73/147/13 75/150/13 62/126/13
f 62/126/13 75/150/13 76/154/13 60/121/13
f 45/99/13 47/102/13 37/87/13 39/90/13
f 87/168/74 88/169/75 101/198/75 100/195/74
f 85/165/76 86/167/77 99/193/77 98/190/76
f 86/167/77 87/168/74 100/195/74 99/193/77
f 84/164/78 85/166/76 98/191/76 97/188/78
f 81/160/79 82/161/80 95/184/80 94/181/79
f 80/159/81 81/160/79 94/181/79 93/180/81
f 83/162/82 84/164/78 97/188/78 96/185/82
f 99/194/13 100/196/13 101/197/13 102/199/13 90/172/13 91/174/13 92/176/13 93/179/13 94/182/13 95/183/13 96/186/13 97/189/13 98/192/13
f 78/156/83 79/157/84 92/177/84 91/175/83
f 89/170/85 77/155/86 90/173/86 102/200/85
f 88/169/75 89/171/85 102/201/85 101/198/75
f 77/155/86 78/156/83 91/175/83 90/173/86
f 82/161/80 83/163/82 96/187/82 95/184/80
f 79/158/84 80/159/81 93/180/81 92/178/84
f 49/105/87 104/203/87 103/202/87
f 104/203/88 105/204/88 107/206/88 103/202/88
f 105/204/89 106/205/89 107/206/89
f 106/205/90 50/106/90 108/207/90 107/206/90
f 50/106/91 51/107/91 108/207/91
f 51/107/92 110/209/92 109/208/92 108/207/92
f 110/209/93 52/108/93 109/208/93
f 52/108/94 49/105/94 103/202/94 109/208/94
f 124/223/13 121/220/13 115/214/13 125/224/13
f 111/210/87 116/215/87 115/214/87
f 123/222/95 117/216/96 119/218/96 125/224/97
f 117/216/89 118/217/89 119/218/89
f 118/217/90 112/211/90 120/219/90 119/218/90
f 112/211/91 113/212/91 120/219/91
f 126/225/98 122/221/99 121/220/99 124/223/100
f 122/221/93 114/213/93 121/220/93
f 114/213/101 111/210/101 115/214/101 121/220/101
f 113/212/102 126/225/98 124/223/100 120/219/102
f 116/215/103 123/222/95 125/224/97 115/214/103
f 120/219/13 124/223/13 125/224/13 119/218/13
f 143/262/104 164/303/104 139/252/104 138/249/104
f 132/237/105 133/240/105 131/234/105
f 133/240/106 135/243/106 134/241/106 131/234/106
f 135/243/107 136/246/107 134/241/107
f 136/246/108 138/250/108 137/247/108 134/241/108
f 138/250/109 139/253/109 140/254/109 137/247/109
f 130/233/110 132/237/110 131/234/110 129/230/110
f 139/253/111 128/229/111 127/226/111 140/254/111
f 128/229/112 130/233/112 129/230/112 127/226/112
f 134/241/13 137/247/13 140/254/13 127/226/13 129/230/13 131/234/13
f 152/282/13 145/266/13 147/271/13 153/283/13
f 155/286/15 154/285/15 151/279/15 149/274/15
f 147/270/113 145/267/113 149/275/113 151/280/113
f 144/264/114 146/268/114 150/276/114 148/272/114
f 153/283/73 147/271/115 151/281/115 154/284/73
f 146/269/116 153/283/73 154/284/73 150/277/116
f 148/273/15 150/278/15 154/285/15 155/286/15
f 144/265/13 152/282/13 153/283/13 146/269/13
f 166/306/15 161/298/15 158/291/15 165/305/15 156/287/15 163/301/15
f 156/287/117 165/305/117 142/260/117 157/290/117
f 158/291/118 160/297/118 159/294/118
f 158/291/119 161/298/119 162/300/119 160/297/119
f 161/298/120 141/257/120 162/300/120
f 161/298/121 166/306/121 143/263/121 141/257/121
f 166/306/122 163/301/122 164/304/122 143/263/122
f 163/301/123 156/287/123 157/290/123 164/304/123
f 165/305/124 158/291/124 159/294/124 142/260/124
