# Blender 3.4.0
# www.blender.org
mtllib chair_mp_2_4.mtl
o chair_mp_2_4
v -0.195750 0.000000 0.195749
v -0.199687 0.562000 0.199686
v -0.195750 0.000000 0.155251
v -0.199687 0.562000 0.151313
v -0.155252 0.000000 0.195749
v -0.151314 0.562000 0.199686
v -0.155252 0.000000 0.155251
v -0.151314 0.562000 0.151313
v 0.195748 0.000000 -0.155251
v 0.199686 0.562000 -0.151314
v 0.195748 0.000000 -0.195749
v 0.199686 0.562000 -0.199687
v 0.199686 0.562000 0.151313
v 0.195748 0.000000 0.155251
v 0.199686 0.562000 0.199686
v 0.195748 0.000000 0.195749
v 0.151313 0.562000 0.151313
v 0.155251 0.000000 0.155251
v 0.151313 0.562000 0.199686
v 0.155251 0.000000 0.195749
v 0.155251 0.000000 -0.155251
v 0.151313 0.562000 -0.151314
v 0.155251 0.000000 -0.195749
v 0.151313 0.562000 -0.199687
v -0.155252 0.000000 -0.155251
v -0.151314 0.562000 -0.151314
v -0.155252 0.000000 -0.195749
v -0.151314 0.562000 -0.199687
v -0.195750 0.000000 -0.155251
v -0.199687 0.562000 -0.151314
v -0.195750 0.000000 -0.195749
v -0.199687 0.562000 -0.199687
v -0.162002 0.396000 0.184500
v -0.162002 0.432000 0.184500
v -0.162003 0.396000 0.166500
v -0.162002 0.432000 0.166500
v 0.161998 0.396000 0.184500
v 0.161998 0.432000 0.184500
v 0.161998 0.396000 0.166500
v 0.161998 0.432000 0.166500
v -0.162002 0.396000 -0.166500
v -0.162002 0.432000 -0.166500
v -0.162003 0.396000 -0.184500
v -0.162002 0.432000 -0.184500
v 0.161998 0.396000 -0.166500
v 0.161998 0.432000 -0.166500
v 0.161998 0.396000 -0.184500
v 0.161998 0.432000 -0.184500
v -0.184504 0.396000 -0.166500
v -0.184504 0.432000 -0.166500
v -0.166504 0.396000 -0.166500
v -0.166504 0.432000 -0.166500
v -0.184504 0.396000 0.166501
v -0.184504 0.432000 0.166501
v -0.166504 0.396000 0.166501
v -0.166504 0.432000 0.166500
v 0.166496 0.396000 -0.166500
v 0.166496 0.432000 -0.166500
v 0.184496 0.396000 -0.166500
v 0.184496 0.432000 -0.166500
v 0.166496 0.396000 0.166501
v 0.166496 0.432000 0.166501
v 0.184496 0.396000 0.166501
v 0.184496 0.432000 0.166500
v -0.184277 0.562000 0.230344
v -0.230346 0.562000 0.184275
v -0.207312 0.562000 0.224172
v -0.224174 0.562000 0.207309
v -0.230346 0.594000 0.184275
v -0.184277 0.594000 0.230344
v -0.224174 0.594000 0.207309
v -0.207312 0.594000 0.224172
v -0.230347 0.562000 -0.184275
v -0.184278 0.562000 -0.230344
v -0.224175 0.562000 -0.207310
v -0.207312 0.562000 -0.224172
v -0.184277 0.594000 -0.230344
v -0.230346 0.594000 -0.184275
v -0.207312 0.594000 -0.224172
v -0.224174 0.594000 -0.207310
v 0.230342 0.562000 0.184275
v 0.184273 0.562000 0.230344
v 0.224170 0.562000 0.207309
v 0.207308 0.562000 0.224172
v 0.184273 0.594000 0.230344
v 0.230342 0.594000 0.184275
v 0.207308 0.594000 0.224172
v 0.224170 0.594000 0.207309
v 0.184273 0.562000 -0.230344
v 0.230342 0.562000 -0.184275
v 0.207308 0.562000 -0.224172
v 0.224170 0.562000 -0.207310
v 0.230341 0.594000 -0.184275
v 0.184273 0.594000 -0.230344
v 0.224169 0.594000 -0.207310
v 0.207307 0.594000 -0.224172
vn -0.0000 -1.0000 -0.0000
vn -0.0000 -0.0070 1.0000
vn 1.0000 -0.0070 -0.0000
vn -1.0000 -0.0070 -0.0000
vn -0.0000 -0.0070 -1.0000
vn -0.0000 1.0000 -0.0000
vn -0.0000 -0.0000 1.0000
vn -0.0000 -0.0000 -1.0000
vn 0.1305 -0.0000 -0.9914
vn -0.1305 -0.0000 -0.9914
vn 0.1305 -0.0000 0.9914
vn -0.1305 -0.0000 0.9914
vn 0.9914 -0.0000 -0.1305
vn 0.9914 -0.0000 0.1305
vn -1.0000 -0.0000 -0.0000
vn 1.0000 -0.0000 -0.0000
vn -0.9914 -0.0000 0.1305
vn -0.8660 -0.0000 0.5000
vn -0.5000 -0.0000 0.8660
vn 0.5000 -0.0000 0.8660
vn 0.8660 -0.0000 0.5000
vn 0.8660 -0.0000 -0.5000
vn 0.5000 -0.0000 -0.8660
vn -0.9914 -0.0000 -0.1305
vn -0.8660 -0.0000 -0.5000
vn -0.5000 -0.0000 -0.8660
vt 0.694958 0.661625
vt 0.191785 0.661654
vt 0.168941 0.678333
vt 0.607976 0.664573
vt 0.585131 0.681249
vt 0.664960 0.661625
vt 0.168941 0.648333
vt 0.194924 0.661679
vt 0.585131 0.645419
vt 0.611114 0.664592
vt 0.694956 0.631625
vt 0.191785 0.631655
vt 0.184440 0.678333
vt 0.607976 0.628741
vt 0.600629 0.681249
vt 0.664958 0.631625
vt 0.184440 0.648332
vt 0.194924 0.631681
vt 0.600629 0.645418
vt 0.611115 0.628759
vt 0.168465 0.284999
vt 0.193370 0.371670
vt 0.301665 0.371666
vt 0.584655 0.287915
vt 0.609560 0.368754
vt 0.193326 0.371668
vt 0.168465 0.255001
vt 0.271667 0.371666
vt 0.609513 0.368751
vt 0.584654 0.252085
vt 0.611127 0.368755
vt 0.584654 0.645419
vt 0.194939 0.371679
vt 0.168465 0.648334
vt 0.665018 0.371661
vt 0.607985 0.368740
vt 0.584654 0.681249
vt 0.191795 0.371659
vt 0.168465 0.678332
vt 0.695017 0.371662
vt 0.601106 0.645418
vt 0.611126 0.404585
vt 0.184916 0.648332
vt 0.194938 0.401677
vt 0.665017 0.401661
vt 0.601106 0.681250
vt 0.607984 0.404575
vt 0.184916 0.678334
vt 0.191794 0.401660
vt 0.695016 0.401661
vt 0.184916 0.285001
vt 0.193371 0.401667
vt 0.301664 0.401666
vt 0.601106 0.287916
vt 0.609562 0.404584
vt 0.193326 0.401666
vt 0.184916 0.255000
vt 0.271666 0.401666
vt 0.609514 0.404583
vt 0.601106 0.252084
vt 0.184440 0.285001
vt 0.193387 0.631656
vt 0.301661 0.631681
vt 0.600630 0.287915
vt 0.609575 0.628740
vt 0.193335 0.631690
vt 0.184440 0.255000
vt 0.271663 0.631681
vt 0.609525 0.628768
vt 0.600630 0.252085
vt 0.168941 0.285000
vt 0.193386 0.661654
vt 0.301661 0.661678
vt 0.585131 0.287915
vt 0.609574 0.664574
vt 0.193335 0.661688
vt 0.168941 0.255000
vt 0.271663 0.661678
vt 0.609525 0.664598
vt 0.585131 0.252085
vt 0.153334 0.350000
vt 0.320668 0.909230
vt 0.627335 0.309229
vt 0.153334 0.323333
vt 0.153333 -0.349999
vt 0.320669 0.895896
vt 0.627335 0.295896
vt 0.153333 -0.323333
vt -0.086667 0.350000
vt 0.560669 0.909230
vt 0.387335 0.309229
vt -0.086667 0.323333
vt -0.086667 -0.349999
vt 0.560669 0.895896
vt 0.387335 0.295896
vt -0.086666 -0.323333
vt 0.153334 0.350000
vt 0.320679 0.649228
vt 0.627327 0.049229
vt 0.153334 0.323333
vt 0.153333 -0.349999
vt 0.320679 0.635895
vt 0.627326 0.035896
vt 0.153333 -0.323333
vt -0.086667 0.350000
vt 0.560676 0.649227
vt 0.387323 0.049229
vt -0.086667 0.323333
vt -0.086667 -0.349999
vt 0.560676 0.635893
vt 0.387323 0.035896
vt -0.086666 -0.323333
vt 0.153334 0.350000
vt 0.320675 0.775895
vt 0.627331 0.175896
vt 0.153334 0.323333
vt 0.153333 -0.349999
vt 0.320675 0.762562
vt 0.627331 0.162563
vt 0.153333 -0.323333
vt -0.086667 0.350000
vt 0.560671 0.775894
vt 0.387328 0.175896
vt -0.086667 0.323333
vt -0.086667 -0.349999
vt 0.560672 0.762562
vt 0.387328 0.162562
vt -0.086666 -0.323333
vt 0.153334 0.350000
vt 0.320675 0.775895
vt 0.627331 0.175896
vt 0.153334 0.323333
vt 0.153333 -0.349999
vt 0.320675 0.762562
vt 0.627331 0.162563
vt 0.153333 -0.323333
vt -0.086667 0.350000
vt 0.560671 0.775894
vt 0.387328 0.175896
vt -0.086667 0.323333
vt -0.086667 -0.349999
vt 0.560672 0.762562
vt 0.387328 0.162562
vt -0.086666 -0.323333
vt 0.304168 0.943188
vt 0.169834 -0.126296
vt 0.168632 -0.126296
vt 0.270043 0.909063
vt 0.159633 0.125969
vt 0.159633 0.126732
vt 0.287106 0.938616
vt 0.183136 -0.126296
vt 0.185694 -0.126296
vt 0.274615 0.926125
vt 0.159633 0.091844
vt 0.200198 -0.126296
vt 0.677960 0.309063
vt 0.183336 0.125969
vt 0.183336 0.126732
vt 0.643835 0.343188
vt 0.169834 -0.150000
vt 0.168632 -0.150000
vt 0.673388 0.326125
vt 0.183336 0.091844
vt 0.200198 -0.150000
vt 0.660898 0.338616
vt 0.183136 -0.150000
vt 0.185694 -0.150000
vt 0.270043 0.636063
vt 0.159633 0.400495
vt 0.159633 0.399732
vt 0.330166 0.482963
vt 0.304168 0.601937
vt 0.331368 0.482963
vt 0.274615 0.619000
vt 0.159632 0.434620
vt 0.299802 0.482963
vt 0.287106 0.606509
vt 0.316864 0.482963
vt 0.314306 0.482963
vt 0.330166 0.506667
vt 0.643835 0.001938
vt 0.331368 0.506667
vt 0.677960 0.036063
vt 0.183336 0.400495
vt 0.183336 0.399732
vt 0.660898 0.006510
vt 0.316864 0.506667
vt 0.314305 0.506667
vt 0.673388 0.019000
vt 0.183336 0.434620
vt 0.299802 0.506667
vt 0.611294 0.909063
vt -0.092965 -0.399731
vt -0.092965 -0.400495
vt 0.577169 0.943188
vt -0.103167 -0.126296
vt -0.101965 -0.126296
vt 0.606722 0.926125
vt -0.133531 -0.126296
vt -0.092965 -0.434619
vt 0.594231 0.938616
vt -0.119028 -0.126296
vt -0.116469 -0.126296
vt 0.370835 0.343188
vt -0.103167 -0.150000
vt -0.101965 -0.150000
vt 0.336710 0.309063
vt -0.116669 -0.399731
vt -0.116669 -0.400494
vt 0.353772 0.338616
vt -0.119028 -0.150000
vt -0.116469 -0.150000
vt 0.341282 0.326125
vt -0.133531 -0.150000
vt -0.116669 -0.434619
vt 0.603167 0.482963
vt 0.577169 0.601938
vt 0.601965 0.482963
vt 0.611294 0.636063
vt -0.092965 -0.126732
vt -0.092965 -0.125968
vt 0.594231 0.606510
vt 0.616469 0.482963
vt 0.619028 0.482963
vt 0.606722 0.619000
vt -0.092965 -0.091843
vt 0.633532 0.482963
vt 0.336710 0.036063
vt -0.116669 -0.126731
vt -0.116669 -0.125968
vt 0.603167 0.506667
vt 0.370835 0.001938
vt 0.601965 0.506667
vt 0.341282 0.019000
vt -0.116669 -0.091843
vt 0.633532 0.506667
vt 0.353773 0.006510
vt 0.616469 0.506667
vt 0.619028 0.506667
s 1
usemtl wood_6
f 3/6/1 7/16/1 5/11/1 1/1/1
f 5/12/2 6/14/2 2/4/2 1/2/2
f 7/17/3 8/19/3 6/15/3 5/13/3
f 1/3/4 2/5/4 4/9/4 3/7/4
f 3/8/5 4/10/5 8/20/5 7/18/5
f 20/48/4 19/46/4 17/41/4 18/43/4
f 18/44/5 17/42/5 13/31/5 14/33/5
f 16/38/2 15/36/2 19/47/2 20/49/2
f 14/34/3 13/32/3 15/37/3 16/39/3
f 18/45/1 14/35/1 16/40/1 20/50/1
f 23/56/5 24/59/5 12/29/5 11/26/5
f 21/51/4 22/54/4 24/60/4 23/57/4
f 11/27/3 12/30/3 10/24/3 9/21/3
f 9/22/2 10/25/2 22/55/2 21/52/2
f 23/58/1 11/28/1 9/23/1 21/53/1
f 31/76/5 32/79/5 28/69/5 27/66/5
f 29/71/4 30/74/4 32/80/4 31/77/4
f 27/67/3 28/70/3 26/64/3 25/61/3
f 25/62/2 26/65/2 30/75/2 29/72/2
f 31/78/1 27/68/1 25/63/1 29/73/1
f 38/91/6 40/95/6 36/87/6 34/83/6
f 37/89/7 38/92/7 34/84/7 33/81/7
f 35/85/8 36/88/8 40/96/8 39/93/8
f 35/86/1 39/94/1 37/90/1 33/82/1
f 89/217/9 74/172/10 77/181/10 94/232/9
f 85/205/6 87/211/6 88/214/6 86/208/6 93/229/6 95/235/6 96/238/6 94/233/6 77/182/6 79/187/6 80/190/6 78/184/6 69/157/6 71/163/6 72/166/6 70/160/6
f 73/169/1 75/175/1 76/178/1 74/173/1 89/218/1 91/223/1 92/226/1 90/220/1 81/193/1 83/199/1 84/202/1 82/196/1 65/145/1 67/151/1 68/154/1 66/148/1
f 82/197/11 85/206/11 70/161/12 65/146/12
f 90/221/13 93/230/13 86/209/14 81/194/14
f 46/107/6 48/111/6 44/103/6 42/99/6
f 45/105/7 46/108/7 42/100/7 41/97/7
f 43/101/8 44/104/8 48/112/8 47/109/8
f 43/102/1 47/110/1 45/106/1 41/98/1
f 54/123/6 56/127/6 52/119/6 50/115/6
f 53/121/15 54/124/15 50/116/15 49/113/15
f 51/117/16 52/120/16 56/128/16 55/125/16
f 51/118/1 55/126/1 53/122/1 49/114/1
f 62/139/6 64/143/6 60/135/6 58/131/6
f 61/137/15 62/140/15 58/132/15 57/129/15
f 59/133/16 60/136/16 64/144/16 63/141/16
f 59/134/1 63/142/1 61/138/1 57/130/1
f 69/158/17 66/149/17 68/155/18 71/164/18
f 71/165/18 68/156/18 67/152/19 72/167/19
f 72/168/19 67/153/19 65/147/12 70/162/12
f 85/207/11 82/198/11 84/203/20 87/212/20
f 87/213/20 84/204/20 83/200/21 88/215/21
f 88/216/21 83/201/21 81/195/14 86/210/14
f 93/231/13 90/222/13 92/227/22 95/236/22
f 95/237/22 92/228/22 91/224/23 96/239/23
f 96/240/23 91/225/23 89/219/9 94/234/9
f 73/170/24 78/185/24 80/191/25 75/176/25
f 75/177/25 80/192/25 79/188/26 76/179/26
f 76/180/26 79/189/26 77/183/10 74/174/10
f 66/150/17 69/159/17 78/186/24 73/171/24
