# Blender 3.4.0
# www.blender.org
mtllib coffee_table_1_1.mtl
o coffee_table_1_1
v -0.738127 0.620000 0.260000
v -0.738127 0.620000 0.240000
v 0.738125 0.620000 0.260000
v 0.738125 0.620000 0.240000
v -0.738127 0.620000 -0.240000
v -0.738127 0.620000 -0.260000
v 0.738125 0.620000 -0.240000
v 0.738125 0.620000 -0.260000
v -0.760000 0.620000 -0.238126
v -0.740000 0.620000 -0.238126
v -0.760000 0.620000 0.238126
v -0.740000 0.620000 0.238126
v 0.740000 0.620000 -0.238126
v 0.760000 0.620000 -0.238126
v 0.740000 0.620000 0.238126
v 0.760000 0.620000 0.238126
v -0.767499 0.000000 0.267499
v -0.771874 0.620000 0.271874
v -0.767499 0.000000 0.232501
v -0.771874 0.620000 0.228126
v -0.732501 0.000000 0.267499
v -0.728126 0.620000 0.271874
v -0.732501 0.000000 0.232501
v -0.728126 0.620000 0.228126
v 0.767499 0.000000 -0.232501
v -0.738127 0.545000 0.260000
v -0.738127 0.545000 0.240000
v 0.771874 0.620000 -0.228126
v 0.738125 0.545000 0.260000
v 0.767499 0.000000 -0.267499
v 0.771874 0.620000 -0.271874
v 0.738125 0.545000 0.240000
v 0.771874 0.620000 0.228126
v -0.738127 0.545000 -0.240000
v -0.738127 0.545000 -0.260000
v 0.767499 0.000000 0.232501
v 0.738125 0.545000 -0.240000
v 0.771874 0.620000 0.271874
v 0.767499 0.000000 0.267499
v 0.738125 0.545000 -0.260000
v 0.728126 0.620000 0.228126
v 0.740000 0.545000 -0.238126
v 0.760000 0.545000 -0.238126
v 0.732501 0.000000 0.232501
v 0.740000 0.545000 0.238126
v 0.728126 0.620000 0.271874
v 0.732501 0.000000 0.267499
v 0.760000 0.545000 0.238126
v 0.732501 0.000000 -0.232501
v -0.760000 0.545000 -0.238126
v -0.740000 0.545000 -0.238126
v 0.728126 0.620000 -0.228126
v -0.760000 0.545000 0.238126
v 0.732501 0.000000 -0.267499
v 0.728126 0.620000 -0.271874
v -0.740000 0.545000 0.238126
v -0.732501 0.000000 -0.232501
v -0.728126 0.620000 -0.228126
v -0.732501 0.000000 -0.267499
v -0.728126 0.620000 -0.271874
v -0.767499 0.000000 -0.232501
v -0.771874 0.620000 -0.228126
v -0.767499 0.000000 -0.267499
v -0.771874 0.620000 -0.271874
v -0.750002 0.130000 0.250000
v -0.750002 0.160000 0.250000
v -0.750003 0.130000 -0.250000
v -0.750002 0.160000 -0.250000
v 0.749999 0.130000 0.250000
v 0.749999 0.160000 0.250000
v 0.749999 0.130000 -0.250000
v 0.749998 0.160000 -0.250000
v -0.799998 0.620000 0.300000
v -0.809998 0.660000 0.310000
v -0.799999 0.620000 -0.300000
v -0.809998 0.660000 -0.310000
v 0.800003 0.620000 0.300000
v 0.810003 0.660000 0.310000
v 0.800003 0.620000 -0.300000
v 0.810002 0.660000 -0.310000
v -0.809998 0.640000 0.310000
v 0.810003 0.640000 0.310000
v 0.810002 0.640000 -0.310000
v -0.809998 0.640000 -0.310000
v -0.799998 0.630000 0.300000
v 0.800003 0.630000 0.300000
v 0.800002 0.630000 -0.300000
v -0.799999 0.630000 -0.300000
vn -0.0000 -1.0000 -0.0000
vn -0.0000 -0.0000 -1.0000
vn -0.0000 -0.0000 1.0000
vn 1.0000 -0.0000 -0.0000
vn -1.0000 -0.0000 -0.0000
vn -0.0000 -0.0071 1.0000
vn 1.0000 -0.0071 -0.0000
vn -1.0000 -0.0071 -0.0000
vn -0.0000 -0.0071 -1.0000
vn -0.0000 1.0000 -0.0000
vn -0.0000 -0.7071 -0.7071
vn -0.7071 -0.7071 -0.0000
vn 0.7071 -0.7071 -0.0000
vn -0.0000 -0.7071 0.7071
vt 0.007917 0.790000
vt 0.007917 0.790000
vt 0.992085 0.790000
vt 0.992085 0.790000
vt 0.007917 0.790000
vt 0.007917 0.790000
vt 0.992085 0.790000
vt 0.992085 0.790000
vt 0.658751 0.789998
vt 0.658751 0.789998
vt 0.341250 0.789998
vt 0.341250 0.789998
vt 0.658751 0.789998
vt 0.658751 0.789998
vt 0.341250 0.789998
vt 0.341250 0.789998
vt 0.761667 0.994999
vt 0.193335 0.994999
vt 0.176667 0.744999
vt 0.606562 0.997916
vt 0.589894 0.747916
vt 0.738335 0.994999
vt 0.176667 0.721668
vt 0.193335 0.994999
vt 0.589894 0.718751
vt 0.606562 0.997916
vt 0.761667 0.971667
vt 0.193335 0.971667
vt 0.176667 0.744999
vt 0.606562 0.968750
vt 0.589894 0.747916
vt 0.738335 0.971667
vt 0.176667 0.721668
vt 0.193335 0.971667
vt 0.589894 0.718751
vt 0.606562 0.968751
vt 0.176667 0.278333
vt 0.193335 -0.028333
vt 0.295000 -0.028333
vt 0.007917 0.740000
vt 0.007917 0.673333
vt 0.007917 0.740000
vt 0.007917 0.660000
vt 0.589894 0.281249
vt 0.606562 -0.031249
vt 0.992085 0.740000
vt 0.992085 0.673333
vt 0.193335 -0.028333
vt 0.176667 0.255001
vt 0.271669 -0.028333
vt 0.606562 -0.031249
vt 0.589894 0.252084
vt 0.992085 0.740000
vt 0.992084 0.660000
vt 0.606562 -0.031249
vt 0.589894 0.718751
vt 0.007917 0.340000
vt 0.007917 0.740000
vt 0.007917 0.326667
vt 0.007917 0.740000
vt 0.193335 -0.028333
vt 0.176667 0.721668
vt 0.738336 -0.028333
vt 0.992085 0.340000
vt 0.992085 0.740000
vt 0.606562 -0.031249
vt 0.589894 0.747916
vt 0.193335 -0.028333
vt 0.176667 0.744999
vt 0.761667 -0.028333
vt 0.992085 0.326667
vt 0.992085 0.740000
vt 0.589894 0.718751
vt 0.606562 -0.002084
vt 0.658751 0.993332
vt 0.658751 0.739998
vt 0.658751 1.006666
vt 0.658751 0.739998
vt 0.176667 0.721668
vt 0.193335 -0.005001
vt 0.738335 -0.005001
vt 0.341250 0.993332
vt 0.341250 0.739998
vt 0.589894 0.747916
vt 0.606562 -0.002084
vt 0.176667 0.744999
vt 0.193335 -0.005001
vt 0.761667 -0.005001
vt 0.341250 1.006666
vt 0.341250 0.739998
vt 0.176667 0.278333
vt 0.193335 -0.005001
vt 0.295000 -0.005001
vt 0.658751 0.739998
vt 0.658751 -0.006668
vt 0.658751 0.739998
vt 0.658751 0.006666
vt 0.589894 0.281249
vt 0.606562 -0.002084
vt 0.341250 0.739998
vt 0.341250 -0.006668
vt 0.193335 -0.005001
vt 0.176667 0.255001
vt 0.271669 -0.005001
vt 0.606562 -0.002084
vt 0.589894 0.252084
vt 0.341250 0.739998
vt 0.341250 0.006666
vt 0.176667 0.278333
vt 0.193335 0.971667
vt 0.295000 0.971667
vt 0.589894 0.281249
vt 0.606562 0.968751
vt 0.193335 0.971667
vt 0.176667 0.255001
vt 0.271669 0.971667
vt 0.606562 0.968751
vt 0.589894 0.252084
vt 0.176667 0.278333
vt 0.193335 0.994999
vt 0.295000 0.994999
vt 0.589894 0.281249
vt 0.606562 0.997916
vt 0.193335 0.994999
vt 0.176667 0.255001
vt 0.271669 0.994999
vt 0.606562 0.997916
vt 0.589894 0.252084
vt 0.500000 0.343333
vt 0.096566 0.343334
vt -0.025998 0.972563
vt 0.974002 0.372563
vt 0.500000 0.323333
vt 0.096566 0.323334
vt 0.429899 0.343333
vt 0.499999 -0.343333
vt -0.025998 0.639229
vt 0.974002 0.039229
vt 0.429899 0.323333
vt 0.499998 -0.323333
vt -0.500000 0.343333
vt -0.429901 -0.343334
vt 0.974002 0.972563
vt -0.025998 0.372563
vt -0.500001 0.323333
vt -0.429901 -0.323334
vt -0.096567 -0.343333
vt -0.499998 -0.343333
vt 0.974002 0.639229
vt -0.025998 0.039229
vt -0.096567 -0.323333
vt -0.499998 -0.323333
vt 0.342593 0.575796
vt 0.342593 0.589844
vt 0.902735 0.361344
vt 0.334794 0.583984
vt 0.334794 0.617188
vt 0.894547 0.388687
vt 0.342593 0.174654
vt 1.303877 0.361343
vt 0.342593 0.589844
vt 0.334794 0.166884
vt 1.311648 0.388687
vt 0.334794 0.617188
vt 1.407408 0.575796
vt 1.407407 0.589844
vt 0.902735 0.361343
vt 1.415206 0.583984
vt 1.415206 0.617188
vt 0.894547 0.388687
vt 1.407407 0.174654
vt 1.303877 0.361343
vt 1.407407 0.589844
vt 1.415206 0.166884
vt 1.311648 0.388687
vt 1.415206 0.617188
vt 0.334794 0.605469
vt 0.894547 0.376968
vt 0.895278 0.373062
vt 0.330121 0.640625
vt 1.415206 0.605469
vt 0.894547 0.376968
vt 0.895278 0.373062
vt 1.419878 0.640625
vt 1.311648 0.376968
vt 1.414639 0.601562
vt 1.311119 0.373062
vt 1.415206 0.605469
vt 1.311648 0.376968
vt 0.335361 0.601562
vt 1.311119 0.373062
vt 0.334794 0.605469
vt 0.902729 0.365250
vt 0.337729 0.632812
vt 0.342593 0.597656
vt 0.902735 0.369156
vt 0.902729 0.365249
vt 1.412271 0.632812
vt 1.407407 0.597656
vt 0.902735 0.369156
vt 1.406855 0.593750
vt 1.303366 0.365250
vt 1.303877 0.369156
vt 1.407407 0.597656
vt 0.343145 0.593750
vt 1.303366 0.365250
vt 1.303877 0.369156
vt 0.342593 0.597656
s 1
usemtl wood_3
f 35/59/1 40/71/1 37/64/1 34/57/1
f 27/42/2 2/2/2 4/4/2 32/53/2
f 29/46/3 3/3/3 1/1/3 26/40/3
f 43/77/1 48/89/1 45/82/1 42/75/1
f 35/60/2 6/6/2 8/8/2 40/72/2
f 37/65/3 7/7/3 5/5/3 34/58/3
f 51/96/4 10/10/4 12/12/4 56/107/4
f 53/100/5 11/11/5 9/9/5 50/94/5
f 43/78/4 14/14/4 16/16/4 48/90/4
f 45/83/5 15/15/5 13/13/5 42/76/5
f 19/22/1 23/32/1 21/27/1 17/17/1
f 21/28/6 22/30/6 18/20/6 17/18/6
f 23/33/7 24/35/7 22/31/7 21/29/7
f 17/19/8 18/21/8 20/25/8 19/23/8
f 19/24/9 20/26/9 24/36/9 23/34/9
f 32/54/1 29/47/1 26/41/1 27/43/1
f 47/86/8 46/84/8 41/73/8 44/79/8
f 44/80/9 41/74/9 33/55/9 36/61/9
f 39/68/6 38/66/6 46/85/6 47/87/6
f 36/62/7 33/56/7 38/67/7 39/69/7
f 44/81/1 36/63/1 39/70/1 47/88/1
f 54/102/9 55/105/9 31/51/9 30/48/9
f 56/108/1 53/101/1 50/95/1 51/97/1
f 49/91/8 52/98/8 55/106/8 54/103/8
f 30/49/7 31/52/7 28/44/7 25/37/7
f 25/38/6 28/45/6 52/99/6 49/92/6
f 54/104/1 30/50/1 25/39/1 49/93/1
f 63/124/9 64/127/9 60/117/9 59/114/9
f 61/119/8 62/122/8 64/128/8 63/125/8
f 59/115/7 60/118/7 58/112/7 57/109/7
f 57/110/6 58/113/6 62/123/6 61/120/6
f 63/126/1 59/116/1 57/111/1 61/121/1
f 70/144/10 72/150/10 68/138/10 66/132/10
f 69/141/3 70/145/3 66/133/3 65/129/3
f 71/147/4 72/151/4 70/146/4 69/142/4
f 65/130/5 66/134/5 68/139/5 67/135/5
f 67/136/2 68/140/2 72/152/2 71/148/2
f 67/137/1 71/149/1 69/143/1 65/131/1
f 78/168/10 80/174/10 76/162/10 74/156/10
f 82/181/3 78/169/3 74/157/3 81/177/3
f 83/185/4 80/175/4 78/170/4 82/182/4
f 81/178/5 74/158/5 76/163/5 84/189/5
f 75/159/1 79/171/1 77/165/1 73/153/1
f 88/205/11 84/190/11 83/186/11 87/201/11
f 85/193/12 81/179/12 84/191/12 88/206/12
f 87/202/13 83/187/13 82/183/13 86/197/13
f 86/198/14 82/184/14 81/180/14 85/194/14
f 77/166/3 86/199/3 85/195/3 73/154/3
f 79/172/4 87/203/4 86/200/4 77/167/4
f 73/155/5 85/196/5 88/207/5 75/160/5
f 75/161/2 88/208/2 87/204/2 79/173/2
f 84/192/2 76/164/2 80/176/2 83/188/2
