# Blender 3.4.0
# www.blender.org
mtllib shelf_mp_2_3.mtl
o shelf_mp_2_3
v -0.290003 1.280000 -0.139999
v -0.310003 0.100000 0.160001
v -0.290002 0.120000 -0.139999
v 0.290002 0.120000 0.160001
v 0.289996 0.120000 -0.139999
v -0.290001 0.120000 0.160001
v 0.289996 1.280000 -0.139999
v -0.310004 1.300000 -0.159999
v -0.310003 1.300000 0.160001
v 0.289998 1.280000 0.160001
v -0.290004 1.280000 0.160001
v -0.290002 0.470000 0.150001
v -0.290003 0.470000 -0.139999
v -0.290002 0.490000 -0.139999
v 0.289998 0.470000 -0.139999
v 0.289996 0.490000 -0.139999
v 0.290000 0.490000 0.150001
v -0.290002 0.490000 0.150001
v 0.290002 0.470000 0.150001
v -0.290002 0.880000 0.150001
v -0.290003 0.880000 -0.139999
v -0.290002 0.900000 -0.139999
v 0.289998 0.880000 -0.139999
v 0.289996 0.900000 -0.139999
v 0.290000 0.900000 0.150001
v -0.290002 0.900000 0.150001
v 0.290002 0.880000 0.150001
v 0.309998 0.100000 -0.160000
v -0.310005 0.100000 -0.160000
v 0.310002 0.100000 0.160000
v 0.345004 0.037500 -0.195000
v 0.345002 0.037500 0.195000
v -0.344998 0.037500 0.195000
v -0.344998 0.037500 -0.195000
v -0.329998 0.055000 -0.180000
v 0.330002 0.055000 0.180000
v -0.329998 0.055000 0.180000
v 0.330004 0.055000 -0.180000
v -0.329998 0.085001 0.180000
v 0.370002 0.020000 0.220000
v 0.370004 0.020000 -0.220000
v -0.369998 0.020000 -0.220000
v -0.369998 0.020000 0.220000
v 0.370004 0.000000 -0.220000
v 0.370002 -0.000000 0.220000
v -0.369998 0.000000 -0.220000
v -0.369998 0.000000 0.220000
v -0.329998 0.085000 -0.180000
v -0.337319 0.064510 -0.187320
v -0.337319 0.075490 -0.187320
v -0.337319 0.075491 0.187321
v -0.337319 0.064510 0.187321
v 0.330002 0.085000 0.180000
v 0.337323 0.064509 0.187321
v 0.337323 0.075490 0.187321
v 0.330004 0.085000 -0.180000
v 0.337324 0.075490 -0.187320
v 0.337324 0.064510 -0.187320
v 0.330002 0.100000 0.180000
v 0.330004 0.100000 -0.180000
v -0.329998 0.100000 -0.180000
v -0.329998 0.100000 0.180000
v 0.309997 1.300000 -0.160000
v 0.309997 1.299999 0.160000
v -0.345005 1.362500 -0.195000
v -0.345004 1.362500 0.195000
v 0.344997 1.362499 0.195000
v 0.344997 1.362500 -0.195000
v 0.329997 1.345000 -0.180000
v -0.330004 1.345001 0.180000
v 0.329997 1.345000 0.180000
v -0.330005 1.345000 -0.180000
v 0.329997 1.314999 0.180000
v -0.370004 1.380000 0.220000
v -0.370005 1.380000 -0.220000
v 0.369997 1.380000 -0.220000
v 0.369997 1.379999 0.220000
v -0.370005 1.400000 -0.220000
v -0.370004 1.400000 0.220000
v 0.369997 1.400000 -0.220000
v 0.369997 1.399999 0.220000
v 0.329997 1.315000 -0.180000
v 0.337317 1.335490 -0.187320
v 0.337317 1.324509 -0.187320
v 0.337317 1.324509 0.187321
v 0.337317 1.335490 0.187321
v -0.330004 1.315000 0.180000
v -0.337324 1.335491 0.187321
v -0.337324 1.324510 0.187321
v -0.330005 1.315000 -0.180000
v -0.337326 1.324510 -0.187320
v -0.337326 1.335490 -0.187320
v -0.330004 1.300000 0.180000
v -0.330005 1.300000 -0.180000
v 0.329997 1.300000 -0.180000
v 0.329997 1.299999 0.180000
vn -0.0000 -0.0000 1.0000
vn -0.0000 -1.0000 -0.0000
vn -1.0000 -0.0000 -0.0000
vn 1.0000 -0.0000 -0.0000
vn 0.0001 -0.0000 1.0000
vn -0.0000 -0.0000 -1.0000
vn -0.0000 1.0000 -0.0000
vn -0.0000 0.7729 0.6345
vn -0.0000 0.8192 0.5735
vn -0.0000 0.6508 -0.7593
vn -0.0000 0.7729 -0.6345
vn -0.0000 0.8192 -0.5735
vn 0.7593 0.6508 -0.0000
vn 0.6345 0.7729 -0.0000
vn -0.6345 0.7729 -0.0000
vn -0.5735 0.8192 -0.0000
vn -0.7593 0.6508 -0.0000
vn -0.0000 0.6508 0.7593
vn -0.0000 -0.6100 -0.7924
vn -0.0000 -0.2535 -0.9673
vn -0.0000 0.2535 -0.9673
vn -0.0000 0.6100 -0.7924
vn -0.0000 -0.6100 0.7924
vn -0.0000 -0.2535 0.9673
vn -0.0000 0.2535 0.9673
vn -0.0000 0.6100 0.7924
vn 0.7924 -0.6100 -0.0000
vn 0.9673 -0.2535 -0.0000
vn 0.9673 0.2535 -0.0000
vn 0.7924 0.6100 -0.0000
vn -0.7924 -0.6100 -0.0000
vn -0.9673 -0.2535 -0.0000
vn -0.9673 0.2535 -0.0000
vn -0.7924 0.6100 -0.0000
vn 0.5735 0.8192 -0.0000
vn -0.0000 -0.7729 0.6345
vn -0.0000 -0.8192 0.5735
vn -0.0000 -0.6508 -0.7593
vn -0.0000 -0.7729 -0.6345
vn -0.0000 -0.8192 -0.5735
vn -0.7593 -0.6508 -0.0000
vn -0.6345 -0.7729 -0.0000
vn 0.6345 -0.7729 -0.0000
vn 0.5735 -0.8192 -0.0000
vn 0.7593 -0.6508 -0.0000
vn -0.0000 -0.6508 0.7593
vn -0.5735 -0.8192 -0.0000
vt 0.214002 0.579776
vt 0.637145 0.617139
vt 0.429528 1.061710
vt 1.437146 0.883801
vt 0.226667 0.370000
vt 1.266655 0.596666
vt 0.486994 0.202330
vt 1.410479 0.617139
vt 0.240001 0.306667
vt 1.423813 1.083805
vt 0.626670 0.383333
vt 1.423814 0.883805
vt 1.253342 0.996674
vt 0.626668 0.506667
vt 1.423814 1.083805
vt 1.410479 1.003804
vt 0.626665 0.306667
vt 0.240002 0.383333
vt 1.253321 0.610002
vt 0.240002 0.506667
vt 1.423812 0.883805
vt 0.600668 0.579776
vt 0.429528 1.061709
vt 0.637145 1.003804
vt 0.637146 1.097143
vt 0.623809 0.603811
vt 0.083803 0.293373
vt 0.226613 1.170050
vt 0.637145 0.883812
vt 0.466654 0.596666
vt 0.083803 0.501472
vt 0.626614 1.156731
vt 0.600669 0.778137
vt 0.429528 0.861709
vt 0.480042 0.996672
vt 0.239946 1.156723
vt 0.214002 0.778137
vt 0.479987 0.610000
vt 0.429527 0.861710
vt 0.214003 0.772563
vt 0.239999 0.483333
vt 0.214003 0.579229
vt 0.734001 -0.020771
vt 0.600669 0.579230
vt 0.347335 -0.020771
vt 0.347335 0.172563
vt 0.626669 0.496667
vt 0.734002 0.172563
vt 0.239999 0.496666
vt 0.600669 0.772563
vt 0.626671 0.483333
vt 0.214003 0.772563
vt 0.239995 0.683329
vt 0.214003 0.579229
vt 0.734001 -0.020771
vt 0.600669 0.579230
vt 0.347335 -0.020771
vt 0.347335 0.172563
vt 0.626672 0.696662
vt 0.734002 0.172563
vt 0.239996 0.696662
vt 0.600669 0.772563
vt 0.626672 0.683329
vt 1.437144 1.097138
vt 1.423814 1.017136
vt 0.083806 -0.005767
vt 1.437147 1.097131
vt 1.423813 0.603803
vt 0.486997 -0.005767
vt 0.640000 0.370000
vt 1.437144 0.883805
vt 1.266674 1.010006
vt 0.083803 0.202331
vt 0.525644 0.482774
vt 0.590675 0.482774
vt 0.525645 0.429499
vt 0.525644 0.440453
vt 0.844294 0.482774
vt 0.974356 0.429499
vt 0.655706 0.482774
vt 0.974356 0.440453
vt 0.974356 0.482774
vt 0.909325 0.482774
vt 0.964601 0.467785
vt 0.899570 0.467785
vt 0.535399 0.425464
vt 0.535399 0.507453
vt 0.834540 0.467785
vt 0.964601 0.425464
vt 0.964602 0.507453
vt 0.665460 0.467785
vt 0.535398 0.467785
vt 0.600430 0.467785
vt 0.964601 0.445036
vt 0.964602 0.405368
vt 0.665460 0.445036
vt 0.509387 0.449344
vt 0.509387 0.502619
vt 0.860552 0.502619
vt 0.509386 0.502619
vt 0.574418 0.502619
vt 0.925582 0.502619
vt 0.990614 0.502619
vt 0.990613 0.449344
vt 0.639448 0.502619
vt 0.990613 0.502619
vt 0.981227 0.332392
vt 0.574418 0.515625
vt 0.509386 0.515625
vt 0.981226 0.618526
vt 0.860552 0.515625
vt 0.509387 0.515625
vt 0.925582 0.515625
vt 0.499999 0.332392
vt 0.990614 0.515625
vt 0.639448 0.515625
vt 0.499999 0.618526
vt 0.990613 0.515625
vt 0.964601 0.445036
vt 0.899570 0.445036
vt 0.904331 0.459981
vt 0.969362 0.459981
vt 0.904331 0.452840
vt 0.969362 0.452840
vt 0.969362 0.452840
vt 0.969362 0.413172
vt 0.660700 0.452840
vt 0.969362 0.499649
vt 0.969362 0.459981
vt 0.660700 0.459981
vt 0.535399 0.445036
vt 0.535399 0.405368
vt 0.834540 0.445036
vt 0.530638 0.499649
vt 0.530638 0.459981
vt 0.839300 0.459981
vt 0.530639 0.452840
vt 0.530639 0.413172
vt 0.839300 0.452840
vt 0.535399 0.445036
vt 0.600430 0.445036
vt 0.595669 0.452840
vt 0.530638 0.452840
vt 0.595669 0.459981
vt 0.530638 0.459981
vt 0.834540 0.435281
vt 0.535399 0.435281
vt 0.070797 0.215337
vt 0.600430 0.435281
vt 0.535399 0.435281
vt 0.070796 -0.018773
vt 0.899570 0.435281
vt 0.964601 0.435281
vt 0.499999 -0.018773
vt 0.665460 0.435281
vt 0.964601 0.435281
vt 0.500000 0.215337
vt 0.637151 1.097137
vt 0.623810 1.017144
vt 0.486993 0.293373
vt 0.639950 1.170063
vt 0.637151 0.883804
vt 0.466708 1.010010
vt 0.486993 0.501472
vt 0.525644 0.482774
vt 0.590675 0.482774
vt 0.525644 0.429499
vt 0.525644 0.440452
vt 0.844294 0.482774
vt 0.974356 0.429499
vt 0.655706 0.482774
vt 0.974356 0.440452
vt 0.974356 0.482774
vt 0.909325 0.482774
vt 0.964602 0.467785
vt 0.899570 0.467785
vt 0.535399 0.425464
vt 0.535399 0.507453
vt 0.834540 0.467785
vt 0.964601 0.425463
vt 0.964601 0.507452
vt 0.665460 0.467785
vt 0.535399 0.467785
vt 0.600430 0.467785
vt 0.964601 0.445036
vt 0.964601 0.405367
vt 0.665460 0.445036
vt 0.509387 0.449344
vt 0.509387 0.502619
vt 0.860552 0.502619
vt 0.509386 0.502619
vt 0.574418 0.502619
vt 0.925582 0.502619
vt 0.990614 0.502619
vt 0.990613 0.449344
vt 0.639448 0.502619
vt 0.990613 0.502619
vt 0.981227 -0.018773
vt 0.574418 0.515625
vt 0.509386 0.515625
vt 0.981226 0.267361
vt 0.860552 0.515625
vt 0.509387 0.515625
vt 0.925582 0.515625
vt 0.499999 -0.018773
vt 0.990614 0.515625
vt 0.639448 0.515625
vt 0.499999 0.267361
vt 0.990613 0.515625
vt 0.964602 0.445036
vt 0.899570 0.445036
vt 0.904331 0.459981
vt 0.969362 0.459981
vt 0.904331 0.452840
vt 0.969362 0.452840
vt 0.969361 0.452840
vt 0.969362 0.413172
vt 0.660700 0.452840
vt 0.969361 0.499648
vt 0.969361 0.459981
vt 0.660700 0.459981
vt 0.535399 0.445036
vt 0.535399 0.405368
vt 0.834540 0.445036
vt 0.530638 0.499648
vt 0.530639 0.459981
vt 0.839300 0.459981
vt 0.530639 0.452840
vt 0.530639 0.413172
vt 0.839300 0.452840
vt 0.535399 0.445036
vt 0.600430 0.445036
vt 0.595669 0.452840
vt 0.530638 0.452840
vt 0.595669 0.459981
vt 0.530638 0.459981
vt 0.834540 0.435281
vt 0.535399 0.435281
vt 0.070797 0.514478
vt 0.600430 0.435281
vt 0.535399 0.435281
vt 0.070796 0.280367
vt 0.899570 0.435281
vt 0.964602 0.435281
vt 0.499999 0.280367
vt 0.665460 0.435281
vt 0.964601 0.435281
vt 0.499999 0.514478
s 1
usemtl wood_5
f 10/32/1 64/161/1 9/28/1 11/36/1
f 1/1/2 7/22/2 10/33/2 11/37/2
f 2/4/3 9/29/3 8/25/3 29/67/3
f 6/18/1 2/5/1 30/70/1 4/11/1
f 28/64/4 63/158/4 64/162/4 30/71/4
f 10/34/3 7/23/3 5/15/3 4/12/3
f 30/72/5 64/163/5 10/35/5 4/13/5
f 5/16/1 7/24/1 1/2/1 3/8/1
f 6/19/1 11/38/1 9/30/1 2/6/1
f 29/68/6 8/26/6 63/159/6 28/65/6
f 4/14/7 5/17/7 3/9/7 6/20/7
f 3/10/4 1/3/4 11/39/4 6/21/4
f 17/46/7 16/45/7 14/43/7 18/48/7
f 13/42/2 15/44/2 19/50/2 12/40/2
f 19/51/1 17/47/1 18/49/1 12/41/1
f 25/58/7 24/57/7 22/55/7 26/60/7
f 21/54/2 23/56/2 27/62/2 20/52/2
f 27/63/1 25/59/1 26/61/1 20/53/1
f 33/79/8 43/104/9 40/97/9 32/76/8
f 38/92/10 31/74/11 34/82/11 35/84/10
f 31/74/11 41/100/12 42/103/12 34/82/11
f 36/88/13 32/78/14 31/75/14 38/93/13
f 33/80/15 34/83/15 42/102/16 43/105/16
f 62/155/3 61/152/3 48/120/3 39/96/3
f 60/149/4 59/146/4 53/133/4 56/141/4
f 59/147/1 62/156/1 39/94/1 53/131/1
f 61/153/6 60/150/6 56/140/6 48/119/6
f 43/105/3 42/102/3 46/113/3 47/116/3
f 37/91/17 35/85/17 34/83/15 33/80/15
f 37/89/18 33/81/8 32/77/8 36/86/18
f 47/117/2 46/114/2 44/107/2 45/110/2
f 41/101/4 40/99/4 45/111/4 44/108/4
f 42/103/6 41/100/6 44/109/6 46/115/6
f 40/98/1 43/106/1 47/118/1 45/112/1
f 38/92/19 35/84/19 49/122/20 58/145/20
f 57/143/21 50/124/21 48/119/22 56/140/22
f 37/90/23 36/87/23 54/134/24 52/128/24
f 52/129/24 54/135/24 55/137/25 51/125/25
f 51/126/25 55/138/25 53/132/26 39/95/26
f 36/88/27 38/93/27 58/144/28 54/136/28
f 54/136/28 58/144/28 57/142/29 55/139/29
f 55/139/29 57/142/29 56/141/30 53/133/30
f 35/85/31 37/91/31 52/130/32 49/121/32
f 49/121/32 52/130/32 51/127/33 50/123/33
f 50/123/33 51/127/33 39/96/34 48/120/34
f 32/78/14 40/99/35 41/101/35 31/75/14
f 28/66/7 30/73/7 59/148/7 60/151/7
f 29/69/7 28/66/7 60/151/7 61/154/7
f 2/7/7 29/69/7 61/154/7 62/157/7
f 30/73/7 2/7/7 62/157/7 59/148/7
f 58/145/20 49/122/20 50/124/21 57/143/21
f 67/170/36 77/195/37 74/188/37 66/167/36
f 72/183/38 65/165/39 68/173/39 69/175/38
f 65/165/39 75/191/40 76/194/40 68/173/39
f 70/179/41 66/169/42 65/166/42 72/184/41
f 67/171/43 68/174/43 76/193/44 77/196/44
f 96/246/4 95/243/4 82/211/4 73/187/4
f 94/240/3 93/237/3 87/224/3 90/232/3
f 93/238/1 96/247/1 73/185/1 87/222/1
f 95/244/6 94/241/6 90/231/6 82/210/6
f 77/196/4 76/193/4 80/204/4 81/207/4
f 71/182/45 69/176/45 68/174/43 67/171/43
f 71/180/46 67/172/36 66/168/36 70/177/46
f 81/208/7 80/205/7 78/198/7 79/201/7
f 75/192/3 74/190/3 79/202/3 78/199/3
f 76/194/6 75/191/6 78/200/6 80/206/6
f 74/189/1 77/197/1 81/209/1 79/203/1
f 72/183/22 69/175/22 83/213/21 92/236/21
f 91/234/20 84/215/20 82/210/19 90/231/19
f 71/181/26 70/178/26 88/225/25 86/219/25
f 86/220/25 88/226/25 89/228/24 85/216/24
f 85/217/24 89/229/24 87/223/23 73/186/23
f 70/179/34 72/184/34 92/235/33 88/227/33
f 88/227/33 92/235/33 91/233/32 89/230/32
f 89/230/32 91/233/32 90/232/31 87/224/31
f 69/176/30 71/182/30 86/221/29 83/212/29
f 83/212/29 86/221/29 85/218/28 84/214/28
f 84/214/28 85/218/28 73/187/27 82/211/27
f 66/169/42 74/190/47 75/192/47 65/166/42
f 8/27/2 9/31/2 93/239/2 94/242/2
f 63/160/2 8/27/2 94/242/2 95/245/2
f 64/164/2 63/160/2 95/245/2 96/248/2
f 9/31/2 64/164/2 96/248/2 93/239/2
f 92/236/21 83/213/21 84/215/20 91/234/20
