# Blender 3.4.0
# www.blender.org
mtllib table_large_3_3.mtl
o table_large_3_3
v -0.740127 0.870000 -0.270000
v -0.740127 0.870000 -0.290000
v 0.740125 0.870000 -0.270000
v 0.740125 0.870000 -0.290000
v -0.760000 0.870000 -0.328126
v -0.740000 0.870000 -0.328126
v -0.760000 0.870000 0.298126
v -0.740000 0.870000 0.298126
v 0.740000 0.870000 -0.328126
v 0.760000 0.870000 -0.328126
v 0.740000 0.870000 0.298126
v 0.760000 0.870000 0.298126
v -0.740001 0.500000 -0.270000
v -0.740001 0.500000 -0.290000
v 0.739999 0.500000 -0.270000
v 0.739999 0.500000 -0.290000
v 0.740000 0.000000 -0.328000
v 0.759998 0.000000 -0.328000
v 0.740000 0.000000 0.298000
v 0.759998 0.000000 0.298000
v -0.760000 0.000000 -0.328000
v -0.740002 0.000000 -0.328000
v -0.760000 0.000000 0.298000
v -0.740002 0.000000 0.298000
v -0.789999 0.870000 0.330000
v -0.799999 0.910000 0.340000
v -0.790000 0.870000 -0.340000
v -0.799999 0.910000 -0.350000
v 0.790002 0.870000 0.330001
v 0.800002 0.910000 0.340001
v 0.790002 0.870000 -0.340000
v 0.800001 0.910000 -0.350000
v -0.799999 0.890000 0.340000
v 0.800002 0.890000 0.340001
v 0.800002 0.890000 -0.350000
v -0.799999 0.890000 -0.350000
v -0.789999 0.880000 0.330000
v 0.790002 0.880000 0.330001
v 0.790002 0.880000 -0.340000
v -0.789999 0.880000 -0.340000
vn -0.0000 -1.0000 -0.0000
vn -0.0000 -0.0000 -1.0000
vn -0.0000 -0.0000 1.0000
vn 1.0000 -0.0000 -0.0000
vn -1.0000 -0.0000 -0.0000
vn -0.0000 -0.0001 1.0000
vn -0.0000 -0.0001 -1.0000
vn -0.0000 1.0000 -0.0000
vn -0.0000 -0.7071 -0.7071
vn -0.7071 -0.7071 -0.0000
vn 0.7071 -0.7071 -0.0000
vn -0.0000 -0.7071 0.7071
vt 0.006578 0.756667
vt 0.006578 0.756667
vt 0.993424 0.756667
vt 0.993424 0.756667
vt 0.324791 0.617304
vt 0.309188 0.786876
vt 0.324791 0.617304
vt 0.309188 0.800209
vt 0.324791 0.199789
vt 0.309188 0.786876
vt 0.324791 0.199789
vt 0.309188 0.800209
vt 0.324791 0.617304
vt 0.309188 0.786876
vt 0.324791 0.617304
vt 0.309188 0.800209
vt 0.324791 0.199789
vt 0.309188 0.786876
vt 0.324791 0.199789
vt 0.309188 0.800209
vt 0.006582 0.340000
vt 0.006629 0.510000
vt 0.006582 0.326666
vt 0.006628 0.510000
vt 0.993419 0.340000
vt 0.993373 0.510000
vt 0.993420 0.326666
vt 0.993373 0.510000
vt 0.088123 0.617286
vt 0.904791 0.617279
vt 0.889188 0.786876
vt 0.074790 0.617286
vt 0.904791 0.617279
vt 0.889188 0.800208
vt 0.088123 0.199792
vt 0.904791 0.199793
vt 0.889188 0.786876
vt 0.074790 0.199792
vt 0.904791 0.199793
vt 0.889188 0.800208
vt 0.904790 0.617279
vt 1.088123 0.617286
vt 0.889188 0.786876
vt 0.904791 0.617278
vt 1.074790 0.617286
vt 0.889188 0.800208
vt 0.904791 0.199793
vt 1.088123 0.199792
vt 0.889188 0.786876
vt 0.904791 0.199793
vt 1.074790 0.199792
vt 0.889188 0.800208
vt 0.315972 0.522311
vt 0.315972 0.589844
vt 0.956221 0.361344
vt 0.308117 0.530165
vt 0.308117 0.617188
vt 0.948367 0.388687
vt 0.315972 0.074369
vt 1.404162 0.361343
vt 0.315972 0.589844
vt 0.308117 0.065972
vt 1.412559 0.388687
vt 0.308117 0.617188
vt 1.367477 0.522311
vt 1.367477 0.589844
vt 0.956221 0.361343
vt 1.375191 0.530165
vt 1.375191 0.617188
vt 0.948366 0.388687
vt 1.367477 0.074369
vt 1.404162 0.361343
vt 1.367477 0.589844
vt 1.375191 0.065972
vt 1.412559 0.388687
vt 1.375191 0.617188
vt 0.308117 0.605469
vt 0.948366 0.376968
vt 0.948211 0.388687
vt 0.303732 0.609372
vt 1.375190 0.605469
vt 0.948366 0.376968
vt 0.948463 0.349625
vt 1.379180 0.609374
vt 1.412559 0.376968
vt 1.380758 0.660156
vt 1.410892 0.349624
vt 1.375191 0.605469
vt 1.412559 0.376969
vt 0.301786 0.660154
vt 1.414115 0.388687
vt 0.308117 0.605469
vt 0.955037 0.380874
vt 0.310924 0.601559
vt 0.315972 0.597656
vt 0.956221 0.369156
vt 0.955189 0.341812
vt 1.372062 0.601562
vt 1.367477 0.597656
vt 0.956221 0.369156
vt 1.373353 0.652344
vt 1.403607 0.341811
vt 1.404162 0.369155
vt 1.367477 0.597656
vt 0.309285 0.652342
vt 1.406684 0.380875
vt 1.404162 0.369156
vt 0.315972 0.597656
s 1
usemtl wood_5
f 14/23/1 16/27/1 15/25/1 13/21/1
f 18/32/1 20/38/1 19/35/1 17/29/1
f 14/24/2 2/2/2 4/4/2 16/28/2
f 15/26/3 3/3/3 1/1/3 13/22/3
f 22/44/4 6/7/4 8/11/4 24/50/4
f 23/47/5 7/9/5 5/5/5 21/41/5
f 18/33/4 10/15/4 12/19/4 20/39/4
f 19/36/5 11/17/5 9/13/5 17/30/5
f 24/51/1 23/48/1 21/42/1 22/45/1
f 24/52/6 8/12/6 7/10/6 23/49/6
f 20/40/6 12/20/6 11/18/6 19/37/6
f 22/46/7 21/43/7 5/6/7 6/8/7
f 18/34/7 17/31/7 9/14/7 10/16/7
f 30/68/8 32/74/8 28/62/8 26/56/8
f 34/81/3 30/69/3 26/57/3 33/77/3
f 35/85/4 32/75/4 30/70/4 34/82/4
f 33/78/5 26/58/5 28/63/5 36/89/5
f 27/59/1 31/71/1 29/65/1 25/53/1
f 40/105/9 36/90/9 35/86/9 39/101/9
f 37/93/10 33/79/10 36/91/10 40/106/10
f 39/102/11 35/87/11 34/83/11 38/97/11
f 38/98/12 34/84/12 33/80/12 37/94/12
f 29/66/3 38/99/3 37/95/3 25/54/3
f 31/72/4 39/103/4 38/100/4 29/67/4
f 25/55/5 37/96/5 40/107/5 27/60/5
f 27/61/2 40/108/2 39/104/2 31/73/2
f 36/92/2 28/64/2 32/76/2 35/88/2
