# Blender 3.4.0
# www.blender.org
mtllib ceiling_lamp_4_on.mtl
o ceiling_lamp_4_on
v 0.552598 -0.080000 -0.102600
v 0.552598 -0.080000 0.102600
v -0.552602 -0.080000 0.102600
v -0.552602 -0.080000 -0.102600
v 0.564598 -0.100000 -0.114600
v 0.564598 -0.100000 0.114600
v -0.564602 -0.100000 0.114600
v -0.564602 -0.100000 -0.114600
v 0.575000 -0.000000 -0.125000
v -0.574998 -0.000000 0.125000
v -0.574998 -0.000000 -0.125000
v 0.575000 -0.000000 0.125000
v 0.600000 -0.100000 -0.150000
v 0.600000 -0.100000 0.150000
v -0.599998 -0.100000 0.150000
v -0.599998 -0.100000 -0.150000
v -0.599998 -0.050000 -0.150000
v -0.599998 -0.050000 0.150000
v 0.600000 -0.050000 0.150000
v 0.600000 -0.050000 -0.150000
vn -0.0000 -0.0000 -1.0000
vn -1.0000 -0.0000 -0.0000
vn -0.0000 -0.0000 1.0000
vn -0.0000 -1.0000 -0.0000
vn -0.0000 -0.5145 0.8575
vn -0.0000 -0.5145 -0.8575
vn 0.8575 -0.5145 -0.0000
vn -0.8575 -0.5145 -0.0000
vn -0.0000 1.0000 -0.0000
vn 1.0000 -0.0000 -0.0000
vn -0.8944 0.4472 -0.0000
vn -0.0000 0.4472 0.8944
vn -0.0000 0.4472 -0.8944
vn 0.8944 0.4472 -0.0000
vt 0.960938 0.179688
vt 0.960496 0.579000
vt 0.582031 0.179688
vt 0.960496 0.921000
vt 0.960938 0.179688
vt 0.410156 0.179688
vt 0.039498 0.921000
vt 0.031250 0.179688
vt 0.410156 0.179688
vt 0.031250 0.179688
vt 0.039498 0.579000
vt 0.582031 0.179688
vt 0.972656 0.148438
vt 0.970497 0.559000
vt 0.593750 0.148438
vt 0.970497 0.941000
vt 0.972656 0.148438
vt 0.398438 0.148438
vt 0.029498 0.941000
vt 0.019531 0.148438
vt 0.398438 0.148438
vt 0.019531 0.148438
vt 0.029498 0.559000
vt 0.593750 0.148438
vt 0.979167 0.177734
vt 0.984375 0.148438
vt 0.605469 0.148438
vt 0.020833 0.470703
vt 0.394531 0.148438
vt 0.015625 0.148438
vt 0.020833 0.177734
vt 0.605469 0.148438
vt 0.015625 0.148438
vt 0.979167 0.470703
vt 0.984375 0.148438
vt 0.394531 0.148438
vt 1.000000 0.062500
vt 1.000000 0.500000
vt 0.625000 0.062500
vt 1.000000 0.062500
vt 1.000000 1.000000
vt 0.375000 0.062500
vt 0.375000 0.062500
vt 0.000000 0.062500
vt 0.000000 1.000000
vt 0.000000 0.062500
vt 0.625000 0.062500
vt 0.000000 0.500000
vt 0.000000 0.148438
vt 0.625000 0.148438
vt 0.625000 0.062500
vt -0.007812 0.062500
vt 0.375000 0.148437
vt 0.000000 0.148438
vt 0.375000 0.062500
vt -0.007812 0.062500
vt 1.000000 0.148438
vt 0.375000 0.148438
vt 1.007812 0.062500
vt 0.375000 0.062500
vt 1.000000 0.148438
vt 0.625000 0.148438
vt 1.007812 0.062500
vt 0.625000 0.062500
s 0
usemtl lamp_3_on
f 13/37/1 16/46/1 17/49/1 20/61/1
f 16/47/2 15/43/2 18/53/2 17/50/2
f 15/44/3 14/40/3 19/57/3 18/54/3
f 6/16/4 5/14/4 13/38/4 14/41/4
f 8/22/5 5/13/5 1/1/5 4/10/5
f 1/2/4 2/4/4 3/7/4 4/11/4
f 7/19/4 6/16/4 14/41/4 15/45/4
f 8/23/4 7/19/4 15/45/4 16/48/4
f 5/14/4 8/23/4 16/48/4 13/38/4
f 6/17/6 7/20/6 3/8/6 2/5/6
f 7/21/7 8/24/7 4/12/7 3/9/7
f 5/15/8 6/18/8 2/6/8 1/3/8
f 11/31/9 10/28/9 12/34/9 9/25/9
f 14/42/10 13/39/10 20/62/10 19/58/10
f 10/29/11 11/32/11 17/51/11 18/55/11
f 12/35/12 10/30/12 18/56/12 19/59/12
f 11/33/13 9/26/13 20/63/13 17/52/13
f 9/27/14 12/36/14 19/60/14 20/64/14
