# Blender 3.4.0
# www.blender.org
mtllib ceiling_lamp_mp_1_1_fake_light_2.mtl
o ceiling_lamp_mp_1_1_fake_light_2
v -4.500019 -2.499999 -0.000003
v -0.000020 -2.500002 -4.500003
v -4.158161 -2.500000 -1.727634
v -3.184635 -2.500000 -3.184619
v -1.727651 -2.500002 -4.158145
v -0.000021 -2.499996 4.500003
v -1.727651 -2.499997 4.158146
v -3.184636 -2.499998 3.184620
v -4.158162 -2.499999 1.727635
v 0.000016 -0.100000 -0.030000
v -0.011502 -0.100000 -0.027721
v -0.021215 -0.100000 -0.021231
v -0.027705 -0.100000 -0.011517
v -0.029984 -0.100000 0.000000
v 0.000016 -0.100000 0.030000
v -0.027705 -0.100000 0.011518
v -0.021215 -0.100000 0.021231
v -0.011502 -0.100000 0.027721
v 4.499979 -2.499999 -0.000004
v 1.727612 -2.500002 -4.158145
v 3.184596 -2.500000 -3.184619
v 4.158122 -2.500000 -1.727634
v 4.158122 -2.499999 1.727635
v 3.184596 -2.499998 3.184620
v 1.727612 -2.499997 4.158146
v 0.027736 -0.100000 -0.011517
v 0.021246 -0.100000 -0.021231
v 0.011533 -0.100000 -0.027721
v 0.030016 -0.100000 0.000000
v 0.011533 -0.100000 0.027721
v 0.021246 -0.100000 0.021231
v 0.027736 -0.100000 0.011518
v -0.000020 -2.500005 -4.491003
v -1.718651 -2.500005 -4.149146
v -3.175635 -2.500003 -3.175620
v -4.149161 -2.500002 -1.718635
v -4.491018 -2.500002 0.000004
v -0.000020 -2.499998 4.491004
v -4.149161 -2.500000 1.718635
v -3.175635 -2.500000 3.175620
v -1.718651 -2.499998 4.149146
v -0.029924 -0.100000 0.000000
v 0.000016 -0.100000 -0.029940
v -0.027645 -0.100000 -0.011457
v -0.021155 -0.100000 -0.021171
v -0.011442 -0.100000 -0.027661
v 0.000016 -0.100000 0.029940
v -0.011442 -0.100000 0.027661
v -0.021155 -0.100000 0.021171
v -0.027645 -0.100000 0.011458
v 4.149123 -2.500002 -1.718635
v 3.175597 -2.500003 -3.175620
v 1.718612 -2.500005 -4.149146
v 4.490980 -2.500002 0.000005
v 1.718613 -2.499998 4.149147
v 3.175597 -2.500000 3.175620
v 4.149123 -2.500000 1.718636
v 0.029956 -0.100000 0.000000
v 0.011473 -0.100000 -0.027661
v 0.021186 -0.100000 -0.021171
v 0.027676 -0.100000 -0.011457
v 0.027676 -0.100000 0.011458
v 0.021186 -0.100000 0.021171
v 0.011473 -0.100000 0.027661
vn -0.0000 0.8810 -0.4730
vn -0.1808 0.8812 -0.4369
vn -0.1806 0.8812 -0.4370
vn -0.3343 0.8812 -0.3343
vn -0.4369 0.8812 -0.1808
vn -0.4370 0.8812 -0.1806
vn -0.4730 0.8810 -0.0000
vn -0.0000 0.8810 0.4730
vn -0.1806 0.8812 0.4370
vn -0.1808 0.8812 0.4369
vn -0.3343 0.8812 0.3343
vn -0.4370 0.8812 0.1806
vn -0.4369 0.8812 0.1808
vn 0.1806 0.8812 -0.4370
vn 0.1808 0.8812 -0.4369
vn 0.3343 0.8812 -0.3343
vn 0.4370 0.8812 -0.1806
vn 0.4369 0.8812 -0.1808
vn 0.4730 0.8810 -0.0000
vn 0.1808 0.8812 0.4369
vn 0.1806 0.8812 0.4370
vn 0.3343 0.8812 0.3343
vn 0.4369 0.8812 0.1808
vn 0.4370 0.8812 0.1806
vn 0.4738 -0.8806 -0.0000
vn 0.4377 -0.8806 0.1813
vn 0.3350 -0.8806 0.3350
vn 0.1813 -0.8806 0.4377
vn -0.0000 -0.8806 0.4738
vn 0.4377 -0.8806 -0.1813
vn 0.3350 -0.8806 -0.3350
vn 0.1813 -0.8806 -0.4377
vn -0.0000 -0.8806 -0.4738
vn -0.4738 -0.8806 -0.0000
vn -0.4377 -0.8806 0.1813
vn -0.3350 -0.8806 0.3350
vn -0.1813 -0.8806 0.4377
vn -0.4377 -0.8806 -0.1813
vn -0.3350 -0.8806 -0.3350
vn -0.1813 -0.8806 -0.4377
vt 0.750000 0.000000
vt 1.000000 0.000000
vt 0.000000 0.000000
vt 0.812657 0.000000
vt 0.875000 0.000000
vt 0.937343 0.000000
vt 0.500000 0.000000
vt 0.562657 0.000000
vt 0.625000 0.000000
vt 0.687343 0.000000
vt 1.000000 1.000000
vt 0.000000 1.000000
vt 0.937343 1.000000
vt 0.874999 1.000000
vt 0.812657 1.000000
vt 0.750000 1.000000
vt 0.500000 1.000000
vt 0.687343 1.000000
vt 0.625000 1.000000
vt 0.562657 1.000000
vt 0.250000 0.000000
vt 0.062657 0.000000
vt 0.125000 0.000000
vt 0.187343 0.000000
vt 0.312657 0.000000
vt 0.375000 0.000000
vt 0.437343 0.000000
vt 0.187343 1.000000
vt 0.125000 1.000000
vt 0.062657 1.000000
vt 0.250000 1.000000
vt 0.437343 1.000000
vt 0.375000 1.000000
vt 0.312657 1.000000
vt 0.001256 0.000000
vt 0.998744 0.000000
vt 0.063599 0.000000
vt 0.125942 0.000000
vt 0.188285 0.000000
vt 0.250628 0.000000
vt 0.500000 0.000000
vt 0.312971 0.000000
vt 0.375314 0.000000
vt 0.437657 0.000000
vt 0.250628 1.000000
vt 0.001256 1.000000
vt 0.998743 1.000000
vt 0.188285 1.000000
vt 0.125942 1.000000
vt 0.063599 1.000000
vt 0.500000 1.000000
vt 0.437657 1.000000
vt 0.375314 1.000000
vt 0.312971 1.000000
vt 0.811715 0.000000
vt 0.874058 0.000000
vt 0.936401 0.000000
vt 0.749372 0.000000
vt 0.562343 0.000000
vt 0.624686 0.000000
vt 0.687029 0.000000
vt 0.749372 1.000000
vt 0.936400 1.000000
vt 0.874057 1.000000
vt 0.811715 1.000000
vt 0.687029 1.000000
vt 0.624686 1.000000
vt 0.562343 1.000000
s 1
usemtl fake_light_mp_1
f 10/11/1 2/2/1 5/6/2 11/13/3
f 11/13/3 5/6/2 4/5/4 12/14/4
f 12/14/4 4/5/4 3/4/5 13/15/6
f 13/15/6 3/4/5 1/1/7 14/16/7
f 6/7/8 15/17/8 18/20/9 7/8/10
f 7/8/10 18/20/9 17/19/11 8/9/11
f 8/9/11 17/19/11 16/18/12 9/10/13
f 9/10/13 16/18/12 14/16/7 1/1/7
f 2/3/1 10/12/1 28/30/14 20/22/15
f 20/22/15 28/30/14 27/29/16 21/23/16
f 21/23/16 27/29/16 26/28/17 22/24/18
f 22/24/18 26/28/17 29/31/19 19/21/19
f 15/17/8 6/7/8 25/27/20 30/32/21
f 30/32/21 25/27/20 24/26/22 31/33/22
f 31/33/22 24/26/22 23/25/23 32/34/24
f 32/34/24 23/25/23 19/21/19 29/31/19
f 42/45/25 37/40/25 36/39/26 44/48/26
f 44/48/26 36/39/26 35/38/27 45/49/27
f 45/49/27 35/38/27 34/37/28 46/50/28
f 46/50/28 34/37/28 33/35/29 43/46/29
f 37/40/25 42/45/25 50/54/30 39/42/30
f 39/42/30 50/54/30 49/53/31 40/43/31
f 40/43/31 49/53/31 48/52/32 41/44/32
f 41/44/32 48/52/32 47/51/33 38/41/33
f 54/58/34 58/62/34 61/65/35 51/55/35
f 51/55/35 61/65/35 60/64/36 52/56/36
f 52/56/36 60/64/36 59/63/37 53/57/37
f 53/57/37 59/63/37 43/47/29 33/36/29
f 58/62/34 54/58/34 57/61/38 62/66/38
f 62/66/38 57/61/38 56/60/39 63/67/39
f 63/67/39 56/60/39 55/59/40 64/68/40
f 64/68/40 55/59/40 38/41/33 47/51/33
