# Blender 3.4.0
# www.blender.org
mtllib ceiling_lamp_2_fake_light_1.mtl
o ceiling_lamp_2_fake_light_1
v -1.200000 -2.500000 -1.500000
v -1.200000 -2.500000 1.500000
v -0.200000 -0.050000 -0.499999
v -0.200000 -0.050000 0.500000
v 1.199999 -2.500000 -1.500000
v 1.199999 -2.500000 1.500000
v 0.199999 -0.050000 -0.499999
v 0.199999 -0.050000 0.500000
v -1.199000 -2.500001 -1.499000
v -1.199000 -2.500000 1.499001
v -0.199000 -0.050000 -0.499000
v -0.199000 -0.050000 0.499000
v 1.198999 -2.500001 -1.499000
v 1.198999 -2.500000 1.499001
v 0.198999 -0.050000 -0.499000
v 0.198999 -0.050000 0.499000
vn -0.9258 0.3779 -0.0000
vn 0.9258 0.3779 -0.0000
vn -0.0000 0.3779 -0.9258
vn -0.0000 0.3779 0.9258
vn 0.9258 -0.3779 -0.0000
vn -0.9258 -0.3779 -0.0000
vn -0.0000 -0.3779 0.9258
vn -0.0000 -0.3779 -0.9258
vt 0.999375 0.000167
vt 0.000893 0.000341
vt 0.001517 0.000167
vt 0.999376 1.000000
vt 0.000893 1.000000
vt 0.001517 1.000000
vt 0.998483 0.000167
vt 0.000624 0.000167
vt 0.999107 0.000000
vt 0.998483 1.000000
vt 0.000625 1.000000
vt 0.999108 1.000000
vt 0.999374 0.000167
vt 0.000896 0.000341
vt 0.001522 0.000167
vt 0.999374 1.000000
vt 0.000896 1.000000
vt 0.001522 1.000000
vt 0.998478 0.000167
vt 0.000626 0.000167
vt 0.999104 0.000000
vt 0.998478 1.000000
vt 0.000627 1.000000
vt 0.999104 1.000000
s 0
usemtl fake_light_mp_1
f 1/1/1 2/3/1 4/6/1 3/4/1
f 7/10/2 8/11/2 6/8/2 5/7/2
f 3/5/3 7/10/3 5/7/3 1/2/3
f 8/12/4 4/6/4 2/3/4 6/9/4
f 9/13/5 11/16/5 12/18/5 10/15/5
f 15/22/6 13/19/6 14/20/6 16/23/6
f 11/17/7 9/14/7 13/19/7 15/22/7
f 16/24/8 14/21/8 10/15/8 12/18/8
