# Blender 3.4.0
# www.blender.org
mtllib lamp_3_off.mtl
o lamp_3_off
v 0.552598 -0.199828 0.054730
v 0.552598 -0.054730 0.199828
v -0.552602 -0.054730 0.199828
v -0.552602 -0.199828 0.054730
v 0.564598 -0.222456 0.060387
v 0.564598 -0.060387 0.222456
v -0.564602 -0.060387 0.222456
v -0.564602 -0.222456 0.060387
v 0.600000 -0.000000 0.000000
v -0.599998 -0.000000 0.000000
v 0.600000 -0.212132 0.000000
v -0.599998 -0.000000 0.212132
v -0.599998 -0.212132 0.000000
v 0.600000 -0.000000 0.212132
v 0.600000 -0.247488 0.035355
v 0.600000 -0.035356 0.247487
v -0.599998 -0.035356 0.247487
v -0.599998 -0.247488 0.035355
vn -0.0000 -0.7071 -0.7071
vn -1.0000 -0.0000 -0.0000
vn -0.0000 1.0000 -0.0000
vn -0.0000 0.7071 0.7071
vn 1.0000 -0.0000 -0.0000
vn -0.0000 -0.0000 -1.0000
vn -0.0000 -0.7071 0.7071
vn -0.0000 0.2425 0.9701
vn -0.0000 -0.9701 -0.2425
vn 0.8575 -0.3638 0.3638
vn -0.8575 -0.3638 0.3638
vt 0.960938 0.179688
vt 0.960496 0.579000
vt 0.582031 0.179688
vt 0.960496 0.921000
vt 0.960938 0.179688
vt 0.410156 0.179688
vt 0.039498 0.921000
vt 0.031250 0.179688
vt 0.410156 0.179688
vt 0.031250 0.179688
vt 0.039498 0.579000
vt 0.582031 0.179688
vt 0.972656 0.148438
vt 0.970497 0.559000
vt 0.593750 0.148438
vt 0.970497 0.941000
vt 0.972656 0.148438
vt 0.398438 0.148438
vt 0.029498 0.941000
vt 0.019531 0.148438
vt 0.398438 0.148438
vt 0.019531 0.148438
vt 0.029498 0.559000
vt 0.593750 0.148438
vt 1.000000 0.487474
vt 0.500000 0.382813
vt 0.000000 0.487474
vt 0.000000 0.487474
vt 0.500000 0.382813
vt 1.000000 0.487474
vt 1.000000 0.148438
vt 0.617188 0.148438
vt 0.000000 0.148438
vt 0.625000 0.148438
vt 0.375000 0.148438
vt 0.000000 0.148438
vt 0.382812 0.148438
vt 0.000000 0.148438
vt 0.625000 0.148438
vt 0.617188 0.148438
vt 1.000000 0.148438
vt 1.000000 0.148438
vt 0.382812 0.148438
vt 0.375000 0.148438
vt 1.000000 0.062500
vt 1.000000 0.500000
vt 0.625000 0.062500
vt 1.000000 0.062500
vt 1.000000 1.000000
vt 0.375000 0.062500
vt 0.375000 0.062500
vt 0.000000 0.062500
vt 0.000000 1.000000
vt 0.000000 0.062500
vt 0.625000 0.062500
vt 0.000000 0.500000
s 0
usemtl lamp_3_off
f 15/45/1 18/54/1 13/38/1 11/31/1
f 18/55/2 17/51/2 12/35/2 13/39/2
f 9/25/3 10/28/3 12/36/3 14/42/3
f 17/52/4 16/48/4 14/42/4 12/36/4
f 10/29/2 13/40/2 12/37/2
f 9/26/5 14/43/5 11/32/5
f 10/30/6 9/27/6 11/33/6 13/41/6
f 6/16/7 5/14/7 15/46/7 16/49/7
f 8/22/8 5/13/8 1/1/8 4/10/8
f 1/2/7 2/4/7 3/7/7 4/11/7
f 7/19/7 6/16/7 16/49/7 17/53/7
f 8/23/7 7/19/7 17/53/7 18/56/7
f 5/14/7 8/23/7 18/56/7 15/46/7
f 6/17/9 7/20/9 3/8/9 2/5/9
f 7/21/10 8/24/10 4/12/10 3/9/10
f 5/15/11 6/18/11 2/6/11 1/3/11
f 16/50/5 15/47/5 11/34/5 14/44/5
