# Blender 3.4.0
# www.blender.org
mtllib car_battery_1.mtl
o car_battery_1
v -0.183499 0.187200 0.097172
v -0.167134 0.187200 0.112320
v -0.178300 0.187200 0.107883
v -0.167134 0.187200 -0.112320
v -0.182612 0.187023 -0.098059
v -0.178041 0.187148 -0.108143
v 0.167134 0.187200 0.112320
v 0.182612 0.187023 0.098059
v 0.178041 0.187148 0.108143
v 0.183499 0.187200 -0.097172
v 0.167134 0.187200 -0.112320
v 0.178300 0.187200 -0.107883
v -0.171841 0.187200 -0.117000
v -0.187200 0.187200 -0.101021
v -0.182701 0.187200 -0.112320
v -0.187200 0.187200 0.101021
v -0.171841 0.187200 0.117000
v -0.182701 0.187200 0.112320
v 0.187200 0.187200 -0.101021
v 0.171841 0.187200 -0.117000
v 0.182701 0.187200 -0.112320
v 0.171841 0.187200 0.117000
v 0.187200 0.187200 0.101021
v 0.182701 0.187200 0.112320
v -0.170890 0.180180 -0.114566
v -0.186170 0.180180 -0.100260
v -0.181695 0.180180 -0.110376
v -0.186170 0.180180 0.100260
v -0.170890 0.180180 0.114566
v -0.181695 0.180180 0.110376
v 0.186170 0.180180 -0.100260
v 0.170890 0.180180 -0.114566
v 0.181695 0.180180 -0.110376
v 0.170890 0.180180 0.114566
v 0.186170 0.180180 0.100260
v 0.181695 0.180180 0.110376
v -0.176810 0.000000 -0.098296
v -0.186170 0.009360 -0.100269
v -0.169182 0.000000 -0.105206
v -0.170935 0.009360 -0.114566
v -0.174709 0.000000 -0.103058
v -0.181708 0.009360 -0.110379
v -0.169182 0.000000 0.105206
v -0.170935 0.009360 0.114566
v -0.176810 0.000000 0.098296
v -0.186170 0.009360 0.100269
v -0.174709 0.000000 0.103058
v -0.181708 0.009360 0.110379
v 0.169182 0.000000 -0.105206
v 0.170935 0.009360 -0.114566
v 0.176810 0.000000 -0.098296
v 0.186170 0.009360 -0.100269
v 0.174709 0.000000 -0.103058
v 0.181708 0.009360 -0.110379
v 0.176810 0.000000 0.098296
v 0.186170 0.009360 0.100269
v 0.169182 0.000000 0.105206
v 0.170935 0.009360 0.114566
v 0.174709 0.000000 0.103058
v 0.181708 0.009360 0.110379
v -0.177840 0.234000 0.099299
v -0.187200 0.224640 0.101081
v -0.171882 0.224640 0.117000
v -0.169958 0.234000 0.107640
v -0.182713 0.224640 0.112337
v -0.175455 0.234000 0.105276
v -0.169963 0.234000 -0.107640
v -0.171882 0.224640 -0.117000
v -0.187200 0.224640 -0.101081
v -0.177844 0.234000 -0.099299
v -0.182713 0.224640 -0.112337
v -0.175455 0.234000 -0.105276
v 0.171882 0.224640 0.117000
v 0.169958 0.234000 0.107640
v 0.187200 0.224640 0.101081
v 0.177844 0.234000 0.099299
v 0.182713 0.224640 0.112337
v 0.175455 0.234000 0.105276
v 0.187200 0.224640 -0.101081
v 0.177844 0.234000 -0.099299
v 0.171882 0.224640 -0.117000
v 0.169958 0.234000 -0.107640
v 0.182713 0.224640 -0.112337
v 0.175455 0.234000 -0.105276
v 0.112320 0.234000 0.023400
v 0.175500 0.234000 0.023400
v 0.175500 0.234000 -0.098280
v -0.175500 0.234000 0.023400
v -0.175500 0.234000 -0.098280
v -0.112320 0.234000 0.098280
v -0.112320 0.234000 0.023400
v 0.112320 0.234000 0.098280
v -0.175500 0.252720 0.023400
v -0.170820 0.257400 0.018720
v -0.170820 0.257400 -0.093600
v -0.175500 0.252720 -0.098280
v -0.112320 0.252720 0.023400
v -0.107640 0.257400 0.018720
v 0.107640 0.257400 0.018720
v 0.112320 0.252720 0.023400
v 0.170820 0.257400 0.018720
v 0.175500 0.252720 0.023400
v 0.170820 0.257400 -0.093600
v 0.175500 0.252720 -0.098280
v -0.107640 0.257400 0.093600
v -0.112320 0.252720 0.098280
v 0.107640 0.257400 0.093600
v 0.112320 0.252720 0.098280
v -0.166468 0.257400 0.060840
v -0.149760 0.257400 0.077548
v -0.161574 0.257400 0.072654
v -0.149760 0.257400 0.044132
v -0.161574 0.257400 0.049026
v -0.133052 0.257400 0.060840
v -0.137946 0.257400 0.072654
v -0.137946 0.257400 0.049026
v -0.168925 0.234000 0.060840
v -0.149760 0.234000 0.041675
v -0.149760 0.234000 0.080005
v -0.163311 0.234000 0.074391
v -0.163311 0.234000 0.047289
v -0.130595 0.234000 0.060840
v -0.136209 0.234000 0.074391
v -0.136209 0.234000 0.047289
v 0.133532 0.257400 0.060840
v 0.150240 0.257400 0.077548
v 0.138426 0.257400 0.072654
v 0.150240 0.257400 0.044132
v 0.138426 0.257400 0.049026
v 0.166948 0.257400 0.060840
v 0.162054 0.257400 0.072654
v 0.162054 0.257400 0.049026
v 0.131075 0.234000 0.060840
v 0.150240 0.234000 0.041675
v 0.150240 0.234000 0.080005
v 0.136689 0.234000 0.074391
v 0.136689 0.234000 0.047289
v 0.169405 0.234000 0.060840
v 0.163791 0.234000 0.074391
v 0.163791 0.234000 0.047289
vn -0.0000 -1.0000 -0.0000
vn 0.6306 -0.4090 0.6596
vn 0.2471 -0.9339 0.2584
vn 0.3675 -0.9268 0.0775
vn 0.9011 -0.3898 0.1900
vn -0.0175 -0.9998 -0.0077
vn -0.0189 -0.9998 -0.0047
vn -0.0141 -0.9999 0.0003
vn -0.0059 -1.0000 0.0001
vn -0.0079 -0.9999 -0.0092
vn -0.0073 -0.9999 -0.0090
vn -0.0000 1.0000 -0.0000
vn 0.1698 -0.3883 -0.9057
vn 0.0695 -0.9262 -0.3706
vn -0.0695 -0.9262 -0.3706
vn -0.1698 -0.3883 -0.9057
vn 0.2021 -0.0003 -0.9794
vn 0.7168 -0.0006 -0.6973
vn 0.2018 -0.0003 -0.9794
vn -0.8546 0.4798 -0.1986
vn -0.8559 0.4658 0.2248
vn -0.8795 0.4507 0.1529
vn -0.8692 0.4677 -0.1603
vn -0.9821 -0.0003 0.1886
vn -0.9821 -0.0003 0.1882
vn -0.7168 -0.0006 0.6973
vn -0.2086 0.3967 -0.8940
vn -0.1240 0.3615 -0.9241
vn 0.1258 0.3649 -0.9225
vn 0.2106 0.4019 -0.8912
vn 0.9821 -0.0003 -0.1886
vn 0.9821 -0.0003 -0.1882
vn 0.0175 -0.9998 0.0077
vn 0.0189 -0.9998 0.0047
vn 0.0141 -0.9999 -0.0003
vn 0.0059 -1.0000 -0.0001
vn -0.1841 -0.0000 -0.9829
vn -0.6908 0.0001 -0.7231
vn -0.6907 0.0001 -0.7231
vn -0.0000 -1.0000 -0.0019
vn -0.0000 -1.0000 -0.0042
vn -0.2018 -0.0003 -0.9794
vn -0.2021 -0.0003 -0.9794
vn -0.3675 -0.9268 0.0775
vn -0.9011 -0.3898 0.1900
vn -0.9011 -0.3898 -0.1900
vn -0.3675 -0.9268 -0.0775
vn 0.1841 -0.0000 -0.9829
vn 0.6907 0.0001 -0.7231
vn 0.6908 0.0001 -0.7231
vn -0.2018 -0.0003 0.9794
vn -0.2021 -0.0003 0.9794
vn -0.9784 -0.0000 0.2066
vn -0.6908 0.0001 0.7231
vn -0.6907 0.0001 0.7231
vn -0.9784 -0.0000 0.2065
vn 0.9821 -0.0003 0.1886
vn 0.7168 -0.0006 0.6973
vn 0.9821 -0.0003 0.1882
vn 0.2018 -0.0003 0.9794
vn 0.2021 -0.0003 0.9794
vn -0.7168 -0.0006 -0.6973
vn -0.9821 -0.0003 -0.1886
vn -0.9821 -0.0003 -0.1882
vn 0.0079 -0.9999 0.0092
vn 0.0073 -0.9999 0.0090
vn -0.2471 -0.9339 0.2584
vn -0.6306 -0.4090 0.6596
vn 0.1698 -0.3883 0.9057
vn 0.0695 -0.9262 0.3706
vn -0.5793 0.4942 0.6482
vn -0.6072 0.4966 0.6202
vn -0.2106 0.4019 0.8912
vn -0.1258 0.3649 0.9225
vn 0.5679 0.5060 0.6492
vn 0.1240 0.3615 0.9241
vn 0.2086 0.3967 0.8940
vn 0.6092 0.5131 0.6047
vn 0.8546 0.4798 0.1986
vn 0.8692 0.4677 0.1603
vn -0.5679 0.5060 -0.6492
vn -0.6092 0.5131 -0.6047
vn 0.8559 0.4658 -0.2248
vn 0.6072 0.4966 -0.6202
vn 0.5793 0.4942 -0.6482
vn 0.8795 0.4507 -0.1529
vn -0.9784 -0.0000 -0.2065
vn -0.9784 -0.0000 -0.2066
vn 0.1841 -0.0000 0.9829
vn -0.1841 -0.0000 0.9829
vn 0.9784 -0.0000 -0.2065
vn 0.9784 -0.0000 -0.2066
vn 0.6907 0.0001 0.7231
vn 0.6908 0.0001 0.7231
vn -0.1698 -0.3883 0.9057
vn -0.0695 -0.9262 0.3706
vn 0.6306 -0.4090 -0.6596
vn 0.2471 -0.9339 -0.2584
vn 0.9011 -0.3898 -0.1900
vn 0.3675 -0.9268 -0.0775
vn -0.6882 0.7133 -0.1321
vn -0.6882 0.7133 -0.1323
vn -0.4864 0.7343 -0.4736
vn -0.4864 0.7343 -0.4735
vn 0.6882 0.7133 0.1323
vn 0.6883 0.7133 0.1321
vn 0.6883 0.7133 -0.1321
vn 0.6882 0.7133 -0.1323
vn -0.2471 -0.9339 -0.2584
vn -0.6306 -0.4090 -0.6596
vn 0.9784 -0.0000 0.2066
vn 0.9784 -0.0000 0.2065
vn 0.1412 0.7144 0.6854
vn 0.4864 0.7343 0.4735
vn 0.4863 0.7343 0.4736
vn 0.1413 0.7144 0.6854
vn -0.6882 0.7134 0.1321
vn -0.4864 0.7344 0.4734
vn -0.4863 0.7344 0.4735
vn -0.6882 0.7134 0.1323
vn 0.1412 0.7144 -0.6854
vn 0.1413 0.7144 -0.6854
vn 0.4863 0.7343 -0.4736
vn 0.4864 0.7343 -0.4735
vn -0.1412 0.7144 0.6854
vn -0.1413 0.7144 0.6854
vn -0.1412 0.7143 -0.6854
vn -0.1413 0.7143 -0.6854
vn 1.0000 -0.0000 -0.0000
vn -0.0000 -1.0000 0.0019
vn -0.0000 -1.0000 0.0042
vn -1.0000 -0.0000 -0.0000
vn -0.0000 -0.0000 -1.0000
vn -0.0000 -0.0000 1.0000
vn -0.0000 0.7071 -0.7071
vn 0.7071 0.7071 -0.0000
vn -0.7071 0.7071 -0.0000
vn -0.0000 0.7071 0.7071
vn -0.0000 0.1044 -0.9945
vn -0.7032 0.1044 -0.7032
vn 0.9945 0.1044 -0.0000
vn 0.7032 0.1044 -0.7032
vn -0.0000 0.1044 0.9945
vn 0.7032 0.1044 0.7032
vn -0.9945 0.1044 -0.0000
vn -0.7032 0.1044 0.7032
vt 0.020680 0.492693
vt 0.003703 0.559335
vt 0.020080 0.543937
vt 0.021152 0.721033
vt 0.005854 0.721033
vt 0.005854 0.493032
vt 0.004683 0.543937
vt 0.354575 0.760352
vt 0.353502 0.721033
vt 0.004591 0.745856
vt 0.214261 0.492882
vt 0.004683 0.760352
vt 0.369971 0.760352
vt 0.368800 0.721033
vt 0.228305 0.493032
vt 0.354575 0.543937
vt 0.353502 0.721033
vt 0.370063 0.558433
vt 0.019898 0.492882
vt 0.368800 0.721033
vt 0.005854 0.493032
vt 0.369971 0.543937
vt 0.370951 0.744954
vt 0.213479 0.492693
vt 0.020080 0.760352
vt 0.021152 0.721033
vt 0.004683 0.760352
vt 0.369971 0.760352
vt 0.228305 0.493032
vt 0.005854 0.721033
vt 0.359285 0.721033
vt 0.359285 0.765110
vt 0.000000 0.748867
vt 0.218170 0.493032
vt 0.004592 0.760444
vt 0.374654 0.721033
vt 0.234159 0.493032
vt 0.370062 0.760444
vt 0.015989 0.493032
vt 0.000000 0.555422
vt 0.015369 0.721033
vt 0.015369 0.539179
vt 0.000000 0.493032
vt 0.000000 0.721033
vt 0.004592 0.543844
vt 0.374654 0.748867
vt 0.218170 0.493032
vt 0.015369 0.721033
vt 0.015369 0.765110
vt 0.000000 0.721033
vt 0.234159 0.493032
vt 0.004592 0.760444
vt 0.370062 0.760444
vt 0.359285 0.721033
vt 0.359285 0.539179
vt 0.374654 0.555422
vt 0.015989 0.493032
vt 0.000000 0.493032
vt 0.374654 0.721033
vt 0.370062 0.543844
vt 0.359279 0.715087
vt 0.219538 0.487086
vt 0.374654 0.715087
vt 0.372426 0.717350
vt 0.234159 0.487086
vt 0.231931 0.489349
vt 0.014621 0.487086
vt 0.015375 0.715087
vt 0.000000 0.487086
vt 0.002228 0.717350
vt 0.000000 0.715087
vt 0.002228 0.489349
vt 0.219538 0.487086
vt 0.015375 0.715087
vt 0.000000 0.715087
vt 0.231931 0.489349
vt 0.234159 0.487086
vt 0.002228 0.717350
vt 0.359279 0.715087
vt 0.014621 0.487086
vt 0.372426 0.717350
vt 0.002228 0.489349
vt 0.374654 0.715087
vt 0.000000 0.487086
vt 0.011003 0.085848
vt 0.219548 0.313650
vt 0.001644 0.083874
vt 0.018637 0.078937
vt 0.359324 0.545783
vt 0.016882 0.069577
vt 0.013115 0.081086
vt 0.374654 0.545782
vt 0.234159 0.313650
vt 0.006105 0.073764
vt 0.018637 0.289363
vt 0.015330 0.545782
vt 0.016882 0.298723
vt 0.011003 0.282452
vt 0.001644 0.284425
vt 0.014611 0.313650
vt 0.013115 0.287214
vt 0.000000 0.313650
vt 0.000000 0.545782
vt 0.006105 0.294535
vt 0.357020 0.078937
vt 0.015330 0.545783
vt 0.358774 0.069577
vt 0.364653 0.085848
vt 0.219548 0.313650
vt 0.374013 0.083874
vt 0.362548 0.081086
vt 0.000000 0.545783
vt 0.234159 0.313650
vt 0.369551 0.073764
vt 0.364653 0.282452
vt 0.014611 0.313650
vt 0.374013 0.284425
vt 0.357020 0.289363
vt 0.359324 0.545782
vt 0.358774 0.298723
vt 0.362548 0.287214
vt 0.369551 0.294535
vt 0.374654 0.545782
vt 0.000000 0.313650
vt 0.086173 0.986320
vt 0.009366 0.780130
vt 0.015930 0.534864
vt 0.084353 0.999836
vt 0.015329 0.752622
vt 0.012060 0.999811
vt 0.014024 0.986295
vt 0.017248 0.771651
vt 0.000000 0.534864
vt 0.000000 0.752622
vt 0.072427 0.996538
vt 0.000519 0.996375
vt 0.079840 0.984566
vt 0.008168 0.984553
vt 0.011751 0.774054
vt 0.014019 0.986295
vt 0.017248 0.990486
vt 0.359326 0.752622
vt 0.012060 0.999811
vt 0.218229 0.534864
vt 0.290777 0.999836
vt 0.288958 0.986322
vt 0.009366 0.982006
vt 0.374654 0.752622
vt 0.234159 0.534864
vt 0.302703 0.996539
vt 0.000520 0.996375
vt 0.295291 0.984566
vt 0.008168 0.984553
vt 0.011751 0.988082
vt 0.359326 0.752622
vt 0.363071 0.999811
vt 0.361107 0.986295
vt 0.357406 0.771651
vt 0.290777 0.999835
vt 0.015930 0.534864
vt 0.288958 0.986322
vt 0.365288 0.780130
vt 0.000000 0.534864
vt 0.374654 0.752622
vt 0.374611 0.996375
vt 0.302703 0.996538
vt 0.366962 0.984553
vt 0.295291 0.984566
vt 0.362903 0.774054
vt 0.084353 0.999835
vt 0.218229 0.534864
vt 0.086173 0.986322
vt 0.365288 0.982006
vt 0.015329 0.752622
vt 0.363072 0.999811
vt 0.361108 0.986295
vt 0.357406 0.990485
vt 0.000000 0.752622
vt 0.234159 0.534864
vt 0.374612 0.996375
vt 0.072427 0.996538
vt 0.366963 0.984553
vt 0.079839 0.984566
vt 0.362903 0.988082
vt 0.152344 0.742188
vt 0.304688 0.742188
vt 0.375000 0.742188
vt 0.152344 0.742188
vt 0.375000 0.742188
vt 0.281250 0.742188
vt 0.152344 0.742188
vt 0.000000 0.742188
vt 0.000000 0.742188
vt 0.281250 0.742188
vt 0.070312 0.742188
vt 0.152344 0.742188
vt 0.070312 0.742188
vt 0.070312 0.742188
vt 0.304688 0.742188
vt 0.152344 0.761719
vt 0.000000 0.761719
vt 0.011708 0.857282
vt 0.016478 0.862085
vt 0.016478 0.977357
vt 0.000000 0.761719
vt 0.281250 0.761719
vt 0.011708 0.982160
vt 0.152344 0.761719
vt 0.070312 0.761719
vt 0.076102 0.857282
vt 0.080736 0.862113
vt 0.080872 0.862085
vt 0.293783 0.862085
vt 0.293918 0.862113
vt 0.152344 0.761719
vt 0.304688 0.761719
vt 0.298553 0.857282
vt 0.358176 0.862085
vt 0.375000 0.761719
vt 0.152344 0.761719
vt 0.362946 0.857282
vt 0.358176 0.977357
vt 0.375000 0.761719
vt 0.281250 0.761719
vt 0.362946 0.982160
vt 0.080736 0.784808
vt 0.070312 0.761719
vt 0.076102 0.779976
vt 0.293918 0.784808
vt 0.070312 0.761719
vt 0.304688 0.761719
vt 0.298553 0.779976
vt 0.371094 0.378906
vt 0.312500 0.378906
vt 0.267393 0.396411
vt 0.283236 0.380086
vt 0.335938 0.378906
vt 0.347656 0.378906
vt 0.272034 0.384868
vt 0.359375 0.378906
vt 0.335938 0.378906
vt 0.283236 0.412736
vt 0.324219 0.378906
vt 0.272034 0.407955
vt 0.359375 0.378906
vt 0.299078 0.396411
vt 0.312500 0.378906
vt 0.294438 0.384868
vt 0.324219 0.378906
vt 0.347656 0.378906
vt 0.294438 0.407955
vt 0.371094 0.398438
vt 0.312500 0.398438
vt 0.335938 0.398438
vt 0.335938 0.398438
vt 0.347656 0.398438
vt 0.359375 0.398438
vt 0.324219 0.398438
vt 0.359375 0.398438
vt 0.312500 0.398438
vt 0.324219 0.398438
vt 0.347656 0.398438
vt 0.371094 0.441406
vt 0.312500 0.441406
vt 0.267393 0.458911
vt 0.283236 0.442586
vt 0.335938 0.441406
vt 0.347656 0.441406
vt 0.272034 0.447368
vt 0.359375 0.441406
vt 0.335938 0.441406
vt 0.283236 0.475236
vt 0.324219 0.441406
vt 0.272034 0.470455
vt 0.359375 0.441406
vt 0.299078 0.458911
vt 0.312500 0.441406
vt 0.294438 0.447368
vt 0.324219 0.441406
vt 0.347656 0.441406
vt 0.294438 0.470455
vt 0.371094 0.460938
vt 0.312500 0.460938
vt 0.335938 0.460938
vt 0.335938 0.460938
vt 0.347656 0.460938
vt 0.359375 0.460938
vt 0.324219 0.460938
vt 0.359375 0.460938
vt 0.312500 0.460938
vt 0.324219 0.460938
vt 0.347656 0.460938
s 1
usemtl batteries_mp_1
f 57/118/1 55/115/1 59/121/1
f 60/122/2 59/121/3 55/115/4 56/117/5
f 14/33/6 5/10/7 1/2/8 16/40/9
f 14/33/6 15/35/10 6/12/11 5/10/7
f 76/162/12 80/173/12 82/177/12 74/158/12
f 51/108/1 49/105/1 53/111/1
f 37/85/1 41/91/1 39/88/1
f 47/101/1 45/98/1 43/95/1
f 50/107/13 49/105/14 39/88/15 40/90/16
f 81/174/17 83/178/18 21/50/18 20/48/19
f 26/62/20 28/67/21 1/1/22 5/11/23
f 62/127/24 16/39/25 18/43/26 65/133/26
f 25/61/27 4/9/28 11/26/29 32/74/30
f 21/51/18 83/179/18 79/171/31 19/47/32
f 23/56/33 8/18/34 10/23/35 19/46/36
f 40/89/37 42/92/38 27/63/39 25/61/37
f 20/49/1 11/25/1 4/8/40 13/32/41
f 20/48/19 13/31/42 68/142/43 81/174/17
f 45/98/44 46/99/45 38/87/46 37/85/47
f 50/106/48 32/74/48 33/75/49 54/112/50
f 18/44/26 17/41/51 63/129/52 65/134/26
f 46/100/53 48/102/54 30/69/55 28/67/56
f 75/160/57 77/163/58 24/58/58 23/57/59
f 17/41/51 22/54/60 73/155/61 63/129/52
f 15/36/62 71/148/62 68/142/43 13/31/42
f 24/59/58 77/164/58 73/155/61 22/54/60
f 69/144/63 71/149/62 15/37/62 14/34/64
f 14/34/64 16/39/25 62/127/24 69/144/63
f 23/56/33 24/60/65 9/22/66 8/18/34
f 20/49/1 21/52/1 12/27/1 11/25/1
f 12/28/1 21/53/1 19/46/36 10/23/35
f 6/13/11 15/38/10 13/32/41 4/8/40
f 46/99/45 45/98/44 47/101/67 48/104/68
f 45/98/1 37/85/1 39/88/1 43/95/1
f 58/120/69 57/118/70 59/121/3 60/122/2
f 3/5/71 30/70/72 29/68/73 2/4/74
f 9/20/75 7/17/76 34/79/77 36/81/78
f 35/80/79 8/19/80 9/21/75 36/82/78
f 6/14/81 4/9/28 25/61/27 27/64/82
f 31/73/83 33/76/84 12/29/85 10/24/86
f 46/100/53 28/67/56 26/62/87 38/86/88
f 27/65/39 42/93/38 38/86/88 26/62/87
f 58/119/89 34/79/89 29/68/90 44/96/90
f 33/77/49 31/73/91 52/109/92 54/113/50
f 30/71/55 48/103/54 44/96/90 29/68/90
f 40/89/37 25/61/37 32/74/48 50/106/48
f 36/83/93 34/79/89 58/119/89 60/123/94
f 35/80/79 31/73/83 10/24/86 8/19/80
f 44/97/95 43/95/96 57/118/70 58/120/69
f 50/107/13 54/114/97 53/111/98 49/105/14
f 44/97/95 48/104/68 47/101/67 43/95/96
f 52/110/99 51/108/100 53/111/98 54/114/97
f 69/145/101 70/146/102 72/152/103 71/150/104
f 76/161/105 75/159/106 79/170/107 80/172/108
f 40/90/16 39/88/15 41/91/109 42/94/110
f 56/116/111 35/80/112 36/84/93 60/124/94
f 73/156/113 77/165/114 78/167/115 74/157/116
f 75/159/106 76/161/105 78/168/115 77/166/114
f 62/128/117 65/135/118 66/137/119 61/125/120
f 81/175/121 82/176/122 84/182/123 83/180/124
f 63/130/125 64/131/126 66/138/119 65/136/118
f 68/143/127 71/151/104 72/153/103 67/140/128
f 79/170/107 83/181/124 84/183/123 80/172/108
f 82/176/122 81/175/121 68/143/127 67/140/128
f 69/145/101 62/128/117 61/125/120 70/146/102
f 28/67/21 30/72/72 3/6/71 1/1/22
f 63/130/125 73/156/113 74/157/116 64/131/126
f 23/57/59 19/47/32 79/171/31 75/160/57
f 55/115/1 57/118/1 49/105/1 51/108/1
f 26/62/20 5/11/23 6/15/81 27/66/82
f 17/42/1 2/3/1 7/16/130 22/55/131
f 9/22/66 24/60/65 22/55/131 7/16/130
f 3/7/1 2/3/1 17/42/1 18/45/1
f 34/79/77 7/17/76 2/4/74 29/68/73
f 52/109/92 31/73/91 35/80/112 56/116/111
f 43/95/1 39/88/1 49/105/1 57/118/1
f 16/40/9 1/2/8 3/7/1 18/45/1
f 12/30/85 33/78/84 32/74/30 11/26/29
f 67/141/12 70/147/12 61/126/12 64/132/12
f 67/141/12 72/154/12 70/147/12
f 61/126/12 66/139/12 64/132/12
f 74/158/12 78/169/12 76/162/12
f 80/173/12 84/184/12 82/177/12
f 64/132/12 74/158/12 82/177/12 67/141/12
f 55/115/4 51/108/100 52/110/99 56/117/5
f 38/87/46 42/94/110 41/91/109 37/85/47
usemtl 
f 85/185/129 100/215/129 108/230/129 92/198/129
f 90/195/132 106/227/132 97/208/132 91/196/132
f 87/189/133 89/193/133 96/205/133 104/223/133
f 101/218/12 103/222/12 95/204/12 94/203/12 98/211/12 99/213/12
f 85/186/134 86/187/134 102/219/134 100/216/134
f 103/222/135 104/225/135 96/207/135 95/204/135
f 107/229/12 99/214/12 98/211/12 105/226/12
f 89/194/132 88/191/132 93/200/132 96/206/132
f 90/195/134 92/199/134 108/231/134 106/227/134
f 86/188/129 87/190/129 104/224/129 102/220/129
f 101/218/136 102/221/136 104/225/136 103/222/136
f 91/197/134 97/209/134 93/201/134 88/192/134
f 105/226/137 98/211/137 97/210/137 106/228/137
f 93/202/137 94/203/137 95/204/137 96/207/137
f 94/203/138 93/202/138 97/210/138 98/212/138
f 101/218/138 99/213/138 100/217/138 102/221/138
f 105/226/138 106/228/138 108/232/138 107/229/138
f 100/217/136 99/214/136 107/229/136 108/232/136
f 111/239/12 114/246/12 116/251/12 109/235/12
f 112/241/139 118/254/139 121/258/140 113/243/140
f 114/245/141 122/259/141 124/262/142 116/250/142
f 110/236/12 115/248/12 114/246/12 111/239/12
f 119/255/143 123/261/144 115/249/144 110/237/143
f 117/252/145 120/257/146 111/240/146 109/233/145
f 120/257/146 119/256/143 110/238/143 111/240/146
f 118/254/139 112/241/139 116/250/142 124/262/142
f 123/261/144 122/260/141 114/247/141 115/249/144
f 121/258/140 117/253/145 109/234/145 113/243/140
f 113/244/12 109/235/12 116/251/12 112/242/12
f 127/269/12 130/276/12 132/281/12 125/265/12
f 128/271/139 134/284/139 137/288/140 129/273/140
f 130/275/141 138/289/141 140/292/142 132/280/142
f 126/266/12 131/278/12 130/276/12 127/269/12
f 135/285/143 139/291/144 131/279/144 126/267/143
f 133/282/145 136/287/146 127/270/146 125/263/145
f 136/287/146 135/286/143 126/268/143 127/270/146
f 134/284/139 128/271/139 132/280/142 140/292/142
f 139/291/144 138/290/141 130/277/141 131/279/144
f 137/288/140 133/283/145 125/264/145 129/273/140
f 129/274/12 125/265/12 132/281/12 128/272/12
