# Blender 3.4.0
# www.blender.org
mtllib cig_2.mtl
o cig_2
v 0.040501 -0.000000 0.000281
v 0.040501 0.001977 0.005054
v 0.040501 0.013500 0.000281
v 0.040501 0.006750 0.007031
v 0.040501 0.011523 0.005054
v 0.040501 0.001977 -0.004492
v 0.040501 0.006750 -0.006469
v 0.040501 0.011523 -0.004492
v -0.046928 0.006750 -0.006750
v -0.025071 0.006750 -0.011308
v -0.003214 0.006750 -0.007372
v -0.046928 0.001977 -0.004773
v -0.025071 0.001977 -0.009273
v -0.003214 0.001977 -0.005395
v -0.003214 0.011523 -0.005395
v -0.025071 0.011523 -0.009331
v -0.046928 0.011523 -0.004773
v -0.046928 -0.000000 0.000000
v -0.025071 -0.000000 -0.004500
v -0.003214 -0.000000 -0.000622
v -0.003214 0.001977 0.004151
v -0.025071 0.001977 0.000215
v -0.046928 0.001977 0.004773
v -0.003214 0.013500 -0.000622
v -0.025071 0.013500 -0.004558
v -0.046928 0.013500 0.000000
v -0.046928 0.011523 0.004773
v -0.025071 0.011523 0.000215
v -0.003214 0.011523 0.004151
v -0.046928 0.006750 0.006750
v -0.025071 0.006750 0.002192
v -0.003214 0.006750 0.006128
v -0.051261 0.006750 -0.009369
v -0.051261 0.001977 -0.006955
v -0.051261 0.011523 -0.006955
v -0.051261 -0.000000 -0.001126
v -0.051261 0.001977 0.004703
v -0.051261 0.013500 -0.001126
v -0.051261 0.011523 0.004703
v -0.051261 0.006750 0.007118
v -0.014142 0.006750 -0.008095
v -0.014142 0.001977 -0.006088
v -0.014142 0.011523 -0.006118
v -0.014142 -0.000000 -0.001315
v -0.014142 0.001977 0.003428
v -0.014142 0.013500 -0.001345
v -0.014142 0.011523 0.003428
v -0.014142 0.006750 0.005405
v -0.035999 0.006750 -0.010150
v -0.035999 0.001977 -0.008144
v -0.035999 0.011523 -0.008173
v -0.035999 -0.000000 -0.003371
v -0.035999 0.001977 0.001373
v -0.035999 0.013500 -0.003400
v -0.035999 0.011523 0.001373
v -0.035999 0.006750 0.003350
v 0.029572 0.006750 -0.006766
v 0.029572 0.001977 -0.004789
v 0.029572 -0.000000 -0.000016
v 0.029572 0.011523 0.004757
v 0.029572 0.006750 0.006734
v 0.029572 0.011523 -0.004789
v 0.029572 0.001977 0.004757
v 0.029572 0.013500 -0.000016
v 0.007715 0.006750 -0.008401
v 0.007715 0.001977 -0.006424
v 0.007715 0.011523 -0.006424
v 0.007715 -0.000000 -0.001651
v 0.007715 0.001977 0.003122
v 0.007715 0.013500 -0.001651
v 0.007715 0.011523 0.003122
v 0.007715 0.006750 0.005099
vn 1.0000 -0.0000 -0.0000
vn -0.0006 1.0000 0.0058
vn -0.0002 1.0000 0.0066
vn 0.0191 0.7103 -0.7036
vn 0.0358 0.7097 -0.7036
vn 0.0271 -0.0000 -0.9996
vn 0.0512 -0.0000 -0.9987
vn -0.0006 -1.0000 0.0058
vn -0.0002 -1.0000 0.0066
vn -0.0193 -0.7037 0.7102
vn -0.0361 -0.7039 0.7094
vn -0.0271 -0.0000 0.9996
vn -0.0506 -0.0000 0.9987
vn -0.0004 0.9998 -0.0205
vn 0.0067 0.7175 0.6965
vn -0.0361 0.7039 0.7094
vn 0.0100 0.6975 0.7165
vn 0.0137 -0.0000 0.9999
vn 0.0098 -0.0000 1.0000
vn -0.1272 0.6902 0.7124
vn -0.0625 0.7305 0.6800
vn -0.0946 -0.0000 0.9955
vn -0.1706 -0.0000 0.9853
vn 0.1422 0.7138 0.6858
vn 0.1057 0.6994 0.7069
vn 0.1624 -0.0000 0.9867
vn 0.2071 -0.0000 0.9783
vn 0.0067 -0.7175 0.6965
vn 0.0005 0.9998 0.0195
vn -0.0097 0.9996 0.0266
vn 0.0088 0.9988 -0.0475
vn -0.0100 0.9997 -0.0236
vn 0.0267 0.9975 0.0650
vn -0.0095 -0.7347 0.6783
vn 0.1056 -0.6993 0.7070
vn 0.0343 -0.0000 0.9994
vn 0.1420 -0.7130 0.6866
vn -0.0626 -0.7293 0.6814
vn -0.1271 -0.6895 0.7131
vn 0.0101 -0.6973 0.7167
vn -0.0004 -0.9998 -0.0205
vn 0.0597 -0.9967 -0.0555
vn 0.0268 -0.9975 0.0650
vn -0.0095 -0.9997 -0.0226
vn 0.0086 -0.9989 -0.0454
vn -0.0101 -0.9996 0.0278
vn 0.0004 -0.9998 0.0194
vn -0.0094 -0.0000 -1.0000
vn -0.0069 0.6970 -0.7171
vn 0.3534 0.6388 -0.6833
vn 0.0453 0.7690 -0.6376
vn 0.1124 -0.0007 -0.9937
vn 0.4846 -0.0000 -0.8747
vn -0.1467 0.6903 -0.7085
vn 0.0666 0.6831 -0.7273
vn 0.0861 -0.0037 -0.9963
vn -0.1970 -0.0026 -0.9804
vn 0.1227 0.7166 -0.6866
vn -0.0097 0.7169 -0.6971
vn -0.0145 -0.0007 -0.9999
vn 0.1792 -0.0027 -0.9838
vn 0.0597 0.9967 -0.0555
vn -0.0069 -0.6970 -0.7171
vn 0.0358 -0.7097 -0.7036
vn -0.0103 -0.7172 -0.6968
vn 0.1211 -0.7184 -0.6850
vn 0.0664 -0.6864 -0.7242
vn -0.1453 -0.6922 -0.7069
vn 0.0460 -0.7692 -0.6374
vn 0.3534 -0.6388 -0.6833
vn -0.0095 0.7347 0.6783
vn -1.0000 -0.0000 -0.0000
vn 0.0191 -0.7103 -0.7036
vn -0.0193 0.7037 0.7102
vt 0.504135 0.235968
vt 0.718144 0.645404
vt 0.622830 0.235968
vt 0.533809 0.235968
vt 0.747128 0.618125
vt 0.677155 0.552268
vt 0.504135 0.235968
vt 0.622830 0.235968
vt 0.747128 0.579547
vt 0.563483 0.235968
vt 0.718144 0.552268
vt 0.593156 0.235968
vt 0.677155 0.645404
vt 0.593156 0.235968
vt 0.648171 0.618125
vt 0.563483 0.235968
vt 0.533809 0.235968
vt 0.648171 0.579547
vt 0.688483 0.396505
vt 0.563483 0.562335
vt 0.688483 0.287716
vt 0.563483 0.453546
vt 0.718156 0.396505
vt 0.593156 0.562334
vt 0.718156 0.287716
vt 0.593156 0.453546
vt 0.533809 0.453546
vt 0.658809 0.287716
vt 0.533809 0.562335
vt 0.658809 0.396505
vt 0.747830 0.396505
vt 0.629135 0.396505
vt 0.629135 0.287716
vt 0.622830 0.562334
vt 0.504135 0.562334
vt 0.747830 0.287716
vt 0.622830 0.453546
vt 0.504135 0.453546
vt 0.533809 0.453546
vt 0.658809 0.287716
vt 0.533809 0.562334
vt 0.658809 0.396505
vt 0.622830 0.453546
vt 0.504135 0.453546
vt 0.622830 0.562334
vt 0.629135 0.287716
vt 0.504135 0.562334
vt 0.747830 0.287716
vt 0.747830 0.396505
vt 0.629135 0.396505
vt 0.718156 0.396505
vt 0.593156 0.562335
vt 0.718156 0.287716
vt 0.593156 0.453546
vt 0.688483 0.396505
vt 0.563483 0.562334
vt 0.688483 0.287716
vt 0.563483 0.453546
vt 0.688483 0.450899
vt 0.720040 0.761299
vt 0.718156 0.450899
vt 0.679982 0.761299
vt 0.658809 0.450899
vt 0.748366 0.734639
vt 0.629135 0.450899
vt 0.747830 0.450899
vt 0.651656 0.734639
vt 0.658809 0.450899
vt 0.651656 0.696937
vt 0.629135 0.450899
vt 0.747830 0.450899
vt 0.748366 0.696937
vt 0.718156 0.450899
vt 0.720040 0.670278
vt 0.688483 0.450899
vt 0.679982 0.670278
vt 0.563483 0.507940
vt 0.593156 0.507940
vt 0.533809 0.507940
vt 0.622830 0.507940
vt 0.504135 0.507940
vt 0.533809 0.507940
vt 0.504135 0.507940
vt 0.622830 0.507940
vt 0.593156 0.507940
vt 0.563483 0.507940
vt 0.688483 0.342111
vt 0.718156 0.342111
vt 0.658809 0.342111
vt 0.747830 0.342111
vt 0.629135 0.342111
vt 0.658809 0.342111
vt 0.629135 0.342111
vt 0.747830 0.342111
vt 0.718156 0.342111
vt 0.688483 0.342111
vt 0.563483 0.290363
vt 0.593156 0.290363
vt 0.504135 0.290363
vt 0.622830 0.290363
vt 0.593156 0.290363
vt 0.563483 0.290363
vt 0.533809 0.290363
vt 0.533809 0.290363
vt 0.504135 0.290363
vt 0.622830 0.290363
vt 0.563483 0.399151
vt 0.593156 0.399151
vt 0.533809 0.399151
vt 0.622830 0.399151
vt 0.504135 0.399151
vt 0.533809 0.399151
vt 0.622830 0.399151
vt 0.504135 0.399151
vt 0.593156 0.399151
vt 0.563483 0.399151
s 1
usemtl cigs_packet_1
f 4/9/1 8/18/1 3/6/1 5/11/1
f 64/105/2 3/7/3 8/17/4 62/103/5
f 62/103/5 8/17/4 7/16/6 57/97/7
f 59/99/8 1/1/9 2/4/10 63/104/11
f 63/104/11 2/4/10 4/10/12 61/102/13
f 2/5/1 7/15/1 8/18/1 4/9/1
f 1/2/1 6/13/1 7/15/1 2/5/1
f 64/106/2 70/113/14 71/115/15 60/101/16
f 71/115/15 29/54/17 32/58/18 72/116/19
f 47/85/20 28/52/21 31/56/22 48/86/23
f 55/95/24 27/51/25 30/55/26 56/96/27
f 63/104/11 61/102/13 72/116/19 69/112/28
f 70/113/14 24/43/29 29/54/17 71/115/15
f 46/84/30 25/45/31 28/52/21 47/85/20
f 54/94/32 26/49/33 27/51/25 55/95/24
f 37/68/34 23/42/35 30/55/26 40/75/36
f 53/92/37 22/40/38 31/57/22 56/96/27
f 45/82/39 21/39/40 32/58/18 48/86/23
f 68/111/41 59/99/8 63/104/11 69/112/28
f 36/65/42 18/32/43 23/42/35 37/68/34
f 52/91/44 19/33/45 22/40/38 53/92/37
f 44/81/46 20/38/47 21/39/40 45/82/39
f 62/103/5 57/97/7 65/107/48 67/109/49
f 35/63/50 17/30/51 9/19/52 33/59/53
f 51/89/54 16/28/55 10/21/56 49/87/57
f 43/79/58 15/27/59 11/22/60 41/77/61
f 64/105/2 62/103/5 67/109/49 70/114/14
f 38/70/62 26/50/33 17/30/51 35/63/50
f 54/93/32 25/46/31 16/28/55 51/89/54
f 46/83/30 24/44/29 15/27/59 43/79/58
f 66/108/63 65/107/48 57/97/7 58/98/64
f 68/110/41 66/108/63 58/98/64 59/100/8
f 66/108/63 14/26/65 11/22/60 65/107/48
f 42/78/66 13/24/67 10/20/56 41/77/61
f 50/88/68 12/23/69 9/19/52 49/87/57
f 68/110/41 20/37/47 14/26/65 66/108/63
f 44/80/46 19/34/45 13/24/67 42/78/66
f 52/90/44 18/31/43 12/23/69 50/88/68
f 18/31/43 36/66/42 34/61/70 12/23/69
f 12/23/69 34/61/70 33/59/53 9/19/52
f 26/49/33 38/71/62 39/73/71 27/51/25
f 27/51/25 39/73/71 40/75/36 30/55/26
f 33/60/72 39/74/72 38/72/72 35/64/72
f 34/62/72 40/76/72 39/74/72 33/60/72
f 36/67/72 37/69/72 40/76/72 34/62/72
f 20/37/47 44/80/46 42/78/66 14/26/65
f 14/26/65 42/78/66 41/77/61 11/22/60
f 25/47/31 46/83/30 43/79/58 16/29/55
f 16/29/55 43/79/58 41/77/61 10/20/56
f 19/35/45 44/81/46 45/82/39 22/41/38
f 22/41/38 45/82/39 48/86/23 31/56/22
f 24/43/29 46/84/30 47/85/20 29/54/17
f 29/54/17 47/85/20 48/86/23 32/58/18
f 19/36/45 52/90/44 50/88/68 13/25/67
f 13/25/67 50/88/68 49/87/57 10/21/56
f 26/50/33 54/93/32 51/89/54 17/30/51
f 17/30/51 51/89/54 49/87/57 9/19/52
f 18/32/43 52/91/44 53/92/37 23/42/35
f 23/42/35 53/92/37 56/96/27 30/55/26
f 25/48/31 54/94/32 55/95/24 28/53/21
f 28/53/21 55/95/24 56/96/27 31/57/22
f 1/3/9 59/100/8 58/98/64 6/14/73
f 6/14/73 58/98/64 57/97/7 7/16/6
f 3/8/3 64/106/2 60/101/16 5/12/74
f 5/12/74 60/101/16 61/102/13 4/10/12
f 24/44/29 70/114/14 67/109/49 15/27/59
f 15/27/59 67/109/49 65/107/48 11/22/60
f 20/38/47 68/111/41 69/112/28 21/39/40
f 21/39/40 69/112/28 72/116/19 32/58/18
f 71/115/15 72/116/19 61/102/13 60/101/16
