# Blender 3.4.0
# www.blender.org
mtllib open_book_mp_1.mtl
o open_book_mp_1
v 0.210008 0.004053 0.134999
v 0.210008 0.004053 -0.135001
v 0.210003 0.000003 -0.135001
v 0.210003 0.000003 0.134999
v 0.034052 0.004531 0.134999
v 0.034052 0.004531 -0.135001
v 0.034053 0.000493 -0.135001
v 0.034053 0.000493 0.134999
v 0.207008 0.004053 -0.132001
v 0.207008 0.004053 0.131999
v 0.034052 0.004531 -0.132001
v 0.034053 0.004531 0.131999
v 0.187012 0.028958 -0.132001
v 0.187012 0.028958 0.131999
v -0.034045 0.004531 0.134999
v -0.034045 0.004531 -0.135001
v -0.210008 0.003459 0.134999
v -0.210008 0.003459 -0.135001
v -0.209995 -0.000591 0.134999
v -0.209995 -0.000591 -0.135001
v -0.034045 0.000483 0.134999
v -0.034045 0.000483 -0.135001
v -0.207008 0.003459 -0.132001
v -0.207008 0.003459 0.131999
v -0.034044 0.004507 0.131999
v -0.034044 0.004507 -0.132001
v -0.187004 0.028363 -0.132001
v -0.187004 0.028363 0.131999
v 0.000004 0.009706 0.131999
v 0.082085 0.045227 -0.132001
v 0.013070 0.026350 -0.131996
v 0.043098 0.041937 -0.131997
v 0.082085 0.045227 0.131999
v 0.043117 0.041937 0.132003
v 0.013127 0.026350 0.132004
v -0.082068 0.045045 -0.132001
v 0.000004 0.009706 -0.132001
v -0.043104 0.041858 -0.132005
v -0.013114 0.026324 -0.132006
v -0.082068 0.045045 0.131999
v -0.013057 0.026324 0.131994
v -0.043085 0.041858 0.131995
v 0.134548 0.039895 -0.132001
v 0.134549 0.039895 0.131999
v -0.134536 0.039507 -0.132001
v -0.134536 0.039507 0.131999
vn -0.0000 -0.0000 -1.0000
vn -0.0000 -0.0000 1.0000
vn 0.0031 -1.0000 -0.0000
vn -0.0013 -1.0000 -0.0000
vn 0.0061 -1.0000 -0.0000
vn -0.0028 -1.0000 -0.0000
vn 0.0014 1.0000 -0.0000
vn 0.0027 1.0000 -0.0000
vn -0.0030 1.0000 -0.0000
vn -1.0000 -0.0032 -0.0000
vn 1.0000 -0.0015 -0.0000
vn -0.0061 1.0000 -0.0000
vn 0.2760 0.9612 -0.0000
vn -0.0118 0.9999 -0.0000
vn -0.0387 0.8704 -0.4909
vn -0.0382 0.8704 -0.4909
vn 0.6370 0.7709 -0.0001
vn 0.6371 0.7708 -0.0001
vn 0.0085 1.0000 -0.0000
vn -0.2779 0.9606 -0.0000
vn -0.0000 0.0003 -1.0000
vn -0.0001 0.0001 -1.0000
vn 0.0001 -0.0001 1.0000
vn -0.0000 -0.0003 1.0000
vn -0.0001 -0.0001 -1.0000
vn -0.0000 -0.0003 -1.0000
vn -0.0000 0.0003 1.0000
vn 0.0001 0.0001 1.0000
vn -0.1566 0.9877 -0.0000
vn -0.2078 0.9782 -0.0000
vn 0.1528 0.9883 -0.0000
vn 0.2041 0.9790 -0.0000
vn -0.6378 0.7702 0.0001
vn 0.7798 0.6261 -0.0000
vn -0.7796 0.6262 -0.0000
vt 0.680281 0.175781
vt 0.680281 0.226562
vt 0.683956 0.226562
vt 0.680281 0.175781
vt 0.680281 0.000000
vt 0.683956 0.000000
vt 0.680281 0.171875
vt 0.680281 0.226562
vt 0.680281 0.000000
vt 0.680281 0.000000
vt 0.680281 0.171875
vt 0.680281 0.226562
vt 0.864027 0.003906
vt 0.812578 0.175781
vt 0.812578 0.226562
vt 0.864027 0.000000
vt 0.812578 0.175781
vt 0.812578 0.000000
vt 0.864027 0.226562
vt 0.812578 0.003906
vt 0.812578 0.171875
vt 0.816253 0.226562
vt 0.812578 0.000000
vt 0.816253 0.000000
vt 0.864027 0.000000
vt 0.812578 0.171875
vt 0.914062 0.281250
vt 0.703202 0.266551
vt 0.703202 0.266551
vt 0.687500 0.281250
vt 0.914189 0.266969
vt 0.854638 0.266969
vt 0.914190 0.266969
vt 0.854637 0.266969
vt 1.000000 0.546875
vt 0.914062 0.308594
vt 0.720710 0.288357
vt 0.720710 0.288357
vt 1.000000 0.320312
vt 0.687500 0.308594
vt 0.867702 0.175781
vt 0.812578 0.003906
vt 0.812578 0.000000
vt 0.812578 0.226562
vt 0.867702 0.175781
vt 0.812578 0.226562
vt 0.812578 0.000000
vt 0.864027 0.003906
vt 1.000000 0.175781
vt 0.713355 0.226562
vt 0.680281 0.226562
vt 1.000000 0.175781
vt 0.713355 0.000000
vt 0.680281 0.000000
vt 1.000000 0.171875
vt 1.000000 0.000000
vt 0.717030 0.226562
vt 1.000000 0.226562
vt 1.000000 0.171875
vt 0.717030 0.000000
vt 0.867702 0.171875
vt 0.867702 0.000000
vt 0.812578 0.000000
vt 0.867702 0.226562
vt 0.867702 0.171875
vt 0.864027 0.000000
vt 0.687500 0.266031
vt 0.914062 0.312500
vt 0.687500 0.266031
vt 0.687500 0.312500
vt 0.854567 0.266949
vt 0.838942 0.266949
vt 0.854567 0.266949
vt 0.838942 0.266949
vt 0.705014 0.287837
vt 0.679688 0.546875
vt 0.914062 0.285156
vt 0.679688 0.320312
vt 0.705014 0.287837
vt 0.687500 0.285156
vt 0.884449 0.271501
vt 0.868753 0.271501
vt 0.839844 0.320312
vt 0.812581 0.302602
vt 0.910148 0.546875
vt 0.873008 0.286074
vt 0.853616 0.546871
vt 0.846717 0.299721
vt 0.879298 0.546872
vt 0.910148 0.320312
vt 0.812581 0.302602
vt 0.846700 0.299721
vt 0.879309 0.320309
vt 0.872958 0.286074
vt 0.853647 0.320308
vt 0.769533 0.546875
vt 0.796893 0.302443
vt 0.868753 0.271501
vt 0.839844 0.546875
vt 0.884378 0.271501
vt 0.831010 0.299652
vt 0.800382 0.546878
vt 0.857268 0.286051
vt 0.826044 0.546879
vt 0.796893 0.302443
vt 0.769533 0.320312
vt 0.857317 0.286051
vt 0.826076 0.320317
vt 0.831026 0.299652
vt 0.800393 0.320316
vt 0.954711 0.546875
vt 0.766646 0.297933
vt 0.954711 0.320312
vt 0.766646 0.297933
vt 0.724983 0.546875
vt 0.750954 0.297594
vt 0.724983 0.320312
vt 0.750954 0.297594
s 0
usemtl books_mp_1
f 6/17/1 2/4/1 3/7/1 7/21/1
f 15/41/2 17/49/2 19/55/2 21/61/2
s 1
f 21/62/3 22/64/3 7/22/4 8/24/4
f 21/62/3 19/56/5 20/58/5 22/64/3
s 0
f 16/45/1 22/65/1 20/59/1 18/52/1
s 1
f 8/24/4 7/22/4 3/8/6 4/10/6
s 0
f 26/74/1 23/67/1 27/75/1
f 26/74/1 27/75/1 45/116/1
f 15/42/2 21/63/2 8/25/2 5/13/2
f 5/14/2 8/26/2 4/11/2 1/1/2
s 1
f 5/15/7 1/2/8 2/5/8 6/18/7
f 16/46/9 15/43/9 5/16/7 6/19/7
s 0
f 18/53/10 20/60/10 19/57/10 17/50/10
f 1/3/11 4/12/11 3/9/11 2/6/11
s 1
f 17/51/12 15/44/9 16/47/9 18/54/12
s 0
f 22/66/1 16/48/1 6/20/1 7/23/1
s 1
f 42/110/13 38/102/13 36/96/14 40/106/14
f 29/83/15 37/99/16 39/104/17 41/108/18
s 0
f 12/34/2 10/29/2 14/38/2
f 12/34/2 14/38/2 44/114/2
f 11/32/1 30/84/1 43/112/1
f 25/72/2 40/105/2 46/118/2
f 12/33/2 29/81/2 25/71/2
s 1
f 33/90/19 30/85/19 32/89/20 34/93/20
s 0
f 37/100/21 31/86/21 11/32/21
f 31/86/22 32/88/22 11/32/22
f 32/88/22 30/84/22 11/32/22
f 33/91/23 34/92/23 12/34/23
f 34/92/23 35/94/23 12/34/23
f 35/94/24 29/81/24 12/34/24
f 36/97/25 38/101/25 26/74/25
f 38/101/25 39/103/25 26/74/25
f 39/103/26 37/98/26 26/74/26
f 29/82/27 41/107/27 25/72/27
f 41/107/28 42/109/28 25/72/28
f 42/109/28 40/105/28 25/72/28
s 1
f 45/115/29 46/117/29 40/106/14 36/96/14
f 27/76/30 28/78/30 46/117/29 45/115/29
f 43/111/31 44/113/31 14/39/32 13/35/32
f 30/85/19 33/90/19 44/113/31 43/111/31
f 35/95/33 31/87/33 37/99/16 29/83/15
s 0
f 13/36/34 14/40/34 10/30/34 9/27/34
f 37/100/1 11/31/1 26/73/1
s 1
f 34/93/20 32/89/20 31/87/33 35/95/33
f 41/108/18 39/104/17 38/102/13 42/110/13
s 0
f 36/97/1 26/74/1 45/116/1
f 9/28/1 11/32/1 43/112/1
f 9/28/1 43/112/1 13/37/1
f 33/91/2 12/34/2 44/114/2
f 24/69/2 25/72/2 46/118/2
f 24/69/2 46/118/2 28/79/2
f 23/68/35 24/70/35 28/80/35 27/77/35
