# Blender 3.4.0
# www.blender.org
mtllib pc_speaker_1_right.mtl
o pc_speaker_1_right
v -0.050008 0.000000 0.032001
v -0.050008 0.240000 0.032001
v -0.027911 0.023000 0.044813
v -0.020101 0.015000 0.046544
v -0.025623 0.017343 0.045320
v -0.020101 0.031000 0.046544
v -0.025623 0.028657 0.045320
v -0.014576 0.017343 0.047769
v -0.012288 0.023000 0.048276
v -0.014576 0.028657 0.047769
v -0.020750 0.015080 0.049473
v -0.028482 0.023000 0.047759
v -0.026218 0.017400 0.048261
v -0.020750 0.030920 0.049473
v -0.026218 0.028600 0.048261
v -0.015281 0.017400 0.050685
v -0.013016 0.023000 0.051187
v -0.015281 0.028600 0.050685
v 0.009289 0.023000 0.043598
v 0.020407 0.011881 0.043501
v 0.012545 0.015138 0.043570
v 0.020407 0.034119 0.043501
v 0.012545 0.030862 0.043570
v 0.028271 0.015138 0.043433
v 0.031528 0.023000 0.043404
v 0.028271 0.030862 0.043433
v 0.020494 0.014000 0.055501
v 0.011495 0.023000 0.055579
v 0.014131 0.016636 0.055556
v 0.020494 0.032000 0.055501
v 0.014131 0.029364 0.055556
v 0.026860 0.016636 0.055445
v 0.029496 0.023000 0.055422
v 0.026860 0.029364 0.055445
v -0.006552 0.000000 0.050001
v -0.029824 0.000000 0.044729
v -0.006552 0.240000 0.050001
v -0.029824 0.240000 0.044729
v 0.006538 0.000000 0.050001
v 0.049994 0.000000 0.032001
v 0.029810 0.000000 0.044729
v 0.049994 0.240000 0.032001
v 0.006538 0.240000 0.050001
v 0.029810 0.240000 0.044729
v 0.020451 0.033727 0.052001
v 0.012866 0.030585 0.052067
v 0.020451 0.012273 0.052001
v 0.012866 0.015415 0.052067
v 0.009724 0.023000 0.052095
v 0.028038 0.015415 0.051935
v 0.031179 0.023000 0.051907
v 0.028038 0.030585 0.051935
v -0.000007 0.000000 -0.049999
v -0.050008 0.000000 0.000002
v -0.025008 0.000000 -0.043301
v -0.043309 0.000000 -0.024999
v -0.050008 0.240000 0.000002
v -0.043309 0.240000 -0.024999
v -0.025008 0.240000 -0.043300
v 0.049994 0.000000 0.000002
v 0.043295 0.000000 -0.024999
v 0.024994 0.000000 -0.043301
v -0.000007 0.240000 -0.049999
v 0.049994 0.240000 0.000002
v 0.024994 0.240000 -0.043300
v 0.043295 0.240000 -0.024999
v 0.006538 0.051543 0.050001
v -0.046224 0.205621 0.034371
v 0.029810 0.058444 0.044729
v -0.006552 0.051543 0.050001
v 0.006538 0.210359 0.050001
v -0.006552 0.210359 0.050001
v 0.046210 0.070091 0.034387
v -0.046224 0.070091 0.034387
v -0.029824 0.058444 0.044729
v -0.029824 0.209185 0.044729
v 0.029810 0.209185 0.044729
v -0.006552 0.056105 0.055001
v 0.006538 0.056105 0.055001
v 0.006538 0.206073 0.055001
v -0.006552 0.206073 0.055001
v 0.042630 0.071631 0.041644
v 0.042630 0.202937 0.041644
v 0.046210 0.205621 0.034386
v -0.042644 0.071631 0.041644
v -0.042644 0.202937 0.041644
v -0.029824 0.063073 0.049729
v 0.029810 0.063073 0.049729
v -0.029824 0.204886 0.049729
v 0.029810 0.204886 0.049729
vn 0.1112 -0.0000 0.9938
vn -0.1112 -0.0000 0.9938
vn -0.0000 -1.0000 -0.0000
vn 1.0000 -0.0000 -0.0000
vn 0.9914 -0.0000 -0.1305
vn -0.0000 1.0000 -0.0000
vn -0.1386 -0.7682 0.6251
vn 0.3917 -0.5432 0.7426
vn 0.6113 -0.0000 0.7914
vn 0.3917 0.5432 0.7426
vn -0.1386 0.7682 0.6251
vn -0.6689 0.5432 0.5075
vn -0.8886 -0.0000 0.4588
vn -0.6689 -0.5432 0.5075
vn -0.0058 0.9996 0.0260
vn -0.6958 0.7069 -0.1270
vn -0.9817 -0.0000 -0.1904
vn -0.6958 -0.7069 -0.1270
vn -0.0058 -0.9996 0.0260
vn 0.6843 -0.7069 0.1791
vn 0.9702 -0.0000 0.2425
vn 0.6843 0.7069 0.1791
vn 0.0087 -0.0000 1.0000
vn 0.0012 0.9712 0.2382
vn -0.6851 0.6864 0.2439
vn -0.6291 0.6339 0.4499
vn 0.0047 0.8968 0.4424
vn -0.9692 -0.0000 0.2463
vn -0.8915 -0.0000 0.4530
vn 0.0012 -0.9712 0.2382
vn -0.6851 -0.6864 0.2439
vn -0.7056 -0.7069 0.0497
vn 0.0012 -0.9989 0.0461
vn -0.9987 -0.0000 0.0512
vn 0.9731 -0.0000 0.2302
vn 0.6883 -0.6871 0.2326
vn 0.7071 -0.7059 0.0425
vn 0.9992 -0.0000 0.0410
vn 0.6883 0.6871 0.2326
vn 0.6390 0.6344 0.4350
vn 0.9019 -0.0000 0.4319
vn -0.3827 -0.0000 0.9239
vn -0.5334 -0.0000 0.8459
vn 0.3827 -0.0000 0.9239
vn 0.5334 -0.0000 0.8459
vn 0.7071 0.7059 0.0425
vn 0.0012 0.9989 0.0461
vn 0.6390 -0.6344 0.4350
vn 0.0047 -0.8968 0.4424
vn -0.6291 -0.6339 0.4499
vn -0.7056 0.7069 0.0497
vn -0.9914 -0.0000 -0.1305
vn -0.8660 -0.0000 -0.5000
vn -0.5000 -0.0000 -0.8660
vn -0.0000 -0.0000 -1.0000
vn 0.8660 -0.0000 -0.5000
vn 0.5000 -0.0000 -0.8660
vn -1.0000 -0.0000 -0.0000
vn 0.5280 -0.6329 0.5662
vn 0.5239 -0.6346 0.5681
vn 0.6832 -0.5525 0.4776
vn -0.8970 -0.0003 0.4420
vn -0.8971 0.0004 0.4419
vn -0.8970 -0.0000 0.4420
vn 0.3735 -0.0000 0.9276
vn 0.3389 -0.0000 0.9408
vn -0.1001 -0.0000 0.9950
vn 0.1001 -0.0000 0.9950
vn 0.1094 -0.0000 0.9940
vn -0.1094 -0.0000 0.9940
vn -0.0877 0.7560 0.6486
vn -0.0957 0.7555 0.6482
vn -0.3492 0.7291 0.5885
vn -0.3080 0.7355 0.6034
vn -0.6832 -0.5525 0.4776
vn -0.5239 -0.6346 0.5681
vn -0.5280 -0.6329 0.5662
vn 0.0957 0.7555 0.6482
vn 0.0877 0.7560 0.6486
vn 0.3080 0.7354 0.6036
vn 0.3492 0.7290 0.5888
vn 0.8968 -0.0000 0.4423
vn 0.1757 -0.7261 0.6648
vn 0.1792 -0.7256 0.6644
vn -0.1792 -0.7256 0.6644
vn -0.1757 -0.7261 0.6648
vn -0.3389 -0.0000 0.9408
vn -0.3735 -0.0000 0.9276
vn -0.4706 0.7009 0.5360
vn 0.4705 0.7005 0.5365
vt 0.499236 0.514795
vt 0.000000 0.000000
vt 0.498681 0.000000
vt 0.499236 0.925986
vt 0.000000 1.000000
vt 0.498681 1.000000
vt 0.641161 0.045455
vt 0.667546 0.045455
vt 0.562005 0.045455
vt 0.654354 0.045455
vt 0.614776 0.045455
vt 0.627968 0.045455
vt 0.575198 0.045455
vt 0.588391 0.045455
vt 0.601583 0.045455
vt 0.050258 0.060457
vt 0.667546 0.058442
vt 0.562005 0.058442
vt 0.063828 0.093528
vt 0.641161 0.058442
vt 0.059809 0.070034
vt 0.654354 0.058442
vt 0.050470 0.127125
vt 0.614776 0.058442
vt 0.059959 0.117176
vt 0.627968 0.058442
vt 0.040765 0.070406
vt 0.575198 0.058442
vt 0.036896 0.094053
vt 0.588391 0.058442
vt 0.040915 0.117547
vt 0.601583 0.058442
vt 0.646438 0.032468
vt 0.667546 0.032468
vt 0.583113 0.032468
vt 0.656992 0.032468
vt 0.625330 0.032468
vt 0.635884 0.032468
vt 0.593668 0.032468
vt 0.604222 0.032468
vt 0.614776 0.032468
vt 0.119689 0.039286
vt 0.583486 0.018850
vt 0.667242 0.018847
vt 0.138212 0.084953
vt 0.646438 0.018845
vt 0.132771 0.052622
vt 0.657016 0.018846
vt 0.119767 0.130813
vt 0.625296 0.018849
vt 0.132826 0.117341
vt 0.635860 0.018846
vt 0.106625 0.052758
vt 0.593691 0.018851
vt 0.101239 0.085146
vt 0.604222 0.018852
vt 0.106680 0.117477
vt 0.614752 0.018851
vt 0.572724 0.588809
vt 0.074179 0.000000
vt 0.534132 0.567131
vt 0.034301 0.000000
vt 0.572724 1.000000
vt 0.074179 1.000000
vt 0.534132 0.978322
vt 0.034301 1.000000
vt 0.594317 0.588809
vt 0.094686 0.000000
vt 0.667805 0.514795
vt 0.498681 0.000000
vt 0.166227 0.000000
vt 0.632909 0.567131
vt 0.134565 0.000000
vt 0.498681 1.000000
vt 0.667805 0.925986
vt 0.166227 1.000000
vt 0.594317 1.000000
vt 0.094686 1.000000
vt 0.632909 0.978322
vt 0.134565 1.000000
vt 0.625330 0.032468
vt 0.625330 0.000000
vt 0.635884 0.032468
vt 0.635884 0.000000
vt 0.667546 0.000000
vt 0.583113 0.000000
vt 0.583113 0.032468
vt 0.667546 0.032468
vt 0.656992 0.000000
vt 0.656992 0.032468
vt 0.646438 0.032468
vt 0.646438 0.000000
vt 0.593668 0.000000
vt 0.593668 0.032468
vt 0.604222 0.000000
vt 0.604222 0.032468
vt 0.614776 0.032468
vt 0.614776 0.000000
vt 0.583521 0.177619
vt 0.249340 0.000000
vt 0.499236 0.383219
vt 0.443958 0.000000
vt 0.541380 0.205164
vt 0.290897 0.000000
vt 0.510533 0.280419
vt 0.393140 0.000000
vt 0.332454 0.000000
vt 0.499236 0.794409
vt 0.443958 1.000000
vt 0.510533 0.691609
vt 0.393140 1.000000
vt 0.332454 1.000000
vt 0.541380 0.616355
vt 0.290897 1.000000
vt 0.667805 0.383219
vt 0.443958 0.000000
vt 0.656508 0.280419
vt 0.393140 0.000000
vt 0.166227 0.000000
vt 0.625661 0.205164
vt 0.207784 0.000000
vt 0.583521 0.588809
vt 0.249340 1.000000
vt 0.667805 0.794409
vt 0.443958 1.000000
vt 0.625661 0.616355
vt 0.207784 1.000000
vt 0.656508 0.691609
vt 0.393140 1.000000
vt 0.166227 1.000000
vt 0.762284 0.214247
vt 0.673864 0.855969
vt 0.802176 0.243298
vt 0.741674 0.214247
vt 0.762266 0.877063
vt 0.741692 0.877063
vt 0.827851 0.291937
vt 0.673962 0.291937
vt 0.701772 0.243299
vt 0.701781 0.871963
vt 0.802168 0.871963
vt 0.741788 0.233770
vt 0.762170 0.233770
vt 0.762170 0.858637
vt 0.741787 0.858637
vt 0.818749 0.298463
vt 0.818743 0.845570
vt 0.827929 0.855962
vt 0.683816 0.298463
vt 0.683824 0.845570
vt 0.703737 0.262803
vt 0.800227 0.262803
vt 0.703741 0.853692
vt 0.800224 0.853692
s 1
usemtl pc_speakers_1
f 43/78/1 37/64/2 35/60/2 39/68/1
f 1/1/3 54/101/3 56/105/3 55/103/3 53/99/3 62/120/3 61/117/3 60/115/3 40/69/3 41/72/3 39/67/3 35/59/3 36/61/3
f 40/70/4 60/116/5 64/125/5 42/74/4
f 42/75/6 64/124/6 66/128/6 65/126/6 63/122/6 59/113/6 58/110/6 57/108/6 2/4/6 38/65/6 37/63/6 43/77/6 44/79/6
f 11/16/7 16/27/8 17/29/9 18/31/10 14/23/11 15/25/12 12/19/13 13/21/14
f 6/11/15 7/12/16 15/26/12 14/24/11
f 7/12/16 3/7/17 12/20/13 15/26/12
f 11/17/7 13/22/14 5/10/18 4/8/19
f 13/22/14 12/20/13 3/7/17 5/10/18
f 17/30/9 16/28/8 8/13/20 9/14/21
f 16/28/8 11/18/7 4/9/19 8/13/20
f 9/14/21 10/15/22 18/32/10 17/30/9
f 10/15/22 6/11/15 14/24/11 18/32/10
f 27/42/23 32/53/23 33/55/23 34/57/23 30/49/23 31/51/23 28/45/23 29/47/23
f 45/81/24 46/83/25 31/52/26 30/50/27
f 46/83/25 49/91/28 28/46/29 31/52/26
f 47/85/30 48/89/31 21/36/32 20/34/33
f 48/89/31 49/92/28 19/33/34 21/36/32
f 51/95/35 50/93/36 24/39/37 25/40/38
f 50/93/36 47/86/30 20/35/33 24/39/37
f 51/96/35 52/97/39 34/58/40 33/56/41
f 52/97/39 45/81/24 30/50/27 34/58/40
f 37/64/2 38/66/42 36/62/42 35/60/2
f 38/66/42 2/5/43 1/2/43 36/62/42
f 39/68/1 41/73/44 44/80/44 43/78/1
f 41/73/44 40/71/45 42/76/45 44/80/44
f 26/41/46 22/37/47 45/82/24 52/98/39
f 25/40/38 26/41/46 52/98/39 51/95/35
f 32/54/48 27/43/49 47/87/30 50/94/36
f 33/56/41 32/54/48 50/94/36 51/96/35
f 29/48/50 28/46/29 49/91/28 48/90/31
f 27/44/49 29/48/50 48/90/31 47/88/30
f 23/38/51 19/33/34 49/92/28 46/84/25
f 22/37/47 23/38/51 46/84/25 45/82/24
f 57/109/52 58/111/53 56/106/53 54/102/52
f 58/112/53 59/114/54 55/104/54 56/107/53
f 59/114/54 63/123/55 53/100/55 55/104/54
f 60/116/5 61/118/56 66/129/56 64/125/5
f 61/119/56 62/121/57 65/127/57 66/130/56
f 62/121/57 53/100/55 63/123/55 65/127/57
f 2/6/58 57/109/52 54/102/52 1/3/58
f 88/152/59 69/133/60 73/137/61 82/146/61
f 74/138/62 85/149/63 86/150/64 68/132/64
f 82/146/45 83/147/45 90/154/65 88/152/66
f 78/142/67 79/143/68 80/144/69 81/145/70
f 81/145/71 72/136/72 76/140/73 89/153/74
f 85/149/75 74/138/75 75/139/76 87/151/77
f 71/135/78 80/144/79 90/154/80 77/141/81
f 79/143/68 88/152/66 90/154/65 80/144/69
f 84/148/82 83/147/82 82/146/82 73/137/82
f 67/131/83 79/143/84 78/142/85 70/134/86
f 80/144/79 71/135/78 72/136/72 81/145/71
f 85/149/43 87/151/87 89/153/88 86/150/43
f 89/153/74 76/140/73 68/132/89 86/150/89
f 79/143/84 67/131/83 69/133/60 88/152/59
f 77/141/81 90/154/80 83/147/90 84/148/90
f 87/151/77 75/139/76 70/134/86 78/142/85
f 78/142/67 81/145/70 89/153/88 87/151/87
