# Blender 3.4.0
# www.blender.org
mtllib spoon_mp_1.mtl
o spoon_mp_1
v -0.029255 0.012505 -0.097010
v -0.014630 0.015959 -0.128951
v 0.024247 0.011440 -0.067779
v 0.029245 0.012505 -0.097010
v 0.014620 0.015959 -0.128951
v 0.025327 0.014077 -0.114514
v -0.000005 0.002580 -0.081658
v -0.024274 0.011455 -0.067769
v -0.017555 0.006920 -0.072044
v -0.014641 0.011021 -0.055873
v -0.009898 0.006610 -0.063541
v -0.000005 0.002800 -0.087707
v -0.029275 0.012046 -0.084015
v -0.020730 0.007399 -0.085201
v -0.000005 0.005918 -0.114754
v -0.009245 0.009912 -0.122109
v -0.025355 0.014092 -0.114522
v -0.000005 0.003679 -0.102931
v -0.017409 0.008342 -0.111105
v -0.000005 0.003038 -0.094244
v -0.020730 0.007801 -0.096240
v 0.017546 0.006920 -0.072044
v 0.029266 0.012046 -0.084015
v 0.020721 0.007399 -0.085201
v 0.014632 0.011021 -0.055873
v 0.009889 0.006610 -0.063541
v -0.000005 0.006503 -0.060598
v 0.020721 0.007801 -0.096240
v 0.017400 0.008342 -0.111105
v 0.009236 0.009912 -0.122109
v -0.000005 0.016825 -0.134599
v -0.000005 0.010042 -0.125679
v 0.029245 0.009907 -0.097104
v 0.025327 0.011479 -0.114609
v 0.014620 0.013361 -0.129046
v -0.017555 0.004322 -0.072138
v -0.024274 0.008856 -0.067863
v -0.014641 0.008423 -0.055967
v -0.009898 0.004012 -0.063636
v -0.008133 0.001073 -0.077222
v -0.004168 0.000913 -0.072820
v -0.000005 -0.000019 -0.081753
v -0.020730 0.004801 -0.085296
v -0.029275 0.009448 -0.084110
v -0.010407 0.001416 -0.086647
v -0.000005 0.000202 -0.087802
v -0.025355 0.011494 -0.114617
v -0.017409 0.005744 -0.111200
v -0.009245 0.007313 -0.122204
v -0.000005 0.003320 -0.114849
v -0.007809 0.002480 -0.106937
v -0.000005 0.001081 -0.103025
v -0.020730 0.005203 -0.096335
v -0.010407 0.001732 -0.095322
v -0.000005 0.000440 -0.094339
v 0.029266 0.009448 -0.084110
v 0.020721 0.004801 -0.085296
v 0.017546 0.004322 -0.072138
v 0.008124 0.001073 -0.077222
v 0.010398 0.001416 -0.086647
v 0.009889 0.004012 -0.063636
v 0.014632 0.008423 -0.055967
v 0.004159 0.000913 -0.072820
v -0.000005 0.003905 -0.060692
v -0.000005 0.000868 -0.071581
v 0.017400 0.005744 -0.111200
v 0.020721 0.005203 -0.096335
v 0.010398 0.001732 -0.095322
v 0.007800 0.002480 -0.106937
v 0.009236 0.007313 -0.122204
v -0.000005 0.014227 -0.134694
v -0.000005 0.007443 -0.125774
v -0.014630 0.013361 -0.129046
v -0.029255 0.009907 -0.097104
v 0.024247 0.008842 -0.067874
v -0.000007 0.011558 -0.050192
v 0.009654 0.011558 -0.050192
v -0.009666 0.011558 -0.050192
v -0.000007 0.008960 -0.050287
v 0.009654 0.008960 -0.050287
v -0.009666 0.008960 -0.050287
v 0.008775 0.003071 0.130319
v 0.008775 0.000473 0.130224
v -0.008788 0.000473 0.130224
v -0.000007 0.002740 0.139413
v -0.000007 0.000142 0.139318
v 0.006203 0.002837 0.136749
v -0.008788 0.003071 0.130319
v -0.006216 0.002837 0.136749
v 0.006203 0.000239 0.136655
v -0.006216 0.000239 0.136655
v 0.008651 0.006241 0.043276
v 0.008651 0.003643 0.043182
v -0.008664 0.003643 0.043182
v -0.008664 0.006241 0.043276
v -0.006379 0.010123 -0.039187
v 0.006364 0.012721 -0.039092
v 0.006364 0.010123 -0.039187
v -0.006379 0.012721 -0.039092
v 0.007252 0.010387 0.002125
v 0.007252 0.007788 0.002030
v -0.007267 0.010387 0.002125
v -0.007267 0.007788 0.002030
v -0.006426 0.010285 -0.018530
v 0.006410 0.012883 -0.018435
v 0.006410 0.010285 -0.018530
v -0.006426 0.012883 -0.018435
v 0.007945 0.007983 0.022689
v 0.007945 0.005384 0.022594
v -0.007959 0.007983 0.022689
v -0.007959 0.005384 0.022594
v -0.006056 0.010399 -0.028836
v 0.006041 0.012997 -0.028741
v 0.006041 0.010399 -0.028836
v -0.006056 0.012997 -0.028741
v 0.006769 0.011808 -0.008149
v 0.006769 0.009209 -0.008243
v -0.006783 0.011808 -0.008149
v -0.006783 0.009209 -0.008243
v -0.000008 0.010123 -0.039187
v -0.000008 0.012721 -0.039092
vn 0.4339 0.8780 -0.2018
vn 0.2182 0.9184 -0.3299
vn 0.2027 0.9387 -0.2788
vn 0.3398 0.9300 -0.1400
vn 0.3666 0.9303 -0.0115
vn -0.0000 0.9986 -0.0535
vn -0.0000 0.9998 0.0185
vn 0.4841 0.8743 -0.0346
vn -0.0000 0.9649 0.2626
vn 0.2446 0.8779 0.4117
vn 0.3463 0.9089 0.2323
vn -0.0000 0.9910 0.1341
vn 0.2984 0.8115 0.5024
vn 0.4545 0.8405 0.2949
vn 0.3678 0.9264 0.0808
vn -0.0000 0.9983 0.0575
vn 0.4905 0.8656 0.1002
vn -0.3397 0.9301 -0.1400
vn -0.3666 0.9303 -0.0114
vn -0.4338 0.8781 -0.2018
vn -0.4841 0.8743 -0.0345
vn -0.2027 0.9387 -0.2788
vn -0.2181 0.9185 -0.3300
vn -0.0000 0.9428 -0.3335
vn -0.0000 0.9723 -0.2336
vn -0.3678 0.9264 0.0808
vn -0.3463 0.9089 0.2323
vn -0.4905 0.8657 0.1001
vn -0.4544 0.8406 0.2948
vn -0.2983 0.8115 0.5024
vn -0.2445 0.8779 0.4117
vn -0.0000 0.8070 0.5905
vn -0.0000 0.8658 0.5005
vn -0.4339 -0.8780 0.2018
vn -0.3681 -0.9161 0.1589
vn -0.2208 -0.9260 0.3064
vn -0.2182 -0.9184 0.3299
vn -0.2061 -0.9759 0.0711
vn -0.1232 -0.9792 0.1611
vn -0.0000 -0.9999 0.0119
vn -0.4841 -0.8743 0.0346
vn -0.4055 -0.9139 0.0204
vn -0.2256 -0.9742 -0.0112
vn -0.0000 -0.9996 -0.0275
vn -0.2984 -0.8115 -0.5024
vn -0.2462 -0.8714 -0.4242
vn -0.3634 -0.8973 -0.2508
vn -0.4545 -0.8405 -0.2949
vn -0.0000 -0.9602 -0.2793
vn -0.1842 -0.9676 -0.1726
vn -0.0000 -0.9928 -0.1198
vn -0.4052 -0.9100 -0.0876
vn -0.4905 -0.8656 -0.1002
vn -0.2198 -0.9732 -0.0670
vn -0.0000 -0.9983 -0.0587
vn 0.4338 -0.8781 0.2018
vn 0.3680 -0.9161 0.1588
vn 0.4054 -0.9139 0.0203
vn 0.4841 -0.8743 0.0345
vn 0.2061 -0.9759 0.0711
vn 0.2256 -0.9742 -0.0112
vn 0.2181 -0.9185 0.3300
vn 0.2207 -0.9260 0.3064
vn 0.1232 -0.9792 0.1611
vn -0.0000 -0.9723 0.2336
vn -0.0000 -0.9301 0.3674
vn -0.0000 -0.9809 0.1947
vn 0.4905 -0.8657 -0.1001
vn 0.4052 -0.9100 -0.0876
vn 0.3633 -0.8973 -0.2508
vn 0.4544 -0.8406 -0.2948
vn 0.2198 -0.9732 -0.0670
vn 0.1842 -0.9676 -0.1726
vn 0.2462 -0.8714 -0.4242
vn 0.2983 -0.8115 -0.5024
vn -0.0000 -0.8658 -0.5005
vn -0.0000 -0.8070 -0.5905
vn -0.9063 0.0154 -0.4224
vn -0.9134 0.0148 -0.4068
vn -0.9941 0.0039 -0.1080
vn -0.9938 0.0041 -0.1115
vn 0.7642 -0.0235 0.6445
vn 0.8826 -0.0171 0.4698
vn 0.8668 -0.0181 0.4983
vn 0.7651 -0.0234 0.6435
vn 0.9063 0.0154 -0.4224
vn 0.9134 0.0148 -0.4069
vn 0.8044 0.0216 -0.5937
vn -0.7647 -0.0234 0.6439
vn -0.8670 -0.0181 0.4980
vn -0.8828 -0.0171 0.4695
vn -0.7639 -0.0235 0.6449
vn 0.8827 -0.0171 0.4697
vn 0.9889 -0.0054 0.1484
vn -0.8826 -0.0171 0.4698
vn 0.3618 0.0339 -0.9316
vn -0.9890 -0.0054 0.1478
vn -0.9890 -0.0054 0.1477
vn -0.3618 0.0339 -0.9316
vn 0.9941 0.0040 -0.1085
vn 0.9937 0.0041 -0.1121
vn -0.8037 0.0217 -0.5946
vn -0.9998 0.0006 -0.0175
vn -0.9821 -0.0069 0.1882
vn -0.9998 0.0007 -0.0180
vn -0.0000 -0.9952 0.0977
vn -0.0000 0.9952 -0.0977
vn -0.0000 0.9993 0.0364
vn -0.0000 -0.0364 0.9993
vn -0.7160 -0.0254 0.6977
vn -0.0000 -0.9982 -0.0601
vn -0.0000 -0.9993 -0.0364
vn 0.9998 0.0007 -0.0180
vn 0.9821 -0.0069 0.1882
vn 0.9998 0.0006 -0.0175
vn -0.0000 -0.9976 0.0691
vn -0.0000 -0.9979 0.0655
vn -0.0000 0.9976 -0.0691
vn -0.0000 0.9979 -0.0655
vn -0.9859 -0.0061 0.1673
vn -0.9885 -0.0055 0.1511
vn 0.7160 -0.0254 0.6977
vn -0.0000 0.9950 0.0999
vn -0.0000 0.9982 0.0601
vn 0.9994 0.0012 -0.0338
vn 0.9994 0.0012 -0.0339
vn -0.0000 -0.9950 -0.0999
vn -0.9994 0.0012 -0.0338
vn -0.9992 0.0015 -0.0410
vn -0.9992 0.0014 -0.0398
vn -0.9992 0.0015 -0.0405
vn -0.9992 0.0015 -0.0404
vn -0.0000 -0.9927 -0.1209
vn -0.0000 -0.9920 -0.1263
vn 0.9992 0.0015 -0.0404
vn 0.9992 0.0015 -0.0405
vn 0.9992 0.0014 -0.0398
vn 0.9992 0.0015 -0.0411
vn -0.0000 0.9927 0.1209
vn -0.0000 0.9920 0.1263
vn -0.0000 1.0000 -0.0078
vn -0.0000 0.9983 0.0586
vn 1.0000 0.0001 -0.0033
vn 0.9994 0.0013 -0.0353
vn 0.9994 0.0013 -0.0352
vn 1.0000 0.0001 -0.0014
vn -0.0000 -1.0000 0.0078
vn -0.0000 -0.9983 -0.0586
vn -1.0000 0.0001 -0.0014
vn -0.9994 0.0013 -0.0352
vn -1.0000 0.0001 -0.0033
vn 0.9885 -0.0055 0.1512
vn 0.9859 -0.0061 0.1674
vt 0.128771 0.712581
vt 0.120693 0.939046
vt 0.148070 0.673444
vt 0.120693 0.971856
vt 0.198067 0.748554
vt 0.120693 0.738892
vt 0.204806 0.713188
vt 0.120693 0.710769
vt 0.185609 0.673488
vt 0.120693 0.677959
vt 0.199543 0.691103
vt 0.120693 0.696707
vt 0.166764 0.731413
vt 0.135390 0.748493
vt 0.120693 0.910923
vt 0.144832 0.742844
vt 0.120693 0.901548
vt 0.148022 0.762821
vt 0.154431 0.752871
vt 0.166773 0.724366
vt 0.128729 0.728643
vt 0.120693 0.929671
vt 0.140682 0.727202
vt 0.166767 0.693922
vt 0.155394 0.683387
vt 0.134063 0.691013
vt 0.120693 0.957794
vt 0.166796 0.706632
vt 0.145261 0.696415
vt 0.166783 0.716739
vt 0.140752 0.713983
vt 0.188666 0.742896
vt 0.204806 0.729250
vt 0.120693 0.724830
vt 0.192857 0.727264
vt 0.120693 0.752953
vt 0.185423 0.762867
vt 0.179040 0.752901
vt 0.166731 0.756368
vt 0.192821 0.714045
vt 0.188358 0.696466
vt 0.178259 0.683414
vt 0.166848 0.666667
vt 0.120693 0.668584
vt 0.120693 0.985918
vt 0.166832 0.679333
vt 0.128729 0.712671
vt 0.125608 0.710769
vt 0.133991 0.691103
vt 0.125608 0.696707
vt 0.147926 0.673488
vt 0.125608 0.677959
vt 0.188703 0.742844
vt 0.198145 0.748493
vt 0.125608 0.910923
vt 0.125608 0.901548
vt 0.185513 0.762821
vt 0.179104 0.752871
vt 0.176755 0.736685
vt 0.171889 0.741824
vt 0.166771 0.731413
vt 0.192853 0.727202
vt 0.204806 0.729159
vt 0.125608 0.929671
vt 0.179572 0.725660
vt 0.166762 0.724366
vt 0.199472 0.691013
vt 0.125608 0.957794
vt 0.188274 0.696415
vt 0.178141 0.683387
vt 0.166767 0.693922
vt 0.176277 0.701932
vt 0.166739 0.706632
vt 0.192783 0.713983
vt 0.179520 0.715488
vt 0.166752 0.716739
vt 0.128729 0.728733
vt 0.125608 0.724830
vt 0.140678 0.727264
vt 0.144869 0.742896
vt 0.156801 0.736709
vt 0.153956 0.725690
vt 0.154495 0.752901
vt 0.125608 0.752953
vt 0.148112 0.762867
vt 0.161681 0.741836
vt 0.166804 0.756368
vt 0.166787 0.743284
vt 0.145177 0.696466
vt 0.140714 0.714045
vt 0.153981 0.715518
vt 0.157188 0.701955
vt 0.155276 0.683414
vt 0.166687 0.666667
vt 0.125608 0.668584
vt 0.125608 0.985918
vt 0.166703 0.679333
vt 0.185465 0.673444
vt 0.125608 0.971856
vt 0.204764 0.713098
vt 0.125608 0.939046
vt 0.135468 0.748554
vt 0.125608 0.738892
vt 0.166710 0.769764
vt 0.120693 0.762328
vt 0.179066 0.769770
vt 0.120693 0.892174
vt 0.154355 0.769740
vt 0.166824 0.769764
vt 0.125608 0.762328
vt 0.154469 0.769770
vt 0.125608 0.892174
vt 0.179179 0.769740
vt 0.120693 0.977938
vt 0.176902 0.988777
vt 0.125608 0.977938
vt 0.157247 0.988777
vt 0.125608 0.671877
vt 0.125608 0.682619
vt 0.176902 0.988777
vt 0.167075 0.998999
vt 0.120693 0.668558
vt 0.120693 0.996686
vt 0.125607 0.668558
vt 0.167075 0.998999
vt 0.125608 0.996686
vt 0.174019 0.995824
vt 0.120693 0.987312
vt 0.120693 0.671877
vt 0.120693 0.682619
vt 0.157247 0.988777
vt 0.160130 0.995824
vt 0.120693 0.673245
vt 0.160130 0.995824
vt 0.125608 0.987312
vt 0.125607 0.673245
vt 0.174019 0.995824
vt 0.120693 0.874816
vt 0.176763 0.885686
vt 0.125608 0.874816
vt 0.157386 0.885686
vt 0.176763 0.885686
vt 0.125608 0.775000
vt 0.120693 0.775000
vt 0.157386 0.885686
vt 0.125608 0.878113
vt 0.174995 0.783324
vt 0.120693 0.776389
vt 0.174843 0.783343
vt 0.125608 0.776389
vt 0.158692 0.783343
vt 0.120693 0.878113
vt 0.158540 0.783324
vt 0.120694 0.823248
vt 0.176491 0.834140
vt 0.157658 0.834140
vt 0.125609 0.823248
vt 0.120694 0.826564
vt 0.157658 0.834140
vt 0.125609 0.826564
vt 0.176491 0.834140
vt 0.176119 0.810711
vt 0.125610 0.850004
vt 0.176118 0.810711
vt 0.120695 0.799803
vt 0.125610 0.799803
vt 0.158031 0.810711
vt 0.158030 0.810711
vt 0.120695 0.850004
vt 0.120694 0.851372
vt 0.176629 0.857570
vt 0.157520 0.857570
vt 0.125609 0.851372
vt 0.120694 0.803128
vt 0.157520 0.857570
vt 0.125609 0.803128
vt 0.176629 0.857570
vt 0.125605 0.864076
vt 0.175983 0.796653
vt 0.120690 0.785747
vt 0.175982 0.796653
vt 0.158167 0.796653
vt 0.125605 0.785747
vt 0.120691 0.864076
vt 0.158166 0.796653
vt 0.176227 0.820083
vt 0.120697 0.813838
vt 0.125612 0.813838
vt 0.157922 0.820083
vt 0.157922 0.820083
vt 0.120697 0.840648
vt 0.176227 0.820083
vt 0.125612 0.840648
vt 0.166844 0.783335
vt 0.166691 0.783335
s 1
usemtl misc_mp_1
f 8/14/1 10/18/2 11/19/3 9/16/4
f 14/23/5 9/16/4 7/13/6 12/20/7
f 13/21/8 8/14/1 9/16/4 14/23/5
f 15/24/9 16/25/10 19/29/11 18/28/12
f 2/3/13 17/26/14 19/29/11 16/25/10
f 19/29/11 21/31/15 20/30/16 18/28/12
f 17/26/14 1/1/17 21/31/15 19/29/11
f 22/32/18 24/35/19 12/20/7 7/13/6
f 3/5/20 23/33/21 24/35/19 22/32/18
f 26/38/22 22/32/18 7/13/6
f 25/37/23 3/5/20 22/32/18 26/38/22
f 27/39/24 26/38/22 7/13/6
f 76/104/25 25/37/23 26/38/22 27/39/24
f 28/40/26 29/41/27 18/28/12 20/30/16
f 4/7/28 6/11/29 29/41/27 28/40/26
f 21/31/15 14/23/5 12/20/7 20/30/16
f 6/11/29 5/9/30 30/42/31 29/41/27
f 11/19/3 27/39/24 7/13/6
f 5/9/30 31/43/32 32/46/33 30/42/31
f 30/42/31 32/46/33 15/24/9
f 1/1/17 13/21/8 14/23/5 21/31/15
f 29/41/27 30/42/31 15/24/9 18/28/12
f 31/43/32 2/3/13 16/25/10 32/46/33
f 32/46/33 16/25/10 15/24/9
f 10/18/2 76/104/25 27/39/24 11/19/3
f 24/35/19 28/40/26 20/30/16 12/20/7
f 23/33/21 4/7/28 28/40/26 24/35/19
f 37/54/34 36/53/35 39/58/36 38/57/37
f 36/53/35 40/59/38 41/60/39 39/58/36
f 40/59/38 42/61/40 41/60/39
f 44/63/41 43/62/42 36/53/35 37/54/34
f 43/62/42 45/65/43 40/59/38 36/53/35
f 45/65/43 46/66/44 42/61/40 40/59/38
f 73/98/45 49/70/46 48/69/47 47/67/48
f 49/70/46 50/71/49 51/72/50 48/69/47
f 50/71/49 52/73/51 51/72/50
f 47/67/48 48/69/47 53/74/52 74/100/53
f 48/69/47 51/72/50 54/75/54 53/74/52
f 51/72/50 52/73/51 55/76/55 54/75/54
f 75/102/56 58/80/57 57/79/58 56/77/59
f 58/80/57 59/81/60 60/82/61 57/79/58
f 59/81/60 42/61/40 46/66/44 60/82/61
f 62/85/62 61/83/63 58/80/57 75/102/56
f 61/83/63 63/86/64 59/81/60 58/80/57
f 63/86/64 42/61/40 59/81/60
f 79/109/65 64/87/66 61/83/63 62/85/62
f 64/87/66 65/88/67 63/86/64 61/83/63
f 65/88/67 42/61/40 63/86/64
f 33/47/68 67/90/69 66/89/70 34/49/71
f 67/90/69 68/91/72 69/92/73 66/89/70
f 68/91/72 55/76/55 52/73/51 69/92/73
f 34/49/71 66/89/70 70/93/74 35/51/75
f 66/89/70 69/92/73 50/71/49 70/93/74
f 69/92/73 52/73/51 50/71/49
f 35/51/75 70/93/74 72/97/76 71/94/77
f 70/93/74 50/71/49 72/97/76
f 74/100/53 53/74/52 43/62/42 44/63/41
f 53/74/52 54/75/54 45/65/43 43/62/42
f 54/75/54 55/76/55 46/66/44 45/65/43
f 71/94/77 72/97/76 49/70/46 73/98/45
f 72/97/76 50/71/49 49/70/46
f 38/57/37 39/58/36 64/87/66 79/109/65
f 39/58/36 41/60/39 65/88/67 64/87/66
f 41/60/39 42/61/40 65/88/67
f 56/77/59 57/79/58 67/90/69 33/47/68
f 57/79/58 60/82/61 68/91/72 67/90/69
f 60/82/61 46/66/44 55/76/55 68/91/72
f 17/27/78 47/68/79 74/101/80 1/2/81
f 25/36/82 77/105/83 80/110/84 62/84/85
f 6/12/86 34/50/87 35/52/88 5/10/88
f 38/56/89 81/112/90 78/107/91 10/17/92
f 3/6/93 75/103/93 56/78/94 23/34/94
f 25/36/82 62/84/85 75/103/93 3/6/93
f 8/15/95 37/55/95 38/56/89 10/17/92
f 5/10/96 35/52/96 71/95/96 31/44/96
f 13/22/97 44/64/98 37/55/95 8/15/95
f 1/2/81 74/101/80 44/64/98 13/22/97
f 31/45/99 71/96/99 73/99/99 2/4/99
f 23/34/94 56/78/94 33/48/100 4/8/101
f 2/4/102 73/99/102 47/68/79 17/27/78
f 4/8/101 33/48/100 34/50/87 6/12/86
f 94/143/103 84/118/104 88/129/104 95/144/105
f 62/85/62 80/111/106 79/109/65
f 79/109/65 81/113/106 38/57/37
f 76/104/25 77/106/107 25/37/23
f 10/18/2 78/108/107 76/104/25
f 89/132/108 85/121/108 87/127/108
f 85/122/109 89/133/110 91/136/110 86/124/109
f 93/141/111 83/117/112 84/120/112 94/142/111
f 92/138/113 82/114/114 83/116/114 93/140/115
f 79/109/65 98/151/116 120/194/117
f 76/104/25 99/153/118 121/195/119
f 78/107/91 81/112/90 96/146/120 99/152/121
f 82/115/108 88/131/108 89/132/108 87/127/108
f 84/119/104 91/136/110 89/133/110 88/130/104
f 90/134/112 86/125/112 91/137/112
f 82/114/114 87/128/122 90/135/122 83/116/114
f 83/117/112 90/134/112 91/137/112 84/120/112
f 110/175/123 95/145/124 92/139/124 108/171/123
f 108/170/125 92/138/113 93/140/115 109/173/126
f 109/172/127 93/141/111 94/142/111 111/177/127
f 111/176/128 94/143/103 95/144/105 110/174/128
f 95/145/124 88/131/108 82/115/108 92/139/124
f 119/193/129 103/160/130 102/158/131 118/191/132
f 117/189/133 101/156/134 103/161/134 119/192/133
f 116/187/135 100/154/136 101/157/137 117/188/138
f 118/190/139 102/159/140 100/155/140 116/186/139
f 115/185/141 107/168/142 105/164/142 113/181/141
f 113/180/143 105/165/144 106/166/145 114/183/146
f 114/182/147 106/167/148 104/162/148 112/179/147
f 112/178/149 104/163/150 107/169/150 115/184/151
f 103/160/130 111/176/128 110/174/128 102/158/131
f 101/156/134 109/172/127 111/177/127 103/161/134
f 100/154/136 108/170/125 109/173/126 101/157/137
f 102/159/140 110/175/123 108/171/123 100/155/140
f 96/146/120 112/178/149 115/184/151 99/152/121
f 98/151/116 114/182/147 112/179/147 96/147/116 120/194/117
f 97/148/152 113/180/143 114/183/146 98/150/153
f 99/153/118 115/185/141 113/181/141 97/149/118 121/195/119
f 107/168/142 118/190/139 116/186/139 105/164/142
f 105/165/144 116/187/135 117/188/138 106/166/145
f 106/167/148 117/189/133 119/192/133 104/162/148
f 104/163/150 119/193/129 118/191/132 107/169/150
f 80/110/84 77/105/83 97/148/152 98/150/153
f 121/195/119 97/149/118 76/104/25
f 79/109/65 96/147/116 81/113/106
f 120/194/117 96/147/116 79/109/65
f 80/111/106 98/151/116 79/109/65
f 78/108/107 99/153/118 76/104/25
f 87/128/122 85/123/109 86/126/109 90/135/122
f 9/16/4 11/19/3 7/13/6
f 76/104/25 97/149/118 77/106/107
