# Blender 3.4.0
# www.blender.org
mtllib toy_brick_1.mtl
o toy_brick_1
v -0.012335 0.000000 0.027337
v -0.012335 0.000000 -0.027337
v 0.012736 0.000000 0.027337
v 0.012736 0.000000 -0.027337
v -0.014999 0.020000 -0.030001
v -0.014999 0.020000 0.030001
v 0.015000 0.020000 -0.030001
v 0.015000 0.020000 0.030001
v -0.014999 0.000000 -0.030001
v -0.014999 0.000000 0.030001
v 0.015000 0.000000 -0.030001
v 0.015000 0.000000 0.030001
v -0.012335 0.017000 -0.027337
v -0.012335 0.017000 0.027337
v 0.012736 0.017000 -0.027337
v 0.012736 0.017000 0.027337
v 0.007988 0.025000 -0.028000
v 0.004453 0.025000 -0.026535
v 0.002989 0.025000 -0.022998
v 0.007988 0.025000 -0.017998
v 0.004453 0.025000 -0.019463
v 0.011524 0.025000 -0.026535
v 0.012988 0.025000 -0.022998
v 0.011524 0.025000 -0.019463
v 0.007988 0.020000 -0.028000
v 0.004453 0.020000 -0.026535
v 0.007988 0.020000 -0.017998
v 0.002989 0.020000 -0.022998
v 0.004453 0.020000 -0.019463
v 0.011524 0.020000 -0.026535
v 0.012988 0.020000 -0.022998
v 0.011524 0.020000 -0.019463
v -0.008012 0.025000 -0.027999
v -0.011547 0.025000 -0.026534
v -0.013011 0.025000 -0.022997
v -0.008012 0.025000 -0.017997
v -0.011547 0.025000 -0.019462
v -0.004476 0.025000 -0.026534
v -0.003012 0.025000 -0.022997
v -0.004476 0.025000 -0.019462
v -0.008012 0.020000 -0.027999
v -0.011547 0.020000 -0.026534
v -0.008012 0.020000 -0.017997
v -0.013011 0.020000 -0.022997
v -0.011547 0.020000 -0.019462
v -0.004476 0.020000 -0.026534
v -0.003012 0.020000 -0.022997
v -0.004476 0.020000 -0.019462
v -0.008012 0.025000 -0.013000
v -0.011547 0.025000 -0.011535
v -0.013011 0.025000 -0.007998
v -0.008012 0.025000 -0.002998
v -0.011547 0.025000 -0.004463
v -0.004476 0.025000 -0.011535
v -0.003012 0.025000 -0.007998
v -0.004476 0.025000 -0.004463
v -0.008012 0.020000 -0.013000
v -0.011547 0.020000 -0.011535
v -0.008012 0.020000 -0.002998
v -0.013011 0.020000 -0.007998
v -0.011547 0.020000 -0.004463
v -0.004476 0.020000 -0.011535
v -0.003012 0.020000 -0.007998
v -0.004476 0.020000 -0.004463
v 0.007988 0.025000 -0.013000
v 0.004453 0.025000 -0.011535
v 0.002989 0.025000 -0.007998
v 0.007988 0.025000 -0.002998
v 0.004453 0.025000 -0.004463
v 0.011524 0.025000 -0.011535
v 0.012988 0.025000 -0.007998
v 0.011524 0.025000 -0.004463
v 0.007988 0.020000 -0.013000
v 0.004453 0.020000 -0.011535
v 0.007988 0.020000 -0.002998
v 0.002989 0.020000 -0.007998
v 0.004453 0.020000 -0.004463
v 0.011524 0.020000 -0.011535
v 0.012988 0.020000 -0.007998
v 0.011524 0.020000 -0.004463
v -0.008012 0.025000 0.002662
v -0.011547 0.025000 0.004127
v -0.013011 0.025000 0.007664
v -0.008012 0.025000 0.012664
v -0.011547 0.025000 0.011199
v -0.004476 0.025000 0.004127
v -0.003012 0.025000 0.007664
v -0.004476 0.025000 0.011199
v -0.008012 0.020000 0.002662
v -0.011547 0.020000 0.004127
v -0.008012 0.020000 0.012664
v -0.013011 0.020000 0.007664
v -0.011547 0.020000 0.011199
v -0.004476 0.020000 0.004127
v -0.003012 0.020000 0.007664
v -0.004476 0.020000 0.011199
v 0.007988 0.025000 0.002662
v 0.004453 0.025000 0.004127
v 0.002989 0.025000 0.007664
v 0.007988 0.025000 0.012664
v 0.004453 0.025000 0.011199
v 0.011524 0.025000 0.004127
v 0.012988 0.025000 0.007664
v 0.011524 0.025000 0.011199
v 0.007988 0.020000 0.002662
v 0.004453 0.020000 0.004127
v 0.007988 0.020000 0.012664
v 0.002989 0.020000 0.007664
v 0.004453 0.020000 0.011199
v 0.011524 0.020000 0.004127
v 0.012988 0.020000 0.007664
v 0.011524 0.020000 0.011199
v -0.008012 0.025000 0.018000
v -0.011547 0.025000 0.019465
v -0.013011 0.025000 0.023002
v -0.008012 0.025000 0.028002
v -0.011547 0.025000 0.026537
v -0.004476 0.025000 0.019465
v -0.003012 0.025000 0.023002
v -0.004476 0.025000 0.026537
v -0.008012 0.020000 0.018000
v -0.011547 0.020000 0.019465
v -0.008012 0.020000 0.028002
v -0.013011 0.020000 0.023002
v -0.011547 0.020000 0.026537
v -0.004476 0.020000 0.019465
v -0.003012 0.020000 0.023002
v -0.004476 0.020000 0.026537
v 0.007988 0.025000 0.018000
v 0.004453 0.025000 0.019465
v 0.002989 0.025000 0.023002
v 0.007988 0.025000 0.028002
v 0.004453 0.025000 0.026537
v 0.011524 0.025000 0.019465
v 0.012988 0.025000 0.023002
v 0.011524 0.025000 0.026537
v 0.007988 0.020000 0.018000
v 0.004453 0.020000 0.019465
v 0.007988 0.020000 0.028002
v 0.002989 0.020000 0.023002
v 0.004453 0.020000 0.026537
v 0.011524 0.020000 0.019465
v 0.012988 0.020000 0.023002
v 0.011524 0.020000 0.026537
v 0.000006 0.002000 -0.006501
v 0.004602 0.002000 -0.004597
v 0.006505 0.002000 0.000002
v 0.000006 0.002000 0.006501
v 0.004602 0.002000 0.004597
v -0.004590 0.002000 -0.004597
v -0.006493 0.002000 0.000002
v -0.004590 0.002000 0.004597
v 0.000006 0.017000 -0.006501
v 0.004602 0.017000 -0.004597
v 0.000006 0.017000 0.006501
v 0.006505 0.017000 0.000002
v 0.004602 0.017000 0.004597
v -0.004590 0.017000 -0.004597
v -0.006493 0.017000 0.000002
v -0.004590 0.017000 0.004597
v 0.000006 0.002000 -0.021500
v 0.004602 0.002000 -0.019597
v 0.006505 0.002000 -0.014998
v 0.000006 0.002000 -0.008499
v 0.004602 0.002000 -0.010402
v -0.004590 0.002000 -0.019597
v -0.006493 0.002000 -0.014998
v -0.004590 0.002000 -0.010402
v 0.000006 0.017000 -0.021500
v 0.004602 0.017000 -0.019597
v 0.000006 0.017000 -0.008499
v 0.006505 0.017000 -0.014998
v 0.004602 0.017000 -0.010402
v -0.004590 0.017000 -0.019597
v -0.006493 0.017000 -0.014998
v -0.004590 0.017000 -0.010402
v 0.000006 0.002000 0.008499
v 0.004602 0.002000 0.010402
v 0.006505 0.002000 0.015001
v 0.000006 0.002000 0.021500
v 0.004602 0.002000 0.019597
v -0.004590 0.002000 0.010402
v -0.006493 0.002000 0.015001
v -0.004590 0.002000 0.019597
v 0.000006 0.017000 0.008499
v 0.004602 0.017000 0.010402
v 0.000006 0.017000 0.021500
v 0.006505 0.017000 0.015001
v 0.004602 0.017000 0.019597
v -0.004590 0.017000 0.010402
v -0.006493 0.017000 0.015001
v -0.004590 0.017000 0.019597
vn -0.0000 -0.0000 -1.0000
vn -0.0000 1.0000 -0.0000
vn -0.0000 -0.0000 1.0000
vn -1.0000 -0.0000 -0.0000
vn 1.0000 -0.0000 -0.0000
vn -0.0000 -1.0000 -0.0000
vn -1.0000 -0.0000 0.0001
vn -0.7072 -0.0000 -0.7070
vn 1.0000 -0.0000 0.0001
vn 0.7072 -0.0000 -0.7070
vn 0.7071 -0.0000 0.7071
vn -0.7071 -0.0000 0.7071
vt 0.831461 0.933333
vt 0.022472 0.761111
vt 0.831461 1.000000
vt 0.022472 0.988889
vt 0.831461 0.750000
vt 0.831461 0.933333
vt 0.831461 0.816667
vt 0.224719 0.761111
vt 0.831461 1.000000
vt 0.224719 0.988889
vt 0.831461 0.750000
vt 0.831461 0.816667
vt 0.247191 1.000000
vt 0.752809 0.938889
vt 0.752809 0.750000
vt 0.247191 0.750000
vt 0.752809 0.938889
vt 0.752809 1.000000
vt 0.516854 1.000000
vt 0.752809 0.811111
vt 0.752809 0.750000
vt 0.516854 0.750000
vt 0.752809 0.811111
vt 0.752809 1.000000
vt 0.573034 0.938889
vt 0.573034 0.750000
vt 0.000000 1.000000
vt 0.573034 0.938889
vt 0.573034 1.000000
vt 0.000000 0.750000
vt 0.573034 0.811111
vt 0.573034 0.750000
vt 0.247191 1.000000
vt 0.573034 0.811111
vt 0.573034 1.000000
vt 0.247191 0.750000
vt 0.022472 0.988889
vt 1.000000 0.750000
vt 1.000000 0.933333
vt 1.000000 0.933333
vt 0.022472 0.761111
vt 1.000000 1.000000
vt 0.224719 0.988889
vt 1.000000 0.750000
vt 1.000000 0.816667
vt 1.000000 0.816667
vt 0.224719 0.761111
vt 1.000000 1.000000
vt 0.439673 0.994112
vt 0.617977 0.916667
vt 0.409481 0.988011
vt 0.617977 0.750000
vt 0.617977 0.938889
vt 0.396975 0.973270
vt 0.617977 0.772222
vt 0.439673 0.952440
vt 0.617977 0.916667
vt 0.409481 0.958541
vt 0.617977 0.794444
vt 0.617977 0.938889
vt 0.469865 0.988011
vt 0.617977 0.750000
vt 0.617977 0.894444
vt 0.482371 0.973281
vt 0.617977 0.772222
vt 0.469865 0.958541
vt 0.617977 0.794444
vt 0.617977 0.894444
vt 0.573034 0.916667
vt 0.573034 0.750000
vt 0.573034 0.938889
vt 0.573034 0.916667
vt 0.573034 0.772222
vt 0.573034 0.794444
vt 0.573034 0.938889
vt 0.573034 0.750000
vt 0.573034 0.894444
vt 0.573034 0.772222
vt 0.573034 0.794444
vt 0.573034 0.894444
vt 0.314673 0.994112
vt 0.617977 0.916667
vt 0.284481 0.988011
vt 0.617977 0.750000
vt 0.617977 0.938889
vt 0.271975 0.973270
vt 0.617977 0.772222
vt 0.314673 0.952440
vt 0.617977 0.916667
vt 0.284481 0.958541
vt 0.617977 0.794444
vt 0.617977 0.938889
vt 0.344865 0.988011
vt 0.617977 0.750000
vt 0.617977 0.894444
vt 0.357371 0.973281
vt 0.617977 0.772222
vt 0.344865 0.958541
vt 0.617977 0.794444
vt 0.617977 0.894444
vt 0.573034 0.916667
vt 0.573034 0.750000
vt 0.573034 0.938889
vt 0.573034 0.916667
vt 0.573034 0.772222
vt 0.573034 0.794444
vt 0.573034 0.938889
vt 0.573034 0.750000
vt 0.573034 0.894444
vt 0.573034 0.772222
vt 0.573034 0.794444
vt 0.573034 0.894444
vt 0.314673 0.927705
vt 0.617977 0.916667
vt 0.284481 0.921604
vt 0.617977 0.750000
vt 0.617977 0.938889
vt 0.271975 0.906864
vt 0.617977 0.772222
vt 0.314673 0.886034
vt 0.617977 0.916667
vt 0.284481 0.892135
vt 0.617977 0.794444
vt 0.617977 0.938889
vt 0.344865 0.921604
vt 0.617977 0.750000
vt 0.617977 0.894444
vt 0.357371 0.906875
vt 0.617977 0.772222
vt 0.344865 0.892135
vt 0.617977 0.794444
vt 0.617977 0.894444
vt 0.573034 0.916667
vt 0.573034 0.750000
vt 0.573034 0.938889
vt 0.573034 0.916667
vt 0.573034 0.772222
vt 0.573034 0.794444
vt 0.573034 0.938889
vt 0.573034 0.750000
vt 0.573034 0.894444
vt 0.573034 0.772222
vt 0.573034 0.794444
vt 0.573034 0.894444
vt 0.439673 0.931612
vt 0.617977 0.916667
vt 0.409481 0.925511
vt 0.617977 0.750000
vt 0.617977 0.938889
vt 0.396975 0.910770
vt 0.617977 0.772222
vt 0.439673 0.889940
vt 0.617977 0.916667
vt 0.409481 0.896041
vt 0.617977 0.794444
vt 0.617977 0.938889
vt 0.469865 0.925511
vt 0.617977 0.750000
vt 0.617977 0.894444
vt 0.482371 0.910781
vt 0.617977 0.772222
vt 0.469865 0.896041
vt 0.617977 0.794444
vt 0.617977 0.894444
vt 0.573034 0.916667
vt 0.573034 0.750000
vt 0.573034 0.938889
vt 0.573034 0.916667
vt 0.573034 0.772222
vt 0.573034 0.794444
vt 0.573034 0.938889
vt 0.573034 0.750000
vt 0.573034 0.894444
vt 0.573034 0.772222
vt 0.573034 0.794444
vt 0.573034 0.894444
vt 0.314673 0.861299
vt 0.617977 0.916667
vt 0.284481 0.855198
vt 0.617977 0.750000
vt 0.617977 0.938889
vt 0.271975 0.840458
vt 0.617977 0.772222
vt 0.314673 0.819628
vt 0.617977 0.916667
vt 0.284481 0.825729
vt 0.617977 0.794444
vt 0.617977 0.938889
vt 0.344865 0.855198
vt 0.617977 0.750000
vt 0.617977 0.894444
vt 0.357371 0.840469
vt 0.617977 0.772222
vt 0.344865 0.825729
vt 0.617977 0.794444
vt 0.617977 0.894444
vt 0.573034 0.916667
vt 0.573034 0.750000
vt 0.573034 0.938889
vt 0.573034 0.916667
vt 0.573034 0.772222
vt 0.573034 0.794444
vt 0.573034 0.938889
vt 0.573034 0.750000
vt 0.573034 0.894444
vt 0.573034 0.772222
vt 0.573034 0.794444
vt 0.573034 0.894444
vt 0.439673 0.865205
vt 0.617977 0.916667
vt 0.409481 0.859104
vt 0.617977 0.750000
vt 0.617977 0.938889
vt 0.396975 0.844364
vt 0.617977 0.772222
vt 0.439673 0.823534
vt 0.617977 0.916667
vt 0.409481 0.829635
vt 0.617977 0.794444
vt 0.617977 0.938889
vt 0.469865 0.859104
vt 0.617977 0.750000
vt 0.617977 0.894444
vt 0.482371 0.844375
vt 0.617977 0.772222
vt 0.469865 0.829635
vt 0.617977 0.794444
vt 0.617977 0.894444
vt 0.573034 0.916667
vt 0.573034 0.750000
vt 0.573034 0.938889
vt 0.573034 0.916667
vt 0.573034 0.772222
vt 0.573034 0.794444
vt 0.573034 0.938889
vt 0.573034 0.750000
vt 0.573034 0.894444
vt 0.573034 0.772222
vt 0.573034 0.794444
vt 0.573034 0.894444
vt 0.314673 0.799674
vt 0.617977 0.916667
vt 0.284481 0.793573
vt 0.617977 0.750000
vt 0.617977 0.938889
vt 0.271975 0.778833
vt 0.617977 0.772222
vt 0.314673 0.758002
vt 0.617977 0.916667
vt 0.284481 0.764103
vt 0.617977 0.794444
vt 0.617977 0.938889
vt 0.344865 0.793573
vt 0.617977 0.750000
vt 0.617977 0.894444
vt 0.357371 0.778844
vt 0.617977 0.772222
vt 0.344865 0.764103
vt 0.617977 0.794444
vt 0.617977 0.894444
vt 0.573034 0.916667
vt 0.573034 0.750000
vt 0.573034 0.938889
vt 0.573034 0.916667
vt 0.573034 0.772222
vt 0.573034 0.794444
vt 0.573034 0.938889
vt 0.573034 0.750000
vt 0.573034 0.894444
vt 0.573034 0.772222
vt 0.573034 0.794444
vt 0.573034 0.894444
vt 0.439673 0.798799
vt 0.617977 0.916667
vt 0.409481 0.792698
vt 0.617977 0.750000
vt 0.617977 0.938889
vt 0.396975 0.777958
vt 0.617977 0.772222
vt 0.439673 0.757128
vt 0.617977 0.916667
vt 0.409481 0.763229
vt 0.617977 0.794444
vt 0.617977 0.938889
vt 0.469865 0.792698
vt 0.617977 0.750000
vt 0.617977 0.894444
vt 0.482371 0.777969
vt 0.617977 0.772222
vt 0.469865 0.763229
vt 0.617977 0.794444
vt 0.617977 0.894444
vt 0.573034 0.916667
vt 0.573034 0.750000
vt 0.573034 0.938889
vt 0.573034 0.916667
vt 0.573034 0.772222
vt 0.573034 0.794444
vt 0.573034 0.938889
vt 0.573034 0.750000
vt 0.573034 0.894444
vt 0.573034 0.772222
vt 0.573034 0.794444
vt 0.573034 0.894444
vt 0.125540 0.839920
vt 1.000000 0.816667
vt 0.086552 0.831951
vt 1.000000 0.750000
vt 1.000000 0.838889
vt 0.070402 0.812698
vt 1.000000 0.772222
vt 0.125540 0.785491
vt 1.000000 0.816667
vt 0.086552 0.793460
vt 1.000000 0.794444
vt 1.000000 0.838889
vt 0.164529 0.831951
vt 1.000000 0.750000
vt 1.000000 0.794444
vt 0.180678 0.812712
vt 1.000000 0.772222
vt 0.164529 0.793459
vt 1.000000 0.794444
vt 0.865169 0.816667
vt 0.865169 0.750000
vt 0.865169 0.838889
vt 0.865169 0.816667
vt 0.865169 0.772222
vt 0.865169 0.794444
vt 0.865169 0.838889
vt 0.865169 0.750000
vt 0.865169 0.794444
vt 0.865169 0.772222
vt 0.865169 0.794444
vt 0.125540 0.839920
vt 1.000000 0.816667
vt 0.086552 0.831951
vt 1.000000 0.750000
vt 1.000000 0.838889
vt 0.070402 0.812698
vt 1.000000 0.772222
vt 0.125540 0.785491
vt 1.000000 0.816667
vt 0.086552 0.793460
vt 1.000000 0.794444
vt 1.000000 0.838889
vt 0.164529 0.831951
vt 1.000000 0.750000
vt 1.000000 0.794444
vt 0.180678 0.812712
vt 1.000000 0.772222
vt 0.164529 0.793459
vt 1.000000 0.794444
vt 0.865169 0.816667
vt 0.865169 0.750000
vt 0.865169 0.838889
vt 0.865169 0.816667
vt 0.865169 0.772222
vt 0.865169 0.794444
vt 0.865169 0.838889
vt 0.865169 0.750000
vt 0.865169 0.794444
vt 0.865169 0.772222
vt 0.865169 0.794444
vt 0.125540 0.839920
vt 1.000000 0.816667
vt 0.086552 0.831951
vt 1.000000 0.750000
vt 1.000000 0.838889
vt 0.070402 0.812698
vt 1.000000 0.772222
vt 0.125540 0.785491
vt 1.000000 0.816667
vt 0.086552 0.793460
vt 1.000000 0.794444
vt 1.000000 0.838889
vt 0.164529 0.831951
vt 1.000000 0.750000
vt 1.000000 0.794444
vt 0.180678 0.812712
vt 1.000000 0.772222
vt 0.164529 0.793459
vt 1.000000 0.794444
vt 0.865169 0.816667
vt 0.865169 0.750000
vt 0.865169 0.838889
vt 0.865169 0.816667
vt 0.865169 0.772222
vt 0.865169 0.794444
vt 0.865169 0.838889
vt 0.865169 0.750000
vt 0.865169 0.794444
vt 0.865169 0.772222
vt 0.865169 0.794444
s 0
usemtl toy_bricks_1
f 3/7/1 1/1/1 14/40/1 16/46/1
f 6/16/2 8/22/2 7/19/2 5/13/2
f 11/31/1 9/25/1 5/14/1 7/20/1
f 10/28/3 12/34/3 8/23/3 6/17/3
f 9/26/4 10/29/4 6/18/4 5/15/4
f 12/35/5 11/32/5 7/21/5 8/24/5
f 2/4/6 1/2/6 10/30/6 9/27/6
f 4/10/6 2/4/6 9/27/6 11/33/6
f 1/2/6 3/8/6 12/36/6 10/30/6
f 3/8/6 4/10/6 11/33/6 12/36/6
f 14/41/6 13/37/6 15/43/6 16/47/6
f 1/3/5 2/5/5 13/38/5 14/42/5
f 4/11/4 3/9/4 16/48/4 15/44/4
f 2/6/3 4/12/3 15/45/3 13/39/3
s 1
f 19/54/2 21/58/2 20/56/2 24/66/2 23/64/2 22/61/2 17/49/2 18/51/2
f 28/73/7 19/55/7 18/52/8 26/70/8
f 26/71/8 18/53/8 17/50/1 25/69/1
f 23/65/9 31/78/9 30/76/10 22/62/10
f 22/63/10 30/77/10 25/69/1 17/50/1
f 31/78/9 23/65/9 24/67/11 32/79/11
f 32/80/11 24/68/11 20/57/3 27/72/3
f 19/55/7 28/73/7 29/74/12 21/59/12
f 21/60/12 29/75/12 27/72/3 20/57/3
f 35/86/2 37/90/2 36/88/2 40/98/2 39/96/2 38/93/2 33/81/2 34/83/2
f 44/105/7 35/87/7 34/84/8 42/102/8
f 42/103/8 34/85/8 33/82/1 41/101/1
f 39/97/9 47/110/9 46/108/10 38/94/10
f 38/95/10 46/109/10 41/101/1 33/82/1
f 47/110/9 39/97/9 40/99/11 48/111/11
f 48/112/11 40/100/11 36/89/3 43/104/3
f 35/87/7 44/105/7 45/106/12 37/91/12
f 37/92/12 45/107/12 43/104/3 36/89/3
f 51/118/2 53/122/2 52/120/2 56/130/2 55/128/2 54/125/2 49/113/2 50/115/2
f 60/137/7 51/119/7 50/116/8 58/134/8
f 58/135/8 50/117/8 49/114/1 57/133/1
f 55/129/9 63/142/9 62/140/10 54/126/10
f 54/127/10 62/141/10 57/133/1 49/114/1
f 63/142/9 55/129/9 56/131/11 64/143/11
f 64/144/11 56/132/11 52/121/3 59/136/3
f 51/119/7 60/137/7 61/138/12 53/123/12
f 53/124/12 61/139/12 59/136/3 52/121/3
f 67/150/2 69/154/2 68/152/2 72/162/2 71/160/2 70/157/2 65/145/2 66/147/2
f 76/169/7 67/151/7 66/148/8 74/166/8
f 74/167/8 66/149/8 65/146/1 73/165/1
f 71/161/9 79/174/9 78/172/10 70/158/10
f 70/159/10 78/173/10 73/165/1 65/146/1
f 79/174/9 71/161/9 72/163/11 80/175/11
f 80/176/11 72/164/11 68/153/3 75/168/3
f 67/151/7 76/169/7 77/170/12 69/155/12
f 69/156/12 77/171/12 75/168/3 68/153/3
f 83/182/2 85/186/2 84/184/2 88/194/2 87/192/2 86/189/2 81/177/2 82/179/2
f 92/201/7 83/183/7 82/180/8 90/198/8
f 90/199/8 82/181/8 81/178/1 89/197/1
f 87/193/9 95/206/9 94/204/10 86/190/10
f 86/191/10 94/205/10 89/197/1 81/178/1
f 95/206/9 87/193/9 88/195/11 96/207/11
f 96/208/11 88/196/11 84/185/3 91/200/3
f 83/183/7 92/201/7 93/202/12 85/187/12
f 85/188/12 93/203/12 91/200/3 84/185/3
f 99/214/2 101/218/2 100/216/2 104/226/2 103/224/2 102/221/2 97/209/2 98/211/2
f 108/233/7 99/215/7 98/212/8 106/230/8
f 106/231/8 98/213/8 97/210/1 105/229/1
f 103/225/9 111/238/9 110/236/10 102/222/10
f 102/223/10 110/237/10 105/229/1 97/210/1
f 111/238/9 103/225/9 104/227/11 112/239/11
f 112/240/11 104/228/11 100/217/3 107/232/3
f 99/215/7 108/233/7 109/234/12 101/219/12
f 101/220/12 109/235/12 107/232/3 100/217/3
f 115/246/2 117/250/2 116/248/2 120/258/2 119/256/2 118/253/2 113/241/2 114/243/2
f 124/265/7 115/247/7 114/244/8 122/262/8
f 122/263/8 114/245/8 113/242/1 121/261/1
f 119/257/9 127/270/9 126/268/10 118/254/10
f 118/255/10 126/269/10 121/261/1 113/242/1
f 127/270/9 119/257/9 120/259/11 128/271/11
f 128/272/11 120/260/11 116/249/3 123/264/3
f 115/247/7 124/265/7 125/266/12 117/251/12
f 117/252/12 125/267/12 123/264/3 116/249/3
f 131/278/2 133/282/2 132/280/2 136/290/2 135/288/2 134/285/2 129/273/2 130/275/2
f 140/297/7 131/279/7 130/276/8 138/294/8
f 138/295/8 130/277/8 129/274/1 137/293/1
f 135/289/9 143/302/9 142/300/10 134/286/10
f 134/287/10 142/301/10 137/293/1 129/274/1
f 143/302/9 135/289/9 136/291/11 144/303/11
f 144/304/11 136/292/11 132/281/3 139/296/3
f 131/279/7 140/297/7 141/298/12 133/283/12
f 133/284/12 141/299/12 139/296/3 132/281/3
f 147/310/6 149/314/6 148/312/6 152/322/6 151/320/6 150/317/6 145/305/6 146/307/6
f 156/328/9 147/311/9 146/308/10 154/325/10
f 154/326/10 146/309/10 145/306/1 153/324/1
f 151/321/7 159/333/7 158/331/8 150/318/8
f 150/319/8 158/332/8 153/324/1 145/306/1
f 159/333/7 151/321/7 152/323/12 160/334/12
f 160/334/12 152/323/12 148/313/3 155/327/3
f 147/311/9 156/328/9 157/329/11 149/315/11
f 149/316/11 157/330/11 155/327/3 148/313/3
f 163/340/6 165/344/6 164/342/6 168/352/6 167/350/6 166/347/6 161/335/6 162/337/6
f 172/358/9 163/341/9 162/338/10 170/355/10
f 170/356/10 162/339/10 161/336/1 169/354/1
f 167/351/7 175/363/7 174/361/8 166/348/8
f 166/349/8 174/362/8 169/354/1 161/336/1
f 175/363/7 167/351/7 168/353/12 176/364/12
f 176/364/12 168/353/12 164/343/3 171/357/3
f 163/341/9 172/358/9 173/359/11 165/345/11
f 165/346/11 173/360/11 171/357/3 164/343/3
f 179/370/6 181/374/6 180/372/6 184/382/6 183/380/6 182/377/6 177/365/6 178/367/6
f 188/388/9 179/371/9 178/368/10 186/385/10
f 186/386/10 178/369/10 177/366/1 185/384/1
f 183/381/7 191/393/7 190/391/8 182/378/8
f 182/379/8 190/392/8 185/384/1 177/366/1
f 191/393/7 183/381/7 184/383/12 192/394/12
f 192/394/12 184/383/12 180/373/3 187/387/3
f 179/371/9 188/388/9 189/389/11 181/375/11
f 181/376/11 189/390/11 187/387/3 180/373/3
