# Blender 3.4.0
# www.blender.org
mtllib tv_remote_mp_1.mtl
o tv_remote_mp_1
v -0.034000 0.020000 0.112000
v -0.034000 0.020000 -0.140000
v 0.039999 0.020000 0.112002
v -0.019432 0.020000 0.127535
v 0.002999 0.020000 0.132729
v 0.025430 0.020000 0.127536
v 0.039998 0.020000 -0.140002
v 0.023023 0.020000 -0.150198
v 0.002999 0.020000 -0.153427
v -0.017025 0.020000 -0.150197
v -0.019000 0.000000 0.106067
v -0.034000 0.015000 0.112000
v -0.029607 0.004393 0.110262
v -0.019000 0.000000 -0.131512
v -0.034000 0.015000 -0.140000
v -0.029607 0.004393 -0.137514
v 0.039999 0.015000 0.112002
v 0.024999 0.000000 0.106068
v 0.035605 0.004393 0.110264
v 0.017607 0.000000 0.113950
v 0.025430 0.015000 0.127536
v 0.023139 0.004393 0.123557
v 0.002999 0.000000 0.117332
v 0.002999 0.015000 0.132729
v 0.002999 0.004393 0.128220
v -0.011608 0.000000 0.113950
v -0.019432 0.015000 0.127535
v -0.017140 0.004393 0.123556
v 0.024998 0.000000 -0.131513
v 0.039998 0.015000 -0.140002
v 0.035605 0.004393 -0.137515
v -0.011781 0.000000 -0.135849
v -0.017025 0.015000 -0.150197
v -0.015489 0.004393 -0.145995
v 0.002999 0.000000 -0.138233
v 0.002999 0.015000 -0.153427
v 0.002999 0.004393 -0.148977
v 0.017779 0.000000 -0.135850
v 0.023023 0.015000 -0.150198
v 0.021487 0.004393 -0.145995
vn -0.9299 -0.0000 0.3678
vn -0.4991 -0.0000 0.8666
vn -0.0000 1.0000 -0.0000
vn 0.4990 -0.0000 0.8666
vn 0.9299 -0.0000 0.3678
vn -0.8703 -0.0000 -0.4925
vn -0.3433 -0.0000 -0.9392
vn 0.8703 -0.0000 -0.4925
vn 0.3433 -0.0000 -0.9392
vn -0.0000 -0.0000 1.0000
vn -0.0000 -0.0000 -1.0000
vn -0.1963 -0.9742 -0.1111
vn -0.2087 -0.9745 0.0825
vn -0.6797 -0.6825 0.2688
vn -0.6342 -0.6848 -0.3589
vn -0.8494 -0.4069 0.3360
vn -0.7859 -0.4297 -0.4447
vn 0.2087 -0.9745 0.0825
vn 0.1963 -0.9742 -0.1111
vn 0.6342 -0.6848 -0.3589
vn 0.6797 -0.6825 0.2688
vn 0.7859 -0.4297 -0.4447
vn 0.8494 -0.4069 0.3360
vn -0.1103 -0.9753 0.1915
vn -0.0000 -0.9762 0.2169
vn -0.0000 -0.6870 0.7266
vn -0.3640 -0.6841 0.6320
vn -0.0000 -0.3913 0.9203
vn -0.4580 -0.3973 0.7952
vn 0.1103 -0.9753 0.1915
vn 0.3640 -0.6841 0.6321
vn 0.4580 -0.3973 0.7953
vn 0.0735 -0.9768 -0.2011
vn 0.2487 -0.6892 -0.6805
vn 0.3163 -0.3887 -0.8654
vn -0.0000 -0.9774 -0.2116
vn -0.0000 -0.6914 -0.7225
vn -0.0000 -0.3869 -0.9221
vn -0.0735 -0.9768 -0.2011
vn -0.2487 -0.6892 -0.6805
vn -0.3163 -0.3887 -0.8654
vt 0.492537 0.355769
vt 0.492537 1.000000
vt 0.033833 0.096486
vt 0.033833 0.936036
vt 0.492537 0.000000
vt 0.492537 0.000000
vt 0.418825 0.096481
vt 0.492537 1.000000
vt 0.109633 0.048751
vt 0.492537 0.269231
vt 0.226329 0.030181
vt 0.492537 0.173077
vt 0.343024 0.048748
vt 0.492537 0.086538
vt 0.418825 0.936042
vt 0.492537 0.317308
vt 0.492537 0.000000
vt 0.330505 0.970134
vt 0.492537 0.240385
vt 0.226329 0.980930
vt 0.492537 0.163462
vt 0.122153 0.970131
vt 0.492537 0.076923
vt 0.683768 0.121719
vt 0.447761 0.355769
vt 0.447761 1.000000
vt 0.601261 0.110207
vt 0.638183 0.112759
vt 0.683768 0.850350
vt 0.447761 0.000000
vt 0.601261 0.874460
vt 0.638183 0.867078
vt 0.447761 0.000000
vt 0.447761 1.000000
vt 0.955219 0.110203
vt 0.872709 0.121717
vt 0.918269 0.112756
vt 0.840956 0.104883
vt 0.447761 0.086538
vt 0.885510 0.040815
vt 0.864728 0.084366
vt 0.778226 0.097659
vt 0.447761 0.173077
vt 0.778226 0.028459
vt 0.778226 0.074407
vt 0.715496 0.104884
vt 0.447761 0.269231
vt 0.670915 0.040817
vt 0.691724 0.084367
vt 0.872709 0.850353
vt 0.447761 0.317308
vt 0.447761 0.000000
vt 0.955219 0.874465
vt 0.918269 0.867082
vt 0.714746 0.862438
vt 0.447761 0.076923
vt 0.682444 0.949386
vt 0.698834 0.890716
vt 0.778226 0.869083
vt 0.447761 0.163462
vt 0.778226 0.959413
vt 0.778226 0.899028
vt 0.841682 0.862440
vt 0.447761 0.240385
vt 0.874008 0.949389
vt 0.857618 0.890718
s 1
usemtl tv_remote_mp_1
f 1/1/1 12/25/1 27/47/2 4/10/2
f 2/4/3 7/15/3 8/18/3 9/20/3 10/22/3
f 6/14/4 21/39/4 17/33/5 3/6/5
f 3/7/3 1/3/3 4/9/3 5/11/3 6/13/3
f 12/26/1 1/2/1 2/5/6 15/30/6
f 7/15/3 2/4/3 1/3/3 3/7/3
f 10/23/7 33/56/7 15/30/6 2/5/6
f 7/16/8 30/51/8 39/64/9 8/19/9
f 4/10/2 27/47/2 24/43/10 5/12/10
f 5/12/10 24/43/10 21/39/4 6/14/4
f 9/21/11 36/60/11 33/56/7 10/23/7
f 8/19/9 39/64/9 36/60/11 9/21/11
f 30/52/8 7/17/8 3/8/5 17/34/5
f 14/29/12 11/24/13 13/28/14 16/32/15
f 16/32/15 13/28/14 12/27/16 15/31/17
f 18/36/18 29/50/19 31/54/20 19/37/21
f 19/37/21 31/54/20 30/53/22 17/35/23
f 26/46/24 23/42/25 25/45/26 28/49/27
f 28/49/27 25/45/26 24/44/28 27/48/29
f 23/42/25 20/38/30 22/41/31 25/45/26
f 25/45/26 22/41/31 21/40/32 24/44/28
f 20/38/30 18/36/18 19/37/21 22/41/31
f 22/41/31 19/37/21 17/35/23 21/40/32
f 29/50/19 38/63/33 40/66/34 31/54/20
f 31/54/20 40/66/34 39/65/35 30/53/22
f 38/63/33 35/59/36 37/62/37 40/66/34
f 40/66/34 37/62/37 36/61/38 39/65/35
f 35/59/36 32/55/39 34/58/40 37/62/37
f 37/62/37 34/58/40 33/57/41 36/61/38
f 11/24/13 26/46/24 28/49/27 13/28/14
f 13/28/14 28/49/27 27/48/29 12/27/16
f 32/55/39 14/29/12 16/32/15 34/58/40
f 34/58/40 16/32/15 15/31/17 33/57/41
f 32/55/39 35/59/36 38/63/33
f 11/24/13 14/29/12 29/50/19 18/36/18
f 26/46/24 11/24/13 18/36/18 20/38/30
f 23/42/25 26/46/24 20/38/30
f 14/29/12 32/55/39 38/63/33 29/50/19
