# Blender 3.4.0
# www.blender.org
mtllib cell_phone_battery_2_1.mtl
o cell_phone_battery_2_1
v 0.030004 0.008400 0.045003
v 0.026404 0.012000 0.045003
v 0.026404 0.012000 -0.044997
v 0.030004 0.008400 -0.044997
v -0.026395 0.012000 0.045003
v -0.029995 0.008400 0.045003
v -0.029995 0.008400 -0.044997
v -0.026395 0.012000 -0.044997
v 0.030004 0.003600 -0.044997
v 0.026404 0.000000 -0.044997
v 0.026404 0.000000 0.045003
v 0.030004 0.003600 0.045003
v -0.026395 -0.000000 -0.044997
v -0.029995 0.003600 -0.044997
v -0.029995 0.003600 0.045003
v -0.026395 -0.000000 0.045003
vn -0.0000 -0.0000 1.0000
vn -0.0000 1.0000 -0.0000
vn -0.0000 -1.0000 -0.0000
vn -1.0000 -0.0000 -0.0000
vn -0.0000 -0.0000 -1.0000
vn 0.7071 0.7071 -0.0000
vn -0.7071 0.7071 -0.0000
vn 0.7071 -0.7071 -0.0000
vn -0.7071 -0.7071 -0.0000
vn 1.0000 -0.0000 -0.0000
vt 0.417329 0.069526
vt 0.000000 0.112676
vt 0.479167 0.112676
vt 0.393555 0.098592
vt 0.031250 0.112676
vt 0.583313 0.000000
vt 0.031250 1.000000
vt 0.556438 0.032812
vt 0.000000 1.000000
vt 0.479167 1.000000
vt 0.041913 0.098592
vt 0.416667 0.112676
vt 0.447917 0.112676
vt 0.019050 0.069526
vt 0.479167 0.112676
vt 0.489583 0.112676
vt 0.479167 1.000000
vt 0.995755 0.031466
vt 0.489583 1.000000
vt 0.416667 1.000000
vt 0.968880 0.000000
vt 0.447917 1.000000
vt 0.556438 0.069576
vt 0.541667 1.000000
vt 0.520833 1.000000
vt 0.583313 0.098592
vt 0.583333 1.000000
vt 0.393555 0.000000
vt 0.583333 0.112676
vt 0.417329 0.029203
vt 0.541667 0.112676
vt 0.520833 0.112676
vt 0.968750 1.000000
vt 0.968880 0.098592
vt 0.552083 1.000000
vt 0.995755 0.066434
vt 0.520833 1.000000
vt 0.019050 0.029203
vt 0.520833 0.112676
vt 0.041913 0.000000
vt 0.968750 0.112676
vt 0.552083 0.112676
s 0
usemtl cell_phone_battery_2
f 1/1/1 2/4/1 5/11/1 6/14/1 15/38/1 16/40/1 11/28/1 12/30/1
f 2/5/2 3/7/2 8/20/2 5/12/2
f 11/29/3 16/41/3 13/33/3 10/27/3
f 6/15/4 7/17/4 14/37/4 15/39/4
f 7/18/5 8/21/5 3/6/5 4/8/5 9/23/5 10/26/5 13/34/5 14/36/5
f 3/7/6 2/5/6 1/2/6 4/9/6
f 5/13/7 8/22/7 7/19/7 6/16/7
f 9/24/8 12/31/8 11/29/8 10/27/8
f 15/39/9 14/37/9 13/35/9 16/42/9
f 4/10/10 1/3/10 12/32/10 9/25/10
