# Blender 3.4.0
# www.blender.org
mtllib elevator_call_button_1.mtl
o elevator_call_button_1
v -0.060000 -0.190000 -0.000000
v -0.060000 0.190000 -0.000000
v 0.060000 -0.190000 -0.000000
v 0.060000 0.190000 -0.000000
v 0.042000 -0.190000 -0.000000
v -0.042000 0.190000 -0.000000
v -0.031749 0.211213 -0.000000
v 0.042000 0.190000 -0.000000
v 0.031748 0.211213 -0.000000
v -0.042000 -0.190000 -0.000000
v -0.031749 -0.211213 -0.000000
v 0.031748 -0.211213 -0.000000
v -0.030000 0.072361 0.015000
v 0.000000 0.042361 0.015000
v 0.000000 0.102361 0.015000
v 0.030000 0.072361 0.015000
v -0.023482 0.072361 0.020000
v 0.000000 0.048879 0.020000
v 0.023482 0.072361 0.020000
v 0.000000 0.095843 0.020000
v 0.000000 0.042361 0.020000
v 0.000000 0.102361 0.020000
v 0.030000 0.072361 0.020000
v -0.030000 0.072361 0.020000
v -0.030000 -0.070000 0.015000
v 0.000000 -0.100000 0.015000
v 0.000000 -0.040000 0.015000
v 0.030000 -0.070000 0.015000
v -0.023482 -0.070000 0.020000
v 0.000000 -0.093482 0.020000
v 0.023482 -0.070000 0.020000
v 0.000000 -0.046518 0.020000
v 0.000000 -0.100000 0.020000
v 0.000000 -0.040000 0.020000
v 0.030000 -0.070000 0.020000
v -0.030000 -0.070000 0.020000
v -0.050015 -0.180015 0.020000
v -0.046015 -0.176015 0.015000
v -0.046015 0.176015 0.015000
v -0.050015 0.180015 0.020000
v 0.046014 -0.176015 0.015000
v 0.050014 -0.180015 0.020000
v 0.050014 0.180015 0.020000
v 0.046014 0.176015 0.015000
v -0.030889 0.176015 0.015000
v -0.034067 0.180015 0.020000
v 0.034066 0.180015 0.020000
v 0.030888 0.176015 0.015000
v -0.034067 -0.180015 0.020000
v -0.030889 -0.176015 0.015000
v 0.030888 -0.176015 0.015000
v 0.034066 -0.180015 0.020000
v -0.025082 0.203525 0.020000
v -0.022411 0.200445 0.015000
v 0.022410 0.200445 0.015000
v 0.025081 0.203525 0.020000
v -0.022411 -0.200445 0.015000
v -0.025082 -0.203525 0.020000
v 0.025081 -0.203525 0.020000
v 0.022410 -0.200445 0.015000
v 0.060000 0.190000 0.016000
v 0.056000 0.186000 0.020000
v 0.056000 -0.186000 0.020000
v 0.060000 -0.190000 0.016000
v -0.056000 0.186000 0.020000
v -0.060000 0.190000 0.016000
v -0.060000 -0.190000 0.016000
v -0.056000 -0.186000 0.020000
v 0.042000 0.190000 0.016000
v 0.038822 0.186000 0.020000
v -0.038822 0.186000 0.020000
v -0.042000 0.190000 0.016000
v 0.038822 -0.186000 0.020000
v 0.042000 -0.190000 0.016000
v -0.042000 -0.190000 0.016000
v -0.038822 -0.186000 0.020000
v 0.029078 0.208133 0.020000
v 0.031748 0.211213 0.016000
v -0.031749 0.211213 0.016000
v -0.029078 0.208133 0.020000
v 0.031748 -0.211213 0.016000
v 0.029078 -0.208133 0.020000
v -0.029078 -0.208133 0.020000
v -0.031749 -0.211213 0.016000
v 0.000000 0.050949 0.029000
v 0.000000 0.093772 0.029000
v 0.021411 0.072361 0.029000
v -0.021411 0.072361 0.029000
v 0.000000 -0.091411 0.029000
v 0.000000 -0.048589 0.029000
v 0.021411 -0.070000 0.029000
v -0.021411 -0.070000 0.029000
v -0.000000 0.220000 -0.000000
v -0.000000 -0.220000 -0.000000
v -0.000000 0.216000 0.020000
v -0.000000 0.220000 0.016000
v -0.000000 -0.220000 0.016000
v -0.000000 -0.216000 0.020000
v -0.000000 0.206015 0.015000
v -0.000000 0.210015 0.020000
v -0.000000 -0.210015 0.020000
v -0.000000 -0.206015 0.015000
v 0.020490 0.051870 0.020000
v 0.020490 0.051870 0.015000
v 0.020490 0.092851 0.015000
v 0.020490 0.092851 0.020000
v -0.020490 0.051870 0.015000
v -0.020490 0.051870 0.020000
v -0.020490 0.092851 0.020000
v -0.020490 0.092851 0.015000
v 0.016038 0.056322 0.020000
v 0.016038 0.088399 0.020000
v -0.016038 0.056322 0.020000
v -0.016038 0.088399 0.020000
v 0.014624 0.057736 0.029000
v 0.014624 0.086985 0.029000
v -0.014624 0.057736 0.029000
v -0.014624 0.086985 0.029000
v 0.020490 -0.090490 0.020000
v 0.020490 -0.090490 0.015000
v 0.020490 -0.049510 0.015000
v 0.020490 -0.049510 0.020000
v -0.020490 -0.090490 0.015000
v -0.020490 -0.090490 0.020000
v -0.020490 -0.049510 0.020000
v -0.020490 -0.049510 0.015000
v 0.016038 -0.086038 0.020000
v 0.016038 -0.053962 0.020000
v -0.016038 -0.086038 0.020000
v -0.016038 -0.053962 0.020000
v 0.014624 -0.084624 0.029000
v 0.014624 -0.055376 0.029000
v -0.014624 -0.084624 0.029000
v -0.014624 -0.055376 0.029000
vn -0.0000 -1.0000 -0.0000
vn -0.0000 -0.0000 1.0000
vn 0.6903 -0.6903 0.2169
vn -0.0000 -0.9745 0.2242
vn -0.9071 -0.4210 -0.0000
vn 0.9004 -0.4351 -0.0000
vn 0.6903 0.6903 0.2169
vn 0.9745 -0.0000 0.2242
vn -0.6311 0.2911 0.7190
vn -0.9071 0.4210 -0.0000
vn 0.2667 0.9638 -0.0000
vn -0.9745 -0.0000 0.2242
vn -0.6903 0.6903 0.2169
vn -0.4210 0.9071 -0.0000
vn 0.1967 0.7747 0.6010
vn -0.9004 -0.4351 -0.0000
vn -0.6903 -0.6903 0.2169
vn -0.2667 0.9638 -0.0000
vn 0.9004 0.4351 -0.0000
vn -0.0000 -0.7809 0.6247
vn -0.0000 0.9745 0.2242
vn -0.2667 -0.9638 -0.0000
vn -0.4210 -0.9071 -0.0000
vn 0.4210 0.9071 -0.0000
vn 0.2667 -0.9638 -0.0000
vn -0.1922 0.7022 0.6856
vn -0.0000 1.0000 -0.0000
vn 0.9071 -0.4210 -0.0000
vn 0.9071 0.4210 -0.0000
vn -0.7366 -0.2683 0.6208
vn -0.7071 -0.0000 0.7071
vn 0.7809 -0.0000 0.6247
vn -0.0000 -0.7071 0.7071
vn -0.0000 0.7809 0.6247
vn -0.0000 0.7071 0.7071
vn 0.6311 0.2911 0.7190
vn -0.6311 -0.2911 0.7190
vn 0.1922 0.7022 0.6856
vn 0.7366 -0.2683 0.6208
vn 0.1967 -0.7747 0.6010
vn -0.1967 -0.7747 0.6010
vn 0.6311 -0.2911 0.7190
vn -0.1967 0.7747 0.6010
vn 0.7071 -0.0000 0.7071
vn 0.7366 0.2683 0.6208
vn -1.0000 -0.0000 -0.0000
vn -0.7366 0.2683 0.6208
vn -0.1922 -0.7022 0.6856
vn 0.1922 -0.7022 0.6856
vn -0.9004 0.4351 -0.0000
vn -0.7809 -0.0000 0.6247
vn 1.0000 -0.0000 -0.0000
vn 0.4210 -0.9071 -0.0000
vt 0.275590 0.380962
vt 0.275590 0.123045
vt 0.275590 0.380962
vt 0.275590 0.876955
vt 0.275590 0.619038
vt 0.275590 0.123045
vt 0.275590 0.619039
vt 0.275590 0.876955
vt 0.275590 0.583327
vt 0.275590 0.123045
vt 0.275590 0.416673
vt 0.275590 0.876955
vt 0.275590 0.437011
vt 0.275590 0.919042
vt 0.275590 0.876955
vt 0.275590 0.583327
vt 0.275590 0.562989
vt 0.275590 0.919042
vt 0.275590 0.416673
vt 0.275590 0.123045
vt 0.275590 0.080958
vt 0.275590 0.437011
vt 0.275590 0.080958
vt 0.275590 0.562989
vt 0.659091 0.640625
vt 0.659091 0.640625
vt 0.659091 0.640625
vt 0.659091 0.640625
vt 0.498104 0.640625
vt 0.447284 0.637913
vt 0.498104 0.640625
vt 0.506099 0.594782
vt 0.498104 0.640625
vt 0.564914 0.637913
vt 0.506099 0.681045
vt 0.498104 0.640625
vt 0.506099 0.582810
vt 0.670455 0.640625
vt 0.670455 0.640625
vt 0.506099 0.693017
vt 0.670455 0.640625
vt 0.581240 0.637913
vt 0.670455 0.640625
vt 0.430958 0.637913
vt 0.659091 0.375000
vt 0.659091 0.375000
vt 0.659091 0.375000
vt 0.659091 0.375000
vt 0.498104 0.375000
vt 0.447284 0.372288
vt 0.506099 0.329157
vt 0.498104 0.375000
vt 0.564914 0.372288
vt 0.498104 0.375000
vt 0.506099 0.415420
vt 0.498104 0.375000
vt 0.506099 0.317185
vt 0.670455 0.375000
vt 0.670455 0.375000
vt 0.506099 0.427392
vt 0.581240 0.372288
vt 0.670455 0.375000
vt 0.670455 0.375000
vt 0.430958 0.372288
vt 0.371187 0.158035
vt 0.383163 0.165633
vt 0.381832 0.166583
vt 0.381832 0.165633
vt 0.381832 0.833417
vt 0.383163 0.834367
vt 0.381832 0.834367
vt 0.371188 0.841966
vt 0.626739 0.165633
vt 0.626739 0.166583
vt 0.625408 0.165633
vt 0.637383 0.158035
vt 0.637383 0.841965
vt 0.626739 0.834367
vt 0.626739 0.833417
vt 0.625408 0.834367
vt 0.422085 0.833417
vt 0.423369 0.834033
vt 0.422085 0.834367
vt 0.413628 0.841965
vt 0.594943 0.841965
vt 0.585201 0.834033
vt 0.586485 0.833417
vt 0.586485 0.834367
vt 0.413628 0.158035
vt 0.422085 0.166583
vt 0.423369 0.165967
vt 0.422085 0.165633
vt 0.586485 0.165633
vt 0.586485 0.166583
vt 0.585201 0.165967
vt 0.594943 0.158035
vt 0.437539 0.886626
vt 0.445860 0.880460
vt 0.444971 0.879865
vt 0.444647 0.880776
vt 0.562710 0.880460
vt 0.563600 0.879865
vt 0.563923 0.880776
vt 0.571031 0.886626
vt 0.444971 0.120135
vt 0.445860 0.119540
vt 0.444647 0.119224
vt 0.437539 0.113374
vt 0.571031 0.113374
vt 0.563600 0.120135
vt 0.562710 0.119540
vt 0.563924 0.119224
vt 0.663956 0.860934
vt 0.318779 0.619039
vt 0.318779 0.876955
vt 0.653312 0.853336
vt 0.329576 0.611103
vt 0.329576 0.611103
vt 0.653312 0.146664
vt 0.318779 0.619039
vt 0.663956 0.139066
vt 0.318779 0.123045
vt 0.355259 0.853336
vt 0.329576 0.869019
vt 0.329576 0.388897
vt 0.318779 0.380962
vt 0.318779 0.876955
vt 0.318779 0.380962
vt 0.318779 0.123045
vt 0.355259 0.146664
vt 0.329576 0.130981
vt 0.329576 0.388897
vt 0.318779 0.876955
vt 0.616055 0.860934
vt 0.318779 0.583327
vt 0.607598 0.853336
vt 0.329576 0.583327
vt 0.329576 0.416673
vt 0.400973 0.853336
vt 0.392516 0.860934
vt 0.318779 0.416673
vt 0.318779 0.876955
vt 0.329576 0.583327
vt 0.607598 0.146664
vt 0.318779 0.123045
vt 0.318779 0.583327
vt 0.616055 0.139066
vt 0.318779 0.123045
vt 0.392516 0.139066
vt 0.318779 0.416673
vt 0.400973 0.146664
vt 0.329576 0.416673
vt 0.329576 0.561634
vt 0.581667 0.895381
vt 0.318779 0.919042
vt 0.588774 0.901232
vt 0.318779 0.562989
vt 0.419796 0.901232
vt 0.318779 0.437011
vt 0.318779 0.919042
vt 0.329576 0.438366
vt 0.426904 0.895381
vt 0.318779 0.080958
vt 0.588774 0.098768
vt 0.318779 0.562989
vt 0.581667 0.104619
vt 0.329576 0.561634
vt 0.426904 0.104619
vt 0.329576 0.438366
vt 0.318779 0.080958
vt 0.419796 0.098768
vt 0.318779 0.437011
vt 0.506099 0.604055
vt 0.521872 0.640625
vt 0.506099 0.671772
vt 0.521872 0.640625
vt 0.521872 0.640625
vt 0.552269 0.637913
vt 0.521872 0.640625
vt 0.459929 0.637913
vt 0.506099 0.338430
vt 0.521872 0.375000
vt 0.506099 0.406147
vt 0.521872 0.375000
vt 0.521872 0.375000
vt 0.552269 0.372288
vt 0.459929 0.372288
vt 0.521872 0.375000
vt 0.275590 0.500000
vt 0.275590 0.500000
vt 0.329576 0.500000
vt 0.504285 0.910325
vt 0.318779 0.500000
vt 0.318779 0.500000
vt 0.504285 0.089675
vt 0.329576 0.500000
vt 0.504615 0.890429
vt 0.503956 0.890429
vt 0.504285 0.891356
vt 0.504285 0.898955
vt 0.504285 0.101045
vt 0.504615 0.109571
vt 0.503955 0.109571
vt 0.504285 0.108644
vt 0.557422 0.600277
vt 0.670455 0.678125
vt 0.659091 0.678125
vt 0.659091 0.678125
vt 0.670455 0.678125
vt 0.557422 0.675550
vt 0.659091 0.603125
vt 0.670455 0.603125
vt 0.454777 0.600277
vt 0.670455 0.678125
vt 0.454777 0.675550
vt 0.659091 0.678125
vt 0.498104 0.671687
vt 0.498104 0.609563
vt 0.546271 0.608454
vt 0.546271 0.667373
vt 0.498104 0.671687
vt 0.498104 0.609563
vt 0.465927 0.608454
vt 0.498104 0.671687
vt 0.498104 0.609563
vt 0.465927 0.667373
vt 0.521872 0.668948
vt 0.537634 0.614788
vt 0.521872 0.612302
vt 0.537634 0.661039
vt 0.521872 0.668948
vt 0.474564 0.614788
vt 0.521872 0.612302
vt 0.521872 0.668948
vt 0.521872 0.612302
vt 0.474564 0.661039
vt 0.557422 0.334652
vt 0.670455 0.412500
vt 0.659091 0.412500
vt 0.659091 0.412500
vt 0.557422 0.409925
vt 0.670455 0.412500
vt 0.659091 0.337500
vt 0.670455 0.337500
vt 0.454777 0.334652
vt 0.670455 0.412500
vt 0.454777 0.409925
vt 0.659091 0.412500
vt 0.498104 0.406062
vt 0.546271 0.342829
vt 0.498104 0.343938
vt 0.546271 0.401748
vt 0.498104 0.406062
vt 0.465927 0.342829
vt 0.498104 0.343938
vt 0.498104 0.343938
vt 0.498104 0.406062
vt 0.465927 0.401748
vt 0.521872 0.403323
vt 0.521872 0.346677
vt 0.537634 0.349163
vt 0.537634 0.395414
vt 0.521872 0.403323
vt 0.474564 0.349163
vt 0.521872 0.346677
vt 0.521872 0.346677
vt 0.521872 0.403323
vt 0.474564 0.395414
s 1
usemtl elevator_call_button_1
f 5/9/1 3/5/1 64/120/1 74/146/1
f 76/151/2 49/89/2 37/65/2 68/130/2
f 131/259/3 89/182/4 30/52/4 127/249/3
f 75/150/1 67/128/1 1/1/1 10/19/1
f 98/195/2 101/201/2 58/108/2 83/168/2
f 123/243/5 124/244/5 36/63/5 25/45/5
f 81/163/6 12/23/6 5/10/6 74/145/6
f 116/231/7 87/177/8 19/33/8 112/221/7
f 72/140/9 71/139/9 80/162/9 79/158/9
f 73/144/2 52/96/2 59/109/2 82/166/2
f 70/136/2 77/154/2 56/104/2 47/85/2
f 109/214/10 110/216/10 13/25/10 24/43/10
f 78/157/11 9/17/11 93/189/11 96/193/11
f 88/179/12 118/234/13 114/224/13 17/29/12
f 22/39/14 15/27/14 110/216/14 109/214/14
f 45/83/2 50/92/2 51/93/2 48/88/2
f 57/105/15 58/108/15 101/201/15 102/202/15
f 44/78/2 48/88/2 51/93/2 41/73/2
f 115/227/3 85/174/4 18/31/4 111/217/3
f 10/20/16 11/21/16 84/170/16 75/148/16
f 117/233/17 88/179/12 17/29/12 113/222/17
f 79/159/18 96/193/18 93/189/18 7/13/18
f 8/15/19 9/18/19 78/155/19 69/133/19
f 76/151/2 83/168/2 58/108/2 49/89/2
f 39/69/20 45/81/20 46/84/20 40/72/20
f 98/195/2 82/166/2 59/109/2 101/201/2
f 73/144/2 63/119/2 42/76/2 52/96/2
f 118/235/13 86/176/21 20/36/21 114/225/13
f 68/130/2 37/65/2 40/72/2 65/123/2
f 107/211/5 108/212/5 24/43/5 13/25/5
f 71/139/2 65/123/2 40/72/2 46/84/2
f 62/116/2 43/77/2 42/76/2 63/119/2
f 97/194/22 84/172/22 11/22/22 94/190/22
f 26/46/23 33/58/23 124/244/23 123/243/23
f 27/47/24 34/59/24 122/242/24 121/240/24
f 109/215/2 114/226/2 20/35/2 22/40/2
f 125/246/10 126/248/10 25/45/10 36/63/10
f 125/246/14 34/59/14 27/47/14 126/248/14
f 132/263/7 91/185/8 31/54/8 128/253/7
f 119/237/2 127/250/2 30/51/2 33/57/2
f 119/237/2 35/61/2 31/53/2 127/250/2
f 122/241/2 128/252/2 31/53/2 35/61/2
f 106/210/2 112/220/2 19/34/2 23/42/2
f 12/24/25 81/165/25 97/194/25 94/190/25
f 96/193/26 79/159/26 80/161/26 95/191/26
f 88/180/2 117/232/2 115/228/2 87/178/2
f 115/228/2 117/232/2 85/173/2
f 86/175/2 118/236/2 116/230/2
f 6/11/27 2/3/27 66/126/27 72/141/27
f 87/177/8 115/229/3 111/218/3 19/33/8
f 85/174/4 117/233/17 113/222/17 18/31/4
f 103/206/28 104/207/28 16/28/28 23/41/28
f 15/27/24 22/39/24 106/209/24 105/208/24
f 105/208/29 106/209/29 23/41/29 16/28/29
f 119/238/28 120/239/28 28/48/28 35/62/28
f 14/26/23 21/38/23 108/212/23 107/211/23
f 108/213/2 21/37/2 18/32/2 113/223/2
f 122/241/2 34/60/2 32/55/2 128/252/2
f 125/247/2 130/258/2 32/55/2 34/60/2
f 47/85/30 56/104/30 55/101/30 48/86/30
f 103/205/2 111/219/2 18/32/2 21/37/2
f 32/56/21 130/256/13 134/266/13 90/184/21
f 92/188/12 134/267/13 130/257/13 29/49/12
f 127/251/3 31/54/8 91/185/8 131/260/3
f 92/187/2 133/264/2 131/261/2 91/186/2
f 118/236/2 88/180/2 87/178/2 116/230/2
f 133/264/2 89/181/2 131/261/2
f 134/268/2 132/262/2 90/183/2
f 92/187/2 91/186/2 132/262/2 134/268/2
f 65/124/31 66/127/31 67/129/31 68/131/31
f 38/66/32 39/70/32 40/72/32 37/65/32
f 74/146/33 64/120/33 63/118/33 73/143/33
f 38/67/34 37/65/34 49/89/34 50/90/34
f 50/92/2 57/107/2 60/112/2 51/93/2
f 65/125/35 71/138/35 72/141/35 66/126/35
f 69/134/36 78/156/36 77/154/36 70/136/36
f 75/149/37 84/171/37 83/168/37 76/151/37
f 96/193/38 95/191/38 77/153/38 78/157/38
f 46/84/39 45/82/39 54/98/39 53/97/39
f 100/200/40 53/97/40 54/99/40 99/197/40
f 100/200/41 99/198/41 55/102/41 56/104/41
f 74/147/42 73/144/42 82/166/42 81/164/42
f 121/240/29 122/242/29 35/62/29 28/48/29
f 71/139/2 46/84/2 53/97/2 80/162/2
f 60/110/43 102/203/43 101/201/43 59/109/43
f 64/121/44 61/113/44 62/116/44 63/119/44
f 70/136/2 47/85/2 43/77/2 62/116/2
f 52/96/34 42/76/34 41/74/34 51/94/34
f 68/132/33 67/128/33 75/150/33 76/152/33
f 69/135/35 70/137/35 62/117/35 61/114/35
f 47/85/20 48/87/20 44/79/20 43/77/20
f 49/89/45 58/108/45 57/106/45 50/91/45
f 1/2/46 67/129/46 66/127/46 2/4/46
f 52/96/47 51/95/47 60/111/47 59/109/47
f 95/192/2 100/200/2 56/104/2 77/154/2
f 133/265/17 92/188/12 29/49/12 129/255/17
f 95/192/2 80/162/2 53/97/2 100/200/2
f 45/83/2 39/71/2 38/68/2 50/92/2
f 69/135/27 61/114/27 4/7/27 8/16/27
f 124/245/2 129/254/2 29/50/2 36/64/2
f 83/169/48 84/172/48 97/194/48 98/196/48
f 97/194/49 81/165/49 82/167/49 98/196/49
f 99/199/2 54/100/2 55/103/2
f 72/142/50 79/160/50 7/14/50 6/12/50
f 43/77/51 44/80/51 41/75/51 42/76/51
f 57/107/2 102/204/2 60/112/2
f 64/122/52 3/6/52 4/8/52 61/115/52
f 109/215/2 24/44/2 17/30/2 114/226/2
f 103/205/2 23/42/2 19/34/2 111/219/2
f 124/245/2 33/57/2 30/51/2 129/254/2
f 119/238/53 33/58/53 26/46/53 120/239/53
f 133/265/17 129/255/17 30/52/4 89/182/4
f 125/247/2 36/64/2 29/50/2 130/258/2
f 108/213/2 113/223/2 17/30/2 24/44/2
f 106/210/2 22/40/2 20/35/2 112/220/2
f 21/38/53 14/26/53 104/207/53 103/206/53
f 86/176/21 116/231/7 112/221/7 20/36/21
f 90/184/21 132/263/7 128/253/7 32/56/21
f 54/100/2 45/83/2 48/88/2 55/103/2
