# Blender 3.4.0
# www.blender.org
mtllib elevator_buttons_1.mtl
o elevator_buttons_1
v 0.132597 -0.250000 -0.000000
v -0.132597 -0.250000 0.000000
v 0.132597 0.250000 -0.000000
v -0.132597 0.250000 0.000000
v 0.127597 0.245000 0.015000
v 0.132597 0.250000 0.010000
v 0.132597 -0.250000 0.010000
v 0.127597 -0.245000 0.015000
v -0.132597 -0.250000 0.010000
v -0.127597 -0.245000 0.015000
v -0.132597 0.250000 0.010000
v -0.127597 0.245000 0.015000
v -0.022216 -0.141010 0.015000
v -0.000000 -0.163225 0.015000
v 0.022215 -0.141010 0.015000
v -0.000000 -0.118794 0.015000
v -0.022214 -0.141010 0.024628
v -0.000000 -0.163225 0.024628
v 0.022215 -0.141010 0.024628
v -0.000000 -0.118794 0.024628
v 0.015173 -0.156183 0.015000
v -0.015174 -0.156183 0.015000
v -0.015174 -0.125836 0.015000
v 0.015173 -0.125836 0.015000
v 0.015172 -0.156184 0.024628
v -0.015174 -0.156183 0.024628
v -0.015174 -0.125836 0.024628
v 0.015172 -0.125837 0.024628
v -0.087088 -0.141010 0.015000
v -0.070000 -0.158099 0.015000
v -0.052911 -0.141010 0.015000
v -0.070000 -0.123921 0.015000
v -0.087087 -0.141010 0.024628
v -0.070000 -0.158099 0.024628
v -0.052911 -0.141010 0.024628
v -0.070000 -0.123921 0.024628
v -0.058328 -0.152682 0.015000
v -0.081672 -0.152682 0.015000
v -0.081672 -0.129338 0.015000
v -0.058328 -0.129338 0.015000
v -0.058328 -0.152682 0.024628
v -0.081672 -0.152682 0.024628
v -0.081672 -0.129338 0.024628
v -0.058328 -0.129338 0.024628
v 0.052912 -0.141010 0.015000
v 0.070000 -0.158099 0.015000
v 0.087089 -0.141010 0.015000
v 0.070000 -0.123921 0.015000
v 0.052912 -0.141010 0.024628
v 0.070000 -0.158099 0.024628
v 0.087089 -0.141010 0.024628
v 0.070000 -0.123921 0.024628
v 0.081672 -0.152682 0.015000
v 0.058328 -0.152682 0.015000
v 0.058328 -0.129338 0.015000
v 0.081672 -0.129338 0.015000
v 0.081672 -0.152682 0.024628
v 0.058328 -0.152682 0.024628
v 0.058328 -0.129338 0.024628
v 0.081672 -0.129338 0.024628
v -0.087088 -0.094994 0.015000
v -0.070000 -0.112083 0.015000
v -0.052911 -0.094994 0.015000
v -0.070000 -0.077905 0.015000
v -0.087088 -0.094994 0.024628
v -0.070000 -0.112083 0.024628
v -0.052911 -0.094994 0.024628
v -0.070000 -0.077905 0.024628
v -0.058328 -0.106666 0.015000
v -0.081672 -0.106666 0.015000
v -0.081672 -0.083322 0.015000
v -0.058328 -0.083322 0.015000
v -0.058328 -0.106666 0.024628
v -0.081670 -0.106666 0.024628
v -0.081672 -0.083322 0.024628
v -0.058328 -0.083322 0.024628
v 0.052912 -0.094994 0.015000
v 0.070000 -0.112083 0.015000
v 0.087089 -0.094994 0.015000
v 0.070000 -0.077905 0.015000
v 0.052911 -0.094994 0.024628
v 0.070000 -0.112083 0.024628
v 0.087089 -0.094994 0.024628
v 0.070000 -0.077905 0.024628
v 0.081672 -0.106666 0.015000
v 0.058328 -0.106666 0.015000
v 0.058328 -0.083322 0.015000
v 0.081672 -0.083322 0.015000
v 0.081672 -0.106666 0.024628
v 0.058328 -0.106666 0.024628
v 0.058328 -0.083322 0.024628
v 0.081672 -0.083322 0.024628
v -0.087088 -0.050581 0.015000
v -0.070000 -0.067670 0.015000
v -0.052911 -0.050581 0.015000
v -0.070000 -0.033492 0.015000
v -0.087088 -0.050581 0.024628
v -0.070000 -0.067670 0.024628
v -0.052911 -0.050581 0.024628
v -0.070000 -0.033492 0.024628
v -0.058328 -0.062253 0.015000
v -0.081672 -0.062253 0.015000
v -0.081672 -0.038909 0.015000
v -0.058328 -0.038909 0.015000
v -0.058329 -0.062253 0.024628
v -0.081670 -0.062253 0.024628
v -0.081672 -0.038909 0.024628
v -0.058329 -0.038909 0.024628
v 0.052912 -0.050581 0.015000
v 0.070000 -0.067670 0.015000
v 0.087089 -0.050581 0.015000
v 0.070000 -0.033492 0.015000
v 0.052911 -0.050581 0.024628
v 0.070000 -0.067670 0.024628
v 0.087089 -0.050581 0.024628
v 0.070000 -0.033492 0.024628
v 0.081672 -0.062253 0.015000
v 0.058328 -0.062253 0.015000
v 0.058328 -0.038909 0.015000
v 0.081672 -0.038909 0.015000
v 0.081672 -0.062253 0.024628
v 0.058328 -0.062253 0.024628
v 0.058328 -0.038909 0.024628
v 0.081672 -0.038909 0.024628
v -0.058328 0.009338 0.024628
v -0.081672 0.009338 0.024628
v -0.081672 -0.014006 0.024628
v -0.058329 -0.014006 0.024628
v -0.058328 0.009338 0.015000
v -0.081672 0.009338 0.015000
v -0.081672 -0.014006 0.015000
v -0.058328 -0.014006 0.015000
v -0.070000 0.014755 0.024628
v -0.052911 -0.002334 0.024628
v -0.070000 -0.019423 0.024628
v -0.087087 -0.002334 0.024628
v -0.070000 0.014755 0.015000
v -0.052911 -0.002334 0.015000
v -0.070000 -0.019423 0.015000
v -0.087088 -0.002334 0.015000
v 0.015173 0.012840 0.024628
v 0.012132 0.009798 0.024628
v -0.015174 0.012840 0.024628
v -0.012132 0.009798 0.024628
v -0.015174 -0.017507 0.024628
v -0.012132 -0.014466 0.024628
v 0.015173 -0.017507 0.024628
v 0.012132 -0.014466 0.024628
v 0.015173 0.012840 0.015000
v -0.015174 0.012840 0.015000
v -0.015174 -0.017507 0.015000
v 0.015173 -0.017507 0.015000
v -0.000000 0.015429 0.024628
v -0.000000 0.019882 0.024628
v 0.022215 -0.002334 0.024628
v 0.017762 -0.002334 0.024628
v -0.000000 -0.024549 0.024628
v -0.000000 -0.020096 0.024628
v -0.017762 -0.002334 0.024628
v -0.022216 -0.002334 0.024628
v -0.000000 0.019882 0.015000
v 0.022215 -0.002334 0.015000
v -0.000000 -0.024549 0.015000
v -0.022216 -0.002334 0.015000
v 0.052912 -0.002334 0.015000
v 0.070000 -0.019423 0.015000
v 0.087089 -0.002334 0.015000
v 0.070000 0.014755 0.015000
v 0.052911 -0.002334 0.024628
v 0.070000 -0.019423 0.024628
v 0.087089 -0.002334 0.024628
v 0.070000 0.014755 0.024628
v 0.081672 -0.014006 0.015000
v 0.058328 -0.014006 0.015000
v 0.058328 0.009338 0.015000
v 0.081672 0.009338 0.015000
v 0.081672 -0.014006 0.024628
v 0.058328 -0.014006 0.024628
v 0.058328 0.009338 0.024628
v 0.081672 0.009338 0.024628
v -0.058328 0.159338 0.024628
v -0.081672 0.159338 0.024628
v -0.081672 0.135994 0.024628
v -0.058329 0.135994 0.024628
v -0.058328 0.159338 0.015000
v -0.081672 0.159338 0.015000
v -0.081672 0.135994 0.015000
v -0.058328 0.135994 0.015000
v -0.070000 0.164755 0.024628
v -0.052911 0.147666 0.024628
v -0.070000 0.130577 0.024628
v -0.087087 0.147666 0.024628
v -0.070000 0.164755 0.015000
v -0.052911 0.147666 0.015000
v -0.070000 0.130577 0.015000
v -0.087088 0.147666 0.015000
v 0.014006 0.161673 0.024628
v -0.014006 0.161673 0.024628
v -0.014006 0.133660 0.024628
v 0.014006 0.133660 0.024628
v 0.014006 0.161673 0.015000
v -0.014006 0.161673 0.015000
v -0.014006 0.133660 0.015000
v 0.014006 0.133660 0.015000
v 0.000000 0.168173 0.024628
v 0.020506 0.147666 0.024628
v 0.000000 0.127160 0.024628
v -0.020506 0.147666 0.024628
v 0.000000 0.168173 0.015000
v 0.020507 0.147666 0.015000
v 0.000000 0.127160 0.015000
v -0.020507 0.147666 0.015000
v 0.046075 0.147666 0.015000
v 0.070000 0.123742 0.015000
v 0.093924 0.147666 0.015000
v 0.070000 0.171591 0.015000
v 0.046075 0.147666 0.024628
v 0.050871 0.147666 0.024628
v 0.070000 0.128537 0.024628
v 0.070000 0.123742 0.024628
v 0.089129 0.147666 0.024628
v 0.093924 0.147666 0.024628
v 0.070000 0.171591 0.024628
v 0.070000 0.166795 0.024628
v 0.086341 0.131326 0.015000
v 0.053659 0.131326 0.015000
v 0.053659 0.164007 0.015000
v 0.086341 0.164007 0.015000
v 0.083065 0.134601 0.024628
v 0.086341 0.131326 0.024628
v 0.056935 0.134601 0.024628
v 0.053659 0.131326 0.024628
v 0.056935 0.160731 0.024628
v 0.053659 0.164007 0.024628
v 0.083065 0.160731 0.024628
v 0.086341 0.164007 0.024628
v 0.083065 0.134601 0.034628
v 0.070000 0.128537 0.034628
v 0.083065 0.160731 0.034628
v 0.089129 0.147666 0.034628
v 0.056935 0.134601 0.034628
v 0.050871 0.147666 0.034628
v 0.056935 0.160731 0.034628
v 0.070000 0.166795 0.034628
v -0.000000 0.015429 0.022128
v 0.012132 0.009798 0.022128
v -0.000000 -0.020096 0.022128
v -0.012132 -0.014466 0.022128
v -0.017762 -0.002334 0.022128
v 0.017762 -0.002334 0.022128
v 0.012132 -0.014466 0.022128
v -0.012132 0.009798 0.022128
vn -0.0000 1.0000 -0.0000
vn -0.0000 -0.0000 1.0000
vn -0.0000 -1.0000 -0.0000
vn -1.0000 -0.0000 -0.0000
vn 0.7071 -0.0000 0.7071
vn -0.0000 -0.7071 0.7071
vn -0.7071 -0.0000 0.7071
vn -0.0000 0.7071 0.7071
vn 1.0000 -0.0000 -0.0000
vn -0.7071 -0.7071 -0.0000
vn -1.0000 -0.0000 0.0001
vn -0.7071 0.7071 -0.0000
vn 1.0000 -0.0000 0.0001
vn 0.7071 0.7071 -0.0000
vn 0.7071 -0.7071 -0.0000
vt 0.036200 0.765193
vt 0.036200 0.000000
vt 0.036200 0.234807
vt 0.036200 0.000000
vt 0.036200 0.765193
vt 0.036200 1.000000
vt 0.036200 0.234807
vt 0.036200 1.000000
vt 0.940000 0.988950
vt 0.026279 0.010000
vt 0.026279 0.244807
vt 0.000000 0.765193
vt 0.000000 0.000000
vt 0.000000 0.234807
vt 0.000001 1.000000
vt 0.000000 0.765193
vt 0.000000 1.000000
vt 0.000000 0.234807
vt 0.000000 0.000000
vt 0.940000 0.011050
vt 0.026279 0.990000
vt 0.026279 0.244807
vt 0.000000 0.234807
vt 0.000000 0.000000
vt 0.000000 0.765193
vt 0.000000 1.000000
vt 0.020000 0.011050
vt 0.026279 0.755193
vt 0.026279 0.990000
vt 0.000000 0.234807
vt 0.000000 1.000000
vt 0.000000 0.000000
vt 0.000000 0.765193
vt 0.020000 0.988950
vt 0.026279 0.010000
vt 0.026279 0.755193
vt 0.998952 0.938105
vt 0.998952 0.978105
vt 0.998952 0.818105
vt 0.998952 0.858105
vt 0.998952 0.898105
vt 0.418760 0.217158
vt 0.971867 0.938105
vt 0.971867 0.978105
vt 0.475068 0.187292
vt 0.971868 0.818105
vt 0.531374 0.217158
vt 0.971868 0.858105
vt 0.475068 0.247023
vt 0.971867 0.898105
vt 0.998952 0.838105
vt 0.998952 0.958105
vt 0.998952 0.918105
vt 0.998952 0.878105
vt 0.513525 0.196759
vt 0.971868 0.838105
vt 0.436611 0.196759
vt 0.971867 0.958105
vt 0.436611 0.237556
vt 0.971868 0.918105
vt 0.513525 0.237556
vt 0.971868 0.878105
vt 0.998952 0.938105
vt 0.998952 0.978105
vt 0.998952 0.818105
vt 0.998952 0.858105
vt 0.998952 0.898105
vt 0.170274 0.219747
vt 0.971867 0.938105
vt 0.971867 0.978105
vt 0.230381 0.187865
vt 0.971868 0.818105
vt 0.290491 0.219747
vt 0.971868 0.858105
vt 0.230381 0.251629
vt 0.971868 0.898105
vt 0.998952 0.838105
vt 0.998952 0.958105
vt 0.998952 0.918105
vt 0.998952 0.878105
vt 0.271433 0.197972
vt 0.971868 0.838105
vt 0.189328 0.197972
vt 0.971868 0.958105
vt 0.189328 0.241523
vt 0.971867 0.918105
vt 0.271433 0.241523
vt 0.971868 0.878105
vt 0.998952 0.938105
vt 0.998952 0.978105
vt 0.998952 0.818105
vt 0.998952 0.858105
vt 0.998952 0.898105
vt 0.670267 0.219747
vt 0.971867 0.938105
vt 0.971867 0.978105
vt 0.730381 0.187865
vt 0.971868 0.818105
vt 0.790491 0.219747
vt 0.971868 0.858105
vt 0.730381 0.251629
vt 0.971867 0.898105
vt 0.998952 0.838105
vt 0.998952 0.958105
vt 0.998952 0.918105
vt 0.998952 0.878105
vt 0.771439 0.197972
vt 0.971868 0.838105
vt 0.689322 0.197972
vt 0.971868 0.958105
vt 0.689322 0.241523
vt 0.971867 0.918105
vt 0.771439 0.241523
vt 0.971868 0.878105
vt 0.998952 0.938105
vt 0.998952 0.978105
vt 0.998952 0.818105
vt 0.998952 0.858105
vt 0.998952 0.898105
vt 0.170274 0.310215
vt 0.971867 0.938105
vt 0.971868 0.978105
vt 0.230381 0.278333
vt 0.971868 0.818105
vt 0.290491 0.310215
vt 0.971868 0.858105
vt 0.230381 0.342097
vt 0.971868 0.898105
vt 0.998952 0.838105
vt 0.998952 0.958105
vt 0.998952 0.918105
vt 0.998952 0.878105
vt 0.271433 0.288439
vt 0.971868 0.838105
vt 0.189328 0.288439
vt 0.971868 0.958105
vt 0.189328 0.331991
vt 0.971868 0.918105
vt 0.271433 0.331991
vt 0.971868 0.878105
vt 0.998952 0.938105
vt 0.998952 0.978105
vt 0.998952 0.818105
vt 0.998952 0.858105
vt 0.998952 0.898105
vt 0.670267 0.309943
vt 0.971867 0.938105
vt 0.971868 0.978105
vt 0.730381 0.278061
vt 0.971868 0.818105
vt 0.790491 0.309943
vt 0.971868 0.858105
vt 0.730381 0.341825
vt 0.971868 0.898105
vt 0.998952 0.838105
vt 0.998952 0.958105
vt 0.998952 0.918105
vt 0.998952 0.878105
vt 0.771439 0.288167
vt 0.971868 0.838105
vt 0.689322 0.288167
vt 0.971868 0.958105
vt 0.689322 0.331719
vt 0.971867 0.918105
vt 0.771439 0.331719
vt 0.971868 0.878105
vt 0.998952 0.938105
vt 0.998952 0.978105
vt 0.998952 0.818105
vt 0.998952 0.858105
vt 0.998952 0.898105
vt 0.166290 0.400109
vt 0.971867 0.938105
vt 0.971867 0.978105
vt 0.226397 0.368227
vt 0.971868 0.818105
vt 0.286507 0.400109
vt 0.971868 0.858105
vt 0.226397 0.431991
vt 0.971867 0.898105
vt 0.998952 0.838105
vt 0.998952 0.958105
vt 0.998952 0.918105
vt 0.998952 0.878105
vt 0.267448 0.378333
vt 0.971868 0.838105
vt 0.185344 0.378333
vt 0.971868 0.958105
vt 0.185344 0.421885
vt 0.971867 0.918105
vt 0.267449 0.421885
vt 0.971867 0.878105
vt 0.998952 0.938105
vt 0.998952 0.978105
vt 0.998952 0.818105
vt 0.998952 0.858105
vt 0.998952 0.898105
vt 0.670677 0.400731
vt 0.971867 0.938105
vt 0.971867 0.978105
vt 0.730790 0.368849
vt 0.971868 0.818105
vt 0.790900 0.400731
vt 0.971868 0.858105
vt 0.730790 0.432613
vt 0.971868 0.898105
vt 0.998952 0.838105
vt 0.998952 0.958105
vt 0.998952 0.918105
vt 0.998952 0.878105
vt 0.771849 0.378955
vt 0.971868 0.838105
vt 0.689731 0.378955
vt 0.971868 0.958105
vt 0.689731 0.422506
vt 0.971867 0.918105
vt 0.771849 0.422506
vt 0.971868 0.878105
vt 0.971868 0.878105
vt 0.267874 0.514738
vt 0.185769 0.514738
vt 0.971867 0.918105
vt 0.185769 0.471187
vt 0.971867 0.958105
vt 0.267874 0.471187
vt 0.971868 0.838105
vt 0.998952 0.878105
vt 0.998952 0.918105
vt 0.998952 0.958105
vt 0.998952 0.838105
vt 0.226822 0.524844
vt 0.971867 0.898105
vt 0.971868 0.858105
vt 0.286932 0.492962
vt 0.226822 0.461080
vt 0.971868 0.818105
vt 0.971867 0.978105
vt 0.166715 0.492962
vt 0.971867 0.938105
vt 0.998952 0.898105
vt 0.998952 0.858105
vt 0.998952 0.818105
vt 0.998952 0.978105
vt 0.998952 0.938105
vt 0.554641 0.696041
vt 0.867141 0.935402
vt 0.856188 0.929351
vt 0.543688 0.696041
vt 0.554641 0.696041
vt 0.757859 0.935402
vt 0.445359 0.696041
vt 0.768812 0.929351
vt 0.543688 0.696041
vt 0.456312 0.696041
vt 0.445359 0.696041
vt 0.757859 0.875025
vt 0.768812 0.881077
vt 0.456312 0.696041
vt 0.445359 0.696041
vt 0.554641 0.696041
vt 0.867141 0.875025
vt 0.543688 0.696041
vt 0.856188 0.881077
vt 0.456312 0.696041
vt 0.554641 0.676887
vt 0.554641 0.676887
vt 0.445359 0.676887
vt 0.445359 0.676887
vt 0.445359 0.676887
vt 0.554641 0.676887
vt 0.812500 0.940553
vt 0.500000 0.696041
vt 0.812500 0.949412
vt 0.500000 0.696041
vt 0.500000 0.696041
vt 0.892500 0.905214
vt 0.876464 0.905214
vt 0.500000 0.696041
vt 0.500000 0.696041
vt 0.812500 0.861015
vt 0.812500 0.869875
vt 0.500000 0.696041
vt 0.748536 0.905214
vt 0.500000 0.696041
vt 0.500000 0.696041
vt 0.732500 0.905214
vt 0.500000 0.676887
vt 0.500000 0.676887
vt 0.500000 0.676887
vt 0.500000 0.676887
vt 0.998952 0.938105
vt 0.998952 0.978105
vt 0.998952 0.818105
vt 0.998952 0.858105
vt 0.998952 0.898105
vt 0.672267 0.493815
vt 0.971867 0.938105
vt 0.971867 0.978105
vt 0.732381 0.461933
vt 0.971868 0.818105
vt 0.792491 0.493815
vt 0.971868 0.858105
vt 0.732381 0.525697
vt 0.971867 0.898105
vt 0.998952 0.838105
vt 0.998952 0.958105
vt 0.998952 0.918105
vt 0.998952 0.878105
vt 0.773439 0.472039
vt 0.971868 0.838105
vt 0.691322 0.472039
vt 0.971867 0.958105
vt 0.691322 0.515591
vt 0.971867 0.918105
vt 0.773439 0.515591
vt 0.971868 0.878105
vt 0.971868 0.878105
vt 0.271531 0.821093
vt 0.184230 0.821094
vt 0.971867 0.918105
vt 0.184230 0.774785
vt 0.971867 0.958105
vt 0.271531 0.774785
vt 0.971868 0.838105
vt 0.998952 0.878105
vt 0.998952 0.918105
vt 0.998952 0.958105
vt 0.998952 0.838105
vt 0.227881 0.831839
vt 0.971867 0.898105
vt 0.971868 0.858105
vt 0.291795 0.797939
vt 0.227881 0.764039
vt 0.971868 0.818105
vt 0.971867 0.978105
vt 0.163970 0.797939
vt 0.971868 0.938105
vt 0.998952 0.898105
vt 0.998952 0.858105
vt 0.998952 0.818105
vt 0.998952 0.978105
vt 0.998952 0.938105
vt 0.971868 0.878105
vt 0.524312 0.815933
vt 0.439228 0.815933
vt 0.971868 0.918105
vt 0.439228 0.770806
vt 0.971868 0.958105
vt 0.524313 0.770806
vt 0.971867 0.838105
vt 0.998952 0.878105
vt 0.998952 0.918105
vt 0.998952 0.958105
vt 0.998952 0.838105
vt 0.481771 0.826405
vt 0.971868 0.898105
vt 0.971868 0.858105
vt 0.544055 0.793369
vt 0.481771 0.760334
vt 0.971868 0.818105
vt 0.971868 0.978105
vt 0.419483 0.793369
vt 0.971867 0.938105
vt 0.998952 0.898105
vt 0.998952 0.858105
vt 0.998952 0.818105
vt 0.998952 0.978105
vt 0.998952 0.938105
vt 0.500000 0.082634
vt 0.500000 0.082634
vt 0.500000 0.082634
vt 0.500000 0.082634
vt 0.500000 0.104866
vt 0.400000 0.093750
vt 0.420045 0.093750
vt 1.000000 0.375691
vt 0.500000 0.049576
vt 1.000000 0.375691
vt 0.500000 0.104866
vt 0.500000 0.038501
vt 0.579955 0.093750
vt 1.000000 0.375691
vt 0.600000 0.093750
vt 0.500000 0.104866
vt 0.500000 0.148999
vt 0.500000 0.104866
vt 0.500000 0.137924
vt 1.000000 0.375691
vt 0.568301 0.082634
vt 0.431699 0.082634
vt 0.431699 0.082634
vt 0.568301 0.082634
vt 0.431699 0.082634
vt 0.568301 0.082634
vt 0.554610 0.063579
vt 1.000000 0.342541
vt 1.000000 0.408840
vt 0.568301 0.104866
vt 0.431699 0.104866
vt 0.568301 0.056015
vt 0.445390 0.063579
vt 1.000000 0.342541
vt 0.431699 0.104866
vt 0.431699 0.056015
vt 0.445390 0.123921
vt 1.000000 0.408840
vt 1.000000 0.342541
vt 0.568301 0.104866
vt 0.431699 0.104866
vt 0.431699 0.131485
vt 0.554610 0.123921
vt 1.000000 0.408840
vt 0.568301 0.131485
vt 0.568301 0.104866
vt 0.781828 0.772515
vt 0.960000 0.342541
vt 0.960000 0.408840
vt 0.732881 0.760467
vt 0.960000 0.375691
vt 0.781828 0.824438
vt 0.960000 0.408840
vt 0.804544 0.798477
vt 0.960000 0.375691
vt 0.683933 0.772515
vt 0.960000 0.342541
vt 0.661213 0.798477
vt 0.960000 0.375691
vt 0.683933 0.824438
vt 0.960000 0.408840
vt 0.960000 0.342541
vt 0.732881 0.836486
vt 0.960000 0.375691
vt 0.485837 0.519286
vt 0.500000 0.691067
vt 0.521460 0.510517
vt 0.543688 0.691067
vt 0.485837 0.463960
vt 0.500000 0.691067
vt 0.450214 0.472729
vt 0.456312 0.691067
vt 0.433679 0.491623
vt 0.500000 0.691067
vt 0.537993 0.491623
vt 0.500000 0.691067
vt 0.543688 0.691067
vt 0.521460 0.472728
vt 0.456312 0.691067
vt 0.450214 0.510517
vt 0.543688 0.691067
vt 0.456312 0.691067
s 1
usemtl elevator_buttons_1
f 4/7/1 11/30/1 6/12/1 3/5/1
f 8/20/2 5/9/2 12/34/2 10/27/2
f 1/1/3 7/16/3 9/23/3 2/3/3
f 2/4/4 9/24/4 11/31/4 4/8/4
f 6/13/5 5/10/5 8/21/5 7/17/5
f 7/18/6 8/22/6 10/28/6 9/25/6
f 9/26/7 10/29/7 12/35/7 11/32/7
f 11/33/8 12/36/8 5/11/8 6/14/8
f 3/6/9 6/15/9 7/19/9 1/2/9
f 14/38/3 18/44/3 26/58/10 22/52/10
f 13/37/11 17/43/11 27/60/12 23/53/12
f 15/40/13 24/54/14 28/62/14 19/48/13
f 18/45/2 25/55/2 19/47/2 28/61/2 20/49/2 27/59/2 17/42/2 26/57/2
f 14/39/3 21/51/15 25/56/15 18/46/3
f 23/53/12 27/60/12 20/50/1 16/41/1
f 22/52/10 26/58/10 17/43/11 13/37/11
f 16/41/1 20/50/1 28/62/14 24/54/14
f 15/40/13 19/48/13 25/56/15 21/51/15
f 30/64/3 34/70/3 42/84/10 38/78/10
f 29/63/11 33/69/11 43/86/12 39/79/12
f 31/66/9 40/80/14 44/88/14 35/74/9
f 34/71/2 41/81/2 35/73/2 44/87/2 36/75/2 43/85/2 33/68/2 42/83/2
f 30/65/3 37/77/15 41/82/15 34/72/3
f 39/79/12 43/86/12 36/76/1 32/67/1
f 38/78/10 42/84/10 33/69/11 29/63/11
f 32/67/1 36/76/1 44/88/14 40/80/14
f 31/66/9 35/74/9 41/82/15 37/77/15
f 46/90/3 50/96/3 58/110/10 54/104/10
f 45/89/4 49/95/4 59/112/12 55/105/12
f 47/92/9 56/106/14 60/114/14 51/100/9
f 50/97/2 57/107/2 51/99/2 60/113/2 52/101/2 59/111/2 49/94/2 58/109/2
f 46/91/3 53/103/15 57/108/15 50/98/3
f 55/105/12 59/112/12 52/102/1 48/93/1
f 54/104/10 58/110/10 49/95/4 45/89/4
f 48/93/1 52/102/1 60/114/14 56/106/14
f 47/92/9 51/100/9 57/108/15 53/103/15
f 62/116/3 66/122/3 74/136/10 70/130/10
f 61/115/4 65/121/4 75/138/12 71/131/12
f 63/118/9 72/132/14 76/140/14 67/126/9
f 66/123/2 73/133/2 67/125/2 76/139/2 68/127/2 75/137/2 65/120/2 74/135/2
f 62/117/3 69/129/15 73/134/15 66/124/3
f 71/131/12 75/138/12 68/128/1 64/119/1
f 70/130/10 74/136/10 65/121/4 61/115/4
f 64/119/1 68/128/1 76/140/14 72/132/14
f 63/118/9 67/126/9 73/134/15 69/129/15
f 78/142/3 82/148/3 90/162/10 86/156/10
f 77/141/4 81/147/4 91/164/12 87/157/12
f 79/144/9 88/158/14 92/166/14 83/152/9
f 82/149/2 89/159/2 83/151/2 92/165/2 84/153/2 91/163/2 81/146/2 90/161/2
f 78/143/3 85/155/15 89/160/15 82/150/3
f 87/157/12 91/164/12 84/154/1 80/145/1
f 86/156/10 90/162/10 81/147/4 77/141/4
f 80/145/1 84/154/1 92/166/14 88/158/14
f 79/144/9 83/152/9 89/160/15 85/155/15
f 94/168/3 98/174/3 106/188/10 102/182/10
f 93/167/4 97/173/4 107/190/12 103/183/12
f 95/170/13 104/184/14 108/192/14 99/178/13
f 98/175/2 105/185/2 99/177/2 108/191/2 100/179/2 107/189/2 97/172/2 106/187/2
f 94/169/3 101/181/15 105/186/15 98/176/3
f 103/183/12 107/190/12 100/180/1 96/171/1
f 102/182/10 106/188/10 97/173/4 93/167/4
f 96/171/1 100/180/1 108/192/14 104/184/14
f 95/170/13 99/178/13 105/186/15 101/181/15
f 110/194/3 114/200/3 122/214/10 118/208/10
f 109/193/4 113/199/4 123/216/12 119/209/12
f 111/196/9 120/210/14 124/218/14 115/204/9
f 114/201/2 121/211/2 115/203/2 124/217/2 116/205/2 123/215/2 113/198/2 122/213/2
f 110/195/3 117/207/15 121/212/15 114/202/3
f 119/209/12 123/216/12 116/206/1 112/197/1
f 118/208/10 122/214/10 113/199/4 109/193/4
f 112/197/1 116/206/1 124/218/14 120/210/14
f 111/196/9 115/204/9 121/212/15 117/207/15
f 138/241/9 134/233/9 128/226/15 132/230/15
f 137/240/1 133/232/1 125/219/14 129/227/14
f 131/229/10 127/224/10 136/239/11 140/244/11
f 138/241/9 129/227/14 125/219/14 134/233/9
f 135/235/2 128/225/2 134/234/2 125/220/2 133/231/2 126/221/2 136/238/2 127/223/2
f 139/242/3 132/230/15 128/226/15 135/236/3
f 139/243/3 135/237/3 127/224/10 131/229/10
f 140/244/11 136/239/11 126/222/12 130/228/12
f 130/228/12 126/222/12 133/232/1 137/240/1
f 153/271/2 142/247/2 141/246/2 154/273/2
f 162/288/9 155/275/9 147/259/15 152/269/15
f 146/257/2 159/283/2 160/286/2 145/256/2
f 156/277/2 148/263/2 147/261/2 155/276/2
f 161/287/1 154/274/1 141/245/14 149/265/14
f 151/268/10 145/255/10 160/285/4 164/290/4
f 162/288/9 149/265/14 141/245/14 155/275/9
f 158/282/1 148/262/12 251/445/12 247/438/1
f 163/289/3 152/270/15 147/260/15 157/279/3
f 142/247/2 156/277/2 155/276/2 141/246/2
f 148/263/2 158/281/2 157/280/2 147/261/2
f 163/289/3 157/279/3 145/255/10 151/268/10
f 158/281/2 146/257/2 145/256/2 157/280/2
f 164/290/4 160/285/4 143/249/12 150/266/12
f 159/283/2 144/252/2 143/250/2 160/286/2
f 144/252/2 153/271/2 154/273/2 143/250/2
f 150/267/12 143/251/12 154/274/1 161/287/1
f 166/292/3 170/298/3 178/312/10 174/306/10
f 165/291/4 169/297/4 179/314/12 175/307/12
f 167/294/9 176/308/14 180/316/14 171/302/9
f 170/299/2 177/309/2 171/301/2 180/315/2 172/303/2 179/313/2 169/296/2 178/311/2
f 166/293/3 173/305/15 177/310/15 170/300/3
f 175/307/12 179/314/12 172/304/1 168/295/1
f 174/306/10 178/312/10 169/297/4 165/291/4
f 168/295/1 172/304/1 180/316/14 176/308/14
f 167/294/9 171/302/9 177/310/15 173/305/15
f 194/339/9 190/331/9 184/324/15 188/328/15
f 193/338/1 189/330/1 181/317/14 185/325/14
f 187/327/10 183/322/10 192/337/11 196/342/11
f 194/339/9 185/325/14 181/317/14 190/331/9
f 191/333/2 184/323/2 190/332/2 181/318/2 189/329/2 182/319/2 192/336/2 183/321/2
f 195/340/3 188/328/15 184/324/15 191/334/3
f 195/341/3 191/335/3 183/322/10 187/327/10
f 196/342/11 192/337/11 182/320/12 186/326/12
f 186/326/12 182/320/12 189/330/1 193/338/1
f 210/365/9 206/357/9 200/350/15 204/354/15
f 209/364/1 205/356/1 197/343/14 201/351/14
f 203/353/10 199/348/10 208/363/4 212/368/4
f 210/365/9 201/351/14 197/343/14 206/357/9
f 207/359/2 200/349/2 206/358/2 197/344/2 205/355/2 198/345/2 208/362/2 199/347/2
f 211/366/3 204/354/15 200/350/15 207/360/3
f 211/367/3 207/361/3 199/348/10 203/353/10
f 212/368/4 208/363/4 198/346/12 202/352/12
f 202/352/12 198/346/12 205/356/1 209/364/1
f 214/370/3 220/379/3 232/403/10 226/391/10
f 213/369/4 217/373/4 234/408/12 227/392/12
f 215/371/9 228/394/14 236/414/14 222/384/9
f 235/412/14 224/388/1 244/432/1 239/421/14
f 214/370/3 225/389/15 230/398/15 220/379/3
f 227/393/12 234/409/12 223/386/1 216/372/1
f 221/381/2 229/395/2 230/400/2 222/383/2
f 235/411/2 221/381/2 222/383/2 236/413/2
f 219/377/2 231/401/2 232/404/2 220/380/2
f 218/375/2 233/405/2 234/410/2 217/374/2
f 226/391/10 232/403/10 217/373/4 213/369/4
f 233/405/2 224/387/2 223/385/2 234/410/2
f 231/401/2 218/375/2 217/374/2 232/404/2
f 224/387/2 235/411/2 236/413/2 223/385/2
f 216/372/1 223/386/1 236/414/14 228/394/14
f 215/371/9 222/384/9 230/399/15 225/390/15
f 229/395/2 219/377/2 220/380/2 230/400/2
f 238/418/2 237/415/2 240/422/2 239/420/2 244/431/2 243/428/2 242/426/2 241/424/2
f 233/406/12 218/376/4 242/427/4 243/429/12
f 231/402/10 219/378/3 238/419/3 241/425/10
f 224/388/1 233/407/12 243/430/12 244/432/1
f 229/396/15 221/382/9 240/423/9 237/416/15
f 221/382/9 235/412/14 239/421/14 240/423/9
f 219/378/3 229/397/15 237/417/15 238/419/3
f 218/376/4 231/402/10 241/425/10 242/427/4
f 247/437/2 251/446/2 250/443/2 246/435/2 245/433/2 252/448/2 249/441/2 248/439/2
f 148/264/12 156/278/4 250/444/4 251/447/12
f 142/248/10 153/272/3 245/434/3 246/436/10
f 144/253/15 159/284/9 249/442/9 252/449/15
f 156/278/4 142/248/10 246/436/10 250/444/4
f 159/284/9 146/258/14 248/440/14 249/442/9
f 153/272/3 144/254/15 252/450/15 245/434/3
f 146/258/14 158/282/1 247/438/1 248/440/14
