# Blender 3.4.0
# www.blender.org
mtllib elevator_screen_1.mtl
o elevator_screen_1
v 0.313200 0.100000 0.000000
v 0.336732 0.077253 0.000000
v 0.336732 -0.079737 -0.000000
v 0.315707 -0.100000 -0.000000
v -0.356730 -0.074618 -0.000000
v -0.335249 -0.100000 -0.000000
v -0.335348 0.100000 0.000000
v -0.356730 0.073556 0.000000
v 0.336732 -0.079737 0.014000
v 0.336732 0.077253 0.014000
v 0.313200 0.100000 0.014000
v -0.335249 -0.100000 0.014000
v 0.315707 -0.100000 0.014000
v -0.356730 0.073556 0.014000
v -0.356730 -0.074618 0.014000
v -0.335348 0.100000 0.014000
v -0.314999 -0.084000 0.014000
v -0.314999 0.084000 0.014000
v 0.295001 -0.084000 0.014000
v 0.295001 0.084000 0.014000
v 0.294999 -0.045000 0.053000
v 0.294999 -0.035000 0.053000
v 0.294999 -0.045000 0.042000
v 0.294999 -0.035000 0.042000
v 0.304999 -0.045000 0.053000
v 0.304999 -0.035000 0.053000
v 0.304999 -0.045000 0.042000
v 0.304999 -0.035000 0.042000
v 0.315606 -0.045000 0.048606
v 0.315606 -0.035000 0.048606
v 0.308535 -0.045000 0.040535
v 0.308535 -0.035000 0.040535
v 0.319999 -0.045000 0.037000
v 0.319999 -0.035000 0.037000
v 0.309999 -0.045000 0.037000
v 0.309999 -0.035000 0.037000
v 0.294999 0.035000 0.053000
v 0.294999 0.045000 0.053000
v 0.294999 0.035000 0.042000
v 0.294999 0.045000 0.042000
v 0.304999 0.035000 0.053000
v 0.304999 0.045000 0.053000
v 0.304999 0.035000 0.042000
v 0.304999 0.045000 0.042000
v 0.315606 0.035000 0.048606
v 0.315606 0.045000 0.048606
v 0.308535 0.035000 0.040535
v 0.308535 0.045000 0.040535
v 0.319999 0.035000 0.037000
v 0.319999 0.045000 0.037000
v 0.309999 0.035000 0.037000
v 0.309999 0.045000 0.037000
v 0.294999 0.055000 0.053000
v 0.294999 0.065000 0.053000
v 0.294999 0.055000 0.042000
v 0.294999 0.065000 0.042000
v 0.304999 0.055000 0.053000
v 0.304999 0.065000 0.053000
v 0.304999 0.055000 0.042000
v 0.304999 0.065000 0.042000
v 0.315606 0.055000 0.048606
v 0.315606 0.065000 0.048606
v 0.308535 0.055000 0.040535
v 0.308535 0.065000 0.040535
v 0.319999 0.055000 0.037000
v 0.319999 0.065000 0.037000
v 0.309999 0.055000 0.037000
v 0.309999 0.065000 0.037000
v 0.294999 -0.065000 0.053000
v 0.294999 -0.055000 0.053000
v 0.294999 -0.065000 0.042000
v 0.294999 -0.055000 0.042000
v 0.304999 -0.065000 0.053000
v 0.304999 -0.055000 0.053000
v 0.304999 -0.065000 0.042000
v 0.304999 -0.055000 0.042000
v 0.315606 -0.065000 0.048606
v 0.315606 -0.055000 0.048606
v 0.308535 -0.065000 0.040535
v 0.308535 -0.055000 0.040535
v 0.319999 -0.065000 0.037000
v 0.319999 -0.055000 0.037000
v 0.309999 -0.065000 0.037000
v 0.309999 -0.055000 0.037000
v 0.295001 0.084000 0.058000
v -0.314999 0.084000 0.036000
v -0.314999 0.084000 0.058000
v -0.314999 -0.084000 0.058000
v 0.295001 -0.084000 0.036000
v 0.295001 0.084000 0.036000
v -0.314999 -0.084000 0.036000
v -0.294999 -0.064000 0.058000
v -0.294999 0.064000 0.058000
v 0.275001 -0.064000 0.058000
v 0.275001 0.064000 0.058000
v 0.295001 -0.084000 0.058000
v -0.285999 -0.055000 0.048000
v -0.285999 0.055000 0.048000
v 0.266001 0.055000 0.048000
v 0.266001 -0.055000 0.048000
v 0.319999 -0.045000 0.014000
v 0.319999 -0.035000 0.014000
v 0.309999 -0.045000 0.014000
v 0.309999 -0.035000 0.014000
v 0.319999 0.035000 0.014000
v 0.319999 0.045000 0.014000
v 0.309999 0.035000 0.014000
v 0.309999 0.045000 0.014000
v 0.319999 0.055000 0.014000
v 0.319999 0.065000 0.014000
v 0.309999 0.055000 0.014000
v 0.309999 0.065000 0.014000
v 0.319999 -0.065000 0.014000
v 0.319999 -0.055000 0.014000
v 0.309999 -0.065000 0.014000
v 0.309999 -0.055000 0.014000
v -0.314998 -0.045000 0.053000
v -0.314998 -0.035000 0.053000
v -0.314998 -0.045000 0.042000
v -0.314998 -0.035000 0.042000
v -0.324998 -0.045000 0.053000
v -0.324998 -0.035000 0.053000
v -0.324998 -0.045000 0.042000
v -0.324998 -0.035000 0.042000
v -0.335604 -0.045000 0.048606
v -0.335604 -0.035000 0.048606
v -0.328533 -0.045000 0.040535
v -0.328533 -0.035000 0.040535
v -0.339997 -0.045000 0.037000
v -0.339997 -0.035000 0.037000
v -0.329997 -0.045000 0.037000
v -0.329997 -0.035000 0.037000
v -0.314998 0.035000 0.053000
v -0.314998 0.045000 0.053000
v -0.314998 0.035000 0.042000
v -0.314998 0.045000 0.042000
v -0.324998 0.035000 0.053000
v -0.324998 0.045000 0.053000
v -0.324998 0.035000 0.042000
v -0.324998 0.045000 0.042000
v -0.335604 0.035000 0.048606
v -0.335604 0.045000 0.048606
v -0.328533 0.035000 0.040535
v -0.328533 0.045000 0.040535
v -0.339997 0.035000 0.037000
v -0.339997 0.045000 0.037000
v -0.329997 0.035000 0.037000
v -0.329997 0.045000 0.037000
v -0.314998 0.055000 0.053000
v -0.314998 0.065000 0.053000
v -0.314998 0.055000 0.042000
v -0.314998 0.065000 0.042000
v -0.324998 0.055000 0.053000
v -0.324998 0.065000 0.053000
v -0.324998 0.055000 0.042000
v -0.324998 0.065000 0.042000
v -0.335604 0.055000 0.048606
v -0.335604 0.065000 0.048606
v -0.328533 0.055000 0.040535
v -0.328533 0.065000 0.040535
v -0.339997 0.055000 0.037000
v -0.339997 0.065000 0.037000
v -0.329997 0.055000 0.037000
v -0.329997 0.065000 0.037000
v -0.314998 -0.065000 0.053000
v -0.314998 -0.055000 0.053000
v -0.314998 -0.065000 0.042000
v -0.314998 -0.055000 0.042000
v -0.324998 -0.065000 0.053000
v -0.324998 -0.055000 0.053000
v -0.324998 -0.065000 0.042000
v -0.324998 -0.055000 0.042000
v -0.335604 -0.065000 0.048606
v -0.335604 -0.055000 0.048606
v -0.328533 -0.065000 0.040535
v -0.328533 -0.055000 0.040535
v -0.339997 -0.065000 0.037000
v -0.339997 -0.055000 0.037000
v -0.329997 -0.065000 0.037000
v -0.329997 -0.055000 0.037000
v -0.339997 -0.045000 0.014000
v -0.339997 -0.035000 0.014000
v -0.329997 -0.045000 0.014000
v -0.329997 -0.035000 0.014000
v -0.339997 0.035000 0.014000
v -0.339997 0.045000 0.014000
v -0.329997 0.035000 0.014000
v -0.329997 0.045000 0.014000
v -0.339997 0.055000 0.014000
v -0.339997 0.065000 0.014000
v -0.329997 0.055000 0.014000
v -0.329997 0.065000 0.014000
v -0.339997 -0.065000 0.014000
v -0.339997 -0.055000 0.014000
v -0.329997 -0.065000 0.014000
v -0.329997 -0.055000 0.014000
vn -0.0000 1.0000 -0.0000
vn -1.0000 -0.0000 -0.0000
vn -0.0000 -1.0000 -0.0000
vn -0.7633 -0.6460 -0.0000
vn 1.0000 -0.0000 -0.0000
vn -0.0000 -0.0000 1.0000
vn 0.6950 0.7190 -0.0000
vn 0.6939 -0.7200 -0.0000
vn -0.7776 0.6287 -0.0000
vn -0.0000 -0.0000 -1.0000
vn 0.9352 -0.0000 0.3540
vn -0.3827 -0.0000 -0.9239
vn 0.3827 -0.0000 0.9239
vn -0.9239 -0.0000 -0.3826
vn -0.0000 -0.7433 0.6690
vn -0.7433 -0.0000 0.6690
vn -0.0000 0.7433 0.6690
vn 0.7433 -0.0000 0.6690
vn -0.9352 -0.0000 0.3540
vn 0.3827 -0.0000 -0.9239
vn -0.3827 -0.0000 0.9239
vn 0.9239 -0.0000 -0.3826
vt 0.915012 0.000000
vt 0.940860 0.000000
vt 0.592690 0.000000
vt 0.972339 0.000000
vt 0.382678 0.000000
vt 0.972258 0.000000
vt 0.918365 0.000000
vt 0.944133 0.000000
vt 0.389525 0.000000
vt 0.369736 0.000000
vt 0.047559 0.000000
vt 0.335782 0.000000
vt 0.047425 0.000000
vt 0.642740 0.000000
vt 0.587744 0.000000
vt 0.607365 0.000000
vt 0.382678 0.071917
vt 0.946064 0.106491
vt 0.972258 0.071917
vt 0.592690 0.071917
vt 0.946967 0.878975
vt 0.972339 0.071917
vt 0.915012 0.071917
vt 0.916881 0.990384
vt 0.940860 0.071917
vt 0.047559 0.071917
vt 0.335782 0.071917
vt 0.067374 0.009692
vt 0.918365 0.071917
vt 0.918766 0.008301
vt 0.944133 0.071917
vt 0.587744 0.071917
vt 0.041222 0.864448
vt 0.607365 0.071917
vt 0.389525 0.071917
vt 0.369736 0.071917
vt 0.040251 0.133591
vt 0.047425 0.071917
vt 0.068942 0.992656
vt 0.642740 0.071917
vt 0.609375 0.200000
vt 0.098958 0.200000
vt 0.395833 0.200000
vt 0.098958 0.200000
vt 0.609375 0.200000
vt 0.890625 0.200000
vt 0.395833 0.200000
vt 0.890625 0.200000
vt 0.755208 0.140000
vt 0.890625 0.320000
vt 0.755208 0.200000
vt 0.890625 0.320000
vt 0.755208 0.140000
vt 0.869792 0.320000
vt 0.755208 0.200000
vt 0.869792 0.320000
vt 0.776042 0.140000
vt 0.890625 0.240000
vt 0.890625 0.240000
vt 0.776042 0.200000
vt 0.776042 0.140000
vt 0.869792 0.240000
vt 0.869792 0.240000
vt 0.776042 0.200000
vt 0.812500 0.200000
vt 0.796875 0.140000
vt 0.880208 0.160000
vt 0.812500 0.140000
vt 0.796875 0.200000
vt 0.880208 0.160000
vt 0.781250 0.140000
vt 0.864583 0.220000
vt 0.796875 0.200000
vt 0.781250 0.200000
vt 0.864583 0.220000
vt 0.796875 0.140000
vt 0.859375 0.140000
vt 0.786458 0.200000
vt 0.859375 0.140000
vt 0.786458 0.140000
vt 0.786458 0.200000
vt 0.859375 0.200000
vt 0.786458 0.140000
vt 0.859375 0.200000
vt 0.755208 0.140000
vt 0.890625 0.320000
vt 0.755208 0.200000
vt 0.890625 0.320000
vt 0.755208 0.140000
vt 0.869792 0.320000
vt 0.755208 0.200000
vt 0.869792 0.320000
vt 0.776042 0.140000
vt 0.890625 0.240000
vt 0.890625 0.240000
vt 0.776042 0.200000
vt 0.776042 0.140000
vt 0.869792 0.240000
vt 0.869792 0.240000
vt 0.776042 0.200000
vt 0.812500 0.200000
vt 0.796875 0.140000
vt 0.880208 0.160000
vt 0.812500 0.140000
vt 0.796875 0.200000
vt 0.880208 0.160000
vt 0.781250 0.140000
vt 0.864583 0.220000
vt 0.796875 0.200000
vt 0.781250 0.200000
vt 0.864583 0.220000
vt 0.796875 0.140000
vt 0.859375 0.140000
vt 0.786458 0.200000
vt 0.859375 0.140000
vt 0.786458 0.140000
vt 0.786458 0.200000
vt 0.859375 0.200000
vt 0.786458 0.140000
vt 0.859375 0.200000
vt 0.755208 0.140000
vt 0.890625 0.320000
vt 0.755208 0.200000
vt 0.890625 0.320000
vt 0.755208 0.140000
vt 0.869792 0.320000
vt 0.755208 0.200000
vt 0.869792 0.320000
vt 0.776042 0.140000
vt 0.890625 0.240000
vt 0.890625 0.240000
vt 0.776042 0.200000
vt 0.776042 0.140000
vt 0.869792 0.240000
vt 0.869792 0.240000
vt 0.776042 0.200000
vt 0.812500 0.200000
vt 0.796875 0.140000
vt 0.880208 0.160000
vt 0.812500 0.140000
vt 0.796875 0.200000
vt 0.880208 0.160000
vt 0.781250 0.140000
vt 0.864583 0.220000
vt 0.796875 0.200000
vt 0.781250 0.200000
vt 0.864583 0.220000
vt 0.796875 0.140000
vt 0.859375 0.140000
vt 0.786458 0.200000
vt 0.859375 0.140000
vt 0.786458 0.140000
vt 0.786458 0.200000
vt 0.859375 0.200000
vt 0.786458 0.140000
vt 0.859375 0.200000
vt 0.755208 0.140000
vt 0.890625 0.320000
vt 0.755208 0.200000
vt 0.890625 0.320000
vt 0.755208 0.140000
vt 0.869792 0.320000
vt 0.755208 0.200000
vt 0.869792 0.320000
vt 0.776042 0.140000
vt 0.890625 0.240000
vt 0.890625 0.240000
vt 0.776042 0.200000
vt 0.776042 0.140000
vt 0.869792 0.240000
vt 0.869792 0.240000
vt 0.776042 0.200000
vt 0.812500 0.200000
vt 0.796875 0.140000
vt 0.880208 0.160000
vt 0.812500 0.140000
vt 0.796875 0.200000
vt 0.880208 0.160000
vt 0.781250 0.140000
vt 0.864583 0.220000
vt 0.796875 0.200000
vt 0.781250 0.200000
vt 0.864583 0.220000
vt 0.796875 0.140000
vt 0.859375 0.140000
vt 0.786458 0.200000
vt 0.859375 0.140000
vt 0.786458 0.140000
vt 0.786458 0.200000
vt 0.859375 0.200000
vt 0.786458 0.140000
vt 0.859375 0.200000
vt 0.890625 0.100000
vt 0.395833 0.100000
vt 0.895833 0.920000
vt 0.395833 0.100000
vt 0.098958 0.100000
vt 0.098958 0.200000
vt 0.395833 0.200000
vt 0.098958 0.100000
vt 0.395833 0.100000
vt 0.093750 0.920000
vt 0.098958 0.100000
vt 0.609375 0.100000
vt 0.093750 0.100000
vt 0.609375 0.100000
vt 0.890625 0.100000
vt 0.890625 0.200000
vt 0.609375 0.200000
vt 0.395833 0.100000
vt 0.890625 0.100000
vt 0.890625 0.200000
vt 0.395833 0.200000
vt 0.609375 0.100000
vt 0.098958 0.100000
vt 0.098958 0.200000
vt 0.609375 0.200000
vt 0.120048 0.197619
vt 0.119792 0.180000
vt 0.120048 0.822381
vt 0.119792 0.840000
vt 0.869536 0.197619
vt 0.875000 0.180000
vt 0.869536 0.822381
vt 0.875000 0.840000
vt 0.890625 0.100000
vt 0.609375 0.100000
vt 0.895833 0.100000
vt 0.131882 0.241548
vt 0.135417 0.240000
vt 0.131882 0.778452
vt 0.135417 0.780000
vt 0.857702 0.778452
vt 0.859375 0.780000
vt 0.857702 0.241548
vt 0.859375 0.240000
vt 0.812500 0.140000
vt 0.744792 0.200000
vt 0.812500 0.140000
vt 0.744792 0.140000
vt 0.744792 0.200000
vt 0.812500 0.200000
vt 0.744792 0.140000
vt 0.812500 0.200000
vt 0.812500 0.140000
vt 0.744792 0.200000
vt 0.812500 0.140000
vt 0.744792 0.140000
vt 0.744792 0.200000
vt 0.812500 0.200000
vt 0.744792 0.140000
vt 0.812500 0.200000
vt 0.812500 0.140000
vt 0.744792 0.200000
vt 0.812500 0.140000
vt 0.744792 0.140000
vt 0.744792 0.200000
vt 0.812500 0.200000
vt 0.744792 0.140000
vt 0.812500 0.200000
vt 0.812500 0.140000
vt 0.744792 0.200000
vt 0.812500 0.140000
vt 0.744792 0.140000
vt 0.744792 0.200000
vt 0.812500 0.200000
vt 0.744792 0.140000
vt 0.812500 0.200000
vt 0.755208 0.140000
vt 0.890625 0.320000
vt 0.755208 0.200000
vt 0.890625 0.320000
vt 0.755208 0.140000
vt 0.869792 0.320000
vt 0.755208 0.200000
vt 0.869792 0.320000
vt 0.776042 0.140000
vt 0.890625 0.240000
vt 0.890625 0.240000
vt 0.776042 0.200000
vt 0.776042 0.140000
vt 0.869792 0.240000
vt 0.869792 0.240000
vt 0.776042 0.200000
vt 0.812500 0.200000
vt 0.796875 0.140000
vt 0.880208 0.160000
vt 0.812500 0.140000
vt 0.796875 0.200000
vt 0.880208 0.160000
vt 0.781250 0.140000
vt 0.864583 0.220000
vt 0.796875 0.200000
vt 0.781250 0.200000
vt 0.864583 0.220000
vt 0.796875 0.140000
vt 0.859375 0.140000
vt 0.786458 0.200000
vt 0.859375 0.140000
vt 0.786458 0.140000
vt 0.786458 0.200000
vt 0.859375 0.200000
vt 0.786458 0.140000
vt 0.859375 0.200000
vt 0.755208 0.140000
vt 0.890625 0.320000
vt 0.755208 0.200000
vt 0.890625 0.320000
vt 0.755208 0.140000
vt 0.869792 0.320000
vt 0.755208 0.200000
vt 0.869792 0.320000
vt 0.776042 0.140000
vt 0.890625 0.240000
vt 0.890625 0.240000
vt 0.776042 0.200000
vt 0.776042 0.140000
vt 0.869792 0.240000
vt 0.869792 0.240000
vt 0.776042 0.200000
vt 0.812500 0.200000
vt 0.796875 0.140000
vt 0.880208 0.160000
vt 0.812500 0.140000
vt 0.796875 0.200000
vt 0.880208 0.160000
vt 0.781250 0.140000
vt 0.864583 0.220000
vt 0.796875 0.200000
vt 0.781250 0.200000
vt 0.864583 0.220000
vt 0.796875 0.140000
vt 0.859375 0.140000
vt 0.786458 0.200000
vt 0.859375 0.140000
vt 0.786458 0.140000
vt 0.786458 0.200000
vt 0.859375 0.200000
vt 0.786458 0.140000
vt 0.859375 0.200000
vt 0.755208 0.140000
vt 0.890625 0.320000
vt 0.755208 0.200000
vt 0.890625 0.320000
vt 0.755208 0.140000
vt 0.869792 0.320000
vt 0.755208 0.200000
vt 0.869792 0.320000
vt 0.776042 0.140000
vt 0.890625 0.240000
vt 0.890625 0.240000
vt 0.776042 0.200000
vt 0.776042 0.140000
vt 0.869792 0.240000
vt 0.869792 0.240000
vt 0.776042 0.200000
vt 0.812500 0.200000
vt 0.796875 0.140000
vt 0.880208 0.160000
vt 0.812500 0.140000
vt 0.796875 0.200000
vt 0.880208 0.160000
vt 0.781250 0.140000
vt 0.864583 0.220000
vt 0.796875 0.200000
vt 0.781250 0.200000
vt 0.864583 0.220000
vt 0.796875 0.140000
vt 0.859375 0.140000
vt 0.786458 0.200000
vt 0.859375 0.140000
vt 0.786458 0.140000
vt 0.786458 0.200000
vt 0.859375 0.200000
vt 0.786458 0.140000
vt 0.859375 0.200000
vt 0.755208 0.140000
vt 0.890625 0.320000
vt 0.755208 0.200000
vt 0.890625 0.320000
vt 0.755208 0.140000
vt 0.869792 0.320000
vt 0.755208 0.200000
vt 0.869792 0.320000
vt 0.776042 0.140000
vt 0.890625 0.240000
vt 0.890625 0.240000
vt 0.776042 0.200000
vt 0.776042 0.140000
vt 0.869792 0.240000
vt 0.869792 0.240000
vt 0.776042 0.200000
vt 0.812500 0.200000
vt 0.796875 0.140000
vt 0.880208 0.160000
vt 0.812500 0.140000
vt 0.796875 0.200000
vt 0.880208 0.160000
vt 0.781250 0.140000
vt 0.864583 0.220000
vt 0.796875 0.200000
vt 0.781250 0.200000
vt 0.864583 0.220000
vt 0.796875 0.140000
vt 0.859375 0.140000
vt 0.786458 0.200000
vt 0.859375 0.140000
vt 0.786458 0.140000
vt 0.786458 0.200000
vt 0.859375 0.200000
vt 0.786458 0.140000
vt 0.859375 0.200000
vt 0.812500 0.140000
vt 0.744792 0.200000
vt 0.812500 0.140000
vt 0.744792 0.140000
vt 0.744792 0.200000
vt 0.812500 0.200000
vt 0.744792 0.140000
vt 0.812500 0.200000
vt 0.812500 0.140000
vt 0.744792 0.200000
vt 0.812500 0.140000
vt 0.744792 0.140000
vt 0.744792 0.200000
vt 0.812500 0.200000
vt 0.744792 0.140000
vt 0.812500 0.200000
vt 0.812500 0.140000
vt 0.744792 0.200000
vt 0.812500 0.140000
vt 0.744792 0.140000
vt 0.744792 0.200000
vt 0.812500 0.200000
vt 0.744792 0.140000
vt 0.812500 0.200000
vt 0.812500 0.140000
vt 0.744792 0.200000
vt 0.812500 0.140000
vt 0.744792 0.140000
vt 0.744792 0.200000
vt 0.812500 0.200000
vt 0.744792 0.140000
vt 0.812500 0.200000
s 0
usemtl elevator_screen_1
f 1/1/1 7/13/1 16/38/1 11/23/1
f 8/15/2 5/9/2 15/35/2 14/32/2
f 6/11/3 4/7/3 13/29/3 12/26/3
f 5/10/4 6/12/4 12/27/4 15/36/4
f 3/5/5 2/3/5 10/20/5 9/17/5
f 10/21/6 11/24/6 16/39/6 14/33/6 15/37/6 12/28/6 13/30/6 9/18/6
f 91/214/2 86/196/2 18/43/2 17/41/2
f 19/45/5 20/47/5 90/210/5 89/206/5
f 17/42/3 19/46/3 89/207/3 91/215/3
f 20/48/1 18/44/1 86/197/1 90/211/1
f 2/4/7 1/2/7 11/25/7 10/22/7
f 4/8/8 3/6/8 9/19/8 13/31/8
f 7/14/9 8/16/9 14/34/9 16/40/9
f 23/53/10 24/55/10 28/64/10 27/61/10
f 28/63/1 26/59/1 30/70/1 32/75/1
f 25/57/6 26/60/6 22/51/6 21/49/6
f 23/54/3 27/62/3 25/58/3 21/50/3
f 28/63/1 24/56/1 22/52/1 26/59/1
f 30/68/11 29/65/11 33/78/11 34/80/11
f 27/61/12 28/64/12 32/74/12 31/71/12
f 26/60/13 25/57/13 29/66/13 30/69/13
f 25/58/3 27/62/3 31/72/3 29/67/3
f 29/67/3 31/72/3 35/82/3 33/77/3
f 32/75/1 30/70/1 34/79/1 36/84/1
f 31/73/14 32/76/14 36/83/14 35/81/14
f 39/89/10 40/91/10 44/100/10 43/97/10
f 44/99/1 42/95/1 46/106/1 48/111/1
f 41/93/6 42/96/6 38/87/6 37/85/6
f 39/90/3 43/98/3 41/94/3 37/86/3
f 44/99/1 40/92/1 38/88/1 42/95/1
f 46/104/11 45/101/11 49/114/11 50/116/11
f 43/97/12 44/100/12 48/110/12 47/107/12
f 42/96/13 41/93/13 45/102/13 46/105/13
f 41/94/3 43/98/3 47/108/3 45/103/3
f 45/103/3 47/108/3 51/118/3 49/113/3
f 48/111/1 46/106/1 50/115/1 52/120/1
f 47/109/14 48/112/14 52/119/14 51/117/14
f 55/125/10 56/127/10 60/136/10 59/133/10
f 60/135/1 58/131/1 62/142/1 64/147/1
f 57/129/6 58/132/6 54/123/6 53/121/6
f 55/126/3 59/134/3 57/130/3 53/122/3
f 60/135/1 56/128/1 54/124/1 58/131/1
f 62/140/11 61/137/11 65/150/11 66/152/11
f 59/133/12 60/136/12 64/146/12 63/143/12
f 58/132/13 57/129/13 61/138/13 62/141/13
f 57/130/3 59/134/3 63/144/3 61/139/3
f 61/139/3 63/144/3 67/154/3 65/149/3
f 64/147/1 62/142/1 66/151/1 68/156/1
f 63/145/14 64/148/14 68/155/14 67/153/14
f 71/161/10 72/163/10 76/172/10 75/169/10
f 76/171/1 74/167/1 78/178/1 80/183/1
f 73/165/6 74/168/6 70/159/6 69/157/6
f 71/162/3 75/170/3 73/166/3 69/158/3
f 76/171/1 72/164/1 70/160/1 74/167/1
f 78/176/11 77/173/11 81/186/11 82/188/11
f 75/169/12 76/172/12 80/182/12 79/179/12
f 74/168/13 73/165/13 77/174/13 78/177/13
f 73/166/3 75/170/3 79/180/3 77/175/3
f 77/175/3 79/180/3 83/190/3 81/185/3
f 80/183/1 78/178/1 82/187/1 84/192/1
f 79/181/14 80/184/14 84/191/14 83/189/14
f 90/212/1 86/198/1 87/200/1 85/193/1
f 91/216/3 89/208/3 96/226/3 88/203/3
f 89/209/5 90/213/5 85/194/5 96/227/5
f 88/204/2 87/201/2 86/199/2 91/217/2
f 98/232/15 99/234/15 95/225/15 93/221/15
f 92/218/6 93/220/6 87/202/6 88/205/6
f 95/224/6 94/222/6 96/228/6 85/195/6
f 94/222/6 92/218/6 88/205/6 96/228/6
f 93/220/6 95/224/6 85/195/6 87/202/6
f 100/235/6 99/233/6 98/231/6 97/229/6
f 99/234/16 100/236/16 94/223/16 95/225/16
f 100/236/17 97/230/17 92/219/17 94/223/17
f 97/230/18 98/232/18 93/221/18 92/219/18
f 83/189/2 84/191/2 116/267/2 115/265/2
f 51/117/2 52/119/2 108/251/2 107/249/2
f 81/185/3 83/190/3 115/266/3 113/261/3
f 49/113/3 51/118/3 107/250/3 105/245/3
f 84/192/1 82/187/1 114/263/1 116/268/1
f 35/81/2 36/83/2 104/243/2 103/241/2
f 52/120/1 50/115/1 106/247/1 108/252/1
f 82/188/5 81/186/5 113/262/5 114/264/5
f 67/153/2 68/155/2 112/259/2 111/257/2
f 33/77/3 35/82/3 103/242/3 101/237/3
f 50/116/5 49/114/5 105/246/5 106/248/5
f 65/149/3 67/154/3 111/258/3 109/253/3
f 36/84/1 34/79/1 102/239/1 104/244/1
f 34/80/5 33/78/5 101/238/5 102/240/5
f 68/156/1 66/151/1 110/255/1 112/260/1
f 66/152/5 65/150/5 109/254/5 110/256/5
f 119/273/10 123/281/10 124/284/10 120/275/10
f 124/283/1 128/295/1 126/290/1 122/279/1
f 121/277/6 117/269/6 118/271/6 122/280/6
f 119/274/3 117/270/3 121/278/3 123/282/3
f 124/283/1 122/279/1 118/272/1 120/276/1
f 126/288/19 130/300/19 129/298/19 125/285/19
f 123/281/20 127/291/20 128/294/20 124/284/20
f 122/280/21 126/289/21 125/286/21 121/277/21
f 121/278/3 125/287/3 127/292/3 123/282/3
f 125/287/3 129/297/3 131/302/3 127/292/3
f 128/295/1 132/304/1 130/299/1 126/290/1
f 127/293/22 131/301/22 132/303/22 128/296/22
f 135/309/10 139/317/10 140/320/10 136/311/10
f 140/319/1 144/331/1 142/326/1 138/315/1
f 137/313/6 133/305/6 134/307/6 138/316/6
f 135/310/3 133/306/3 137/314/3 139/318/3
f 140/319/1 138/315/1 134/308/1 136/312/1
f 142/324/19 146/336/19 145/334/19 141/321/19
f 139/317/20 143/327/20 144/330/20 140/320/20
f 138/316/21 142/325/21 141/322/21 137/313/21
f 137/314/3 141/323/3 143/328/3 139/318/3
f 141/323/3 145/333/3 147/338/3 143/328/3
f 144/331/1 148/340/1 146/335/1 142/326/1
f 143/329/22 147/337/22 148/339/22 144/332/22
f 151/345/10 155/353/10 156/356/10 152/347/10
f 156/355/1 160/367/1 158/362/1 154/351/1
f 153/349/6 149/341/6 150/343/6 154/352/6
f 151/346/3 149/342/3 153/350/3 155/354/3
f 156/355/1 154/351/1 150/344/1 152/348/1
f 158/360/19 162/372/19 161/370/19 157/357/19
f 155/353/20 159/363/20 160/366/20 156/356/20
f 154/352/21 158/361/21 157/358/21 153/349/21
f 153/350/3 157/359/3 159/364/3 155/354/3
f 157/359/3 161/369/3 163/374/3 159/364/3
f 160/367/1 164/376/1 162/371/1 158/362/1
f 159/365/22 163/373/22 164/375/22 160/368/22
f 167/381/10 171/389/10 172/392/10 168/383/10
f 172/391/1 176/403/1 174/398/1 170/387/1
f 169/385/6 165/377/6 166/379/6 170/388/6
f 167/382/3 165/378/3 169/386/3 171/390/3
f 172/391/1 170/387/1 166/380/1 168/384/1
f 174/396/19 178/408/19 177/406/19 173/393/19
f 171/389/20 175/399/20 176/402/20 172/392/20
f 170/388/21 174/397/21 173/394/21 169/385/21
f 169/386/3 173/395/3 175/400/3 171/390/3
f 173/395/3 177/405/3 179/410/3 175/400/3
f 176/403/1 180/412/1 178/407/1 174/398/1
f 175/401/22 179/409/22 180/411/22 176/404/22
f 179/409/5 195/441/5 196/443/5 180/411/5
f 147/337/5 187/425/5 188/427/5 148/339/5
f 177/405/3 193/437/3 195/442/3 179/410/3
f 145/333/3 185/421/3 187/426/3 147/338/3
f 180/412/1 196/444/1 194/439/1 178/407/1
f 131/301/5 183/417/5 184/419/5 132/303/5
f 148/340/1 188/428/1 186/423/1 146/335/1
f 178/408/2 194/440/2 193/438/2 177/406/2
f 163/373/5 191/433/5 192/435/5 164/375/5
f 129/297/3 181/413/3 183/418/3 131/302/3
f 146/336/2 186/424/2 185/422/2 145/334/2
f 161/369/3 189/429/3 191/434/3 163/374/3
f 132/304/1 184/420/1 182/415/1 130/299/1
f 130/300/2 182/416/2 181/414/2 129/298/2
f 164/376/1 192/436/1 190/431/1 162/371/1
f 162/372/2 190/432/2 189/430/2 161/370/2
