# Blender 3.4.0
# www.blender.org
mtllib mouse_pad_mp_1.mtl
o mouse_pad_mp_1
v -0.120000 0.000000 -0.136472
v -0.110400 -0.000000 -0.146072
v -0.117188 0.000000 -0.143261
v -0.110400 -0.000000 0.146072
v -0.120000 0.000000 0.136472
v -0.117188 0.000000 0.143261
v 0.110400 0.000000 -0.146072
v 0.120000 0.000000 -0.136472
v 0.117188 0.000000 -0.143261
v 0.120000 0.000000 0.136472
v 0.110400 0.000000 0.146072
v 0.117188 0.000000 0.143261
v -0.110400 0.004000 -0.146072
v -0.120000 0.004000 -0.136472
v -0.117188 0.004000 -0.143261
v -0.120000 0.004000 0.136472
v -0.110400 0.004000 0.146072
v -0.117188 0.004000 0.143261
v 0.120000 0.004000 -0.136472
v 0.110400 0.004000 -0.146072
v 0.117188 0.004000 -0.143261
v 0.110400 0.004000 0.146072
v 0.120000 0.004000 0.136472
v 0.117188 0.004000 0.143261
vn -0.9808 -0.0000 -0.1951
vn -0.9808 -0.0000 0.1951
vn -0.0000 1.0000 -0.0000
vn -0.1951 -0.0000 0.9808
vn 0.1951 -0.0000 0.9808
vn 0.9808 -0.0000 0.1951
vn 0.9808 -0.0000 -0.1951
vn -0.0000 -1.0000 -0.0000
vn 0.1951 -0.0000 -0.9808
vn 0.7071 -0.0000 -0.7071
vn 0.7071 -0.0000 0.7071
vn -0.7071 -0.0000 0.7071
vn -0.1951 -0.0000 -0.9808
vn -0.7071 -0.0000 -0.7071
vt 0.032862 0.000000
vt 1.000000 0.077778
vt 0.000000 0.040000
vt 1.000000 0.844444
vt 0.009636 0.011716
vt 1.000000 0.866667
vt 1.000000 0.044444
vt 1.000000 0.040000
vt 1.000000 0.155556
vt 0.967138 0.000000
vt 1.000000 0.922222
vt 0.990365 0.011716
vt 1.000000 0.122222
vt 1.000000 0.944444
vt 0.000000 0.960000
vt 1.000000 0.155556
vt 0.032862 1.000000
vt 0.990826 0.077778
vt 0.009636 0.988284
vt 1.000000 0.122222
vt 0.990826 0.044444
vt 0.967138 1.000000
vt 0.990826 0.922222
vt 1.000000 0.960000
vt 1.000000 0.844444
vt 0.990365 0.988284
vt 1.000000 0.866667
vt 0.990826 0.944444
vt 0.000000 0.040000
vt 0.990826 0.844444
vt 0.032862 0.000000
vt 0.990826 0.077778
vt 0.009636 0.011716
vt 0.990826 0.866667
vt 0.990826 0.044444
vt 0.967138 0.000000
vt 0.990826 0.922222
vt 1.000000 0.040000
vt 0.990826 0.155556
vt 0.990365 0.011716
vt 0.990826 0.122222
vt 0.990826 0.944444
vt 0.032862 1.000000
vt 1.000000 0.077778
vt 0.000000 0.960000
vt 0.990826 0.155556
vt 0.009636 0.988284
vt 0.990826 0.122222
vt 1.000000 0.044444
vt 1.000000 0.960000
vt 0.990826 0.844444
vt 0.967138 1.000000
vt 1.000000 0.922222
vt 0.990365 0.988284
vt 0.990826 0.866667
vt 1.000000 0.944444
s 1
usemtl mouse_pad_mp_1
f 1/2/1 5/11/2 16/37/2 14/32/1
f 13/29/3 15/33/3 14/31/3 16/36/3 18/40/3 17/38/3 22/50/3 24/54/3 23/52/3 19/43/3 21/47/3 20/45/3
f 4/9/4 11/25/5 22/51/5 17/39/4
f 10/23/6 8/18/7 19/44/7 23/53/6
f 1/1/8 3/5/8 2/3/8 7/15/8 9/19/8 8/17/8 10/22/8 12/26/8 11/24/8 4/8/8 6/12/8 5/10/8
f 7/16/9 20/46/9 21/48/10 9/20/10
f 9/21/10 21/49/10 19/44/7 8/18/7
f 22/51/5 11/25/5 12/27/11 24/55/11
f 24/56/11 12/28/11 10/23/6 23/53/6
f 4/9/4 17/39/4 18/41/12 6/13/12
f 6/14/12 18/42/12 16/37/2 5/11/2
f 13/30/13 2/4/13 3/6/14 15/34/14
f 15/35/14 3/7/14 1/2/1 14/32/1
f 7/16/9 2/4/13 13/30/13 20/46/9
