# Blender 3.4.0
# www.blender.org
mtllib pc_keyboard_mp_1.mtl
o pc_keyboard_mp_1
v -0.275000 -0.000000 0.125000
v 0.275000 -0.000000 0.125000
v -0.275000 0.030000 -0.125000
v 0.275000 0.030000 -0.125000
v 0.275000 0.000000 -0.125000
v -0.275000 0.000000 -0.125000
v -0.275000 0.017500 0.125000
v -0.275000 0.030000 0.112500
v 0.275000 0.030000 0.112500
v 0.275000 0.017500 0.125000
v -0.275000 0.030000 -0.058596
v -0.275000 0.030000 -0.083848
v 0.275000 0.030000 -0.083848
v 0.275000 0.030000 -0.058596
v -0.275000 0.020000 -0.083848
v -0.275000 0.020000 -0.058596
v 0.275000 0.020000 -0.058596
v 0.275000 0.020000 -0.083848
v 0.167405 0.030000 -0.013043
v 0.262405 0.030000 -0.013043
v 0.167405 0.030000 0.100554
v 0.262405 0.030000 0.100554
v 0.172405 0.037000 -0.008043
v 0.257405 0.037000 -0.008043
v 0.257405 0.037000 0.095554
v 0.172405 0.037000 0.095554
v -0.261809 0.030000 -0.013043
v 0.088512 0.030000 -0.013043
v -0.261809 0.030000 0.100554
v 0.088512 0.030000 0.100554
v -0.256809 0.037000 -0.008043
v 0.083512 0.037000 -0.008043
v 0.083512 0.037000 0.095554
v -0.256809 0.037000 0.095554
v -0.261809 0.030000 -0.046042
v -0.236809 0.030000 -0.046042
v -0.261809 0.030000 -0.020445
v -0.236809 0.030000 -0.020445
v -0.256809 0.037000 -0.041042
v -0.241809 0.037000 -0.041042
v -0.241809 0.037000 -0.025445
v -0.256809 0.037000 -0.025445
v 0.168008 0.030000 -0.046042
v 0.263008 0.030000 -0.046042
v 0.168008 0.030000 -0.020445
v 0.263008 0.030000 -0.020445
v 0.173008 0.037000 -0.041042
v 0.258008 0.037000 -0.041042
v 0.258008 0.037000 -0.025445
v 0.173008 0.037000 -0.025445
v -0.006877 0.030000 -0.046042
v 0.088123 0.030000 -0.046042
v -0.006877 0.030000 -0.020445
v 0.088123 0.030000 -0.020445
v -0.001877 0.037000 -0.041042
v 0.083123 0.037000 -0.041042
v 0.083123 0.037000 -0.025445
v -0.001877 0.037000 -0.025445
v -0.110301 0.030000 -0.046042
v -0.015301 0.030000 -0.046042
v -0.110301 0.030000 -0.020445
v -0.015301 0.030000 -0.020445
v -0.105301 0.037000 -0.041042
v -0.020301 0.037000 -0.041042
v -0.020301 0.037000 -0.025445
v -0.105301 0.037000 -0.025445
v -0.214114 0.030000 -0.046042
v -0.119114 0.030000 -0.046042
v -0.214114 0.030000 -0.020445
v -0.119114 0.030000 -0.020445
v -0.209114 0.037000 -0.041042
v -0.124114 0.037000 -0.041042
v -0.124114 0.037000 -0.025445
v -0.209114 0.037000 -0.025445
v 0.091981 0.030000 -0.046042
v 0.162981 0.030000 -0.046042
v 0.091981 0.030000 -0.020445
v 0.162981 0.030000 -0.020445
v 0.096981 0.037000 -0.041042
v 0.157981 0.037000 -0.041042
v 0.157981 0.037000 -0.025445
v 0.096981 0.037000 -0.025445
v 0.091981 0.030000 -0.013041
v 0.162981 0.030000 -0.013041
v 0.091981 0.030000 0.033556
v 0.162981 0.030000 0.033556
v 0.096981 0.037000 -0.008041
v 0.157981 0.037000 -0.008041
v 0.157981 0.037000 0.028556
v 0.096981 0.037000 0.028556
v 0.092553 0.030000 0.074958
v 0.163553 0.030000 0.074958
v 0.092553 0.030000 0.100556
v 0.163553 0.030000 0.100556
v 0.097553 0.037000 0.079958
v 0.158553 0.037000 0.079958
v 0.158553 0.037000 0.095556
v 0.097553 0.037000 0.095556
v 0.114390 0.030000 0.074958
v 0.139050 0.030000 0.074958
v 0.119390 0.037000 0.079958
v 0.134050 0.037000 0.079958
v 0.114390 0.030000 0.052714
v 0.139050 0.030000 0.052714
v 0.119390 0.037000 0.057714
v 0.134050 0.037000 0.057714
vn -0.0000 -0.0000 -1.0000
vn -0.0000 -1.0000 -0.0000
vn -0.0000 1.0000 -0.0000
vn -1.0000 -0.0000 -0.0000
vn -0.0000 0.7071 0.7071
vn -0.0000 -0.0000 1.0000
vn 1.0000 -0.0000 -0.0000
vn -0.0000 0.5812 0.8137
vn 0.8137 0.5812 -0.0000
vn -0.8137 0.5812 -0.0000
vn -0.0000 0.5812 -0.8137
vt 0.000000 0.815891
vt 0.081560 0.808034
vt 0.308511 0.835271
vt 0.310284 0.815891
vt 0.000000 0.835271
vt 0.081560 0.808034
vt 0.000000 0.824829
vt 0.000000 0.986434
vt 0.216312 0.824829
vt 0.308511 0.824829
vt 0.308511 0.986434
vt 0.216312 0.824829
vt 0.308511 0.808034
vt 0.310284 0.666667
vt 0.216312 0.808034
vt 0.000000 0.808034
vt 0.000000 0.666667
vt 0.216312 0.808034
vt 0.081560 0.817831
vt 0.308511 0.986434
vt 0.308511 0.844961
vt 0.088298 0.824829
vt 0.308511 1.000000
vt 0.000000 0.840988
vt 0.000000 1.000000
vt 0.088298 0.824829
vt 0.308511 0.840988
vt 0.000000 0.986434
vt 0.000000 0.844961
vt 0.081560 0.817831
vt 0.180520 0.824829
vt 0.000000 0.945768
vt 0.000000 0.965116
vt -0.000000 0.961232
vt 0.194131 0.824829
vt 0.000000 0.965116
vt 0.308511 0.961232
vt 0.194131 0.824829
vt 0.308511 0.965116
vt 0.180520 0.824829
vt 0.308511 0.945768
vt 0.308511 0.965116
vt 0.194131 0.819231
vt 0.000000 0.959302
vt 0.000000 1.000000
vt 0.180520 0.819231
vt 0.000000 0.984496
vt 0.000000 0.959302
vt 0.180520 0.819231
vt 0.308511 0.984496
vt 0.308511 0.959302
vt 0.194131 0.819231
vt 0.308511 0.959302
vt 0.308511 1.000000
vt 0.601064 0.602713
vt 0.728723 0.602713
vt 0.601064 0.424419
vt 0.728723 0.424419
vt 0.608156 0.594961
vt 0.721631 0.594961
vt 0.721631 0.432171
vt 0.608156 0.432171
vt 0.010638 0.602713
vt 0.489362 0.602713
vt 0.010638 0.424419
vt 0.489362 0.424419
vt 0.017730 0.594961
vt 0.482269 0.594961
vt 0.482269 0.432171
vt 0.017730 0.432171
vt 0.010347 0.654663
vt 0.044291 0.654663
vt 0.010347 0.616678
vt 0.044291 0.616678
vt 0.017134 0.647245
vt 0.037500 0.647245
vt 0.037500 0.624097
vt 0.017134 0.624097
vt 0.600453 0.655147
vt 0.729438 0.655147
vt 0.600453 0.617162
vt 0.729438 0.617162
vt 0.607244 0.647730
vt 0.722647 0.647730
vt 0.722647 0.624582
vt 0.607244 0.624582
vt 0.360597 0.655147
vt 0.489583 0.655147
vt 0.360597 0.617162
vt 0.489583 0.617162
vt 0.367388 0.647730
vt 0.482791 0.647730
vt 0.482791 0.624582
vt 0.367388 0.624582
vt 0.217985 0.655147
vt 0.346966 0.655147
vt 0.217985 0.617162
vt 0.346966 0.617162
vt 0.224772 0.647730
vt 0.340175 0.647730
vt 0.340175 0.624582
vt 0.224772 0.624582
vt 0.074752 0.654763
vt 0.203733 0.654763
vt 0.074752 0.616778
vt 0.203733 0.616778
vt 0.081539 0.647345
vt 0.196946 0.647345
vt 0.196946 0.624197
vt 0.081539 0.624197
vt 0.497709 0.655147
vt 0.594103 0.655147
vt 0.497709 0.617162
vt 0.594103 0.617162
vt 0.504500 0.647730
vt 0.587320 0.647730
vt 0.587320 0.624582
vt 0.504500 0.624582
vt 0.497988 0.600681
vt 0.594383 0.600681
vt 0.497988 0.531531
vt 0.594383 0.531531
vt 0.504779 0.593261
vt 0.587600 0.593261
vt 0.587600 0.538950
vt 0.504779 0.538950
vt 0.498826 0.462611
vt 0.595220 0.462611
vt 0.498826 0.424626
vt 0.595220 0.424626
vt 0.505617 0.455192
vt 0.588437 0.455192
vt 0.588437 0.432044
vt 0.505617 0.432044
vt 0.528477 0.462611
vt 0.561955 0.462611
vt 0.535260 0.455192
vt 0.555163 0.455192
vt 0.528477 0.495623
vt 0.561955 0.495623
vt 0.535260 0.488202
vt 0.555163 0.488202
s 1
usemtl pc_accessories_mp_1
f 6/16/1 3/7/1 4/10/1 5/13/1
f 2/4/2 1/1/2 6/17/2 5/14/2
f 3/8/3 12/34/3 13/37/3 4/11/3
f 7/19/4 8/22/4 11/31/4 16/46/4 15/43/4 12/35/4 3/9/4 6/18/4 1/2/4
f 7/20/5 10/28/5 9/25/5 8/23/5
f 10/29/6 7/21/6 1/3/6 2/5/6
f 4/12/7 13/38/7 18/52/7 17/49/7 14/40/7 9/26/7 10/30/7 2/6/7 5/15/7
f 13/39/6 12/36/6 15/44/6 18/53/6
f 11/32/3 8/24/3 9/27/3 14/41/3
f 16/47/3 17/50/3 18/54/3 15/45/3
f 11/33/1 14/42/1 17/51/1 16/48/1
f 23/59/3 26/62/3 25/61/3 24/60/3
f 21/57/8 22/58/8 25/61/8 26/62/8
f 22/58/9 20/56/9 24/60/9 25/61/9
f 19/55/10 21/57/10 26/62/10 23/59/10
f 20/56/11 19/55/11 23/59/11 24/60/11
f 31/67/3 34/70/3 33/69/3 32/68/3
f 29/65/8 30/66/8 33/69/8 34/70/8
f 30/66/9 28/64/9 32/68/9 33/69/9
f 27/63/10 29/65/10 34/70/10 31/67/10
f 28/64/11 27/63/11 31/67/11 32/68/11
f 39/75/3 42/78/3 41/77/3 40/76/3
f 37/73/8 38/74/8 41/77/8 42/78/8
f 38/74/9 36/72/9 40/76/9 41/77/9
f 35/71/10 37/73/10 42/78/10 39/75/10
f 36/72/11 35/71/11 39/75/11 40/76/11
f 47/83/3 50/86/3 49/85/3 48/84/3
f 45/81/8 46/82/8 49/85/8 50/86/8
f 46/82/9 44/80/9 48/84/9 49/85/9
f 43/79/10 45/81/10 50/86/10 47/83/10
f 44/80/11 43/79/11 47/83/11 48/84/11
f 55/91/3 58/94/3 57/93/3 56/92/3
f 53/89/8 54/90/8 57/93/8 58/94/8
f 54/90/9 52/88/9 56/92/9 57/93/9
f 51/87/10 53/89/10 58/94/10 55/91/10
f 52/88/11 51/87/11 55/91/11 56/92/11
f 63/99/3 66/102/3 65/101/3 64/100/3
f 61/97/8 62/98/8 65/101/8 66/102/8
f 62/98/9 60/96/9 64/100/9 65/101/9
f 59/95/10 61/97/10 66/102/10 63/99/10
f 60/96/11 59/95/11 63/99/11 64/100/11
f 71/107/3 74/110/3 73/109/3 72/108/3
f 69/105/8 70/106/8 73/109/8 74/110/8
f 70/106/9 68/104/9 72/108/9 73/109/9
f 67/103/10 69/105/10 74/110/10 71/107/10
f 68/104/11 67/103/11 71/107/11 72/108/11
f 79/115/3 82/118/3 81/117/3 80/116/3
f 77/113/8 78/114/8 81/117/8 82/118/8
f 78/114/9 76/112/9 80/116/9 81/117/9
f 75/111/10 77/113/10 82/118/10 79/115/10
f 76/112/11 75/111/11 79/115/11 80/116/11
f 87/123/3 90/126/3 89/125/3 88/124/3
f 85/121/8 86/122/8 89/125/8 90/126/8
f 86/122/9 84/120/9 88/124/9 89/125/9
f 83/119/10 85/121/10 90/126/10 87/123/10
f 84/120/11 83/119/11 87/123/11 88/124/11
f 94/130/9 92/128/9 96/132/9 97/133/9
f 91/127/10 93/129/10 98/134/10 95/131/10
f 99/135/11 91/127/11 95/131/11 101/137/11
f 92/128/11 100/136/11 102/138/11 96/132/11
f 93/129/8 94/130/8 97/133/8 98/134/8
f 98/134/3 97/133/3 102/138/3 101/137/3
f 104/140/11 103/139/11 105/141/11 106/142/11
f 102/138/9 100/136/9 104/140/9 106/142/9
f 99/135/10 101/137/10 105/141/10 103/139/10
f 101/137/3 102/138/3 106/142/3 105/141/3
f 95/131/3 98/134/3 101/137/3
f 97/133/3 96/132/3 102/138/3
