# Blender 3.4.0
# www.blender.org
mtllib pc_mouse_mp_2.mtl
o pc_mouse_mp_2
v -0.000000 -0.000000 0.029086
v 0.013406 0.031517 0.037735
v 0.028415 0.026288 0.029086
v 0.038589 0.016146 0.029086
v -0.038589 0.016146 0.029086
v -0.028416 0.026288 0.029086
v -0.013406 0.031517 0.037735
v -0.026707 0.026288 0.042414
v -0.036444 0.016146 0.045839
v -0.020644 0.026288 0.052871
v -0.028341 0.016146 0.059816
v -0.005628 0.030000 0.046654
v -0.011368 0.026288 0.059606
v -0.015571 0.016146 0.069088
v -0.000000 0.016146 0.072347
v -0.000000 0.026288 0.061986
v 0.005628 0.030000 0.046654
v 0.011368 0.026288 0.059606
v 0.015570 0.016146 0.069088
v 0.020644 0.026288 0.052871
v 0.028340 0.016146 0.059816
v 0.026707 0.026288 0.042414
v 0.036444 0.016146 0.045839
v -0.000000 0.012687 -0.071344
v -0.012790 0.020163 -0.059367
v -0.015863 0.012687 -0.069183
v -0.022624 0.020795 -0.054356
v -0.029954 0.012687 -0.062003
v -0.012581 0.025266 -0.043962
v -0.026244 0.021554 -0.047938
v -0.036246 0.012687 -0.050849
v 0.036246 0.012687 -0.050849
v 0.026244 0.021554 -0.047938
v 0.012611 0.025266 -0.043910
v 0.022624 0.020795 -0.054356
v 0.029954 0.012687 -0.062003
v 0.012790 0.020163 -0.059367
v 0.015863 0.012687 -0.069183
v -0.024897 -0.000000 0.056709
v -0.029755 0.008039 0.061093
v -0.038234 0.008039 0.046469
v -0.032084 -0.000000 0.044312
v -0.031659 -0.000000 -0.049744
v -0.038083 0.008043 -0.051384
v -0.031300 0.008043 -0.063408
v -0.026674 -0.000000 -0.058581
v 0.040459 0.008039 0.029086
v 0.034034 -0.000000 0.029086
v -0.034034 -0.000000 0.029086
v -0.040459 0.008039 0.029086
v -0.013690 -0.000000 0.064845
v -0.016343 0.008039 0.070830
v -0.000000 -0.000000 0.067711
v -0.000000 0.008039 0.074252
v 0.013690 -0.000000 0.064845
v 0.016343 0.008039 0.070830
v 0.024897 -0.000000 0.056709
v 0.029755 0.008039 0.061093
v 0.032084 -0.000000 0.044312
v 0.038234 0.008039 0.046469
v -0.000000 -0.000000 -0.066765
v -0.000000 0.008042 -0.073225
v -0.014488 -0.000000 -0.064791
v -0.016428 0.008043 -0.070987
v 0.031659 -0.000000 -0.049744
v 0.038083 0.008043 -0.051384
v 0.026674 -0.000000 -0.058581
v 0.031300 0.008043 -0.063408
v 0.014488 -0.000000 -0.064791
v 0.016427 0.008043 -0.070987
v -0.036542 0.014508 -0.023853
v -0.026456 0.024285 -0.023853
v -0.012803 0.027997 -0.023853
v -0.031972 -0.000000 -0.023853
v -0.038395 0.008041 -0.023853
v 0.026456 0.024285 -0.023853
v 0.036542 0.014508 -0.023853
v 0.031972 -0.000000 -0.023853
v 0.038395 0.008041 -0.023853
v 0.012803 0.027997 -0.023853
v -0.013061 0.031164 0.002633
v 0.013061 0.031164 0.002633
v 0.003732 0.024657 -0.052874
v -0.004289 0.024640 -0.052874
v -0.006058 0.021960 -0.053944
v -0.004388 0.027841 -0.043962
v 0.003556 0.027841 -0.043962
v 0.005329 0.025870 -0.039514
v -0.002485 0.023421 -0.055555
v 0.001780 0.023421 -0.055555
v 0.001585 0.028623 -0.036868
v 0.002480 0.026468 -0.035116
v -0.002388 0.028623 -0.036868
v -0.003277 0.026468 -0.035116
v -0.006168 0.025870 -0.039514
v -0.006134 0.025266 -0.043962
v 0.005283 0.022007 -0.053801
v 0.005315 0.025266 -0.043962
v 0.003468 0.021298 -0.055943
v 0.002436 0.020988 -0.056876
v -0.003109 0.020988 -0.056876
v -0.004171 0.021281 -0.055993
v -0.000279 0.026266 -0.052874
v -0.000416 0.029090 -0.043962
vn 0.8723 0.4879 0.0315
vn 0.8332 0.4755 0.2822
vn 0.9222 0.2278 0.3125
vn 0.9709 0.2361 0.0408
vn -0.0000 -1.0000 -0.0000
vn -0.0000 -0.8871 -0.4616
vn 0.1396 -0.8841 -0.4459
vn 0.3357 -0.8744 -0.3502
vn 0.4626 -0.8777 -0.1251
vn 0.4339 -0.9009 -0.0109
vn 0.4515 -0.8921 0.0207
vn -0.1647 0.9815 0.0973
vn -0.1771 0.9824 -0.0597
vn -0.5417 0.8405 0.0111
vn -0.0000 0.4762 0.8793
vn -0.3563 0.4762 0.8039
vn -0.3944 0.2289 0.8900
vn -0.0000 0.2287 0.9735
vn -0.6529 0.4762 0.5891
vn -0.7227 0.2288 0.6522
vn 0.1647 0.9815 0.0973
vn 0.5253 0.8322 0.1775
vn 0.5417 0.8405 0.0111
vn 0.1272 0.9841 -0.1239
vn 0.1009 0.9735 -0.2053
vn -0.1006 0.9734 -0.2056
vn -0.1271 0.9841 -0.1239
vn -0.0497 0.9747 0.2177
vn -0.0000 0.8567 0.5159
vn 0.0497 0.9747 0.2177
vn -0.2098 0.8555 0.4734
vn 0.3563 0.4762 0.8039
vn 0.3944 0.2289 0.8900
vn 0.4899 0.8674 -0.0877
vn 0.8503 0.5240 -0.0485
vn -0.7992 0.5533 -0.2350
vn -0.5536 0.5878 -0.5899
vn -0.6382 0.3864 -0.6658
vn -0.9023 0.3538 -0.2463
vn -0.1044 0.8822 -0.4592
vn 0.1045 0.8822 -0.4591
vn -0.0000 0.6174 -0.7866
vn 0.2357 0.5984 -0.7657
vn 0.5536 0.5878 -0.5899
vn 0.7992 0.5533 -0.2350
vn 0.9023 0.3538 -0.2463
vn 0.6382 0.3864 -0.6658
vn 0.7809 -0.6243 -0.0199
vn 0.7808 -0.6239 0.0334
vn -0.9590 0.2817 -0.0313
vn -0.9709 0.2361 0.0408
vn -0.8723 0.4879 0.0315
vn -0.8503 0.5240 -0.0485
vn 0.1771 0.9824 -0.0597
vn -0.5253 0.8322 0.1775
vn -0.8332 0.4755 0.2822
vn -0.3885 0.8459 0.3654
vn -0.0000 -0.8809 0.4732
vn -0.1920 -0.8806 0.4333
vn -0.3516 -0.8807 0.3173
vn -0.4478 -0.8813 0.1511
vn -0.4515 -0.8921 0.0207
vn -0.9222 0.2278 0.3125
vn 0.3885 0.8459 0.3654
vn 0.6529 0.4762 0.5891
vn -0.2357 0.5984 -0.7657
vn -0.0000 0.3753 -0.9269
vn -0.2767 0.3769 -0.8840
vn 0.2098 0.8555 0.4734
vn 0.7227 0.2288 0.6522
vn 0.4478 -0.8813 0.1511
vn 0.3516 -0.8807 0.3173
vn 0.1920 -0.8806 0.4333
vn 0.3059 0.8728 -0.3802
vn 0.4574 0.8677 -0.1948
vn 0.2767 0.3769 -0.8840
vn -0.3061 0.8727 -0.3804
vn 0.9590 0.2817 -0.0313
vn -0.4575 0.8676 -0.1947
vn -0.5758 -0.6313 0.5196
vn -0.7356 -0.6297 0.2497
vn -0.3357 -0.8744 -0.3502
vn -0.4626 -0.8777 -0.1251
vn -0.7456 -0.6358 -0.1996
vn -0.5321 -0.6392 -0.5551
vn -0.0000 -0.6311 0.7757
vn -0.3142 -0.6314 0.7089
vn -0.0000 -0.6262 -0.7796
vn 0.2324 -0.6281 -0.7426
vn -0.4339 -0.9009 -0.0109
vn -0.7808 -0.6239 0.0334
vn -0.7809 -0.6243 -0.0199
vn -0.1396 -0.8841 -0.4459
vn 0.7456 -0.6358 -0.1996
vn 0.7356 -0.6297 0.2497
vn 0.5758 -0.6313 0.5196
vn 0.3142 -0.6314 0.7089
vn 0.5321 -0.6392 -0.5551
vn -0.2324 -0.6281 -0.7426
vn -0.4899 0.8674 -0.0877
vn -0.7095 0.6924 0.1315
vn -0.5816 0.8035 -0.1268
vn -0.8092 0.5679 -0.1506
vn -0.2937 0.8781 0.3777
vn -0.3780 0.7560 0.5344
vn 0.5736 0.7105 -0.4077
vn 0.5852 0.8019 -0.1201
vn 0.8200 0.5557 -0.1367
vn 0.6665 0.5650 -0.4863
vn 0.2487 0.6122 -0.7506
vn 0.5160 0.5311 -0.6721
vn -0.4946 0.5456 -0.6765
vn -0.2452 0.6197 -0.7456
vn -0.2300 0.5093 -0.8293
vn 0.2954 0.8778 0.3772
vn 0.3801 0.7555 0.5336
vn 0.7110 0.6910 0.1302
vn -0.5558 0.7226 -0.4109
vn 0.0020 0.8804 -0.4743
vn 0.2418 0.5127 -0.8238
vn -0.0020 0.9872 -0.1592
vn -0.0000 -0.9909 0.1346
vn -0.0000 -0.9493 0.3145
vn -0.6433 0.5902 -0.4877
vt 0.460754 0.888571
vt 0.563437 0.876721
vt 0.577804 0.884579
vt 0.591193 0.883909
vt 0.584898 0.883857
vt 0.516438 0.883857
vt 0.512420 0.883814
vt 0.525808 0.884517
vt 0.540190 0.876693
vt 0.527938 0.871377
vt 0.515371 0.865881
vt 0.516438 0.864516
vt 0.533613 0.861324
vt 0.521659 0.837829
vt 0.523780 0.851024
vt 0.516438 0.849044
vt 0.546909 0.867988
vt 0.541870 0.854982
vt 0.536598 0.835470
vt 0.536512 0.841201
vt 0.551794 0.834686
vt 0.551852 0.837573
vt 0.551837 0.852669
vt 0.556735 0.868000
vt 0.561800 0.855006
vt 0.567184 0.841238
vt 0.566991 0.835470
vt 0.570045 0.861368
vt 0.579898 0.851092
vt 0.584898 0.849044
vt 0.581929 0.837829
vt 0.575699 0.871435
vt 0.584898 0.864516
vt 0.588277 0.865969
vt 0.551676 0.994198
vt 0.551702 0.990385
vt 0.539829 0.975245
vt 0.536417 0.994198
vt 0.536307 0.984892
vt 0.536198 0.988057
vt 0.530930 0.969851
vt 0.522427 0.980196
vt 0.522653 0.979220
vt 0.540308 0.958723
vt 0.527651 0.963426
vt 0.515480 0.972170
vt 0.512021 0.968958
vt 0.515613 0.968399
vt 0.588132 0.972170
vt 0.587844 0.968486
vt 0.589315 0.968958
vt 0.575815 0.963486
vt 0.563182 0.958772
vt 0.572526 0.969902
vt 0.581007 0.980271
vt 0.580959 0.979220
vt 0.563607 0.975273
vt 0.567213 0.988097
vt 0.567304 0.984892
vt 0.567293 0.994198
vt 0.438355 0.860882
vt 0.520154 0.829231
vt 0.431161 0.853661
vt 0.507604 0.847109
vt 0.422735 0.869461
vt 0.507604 0.864516
vt 0.431796 0.873135
vt 0.432559 0.968872
vt 0.512229 0.976883
vt 0.423302 0.971917
vt 0.507604 0.968958
vt 0.520327 0.983960
vt 0.430318 0.985101
vt 0.437158 0.977350
vt 0.593732 0.883857
vt 0.501359 0.887666
vt 0.491772 0.888130
vt 0.429733 0.888393
vt 0.507604 0.883857
vt 0.420143 0.888010
vt 0.448386 0.852851
vt 0.535844 0.826753
vt 0.444403 0.842995
vt 0.460620 0.849910
vt 0.551794 0.825930
vt 0.460583 0.839007
vt 0.472875 0.852747
vt 0.567745 0.826753
vt 0.476790 0.842858
vt 0.482961 0.860694
vt 0.593732 0.847109
vt 0.583434 0.829231
vt 0.490105 0.853412
vt 0.489604 0.872890
vt 0.593732 0.864516
vt 0.498639 0.869140
vt 0.461089 0.985967
vt 0.551676 1.000000
vt 0.461127 0.996964
vt 0.447945 0.983833
vt 0.536116 0.999997
vt 0.533921 0.989947
vt 0.444779 0.994141
vt 0.489500 0.968631
vt 0.591383 0.976883
vt 0.498778 0.971597
vt 0.593732 0.968958
vt 0.484960 0.977147
vt 0.583284 0.983960
vt 0.491852 0.984840
vt 0.474217 0.983722
vt 0.569691 0.989947
vt 0.567594 0.999997
vt 0.477454 0.994003
vt 0.514230 0.939947
vt 0.513840 0.939805
vt 0.527027 0.938678
vt 0.540056 0.938226
vt 0.431559 0.942628
vt 0.421916 0.942959
vt 0.507604 0.939947
vt 0.576480 0.938739
vt 0.589665 0.939895
vt 0.587107 0.939947
vt 0.490319 0.942379
vt 0.499964 0.942629
vt 0.593732 0.939947
vt 0.563446 0.938258
vt 0.540051 0.911594
vt 0.563506 0.911623
vt 0.555214 0.967986
vt 0.547831 0.967986
vt 0.546199 0.969064
vt 0.547582 0.958971
vt 0.555221 0.958973
vt 0.556686 0.954538
vt 0.549486 0.970686
vt 0.553415 0.970686
vt 0.553236 0.951874
vt 0.554062 0.950112
vt 0.549578 0.951874
vt 0.548761 0.950112
vt 0.546096 0.954538
vt 0.546129 0.959017
vt 0.556643 0.968919
vt 0.556673 0.959017
vt 0.554971 0.971076
vt 0.554024 0.972015
vt 0.548915 0.972015
vt 0.547939 0.971125
vt 0.551524 0.967426
vt 0.551398 0.958493
s 1
usemtl pc_accessories_mp_1
f 4/5/1 23/33/2 60/95/3 47/75/4
f 1/1/5 61/97/6 69/111/7 67/108/8 65/104/9 78/125/10 48/77/11
f 7/9/12 81/129/13 6/8/14
f 15/21/15 14/19/16 52/82/17 54/85/18
f 14/19/16 11/14/19 40/62/20 52/82/17
f 2/2/21 22/32/22 3/3/23
f 80/128/24 34/53/25 29/44/26 73/118/27
f 12/17/28 16/23/29 17/24/30
f 16/23/29 13/18/31 14/20/16 15/22/15
f 19/27/32 15/21/15 54/85/18 56/88/33
f 76/122/34 3/3/23 4/4/1 77/123/35
f 31/46/36 28/43/37 45/72/38 44/69/39
f 25/37/40 37/57/41 24/36/42
f 37/57/41 38/58/43 24/36/42
f 36/56/44 32/49/45 66/105/46 68/109/47
f 48/77/11 78/125/10 79/126/48 47/76/49
f 75/121/50 50/79/51 5/6/52 71/115/53
f 82/130/54 2/2/21 3/3/23
f 8/10/55 6/8/14 5/7/52 9/11/56
f 7/9/12 10/13/57 12/17/28
f 10/13/57 8/10/55 9/11/56 11/15/19
f 53/84/58 51/81/59 39/61/60 42/67/61 49/78/62 1/1/5
f 13/18/31 10/13/57 11/15/19 14/20/16
f 9/12/56 5/6/52 50/79/51 41/66/63
f 17/24/30 20/28/64 2/2/21
f 22/32/22 20/28/64 21/29/65 23/34/2
f 26/38/66 24/35/42 62/98/67 64/101/68
f 20/28/64 18/25/69 19/26/32 21/29/65
f 23/33/2 21/30/65 58/91/70 60/95/3
f 18/25/69 16/23/29 15/22/15 19/26/32
f 21/31/65 19/27/32 56/88/33 58/92/70
f 3/3/23 22/32/22 23/34/2 4/4/1
f 53/84/58 1/1/5 48/77/11 59/94/71 57/90/72 55/87/73
f 34/53/25 35/54/74 37/57/41
f 37/57/41 35/54/74 36/55/44 38/58/43
f 34/53/25 33/52/75 35/54/74
f 35/54/74 33/52/75 32/50/45 36/55/44
f 38/59/43 36/56/44 68/109/47 70/112/76
f 24/35/42 38/60/43 70/113/76 62/98/67
f 29/44/26 25/37/40 27/41/77
f 27/41/77 25/37/40 26/40/66 28/42/37
f 77/124/35 4/5/1 47/75/4 79/127/78
f 29/44/26 27/41/77 30/45/79
f 30/45/79 27/41/77 28/42/37 31/48/36
f 28/43/37 26/39/66 64/102/68 45/72/38
f 26/40/66 25/37/40 24/36/42
f 29/44/26 34/53/25 37/57/41 25/37/40
f 42/67/61 39/61/60 40/63/80 41/65/81
f 46/74/82 43/68/83 44/70/84 45/73/85
f 51/81/59 53/84/58 54/86/86 52/83/87
f 69/111/7 61/97/6 62/99/88 70/114/89
f 74/119/90 49/78/62 50/80/91 75/120/92
f 49/78/62 74/119/90 43/68/83 46/74/82 63/100/93 61/97/6 1/1/5
f 78/125/10 65/104/9 66/106/94 79/126/48
f 57/90/72 59/94/71 60/96/95 58/93/96
f 55/87/73 57/90/72 58/93/96 56/89/97
f 53/84/58 55/87/73 56/89/97 54/86/86
f 59/94/71 48/77/11 47/76/49 60/96/95
f 67/108/8 69/111/7 70/114/89 68/110/98
f 65/104/9 67/108/8 68/110/98 66/106/94
f 61/97/6 63/100/93 64/103/99 62/99/88
f 49/78/62 42/67/61 41/65/81 50/80/91
f 39/61/60 51/81/59 52/83/87 40/63/80
f 63/100/93 46/74/82 45/73/85 64/103/99
f 11/16/19 9/12/56 41/66/63 40/64/20
f 30/45/79 72/117/100 73/118/27 29/44/26
f 43/68/83 74/119/90 75/120/92 44/70/84
f 44/71/39 75/121/50 71/115/53 31/47/36
f 31/48/36 71/116/53 72/117/100 30/45/79
f 34/53/25 80/128/24 76/122/34 33/52/75
f 33/52/75 76/122/34 77/123/35 32/50/45
f 32/51/45 77/124/35 79/127/78 66/107/46
f 12/17/28 17/24/30 2/2/21 7/9/12
f 5/7/52 6/8/14 72/117/100 71/116/53
f 20/28/64 17/24/30 18/25/69
f 20/28/64 22/32/22 2/2/21
f 10/13/57 7/9/12 8/10/55
f 16/23/29 12/17/28 13/18/31
f 16/23/29 18/25/69 17/24/30
f 10/13/57 13/18/31 12/17/28
f 80/128/24 73/118/27 81/129/13 82/130/54
f 73/118/27 72/117/100 81/129/13
f 72/117/100 6/8/14 81/129/13
f 82/130/54 3/3/23 76/122/34
f 80/128/24 82/130/54 76/122/34
f 2/2/21 82/130/54 81/129/13 7/9/12
f 8/10/55 7/9/12 6/8/14
f 95/143/101 86/134/102 96/144/103
f 93/141/104 86/134/102 95/143/101 94/142/105
f 83/131/106 87/135/107 98/146/108 97/145/109
f 90/138/110 83/131/106 97/145/109 99/147/111
f 102/150/112 89/137/113 101/149/114
f 87/135/107 91/139/115 92/140/116 88/136/117
f 89/137/113 84/132/118 103/151/119
f 101/149/114 89/137/113 90/138/110 100/148/120
f 91/139/115 93/141/104 94/142/105 92/140/116
f 87/135/107 88/136/117 98/146/108
f 104/152/121 86/134/102 93/141/104
f 103/151/119 104/152/121 87/135/107 83/131/106
f 95/143/122 96/144/122 98/146/122 88/136/122 92/140/122 94/142/122
f 100/148/123 99/147/123 97/145/123 98/146/123 96/144/123 85/133/123 102/150/123 101/149/123
f 86/134/102 84/132/118 85/133/124 96/144/103
f 85/133/124 84/132/118 89/137/113 102/150/112
f 100/148/120 90/138/110 99/147/111
f 84/132/118 86/134/102 104/152/121 103/151/119
f 87/135/107 104/152/121 91/139/115
f 83/131/106 90/138/110 103/151/119
f 93/141/104 91/139/115 104/152/121
f 90/138/110 89/137/113 103/151/119
