# Blender 3.4.0
# www.blender.org
mtllib pc_mp_1.mtl
o pc_mp_1
v -0.114750 -0.000000 0.255278
v -0.095472 0.259181 0.275400
v -0.114750 -0.000000 -0.275400
v -0.114750 0.550800 -0.275400
v 0.114750 -0.000000 0.255278
v 0.095472 0.259181 0.275400
v 0.114750 -0.000000 -0.275400
v 0.114750 0.550800 -0.275400
v -0.095472 0.186926 0.275400
v 0.095472 0.186926 0.275400
v -0.114750 0.022500 0.275400
v -0.114750 0.550800 0.275400
v 0.114750 0.550800 0.275400
v 0.114750 0.022500 0.275400
v -0.095472 0.186926 0.266400
v -0.095472 0.259181 0.266400
v 0.095472 0.259181 0.266400
v 0.095472 0.186926 0.266400
vn 1.0000 -0.0000 -0.0000
vn -0.0000 -0.0000 -1.0000
vn -0.0000 1.0000 -0.0000
vn -0.0000 -1.0000 -0.0000
vn -0.0000 -0.6666 0.7454
vn -1.0000 -0.0000 -0.0000
vn -0.0000 -0.0000 1.0000
vt 0.767726 0.523702
vt 0.000000 0.501129
vt 0.748165 0.000000
vt 0.019511 0.735874
vt 0.022005 0.733634
vt 0.080685 0.733634
vt 0.000000 0.002257
vt 0.767726 0.997743
vt 0.232274 0.000000
vt 0.000000 0.501129
vt 0.767726 0.000000
vt 0.232274 0.498871
vt 1.000000 0.523702
vt 0.232274 0.501129
vt 0.748165 0.498871
vt 0.212763 0.735874
vt 0.212714 0.733634
vt 0.080685 0.733634
vt 0.232274 0.002257
vt 1.000000 0.997743
vt 0.232274 0.498871
vt 0.232274 0.501129
vt 1.000000 0.000000
vt 0.232274 1.000000
vt 0.022005 0.733634
vt 0.019511 0.670431
vt 0.154034 0.733634
vt 0.212714 0.733634
vt 0.212763 0.670431
vt 0.154034 0.733634
vt 0.767726 0.020379
vt -0.000000 0.521507
vt 0.000000 1.000000
vt 0.767726 0.498871
vt 1.000000 0.498871
vt 0.232274 1.000000
vt 0.767726 1.000000
vt 0.767726 0.519342
vt 0.232274 0.521507
vt 0.022005 0.742664
vt 0.019511 0.670431
vt 0.154034 0.742664
vt 0.019511 0.735874
vt 0.022005 0.742664
vt 0.080685 0.742664
vt 0.212763 0.735874
vt 0.212714 0.742664
vt 0.080685 0.742664
vt 0.212714 0.742664
vt 0.212763 0.670431
vt 0.154034 0.742664
s 0
usemtl pc_mp_1
f 5/15/1 13/37/1 14/38/1
f 3/7/2 4/10/2 8/22/2 7/19/2
f 9/25/3 10/28/3 18/49/3 15/40/3
f 3/8/4 7/20/4 5/13/4 1/1/4
f 8/23/3 4/11/3 12/34/3 13/35/3
f 5/14/5 14/39/5 11/32/5 1/2/5
f 1/3/6 11/31/6 12/34/6
f 9/26/7 2/4/7 12/33/7 11/32/7
f 2/4/7 6/16/7 13/36/7 12/33/7
f 6/16/7 10/29/7 14/39/7 13/36/7
f 10/29/7 9/26/7 11/32/7 14/39/7
f 18/50/7 17/46/7 16/43/7 15/41/7
f 6/17/4 2/5/4 16/44/4 17/47/4
f 10/30/6 6/18/6 17/48/6 18/51/6
f 2/6/1 9/27/1 15/42/1 16/45/1
f 3/9/6 1/3/6 12/34/6 4/12/6
f 7/21/1 8/24/1 13/37/1 5/15/1
