# Blender 3.4.0
# www.blender.org
mtllib vent_3.mtl
o vent_3
v -0.409589 -0.400000 -0.000000
v 0.409589 -0.400000 -0.000000
v -0.409589 0.400000 0.000000
v 0.409589 0.400000 0.000000
v -0.340789 0.331200 0.005000
v -0.340789 -0.331200 0.005000
v 0.340789 -0.331200 0.005000
v 0.340789 0.331200 0.005000
v -0.340789 0.331200 0.020000
v -0.340789 -0.331200 0.020000
v 0.340789 -0.331200 0.020000
v 0.340789 0.331200 0.020000
v -0.409589 0.400000 0.020000
v -0.409589 -0.400000 0.020000
v 0.409589 -0.400000 0.020000
v 0.409589 0.400000 0.020000
vn -0.0000 -0.0000 1.0000
vn -0.0000 1.0000 -0.0000
vn -0.0000 -1.0000 -0.0000
vn 1.0000 -0.0000 -0.0000
vn -1.0000 -0.0000 -0.0000
vt 0.000000 0.986014
vt 0.013986 0.986014
vt 1.000000 0.986014
vt 0.013986 0.986014
vt 0.000000 0.986014
vt 0.986014 0.986014
vt 1.000000 0.986014
vt 0.986014 0.986014
vt 0.083916 0.046154
vt 0.083916 0.916084
vt 0.916084 0.046154
vt 0.083916 0.083916
vt 0.083916 0.046154
vt 0.083916 0.046154
vt 0.916084 0.046154
vt 0.916084 0.083916
vt 0.916084 0.046154
vt 0.916084 0.916084
vt 0.083916 0.062937
vt 0.916084 0.062937
vt 0.083916 0.916084
vt 0.083916 0.062937
vt 0.083916 0.083916
vt 0.083916 0.062937
vt 0.916084 0.062937
vt 0.916084 0.083916
vt 0.916084 0.062937
vt 0.916084 0.916084
vt 0.000000 1.013986
vt 0.986014 1.013986
vt 0.000000 1.000000
vt 0.000000 1.013986
vt 0.013986 1.013986
vt 0.000000 0.000000
vt 1.000000 1.013986
vt 0.013986 1.013986
vt 1.000000 -0.000000
vt 1.000000 1.013986
vt 0.986014 1.013986
vt 1.000000 1.000000
s 0
usemtl vent_3
f 9/21/1 13/31/1 14/34/1 10/23/1
f 4/7/2 3/5/2 13/29/2 16/38/2
f 1/1/3 2/3/3 15/35/3 14/32/3
f 2/4/4 4/8/4 16/39/4 15/36/4
f 12/27/3 9/19/3 5/9/3 8/17/3
f 11/24/5 12/27/5 8/17/5 7/14/5
f 3/6/5 1/2/5 14/33/5 13/30/5
f 10/22/2 11/25/2 7/15/2 6/13/2
f 6/12/1 7/16/1 8/18/1 5/10/1
f 9/20/4 10/22/4 6/13/4 5/11/4
f 14/34/1 15/37/1 11/26/1 10/23/1
f 15/37/1 16/40/1 12/28/1 11/26/1
f 16/40/1 13/31/1 9/21/1 12/28/1
