# Blender 3.4.0
# www.blender.org
mtllib vent_mp_1.mtl
o vent_mp_1
v -0.164996 -0.100000 -0.000001
v 0.165004 -0.100000 -0.000001
v -0.164996 0.100000 -0.000001
v 0.165004 0.100000 -0.000001
v -0.146996 0.082000 0.013999
v -0.146996 -0.082000 0.013999
v 0.147004 -0.082000 0.013999
v 0.147004 0.082000 0.013999
v -0.164996 0.100000 0.013999
v -0.164996 -0.100000 0.013999
v 0.165004 -0.100000 0.013999
v 0.165004 0.100000 0.013999
v -0.133654 0.067440 0.018999
v -0.133654 -0.069109 0.018999
v 0.131951 -0.069109 0.018999
v 0.131951 0.067440 0.018999
v -0.146996 0.082000 0.018999
v -0.146996 -0.082000 0.018999
v 0.147004 -0.082000 0.018999
v 0.147004 0.082000 0.018999
v -0.133654 0.067440 0.013999
v -0.133654 -0.069109 0.013999
v 0.131951 -0.069109 0.013999
v 0.131951 0.067440 0.013999
vn -0.0000 1.0000 -0.0000
vn -0.0000 -1.0000 -0.0000
vn 1.0000 -0.0000 -0.0000
vn -1.0000 -0.0000 -0.0000
vn -0.0000 -0.0000 1.0000
vt 0.000000 0.929825
vt 0.210526 0.929825
vt 1.000000 0.929825
vt 0.210526 0.929825
vt 0.000000 0.929825
vt 0.810526 0.929825
vt 1.000000 0.929825
vt 0.810526 0.929825
vt 0.054545 0.910000
vt 0.989054 0.985916
vt 0.007923 0.985916
vt 0.007923 0.985916
vt 0.054545 0.090000
vt 0.435648 0.985916
vt 1.000000 0.985916
vt 0.945455 0.090000
vt 0.435648 0.985916
vt 0.945455 0.910000
vt 0.989054 0.985916
vt 1.000000 0.985916
vt 0.810526 1.000000
vt 0.000000 1.000000
vt 0.000000 1.000000
vt 0.210526 1.000000
vt 0.000000 0.000000
vt 1.000000 1.000000
vt 0.210526 1.000000
vt 1.000000 -0.000000
vt 0.810526 1.000000
vt 1.000000 1.000000
vt 0.094976 0.837197
vt 0.939920 1.014160
vt 0.052945 1.014160
vt 0.094976 0.154456
vt 0.479148 1.014160
vt 0.052945 1.014160
vt 0.479148 1.014160
vt 0.899840 0.154456
vt 0.949206 1.014160
vt 0.939920 1.014160
vt 0.899840 0.837197
vt 0.949206 1.014160
vt 0.989054 1.014160
vt 0.007923 1.014160
vt 0.054545 0.910000
vt 0.007923 1.014160
vt 0.435648 1.014160
vt 0.054545 0.090000
vt 1.000000 1.014160
vt 0.435648 1.014160
vt 0.945455 0.090000
vt 0.989054 1.014160
vt 1.000000 1.014160
vt 0.945455 0.910000
vt 0.094976 0.837197
vt 0.939920 0.985916
vt 0.052945 0.985916
vt 0.094976 0.154456
vt 0.479148 0.985916
vt 0.052945 0.985916
vt 0.479148 0.985916
vt 0.899840 0.154456
vt 0.949206 0.985916
vt 0.939920 0.985916
vt 0.899840 0.837197
vt 0.949206 0.985916
s 0
usemtl vents_mp_1
f 4/7/1 3/5/1 9/22/1 12/30/1
f 1/1/2 2/3/2 11/26/2 10/23/2
f 2/4/3 4/8/3 12/29/3 11/27/3
f 3/6/4 1/2/4 10/24/4 9/21/4
f 6/12/2 7/15/2 19/49/2 18/46/2
f 6/13/5 5/9/5 9/22/5 10/25/5
f 7/16/5 6/13/5 10/25/5 11/28/5
f 8/18/5 7/16/5 11/28/5 12/30/5
f 5/9/5 8/18/5 12/30/5 9/22/5
f 15/37/4 16/40/4 24/64/4 23/61/4
f 7/17/3 8/19/3 20/52/3 19/50/3
f 5/10/4 6/14/4 18/47/4 17/43/4
f 8/20/1 5/11/1 17/44/1 20/53/1
f 14/34/5 13/31/5 17/45/5 18/48/5
f 15/38/5 14/34/5 18/48/5 19/51/5
f 16/41/5 15/38/5 19/51/5 20/54/5
f 13/31/5 16/41/5 20/54/5 17/45/5
f 21/55/5 22/58/5 23/62/5 24/65/5
f 13/32/3 14/35/3 22/59/3 21/56/3
f 16/42/2 13/33/2 21/57/2 24/66/2
f 14/36/1 15/39/1 23/63/1 22/60/1
