# Blender 3.4.0
# www.blender.org
mtllib vent_1.mtl
o vent_1
v -0.410000 -0.400000 0.000000
v 0.410000 -0.400000 0.000000
v -0.410000 0.400000 0.000000
v 0.410000 0.400000 0.000000
v -0.370000 0.360000 -0.000000
v -0.370000 0.240000 0.010000
v -0.370000 0.150000 0.010000
v -0.370000 0.050000 0.000000
v -0.370000 -0.050000 0.000000
v -0.370000 -0.150000 0.000000
v -0.370000 -0.260000 0.000000
v 0.370000 -0.260000 0.000000
v 0.370000 -0.150000 0.000000
v 0.370000 -0.050000 0.000000
v 0.370000 0.050000 0.000000
v 0.370000 0.150000 0.010000
v 0.370000 0.240000 0.010000
v -0.370000 -0.355000 0.025000
v 0.370000 0.245000 0.025000
v -0.370000 0.245000 0.025000
v -0.370000 0.155000 0.025000
v -0.370000 0.055000 0.025000
v -0.370000 -0.045000 0.025000
v -0.370000 -0.145000 0.025000
v -0.370000 -0.255000 0.025000
v 0.370000 -0.355000 0.025000
v 0.370000 -0.255000 0.025000
v 0.370000 -0.145000 0.025000
v 0.370000 -0.045000 0.025000
v 0.370000 0.055000 0.025000
v 0.370000 0.155000 0.025000
v -0.370000 0.360000 0.030000
v 0.370000 0.360000 0.030000
v -0.410000 0.400000 0.030000
v -0.410000 -0.400000 0.030000
v 0.410000 -0.400000 0.030000
v 0.410000 0.400000 0.030000
v -0.370000 -0.360000 0.000000
v 0.370000 -0.360000 0.000000
v -0.370000 -0.360000 0.030000
v 0.370000 0.360000 -0.000000
v 0.370000 -0.360000 0.030000
vn -0.0000 -1.0000 -0.0000
vn 1.0000 -0.0000 -0.0000
vn -0.0000 1.0000 -0.0000
vn -0.0000 0.2545 0.9671
vn -0.0000 0.2124 0.9772
vn -0.0000 -0.9487 0.3162
vn -0.0000 -0.9806 0.1961
vn -0.0000 0.2316 0.9728
vn -0.0000 0.1560 0.9878
vn -0.0000 0.1738 0.9848
vn -0.0000 -0.0000 1.0000
vn -1.0000 -0.0000 -0.0000
vt 0.000000 0.809814
vt 0.011706 0.809814
vt 0.011706 0.809814
vt 1.000000 0.809814
vt 0.000000 0.809814
vt 0.988294 0.809814
vt 0.988294 0.809814
vt 1.000000 0.809814
vt 0.048723 0.852234
vt 0.055944 0.944056
vt 0.939080 0.852234
vt 0.055944 0.797203
vt 0.055944 0.916084
vt 0.055944 0.916084
vt 0.055944 0.685315
vt 0.055944 0.902098
vt 0.055944 0.559441
vt 0.055944 0.902098
vt 0.055944 0.433566
vt 0.055944 0.902098
vt 0.055944 0.300699
vt 0.055944 0.174825
vt 0.055944 0.902098
vt 0.944056 0.174825
vt 0.944056 0.902098
vt 0.944056 0.902098
vt 0.944056 0.300699
vt 0.944056 0.902098
vt 0.944056 0.433566
vt 0.944056 0.902098
vt 0.944056 0.559441
vt 0.944056 0.916084
vt 0.944056 0.685315
vt 0.944056 0.797203
vt 0.944056 0.916084
vt 0.055944 0.062937
vt 0.055944 0.937063
vt 0.944056 0.811189
vt 0.944056 0.937063
vt 0.055944 0.811189
vt 0.055944 0.937063
vt 0.055944 0.937063
vt 0.055944 0.685315
vt 0.055944 0.937063
vt 0.055944 0.573427
vt 0.055944 0.937063
vt 0.055944 0.440559
vt 0.055944 0.937063
vt 0.055944 0.321678
vt 0.055944 0.937063
vt 0.055944 0.202797
vt 0.944056 0.062937
vt 0.944056 0.937063
vt 0.944056 0.937063
vt 0.944056 0.202797
vt 0.944056 0.937063
vt 0.944056 0.321678
vt 0.944056 0.937063
vt 0.944056 0.440559
vt 0.944056 0.937063
vt 0.944056 0.573427
vt 0.944056 0.937063
vt 0.944056 0.685315
vt 0.049061 0.797759
vt 0.048951 0.951049
vt 0.938751 0.797759
vt 0.950939 0.797759
vt 0.951049 0.951049
vt 0.938751 0.797759
vt 0.000001 0.846097
vt -0.000000 1.000000
vt 0.988294 0.845782
vt -0.000000 0.845782
vt -0.000000 -0.000000
vt 0.011707 0.846097
vt 0.011707 0.846097
vt 0.999999 0.846098
vt 1.000000 0.000000
vt 0.988294 0.845782
vt 1.000000 0.845782
vt 1.000000 1.000000
vt 0.048723 0.852234
vt 0.060920 0.852234
vt 0.055944 0.902098
vt 0.951277 0.852234
vt 0.060920 0.852234
vt 0.944056 0.902098
vt 0.048951 0.048951
vt 0.049061 0.797759
vt 0.061249 0.797759
vt 0.951277 0.852234
vt 0.944056 0.944056
vt 0.939080 0.852234
vt 0.951049 0.048951
vt 0.950939 0.797759
vt 0.061249 0.797759
s 0
usemtl vent_1
f 33/67/1 32/64/1 5/9/1 41/91/1
f 37/79/2 36/76/2 2/3/2 4/7/2
f 34/70/3 37/80/3 4/8/3 3/5/3
f 36/77/1 35/73/1 1/1/1 2/4/1
f 18/36/4 26/52/4 12/24/4 11/22/4
f 20/40/5 19/38/5 41/92/5 5/10/5
f 31/62/6 21/42/6 7/14/6 16/32/6
f 30/60/7 22/44/7 8/16/7 15/30/7
f 29/58/7 23/46/7 9/18/7 14/28/7
f 28/56/7 24/48/7 10/20/7 13/26/7
f 27/54/7 25/50/7 11/23/7 12/25/7
f 13/27/8 10/21/8 25/51/8 27/55/8
f 14/29/4 9/19/4 24/49/4 28/57/4
f 15/31/4 8/17/4 23/47/4 29/59/4
f 16/33/9 7/15/9 22/45/9 30/61/9
f 17/34/10 6/12/10 21/43/10 31/63/10
f 6/13/6 17/35/6 19/39/6 20/41/6
f 35/74/11 40/88/11 32/65/11 34/71/11
f 36/78/11 42/94/11 40/88/11 35/74/11
f 37/81/11 33/68/11 42/94/11 36/78/11
f 34/71/11 32/65/11 33/68/11 37/81/11
f 35/75/12 34/72/12 3/6/12 1/2/12
f 42/95/3 39/85/3 38/82/3 40/89/3
f 32/66/2 40/90/2 38/83/2 5/11/2
f 33/69/12 41/93/12 39/86/12 42/96/12
f 18/37/7 38/84/7 39/87/7 26/53/7
