# Blender 3.4.0
# www.blender.org
mtllib pipe_valve_holder_large_1.mtl
o pipe_valve_holder_large_1
v -0.029387 -0.040451 -0.000000
v -0.047551 -0.015451 -0.000000
v -0.047551 0.015451 -0.000000
v -0.029387 0.040451 -0.000000
v 0.000002 -0.050000 -0.000000
v 0.047555 -0.015451 -0.000000
v 0.029391 -0.040451 -0.000000
v 0.000002 0.050000 -0.000000
v 0.029391 0.040451 -0.000000
v 0.047555 0.015451 -0.000000
v 0.047555 -0.015451 0.080000
v 0.000002 0.050000 0.080000
v -0.047551 -0.015451 0.080000
v 0.000002 -0.050000 0.080000
v -0.029387 -0.040451 0.080000
v -0.029387 0.040451 0.080000
v -0.047551 0.015451 0.080000
v 0.029391 -0.040451 0.080000
v 0.029391 0.040451 0.080000
v 0.047555 0.015451 0.080000
v 0.032678 -0.010617 0.100000
v 0.000002 0.034358 0.100000
v -0.032674 -0.010617 0.100000
v 0.000002 -0.034358 0.100000
v -0.020193 -0.027796 0.100000
v -0.020193 0.027796 0.100000
v -0.032674 0.010617 0.100000
v 0.020197 -0.027796 0.100000
v 0.020197 0.027796 0.100000
v 0.032678 0.010617 0.100000
vn -0.5878 0.8090 -0.0000
vn -0.9511 0.3090 -0.0000
vn 0.5878 0.8090 -0.0000
vn 0.9511 0.3090 -0.0000
vn -0.0000 1.0000 -0.0000
vn -0.0000 -0.0000 1.0000
vn 0.9511 -0.3090 -0.0000
vn -0.5878 -0.8090 -0.0000
vn -0.9511 -0.3090 -0.0000
vn 0.5878 -0.8090 -0.0000
vn -0.0000 -1.0000 -0.0000
vn -0.7491 -0.2434 0.6161
vn -0.7491 0.2434 0.6161
vn 0.4630 0.6373 0.6161
vn -0.0000 0.7877 0.6161
vn 0.4630 -0.6373 0.6161
vn -0.0000 -0.7877 0.6161
vn -0.4630 0.6373 0.6161
vn -0.4630 -0.6373 0.6161
vn 0.7491 -0.2434 0.6161
vn 0.7491 0.2434 0.6161
vt 0.311327 0.620000
vt 0.311327 0.590000
vt 0.311327 0.560000
vt 0.311327 0.530000
vt 0.311327 0.650000
vt 0.311327 0.350000
vt 0.311327 0.410000
vt 0.311327 0.380000
vt 0.311327 0.500000
vt 0.311327 0.470000
vt 0.311327 0.440000
vt 0.234617 0.410000
vt 0.357949 0.499088
vt 0.234617 0.500000
vt 0.311327 0.427794
vt 0.357949 0.356500
vt 0.234617 0.590000
vt 0.234617 0.650000
vt 0.416540 0.500635
vt 0.416540 0.354953
vt 0.234617 0.350000
vt 0.234617 0.620000
vt 0.387094 0.350000
vt 0.234617 0.530000
vt 0.317056 0.398488
vt 0.333399 0.373497
vt 0.234617 0.560000
vt 0.387093 0.505588
vt 0.234617 0.380000
vt 0.234617 0.470000
vt 0.317056 0.457100
vt 0.234617 0.440000
vt 0.333398 0.482091
vt 0.367710 0.476784
vt 0.373219 0.553084
vt 0.320570 0.561422
vt 0.335673 0.427794
vt 0.367710 0.378805
vt 0.328909 0.508773
vt 0.407971 0.477847
vt 0.407971 0.377741
vt 0.367161 0.514832
vt 0.387736 0.374338
vt 0.349019 0.505588
vt 0.339610 0.407657
vt 0.311327 0.543281
vt 0.350840 0.390484
vt 0.314512 0.523170
vt 0.387736 0.481250
vt 0.376404 0.532973
vt 0.339610 0.447931
vt 0.338712 0.570666
vt 0.350840 0.465104
vt 0.358822 0.567481
s 1
usemtl pipe_mp_1
f 16/24/1 4/4/1 3/3/2 17/27/2
f 9/10/3 19/30/3 20/32/4 10/11/4
f 8/9/5 12/14/5 19/30/3 9/10/3
f 21/35/6 29/52/6 23/39/6 25/44/6
f 11/12/7 6/7/7 10/11/4 20/32/4
f 1/1/8 15/22/8 13/17/9 2/2/9
f 12/14/5 8/9/5 4/4/1 16/24/1
f 26/46/6 23/39/6 29/52/6 22/36/6
f 18/29/10 7/8/10 6/7/7 11/12/7
f 5/5/11 14/18/11 15/22/8 1/1/8
f 13/16/12 23/38/12 27/47/13 17/26/13
f 19/31/14 12/15/15 22/37/15 29/51/14
f 18/28/16 28/49/16 24/40/17 14/19/17
f 17/26/13 27/47/13 26/45/18 16/25/18
f 15/23/19 14/20/17 24/41/17 25/43/19
f 16/25/18 26/45/18 22/37/15 12/15/15
f 15/23/19 25/43/19 23/38/12 13/16/12
f 11/13/20 20/33/21 30/53/21 21/34/20
f 11/13/20 21/34/20 28/49/16 18/28/16
f 20/33/21 19/31/14 29/51/14 30/53/21
f 21/35/6 30/54/6 29/52/6
f 24/42/6 28/50/6 21/35/6 25/44/6
f 26/46/6 27/48/6 23/39/6
f 14/21/11 5/6/11 7/8/10 18/29/10
f 13/17/9 17/27/2 3/3/2 2/2/9
o valve_1
v 0.123447 0.071519 0.176709
v 0.037111 0.137642 0.176709
v 0.137873 -0.037023 0.176709
v 0.071714 -0.123284 0.176709
v 0.019304 -0.141206 0.176709
v -0.137619 0.037431 0.176709
v -0.071428 0.123495 0.176709
v -0.018324 0.141846 0.176709
v -0.140878 -0.012620 0.176709
v -0.123861 -0.070877 0.176709
v -0.036922 -0.137765 0.176709
v -0.063606 0.108637 0.176709
v -0.119338 0.035950 0.176709
v 0.034011 0.120996 0.176709
v 0.107527 0.063788 0.176709
v -0.032411 -0.119168 0.176709
v -0.107864 -0.061493 0.176709
v 0.120383 -0.032915 0.176709
v 0.065091 -0.105844 0.176709
v -0.016253 0.123829 0.176709
v 0.140263 0.022869 0.176709
v 0.122356 0.019825 0.176709
v -0.123273 -0.011930 0.176709
v 0.016565 -0.123019 0.176709
v 0.123445 0.071519 0.153291
v 0.037109 0.137642 0.153291
v 0.137871 -0.037023 0.153291
v 0.071713 -0.123285 0.153291
v 0.019303 -0.141206 0.153291
v -0.137621 0.037431 0.153291
v -0.071430 0.123495 0.153291
v -0.018326 0.141846 0.153291
v -0.140880 -0.012620 0.153291
v -0.123863 -0.070877 0.153291
v -0.036924 -0.137765 0.153291
v -0.063609 0.108637 0.153291
v -0.119340 0.035950 0.153291
v 0.034009 0.120996 0.153291
v 0.107525 0.063788 0.153291
v -0.032414 -0.119168 0.153291
v -0.107866 -0.061493 0.153291
v 0.120381 -0.032915 0.153291
v 0.065089 -0.105844 0.153291
v -0.016256 0.123829 0.153291
v 0.140262 0.022869 0.153291
v 0.122353 0.019825 0.153291
v -0.123275 -0.011931 0.153291
v 0.016563 -0.123019 0.153291
v -0.014314 -0.004652 0.100000
v -0.008846 0.012178 0.100000
v 0.000002 -0.015053 0.100000
v 0.014319 -0.004652 0.100000
v 0.008851 0.012178 0.100000
v 0.014319 -0.004652 0.120000
v -0.014314 -0.004652 0.120000
v 0.000002 -0.015053 0.120000
v -0.008846 0.012178 0.120000
v 0.008851 0.012178 0.120000
v 0.086331 0.112059 0.176709
v 0.112275 -0.085962 0.176709
v -0.112263 0.086168 0.176709
v -0.086093 -0.112182 0.176709
v -0.098563 0.075950 0.176709
v 0.077475 0.098017 0.176709
v -0.076691 -0.095685 0.176709
v 0.099765 -0.075437 0.176709
v 0.086329 0.112059 0.153291
v 0.112273 -0.085962 0.153291
v -0.112264 0.086168 0.153291
v -0.086095 -0.112182 0.153291
v -0.098565 0.075949 0.153291
v 0.077473 0.098016 0.153291
v -0.076693 -0.095685 0.153291
v 0.099763 -0.075437 0.153291
v -0.035720 0.117583 0.170000
v -0.123354 0.016714 0.170000
v -0.108839 0.003039 0.170000
v -0.038511 0.007504 0.130000
v -0.026231 0.018668 0.130000
v -0.022325 0.035412 0.130000
v -0.027069 0.104066 0.170000
v 0.010531 0.036083 0.130000
v 0.101254 0.028193 0.170000
v 0.031018 0.017960 0.130000
v 0.017296 0.024240 0.130000
v 0.001250 0.107266 0.170000
v 0.115672 0.045403 0.170000
v -0.037653 -0.025738 0.130000
v -0.020351 -0.032436 0.130000
v -0.011699 -0.046948 0.130000
v 0.000250 -0.109883 0.170000
v -0.105734 -0.026580 0.170000
v 0.026516 -0.025864 0.130000
v 0.040703 -0.016329 0.130000
v 0.107215 0.002277 0.170000
v 0.125358 -0.008421 0.170000
v 0.030150 -0.106024 0.170000
v 0.022593 -0.039742 0.130000
v -0.124030 -0.012190 0.170000
v -0.016411 0.123829 0.170000
v -0.035723 0.117583 0.160000
v -0.123356 0.016714 0.160000
v -0.108841 0.003039 0.160000
v -0.038513 0.007504 0.120000
v -0.026234 0.018667 0.120000
v -0.022327 0.035412 0.120000
v -0.027071 0.104066 0.160000
v 0.010529 0.036082 0.120000
v 0.101252 0.028193 0.160000
v 0.031016 0.017960 0.120000
v 0.017294 0.024240 0.120000
v 0.001247 0.107266 0.160000
v 0.008224 0.122449 0.160000
v -0.037655 -0.025738 0.120000
v -0.020354 -0.032436 0.120000
v -0.011702 -0.046948 0.120000
v 0.000248 -0.109883 0.160000
v -0.010252 -0.123449 0.160000
v -0.118061 -0.040535 0.160000
v -0.105736 -0.026580 0.160000
v 0.026514 -0.025864 0.120000
v 0.040701 -0.016329 0.120000
v 0.107213 0.002277 0.160000
v 0.125355 -0.008421 0.160000
v 0.030148 -0.106024 0.160000
v 0.022591 -0.039742 0.120000
v 0.008227 0.122449 0.170000
v -0.010250 -0.123449 0.170000
v -0.118059 -0.040535 0.170000
v 0.042746 -0.118427 0.170000
v 0.123178 0.019923 0.170000
v 0.016647 -0.123915 0.170000
v 0.115670 0.045403 0.160000
v 0.042743 -0.118427 0.160000
v -0.016413 0.123829 0.160000
v 0.123176 0.019923 0.160000
v -0.124032 -0.012190 0.160000
v 0.016645 -0.123915 0.160000
vn 0.1338 -0.9910 -0.0000
vn 0.5113 -0.8594 -0.0000
vn 0.9609 -0.2769 -0.0001
vn 0.7967 -0.6044 -0.0001
vn -0.0000 -0.0000 -1.0000
vn -0.1305 0.9914 -0.0000
vn -0.5056 0.8628 -0.0000
vn -0.1305 0.9915 -0.0000
vn -0.0000 -0.0000 1.0000
vn -0.8664 -0.4994 0.0001
vn -0.9897 -0.1435 0.0001
vn -0.9703 0.2420 0.0001
vn -0.7954 0.6061 0.0001
vn 0.7934 -0.6087 -0.0001
vn 0.6128 0.7902 -0.0001
vn 0.2793 0.9602 -0.0000
vn 0.8677 0.4972 -0.0001
vn 0.8676 0.4972 -0.0001
vn -0.5112 0.8594 -0.0000
vn -0.1281 0.9918 -0.0000
vn -0.1282 0.9918 -0.0000
vn -0.5113 0.8594 -0.0000
vn -0.7931 0.6091 0.0001
vn -0.7931 0.6092 0.0001
vn -0.8715 -0.4903 0.0001
vn -0.6091 -0.7931 0.0001
vn -0.2680 -0.9634 -0.0000
vn 0.1267 -0.9919 -0.0000
vn -0.6197 -0.7849 0.0001
vn 0.9940 0.1095 -0.0001
vn -0.9940 -0.1094 0.0001
vn -0.9631 0.2690 0.0001
vn 0.9893 0.1459 -0.0001
vn 0.8592 0.5116 -0.0001
vn 0.9662 -0.2580 -0.0001
vn -0.2671 -0.9637 -0.0000
vn -0.2672 -0.9637 -0.0000
vn 0.5065 -0.8622 -0.0000
vn 0.2740 0.9617 -0.0000
vn 0.6087 0.7934 -0.0000
vn -0.5878 0.8090 -0.0000
vn -0.9511 -0.3090 -0.0000
vn -0.0000 -1.0000 -0.0000
vn 0.5878 0.8090 -0.0000
vn 0.9511 -0.3090 -0.0000
vn -0.0887 0.5146 0.8528
vn -0.0387 0.2246 0.9737
vn -0.0419 0.2432 0.9691
vn 0.2263 0.0588 -0.9723
vn 0.1941 0.0504 -0.9797
vn 0.4812 0.1251 -0.8676
vn -0.0312 0.4940 -0.8689
vn -0.0134 0.2125 -0.9771
vn -0.0152 0.2400 -0.9706
vn -0.4993 -0.0315 -0.8659
vn -0.2078 -0.0131 -0.9781
vn -0.2285 -0.0144 -0.9734
vn -0.7908 0.6121 0.0002
vn 0.7017 0.7125 -0.0002
vn -0.0634 0.9980 -0.0000
vn -0.3440 0.9390 0.0001
vn -0.4523 0.8918 0.0001
vn -0.9939 0.1101 0.0002
vn -0.8622 0.5065 0.0002
vn -0.8623 0.5064 0.0002
vn -0.9983 0.0584 0.0002
vn 0.9926 -0.1216 -0.0002
vn 0.8096 -0.5869 -0.0002
vn 0.8096 -0.5870 -0.0002
vn 0.9986 -0.0522 -0.0002
vn 0.1985 0.9801 -0.0001
vn 0.6747 0.7381 -0.0002
vn 0.6746 0.7382 -0.0002
vn 0.1006 0.9949 -0.0000
vn -0.1442 0.9896 -0.0000
vn 0.9087 -0.4176 -0.0002
vn -0.7666 0.6422 0.0002
vn 0.9936 0.1131 -0.0002
vn 0.9350 0.3545 -0.0002
vn 0.9562 0.2926 -0.0002
vn 0.0134 -0.2125 0.9771
vn 0.0152 -0.2400 0.9706
vn 0.9916 0.1294 -0.0002
vn -0.2160 -0.9764 0.0001
vn -0.6452 -0.7640 0.0002
vn -0.1500 -0.9887 -0.0000
vn -0.9208 -0.3901 0.0002
vn -0.9825 -0.1864 0.0002
vn -0.9441 -0.3296 0.0002
vn 0.6857 0.7279 -0.0002
vn 0.0312 -0.4940 0.8689
vn 0.0887 -0.5146 -0.8528
vn 0.0419 -0.2432 -0.9691
vn 0.0387 -0.2246 -0.9737
vn 0.4480 -0.8940 -0.0001
vn 0.2694 -0.9630 -0.0001
vn 0.3979 -0.9174 -0.0001
vn -0.9976 -0.0691 0.0002
vn 0.0124 -0.9999 -0.0000
vn -0.4812 -0.1251 0.8676
vn -0.1941 -0.0504 0.9797
vn -0.2263 -0.0588 0.9723
vn -0.8422 -0.5391 0.0002
vn 0.4993 0.0315 0.8659
vn 0.2285 0.0144 0.9734
vn 0.2078 0.0131 0.9781
vn -0.5079 -0.8614 0.0001
vn 0.7495 -0.6620 -0.0002
vt 0.268291 0.143086
vt 0.928763 0.746587
vt 0.629723 0.975623
vt 0.591332 0.080636
vt 0.978740 0.370618
vt 0.086399 0.421203
vt 0.151347 0.740484
vt 0.749576 0.071825
vt 0.568050 0.009750
vt 0.269101 0.857051
vt 0.024486 0.628511
vt 0.914436 0.575377
vt 0.856558 0.257567
vt 0.253757 0.926623
vt 0.437697 0.990187
vt 0.741313 0.139831
vt 0.013196 0.455147
vt 0.857907 0.716376
vt 0.072145 0.253355
vt 0.742246 0.849814
vt 0.373279 0.021669
vt 0.425550 0.919293
vt 0.280855 0.875157
vt 0.864044 0.769469
vt 0.087804 0.623383
vt 0.603583 0.949959
vt 0.618977 0.917965
vt 0.932385 0.416326
vt 0.767948 0.129963
vt 0.873627 0.719809
vt 0.388905 0.086083
vt 0.067615 0.573251
vt 0.127548 0.285860
vt 0.258537 0.878353
vt 0.918157 0.384846
vt 0.436970 0.047576
vt 0.726633 0.132235
vt 0.154272 0.217655
vt 0.444875 0.927778
vt 0.932385 0.601699
vt 0.987018 0.578074
vt 0.157201 0.252645
vt 0.924982 0.567528
vt 0.621462 0.057064
vt 0.074185 0.457534
vt 0.433132 0.952424
vt 0.558543 0.072745
vt 0.074360 0.389087
vt 0.928763 0.746587
vt 0.222681 0.073200
vt 0.629712 0.975623
vt 0.606603 0.000589
vt 0.005109 0.405453
vt 0.978729 0.370618
vt 0.082954 0.786625
vt 0.749576 0.071825
vt 0.568028 0.009749
vt 0.223836 0.926626
vt 0.994891 0.591498
vt 0.024475 0.628511
vt 0.924869 0.213563
vt 0.253746 0.926623
vt 0.437697 0.990187
vt 0.786494 0.072510
vt 0.927488 0.758691
vt 0.013185 0.455147
vt 0.789093 0.914771
vt 0.072134 0.253355
vt 0.373279 0.021669
vt 0.411350 1.000000
vt 0.280844 0.875157
vt 0.795917 0.724927
vt 0.586375 0.871955
vt 0.087804 0.623383
vt 0.618967 0.917965
vt 0.848707 0.429917
vt 0.719824 0.192622
vt 0.873616 0.719809
vt 0.388905 0.086083
vt 0.153489 0.558819
vt 0.307674 0.808211
vt 0.127548 0.285860
vt 0.918157 0.384846
vt 0.448779 0.125777
vt 0.726633 0.132234
vt 0.221966 0.267676
vt 0.444864 0.927778
vt 0.847658 0.585632
vt 0.086837 0.204910
vt 0.987007 0.578073
vt 0.924982 0.567528
vt 0.600551 0.136113
vt 0.449584 0.870844
vt 0.074175 0.457533
vt 0.558543 0.072745
vt 0.157385 0.408927
vt 0.226804 0.597938
vt 0.226804 0.649485
vt 0.226804 0.649485
vt 0.226804 0.597938
vt 0.226804 0.597938
vt 0.226804 0.649485
vt 0.226804 0.649485
vt 0.226804 0.597938
vt 0.226804 0.597938
vt 0.226804 0.649485
vt 0.278351 0.649485
vt 0.278351 0.597938
vt 0.278351 0.597938
vt 0.278351 0.649485
vt 0.278351 0.597938
vt 0.278351 0.649485
vt 0.278351 0.649485
vt 0.278351 0.597938
vt 0.278351 0.597938
vt 0.278351 0.649485
vt 0.422912 0.081413
vt 0.800204 0.887008
vt 0.890076 0.201103
vt 0.088670 0.587281
vt 0.112317 0.797327
vt 0.914462 0.410657
vt 0.202968 0.110283
vt 0.590274 0.913891
vt 0.159773 0.761933
vt 0.745195 0.885023
vt 0.874045 0.250232
vt 0.769528 0.838369
vt 0.136174 0.751549
vt 0.235535 0.167426
vt 0.846742 0.237559
vt 0.278788 0.103818
vt 0.800204 0.887008
vt 0.407386 0.000000
vt 0.007543 0.603865
vt 0.890076 0.201103
vt 0.994891 0.395992
vt 0.112317 0.797327
vt 0.607974 0.993964
vt 0.202957 0.110283
vt 0.159763 0.761933
vt 0.701427 0.821065
vt 0.769528 0.838369
vt 0.803885 0.291085
vt 0.211237 0.703790
vt 0.235524 0.167425
vt 0.846721 0.237559
vt 0.321757 0.174291
vt 0.379562 0.880078
vt 0.974774 0.600517
vt 0.000009 0.600517
vt 0.089808 0.555263
vt 0.058369 0.600517
vt 0.137801 0.510048
vt 0.341136 0.439690
vt 0.370340 0.524812
vt 0.577067 0.439690
vt 0.390508 0.439690
vt 0.410940 0.561723
vt 0.423853 0.617089
vt 0.644393 0.439690
vt 0.408172 0.844091
vt 0.920430 0.600517
vt 0.647087 0.439690
vt 0.532493 0.619305
vt 0.903088 0.600517
vt 0.615367 0.475517
vt 0.832461 0.593219
vt 0.620689 0.439690
vt 0.600232 0.559384
vt 0.565519 0.439690
vt 0.599471 0.439690
vt 0.554860 0.580147
vt 0.933295 0.600517
vt 0.501806 0.854671
vt 0.684563 0.475517
vt 0.880142 0.650123
vt 0.344586 0.439690
vt 0.373177 0.414898
vt 0.414150 0.439690
vt 0.371597 0.439690
vt 0.430381 0.392752
vt 0.313248 0.439690
vt 0.458991 0.344769
vt 0.498500 0.136677
vt 0.060207 0.600517
vt 0.070854 0.600517
vt 0.395139 0.475517
vt 0.148067 0.412113
vt 0.398020 0.439690
vt 0.602590 0.439690
vt 0.585347 0.414481
vt 0.659631 0.439690
vt 0.632254 0.446009
vt 0.927054 0.600517
vt 0.852175 0.507528
vt 1.000000 0.600517
vt 0.912164 0.472155
vt 0.617199 0.475517
vt 0.075724 0.600517
vt 0.597359 0.149438
vt 0.342222 0.439690
vt 0.572376 0.368595
vt 0.087578 0.459694
vt 0.443410 0.912400
vt 0.974774 0.560310
vt 0.379557 0.880078
vt 0.089803 0.555263
vt 0.000000 0.560310
vt 0.137796 0.510048
vt 0.058360 0.560310
vt 0.341127 0.399483
vt 0.370330 0.524812
vt 0.577067 0.399483
vt 0.390499 0.399483
vt 0.410935 0.561723
vt 0.644393 0.399483
vt 0.423848 0.617089
vt 0.920429 0.560310
vt 0.408167 0.844090
vt 0.647087 0.399483
vt 0.532488 0.619304
vt 0.832455 0.593219
vt 0.903079 0.560310
vt 0.615367 0.435310
vt 0.620679 0.399483
vt 0.600222 0.559384
vt 0.565510 0.399483
vt 0.599470 0.399483
vt 0.554855 0.580146
vt 0.933295 0.560310
vt 0.501795 0.854670
vt 0.994339 0.560310
vt 0.524869 0.917726
vt 0.373172 0.414898
vt 0.344577 0.399483
vt 0.414141 0.399483
vt 0.371596 0.399483
vt 0.430376 0.392752
vt 0.313248 0.399483
vt 0.458981 0.344768
vt 0.060207 0.560310
vt 0.498495 0.136677
vt 0.005660 0.560310
vt 0.463773 0.091820
vt 0.107309 0.365974
vt 0.339034 0.435310
vt 0.148062 0.412113
vt 0.070844 0.560310
vt 0.395139 0.435310
vt 0.398020 0.399483
vt 0.602581 0.399483
vt 0.585342 0.414481
vt 0.659622 0.399483
vt 0.632249 0.446009
vt 0.852165 0.507528
vt 0.927044 0.560310
vt 0.912153 0.472155
vt 0.999991 0.560310
vt 0.617190 0.435310
vt 0.075724 0.560310
vt 0.597354 0.149438
vt 0.342222 0.399483
vt 0.572366 0.368595
vt 0.994340 0.600517
vt 0.524874 0.917727
vt 0.005660 0.600517
vt 0.463784 0.091820
vt 0.339034 0.475517
vt 0.107314 0.365974
vt 0.667843 0.475517
vt 0.639008 0.108425
vt 0.904956 0.565874
vt 0.552714 0.090282
vt 0.880126 0.650123
vt 0.684563 0.435310
vt 0.667833 0.435310
vt 0.639003 0.108425
vt 0.443405 0.912400
vt 0.904950 0.565874
vt 0.087562 0.459694
vt 0.552709 0.090282
s 1
usemtl valve_1
f 35/64/22 59/112/22 58/109/23 34/61/23
f 43/80/24 67/127/24 101/196/25 93/180/25
f 78/149/26 59/111/26 65/123/26 70/133/26
f 54/102/27 49/92/28 73/140/28 78/150/29
f 35/63/30 34/62/30 49/91/30 54/101/30
f 69/131/31 76/146/32 52/98/32 45/83/31
f 72/138/33 104/202/34 96/186/34 48/90/33
f 58/109/23 98/189/35 90/174/35 34/61/23
f 38/69/30 37/68/30 42/77/30 50/93/30
f 103/199/36 95/183/36 46/86/37 70/134/37
f 71/135/38 47/88/39 95/183/36 103/199/36
f 37/67/40 38/70/41 62/118/42 61/115/43
f 75/144/26 57/108/26 72/137/26 76/145/26
f 73/139/26 58/110/26 59/111/26 78/149/26
f 48/89/30 96/185/30 90/173/30 33/59/30
f 43/79/30 93/179/30 91/175/30 36/65/30
f 61/115/43 99/191/44 91/176/45 37/67/40
f 95/184/30 92/177/30 41/75/30 46/85/30
f 40/74/46 64/121/46 100/193/47 92/178/47
f 38/69/30 50/93/30 44/81/30 32/57/30
f 37/68/30 91/175/30 93/179/30 42/77/30
f 40/73/30 47/87/30 53/99/30 39/71/30
f 44/82/48 50/94/49 74/142/49 68/130/48
f 61/116/26 62/117/26 74/141/26 66/125/26
f 95/184/30 47/87/30 40/73/30 92/177/30
f 69/131/31 45/83/31 94/181/50 102/198/50
f 73/139/26 104/201/26 98/190/26 58/110/26
f 51/95/30 31/56/30 45/84/30 52/97/30
f 69/132/26 102/197/26 97/187/26 55/103/26
f 34/62/30 90/173/30 96/185/30 49/91/30
f 60/114/26 99/192/26 101/195/26 67/128/26
f 36/65/30 39/71/30 53/99/30 43/79/30
f 53/100/51 47/88/39 71/135/38 77/147/51
f 46/85/30 41/75/30 35/63/30 54/101/30
f 32/57/30 44/81/30 94/182/30 89/172/30
f 33/59/30 51/95/30 52/97/30 48/89/30
f 39/72/52 36/66/53 60/113/53 63/119/52
f 51/96/54 75/143/54 55/104/55 31/55/55
f 90/174/35 98/189/35 57/107/56 33/60/56
f 36/66/53 91/176/45 99/191/44 60/113/53
f 66/125/26 101/195/26 99/192/26 61/116/26
f 41/76/57 92/178/47 100/193/47 65/124/58
f 71/136/26 103/200/26 100/194/26 64/122/26
f 40/74/46 39/72/52 63/119/52 64/121/46
f 68/129/26 74/141/26 62/117/26 56/105/26
f 51/96/54 33/60/56 57/107/56 75/143/54
f 57/108/26 98/190/26 104/201/26 72/137/26
f 71/136/26 64/122/26 63/120/26 77/148/26
f 74/142/49 50/94/49 42/78/59 66/126/59
f 68/129/26 56/105/26 97/187/26 102/197/26
f 73/140/28 49/92/28 96/186/34 104/202/34
f 65/123/26 100/194/26 103/200/26 70/133/26
f 53/100/51 77/147/51 67/127/24 43/80/24
f 63/120/26 60/114/26 67/128/26 77/148/26
f 55/103/26 75/144/26 76/145/26 69/132/26
f 48/90/33 52/98/32 76/146/32 72/138/33
f 70/134/37 46/86/37 54/102/27 78/150/29
f 32/58/60 89/171/61 97/188/61 56/106/60
f 41/76/57 65/124/58 59/112/22 35/64/22
f 62/118/42 38/70/41 32/58/60 56/106/60
f 31/55/55 55/104/55 97/188/61 89/171/61
f 80/153/62 79/151/63 85/163/63 87/167/62
f 81/155/64 86/165/64 85/164/63 79/152/63
f 83/159/65 88/169/65 84/161/66 82/157/66
f 83/160/65 80/154/62 87/168/62 88/170/65
f 102/198/50 94/181/50 44/82/48 68/130/48
f 31/56/30 89/172/30 94/182/30 45/84/30
f 42/78/59 93/180/25 101/196/25 66/126/59
f 121/239/67 127/255/67 128/257/68 120/238/69
f 152/309/70 140/281/71 139/277/72 153/310/72
f 166/334/26 154/312/26 153/310/26 139/277/26 163/329/26
f 137/274/73 142/286/73 138/276/74 136/272/75
f 150/302/76 133/264/76 134/267/77 144/289/78
f 149/300/26 167/335/26 132/262/26 133/264/26 150/302/26
f 148/298/79 158/321/79 121/240/79 147/296/79
f 127/253/80 160/325/80 164/331/80 155/314/80
f 133/265/81 107/207/81 108/209/82 134/266/83
f 136/271/84 135/268/85 109/211/86 110/215/87
f 156/317/88 151/305/89 123/244/90 128/256/91
f 140/280/92 141/282/93 115/225/94 114/223/95
f 139/278/96 140/280/92 114/223/95 113/220/96
f 135/269/85 134/266/83 108/209/82 109/212/86
f 142/285/97 143/287/97 157/319/97 116/228/97
f 163/330/98 139/279/98 113/221/98 117/230/98
f 155/315/99 156/317/88 128/256/91 127/254/99
f 141/283/93 138/275/100 112/218/101 115/226/94
f 115/227/30 112/219/102 110/214/103 109/213/30
f 160/326/30 127/255/30 121/239/30 158/322/30 162/328/30
f 138/275/100 142/285/104 116/228/104 112/218/101
f 144/290/105 145/291/106 119/234/106 118/232/107
f 105/203/30 111/216/30 116/229/30 157/320/30 130/259/30
f 146/294/108 147/296/109 121/240/109 120/237/110
f 145/292/106 146/294/108 120/237/110 119/235/106
f 144/289/78 134/267/77 135/270/26 145/293/26
f 132/263/111 106/205/111 107/207/111 133/265/111
f 111/216/112 110/214/103 112/219/102 116/229/112
f 147/297/113 146/295/114 156/318/115 155/316/113
f 152/308/116 153/311/117 125/249/117 124/247/118
f 137/273/119 136/271/84 110/215/87 111/217/119
f 150/303/120 144/290/105 118/232/107 122/241/120
f 113/222/121 114/224/122 124/248/123 125/250/121
f 131/260/124 137/273/124 111/217/124 105/204/124
f 137/274/26 131/261/26 165/333/26 143/288/26 142/286/26
f 107/208/125 122/243/125 118/233/126 108/210/127
f 151/306/89 152/308/116 124/247/118 123/245/90
f 141/284/26 151/307/26 145/293/26 135/270/26
f 151/307/26 141/284/26 140/281/71 152/309/70
f 156/318/115 146/295/114 145/293/26 151/307/26
f 108/210/127 118/233/126 119/236/30 109/213/30
f 114/224/122 115/227/30 123/246/30 124/248/123
f 119/236/30 120/238/69 128/257/68 123/246/30
f 123/246/30 115/227/30 109/213/30 119/236/30
f 135/270/26 136/272/75 138/276/74 141/284/26
f 155/316/26 164/332/26 168/336/26 148/299/26 147/297/26
f 153/311/128 154/313/128 126/251/128 125/249/128
f 113/222/30 125/250/30 126/252/30 161/327/30 117/231/30
f 149/301/129 150/304/129 122/242/129 159/323/129
f 106/206/30 129/258/30 159/324/30 122/243/30 107/208/30
f 81/156/64 82/158/66 84/162/66 86/166/64
