# Blender 3.4.0
# www.blender.org
mtllib wooden_crate_1.mtl
o wooden_crate_1
v -0.360000 -0.000000 -0.072000
v -0.360000 0.000000 0.072000
v -0.360000 0.036000 -0.072000
v -0.360000 0.036000 0.072000
v 0.360000 -0.000000 -0.072000
v 0.360000 0.000000 0.072000
v 0.360000 0.036000 -0.072000
v 0.360000 0.036000 0.072000
v -0.360000 -0.000000 -0.252000
v -0.360000 -0.000000 -0.108000
v -0.360000 0.036000 -0.252000
v -0.360000 0.036000 -0.108000
v 0.360000 -0.000000 -0.252000
v 0.360000 -0.000000 -0.108000
v 0.360000 0.036000 -0.108000
v -0.360000 -0.000000 0.108000
v -0.360000 -0.000000 0.252000
v -0.360000 0.036000 0.108000
v -0.360000 0.036000 0.252000
v 0.360000 -0.000000 0.108000
v 0.360000 -0.000000 0.252000
v 0.360000 0.036000 0.108000
v -0.360000 0.216000 0.252000
v -0.360000 0.360000 0.252000
v -0.360000 0.216000 0.216000
v -0.360000 0.360000 0.216000
v 0.360000 0.216000 0.252000
v 0.360000 0.360000 0.252000
v 0.360000 0.216000 0.216000
v 0.360000 0.360000 0.216000
v 0.360000 0.216000 -0.252000
v 0.360000 0.360000 -0.252000
v 0.360000 0.216000 -0.216000
v 0.360000 0.360000 -0.216000
v -0.360000 0.216000 -0.252000
v -0.360000 0.360000 -0.252000
v -0.360000 0.216000 -0.216000
v -0.360000 0.360000 -0.216000
v -0.360000 0.180000 0.252000
v -0.360000 0.036000 0.216000
v -0.360000 0.180000 0.216000
v 0.360000 0.036000 0.252000
v 0.360000 0.180000 0.252000
v 0.360000 0.036000 0.216000
v 0.360000 0.180000 0.216000
v 0.360000 0.036000 -0.252000
v 0.360000 0.180000 -0.252000
v 0.360000 0.036000 -0.216000
v 0.360000 0.180000 -0.216000
v -0.360000 0.180000 -0.252000
v -0.360000 0.036000 -0.216000
v -0.360000 0.180000 -0.216000
v -0.324000 0.216000 -0.216000
v -0.324000 0.360000 -0.216000
v -0.288000 0.216000 -0.216000
v -0.288000 0.360000 -0.216000
v -0.324000 0.216000 0.216000
v -0.324000 0.360000 0.216000
v -0.288000 0.216000 0.216000
v -0.288000 0.360000 0.216000
v 0.324000 0.216000 0.216000
v 0.324000 0.360000 0.216000
v 0.288000 0.216000 0.216000
v 0.288000 0.360000 0.216000
v 0.324000 0.216000 -0.216000
v 0.324000 0.360000 -0.216000
v 0.288000 0.216000 -0.216000
v 0.288000 0.360000 -0.216000
v -0.324000 0.036000 -0.216000
v -0.324000 0.180000 -0.216000
v -0.288000 0.036000 -0.216000
v -0.288000 0.180000 -0.216000
v -0.324000 0.036000 0.216000
v -0.324000 0.180000 0.216000
v -0.288000 0.180000 0.216000
v 0.324000 0.036000 0.216000
v 0.324000 0.180000 0.216000
v 0.288000 0.180000 0.216000
v 0.324000 0.036000 -0.216000
v 0.324000 0.180000 -0.216000
v 0.288000 0.036000 -0.216000
v 0.288000 0.180000 -0.216000
v -0.288000 0.277200 -0.072000
v -0.288000 0.320400 -0.072000
v -0.288000 0.320400 0.072000
v -0.288000 0.277200 0.072000
v -0.324000 0.320400 -0.072000
v -0.324000 0.277200 0.072000
v -0.324000 0.320400 0.072000
v -0.324000 0.277200 -0.072000
v 0.288000 0.320400 -0.072000
v 0.288000 0.277200 0.072000
v 0.288000 0.320400 0.072000
v 0.288000 0.277200 -0.072000
v 0.324000 0.277200 -0.072000
v 0.324000 0.320400 -0.072000
v 0.324000 0.320400 0.072000
v 0.324000 0.277200 0.072000
v -0.216000 0.036000 0.216000
v -0.216000 0.324000 0.216000
v -0.288000 0.036000 0.144000
v -0.288000 0.324000 0.144000
v -0.288000 0.036000 0.216000
v -0.288000 0.324000 0.216000
v 0.288000 0.036000 0.144000
v 0.288000 0.324000 0.144000
v 0.216000 0.036000 0.216000
v 0.216000 0.324000 0.216000
v 0.288000 0.036000 0.216000
v 0.288000 0.324000 0.216000
v 0.216000 0.036000 -0.216000
v 0.216000 0.324000 -0.216000
v 0.288000 0.036000 -0.144000
v 0.288000 0.324000 -0.144000
v 0.288000 0.324000 -0.216000
v -0.288000 0.036000 -0.144000
v -0.288000 0.324000 -0.144000
v -0.216000 0.036000 -0.216000
v -0.216000 0.324000 -0.216000
v -0.288000 0.324000 -0.216000
vn -0.0000 -1.0000 -0.0000
vn -0.0000 1.0000 -0.0000
vn 1.0000 -0.0000 -0.0000
vn -0.0000 -0.0000 -1.0000
vn -0.0000 -0.0000 1.0000
vn -1.0000 -0.0000 -0.0000
vn -0.7071 -0.0000 -0.7071
vn -0.7071 -0.0000 0.7071
vn 0.7071 -0.0000 -0.7071
vn 0.7071 -0.0000 0.7071
vt 0.119792 0.718750
vt 0.119792 0.937500
vt 0.875000 0.000000
vt 0.119792 0.953125
vt 0.119792 0.937500
vt 0.875000 0.296875
vt 0.119792 0.718750
vt 0.119792 1.000000
vt 0.927083 0.000000
vt 0.119792 0.953125
vt 0.119792 1.000000
vt 0.927083 0.296875
vt 0.875000 0.000000
vt 0.848958 0.718750
vt 0.848958 0.937500
vt 0.875000 0.296875
vt 0.848958 0.953125
vt 0.848958 0.937500
vt 0.848958 0.718750
vt 0.927083 0.000000
vt 0.848958 1.000000
vt 0.848958 0.953125
vt 0.927083 0.296875
vt 0.848958 1.000000
vt 0.072917 0.718750
vt 0.072917 0.937500
vt 0.875000 0.703125
vt 0.072917 0.953125
vt 0.072917 0.937500
vt 0.875000 1.000000
vt 0.072917 1.000000
vt 0.875000 0.000000
vt 0.802083 0.937500
vt 0.072917 0.718750
vt 0.802083 0.718750
vt 0.927083 0.703125
vt 0.072917 1.000000
vt 0.072917 0.953125
vt 0.927083 1.000000
vt 0.802083 0.718750
vt 0.802083 0.937500
vt 0.875000 0.000000
vt 0.802083 0.953125
vt 0.802083 0.937500
vt 0.875000 0.296875
vt 0.802083 1.000000
vt 0.927083 0.296875
vt 0.802083 0.953125
vt 0.072917 0.718750
vt 0.875000 0.703125
vt 0.072917 0.937500
vt 0.072917 0.953125
vt 0.875000 1.000000
vt 0.072917 0.937500
vt 0.927083 0.703125
vt 0.072917 1.000000
vt 0.072917 0.718750
vt 0.927083 1.000000
vt 0.072917 0.937500
vt 0.072917 0.718750
vt 0.875000 0.703125
vt 0.072917 1.000000
vt 0.072917 0.953125
vt 0.802083 0.718750
vt 0.802083 0.937500
vt 0.875000 0.703125
vt 0.802083 0.953125
vt 0.802083 0.937500
vt 0.875000 1.000000
vt 0.802083 1.000000
vt 0.802083 0.718750
vt 0.927083 0.703125
vt 0.072917 0.718750
vt 0.875000 0.000000
vt 0.072917 0.937500
vt 0.072917 0.953125
vt 0.875000 0.296875
vt 0.072917 0.937500
vt 0.927083 0.000000
vt 0.072917 1.000000
vt 0.072917 0.718750
vt 0.927083 0.296875
vt 0.072917 0.953125
vt 0.072917 1.000000
vt 0.802083 0.718750
vt 0.802083 0.937500
vt 0.875000 0.703125
vt 0.802083 0.953125
vt 0.875000 1.000000
vt 0.802083 0.937500
vt 0.802083 1.000000
vt 0.802083 0.718750
vt 0.927083 0.703125
vt 0.802083 0.953125
vt 0.927083 1.000000
vt 0.802083 1.000000
vt 0.875000 0.000000
vt 0.072917 0.937500
vt 0.072917 0.718750
vt 0.875000 0.296875
vt 0.072917 0.937500
vt 0.072917 0.953125
vt 0.927083 0.000000
vt 0.072917 1.000000
vt 0.072917 0.718750
vt 0.927083 0.296875
vt 0.072917 0.953125
vt 0.072917 1.000000
vt 0.802083 0.937500
vt 0.875000 0.703125
vt 0.802083 0.718750
vt 0.875000 1.000000
vt 0.802083 0.937500
vt 0.802083 0.953125
vt 0.802083 1.000000
vt 0.802083 0.718750
vt 0.927083 0.703125
vt 0.802083 0.953125
vt 0.927083 1.000000
vt 0.802083 1.000000
vt 0.072917 0.953125
vt 0.875000 1.000000
vt 0.072917 0.937500
vt 0.072917 0.718750
vt 0.072917 1.000000
vt 0.927083 0.703125
vt 0.072917 0.953125
vt 0.927083 1.000000
vt 0.072917 1.000000
vt 0.875000 0.000000
vt 0.802083 0.937500
vt 0.802083 0.718750
vt 0.802083 1.000000
vt 0.802083 0.953125
vt 0.927083 1.000000
vt 0.875000 0.296875
vt 0.802083 0.953125
vt 0.802083 0.937500
vt 0.927083 0.000000
vt 0.802083 0.718750
vt 0.802083 1.000000
vt 0.927083 0.296875
vt 0.802083 0.953125
vt 0.802083 1.000000
vt 0.875000 0.703125
vt 0.802083 1.000000
vt 0.927083 0.000000
vt 0.072917 0.937500
vt 0.802083 0.718750
vt 0.072917 0.718750
vt 0.875000 1.000000
vt 0.072917 0.953125
vt 0.072917 0.937500
vt 0.927083 0.703125
vt 0.072917 1.000000
vt 0.072917 0.718750
vt 0.927083 1.000000
vt 0.072917 1.000000
vt 0.072917 0.953125
vt 0.875000 0.296875
vt 0.802083 0.953125
vt 0.802083 0.937500
vt 0.927083 0.000000
vt 0.802083 1.000000
vt 0.802083 0.718750
vt 0.927083 0.296875
vt 0.802083 1.000000
vt 0.802083 0.953125
vt 0.000000 0.718750
vt 0.119792 0.937500
vt 0.119792 0.718750
vt 0.119792 0.937500
vt 0.000000 0.953125
vt 0.119792 0.953125
vt 0.052083 0.718750
vt 0.119792 1.000000
vt 0.119792 0.718750
vt 0.119792 1.000000
vt 0.052083 0.953125
vt 0.119792 0.953125
vt 0.000000 0.718750
vt 0.578125 0.937500
vt 0.578125 0.718750
vt 0.578125 0.937500
vt 0.000000 0.953125
vt 0.578125 0.953125
vt 0.052083 0.718750
vt 0.578125 1.000000
vt 0.578125 0.718750
vt 0.578125 1.000000
vt 0.052083 0.953125
vt 0.578125 0.953125
vt 0.000000 0.718750
vt 0.119792 0.718750
vt 0.119792 0.937500
vt 0.000000 0.953125
vt 0.119792 0.937500
vt 0.119792 0.953125
vt 0.052083 0.718750
vt 0.119792 0.718750
vt 0.119792 1.000000
vt 0.052083 0.953125
vt 0.119792 1.000000
vt 0.119792 0.953125
vt 0.000000 0.718750
vt 0.578125 0.718750
vt 0.578125 0.937500
vt 0.578125 0.937500
vt 0.000000 0.953125
vt 0.578125 0.953125
vt 0.052083 0.718750
vt 0.578125 0.718750
vt 0.578125 1.000000
vt 0.578125 1.000000
vt 0.052083 0.953125
vt 0.578125 0.953125
vt 0.119792 0.718750
vt 0.119792 0.937500
vt 0.000000 0.718750
vt 0.119792 0.953125
vt 0.119792 0.937500
vt 0.000000 0.953125
vt 0.518750 0.954687
vt 0.119792 0.718750
vt 0.119792 1.000000
vt 0.052083 0.718750
vt 0.119792 0.953125
vt 0.119792 1.000000
vt 0.052083 0.953125
vt 0.578125 0.718750
vt 0.000000 0.718750
vt 0.578125 0.937500
vt 0.578125 0.953125
vt 0.000000 0.953125
vt 0.578125 0.937500
vt 0.052083 0.953125
vt 0.578125 0.953125
vt 0.578125 1.000000
vt 0.119792 0.937500
vt 0.000000 0.718750
vt 0.119792 0.718750
vt 0.119792 0.937500
vt 0.000000 0.953125
vt 0.119792 0.953125
vt 0.119792 1.000000
vt 0.052083 0.953125
vt 0.119792 0.953125
vt 0.578125 0.937500
vt 0.000000 0.718750
vt 0.578125 0.718750
vt 0.000000 0.953125
vt 0.578125 0.937500
vt 0.578125 0.953125
vt 0.578125 1.000000
vt 0.052083 0.718750
vt 0.518750 0.954687
vt 0.578125 0.718750
vt 0.052083 0.953125
vt 0.578125 1.000000
vt 0.578125 0.953125
vt 0.272569 0.818359
vt 0.562500 0.328125
vt 0.260417 0.421875
vt 0.272569 0.888672
vt 0.260417 0.421875
vt 0.562500 0.421875
vt 0.425347 0.888672
vt 0.489583 0.421875
vt 0.562500 0.421875
vt 0.425347 0.818359
vt 0.562500 0.328125
vt 0.489583 0.421875
vt 0.272569 0.888672
vt 0.260417 0.328125
vt 0.510417 0.421875
vt 0.425347 0.818359
vt 0.510417 0.328125
vt 0.489583 0.328125
vt 0.425347 0.888672
vt 0.489583 0.328125
vt 0.510417 0.421875
vt 0.272569 0.818359
vt 0.510417 0.328125
vt 0.260417 0.328125
vt 0.510417 0.421875
vt 0.260417 0.328125
vt 0.425347 0.888672
vt 0.510417 0.328125
vt 0.489583 0.328125
vt 0.272569 0.818359
vt 0.510417 0.421875
vt 0.489583 0.328125
vt 0.272569 0.888672
vt 0.510417 0.328125
vt 0.260417 0.328125
vt 0.425347 0.818359
vt 0.562500 0.328125
vt 0.425347 0.818359
vt 0.260417 0.421875
vt 0.562500 0.421875
vt 0.260417 0.421875
vt 0.425347 0.888672
vt 0.562500 0.421875
vt 0.489583 0.421875
vt 0.272569 0.888672
vt 0.562500 0.328125
vt 0.272569 0.818359
vt 0.489583 0.421875
vt 0.518750 0.779687
vt 0.518750 0.779687
vt 0.177083 0.779688
vt 0.635417 0.954687
vt 0.518750 0.779687
vt 0.518750 0.954687
vt 0.635417 0.954687
vt 0.177083 0.779688
vt 0.177083 0.954687
vt 0.052083 0.718750
vt 0.578125 0.718750
vt 0.578125 1.000000
vt 0.518750 0.954687
vt 0.518750 0.954687
vt 0.177083 0.954687
vt 0.518750 0.779687
vt 0.518750 0.779687
vt 0.177083 0.779688
vt 0.635417 0.954687
vt 0.518750 0.954687
vt 0.518750 0.779687
vt 0.635417 0.954687
vt 0.177083 0.954687
vt 0.177083 0.779688
vt 0.119792 1.000000
vt 0.518750 0.954687
vt 0.052083 0.718750
vt 0.119792 0.718750
vt 0.518750 0.954687
vt 0.177083 0.954687
vt 0.518750 0.779687
vt 0.518750 0.779687
vt 0.177083 0.779688
vt 0.635417 0.954687
vt 0.518750 0.954687
vt 0.518750 0.779687
vt 0.635417 0.954687
vt 0.177083 0.954687
vt 0.177083 0.779688
vt 0.518750 0.954687
vt 0.177083 0.954687
vt 0.518750 0.779687
vt 0.518750 0.779687
vt 0.177083 0.779688
vt 0.635417 0.954687
vt 0.518750 0.779687
vt 0.518750 0.954687
vt 0.635417 0.954687
vt 0.177083 0.779688
vt 0.177083 0.954687
vt 0.518750 0.954687
vt 0.177083 0.954687
s 1
usemtl wooden_crate_1
f 99/309/1 103/321/1 101/312/1
f 104/322/2 100/310/2 102/315/2
f 105/324/1 109/334/1 107/327/1
f 110/337/2 106/325/2 108/330/2
f 111/339/1 81/256/1 113/342/1
f 115/348/2 112/340/2 114/345/2
f 116/350/1 71/223/1 118/353/1
f 120/359/2 117/351/2 119/356/2
f 7/19/2 3/7/2 4/10/2 8/22/2
f 5/13/3 7/20/3 8/23/3 6/16/3
f 1/1/1 5/14/1 6/17/1 2/4/1
f 1/2/4 3/8/4 7/21/4 5/15/4
f 16/49/1 20/64/1 21/67/1 17/52/1
f 95/297/5 96/300/5 91/285/5 94/294/5
f 18/55/6 16/50/6 17/53/6 19/58/6
f 76/239/1 109/333/1 81/254/1 79/248/1
f 58/184/2 60/190/2 56/178/2 54/172/2
f 6/18/5 8/24/5 4/11/5 2/5/5
f 118/354/4 71/223/4 120/360/4 119/357/4
f 9/25/1 13/40/1 14/43/1 10/28/1
f 64/202/5 63/199/5 61/193/5 62/196/5
f 80/251/4 79/249/4 81/255/4 82/258/4
f 49/157/3 48/154/3 46/145/3 47/151/3
f 24/76/5 23/73/5 27/85/5 28/88/5
f 14/44/5 15/46/5 12/37/5 10/29/5
f 97/303/4 98/306/4 92/288/4 93/291/4
f 66/208/2 68/214/2 64/203/2 62/197/2
f 97/304/1 93/292/1 91/286/1 96/301/1
f 43/136/3 42/130/3 44/139/3 45/142/3
f 105/324/7 107/328/7 108/331/7 106/326/7
f 44/140/4 40/124/4 41/127/4 45/143/4
f 71/223/6 116/350/6 117/352/6 120/360/6
f 25/79/6 23/74/6 24/77/6 26/82/6
f 111/339/8 113/343/8 114/346/8 112/341/8
f 33/103/3 31/97/3 32/100/3 34/106/3
f 16/51/4 18/56/4 22/70/4 20/65/4
f 9/26/4 11/31/4 46/146/4 13/41/4
f 56/179/4 55/175/4 53/169/4 54/173/4
f 50/160/6 11/32/6 51/163/6 52/166/6
f 57/181/5 59/187/5 60/191/5 58/185/5
f 110/338/3 109/334/3 105/324/3 106/326/3
f 19/59/1 40/125/1 44/141/1 42/131/1
f 14/45/3 13/42/3 46/147/3 15/47/3
f 53/170/1 55/176/1 59/188/1 57/182/1
f 31/98/1 33/104/1 37/115/1 35/109/1
f 69/217/6 73/230/6 74/233/6 70/220/6
f 46/148/1 48/155/1 51/164/1 11/33/1
f 66/209/4 65/205/4 67/211/4 68/215/4
f 58/186/6 89/279/6 88/276/6 57/183/6
f 73/231/5 103/318/5 75/236/5 74/234/5
f 19/60/5 42/132/5 43/137/5 39/121/5
f 56/180/3 84/264/3 83/261/3 55/177/3
f 54/174/6 53/171/6 90/282/6 87/273/6
f 61/194/3 65/206/3 95/298/3 98/307/3
f 37/116/5 33/105/5 34/107/5 38/118/5
f 68/216/6 67/212/6 94/296/6 91/287/6
f 64/204/6 93/293/6 92/290/6 63/200/6
f 59/189/3 55/177/3 83/261/3 86/270/3
f 96/302/3 66/210/3 62/198/3 97/305/3
f 46/149/2 11/34/2 12/38/2 15/48/2
f 40/126/6 19/61/6 39/122/6 41/128/6
f 23/75/1 25/80/1 29/91/1 27/86/1
f 66/210/3 96/302/3 95/298/3 65/206/3
f 62/198/3 61/194/3 98/307/3 97/305/3
f 88/276/6 90/282/6 53/171/6 57/183/6
f 54/174/6 87/273/6 89/279/6 58/186/6
f 98/308/2 95/299/2 94/295/2 92/289/2
f 60/192/3 59/189/3 86/270/3 85/267/3
f 92/290/6 94/296/6 67/212/6 63/200/6
f 68/216/6 91/287/6 93/293/6 64/204/6
f 84/264/3 56/180/3 60/192/3 85/267/3
f 113/344/3 81/256/3 115/349/3 114/347/3
f 65/207/1 61/195/1 63/201/1 67/213/1
f 80/252/2 82/259/2 78/245/2 77/242/2
f 21/68/5 42/133/5 19/62/5 17/54/5
f 81/256/4 111/339/4 112/341/4 115/349/4
f 29/92/4 25/81/4 26/83/4 30/94/4
f 46/150/4 11/35/4 50/161/4 47/152/4
f 87/274/1 84/265/1 85/268/1 89/280/1
f 107/329/5 109/334/5 110/338/5 108/332/5
f 103/319/3 71/224/3 72/227/3 75/237/3
f 101/313/6 103/321/6 104/323/6 102/316/6
f 109/335/5 76/240/5 77/243/5 78/246/5
f 99/309/9 101/314/9 102/317/9 100/311/9
f 11/36/6 9/27/6 10/30/6 12/39/6
f 3/9/6 1/3/6 2/6/6 4/12/6
f 74/235/2 75/238/2 72/228/2 70/221/2
f 85/269/4 86/271/4 88/277/4 89/281/4
f 73/232/1 69/218/1 71/225/1 103/320/1
f 84/266/5 87/275/5 90/283/5 83/262/5
f 90/284/2 88/278/2 86/272/2 83/263/2
f 35/110/6 37/117/6 38/119/6 36/112/6
f 103/321/5 99/309/5 100/311/5 104/323/5
f 116/350/10 118/355/10 119/358/10 117/352/10
f 50/162/2 52/167/2 49/158/2 47/153/2
f 82/260/6 81/257/6 109/336/6 78/247/6
f 51/165/5 48/156/5 49/159/5 52/168/5
f 22/71/2 18/57/2 19/63/2 42/134/2
f 28/89/3 27/87/3 29/93/3 30/95/3
f 28/90/2 30/96/2 26/84/2 24/78/2
f 20/66/3 22/72/3 42/135/3 21/69/3
f 76/241/3 79/250/3 80/253/3 77/244/3
f 43/138/2 45/144/2 41/129/2 39/123/2
f 36/113/2 38/120/2 34/108/2 32/101/2
f 71/226/4 69/219/4 70/222/4 72/229/4
f 31/99/4 35/111/4 36/114/4 32/102/4
