# Blender 3.4.0
# www.blender.org
mtllib arc_2_wall_1_plain.mtl
o arc_2_wall_1_plain
v -1.100000 -0.000000 0.199999
v -1.100000 -0.000000 -0.200001
v -1.500000 -0.000000 -0.200001
v -1.500000 -0.000000 0.199999
v 1.100000 0.000000 0.199999
v 1.100000 0.000000 -0.200001
v 1.500000 0.000000 -0.200001
v 1.500000 0.000000 0.199999
v -1.500000 3.000000 -0.200001
v -1.500000 3.000000 0.199999
v 1.500000 3.000000 -0.200001
v 1.500000 3.000000 0.199999
v -1.100000 1.500000 0.199999
v 0.000000 2.600000 0.199999
v -1.062518 1.784701 0.199999
v -0.952628 2.050000 0.199999
v -0.777817 2.277817 0.199999
v -0.550000 2.452628 0.199999
v -0.284701 2.562518 0.199999
v -1.100000 1.500000 -0.200001
v -0.284701 2.562518 -0.200001
v -0.550000 2.452628 -0.200001
v -0.777817 2.277817 -0.200001
v -0.952628 2.050000 -0.200001
v -1.062518 1.784701 -0.200001
v 1.100000 1.500000 0.199999
v 0.284701 2.562518 0.199999
v 0.550000 2.452628 0.199999
v 0.777818 2.277817 0.199999
v 0.952628 2.050000 0.199999
v 1.062518 1.784701 0.199999
v 1.100000 1.500000 -0.200001
v -0.000000 2.600000 -0.200001
v 1.062518 1.784701 -0.200001
v 0.952628 2.050000 -0.200001
v 0.777818 2.277817 -0.200001
v 0.550000 2.452628 -0.200001
v 0.284701 2.562518 -0.200001
vn -0.0000 -0.0000 1.0000
vn -0.0000 -0.0000 -1.0000
vn 1.0000 -0.0000 -0.0000
vn 0.9979 -0.0654 -0.0000
vn -1.0000 -0.0000 -0.0000
vn -0.9979 -0.0654 -0.0000
vn -0.0000 -1.0000 -0.0000
vn 0.2588 -0.9659 -0.0000
vn 0.5000 -0.8660 -0.0000
vn 0.7071 -0.7071 -0.0000
vn 0.8660 -0.5000 -0.0000
vn 0.9659 -0.2588 -0.0000
vn -0.2588 -0.9659 -0.0000
vn -0.5000 -0.8660 -0.0000
vn -0.7071 -0.7071 -0.0000
vn -0.8660 -0.5000 -0.0000
vn -0.9659 -0.2588 -0.0000
vt 0.343011 0.000000
vt 0.172004 0.000000
vt 0.343011 0.000000
vt 0.275451 0.000000
vt 0.241935 0.000000
vt 0.241935 0.000000
vt 0.898925 0.000000
vt 0.172326 0.000477
vt 0.898925 0.000000
vt 0.068879 0.000477
vt 1.000000 0.000000
vt 1.000000 0.000000
vt 0.241935 1.000000
vt 0.241935 1.000000
vt 1.000000 1.000000
vt 1.000000 1.000000
vt 0.343011 0.500000
vt 0.172004 0.503995
vt 0.620968 0.866667
vt 0.172004 1.039562
vt 0.172326 1.040039
vt 0.352482 0.594901
vt 0.172004 0.601960
vt 0.380250 0.683333
vt 0.172004 0.682517
vt 0.424422 0.759273
vt 0.172004 0.753403
vt 0.481989 0.817543
vt 0.172004 0.851368
vt 0.549027 0.854173
vt 0.172004 0.941597
vt 0.343011 0.500000
vt 0.275451 0.503995
vt 0.549027 0.854173
vt 0.275451 0.941597
vt 0.481989 0.817543
vt 0.275451 0.851368
vt 0.424422 0.759273
vt 0.275451 0.753403
vt 0.380250 0.683334
vt 0.275451 0.682517
vt 0.352482 0.594900
vt 0.275451 0.601960
vt 0.898925 0.500000
vt 0.172326 0.504472
vt 0.692908 0.854173
vt 0.172326 0.942073
vt 0.759946 0.817543
vt 0.172326 0.851845
vt 0.817513 0.759273
vt 0.172326 0.753880
vt 0.861686 0.683334
vt 0.172326 0.682994
vt 0.889454 0.594900
vt 0.172326 0.602437
vt 0.898925 0.500000
vt 0.068879 0.504472
vt 0.620968 0.866667
vt 0.275451 1.039562
vt 0.068879 1.040038
vt 0.889454 0.594900
vt 0.068879 0.602437
vt 0.861686 0.683333
vt 0.068879 0.682994
vt 0.817513 0.759273
vt 0.068879 0.753880
vt 0.759946 0.817543
vt 0.068879 0.851845
vt 0.692908 0.854173
vt 0.068879 0.942073
s 1
usemtl wall_mp_1
f 10/14/1 4/6/1 1/1/1 13/17/1 15/22/1 16/24/1 17/26/1 18/28/1 19/30/1 14/19/1 27/46/1 28/48/1 29/50/1 30/52/1 31/54/1 26/44/1 5/7/1 8/12/1 12/16/1
f 3/5/2 9/13/2 11/15/2 7/11/2 6/9/2 32/56/2 34/61/2 35/63/2 36/65/2 37/67/2 38/69/2 33/58/2 21/34/2 22/36/2 23/38/2 24/40/2 25/42/2 20/32/2 2/3/2
f 1/2/3 2/4/3 20/33/4 13/18/4
f 6/10/5 5/8/5 26/45/6 32/57/6
f 33/59/7 14/20/7 19/31/8 21/35/8
f 21/35/8 19/31/8 18/29/9 22/37/9
f 22/37/9 18/29/9 17/27/10 23/39/10
f 23/39/10 17/27/10 16/25/11 24/41/11
f 24/41/11 16/25/11 15/23/12 25/43/12
f 25/43/12 15/23/12 13/18/4 20/33/4
f 14/21/7 33/60/7 38/70/13 27/47/13
f 27/47/13 38/70/13 37/68/14 28/49/14
f 28/49/14 37/68/14 36/66/15 29/51/15
f 29/51/15 36/66/15 35/64/16 30/53/16
f 30/53/16 35/64/16 34/62/17 31/55/17
f 31/55/17 34/62/17 32/57/6 26/45/6
