# Blender 3.4.0
# www.blender.org
mtllib arc_1_wall_2_2.mtl
o arc_1_wall_2_2
v -1.100000 2.600000 0.199999
v -1.100000 -0.000000 0.199999
v -1.100000 2.600000 -0.200001
v -1.100000 -0.000000 -0.200001
v -1.500000 -0.000000 -0.200001
v -1.500000 -0.000000 0.199999
v 1.100000 -0.000000 0.199999
v 1.100000 -0.000000 -0.200001
v 1.100000 2.600000 0.199999
v 1.500000 -0.000000 -0.200001
v 1.500000 -0.000000 0.199999
v -1.500000 3.000000 -0.200001
v -1.500000 3.000000 0.199999
v 1.100000 2.600000 -0.200001
v 1.500000 3.000000 -0.200001
v 1.500000 3.000000 0.199999
v 1.100000 0.160000 -0.200001
v 1.090000 0.160000 -0.200001
v 1.070000 0.110000 -0.200001
v 1.070000 -0.000000 -0.200001
v 1.100000 0.160000 -0.200001
v 1.100001 -0.000000 -0.230000
v 1.100001 0.110000 -0.230000
v 1.100001 0.160000 -0.210000
v 1.100000 0.160000 0.199999
v 1.090000 0.160000 0.199999
v 1.070000 0.110000 0.199999
v 1.070000 -0.000000 0.199999
v 1.100001 -0.000000 0.230000
v 1.100001 0.110000 0.230000
v 1.100000 0.160000 0.199999
v 1.100001 0.160000 0.210000
v 1.500000 0.160000 0.199999
v 1.500001 -0.000000 0.230000
v 1.500001 0.110000 0.229999
v 1.500001 0.160000 0.210000
v 1.500001 -0.000000 -0.230000
v 1.500001 0.110000 -0.230000
v 1.500000 0.160000 -0.200001
v 1.500001 0.160000 -0.210000
v -1.100000 0.160000 0.200001
v -1.090000 0.160000 0.200001
v -1.070000 0.110000 0.200001
v -1.070000 -0.000000 0.200001
v -1.100000 0.160000 0.200001
v -1.100001 -0.000000 0.230000
v -1.100001 0.110000 0.230000
v -1.100001 0.160000 0.210000
v -1.100000 0.160000 -0.199999
v -1.090000 0.160000 -0.199999
v -1.070000 0.110000 -0.199999
v -1.070000 -0.000000 -0.199999
v -1.100001 -0.000000 -0.230000
v -1.100001 0.110000 -0.230000
v -1.100000 0.160000 -0.199999
v -1.100001 0.160000 -0.210000
v -1.500000 0.160000 -0.199999
v -1.500001 -0.000000 -0.230000
v -1.500001 0.110000 -0.229999
v -1.500001 0.160000 -0.210000
v -1.500001 -0.000000 0.230000
v -1.500001 0.110000 0.230000
v -1.500000 0.160000 0.200001
v -1.500001 0.160000 0.210000
vn 1.0000 -0.0000 -0.0000
vn -1.0000 -0.0000 -0.0000
vn -0.0000 -0.0000 1.0000
vn -0.0000 -1.0000 -0.0000
vn -0.0000 -0.0000 -1.0000
vn -0.9285 0.3714 -0.0000
vn -0.7071 -0.0000 -0.7071
vn -0.6804 0.2722 -0.6804
vn -0.6804 0.2722 0.6804
vn -0.0000 1.0000 -0.0000
vn -0.7071 -0.0000 0.7071
vn -0.0000 0.3714 -0.9285
vn -0.0000 0.3714 0.9285
vn 0.9285 0.3714 -0.0000
vn 0.7071 -0.0000 0.7071
vn 0.6804 0.2722 0.6804
vn 0.6804 0.2722 -0.6804
vn 0.7071 -0.0000 -0.7071
vt 0.875000 0.866667
vt 0.343011 0.866667
vt 0.898925 0.875000
vt 0.875000 0.000000
vt 0.343011 0.000000
vt 0.773925 0.866667
vt 0.898925 0.741667
vt 0.343011 0.866667
vt 0.773925 0.000000
vt 0.343011 0.000000
vt 0.241935 0.000000
vt 0.241935 0.000000
vt 0.875000 0.000000
vt 0.898925 0.000000
vt 0.773925 0.000000
vt 0.898925 0.000000
vt 0.875000 0.866667
vt 0.898925 0.866667
vt 0.343011 0.875000
vt 1.000000 0.000000
vt 1.000000 0.000000
vt 0.241935 1.000000
vt 0.241935 1.000000
vt 0.773925 0.866667
vt 0.343011 0.741667
vt 0.898925 0.866667
vt 1.000000 1.000000
vt 1.000000 1.000000
vt -0.495514 -0.329563
vt 0.724442 0.894067
vt -0.495514 -0.258224
vt 0.517323 0.768285
vt -0.495514 -0.335491
vt 0.728880 0.898505
vt -0.495514 -0.290929
vt 0.509877 0.800897
vt -0.495514 -0.359202
vt 0.509415 0.873559
vt 0.724442 0.894067
vt -0.260322 -0.329561
vt 0.533380 0.873559
vt -0.260320 -0.359202
vt 0.533380 0.800897
vt -0.260320 -0.290929
vt 0.524504 0.768285
vt 0.728879 0.889630
vt -0.260320 -0.258224
vt -0.260322 -0.335489
vt 0.724442 0.789660
vt -0.260320 -0.329563
vt -0.260320 -0.258224
vt 0.515627 0.706629
vt 0.728880 0.785222
vt -0.260320 -0.335491
vt -0.260320 -0.290929
vt 0.506752 0.674017
vt -0.260320 -0.359202
vt 0.506752 0.601355
vt 0.530718 0.601355
vt -0.260320 -0.359202
vt 0.530255 0.674016
vt -0.260320 -0.290929
vt 0.724442 0.789660
vt -0.260321 -0.293994
vt 0.522809 0.706629
vt 0.728880 0.794099
vt -0.260320 -0.258224
vt -0.260322 -0.288065
vt -0.495515 -0.293994
vt -0.495514 -0.359202
vt -0.495514 -0.290929
vt -0.495514 -0.258224
vt -0.495515 -0.288066
vt -0.495514 -0.359202
vt -0.495514 -0.290929
vt -0.495516 -0.329561
vt -0.495514 -0.258224
vt -0.495515 -0.335489
vt -0.495514 -0.329563
vt 0.724442 0.894067
vt -0.495514 -0.258224
vt 0.517323 0.768285
vt -0.495514 -0.335491
vt 0.728880 0.898505
vt -0.495514 -0.290929
vt 0.509877 0.800897
vt -0.495514 -0.359202
vt 0.509415 0.873559
vt 0.724442 0.894067
vt -0.260322 -0.329561
vt 0.533380 0.873559
vt -0.260320 -0.359202
vt 0.533380 0.800897
vt -0.260320 -0.290929
vt 0.524504 0.768285
vt 0.728879 0.889630
vt -0.260320 -0.258224
vt -0.260322 -0.335489
vt 0.724442 0.789660
vt -0.260320 -0.329563
vt -0.260320 -0.258224
vt 0.515627 0.706629
vt 0.728880 0.785222
vt -0.260320 -0.335491
vt -0.260320 -0.290929
vt 0.506752 0.674017
vt -0.260320 -0.359202
vt 0.506752 0.601355
vt 0.530718 0.601355
vt -0.260320 -0.359202
vt 0.530255 0.674016
vt -0.260320 -0.290929
vt 0.724442 0.789660
vt -0.260321 -0.293994
vt 0.522809 0.706629
vt 0.728880 0.794099
vt -0.260320 -0.258224
vt -0.260322 -0.288065
vt -0.495515 -0.293994
vt -0.495514 -0.359202
vt -0.495514 -0.290929
vt -0.495514 -0.258224
vt -0.495515 -0.288066
vt -0.495514 -0.359202
vt -0.495514 -0.290929
vt -0.495516 -0.329561
vt -0.495514 -0.258224
vt -0.495515 -0.335489
s 0
usemtl wall_6
f 2/4/1 4/9/1 3/6/1 1/1/1
f 8/15/2 7/13/2 9/17/2 14/24/2
f 11/21/3 16/28/3 13/23/3 6/12/3 2/5/3 1/2/3 9/18/3 7/14/3
f 1/3/4 3/7/4 14/25/4 9/19/4
f 5/11/5 12/22/5 15/27/5 10/20/5 8/16/5 14/26/5 3/8/5 4/10/5
usemtl wood_painted_white
f 28/57/2 27/55/2 19/35/2 20/37/2
f 26/51/6 18/31/6 19/35/6 27/55/6
f 19/36/7 23/43/7 22/41/7 20/38/7
f 18/32/8 24/45/8 23/43/8 19/36/8
f 26/52/9 27/56/9 30/61/9 32/65/9
f 25/49/10 26/53/10 32/66/10 31/63/10
f 25/50/10 17/29/10 18/33/10 26/54/10
f 27/56/11 28/58/11 29/59/11 30/61/11
f 17/30/10 21/39/10 24/46/10 18/34/10
f 22/42/5 23/44/5 38/75/5 37/74/5
f 24/47/12 40/77/12 38/75/12 23/44/12
f 21/40/10 39/76/10 40/78/10 24/48/10
f 34/70/3 35/71/3 30/62/3 29/60/3
f 36/72/13 32/67/13 30/62/13 35/71/13
f 33/69/10 31/64/10 32/68/10 36/73/10
f 52/107/1 51/105/1 43/85/1 44/87/1
f 50/101/14 42/81/14 43/85/14 51/105/14
f 43/86/15 47/93/15 46/91/15 44/88/15
f 42/82/16 48/95/16 47/93/16 43/86/16
f 50/102/17 51/106/17 54/111/17 56/115/17
f 49/99/10 50/103/10 56/116/10 55/113/10
f 49/100/10 41/79/10 42/83/10 50/104/10
f 51/106/18 52/108/18 53/109/18 54/111/18
f 41/80/10 45/89/10 48/96/10 42/84/10
f 46/92/3 47/94/3 62/125/3 61/124/3
f 48/97/13 64/127/13 62/125/13 47/94/13
f 45/90/10 63/126/10 64/128/10 48/98/10
f 58/120/5 59/121/5 54/112/5 53/110/5
f 60/122/12 56/117/12 54/112/12 59/121/12
f 57/119/10 55/114/10 56/118/10 60/123/10
