# Blender 3.4.0
# www.blender.org
mtllib bars_metal_2.mtl
o bars_metal_2
v -0.917320 -0.000000 0.020000
v -0.917320 2.400000 0.020000
v -0.917320 -0.000000 -0.000000
v -0.917320 2.400000 -0.000000
v -0.882679 -0.000000 0.020000
v -0.882679 2.400000 0.020000
v -0.882679 -0.000000 -0.000000
v -0.882679 2.400000 -0.000000
v 0.882680 -0.000000 0.020000
v 0.882680 2.400000 0.020000
v 0.882680 -0.000000 -0.000000
v 0.882680 2.400000 -0.000000
v 0.917321 -0.000000 0.020000
v 0.917321 2.400000 0.020000
v 0.917321 -0.000000 -0.000000
v 0.917321 2.400000 -0.000000
v 0.282680 -0.000000 0.020000
v 0.282680 2.400000 0.020000
v 0.282680 -0.000000 -0.000000
v 0.282680 2.400000 -0.000000
v 0.317321 -0.000000 0.020000
v 0.317321 2.400000 0.020000
v 0.317321 -0.000000 -0.000000
v 0.317321 2.400000 -0.000000
v 0.617321 2.400000 -0.000000
v 0.617321 -0.000000 -0.000000
v 0.617321 2.400000 0.020000
v 0.617321 -0.000000 0.020000
v 0.582680 2.400000 -0.000000
v 0.582680 -0.000000 -0.000000
v 0.582680 2.400000 0.020000
v 0.582680 -0.000000 0.020000
v 0.017321 2.400000 -0.000000
v 0.017321 -0.000000 -0.000000
v 0.017321 2.400000 0.020000
v 0.017321 -0.000000 0.020000
v -0.017320 2.400000 -0.000000
v -0.017320 -0.000000 -0.000000
v -0.017320 2.400000 0.020000
v -0.017320 -0.000000 0.020000
v -0.317320 -0.000000 0.020000
v -0.317320 2.400000 0.020000
v -0.317320 -0.000000 -0.000000
v -0.317320 2.400000 -0.000000
v -0.282679 -0.000000 0.020000
v -0.282679 2.400000 0.020000
v -0.282679 -0.000000 -0.000000
v -0.282679 2.400000 -0.000000
v -0.582679 2.400000 -0.000000
v -0.582679 -0.000000 -0.000000
v -0.582679 2.400000 0.020000
v -0.582679 -0.000000 0.020000
v -0.617320 2.400000 -0.000000
v -0.617320 -0.000000 -0.000000
v -0.617320 2.400000 0.020000
v -1.250000 0.467320 -0.020000
v 1.250000 0.467320 -0.020000
v -1.250000 0.467320 -0.000000
v 1.250000 0.467320 -0.000000
v -1.250000 0.432679 -0.020000
v 1.250000 0.432679 -0.020000
v -1.250000 0.432679 -0.000000
v 1.250000 0.432679 -0.000000
v 1.250000 0.132679 -0.000000
v -1.250000 0.132679 -0.000000
v 1.250000 0.132679 -0.020000
v -1.250000 0.132679 -0.020000
v 1.250000 0.167320 -0.000000
v -1.250000 0.167320 -0.000000
v 1.250000 0.167320 -0.020000
v -1.250000 0.167320 -0.020000
v -1.250000 0.767320 -0.020000
v 1.250000 0.767320 -0.020000
v -1.250000 0.767320 -0.000000
v 1.250000 0.767320 -0.000000
v -1.250000 0.732679 -0.020000
v 1.250000 0.732679 -0.020000
v -1.250000 0.732679 -0.000000
v 1.250000 0.732679 -0.000000
v 1.250000 1.032679 -0.000000
v -1.250000 1.032679 -0.000000
v 1.250000 1.032679 -0.020000
v -1.250000 1.032679 -0.020000
v 1.250000 1.067320 -0.000000
v -1.250000 1.067320 -0.000000
v 1.250000 1.067320 -0.020000
v -1.250000 1.067320 -0.020000
v -1.250000 1.667320 -0.020000
v 1.250000 1.667320 -0.020000
v -1.250000 1.667320 -0.000000
v 1.250000 1.667320 -0.000000
v -1.250000 1.632679 -0.020000
v 1.250000 1.632679 -0.020000
v -1.250000 1.632679 -0.000000
v 1.250000 1.632679 -0.000000
v 1.250000 1.332679 -0.000000
v -1.250000 1.332679 -0.000000
v 1.250000 1.332679 -0.020000
v -1.250000 1.332679 -0.020000
v 1.250000 1.367320 -0.000000
v -1.250000 1.367320 -0.000000
v 1.250000 1.367320 -0.020000
v -1.250000 1.367320 -0.020000
v -1.250000 1.967320 -0.020000
v 1.250000 1.967320 -0.020000
v -1.250000 1.967320 -0.000000
v 1.250000 1.967320 -0.000000
v -1.250000 1.932679 -0.020000
v 1.250000 1.932679 -0.020000
v -1.250000 1.932679 -0.000000
v 1.250000 1.932679 -0.000000
v 1.250000 2.232679 -0.000000
v -1.250000 2.232679 -0.000000
v 1.250000 2.232679 -0.020000
v -1.250000 2.232679 -0.020000
v 1.250000 2.267320 -0.000000
v -1.250000 2.267320 -0.000000
v 1.250000 2.267320 -0.020000
v -1.250000 2.267320 -0.020000
v -0.617320 -0.000000 0.020000
vn -0.0000 -1.0000 -0.0000
vn 0.0001 0.1951 -0.9808
vn -0.0000 0.1951 -0.9808
vn -0.0001 -0.1951 -0.9808
vn -0.0000 -0.1951 -0.9808
vn -0.0000 -0.1951 0.9808
vn -0.0000 0.1951 0.9808
vn 0.9808 -0.0000 -0.1951
vn 0.9808 -0.0001 0.1951
vn 0.9808 -0.0000 0.1951
vn -0.0000 1.0000 -0.0000
vn -0.9808 0.0001 0.1951
vn -0.9808 -0.0000 0.1951
vn -0.9808 -0.0000 -0.1951
vn 1.0000 -0.0000 -0.0000
vn 0.1951 -0.0000 0.9808
vn -0.1951 -0.0001 0.9808
vn -0.1951 -0.0000 0.9808
vn -0.0003 -0.9808 0.1951
vn -0.0000 -0.9808 0.1951
vn 0.0001 -0.9808 -0.1951
vn -0.0000 -0.9808 -0.1951
vn -1.0000 -0.0000 -0.0000
vn -0.0000 0.9808 -0.1951
vn 0.0002 0.9808 0.1951
vn -0.0000 0.9808 0.1951
vn -0.1951 0.0002 -0.9808
vn -0.1951 -0.0000 -0.9808
vn 0.1951 -0.0003 -0.9808
vn 0.1951 -0.0000 -0.9808
vt 0.071429 0.507143
vt 0.172386 0.071429
vt 0.172386 0.507143
vt 0.172386 0.507143
vt 0.928571 0.507143
vt 0.172386 0.928571
vt 0.071429 0.500000
vt 0.172386 0.071429
vt 0.172386 0.500000
vt 0.172386 0.500000
vt 0.928571 0.500000
vt 0.172386 0.928571
vt 0.184757 0.071429
vt 0.071429 0.507143
vt 0.184757 0.507143
vt 0.184757 0.507143
vt 0.184757 0.928571
vt 0.928571 0.507143
vt 0.184757 0.071429
vt 0.071429 0.500000
vt 0.184757 0.500000
vt 0.184757 0.500000
vt 0.184757 0.928571
vt 0.928571 0.500000
vt 0.815243 0.071429
vt 0.815243 0.507143
vt 0.071429 0.507143
vt 0.815243 0.507143
vt 0.815243 0.928571
vt 0.928571 0.507143
vt 0.815243 0.071429
vt 0.815243 0.500000
vt 0.071429 0.500000
vt 0.815243 0.928571
vt 0.815243 0.500000
vt 0.928571 0.500000
vt 0.071429 0.507143
vt 0.827615 0.071429
vt 0.827615 0.507143
vt 0.827615 0.507143
vt 0.928571 0.507143
vt 0.827615 0.928571
vt 0.827615 0.071429
vt 0.071429 0.500000
vt 0.827615 0.500000
vt 0.827615 0.928571
vt 0.827615 0.500000
vt 0.928571 0.500000
vt 0.600957 0.071429
vt 0.600957 0.507143
vt 0.071429 0.507143
vt 0.600957 0.928571
vt 0.600957 0.507143
vt 0.928571 0.507143
vt 0.600957 0.071429
vt 0.600957 0.500000
vt 0.071429 0.500000
vt 0.600957 0.928571
vt 0.600957 0.500000
vt 0.928571 0.500000
vt 0.613329 0.071429
vt 0.613329 0.507143
vt 0.071429 0.507143
vt 0.613329 0.928571
vt 0.928571 0.507143
vt 0.613329 0.507143
vt 0.613329 0.071429
vt 0.613329 0.500000
vt 0.071429 0.500000
vt 0.613329 0.928571
vt 0.928571 0.500000
vt 0.613329 0.500000
vt 0.928571 0.500000
vt 0.720472 0.928571
vt 0.720472 0.500000
vt 0.720472 0.500000
vt 0.071429 0.500000
vt 0.720472 0.071429
vt 0.720472 0.928571
vt 0.928571 0.507143
vt 0.720472 0.507143
vt 0.720472 0.507143
vt 0.720472 0.071429
vt 0.071429 0.507143
vt 0.708100 0.928571
vt 0.708100 0.500000
vt 0.928571 0.500000
vt 0.708100 0.500000
vt 0.708100 0.071429
vt 0.071429 0.500000
vt 0.708100 0.928571
vt 0.708100 0.507143
vt 0.928571 0.507143
vt 0.708100 0.507143
vt 0.708100 0.071429
vt 0.071429 0.507143
vt 0.928571 0.500000
vt 0.506186 0.928571
vt 0.506186 0.500000
vt 0.071429 0.500000
vt 0.506186 0.500000
vt 0.506186 0.071429
vt 0.928571 0.507143
vt 0.506186 0.928571
vt 0.506186 0.507143
vt 0.071429 0.507143
vt 0.506186 0.507143
vt 0.506186 0.071429
vt 0.493814 0.928571
vt 0.493814 0.500000
vt 0.928571 0.500000
vt 0.493814 0.500000
vt 0.493814 0.071429
vt 0.071429 0.500000
vt 0.493814 0.928571
vt 0.493814 0.507143
vt 0.928571 0.507143
vt 0.493814 0.507143
vt 0.493814 0.071429
vt 0.071429 0.507143
vt 0.071429 0.507143
vt 0.386671 0.071429
vt 0.386671 0.507143
vt 0.386671 0.507143
vt 0.928571 0.507143
vt 0.386671 0.928571
vt 0.071429 0.500000
vt 0.386671 0.071429
vt 0.386671 0.500000
vt 0.386671 0.500000
vt 0.928571 0.500000
vt 0.386671 0.928571
vt 0.071429 0.507143
vt 0.399043 0.071429
vt 0.399043 0.507143
vt 0.399043 0.507143
vt 0.928571 0.507143
vt 0.399043 0.928571
vt 0.071429 0.500000
vt 0.399043 0.071429
vt 0.399043 0.500000
vt 0.399043 0.500000
vt 0.928571 0.500000
vt 0.399043 0.928571
vt 0.928571 0.500000
vt 0.291900 0.928571
vt 0.291900 0.500000
vt 0.291900 0.500000
vt 0.071429 0.500000
vt 0.291900 0.071429
vt 0.928571 0.507143
vt 0.291900 0.928571
vt 0.291900 0.507143
vt 0.291900 0.507143
vt 0.071429 0.507143
vt 0.291900 0.071429
vt 0.279528 0.928571
vt 0.279528 0.500000
vt 0.928571 0.500000
vt 0.279528 0.500000
vt 0.279528 0.071429
vt 0.071429 0.500000
vt 0.279528 0.928571
vt 0.279528 0.507143
vt 0.928571 0.507143
vt 0.053571 0.492857
vt 0.238329 0.492857
vt 0.053571 0.238329
vt 0.238329 0.492857
vt 0.946429 0.492857
vt 0.946429 0.238329
vt 0.053571 0.238329
vt 0.053571 0.500000
vt 0.238329 0.500000
vt 0.238329 0.500000
vt 0.946429 0.238329
vt 0.946429 0.500000
vt 0.053571 0.492857
vt 0.225957 0.492857
vt 0.053571 0.225957
vt 0.225957 0.492857
vt 0.946429 0.492857
vt 0.946429 0.225957
vt 0.053571 0.225957
vt 0.053571 0.500000
vt 0.225957 0.500000
vt 0.225957 0.500000
vt 0.946429 0.225957
vt 0.946429 0.500000
vt 0.946429 0.500000
vt 0.118814 0.500000
vt 0.946429 0.118814
vt 0.053571 0.500000
vt 0.118814 0.500000
vt 0.053571 0.118814
vt 0.946429 0.492857
vt 0.118814 0.492857
vt 0.946429 0.118814
vt 0.053571 0.492857
vt 0.118814 0.492857
vt 0.053571 0.118814
vt 0.131186 0.500000
vt 0.946429 0.131186
vt 0.946429 0.500000
vt 0.131186 0.500000
vt 0.053571 0.131186
vt 0.053571 0.500000
vt 0.131186 0.492857
vt 0.946429 0.492857
vt 0.946429 0.131186
vt 0.131186 0.492857
vt 0.053571 0.492857
vt 0.053571 0.131186
vt 0.053571 0.345471
vt 0.053571 0.492857
vt 0.345471 0.492857
vt 0.946429 0.345472
vt 0.946429 0.492857
vt 0.345472 0.492857
vt 0.053571 0.345471
vt 0.053571 0.500000
vt 0.345471 0.500000
vt 0.946429 0.345472
vt 0.946429 0.500000
vt 0.345472 0.500000
vt 0.053571 0.333100
vt 0.333100 0.492857
vt 0.053571 0.492857
vt 0.946429 0.333100
vt 0.333100 0.492857
vt 0.946429 0.492857
vt 0.053571 0.333100
vt 0.333100 0.500000
vt 0.053571 0.500000
vt 0.946429 0.333100
vt 0.333100 0.500000
vt 0.946429 0.500000
vt 0.946429 0.500000
vt 0.440243 0.500000
vt 0.946429 0.440243
vt 0.440243 0.500000
vt 0.053571 0.500000
vt 0.053571 0.440243
vt 0.946429 0.492857
vt 0.440243 0.492857
vt 0.946429 0.440243
vt 0.440243 0.492857
vt 0.053571 0.492857
vt 0.053571 0.440243
vt 0.946429 0.500000
vt 0.452614 0.500000
vt 0.946429 0.452614
vt 0.452614 0.500000
vt 0.053571 0.500000
vt 0.053571 0.452614
vt 0.946429 0.492857
vt 0.452614 0.492857
vt 0.946429 0.452614
vt 0.452614 0.492857
vt 0.053571 0.492857
vt 0.053571 0.452614
vt 0.053571 0.666900
vt 0.666900 0.492857
vt 0.053571 0.492857
vt 0.946429 0.666900
vt 0.666900 0.492857
vt 0.946429 0.492857
vt 0.053571 0.666900
vt 0.666900 0.500000
vt 0.053571 0.500000
vt 0.946429 0.666900
vt 0.666900 0.500000
vt 0.946429 0.500000
vt 0.053571 0.654528
vt 0.053571 0.492857
vt 0.654528 0.492857
vt 0.946429 0.654528
vt 0.946429 0.492857
vt 0.654528 0.492857
vt 0.053571 0.654528
vt 0.053571 0.500000
vt 0.654528 0.500000
vt 0.946429 0.654528
vt 0.946429 0.500000
vt 0.654528 0.500000
vt 0.547385 0.500000
vt 0.946429 0.500000
vt 0.946429 0.547385
vt 0.053571 0.500000
vt 0.547385 0.500000
vt 0.053571 0.547385
vt 0.547385 0.492857
vt 0.946429 0.492857
vt 0.946429 0.547385
vt 0.053571 0.492857
vt 0.547385 0.492857
vt 0.053571 0.547385
vt 0.559757 0.500000
vt 0.946429 0.500000
vt 0.946429 0.559757
vt 0.053571 0.500000
vt 0.559757 0.500000
vt 0.053571 0.559757
vt 0.559757 0.492857
vt 0.946429 0.492857
vt 0.946429 0.559757
vt 0.053571 0.492857
vt 0.559757 0.492857
vt 0.053571 0.559757
vt 0.053571 0.492857
vt 0.774043 0.492857
vt 0.053571 0.774043
vt 0.946429 0.492857
vt 0.946429 0.774043
vt 0.774043 0.492857
vt 0.053571 0.500000
vt 0.774043 0.500000
vt 0.053571 0.774043
vt 0.946429 0.500000
vt 0.774043 0.500000
vt 0.946429 0.774043
vt 0.761671 0.492857
vt 0.053571 0.761671
vt 0.053571 0.492857
vt 0.946429 0.761671
vt 0.761671 0.492857
vt 0.946429 0.492857
vt 0.761671 0.500000
vt 0.053571 0.500000
vt 0.053571 0.761671
vt 0.761671 0.500000
vt 0.946429 0.500000
vt 0.946429 0.761671
vt 0.946429 0.868814
vt 0.946429 0.500000
vt 0.868814 0.500000
vt 0.868814 0.500000
vt 0.053571 0.868814
vt 0.053571 0.500000
vt 0.946429 0.868814
vt 0.946429 0.492857
vt 0.868814 0.492857
vt 0.868814 0.492857
vt 0.053571 0.868814
vt 0.053571 0.492857
vt 0.946429 0.500000
vt 0.946429 0.881186
vt 0.881186 0.500000
vt 0.881186 0.500000
vt 0.053571 0.500000
vt 0.053571 0.881186
vt 0.946429 0.492857
vt 0.946429 0.881186
vt 0.881186 0.492857
vt 0.881186 0.492857
vt 0.053571 0.492857
vt 0.053571 0.881186
vt 0.279528 0.507143
vt 0.279528 0.071429
vt 0.071429 0.507143
s 1
usemtl metal_mp_6
f 30/88/1 26/76/1 28/82/1 32/94/1
f 23/67/2 19/55/3 20/58/4 24/70/5
f 18/52/6 17/49/7 21/61/7 22/64/6
f 19/56/1 23/68/1 21/62/1 17/50/1
f 31/91/6 32/95/7 28/83/7 27/79/6
f 22/65/8 21/63/8 23/69/9 24/71/10
f 8/22/11 4/10/11 2/4/11 6/16/11
f 4/11/12 3/7/13 1/1/14 2/5/14
f 7/19/2 3/8/3 4/12/4 8/23/5
f 2/6/6 1/2/7 5/13/7 6/17/6
f 6/18/8 5/14/8 7/20/9 8/24/10
f 3/9/1 7/21/1 5/15/1 1/3/1
f 27/80/8 28/84/8 26/77/9 25/73/10
f 26/78/2 30/89/3 29/85/4 25/74/5
f 25/75/11 29/86/11 31/92/11 27/81/11
f 29/87/12 30/90/13 32/96/14 31/93/14
f 35/103/8 36/106/8 34/100/9 33/97/10
f 38/112/1 34/101/1 36/107/1 40/118/1
f 34/102/2 38/113/3 37/109/4 33/98/5
f 39/115/6 40/119/7 36/108/7 35/104/6
f 33/99/11 37/110/11 39/116/11 35/105/11
f 37/111/12 38/114/13 40/120/14 39/117/14
f 48/142/11 44/130/11 42/124/11 46/136/11
f 44/131/12 43/127/13 41/121/14 42/125/14
f 46/137/8 45/133/8 47/139/9 48/143/10
f 47/140/2 43/128/3 44/132/4 48/144/5
f 42/126/6 41/122/7 45/134/7 46/138/6
f 54/160/1 50/148/1 52/154/1 120/358/1
f 51/151/8 52/155/8 50/149/9 49/145/10
f 43/129/1 47/141/1 45/135/1 41/123/1
f 15/43/2 11/31/3 12/34/4 16/46/5
f 16/47/11 12/35/11 10/28/11 14/40/11
f 50/150/2 54/161/3 53/157/4 49/146/5
f 55/163/6 120/359/7 52/156/7 51/152/6
f 14/41/8 13/37/8 15/44/9 16/48/10
f 24/72/11 20/59/11 18/53/11 22/66/11
f 49/147/11 53/158/11 55/164/11 51/153/11
f 53/159/12 54/162/13 120/360/14 55/165/14
f 10/29/6 9/25/7 13/38/7 14/42/6
f 11/32/1 15/45/1 13/39/1 9/26/1
f 20/60/12 19/57/13 17/51/14 18/54/14
f 12/36/12 11/33/13 9/27/14 10/30/14
f 61/181/15 57/169/15 59/175/15 63/187/15
f 62/184/16 63/188/17 59/176/18 58/172/16
f 67/199/19 66/196/20 64/190/21 65/193/22
f 66/197/15 70/208/15 68/202/15 64/191/15
f 71/211/23 67/200/23 65/194/23 69/205/23
f 58/173/24 59/177/24 57/170/25 56/166/26
f 60/178/19 61/182/20 63/189/21 62/185/22
f 78/232/16 79/235/17 75/223/18 74/220/16
f 73/217/27 77/229/28 76/226/29 72/214/30
f 65/195/16 64/192/17 68/203/18 69/206/16
f 69/207/24 68/204/24 70/209/25 71/212/26
f 56/167/23 60/179/23 62/186/23 58/174/23
f 70/210/27 66/198/28 67/201/29 71/213/30
f 57/171/27 61/183/28 60/180/29 56/168/30
f 87/259/23 83/247/23 81/241/23 85/253/23
f 74/221/24 75/224/24 73/218/25 72/215/26
f 72/216/23 76/227/23 78/233/23 74/222/23
f 85/254/24 84/250/24 86/256/25 87/260/26
f 83/248/19 82/244/20 80/238/21 81/242/22
f 82/245/15 86/257/15 84/251/15 80/239/15
f 77/230/15 73/219/15 75/225/15 79/236/15
f 94/280/16 95/283/17 91/271/18 90/268/16
f 89/265/27 93/277/28 92/274/29 88/262/30
f 92/275/19 93/278/20 95/284/21 94/281/22
f 86/258/27 82/246/28 83/249/29 87/261/30
f 81/243/16 80/240/17 84/252/18 85/255/16
f 93/279/15 89/266/15 91/272/15 95/285/15
f 76/228/19 77/231/20 79/237/21 78/234/22
f 98/292/15 102/304/15 100/298/15 96/286/15
f 88/263/23 92/276/23 94/282/23 90/269/23
f 90/270/24 91/273/24 89/267/25 88/264/26
f 99/295/19 98/293/20 96/287/21 97/289/22
f 101/301/24 100/299/24 102/305/25 103/307/26
f 103/308/23 99/296/23 97/290/23 101/302/23
f 102/306/27 98/294/28 99/297/29 103/309/30
f 106/316/24 107/319/24 105/313/25 104/310/26
f 104/311/23 108/322/23 110/328/23 106/317/23
f 105/314/27 109/325/28 108/323/29 104/312/30
f 109/326/15 105/315/15 107/320/15 111/331/15
f 108/324/19 109/327/20 111/332/21 110/329/22
f 110/330/16 111/333/17 107/321/18 106/318/16
f 97/291/16 96/288/17 100/300/18 101/303/16
f 119/355/23 115/343/23 113/337/23 117/349/23
f 117/350/24 116/346/24 118/352/25 119/356/26
f 118/353/27 114/340/28 115/344/29 119/357/30
f 113/338/16 112/334/17 116/347/18 117/351/16
f 115/345/19 114/341/20 112/335/21 113/339/22
f 114/342/15 118/354/15 116/348/15 112/336/15
