# Blender 3.4.0
# www.blender.org
mtllib beam_5.mtl
o beam_5
v 2.000000 -0.000000 0.100000
v -2.000000 -0.000000 0.100000
v 2.000000 -0.000000 -0.100000
v -2.000000 -0.000000 -0.100000
v 2.000000 -0.250000 0.100000
v -2.000000 -0.250000 0.100000
v 2.000000 -0.250000 -0.100000
v -2.000000 -0.250000 -0.100000
v 1.999996 -0.124001 0.020003
v 2.000000 -0.045802 0.060000
v 2.000000 -0.078972 0.030718
v -2.000004 -0.124001 0.020003
v -2.000000 -0.078972 0.030718
v -2.000000 -0.045802 0.060000
v 1.999996 -0.124001 -0.019997
v 2.000000 -0.078972 -0.030718
v 2.000000 -0.045802 -0.060000
v -2.000004 -0.124001 -0.019997
v -2.000000 -0.045802 -0.060000
v -2.000000 -0.078972 -0.030718
v 2.000000 -0.171029 0.030718
v 2.000000 -0.204199 0.060000
v -2.000000 -0.204199 0.060000
v -2.000000 -0.171029 0.030718
v 2.000000 -0.204199 -0.060000
v 2.000000 -0.171029 -0.030718
v -2.000000 -0.171029 -0.030718
v -2.000000 -0.204199 -0.060000
v 2.000000 -0.029908 0.095158
v -2.000000 -0.029908 0.095158
v 2.000000 -0.029908 -0.095158
v 2.000000 -0.220092 -0.095158
v -2.000000 -0.220092 -0.095158
v -2.000000 -0.029908 -0.095158
v 2.000000 -0.220092 0.095158
v -2.000000 -0.220092 0.095158
vn -1.0000 -0.0000 -0.0000
vn -0.0000 0.4562 -0.8899
vn -0.0000 -0.0048 -1.0000
vn 1.0000 -0.0000 -0.0000
vn -0.0000 -0.8044 -0.5940
vn -0.0000 -0.9112 -0.4119
vn -0.0000 0.1598 0.9871
vn -0.0000 -0.4604 -0.8877
vn -0.0000 0.9112 0.4119
vn -0.0000 0.8044 0.5940
vn -0.0000 -0.8044 0.5940
vn -0.0000 -0.9112 0.4119
vn -0.0000 -0.1598 -0.9871
vn -0.0000 0.9112 -0.4119
vn -0.0000 0.8044 -0.5940
vn -0.0000 0.4561 0.8899
vn -0.0000 -0.0048 1.0000
vn -0.0000 -0.4604 0.8877
vn -0.0000 -1.0000 -0.0000
vn -0.0000 0.1598 -0.9871
vn -0.0000 1.0000 -0.0000
vn -0.0000 -0.1598 0.9871
vt 1.200001 0.535000
vt 0.543750 0.535000
vt 1.200001 0.543750
vt -0.199999 0.535000
vt 0.543750 0.535000
vt -0.199999 0.543750
vt 1.200001 0.543750
vt 1.200001 0.465000
vt 0.543750 0.465000
vt -0.199999 0.543750
vt -0.199999 0.465000
vt 0.543750 0.465000
vt 1.200001 0.456250
vt 0.456250 0.535000
vt 1.200001 0.535000
vt -0.199999 0.456250
vt -0.199999 0.535000
vt 0.456250 0.535000
vt 1.200001 0.465000
vt 1.200001 0.456250
vt 0.456250 0.465000
vt 0.456250 0.465000
vt -0.199999 0.465000
vt -0.199999 0.456250
vt 0.500350 0.507001
vt 1.199999 0.500350
vt 1.200001 0.521000
vt 1.200001 0.527719
vt 0.527719 0.521000
vt 0.516110 0.510751
vt 1.200001 0.516110
vt 0.500350 0.507001
vt -0.200001 0.500350
vt 0.516110 0.510751
vt -0.199999 0.516110
vt -0.199999 0.521000
vt -0.199999 0.527719
vt 0.527719 0.521000
vt 0.500350 0.493001
vt 1.199999 0.500350
vt 0.516110 0.489249
vt 1.200001 0.516110
vt 1.200001 0.479000
vt 1.200001 0.527719
vt 0.527719 0.479000
vt -0.200001 0.500350
vt 0.500350 0.493001
vt -0.199999 0.479000
vt -0.199999 0.527719
vt 0.527719 0.479000
vt 0.516110 0.489249
vt -0.199999 0.516110
vt 0.483890 0.510751
vt 1.200001 0.483890
vt 1.200001 0.521000
vt 0.472280 0.521000
vt 1.200001 0.472280
vt -0.199999 0.521000
vt 0.472280 0.521000
vt -0.199999 0.472280
vt 0.483890 0.510751
vt -0.199999 0.483890
vt 1.200001 0.479000
vt 1.200001 0.472280
vt 0.472280 0.479000
vt 1.200001 0.483890
vt 0.483890 0.489249
vt 0.483890 0.489249
vt -0.199999 0.483890
vt 0.472280 0.479000
vt -0.199999 0.479000
vt -0.199999 0.472280
vt 0.533282 0.533305
vt 1.200001 0.533282
vt 0.533282 0.533305
vt -0.199999 0.533282
vt 1.200001 0.466695
vt 1.200001 0.533282
vt 0.533282 0.466695
vt 1.200001 0.466718
vt 0.466718 0.466695
vt 0.466718 0.466695
vt -0.199999 0.466718
vt -0.199999 0.466695
vt -0.199999 0.533282
vt 0.533282 0.466695
vt 0.466718 0.533305
vt 1.200001 0.466718
vt 1.200001 0.533305
vt -0.199999 0.466718
vt -0.199999 0.533305
vt 0.466718 0.533305
s 1
usemtl metal_mp_6
f 2/5/1 4/12/1 19/50/1 14/38/1
f 26/66/2 27/69/2 18/46/3 15/40/3
f 24/61/1 27/68/1 28/70/1 23/59/1
f 15/39/4 9/25/4 21/53/4 26/67/4
f 11/30/4 16/41/4 17/45/4 10/29/4
f 22/56/4 35/87/4 5/14/4
f 17/43/5 19/48/5 34/84/6 31/77/6
f 33/82/1 8/22/1 28/70/1
f 16/41/4 11/30/4 9/25/4 15/39/4
f 35/88/7 36/90/7 6/16/7 5/13/7
f 23/59/1 28/70/1 8/22/1 6/18/1
f 3/9/4 1/2/4 10/29/4 17/45/4
f 18/46/3 20/52/8 16/42/8 15/40/3
f 13/34/1 20/51/1 18/47/1 12/32/1
f 25/65/4 22/56/4 5/14/4 7/21/4
f 36/91/9 35/89/9 22/55/10 23/58/10
f 14/36/11 10/27/11 29/74/12 30/76/12
f 31/78/13 34/85/13 4/10/13 3/7/13
f 32/80/14 33/83/14 28/71/15 25/63/15
f 24/62/16 21/54/16 9/26/17 12/33/17
f 12/32/1 18/47/1 27/68/1 24/61/1
f 13/35/18 11/31/18 10/28/11 14/37/11
f 25/64/15 28/72/15 27/69/2 26/66/2
f 14/38/1 19/50/1 20/51/1 13/34/1
f 6/17/19 8/23/19 7/19/19 5/15/19
f 33/83/20 32/80/20 7/20/20 8/24/20
f 4/11/21 2/4/21 1/1/21 3/8/21
f 16/42/8 20/52/8 19/49/5 17/44/5
f 12/33/17 9/26/17 11/31/18 13/35/18
f 34/86/1 19/50/1 4/12/1
f 30/75/1 2/5/1 14/38/1
f 26/67/4 21/53/4 22/56/4 25/65/4
f 36/92/1 23/59/1 6/18/1
f 29/73/4 10/29/4 1/2/4
f 25/65/4 7/21/4 32/81/4
f 31/79/4 3/9/4 17/45/4
f 23/60/10 22/57/10 21/54/16 24/62/16
f 29/74/22 1/3/22 2/6/22 30/76/22
