# Blender 3.4.0
# www.blender.org
mtllib beam_4.mtl
o beam_4
v 2.000000 -0.000000 0.100000
v 2.000000 -0.000000 -0.100000
v 2.000000 -0.250000 0.100000
v 2.000000 -0.250000 -0.100000
v 2.000000 -0.062500 0.020000
v 2.000000 -0.041619 0.031163
v -2.000000 -0.220720 -0.095039
v 2.000000 -0.062500 -0.020000
v 2.000000 -0.041619 -0.031163
v -2.000000 -0.220720 0.095038
v 2.000000 -0.187500 0.020000
v 2.000000 -0.208381 0.031163
v -2.000000 -0.029281 -0.095039
v 2.000000 -0.187500 -0.020000
v 2.000000 -0.208381 -0.031163
v -2.000000 -0.029281 0.095038
v 2.000000 -0.029281 0.095039
v -2.000000 -0.208381 -0.031163
v -2.000000 -0.187500 -0.020000
v -2.000000 -0.208381 0.031163
v 2.000000 -0.029281 -0.095038
v -2.000000 -0.187500 0.020000
v -2.000000 -0.041619 -0.031163
v 2.000000 -0.220720 0.095039
v -2.000000 -0.062500 -0.020000
v -2.000000 -0.041619 0.031163
v -2.000000 -0.062500 0.020000
v 2.000000 -0.220720 -0.095038
v -2.000000 -0.250000 -0.100000
v -2.000000 -0.250000 0.100000
v -2.000000 -0.000000 -0.100000
v -2.000000 -0.000000 0.100000
vn -0.0000 -0.1671 0.9859
vn -1.0000 -0.0000 -0.0000
vn 1.0000 -0.0000 -0.0000
vn -0.0000 0.2430 -0.9700
vn -0.0000 -0.2430 -0.9700
vn -0.0000 0.1671 -0.9859
vn -0.0000 -0.8049 -0.5934
vn -0.0000 0.2430 0.9700
vn -0.0000 0.8049 0.5934
vn -0.0000 -0.2430 0.9700
vn -0.0000 -0.8049 0.5934
vn -0.0000 -0.9818 0.1897
vn -0.0000 -1.0000 -0.0000
vn -0.0000 -0.9818 -0.1897
vn -0.0000 0.9818 0.1897
vn -0.0000 0.8049 -0.5934
vn -0.0000 0.9818 -0.1897
vn -0.0000 -0.1671 -0.9859
vn -0.0000 1.0000 -0.0000
vn -0.0000 0.1671 0.9859
vt 1.200000 0.543750
vt 1.200000 0.535000
vt 0.543750 0.535000
vt 1.200000 0.543750
vt 1.200000 0.465000
vt 0.543750 0.465000
vt 0.456250 0.535000
vt 1.200000 0.535000
vt 1.200000 0.456250
vt 0.456250 0.465000
vt 1.200000 0.456250
vt 1.200000 0.465000
vt 0.521875 0.507000
vt 1.200000 0.521875
vt 0.529183 0.510907
vt 1.200000 0.510907
vt 1.200000 0.529183
vt 0.466498 0.466736
vt -0.200000 0.466498
vt -0.200000 0.466736
vt 1.200000 0.521875
vt 0.521875 0.493000
vt 0.529183 0.489093
vt 1.200000 0.529183
vt 1.200000 0.489093
vt 0.466498 0.533263
vt -0.200000 0.533263
vt -0.200000 0.466498
vt 1.200000 0.478125
vt 0.478125 0.507000
vt 1.200000 0.470817
vt 0.470817 0.510907
vt 1.200000 0.510907
vt 0.533502 0.466736
vt -0.200000 0.466736
vt -0.200000 0.533502
vt 0.478125 0.493000
vt 1.200000 0.478125
vt 0.470817 0.489093
vt 1.200000 0.470817
vt 1.200000 0.489093
vt -0.200000 0.533502
vt 0.533502 0.533263
vt -0.200000 0.533263
vt 1.200000 0.533502
vt 1.200000 0.533264
vt 0.533502 0.533264
vt 0.470817 0.489093
vt -0.200000 0.470817
vt -0.200000 0.489093
vt -0.200000 0.478125
vt 0.478125 0.493000
vt 0.470817 0.510907
vt -0.200000 0.470817
vt -0.200000 0.510907
vt 1.200000 0.466737
vt 1.200000 0.533502
vt 0.533502 0.466737
vt -0.200000 0.478125
vt 0.478125 0.507000
vt -0.200000 0.529183
vt -0.200000 0.489093
vt 0.529183 0.489093
vt 0.466498 0.533264
vt 1.200000 0.533264
vt 1.200000 0.466498
vt -0.200000 0.521875
vt 0.521875 0.493000
vt -0.200000 0.510907
vt 0.529183 0.510907
vt -0.200000 0.529183
vt 0.521875 0.507000
vt -0.200000 0.521875
vt 1.200000 0.466498
vt 0.466498 0.466737
vt 1.200000 0.466737
vt 0.456250 0.465000
vt -0.200000 0.456250
vt -0.200000 0.465000
vt 0.456250 0.535000
vt -0.200000 0.535000
vt -0.200000 0.456250
vt 0.543750 0.465000
vt -0.200000 0.543750
vt -0.200000 0.465000
vt -0.200000 0.543750
vt 0.543750 0.535000
vt -0.200000 0.535000
s 1
usemtl metal_mp_6
f 1/1/1 32/86/1 16/42/1 17/45/1
f 29/77/2 30/80/2 10/26/2 7/18/2
f 24/64/3 3/7/3 4/10/3 28/75/3
f 6/15/3 9/23/3 21/58/3 17/47/3
f 31/83/2 13/34/2 16/43/2 32/87/2
f 19/52/2 18/48/2 20/53/2 22/60/2
f 18/48/2 7/18/2 10/26/2 20/53/2
f 14/38/4 19/51/4 25/67/5 8/21/5
f 5/13/3 8/22/3 9/23/3 6/15/3
f 4/11/6 29/78/6 7/19/6 28/74/6
f 13/34/2 23/63/2 26/70/2 16/43/2
f 12/32/3 24/64/3 28/75/3 15/39/3
f 8/21/5 25/67/5 23/61/7 9/24/7
f 22/59/8 20/54/9 12/31/9 11/29/8
f 5/14/10 27/73/10 22/59/8 11/29/8
f 6/16/11 17/46/12 16/44/12 26/69/11
f 8/22/3 5/13/3 11/30/3 14/37/3
f 12/32/3 15/39/3 14/37/3 11/30/3
f 3/8/13 30/81/13 29/79/13 4/12/13
f 13/35/14 21/56/14 9/25/7 23/62/7
f 12/33/9 20/55/9 10/27/15 24/65/15
f 19/51/4 14/38/4 15/40/16 18/49/16
f 7/20/17 18/50/16 15/41/16 28/76/17
f 31/84/18 2/4/18 21/57/18 13/36/18
f 25/68/2 19/52/2 22/60/2 27/72/2
f 2/5/19 31/85/19 32/88/19 1/2/19
f 23/63/2 25/68/2 27/72/2 26/70/2
f 26/71/11 27/73/10 5/14/10 6/17/11
f 17/47/3 21/58/3 2/6/3 1/3/3
f 24/66/20 10/28/20 30/82/20 3/9/20
