# Blender 3.4.0
# www.blender.org
mtllib doorway_1_plain.mtl
o doorway_1_plain
v 2.000000 0.000000 0.060000
v 2.000000 3.000000 0.060000
v 2.000000 0.000000 -0.060000
v 2.000000 3.000000 -0.060000
v 2.030000 0.000000 0.030000
v 2.030000 3.000000 0.030000
v 2.030000 0.000000 -0.030000
v 2.030000 3.000000 -0.030000
v -2.000000 0.000000 -0.060000
v -2.000000 3.000000 -0.060000
v -2.000000 0.000000 0.060001
v -2.000000 3.000000 0.060000
v -2.030000 0.000000 -0.030000
v -2.030000 3.000000 -0.030000
v -2.030000 0.000000 0.030001
v -2.030000 3.000000 0.030000
v 0.579998 0.000000 -0.060000
v 0.579998 0.000000 0.060000
v 0.580001 2.180000 0.060000
v 0.580001 2.180000 -0.060000
v -0.579997 2.180000 0.060000
v -0.579997 2.180000 -0.060000
v -0.580003 0.000000 -0.060000
v -0.580003 0.000000 0.060000
v -0.550000 0.160000 -0.060000
v -0.550000 0.160000 0.060000
v -0.579999 2.180000 -0.100000
v -0.579999 2.180000 0.100000
v 0.500000 2.099999 -0.080000
v 0.500000 2.099999 0.080000
v 0.580000 2.180000 -0.100000
v 0.580000 2.180000 0.100000
v -0.500001 2.100000 -0.080000
v -0.500000 2.099999 0.080000
v 0.500000 0.000000 -0.080000
v 0.500000 -0.000000 0.080000
v -0.500000 0.000000 -0.080000
v -0.500000 -0.000000 0.080000
v 0.580000 0.000000 -0.100000
v 0.580000 -0.000000 0.100000
v -0.580000 0.000000 -0.100000
v -0.580000 -0.000000 0.100000
v 0.540000 2.140000 -0.100000
v 0.520000 2.120000 -0.080000
v -0.540000 2.140000 -0.100000
v -0.520000 2.119999 -0.080000
v 0.540000 0.000000 -0.100000
v 0.520000 0.000000 -0.080000
v -0.540000 0.000000 -0.100000
v -0.520000 0.000000 -0.080000
v -0.520000 2.120000 0.080000
v -0.540000 2.140000 0.100000
v 0.540000 2.140000 0.100000
v 0.520000 2.119999 0.080000
v 0.540000 -0.000000 0.100000
v 0.520000 -0.000000 0.080000
v -0.520000 -0.000000 0.080000
v -0.540000 -0.000000 0.100000
vn -0.0000 -0.0000 -1.0000
vn 0.7071 -0.0000 -0.7071
vn 0.7071 -0.0000 0.7071
vn -0.7071 -0.0000 0.7071
vn -0.7071 -0.0000 -0.7071
vn -0.0000 -0.0000 1.0000
vn -0.0000 1.0000 -0.0000
vn -1.0000 -0.0000 -0.0000
vn 1.0000 -0.0000 -0.0000
vn -0.0000 -1.0000 -0.0000
vn -0.0000 -0.7071 -0.7071
vn -0.0000 -0.7071 0.7071
vt 0.992669 0.000000
vt 0.992669 1.000000
vt 0.992669 0.000000
vt 0.992669 1.000000
vt 1.000000 0.000000
vt 1.000000 1.000000
vt 1.000000 0.000000
vt 1.000000 1.000000
vt 0.007331 0.000000
vt 0.007331 1.000000
vt 0.007331 0.000000
vt 0.007331 1.000000
vt -0.000000 0.000000
vt -0.000000 1.000000
vt -0.000000 0.000000
vt -0.000000 1.000000
vt 0.642299 0.000000
vt 0.642299 0.000000
vt 0.643263 0.725702
vt 0.643271 0.725697
vt 0.356738 0.725702
vt 0.356738 0.725703
vt 0.357700 0.000000
vt 0.357700 0.000000
vt 0.113281 0.433594
vt 1.234375 0.433594
vt 0.113281 1.234375
vt -0.226562 0.847656
vt 0.113281 0.566406
vt 1.234375 0.566406
vt 0.113281 1.234375
vt -0.226562 0.847656
vt 1.179688 0.445312
vt -0.207031 0.808594
vt 0.832031 0.445312
vt 0.832031 1.179688
vt 1.179688 0.554688
vt 0.832031 1.179688
vt 0.832031 0.554688
vt -0.207031 0.808594
vt 0.886719 0.433594
vt 1.234375 0.433594
vt 0.886719 1.234375
vt -0.261719 0.859375
vt 0.886719 0.566406
vt -0.261719 0.859375
vt 1.234375 0.566406
vt 0.886719 1.234375
vt 1.179688 0.445312
vt -0.171875 0.902344
vt 0.167969 0.445312
vt 0.167969 1.179688
vt 1.179688 0.554688
vt -0.171875 0.902344
vt 0.167969 1.179688
vt 0.167969 0.554688
vt -0.218750 0.445312
vt 1.191406 0.808594
vt -0.218750 0.554688
vt 1.191406 0.808594
vt -0.218750 0.445312
vt 1.226562 0.902344
vt -0.218750 0.554688
vt 1.226562 0.902344
vt -0.218750 0.433594
vt 1.191406 0.859375
vt 1.191406 0.859375
vt -0.218750 0.566406
vt -0.218750 0.433594
vt 1.226562 0.847656
vt -0.218750 0.566406
vt 1.226562 0.847656
vt 0.859375 1.207031
vt -0.234375 0.832031
vt 0.859375 0.433594
vt -0.218750 0.820312
vt 0.847656 1.191406
vt 0.847656 0.445312
vt 0.140625 1.207031
vt -0.199219 0.875000
vt -0.212891 0.869141
vt 0.140625 0.433594
vt -0.183594 0.886719
vt -0.201172 0.880859
vt 0.152344 1.191406
vt 0.152344 0.445312
vt 1.191406 0.832031
vt 1.191406 0.820312
vt 1.226562 0.875000
vt 1.212891 0.869141
vt 1.226562 0.886719
vt 1.212891 0.880859
vt 0.152344 1.191406
vt 0.152344 0.554688
vt -0.183594 0.886719
vt 0.140625 1.207031
vt 0.140625 0.566406
vt -0.199219 0.875000
vt 0.859375 1.207031
vt 0.859375 0.566406
vt -0.234375 0.832031
vt 0.847656 1.191406
vt 0.847656 0.554688
vt -0.218750 0.820312
vt 1.191406 0.832031
vt 1.191406 0.820312
vt 1.226562 0.886719
vt 1.226562 0.875000
s 1
usemtl wall_mp_1
f 3/3/2 4/4/2 8/8/2 7/7/2
f 2/2/3 1/1/3 5/5/3 6/6/3
f 11/11/4 12/12/4 16/16/4 15/15/4
f 10/10/5 9/9/5 13/13/5 14/14/5
f 2/2/6 19/19/6 18/18/6 1/1/6
f 11/11/6 24/24/6 21/21/6 12/12/6
f 12/12/6 21/21/6 19/19/6 2/2/6
usemtl wall_mp_1
f 10/10/1 22/22/1 23/23/1 9/9/1
f 4/4/1 20/20/1 22/22/1 10/10/1
f 3/3/1 17/17/1 20/20/1 4/4/1
s 0
usemtl door_frame_wood_1
f 32/45/7 31/41/7 27/25/7 28/29/7
f 27/26/8 41/69/8 42/71/8 28/30/8
f 53/101/6 55/105/6 40/67/6 32/46/6
f 40/68/9 39/65/9 31/42/9 32/47/9
f 33/49/9 34/53/9 38/63/9 37/61/9
f 57/107/6 38/64/6 34/54/6 51/95/6
f 43/73/1 45/79/1 27/27/1 31/43/1
f 30/37/8 29/33/8 35/57/8 36/59/8
f 54/102/6 51/93/6 34/55/6 30/38/6
f 50/91/1 46/83/1 33/50/1 37/62/1
f 48/88/1 35/58/1 29/34/1 44/76/1
f 33/51/10 29/35/10 30/39/10 34/56/10
f 39/66/1 47/87/1 43/74/1 31/44/1
f 47/87/5 48/88/5 44/76/5 43/74/5
f 41/70/1 27/28/1 45/80/1 49/89/1
f 49/90/2 45/81/2 46/84/2 50/92/2
f 29/36/1 33/52/1 46/85/1 44/77/1
f 44/78/11 46/86/11 45/82/11 43/75/11
f 32/48/6 28/31/6 52/96/6 53/99/6
f 53/100/12 52/97/12 51/94/12 54/103/12
f 42/72/6 58/108/6 52/98/6 28/32/6
f 58/108/3 57/107/3 51/95/3 52/98/3
f 30/40/6 36/60/6 56/106/6 54/104/6
f 54/104/4 56/106/4 55/105/4 53/101/4
l 26 25
o door_mp_6
v -0.160000 1.177000 0.030001
v -0.160000 1.340000 0.030001
v 0.165000 1.177000 0.030001
v 0.165000 1.340000 0.030001
v 0.500000 2.100000 -0.029999
v -0.434999 0.954185 0.030001
v -0.424999 0.954185 0.030001
v -0.434999 0.944185 0.030001
v -0.424999 0.944185 0.030001
v -0.434999 1.080000 0.030001
v -0.424999 1.080000 0.030001
v -0.434999 1.090000 0.030001
v -0.424999 1.090000 0.030001
v -0.434999 1.090000 0.080001
v -0.424999 1.090000 0.080001
v -0.434999 0.944185 0.080001
v -0.424999 0.944185 0.080001
v -0.430001 0.964185 -0.094999
v -0.437073 1.070000 -0.092070
v -0.422930 1.070000 -0.092070
v -0.430001 1.070000 -0.094999
v -0.420002 1.070000 -0.084999
v -0.437073 0.964185 -0.077928
v -0.440002 0.964185 -0.084999
v -0.422930 1.070000 -0.077928
v -0.430001 1.070000 -0.074999
v -0.422930 0.964185 -0.077928
v -0.430001 0.964185 -0.074999
v -0.420002 0.964185 -0.084999
v -0.435002 0.944185 -0.079999
v -0.425002 0.944185 -0.079999
v -0.435002 1.090000 -0.079999
v -0.425002 1.090000 -0.079999
v -0.435002 1.090000 -0.029999
v -0.425002 1.090000 -0.029999
v -0.435002 1.080000 -0.029999
v -0.425002 1.080000 -0.029999
v -0.435002 0.944185 -0.029999
v -0.425002 0.944185 -0.029999
v -0.435002 0.954185 -0.029999
v -0.425002 0.954185 -0.029999
v -0.439999 0.964185 0.085001
v -0.429999 0.964185 0.075001
v -0.437070 0.964185 0.077930
v -0.429999 1.070000 0.075001
v -0.437070 1.070000 0.077930
v -0.419999 0.964185 0.085001
v -0.422928 0.964185 0.077930
v -0.439999 1.070000 0.085001
v -0.429999 1.070000 0.095001
v -0.437070 1.070000 0.092072
v -0.422928 1.070000 0.092072
v -0.429999 0.964185 0.095001
v -0.437070 0.964185 0.092072
v -0.422928 0.964185 0.092072
v -0.419999 1.070000 0.085001
v -0.422928 1.070000 0.077930
v -0.434999 0.954185 0.090001
v -0.434999 1.080000 0.090001
v -0.424999 0.954185 0.090001
v -0.424999 1.080000 0.090001
v -0.434999 1.070000 0.080001
v -0.424999 1.070000 0.080001
v -0.434999 1.070000 0.090001
v -0.424999 1.070000 0.090001
v -0.434999 0.964185 0.080001
v -0.424999 0.964185 0.080001
v -0.434999 0.964185 0.090001
v -0.424999 0.964185 0.090001
v -0.434999 0.958185 0.080001
v -0.434999 0.954185 0.076001
v -0.424999 0.954185 0.076001
v -0.424999 0.958185 0.080001
v -0.434999 1.080000 0.076001
v -0.434999 1.076000 0.080001
v -0.424999 1.076000 0.080001
v -0.424999 1.080000 0.076001
v -0.422930 0.964185 -0.092070
v -0.437073 0.964185 -0.092070
v -0.440002 1.070000 -0.084999
v -0.437073 1.070000 -0.077928
v -0.425002 0.954185 -0.089999
v -0.425002 1.080000 -0.089999
v -0.435002 0.954185 -0.089999
v -0.435002 1.080000 -0.089999
v -0.425002 1.070000 -0.079999
v -0.435002 1.070000 -0.079999
v -0.425002 1.070000 -0.089999
v -0.435002 1.070000 -0.089999
v -0.425002 0.964185 -0.079999
v -0.435002 0.964185 -0.079999
v -0.425002 0.964185 -0.089999
v -0.435002 0.964185 -0.089999
v -0.425002 0.958185 -0.079999
v -0.425002 0.954185 -0.075999
v -0.435002 0.954185 -0.075999
v -0.435002 0.958185 -0.079999
v -0.425002 1.080000 -0.075999
v -0.425002 1.076000 -0.079999
v -0.435002 1.076000 -0.079999
v -0.435002 1.080000 -0.075999
v -0.500000 -0.000000 0.030001
v -0.500000 2.100000 0.030001
v 0.500000 2.100000 0.030001
v 0.500000 -0.000000 0.030001
v -0.160000 1.177000 -0.029999
v -0.160000 1.340000 -0.029999
v 0.165000 1.177000 -0.029999
v 0.165000 1.340000 -0.029999
v -0.500000 -0.000000 -0.029999
v -0.500000 2.100000 -0.029999
v 0.500000 -0.000000 -0.029999
vn -1.0000 -0.0000 -0.0000
vn 1.0000 -0.0000 -0.0000
vn -0.0000 -1.0000 -0.0000
vn -0.0000 1.0000 -0.0000
vn -0.0000 -0.0000 -1.0000
vn 0.7071 -0.0000 0.7071
vn -0.7071 -0.0000 -0.7071
vn -0.0000 -0.0000 1.0000
vn 0.7071 -0.0000 -0.7071
vn -0.7071 -0.0000 0.7071
vn -0.0000 0.7071 0.7071
vn -0.0000 -0.7071 0.7071
vn -0.0000 0.7071 -0.7071
vn -0.0000 -0.7071 -0.7071
vt 0.340000 0.560726
vt 0.340102 0.638350
vt 0.416244 0.607100
vt 0.340000 0.638665
vt 0.583756 0.607100
vt 0.340102 0.638350
vt 0.665000 0.560726
vt 0.659898 0.638350
vt 0.416244 0.607100
vt 0.665000 0.638665
vt 0.659898 0.638350
vt 0.583756 0.607100
vt 0.324787 1.002063
vt 0.983125 0.249336
vt 1.000000 1.002063
vt 0.392524 0.564578
vt 0.419933 0.634577
vt 0.392524 0.628311
vt 0.431040 0.634577
vt 0.403632 0.564577
vt 0.442148 0.603955
vt 0.403631 0.628311
vt 0.431040 0.603955
vt 0.408280 0.564577
vt 0.431041 0.603955
vt 0.430494 0.596444
vt 0.442148 0.603955
vt 0.397172 0.564577
vt 0.431040 0.564577
vt 0.441602 0.596444
vt 0.419932 0.564577
vt 0.397172 0.591133
vt 0.431040 0.591133
vt 0.431040 0.587377
vt 0.441602 0.622999
vt 0.419932 0.591133
vt 0.419932 0.587377
vt 0.403631 0.591133
vt 0.442148 0.577399
vt 0.442148 0.584271
vt 0.403631 0.601755
vt 0.431040 0.577399
vt 0.431040 0.584271
vt 0.553814 0.537719
vt 0.642325 0.540690
vt 0.651562 0.534339
vt 0.647324 0.551242
vt 0.651562 0.541100
vt 0.659394 0.548851
vt 0.651562 0.537719
vt 0.654394 0.551242
vt 0.651562 0.544481
vt 0.659394 0.545471
vt 0.659393 0.540690
vt 0.553814 0.527577
vt 0.654394 0.543080
vt 0.553814 0.530958
vt 0.651562 0.547861
vt 0.654394 0.543080
vt 0.651562 0.551242
vt 0.647324 0.543080
vt 0.651562 0.524197
vt 0.553814 0.547861
vt 0.654394 0.534919
vt 0.553814 0.551242
vt 0.659393 0.537309
vt 0.553814 0.524197
vt 0.553814 0.544481
vt 0.647324 0.534919
vt 0.403631 0.601755
vt 0.431040 0.577399
vt 0.431040 0.584271
vt 0.403631 0.591133
vt 0.442148 0.577399
vt 0.442148 0.584271
vt 0.419932 0.591133
vt 0.441602 0.622999
vt 0.419932 0.587377
vt 0.431040 0.591133
vt 0.397172 0.591133
vt 0.431040 0.587377
vt 0.419932 0.564577
vt 0.441602 0.596444
vt 0.431040 0.564577
vt 0.397172 0.564577
vt 0.430494 0.596444
vt 0.442148 0.603955
vt 0.408280 0.564577
vt 0.431041 0.603955
vt 0.403631 0.628311
vt 0.431040 0.603955
vt 0.403632 0.564577
vt 0.442148 0.603955
vt 0.392524 0.628311
vt 0.431040 0.634577
vt 0.392524 0.564577
vt 0.419933 0.634577
vt 0.647324 0.534919
vt 0.553814 0.544481
vt 0.659393 0.537309
vt 0.553814 0.551242
vt 0.553814 0.524197
vt 0.654394 0.534919
vt 0.553814 0.547861
vt 0.647324 0.543080
vt 0.651562 0.551242
vt 0.651562 0.524197
vt 0.654394 0.543080
vt 0.651562 0.547861
vt 0.654394 0.543080
vt 0.553814 0.530958
vt 0.659393 0.540690
vt 0.553814 0.527577
vt 0.659394 0.545471
vt 0.651562 0.544481
vt 0.654394 0.551242
vt 0.651562 0.537719
vt 0.659394 0.548851
vt 0.651562 0.541100
vt 0.647324 0.551242
vt 0.651562 0.534339
vt 0.642325 0.540690
vt 0.553814 0.537719
vt 0.642325 0.537309
vt 0.553814 0.541100
vt 0.647324 0.543080
vt 0.553814 0.534339
vt 0.642325 0.548851
vt 0.651562 0.530958
vt 0.642325 0.545471
vt 0.651562 0.527577
vt 0.392524 0.596444
vt 0.442148 0.569886
vt 0.442148 0.576760
vt 0.408280 0.596444
vt 0.431040 0.593333
vt 0.431040 0.594888
vt 0.392524 0.596444
vt 0.431040 0.569886
vt 0.431040 0.576760
vt 0.430495 0.628311
vt 0.419932 0.593333
vt 0.419932 0.594888
vt 0.419387 0.591133
vt 0.431041 0.629266
vt 0.419387 0.623000
vt 0.442148 0.629266
vt 0.419387 0.596444
vt 0.431040 0.598644
vt 0.419387 0.628311
vt 0.419932 0.598644
vt 0.381417 0.591133
vt 0.419932 0.580488
vt 0.381416 0.601755
vt 0.431040 0.580488
vt 0.381416 0.596444
vt 0.442148 0.564575
vt 0.381416 0.596444
vt 0.431040 0.564575
vt 0.388081 0.591133
vt 0.419933 0.590548
vt 0.419932 0.583675
vt 0.392524 0.589009
vt 0.419933 0.610146
vt 0.419933 0.593553
vt 0.392524 0.603880
vt 0.431040 0.610146
vt 0.431040 0.593553
vt 0.388081 0.601755
vt 0.431040 0.590548
vt 0.431040 0.583675
vt 0.408280 0.589008
vt 0.431041 0.628386
vt 0.431040 0.624631
vt 0.412723 0.591133
vt 0.431040 0.627635
vt 0.431041 0.626079
vt 0.426052 0.622999
vt 0.442148 0.627635
vt 0.442148 0.626079
vt 0.430494 0.620875
vt 0.442148 0.628386
vt 0.442148 0.624631
vt 0.553814 0.541100
vt 0.642325 0.537309
vt 0.553814 0.534339
vt 0.647324 0.543080
vt 0.642325 0.548851
vt 0.651562 0.530958
vt 0.642325 0.545471
vt 0.651562 0.527577
vt 0.392524 0.596444
vt 0.442148 0.569886
vt 0.442148 0.576760
vt 0.408280 0.596444
vt 0.431040 0.593333
vt 0.431040 0.594888
vt 0.392524 0.596444
vt 0.431040 0.569886
vt 0.431040 0.576760
vt 0.430495 0.628311
vt 0.419932 0.593333
vt 0.419932 0.594888
vt 0.419387 0.591133
vt 0.431041 0.629266
vt 0.419387 0.622999
vt 0.442148 0.629266
vt 0.419387 0.596444
vt 0.431040 0.598644
vt 0.419387 0.628311
vt 0.419932 0.598644
vt 0.381416 0.591133
vt 0.419932 0.580488
vt 0.381416 0.601755
vt 0.431040 0.580488
vt 0.381416 0.596444
vt 0.442148 0.564575
vt 0.381416 0.596444
vt 0.431040 0.564575
vt 0.388081 0.591133
vt 0.419933 0.590548
vt 0.419932 0.583675
vt 0.392524 0.589009
vt 0.419933 0.610146
vt 0.419933 0.593552
vt 0.392524 0.603879
vt 0.431040 0.610146
vt 0.431040 0.593552
vt 0.388081 0.601755
vt 0.431040 0.590548
vt 0.431040 0.583675
vt 0.408280 0.589008
vt 0.431041 0.628386
vt 0.431040 0.624631
vt 0.412722 0.591133
vt 0.431040 0.627635
vt 0.431041 0.626079
vt 0.426052 0.622999
vt 0.442148 0.627635
vt 0.442148 0.626079
vt 0.430494 0.620875
vt 0.442148 0.628386
vt 0.442148 0.624631
vt 0.264787 -0.002063
vt 0.923125 0.727491
vt -0.000000 -0.002063
vt 0.264787 1.002063
vt 0.923125 0.727491
vt -0.000000 1.002063
vt 0.264787 1.002063
vt 0.923125 0.249336
vt 1.000000 1.002063
vt 0.264787 -0.002063
vt 0.923125 0.249336
vt 1.000000 -0.002063
vt 0.340000 0.560726
vt 0.340102 0.611650
vt 0.416244 0.580400
vt 0.340000 0.638665
vt 0.583756 0.580400
vt 0.340102 0.611650
vt 0.665000 0.560726
vt 0.659898 0.611650
vt 0.416244 0.580400
vt 0.665000 0.638665
vt 0.659898 0.611650
vt 0.583756 0.580400
vt 0.324787 -0.002063
vt 0.983125 0.727491
vt -0.000000 -0.002063
vt 0.324787 1.002063
vt 0.983125 0.727491
vt -0.000000 1.002063
vt 0.324787 -0.002063
vt 0.983125 0.249336
vt 1.000000 -0.002063
s 1
usemtl door_mp_6
f 160/352/13 161/355/13 169/379/13 168/376/13
f 170/382/14 63/121/14 162/358/14 163/361/14
f 168/377/15 170/383/15 163/362/15 160/353/15
f 63/122/16 169/380/16 161/356/16 162/359/16
f 164/364/17 168/378/17 169/381/17 165/367/17
f 111/230/15 112/232/15 100/206/15 102/211/15 101/208/15 106/220/15 105/218/15 113/234/15
f 108/224/16 110/228/16 114/236/16 115/238/16 103/213/16 104/216/16 107/222/16 109/226/16
f 73/143/14 119/249/14 123/258/14 121/254/14 134/286/14 135/289/14 69/134/14 71/138/14
f 117/243/13 72/140/13 70/136/13 68/132/13 132/280/13 133/283/13 120/252/13 122/256/13
f 118/246/14 75/149/14 67/130/14 65/126/14 130/274/14 131/277/14 125/262/14 127/266/14
f 74/146/13 116/240/13 126/264/13 124/260/13 128/268/13 129/271/13 64/124/13 66/128/13
f 73/144/16 71/139/16 70/137/16 72/141/16
f 74/147/15 66/129/15 67/131/15 75/150/15
f 87/176/14 80/160/14 83/166/18 85/171/18
f 82/165/13 138/297/13 77/154/19 137/294/19
f 85/171/18 83/166/18 84/168/20 86/173/20
f 137/294/19 77/154/19 79/158/17 76/152/17
f 76/152/17 79/158/17 78/156/21 136/292/21
f 136/292/21 78/156/21 80/160/14 87/176/14
f 142/306/13 88/178/13 96/198/13 98/202/13 154/334/13 155/337/13 149/322/13 151/326/13
f 89/181/14 140/300/14 150/324/14 148/320/14 152/328/14 153/331/14 99/204/14 97/200/14
f 90/184/16 92/190/16 93/192/16 91/187/16
f 89/182/15 97/201/15 96/199/15 88/179/15
f 76/153/15 136/293/15 87/177/15 85/172/15 86/174/15 81/162/15 82/164/15 137/295/15
f 79/159/16 77/155/16 138/296/16 139/298/16 84/169/16 83/167/16 80/161/16 78/157/16
f 141/303/14 91/188/14 93/193/14 95/196/14 156/340/14 157/343/14 144/312/14 146/316/14
f 90/185/13 143/309/13 147/318/13 145/314/13 158/346/13 159/349/13 94/194/13 92/191/13
f 100/207/13 107/223/13 104/217/19 102/212/19
f 102/212/19 104/217/19 103/214/17 101/209/17
f 111/231/20 108/225/20 109/227/22 112/233/22
f 112/233/22 109/227/22 107/223/13 100/207/13
f 105/219/14 114/237/14 110/229/18 113/235/18
f 113/235/18 110/229/18 108/225/20 111/231/20
f 114/237/14 105/219/14 106/221/21 115/239/21
f 115/239/21 106/221/21 101/210/17 103/215/17
f 135/290/15 132/281/15 68/133/15 69/135/15
f 119/250/20 117/244/20 122/257/20 123/259/20
f 129/272/16 130/275/16 65/127/16 64/125/16
f 116/241/20 118/247/20 127/267/20 126/265/20
f 73/145/23 72/142/23 117/245/23 119/251/23
f 74/148/24 75/151/24 118/248/24 116/242/24
f 128/269/25 131/278/25 130/276/25 129/273/25
f 131/279/17 128/270/17 124/261/17 125/263/17
f 132/282/26 135/291/26 134/287/26 133/284/26
f 133/285/17 134/288/17 121/255/17 120/253/17
f 138/297/13 82/165/13 81/163/22 139/299/22
f 139/299/22 81/163/22 86/175/20 84/170/20
f 159/350/15 156/341/15 95/197/15 94/195/15
f 143/310/17 141/304/17 146/317/17 147/319/17
f 153/332/16 154/335/16 98/203/16 99/205/16
f 140/301/17 142/307/17 151/327/17 150/325/17
f 90/186/25 91/189/25 141/305/25 143/311/25
f 89/183/26 88/180/26 142/308/26 140/302/26
f 152/329/23 155/338/23 154/336/23 153/333/23
f 155/339/20 152/330/20 148/321/20 149/323/20
f 156/342/24 159/351/24 158/347/24 157/344/24
f 157/345/20 158/348/20 145/315/20 144/313/20
f 59/109/20 60/112/20 161/357/20 160/354/20
f 60/112/20 62/118/20 162/360/20 161/357/20
f 62/118/20 61/115/20 163/363/20 162/360/20
f 61/115/20 59/109/20 160/354/20 163/363/20
f 165/367/17 169/381/17 63/123/17 167/373/17
f 167/373/17 63/123/17 170/384/17 166/370/17
f 166/370/17 170/384/17 168/378/17 164/364/17
f 61/116/16 166/371/16 164/365/16 59/110/16
f 59/111/14 164/366/14 165/368/14 60/113/14
f 167/374/15 62/119/15 60/114/15 165/369/15
f 167/375/13 166/372/13 61/117/13 62/120/13
