# Blender 3.4.0
# www.blender.org
mtllib double_single_doorway_2.mtl
o double_single_doorway_2
v 2.000000 0.000000 0.060000
v 2.000000 0.000000 -0.060000
v 2.030000 0.000000 0.030000
v 2.030000 3.000000 0.030000
v 2.030000 0.000000 -0.030000
v 2.030000 3.000000 -0.030000
v 2.000000 0.160000 0.060000
v 2.000000 0.110000 0.090000
v 2.000000 0.160000 -0.060000
v 2.000000 0.110000 -0.090000
v 1.580000 0.000000 -0.060000
v 1.580000 0.110000 0.090000
v 1.580000 0.160000 0.070000
v 1.580000 0.000000 0.060000
v 1.580000 0.000000 0.090000
v 1.580000 0.000000 -0.090000
v 1.580000 0.110000 -0.090000
v 1.580000 0.160000 -0.070000
v 1.580000 0.160000 -0.060000
v 1.580000 0.160000 0.060000
v 1.580000 2.180000 0.060000
v 1.580000 2.180000 -0.060000
v 0.420000 2.180000 0.060000
v 0.420000 2.180000 -0.060000
v 0.420000 0.000000 -0.060000
v 0.420000 0.110000 0.090000
v 0.420000 0.160000 0.070000
v 0.420000 0.000000 0.060000
v 0.420000 0.000000 0.090000
v 0.420000 0.000000 -0.090000
v 0.420000 0.110000 -0.090000
v 0.420000 0.160000 -0.070000
v 0.420000 0.160000 -0.060000
v 0.420000 0.160000 0.060000
v 2.000000 3.000000 0.060000
v 2.000000 3.000000 -0.060000
v -2.000000 0.000000 0.060001
v -0.420000 0.000000 -0.060000
v -0.420000 0.110000 0.090000
v -0.420000 0.160000 0.070000
v -0.420000 0.000000 0.060000
v -0.420000 0.000000 0.090000
v -0.420000 0.000000 -0.090000
v -0.420000 0.110000 -0.090000
v -0.420000 0.160000 -0.070000
v -0.420000 0.160000 -0.060000
v -0.420000 0.160000 0.060000
v -0.420000 2.180000 0.060000
v -0.420000 2.180000 -0.060000
v -1.580000 2.180000 0.060000
v -1.580000 2.180000 -0.060000
v -1.580000 0.000000 -0.060000
v -1.580000 0.110000 0.090000
v -1.580000 0.160000 0.070000
v -1.580000 0.000000 0.060000
v -1.580000 0.000000 0.090000
v -1.580000 0.000000 -0.090000
v -1.580000 0.110000 -0.090000
v -1.580000 0.160000 -0.070000
v -1.580000 0.160000 -0.060000
v -1.580000 0.160000 0.060000
v -2.000000 0.110000 0.090000
v 2.000000 0.000000 0.090000
v -2.000000 0.000000 0.090000
v 2.000000 0.000000 -0.090000
v 2.045000 0.000000 -0.045000
v 2.045000 0.110000 -0.045000
v 2.035000 0.160000 -0.035000
v 2.045000 0.000000 0.044999
v 2.045000 0.110000 0.044999
v 2.035000 0.160000 0.034999
v 2.000000 0.160000 0.070000
v 2.000000 0.160000 -0.070000
v 2.030000 0.160000 -0.030000
v 2.030000 0.160000 0.029999
v -2.000000 0.000000 -0.060000
v -2.000000 3.000000 -0.060000
v -2.000000 3.000000 0.060000
v -2.030000 0.000000 -0.030000
v -2.030000 3.000000 -0.030000
v -2.030000 0.000000 0.030001
v -2.030000 3.000000 0.030000
v -2.000000 0.160000 0.070000
v -2.000000 0.110000 -0.090000
v -2.000000 0.000000 -0.090000
v -2.000000 0.160000 -0.060000
v -2.000000 0.160000 -0.070000
v -2.045000 0.000000 -0.045000
v -2.045000 0.110000 -0.045000
v -2.030000 0.160000 -0.030000
v -2.035000 0.160000 -0.035000
v -2.000000 0.160000 0.060000
v -2.030000 0.160000 0.030001
v -2.045000 0.000000 0.045001
v -2.045000 0.110000 0.045000
v -2.035000 0.160000 0.035001
v 0.420001 2.180000 -0.100000
v 0.420001 2.180000 0.100000
v 1.500000 2.099999 -0.080000
v 1.500000 2.099999 0.080000
v 1.580000 2.180000 -0.100000
v 1.580000 2.180000 0.100000
v 0.499999 2.100000 -0.080000
v 0.500000 2.099999 0.080000
v 1.500000 0.000000 -0.080000
v 1.500000 -0.000000 0.080000
v 0.500000 0.000000 -0.080000
v 0.500000 -0.000000 0.080000
v 1.580000 0.000000 -0.100000
v 1.580000 -0.000000 0.100000
v 0.420000 0.000000 -0.100000
v 0.420000 -0.000000 0.100000
v 1.540000 2.140000 -0.100000
v 1.520000 2.120000 -0.080000
v 0.460000 2.140000 -0.100000
v 0.480000 2.119999 -0.080000
v 1.540000 0.000000 -0.100000
v 1.520000 0.000000 -0.080000
v 0.460000 0.000000 -0.100000
v 0.480000 0.000000 -0.080000
v 0.480000 2.120000 0.080000
v 0.460000 2.140000 0.100000
v 1.540000 2.140000 0.100000
v 1.520000 2.119999 0.080000
v 1.540000 -0.000000 0.100000
v 1.520000 -0.000000 0.080000
v 0.480000 -0.000000 0.080000
v 0.460000 -0.000000 0.100000
v -1.579999 2.180000 -0.100000
v -1.579999 2.180000 0.100000
v -0.500000 2.099999 -0.080000
v -0.500000 2.099999 0.080000
v -0.420000 2.180000 -0.100000
v -0.420000 2.180000 0.100000
v -1.500000 2.100000 -0.080000
v -1.500000 2.099999 0.080000
v -0.500000 0.000000 -0.080000
v -0.500000 -0.000000 0.080000
v -1.500000 0.000000 -0.080000
v -1.500000 -0.000000 0.080000
v -0.420000 0.000000 -0.100000
v -0.420000 -0.000000 0.100000
v -1.580000 0.000000 -0.100000
v -1.580000 -0.000000 0.100000
v -0.460000 2.140000 -0.100000
v -0.480000 2.120000 -0.080000
v -1.540000 2.140000 -0.100000
v -1.520000 2.119999 -0.080000
v -0.460000 0.000000 -0.100000
v -0.480000 0.000000 -0.080000
v -1.540000 0.000000 -0.100000
v -1.520000 0.000000 -0.080000
v -1.520000 2.120000 0.080000
v -1.540000 2.140000 0.100000
v -0.460000 2.140000 0.100000
v -0.480000 2.119999 0.080000
v -0.460000 -0.000000 0.100000
v -0.480000 -0.000000 0.080000
v -1.520000 -0.000000 0.080000
v -1.540000 -0.000000 0.100000
vn 0.7071 -0.0000 -0.7071
vn 0.7071 -0.0000 0.7071
vn -0.0000 -0.0000 1.0000
vn -0.0000 0.3714 0.9285
vn -0.0000 1.0000 -0.0000
vn -0.0000 -0.0000 -1.0000
vn -0.0000 0.3714 -0.9285
vn 1.0000 -0.0000 -0.0000
vn -1.0000 -0.0000 -0.0000
vn 0.6804 0.2722 -0.6804
vn 0.6804 0.2722 0.6804
vn -0.7071 -0.0000 0.7071
vn -0.7071 -0.0000 -0.7071
vn -0.6804 0.2722 -0.6804
vn -0.6804 0.2722 0.6804
vn -0.0000 -1.0000 -0.0000
vn -0.0000 -0.7071 -0.7071
vn -0.0000 -0.7071 0.7071
vt 0.992548 0.000002
vt 0.992548 0.000002
vt 0.999936 0.000002
vt 0.999936 1.000008
vt 0.999936 0.000002
vt 0.999936 1.000008
vt 1.833333 0.540000
vt 1.833333 -0.210001
vt 1.833333 0.520000
vt -0.875332 -0.230000
vt 1.833333 0.460000
vt 1.833333 -0.290000
vt 1.833333 0.520000
vt 1.875267 -0.230000
vt 0.889113 0.000002
vt 0.446667 0.460000
vt 1.553333 0.520000
vt 0.520000 0.560001
vt 1.553333 0.553333
vt 1.553333 0.546667
vt 0.553333 0.546668
vt 0.889113 0.000002
vt 0.446667 0.540001
vt 1.553333 0.446667
vt 0.446667 0.560001
vt 1.553333 0.446667
vt 0.446667 0.440000
vt 1.553333 0.520000
vt 0.520000 0.440000
vt 1.553333 0.553333
vt 1.553333 0.453333
vt 0.553333 0.453333
vt 1.553333 0.460000
vt 0.553333 0.460000
vt 1.553333 0.540000
vt 0.553333 0.540001
vt 0.889113 0.728428
vt 0.889113 0.728428
vt 0.603435 0.733613
vt 0.603435 0.733613
vt 0.446667 0.460000
vt 0.603435 0.002990
vt 0.520000 0.560000
vt 2.113333 0.520000
vt 0.553333 0.546667
vt 2.113333 0.553333
vt 2.113333 0.546667
vt 0.446667 0.540000
vt 0.603435 0.002990
vt 0.446667 0.560000
vt 2.113333 0.446667
vt 0.446667 0.440000
vt 2.113333 0.446667
vt 0.520000 0.440000
vt 2.113333 0.520000
vt 0.553333 0.453333
vt 2.113333 0.553333
vt 2.113333 0.453333
vt 0.553333 0.460000
vt 2.113333 0.460000
vt 0.553333 0.540000
vt 2.113334 0.540000
vt 0.992548 1.000008
vt 0.996541 1.006582
vt 0.992548 1.000008
vt -0.000000 0.002472
vt -0.000116 0.000002
vt 0.446667 0.460000
vt 0.389113 0.000002
vt 1.553333 0.520000
vt 0.520000 0.560001
vt 1.553333 0.553333
vt 1.553333 0.546667
vt 0.553333 0.546668
vt 0.446667 0.540001
vt 0.389113 0.000002
vt 1.553333 0.446667
vt 0.446667 0.560001
vt 1.553333 0.446667
vt 0.446667 0.440000
vt 1.553333 0.520000
vt 0.520000 0.440000
vt 1.553333 0.553333
vt 1.553333 0.453333
vt 0.553333 0.453333
vt 1.553333 0.460000
vt 0.553333 0.460000
vt 1.553333 0.540000
vt 0.553333 0.540001
vt 0.389113 0.728428
vt 0.389113 0.728428
vt 0.103435 0.733613
vt 0.103435 0.733613
vt 0.103435 0.002990
vt 0.446667 0.460000
vt 0.780000 0.520000
vt 0.520000 0.560000
vt 0.780000 0.553333
vt 0.780000 0.546667
vt 0.553333 0.546667
vt 0.103435 0.002990
vt 0.446667 0.540000
vt 0.780000 0.446667
vt 0.446667 0.560000
vt 0.780000 0.446667
vt 0.446667 0.440000
vt 0.780000 0.520000
vt 0.520000 0.440000
vt 0.780000 0.553333
vt 0.779999 0.453333
vt 0.553333 0.453333
vt 0.780000 0.460000
vt 0.553333 0.460000
vt 0.780000 0.540000
vt 0.553333 0.540000
vt 0.500000 0.520000
vt -0.875333 -0.230000
vt 1.833333 0.446667
vt -0.875333 -0.303333
vt 0.500000 0.446667
vt -0.875334 -0.303333
vt 1.833333 0.446667
vt 1.875267 -0.303333
vt 1.833267 -0.303333
vt 1.833267 -0.230000
vt 1.833172 -0.196667
vt 1.856667 -0.273334
vt -0.833332 -0.303333
vt -0.833332 -0.230000
vt -0.833227 -0.196667
vt 1.856667 -0.226667
vt 1.833333 0.553333
vt 1.833333 0.546667
vt -0.865894 -0.196667
vt 1.833333 -0.203334
vt 1.833333 0.553333
vt 1.833333 0.453333
vt 1.865839 -0.196667
vt 1.833333 -0.296667
vt 1.853333 -0.270000
vt 1.853333 -0.230000
vt 0.000000 0.002472
vt -0.000116 0.000002
vt -0.000000 1.000008
vt -0.000116 1.000008
vt -0.000000 1.000008
vt -0.000116 1.000008
vt -0.007505 0.000002
vt -0.007505 1.000008
vt -0.007505 0.000002
vt -0.007505 1.000008
vt 0.500000 0.553333
vt 0.500000 0.546667
vt -0.865895 -0.196667
vt -0.833333 -0.203333
vt 0.500000 0.520000
vt 1.875266 -0.230000
vt 0.500000 0.446667
vt 1.875266 -0.303333
vt 0.500000 0.460000
vt -0.833333 -0.290000
vt 0.500000 0.553333
vt 0.500000 0.453333
vt 1.865838 -0.196667
vt -0.833333 -0.296667
vt 1.833266 -0.303333
vt 1.833266 -0.230000
vt -0.853333 -0.270000
vt 1.833172 -0.196667
vt -0.856667 -0.273333
vt 0.500000 0.540000
vt -0.833333 -0.210000
vt -0.853333 -0.230000
vt -0.833333 -0.303333
vt -0.833333 -0.230000
vt -0.833228 -0.196667
vt -0.856667 -0.226666
vt 0.451836 0.698428
vt -0.250000 0.203015
vt 1.250000 1.112251
vt 1.250000 0.880668
vt 0.451836 0.560814
vt -0.250000 0.340630
vt 1.250000 1.112251
vt -0.250000 0.819922
vt -0.194954 0.340630
vt -0.194954 0.759175
vt 0.561926 1.051505
vt 0.506882 1.051505
vt -0.194954 0.450722
vt 0.506882 1.172997
vt 0.561926 0.941413
vt -0.194954 0.759175
vt 1.250000 0.698428
vt -0.250000 0.203015
vt 0.451836 1.112251
vt -0.250000 0.698429
vt 1.250000 0.560814
vt -0.249999 0.819921
vt -0.250000 0.065401
vt 0.451836 1.112251
vt -0.194954 0.560814
vt 1.194954 0.941413
vt 1.250000 1.051505
vt 1.194956 1.051505
vt -0.194954 0.450722
vt -0.194953 0.880667
vt 1.194956 1.172997
vt 1.250000 0.941413
vt 1.250000 0.340630
vt 1.250000 0.759175
vt 1.250000 0.450722
vt 1.250000 0.759175
vt 1.250000 0.560814
vt -0.250000 0.941413
vt 1.250000 0.450722
vt 1.250000 0.880667
vt 1.250000 0.203015
vt 1.250000 0.698429
vt 1.250000 0.819921
vt 1.250000 0.065401
vt 1.250000 0.203015
vt -0.250000 0.880667
vt 1.250000 0.340630
vt 1.250000 0.819921
vt -0.222477 0.725952
vt 0.479359 1.084728
vt -0.208715 0.745413
vt 0.493120 1.065267
vt 1.222477 0.908190
vt 1.222478 1.084728
vt 1.208716 0.927652
vt 1.208717 1.065266
vt 1.250000 0.725952
vt 1.250000 0.745413
vt -0.250000 0.908190
vt -0.250000 0.927652
vt 1.208717 1.159235
vt -0.208715 0.866906
vt 1.222478 1.139774
vt -0.222477 0.847444
vt 0.479359 1.139774
vt -0.222476 0.792398
vt 0.493120 1.159236
vt -0.208715 0.772936
vt 1.250000 0.792398
vt 1.250000 0.772936
vt 1.250000 0.866905
vt 1.250000 0.847444
vt 0.451836 0.698428
vt -0.250000 0.203015
vt 1.250000 1.112251
vt 1.250000 0.880668
vt 0.451836 0.560814
vt -0.250000 0.340630
vt 1.250000 1.112251
vt -0.250000 0.819922
vt -0.194954 0.340630
vt -0.194954 0.759175
vt 0.561926 1.051505
vt 0.506882 1.051505
vt -0.194954 0.450722
vt 0.506882 1.172997
vt 0.561926 0.941413
vt -0.194954 0.759175
vt 1.250000 0.698428
vt -0.250000 0.203015
vt 0.451836 1.112251
vt -0.250000 0.698429
vt 1.250000 0.560814
vt -0.249999 0.819921
vt -0.250000 0.065401
vt 0.451836 1.112251
vt -0.194954 0.560814
vt 1.194954 0.941413
vt 1.250000 1.051505
vt 1.194956 1.051505
vt -0.194954 0.450722
vt -0.194953 0.880667
vt 1.194956 1.172997
vt 1.250000 0.941413
vt 1.250000 0.340630
vt 1.250000 0.759175
vt 1.250000 0.450722
vt 1.250000 0.759175
vt 1.250000 0.560814
vt -0.250000 0.941413
vt 1.250000 0.450722
vt 1.250000 0.880667
vt 1.250000 0.203015
vt 1.250000 0.698429
vt 1.250000 0.819921
vt 1.250000 0.065401
vt 1.250000 0.203015
vt -0.250000 0.880667
vt 1.250000 0.340630
vt 1.250000 0.819921
vt -0.222477 0.725952
vt 0.479359 1.084728
vt -0.208715 0.745413
vt 0.493120 1.065267
vt 1.222477 0.908190
vt 1.222478 1.084728
vt 1.208716 0.927652
vt 1.208717 1.065266
vt 1.250000 0.725952
vt 1.250000 0.745413
vt -0.250000 0.908190
vt -0.250000 0.927652
vt 1.208717 1.159235
vt -0.208715 0.866906
vt 1.222478 1.139774
vt -0.222477 0.847444
vt 0.479359 1.139774
vt -0.222476 0.792398
vt 0.493120 1.159236
vt -0.208715 0.772936
vt 1.250000 0.792398
vt 1.250000 0.772936
vt 1.250000 0.866905
vt 1.250000 0.847444
s 0
usemtl wall_6
f 2/2/1 36/65/1 6/6/1 5/5/1
f 35/63/2 1/1/2 3/3/2 4/4/2
f 35/63/3 21/37/3 14/22/3 1/1/3
f 35/63/3 23/39/3 21/37/3
f 36/65/6 22/38/6 24/40/6
f 2/2/6 11/15/6 22/38/6 36/65/6
f 30/52/8 31/54/8 32/56/8 33/59/8 25/41/8
f 17/29/9 16/27/9 11/16/9 19/34/9 18/32/9
f 77/144/6 51/93/6 52/94/6 76/142/6
f 37/66/3 55/101/3 50/92/3 78/146/3
f 78/146/3 50/92/3 48/90/3
f 49/91/6 51/93/6 77/144/6
f 57/106/8 58/108/8 59/111/8 60/113/8 52/95/8
f 44/82/9 43/80/9 38/68/9 46/87/9 45/85/9
f 48/90/3 41/76/3 28/49/3 23/39/3
f 48/90/3 23/39/3 35/64/3 78/146/3
f 38/69/6 49/91/6 24/40/6 25/42/6
f 36/65/6 24/40/6 49/91/6 77/144/6
f 37/67/12 78/147/12 82/151/12 81/150/12
f 77/145/13 76/143/13 79/148/13 80/149/13
usemtl door_frame_wood_1
f 63/118/3 8/9/3 12/17/3 15/24/3
f 72/132/4 13/19/4 12/17/4 8/9/4
f 7/7/5 20/35/5 13/20/5 72/133/5
f 17/28/6 10/13/6 65/122/6 16/26/6
f 18/30/7 73/136/7 10/13/7 17/28/7
f 19/33/5 9/11/5 73/137/5 18/31/5
f 27/45/8 26/43/8 29/50/8 28/48/8 34/61/8
f 13/21/9 20/36/9 14/23/9 15/25/9 12/18/9
f 29/51/3 26/44/3 39/70/3 42/77/3
f 27/46/4 40/72/4 39/70/4 26/44/4
f 34/62/5 47/88/5 40/73/5 27/47/5
f 85/158/6 84/156/6 58/107/6 57/105/6
f 87/162/7 59/109/7 58/107/7 84/156/7
f 86/160/5 60/112/5 59/110/5 87/163/5
f 53/96/3 62/116/3 64/120/3 56/103/3
f 44/81/6 31/55/6 30/53/6 43/79/6
f 45/83/7 32/57/7 31/55/7 44/81/7
f 46/86/5 33/60/5 32/58/5 45/84/5
f 54/98/4 83/152/4 62/116/4 53/96/4
f 61/114/5 92/171/5 83/153/5 54/99/5
f 54/100/8 53/97/8 56/104/8 55/102/8 61/115/8
f 40/74/9 47/89/9 41/75/9 42/78/9 39/71/9
f 10/14/1 67/125/1 66/124/1 65/123/1
f 8/10/2 63/119/2 69/128/2 70/129/2
f 73/138/10 68/126/10 67/125/10 10/14/10
f 72/134/11 8/10/11 70/129/11 71/130/11
f 7/8/5 72/135/5 71/131/5 75/141/5
f 9/12/5 74/140/5 68/127/5 73/139/5
f 87/164/14 84/157/14 89/167/14 91/169/14
f 86/161/5 87/165/5 91/170/5 90/168/5
f 62/117/12 95/175/12 94/174/12 64/121/12
f 84/157/13 85/159/13 88/166/13 89/167/13
f 83/154/15 96/176/15 95/175/15 62/117/15
f 92/172/5 93/173/5 96/177/5 83/155/5
f 102/198/5 101/194/5 97/178/5 98/182/5
f 97/179/9 111/222/9 112/224/9 98/183/9
f 123/243/3 125/246/3 110/220/3 102/199/3
f 110/221/8 109/218/8 101/195/8 102/200/8
f 103/202/8 104/206/8 108/216/8 107/214/8
f 127/248/3 108/217/3 104/207/3 121/239/3
f 113/227/6 115/231/6 97/180/6 101/196/6
f 100/190/9 99/186/9 105/210/9 106/212/9
f 124/244/3 121/238/3 104/208/3 100/191/3
f 120/237/6 116/232/6 103/203/6 107/215/6
f 118/235/6 105/211/6 99/187/6 114/228/6
f 103/204/16 99/188/16 100/192/16 104/209/16
f 109/219/6 117/234/6 113/226/6 101/197/6
f 117/234/13 118/235/13 114/228/13 113/226/13
f 111/223/6 97/181/6 115/230/6 119/236/6
f 119/236/1 115/230/1 116/232/1 120/237/1
f 99/189/6 103/205/6 116/233/6 114/229/6
f 114/229/17 116/233/17 115/231/17 113/227/17
f 102/201/3 98/184/3 122/240/3 123/242/3
f 123/242/18 122/240/18 121/238/18 124/244/18
f 112/225/3 128/249/3 122/241/3 98/185/3
f 128/249/2 127/248/2 121/239/2 122/241/2
f 100/193/3 106/213/3 126/247/3 124/245/3
f 124/245/12 126/247/12 125/246/12 123/243/12
f 134/270/5 133/266/5 129/250/5 130/254/5
f 129/251/9 143/294/9 144/296/9 130/255/9
f 155/315/3 157/318/3 142/292/3 134/271/3
f 142/293/8 141/290/8 133/267/8 134/272/8
f 135/274/8 136/278/8 140/288/8 139/286/8
f 159/320/3 140/289/3 136/279/3 153/311/3
f 145/299/6 147/303/6 129/252/6 133/268/6
f 132/262/9 131/258/9 137/282/9 138/284/9
f 156/316/3 153/310/3 136/280/3 132/263/3
f 152/309/6 148/304/6 135/275/6 139/287/6
f 150/307/6 137/283/6 131/259/6 146/300/6
f 135/276/16 131/260/16 132/264/16 136/281/16
f 141/291/6 149/306/6 145/298/6 133/269/6
f 149/306/13 150/307/13 146/300/13 145/298/13
f 143/295/6 129/253/6 147/302/6 151/308/6
f 151/308/1 147/302/1 148/304/1 152/309/1
f 131/261/6 135/277/6 148/305/6 146/301/6
f 146/301/17 148/305/17 147/303/17 145/299/17
f 134/273/3 130/256/3 154/312/3 155/314/3
f 155/314/18 154/312/18 153/310/18 156/316/18
f 144/297/3 160/321/3 154/313/3 130/257/3
f 160/321/2 159/320/2 153/311/2 154/313/2
f 132/265/3 138/285/3 158/319/3 156/317/3
f 156/317/12 158/319/12 157/318/12 155/315/12
l 34 33
l 61 60
