# Blender 3.4.0
# www.blender.org
mtllib double_single_doorway_3.mtl
o double_single_doorway_3
v 2.000000 0.000000 0.060000
v 2.000000 3.000000 0.060000
v 2.000000 0.000000 -0.060000
v 2.000000 3.000000 -0.060000
v 2.030000 0.000000 0.030000
v 2.030000 3.000000 0.030000
v 2.030000 0.000000 -0.030000
v 2.030000 3.000000 -0.030000
v 1.580000 0.000000 -0.060000
v 1.580000 0.000000 0.060000
v 1.580000 2.180000 0.060000
v 1.580000 2.180000 -0.060000
v 0.420000 2.180000 0.060000
v 0.420000 2.180000 -0.060000
v 0.420000 0.000000 0.060000
v 0.420000 0.000000 -0.090000
v 0.420000 0.000000 -0.060000
v -2.000000 3.000000 -0.060000
v -0.420000 0.000000 -0.060000
v -0.420000 0.000000 0.060000
v -0.420000 2.180000 0.060000
v -0.420000 2.180000 -0.060000
v -1.580000 2.180000 0.060000
v -1.580000 2.180000 -0.060000
v -1.580000 0.000000 -0.060000
v -1.580000 0.000000 0.060000
v -2.000000 0.000000 -0.060000
v -2.000000 0.000000 0.060001
v -2.000000 3.000000 0.060000
v -2.030000 0.000000 -0.030000
v -2.030000 3.000000 -0.030000
v -2.030000 0.000000 0.030001
v -2.030000 3.000000 0.030000
v 0.420001 2.180000 -0.100000
v 0.420001 2.180000 0.100000
v 1.500000 2.099999 -0.080000
v 1.500000 2.099999 0.080000
v 1.580000 2.180000 -0.100000
v 1.580000 2.180000 0.100000
v 0.499999 2.100000 -0.080000
v 0.500000 2.099999 0.080000
v 1.500000 0.000000 -0.080000
v 1.500000 -0.000000 0.080000
v 0.500000 0.000000 -0.080000
v 0.500000 -0.000000 0.080000
v 1.580000 0.000000 -0.100000
v 1.580000 -0.000000 0.100000
v 0.420000 0.000000 -0.100000
v 0.420000 -0.000000 0.100000
v 1.540000 2.140000 -0.100000
v 1.520000 2.120000 -0.080000
v 0.460000 2.140000 -0.100000
v 0.480000 2.119999 -0.080000
v 1.540000 0.000000 -0.100000
v 1.520000 0.000000 -0.080000
v 0.460000 0.000000 -0.100000
v 0.480000 0.000000 -0.080000
v 0.480000 2.120000 0.080000
v 0.460000 2.140000 0.100000
v 1.540000 2.140000 0.100000
v 1.520000 2.119999 0.080000
v 1.540000 -0.000000 0.100000
v 1.520000 -0.000000 0.080000
v 0.480000 -0.000000 0.080000
v 0.460000 -0.000000 0.100000
v -1.579999 2.180000 -0.100000
v -1.579999 2.180000 0.100000
v -0.500000 2.099999 -0.080000
v -0.500000 2.099999 0.080000
v -0.420000 2.180000 -0.100000
v -0.420000 2.180000 0.100000
v -1.500000 2.100000 -0.080000
v -1.500000 2.099999 0.080000
v -0.500000 0.000000 -0.080000
v -0.500000 -0.000000 0.080000
v -1.500000 0.000000 -0.080000
v -1.500000 -0.000000 0.080000
v -0.420000 0.000000 -0.100000
v -0.420000 -0.000000 0.100000
v -1.580000 0.000000 -0.100000
v -1.580000 -0.000000 0.100000
v -0.460000 2.140000 -0.100000
v -0.480000 2.120000 -0.080000
v -1.540000 2.140000 -0.100000
v -1.520000 2.119999 -0.080000
v -0.460000 0.000000 -0.100000
v -0.480000 0.000000 -0.080000
v -1.540000 0.000000 -0.100000
v -1.520000 0.000000 -0.080000
v -1.520000 2.120000 0.080000
v -1.540000 2.140000 0.100000
v -0.460000 2.140000 0.100000
v -0.480000 2.119999 0.080000
v -0.460000 -0.000000 0.100000
v -0.480000 -0.000000 0.080000
v -1.520000 -0.000000 0.080000
v -1.540000 -0.000000 0.100000
vn 0.7071 -0.0000 -0.7071
vn 0.7071 -0.0000 0.7071
vn -0.0000 -0.0000 1.0000
vn -0.0000 -0.0000 -1.0000
vn -0.7071 -0.0000 0.7071
vn -0.7071 -0.0000 -0.7071
vn -0.0000 1.0000 -0.0000
vn -1.0000 -0.0000 -0.0000
vn 1.0000 -0.0000 -0.0000
vn -0.0000 -1.0000 -0.0000
vn -0.0000 -0.7071 -0.7071
vn -0.0000 -0.7071 0.7071
vt 0.992548 0.000002
vt 0.992548 1.000008
vt 0.996541 1.006582
vt 0.992548 0.000002
vt 0.992548 1.000008
vt 0.999936 0.000002
vt 0.999936 1.000008
vt 0.999936 0.000002
vt 0.999936 1.000008
vt 0.889113 0.000002
vt 0.889113 0.000002
vt 0.889113 0.728428
vt 0.889113 0.728428
vt 0.603435 0.733613
vt 0.603435 0.733613
vt 0.603435 0.002990
vt 0.603435 0.002990
vt -0.000000 1.000008
vt -0.000116 1.000008
vt 0.389113 0.000002
vt 0.389113 0.000002
vt 0.389113 0.728428
vt 0.389113 0.728428
vt 0.103435 0.733613
vt 0.103435 0.733613
vt 0.103435 0.002990
vt 0.103435 0.002990
vt 0.000000 0.002472
vt -0.000116 0.000002
vt -0.000000 0.002472
vt -0.000116 0.000002
vt -0.000000 1.000008
vt -0.000116 1.000008
vt -0.007505 0.000002
vt -0.007505 1.000008
vt -0.007505 0.000002
vt -0.007505 1.000008
vt 0.451836 0.698428
vt -0.250000 0.203015
vt 1.250000 1.112251
vt 1.250000 0.880668
vt 0.451836 0.560814
vt -0.250000 0.340630
vt 1.250000 1.112251
vt -0.250000 0.819922
vt -0.194954 0.340630
vt -0.194954 0.759175
vt 0.561926 1.051505
vt 0.506882 1.051505
vt -0.194954 0.450722
vt 0.506882 1.172997
vt 0.561926 0.941413
vt -0.194954 0.759175
vt 1.250000 0.698428
vt -0.250000 0.203015
vt 0.451836 1.112251
vt -0.250000 0.698429
vt 1.250000 0.560814
vt -0.249999 0.819921
vt -0.250000 0.065401
vt 0.451836 1.112251
vt -0.194954 0.560814
vt 1.194954 0.941413
vt 1.250000 1.051505
vt 1.194956 1.051505
vt -0.194954 0.450722
vt -0.194953 0.880667
vt 1.194956 1.172997
vt 1.250000 0.941413
vt 1.250000 0.340630
vt 1.250000 0.759175
vt 1.250000 0.450722
vt 1.250000 0.759175
vt 1.250000 0.560814
vt -0.250000 0.941413
vt 1.250000 0.450722
vt 1.250000 0.880667
vt 1.250000 0.203015
vt 1.250000 0.698429
vt 1.250000 0.819921
vt 1.250000 0.065401
vt 1.250000 0.203015
vt -0.250000 0.880667
vt 1.250000 0.340630
vt 1.250000 0.819921
vt -0.222477 0.725952
vt 0.479359 1.084728
vt -0.208715 0.745413
vt 0.493120 1.065267
vt 1.222477 0.908190
vt 1.222478 1.084728
vt 1.208716 0.927652
vt 1.208717 1.065266
vt 1.250000 0.725952
vt 1.250000 0.745413
vt -0.250000 0.908190
vt -0.250000 0.927652
vt 1.208717 1.159235
vt -0.208715 0.866906
vt 1.222478 1.139774
vt -0.222477 0.847444
vt 0.479359 1.139774
vt -0.222476 0.792398
vt 0.493120 1.159236
vt -0.208715 0.772936
vt 1.250000 0.792398
vt 1.250000 0.772936
vt 1.250000 0.866905
vt 1.250000 0.847444
vt 0.451836 0.698428
vt -0.250000 0.203015
vt 1.250000 1.112251
vt 1.250000 0.880668
vt 0.451836 0.560814
vt -0.250000 0.340630
vt 1.250000 1.112251
vt -0.250000 0.819922
vt -0.194954 0.340630
vt -0.194954 0.759175
vt 0.561926 1.051505
vt 0.506882 1.051505
vt -0.194954 0.450722
vt 0.506882 1.172997
vt 0.561926 0.941413
vt -0.194954 0.759175
vt 1.250000 0.698428
vt -0.250000 0.203015
vt 0.451836 1.112251
vt -0.250000 0.698429
vt 1.250000 0.560814
vt -0.249999 0.819921
vt -0.250000 0.065401
vt 0.451836 1.112251
vt -0.194954 0.560814
vt 1.194954 0.941413
vt 1.250000 1.051505
vt 1.194956 1.051505
vt -0.194954 0.450722
vt -0.194953 0.880667
vt 1.194956 1.172997
vt 1.250000 0.941413
vt 1.250000 0.340630
vt 1.250000 0.759175
vt 1.250000 0.450722
vt 1.250000 0.759175
vt 1.250000 0.560814
vt -0.250000 0.941413
vt 1.250000 0.450722
vt 1.250000 0.880667
vt 1.250000 0.203015
vt 1.250000 0.698429
vt 1.250000 0.819921
vt 1.250000 0.065401
vt 1.250000 0.203015
vt -0.250000 0.880667
vt 1.250000 0.340630
vt 1.250000 0.819921
vt -0.222477 0.725952
vt 0.479359 1.084728
vt -0.208715 0.745413
vt 0.493120 1.065267
vt 1.222477 0.908190
vt 1.222478 1.084728
vt 1.208716 0.927652
vt 1.208717 1.065266
vt 1.250000 0.725952
vt 1.250000 0.745413
vt -0.250000 0.908190
vt -0.250000 0.927652
vt 1.208717 1.159235
vt -0.208715 0.866906
vt 1.222478 1.139774
vt -0.222477 0.847444
vt 0.479359 1.139774
vt -0.222476 0.792398
vt 0.493120 1.159236
vt -0.208715 0.772936
vt 1.250000 0.792398
vt 1.250000 0.772936
vt 1.250000 0.866905
vt 1.250000 0.847444
s 0
usemtl wall_mp_1
f 3/4/1 4/5/1 8/9/1 7/8/1
f 2/2/2 1/1/2 5/6/2 6/7/2
f 2/2/3 11/12/3 10/11/3 1/1/3
f 2/2/3 13/14/3 11/12/3
f 4/5/4 12/13/4 14/15/4
f 3/4/4 9/10/4 12/13/4 4/5/4
f 18/18/4 24/25/4 25/26/4 27/28/4
f 28/30/3 26/27/3 23/24/3 29/32/3
f 29/32/3 23/24/3 21/22/3
f 22/23/4 24/25/4 18/18/4
f 21/22/3 20/21/3 15/16/3 13/14/3
f 21/22/3 13/14/3 2/3/3 29/32/3
f 19/20/4 22/23/4 14/15/4 17/17/4
f 4/5/4 14/15/4 22/23/4 18/18/4
f 28/31/5 29/33/5 33/37/5 32/36/5
f 18/19/6 27/29/6 30/34/6 31/35/6
usemtl door_frame_wood_1
f 39/58/7 38/54/7 34/38/7 35/42/7
f 34/39/8 48/82/8 49/84/8 35/43/8
f 60/103/3 62/106/3 47/80/3 39/59/3
f 47/81/9 46/78/9 38/55/9 39/60/9
f 40/62/9 41/66/9 45/76/9 44/74/9
f 64/108/3 45/77/3 41/67/3 58/99/3
f 50/87/4 52/91/4 34/40/4 38/56/4
f 37/50/8 36/46/8 42/70/8 43/72/8
f 61/104/3 58/98/3 41/68/3 37/51/3
f 57/97/4 53/92/4 40/63/4 44/75/4
f 55/95/4 42/71/4 36/47/4 51/88/4
f 40/64/10 36/48/10 37/52/10 41/69/10
f 46/79/4 54/94/4 50/86/4 38/57/4
f 54/94/6 55/95/6 51/88/6 50/86/6
f 48/83/4 34/41/4 52/90/4 56/96/4
f 56/96/1 52/90/1 53/92/1 57/97/1
f 36/49/4 40/65/4 53/93/4 51/89/4
f 51/89/11 53/93/11 52/91/11 50/87/11
f 39/61/3 35/44/3 59/100/3 60/102/3
f 60/102/12 59/100/12 58/98/12 61/104/12
f 49/85/3 65/109/3 59/101/3 35/45/3
f 65/109/2 64/108/2 58/99/2 59/101/2
f 37/53/3 43/73/3 63/107/3 61/105/3
f 61/105/5 63/107/5 62/106/5 60/103/5
f 71/130/7 70/126/7 66/110/7 67/114/7
f 66/111/8 80/154/8 81/156/8 67/115/8
f 92/175/3 94/178/3 79/152/3 71/131/3
f 79/153/9 78/150/9 70/127/9 71/132/9
f 72/134/9 73/138/9 77/148/9 76/146/9
f 96/180/3 77/149/3 73/139/3 90/171/3
f 82/159/4 84/163/4 66/112/4 70/128/4
f 69/122/8 68/118/8 74/142/8 75/144/8
f 93/176/3 90/170/3 73/140/3 69/123/3
f 89/169/4 85/164/4 72/135/4 76/147/4
f 87/167/4 74/143/4 68/119/4 83/160/4
f 72/136/10 68/120/10 69/124/10 73/141/10
f 78/151/4 86/166/4 82/158/4 70/129/4
f 86/166/6 87/167/6 83/160/6 82/158/6
f 80/155/4 66/113/4 84/162/4 88/168/4
f 88/168/1 84/162/1 85/164/1 89/169/1
f 68/121/4 72/137/4 85/165/4 83/161/4
f 83/161/11 85/165/11 84/163/11 82/159/11
f 71/133/3 67/116/3 91/172/3 92/174/3
f 92/174/12 91/172/12 90/170/12 93/176/12
f 81/157/3 97/181/3 91/173/3 67/117/3
f 97/181/2 96/180/2 90/171/2 91/173/2
f 69/125/3 75/145/3 95/179/3 93/177/3
f 93/177/5 95/179/5 94/178/5 92/175/5
l 17 16
