# Blender 3.4.0
# www.blender.org
mtllib half_arc_pillar_1_wall_1_plain.mtl
o half_arc_pillar_1_wall_1_plain
v 0.000000 3.000000 -0.200001
v -0.400000 0.000000 0.199999
v -0.400000 0.000000 -0.200001
v 0.000000 0.000000 -0.200001
v 0.000000 0.000000 0.199999
v 0.000000 3.000000 0.199999
v -1.500000 2.600000 0.199999
v -0.400000 1.500000 0.199999
v -1.215299 2.562518 0.199999
v -0.950000 2.452628 0.199999
v -0.722182 2.277817 0.199999
v -0.547372 2.050000 0.199999
v -0.437481 1.784701 0.199999
v -0.400000 1.500000 -0.200001
v -0.437481 1.784701 -0.200001
v -0.547372 2.050000 -0.200001
v -0.722182 2.277817 -0.200001
v -0.950000 2.452628 -0.200001
v -1.215299 2.562518 -0.200001
v -1.500000 3.000000 0.199999
v -1.500000 2.600000 -0.200001
v -1.500000 3.000000 -0.200001
vn -0.0000 -0.0000 -1.0000
vn -0.0000 -0.0000 1.0000
vn -0.9979 -0.0654 -0.0000
vn -0.9659 -0.2588 -0.0000
vn -0.8660 -0.5000 -0.0000
vn -0.7071 -0.7071 -0.0000
vn -1.0000 -0.0000 -0.0000
vn -0.2588 -0.9659 -0.0000
vn -0.1305 -0.9914 -0.0000
vn -0.5000 -0.8660 -0.0000
vt 1.251044 1.000000
vt 1.000000 1.000000
vt 0.000307 0.000306
vt 0.898925 0.000000
vt 0.898925 0.000000
vt 0.094332 0.000306
vt 1.000000 0.000000
vt 1.000000 0.000000
vt 1.252688 1.000000
vt 1.000000 1.000000
vt 0.620968 0.866667
vt 0.873656 0.866667
vt 0.000307 0.999853
vt 0.000307 0.501217
vt 0.898925 0.500000
vt 0.692908 0.854173
vt 0.000307 0.913551
vt 0.759946 0.817543
vt 0.000307 0.835146
vt 0.817513 0.759273
vt 0.000307 0.746103
vt 0.861686 0.683334
vt 0.000307 0.685106
vt 0.889454 0.594900
vt 0.000307 0.596063
vt 0.898925 0.500000
vt 0.094332 0.501217
vt 0.889454 0.594900
vt 0.094332 0.596063
vt 0.861686 0.683333
vt 0.094332 0.685106
vt 0.817513 0.759273
vt 0.094332 0.746103
vt 0.759946 0.817543
vt 0.094332 0.835146
vt 0.692908 0.854173
vt 0.094332 0.913551
vt 0.873656 1.000000
vt 0.871504 0.866667
vt 0.620968 0.866667
vt 0.772581 0.866667
vt 0.094332 0.999853
vt 0.872628 1.000000
vt 0.772581 1.000000
s 1
usemtl wall_mp_1
f 21/39/1 22/43/1 1/1/1
f 20/38/2 7/12/2 6/9/2
f 6/10/2 12/22/2 13/24/2
f 1/2/1 15/28/1 16/30/1
f 6/10/2 7/11/2 9/16/2
f 6/10/2 9/16/2 10/18/2
f 4/7/1 3/5/1 14/26/1 1/2/1
f 6/10/2 10/18/2 11/20/2
f 6/10/2 11/20/2 12/22/2
f 13/24/2 8/15/2 6/10/2
f 19/36/1 21/40/1 1/2/1
f 18/34/1 19/36/1 1/2/1
f 17/32/1 18/34/1 1/2/1
f 1/2/1 14/26/1 15/28/1
f 16/30/1 17/32/1 1/2/1
f 8/14/3 13/25/4 15/29/4 14/27/3
f 12/23/5 11/21/6 17/33/6 16/31/5
f 15/29/4 13/25/4 12/23/5 16/31/5
f 21/41/7 7/12/7 20/38/7 22/44/7
f 14/27/3 3/6/7 2/3/7 8/14/3
f 19/37/8 9/17/8 7/13/9 21/42/9
f 11/21/6 10/19/10 18/35/10 17/33/6
f 10/19/10 9/17/8 19/37/8 18/35/10
f 5/8/2 6/10/2 8/15/2 2/4/2
