# Blender 3.4.0
# www.blender.org
mtllib pipes_holder_1.mtl
o pipes_holder_1
v 0.300002 0.005000 0.025000
v 0.300002 -0.005000 0.025000
v 0.300002 -0.005000 -0.025000
v -0.299998 0.005000 0.025000
v -0.299998 -0.005000 0.025000
v -0.299998 -0.005000 -0.025000
v 0.300002 0.005000 -0.035000
v -0.299998 0.005000 -0.035000
v 0.300002 -0.025000 -0.025000
v -0.299998 -0.025000 -0.025000
v 0.300002 -0.025000 -0.035000
v -0.299998 -0.025000 -0.035000
v 0.266798 0.005000 -0.008566
v 0.264062 0.005000 0.006955
v 0.275878 0.005000 -0.006965
v 0.273142 0.005000 0.008556
v 0.260924 0.005000 -0.001600
v 0.279016 0.005000 0.001590
v 0.266798 0.495002 -0.008566
v 0.260924 0.495002 -0.001600
v 0.275878 0.495002 -0.006965
v 0.264062 0.495002 0.006955
v 0.273142 0.495002 0.008556
v 0.279016 0.495002 0.001590
v -0.273203 0.005000 -0.008566
v -0.275939 0.005000 0.006955
v -0.264123 0.005000 -0.006965
v -0.266859 0.005000 0.008556
v -0.279077 0.005000 -0.001600
v -0.260985 0.005000 0.001590
v -0.273203 0.495002 -0.008566
v -0.279077 0.495002 -0.001600
v -0.264123 0.495002 -0.006965
v -0.275939 0.495002 0.006955
v -0.266859 0.495002 0.008556
v -0.260985 0.495002 0.001590
v 0.286987 -0.014998 0.002996
v 0.281063 -0.014998 -0.013159
v 0.264045 -0.004998 -0.016159
v 0.252952 -0.004998 -0.003006
v 0.281063 -0.004998 -0.013159
v 0.258877 -0.004998 0.013149
v 0.275895 -0.004998 0.016149
v 0.286987 -0.004998 0.002996
v -0.287048 -0.014998 -0.003006
v -0.281124 -0.014998 0.013149
v -0.258938 -0.014998 -0.013159
v -0.264106 -0.014998 0.016149
v -0.275956 -0.004998 -0.016159
v -0.287048 -0.004998 -0.003006
v -0.258938 -0.004998 -0.013159
v -0.281124 -0.004998 0.013149
v -0.264106 -0.004998 0.016149
v -0.253014 -0.004998 0.002996
v 0.264045 -0.014998 -0.016159
v 0.252952 -0.014998 -0.003006
v 0.258877 -0.014998 0.013149
v 0.275895 -0.014998 0.016149
v -0.275956 -0.014998 -0.016159
v -0.253014 -0.014998 0.002996
vn -0.0000 1.0000 -0.0000
vn -1.0000 -0.0000 -0.0000
vn -0.0000 -0.0000 -1.0000
vn -0.0000 -0.0000 1.0000
vn -0.0000 -1.0000 -0.0000
vn 1.0000 -0.0000 -0.0000
vn 0.6418 -0.0000 -0.7668
vn -0.3409 -0.0000 -0.9401
vn -0.9848 -0.0000 -0.1737
vn -0.6418 -0.0000 0.7668
vn -0.9848 -0.0000 -0.1736
vn 0.3409 -0.0000 0.9401
vn 0.9848 -0.0000 0.1736
vn 0.9848 -0.0000 0.1737
vn -0.9388 -0.0000 0.3443
vn 0.7645 -0.0000 0.6447
vn 0.1736 -0.0000 -0.9848
vn -0.1737 -0.0000 0.9848
vn 0.9388 -0.0000 -0.3443
vn -0.7645 -0.0000 -0.6447
vt 0.200000 0.470000
vt 0.200000 0.485000
vt 0.470000 0.485000
vt 0.200000 0.495000
vt 0.200000 0.470000
vt 0.470000 0.495000
vt 0.200000 0.520000
vt 0.200000 0.495000
vt 0.520000 0.495000
vt 0.800000 0.470000
vt 0.470000 0.485000
vt 0.800000 0.485000
vt 0.470000 0.495000
vt 0.800000 0.495000
vt 0.800000 0.470000
vt 0.800000 0.520000
vt 0.520000 0.495000
vt 0.800000 0.495000
vt 0.200000 0.530000
vt 0.200000 0.485000
vt 0.530000 0.485000
vt 0.800000 0.530000
vt 0.800000 0.485000
vt 0.530000 0.485000
vt 0.520000 0.515000
vt 0.200000 0.520000
vt 0.200000 0.515000
vt 0.520000 0.515000
vt 0.800000 0.520000
vt 0.800000 0.515000
vt 0.200000 0.515000
vt 0.530000 0.515000
vt 0.200000 0.530000
vt 0.800000 0.515000
vt 0.530000 0.515000
vt 0.800000 0.530000
vt 0.500405 0.402098
vt 0.511582 0.401952
vt 0.505063 0.401952
vt 0.499255 0.402098
vt 0.504218 0.402098
vt 0.510910 0.401952
vt 0.503069 0.402098
vt 0.504391 0.401952
vt 0.508656 0.401952
vt 0.507317 0.401952
vt 0.500405 0.607899
vt 0.511582 0.607753
vt 0.508656 0.607753
vt 0.504218 0.607899
vt 0.510910 0.607753
vt 0.505063 0.607753
vt 0.499255 0.607899
vt 0.503069 0.607899
vt 0.504391 0.607753
vt 0.507317 0.607753
vt 0.500405 0.402098
vt 0.511582 0.401952
vt 0.505063 0.401952
vt 0.499255 0.402098
vt 0.504218 0.402098
vt 0.510910 0.401952
vt 0.503069 0.402098
vt 0.504391 0.401952
vt 0.508656 0.401952
vt 0.507317 0.401952
vt 0.500405 0.607899
vt 0.511582 0.607753
vt 0.508656 0.607753
vt 0.504218 0.607899
vt 0.510910 0.607753
vt 0.505063 0.607753
vt 0.499255 0.607899
vt 0.503069 0.607899
vt 0.504391 0.607753
vt 0.507317 0.607753
vt 0.525425 0.524318
vt 0.508884 0.504160
vt 0.506381 0.526588
vt 0.525425 0.517533
vt 0.506396 0.497375
vt 0.499234 0.530620
vt 0.529457 0.516272
vt 0.529457 0.521797
vt 0.506381 0.530620
vt 0.529457 0.517533
vt 0.529458 0.528582
vt 0.497063 0.530620
vt 0.529458 0.529842
vt 0.504210 0.530620
vt 0.529457 0.524318
vt 0.525425 0.521797
vt 0.494589 0.501639
vt 0.525425 0.528582
vt 0.497063 0.526588
vt 0.497078 0.508424
vt 0.506381 0.526588
vt 0.525425 0.517533
vt 0.506396 0.497375
vt 0.525425 0.529842
vt 0.504210 0.526588
vt 0.504225 0.509684
vt 0.499234 0.530620
vt 0.529457 0.516272
vt 0.529457 0.521797
vt 0.506381 0.530620
vt 0.529457 0.517533
vt 0.529458 0.528582
vt 0.497063 0.530620
vt 0.529458 0.529842
vt 0.504210 0.530620
vt 0.529457 0.524318
vt 0.499234 0.526588
vt 0.525425 0.516272
vt 0.499248 0.496114
vt 0.525425 0.521797
vt 0.494589 0.501639
vt 0.525425 0.528582
vt 0.497063 0.526588
vt 0.497078 0.508424
vt 0.525425 0.529842
vt 0.504210 0.526588
vt 0.504225 0.509684
vt 0.499234 0.526588
vt 0.525425 0.516272
vt 0.499248 0.496114
vt 0.525425 0.524318
vt 0.508884 0.504160
s 1
usemtl metal_4
f 15/41/7 13/37/8 19/47/8 21/50/7
f 17/45/9 14/39/10 22/52/10 20/49/11
f 14/40/10 16/43/12 23/54/12 22/53/10
f 13/38/8 17/45/9 20/49/11 19/48/8
f 16/44/12 18/46/13 24/56/14 23/55/12
f 18/46/13 15/42/7 21/51/7 24/56/14
f 27/61/7 25/57/8 31/67/8 33/70/7
f 29/65/9 26/59/10 34/72/10 32/69/11
f 26/60/10 28/63/12 35/74/12 34/73/10
f 25/58/8 29/65/9 32/69/11 31/68/8
f 28/64/12 30/66/13 36/76/14 35/75/12
f 30/66/13 27/62/7 33/71/7 36/76/14
f 56/116/15 57/118/15 42/87/15 40/84/15
f 44/91/16 43/89/16 58/121/16 37/77/16
f 39/82/17 41/85/17 38/79/17 55/113/17
f 43/90/18 42/88/18 57/119/18 58/122/18
f 41/86/19 44/91/19 37/77/19 38/80/19
f 55/114/20 56/116/20 40/84/20 39/83/20
f 45/92/15 46/94/15 52/108/15 50/105/15
f 54/112/16 53/110/16 48/100/16 60/127/16
f 49/103/17 51/106/17 47/97/17 59/124/17
f 53/111/18 52/109/18 46/95/18 48/101/18
f 51/107/19 54/112/19 60/127/19 47/98/19
f 59/125/20 45/92/20 50/105/20 49/104/20
f 57/120/1 58/123/1 37/78/1 38/81/1 55/115/1 56/117/1
f 46/96/1 48/102/1 60/128/1 47/99/1 59/126/1 45/93/1
s 0
usemtl metal_6
f 4/10/1 1/1/1 7/19/1 8/22/1
f 4/11/2 8/24/2 6/17/2 5/13/2
f 7/20/3 11/31/3 12/34/3 8/23/3
f 4/12/4 5/14/4 2/4/4 1/2/4
f 6/16/5 3/7/5 2/5/5 5/15/5
f 6/17/2 8/24/2 12/35/2 10/28/2
f 3/9/6 9/25/6 11/32/6 7/21/6
f 9/26/5 10/29/5 12/36/5 11/33/5
f 3/8/4 6/18/4 10/30/4 9/27/4
f 3/9/6 7/21/6 1/3/6 2/6/6
