# Blender 3.4.0
# www.blender.org
mtllib stairs_5_concrete.mtl
o stairs_5_concrete
v 0.999999 1.300000 -0.000000
v -1.000000 -0.200000 2.000000
v 1.000000 -0.200000 2.000000
v -1.000000 1.500000 -0.000000
v 1.000000 1.500000 -0.000000
v -1.000000 -0.000000 2.000000
v -1.000000 0.565602 1.676582
v -1.000000 0.600000 1.644999
v 1.000000 0.565602 1.676582
v -1.000000 0.265602 2.076583
v -1.000000 0.300000 2.045000
v 1.000000 0.300000 2.045000
v 1.000000 0.265602 2.076583
v -1.000000 1.465602 0.476582
v -1.000000 1.500000 0.445000
v 1.000000 1.500000 0.445000
v 1.000000 1.465602 0.476582
v -1.000000 1.165602 0.876582
v -1.000000 1.200000 0.844999
v 1.000000 1.200000 0.844999
v 1.000000 1.165602 0.876582
v -1.000000 0.865602 1.276582
v -1.000000 0.900000 1.244999
v 1.000000 0.900000 1.244999
v 1.000000 0.865602 1.276582
v -1.000000 0.600000 1.199999
v 1.000000 0.600000 1.199999
v -1.000000 0.300000 1.600000
v 1.000000 0.300000 1.600000
v -1.000000 1.200000 0.400000
v 1.000000 1.200000 0.399999
v -1.000000 0.900000 0.799999
v 1.000000 0.900000 0.799999
v 1.000000 -0.000000 2.000000
v 1.000000 0.600000 1.644999
v 0.999999 2.800000 -2.000000
v -1.000000 1.300000 0.000000
v -1.000000 2.800000 -2.000000
v -1.000000 3.000000 -2.000000
v -1.000000 2.065602 -0.323418
v -1.000000 2.100000 -0.355001
v 1.000000 2.065602 -0.323418
v -1.000000 1.765602 0.076583
v -1.000000 1.800000 0.045000
v 1.000000 1.800000 0.045000
v 1.000000 1.765602 0.076583
v -1.000000 2.965602 -1.523418
v -1.000000 3.000000 -1.555000
v 1.000000 3.000000 -1.555000
v 1.000000 2.965602 -1.523418
v -1.000000 2.665602 -1.123418
v -1.000000 2.700000 -1.155001
v 1.000000 2.700000 -1.155001
v 1.000000 2.665602 -1.123418
v -1.000000 2.365602 -0.723418
v -1.000000 2.400000 -0.755001
v 1.000000 2.400000 -0.755001
v 1.000000 2.365602 -0.723418
v -1.000000 2.100000 -0.800001
v 1.000000 2.100000 -0.800001
v -1.000000 1.800000 -0.400000
v 1.000000 1.800000 -0.400000
v -1.000000 2.700000 -1.600000
v 1.000000 2.700000 -1.600001
v -1.000000 2.400000 -1.200001
v 1.000000 2.400000 -1.200001
v 1.000000 2.100000 -0.355001
v 1.000000 3.000000 -2.000000
vn -0.0000 1.0000 -0.0000
vn -0.0000 0.6763 0.7366
vn -1.0000 -0.0000 -0.0000
vn -0.0000 -0.2770 0.9609
vn -0.0000 -0.8000 -0.6000
vn -0.0000 -0.2771 0.9609
vn 1.0000 -0.0000 -0.0000
vn -0.0000 -0.0000 1.0000
vn -0.0000 -0.0000 -1.0000
vt 1.166666 0.487236
vt 1.166666 1.153903
vt 0.716667 0.487303
vt 0.500000 1.153903
vt 0.216667 1.153903
vt 0.500000 0.216667
vt 1.166666 1.153903
vt 0.216667 1.153903
vt 1.166666 0.216667
vt 0.500000 0.487236
vt 0.500000 0.283333
vt 0.783333 0.487303
vt 1.166666 0.487236
vt 1.166666 0.283333
vt 0.783333 0.487303
vt 0.283333 1.153903
vt 0.500000 0.283333
vt 0.500000 0.471867
vt 0.471867 1.046097
vt 0.500000 1.035569
vt 0.500000 0.483333
vt 0.483333 1.035569
vt 1.166666 0.471867
vt 0.471867 1.046097
vt 0.500000 0.371867
vt 0.371867 1.179430
vt 0.500000 1.168903
vt 0.500000 0.383333
vt 0.383333 1.168903
vt 1.166666 1.168903
vt 1.166666 0.383333
vt 0.383333 1.168903
vt 1.166666 0.371867
vt 0.371867 1.179430
vt 0.500000 0.771867
vt 0.771867 0.646097
vt 0.500000 0.783333
vt 0.783333 0.635569
vt 0.500000 0.635569
vt 1.166666 0.783333
vt 0.783333 0.635569
vt 1.166666 0.635569
vt 1.166666 0.771867
vt 0.771867 0.646097
vt 0.500000 0.671867
vt 0.671867 0.779430
vt 0.500000 0.683333
vt 0.500000 0.768903
vt 0.683333 0.768903
vt 1.166666 0.683333
vt 1.166666 0.768903
vt 0.683333 0.768903
vt 1.166666 0.671867
vt 0.671867 0.779430
vt 0.500000 0.571867
vt 0.571867 0.912763
vt 0.500000 0.583333
vt 0.500000 0.902236
vt 0.583333 0.902236
vt 1.166666 0.583333
vt 1.166666 0.902236
vt 0.583333 0.902236
vt 1.166666 0.571867
vt 0.571867 0.912763
vt 0.500000 0.887236
vt 0.500000 0.483333
vt 0.483333 0.887236
vt 1.166666 0.887236
vt 1.166666 0.483333
vt 0.483333 0.887236
vt 0.500000 1.020570
vt 0.500000 0.383333
vt 0.383333 1.020570
vt 1.166666 1.020570
vt 1.166666 0.383333
vt 0.383333 1.020570
vt 0.500000 0.683333
vt 0.500000 0.620569
vt 0.683333 0.620569
vt 1.166666 0.683333
vt 1.166666 0.620569
vt 0.683333 0.620569
vt 0.500000 0.583333
vt 0.500000 0.753903
vt 0.583333 0.753903
vt 1.166666 0.583333
vt 1.166666 0.753903
vt 0.583333 0.753903
vt 0.283333 1.153903
vt 1.166666 0.283333
vt 1.166667 1.035569
vt 1.166667 0.483333
vt 0.483333 1.035569
vt 1.166666 0.487236
vt 1.216667 -0.179364
vt 1.166666 0.216667
vt 0.500000 0.487236
vt 0.500000 1.153903
vt 0.716667 0.487303
vt 0.500000 0.487236
vt 1.216667 -0.179364
vt 0.500000 0.216667
vt 1.283333 -0.179364
vt 0.500000 0.487236
vt 0.500000 0.283333
vt 0.500000 0.471867
vt 0.971867 0.379497
vt 0.500000 1.035569
vt 0.500000 0.483333
vt 0.983333 0.368969
vt 1.166666 0.471867
vt 0.971867 0.379497
vt 0.500000 0.371867
vt 0.871867 0.512831
vt 0.500000 1.168903
vt 0.500000 0.383333
vt 0.883333 0.502303
vt 1.166666 1.168903
vt 1.166666 0.383333
vt 0.883333 0.502303
vt 1.166666 0.371867
vt 0.871867 0.512831
vt 0.500000 0.771867
vt 1.271867 -0.020503
vt 0.500000 0.783333
vt 1.283333 -0.031031
vt 0.500000 0.635569
vt 1.166666 0.783333
vt 1.283333 -0.031031
vt 1.166666 0.635569
vt 1.166666 0.771867
vt 1.271867 -0.020503
vt 0.500000 0.671867
vt 1.171867 0.112830
vt 0.500000 0.683333
vt 0.500000 0.768903
vt 1.183333 0.102303
vt 1.166666 0.683333
vt 1.166666 0.768903
vt 1.183333 0.102303
vt 1.166666 0.671867
vt 1.171867 0.112830
vt 0.500000 0.571867
vt 1.071867 0.246164
vt 0.500000 0.583333
vt 0.500000 0.902236
vt 1.083333 0.235636
vt 1.166666 0.583333
vt 1.166666 0.902236
vt 1.083333 0.235636
vt 1.166666 0.571867
vt 1.071867 0.246164
vt 0.500000 0.887236
vt 0.500000 0.483333
vt 0.983333 0.220636
vt 1.166666 0.887236
vt 1.166666 0.483333
vt 0.983333 0.220636
vt 0.500000 1.020570
vt 0.500000 0.383333
vt 0.883333 0.353970
vt 1.166666 1.020570
vt 1.166666 0.383333
vt 0.883333 0.353970
vt 0.500000 0.683333
vt 0.500000 0.620569
vt 1.183333 -0.046031
vt 1.166666 0.683333
vt 1.166666 0.620569
vt 1.183333 -0.046031
vt 0.500000 0.583333
vt 0.500000 0.753903
vt 1.083333 0.087303
vt 1.166666 0.583333
vt 1.166666 0.753903
vt 1.083333 0.087303
vt 1.166667 1.035569
vt 1.166667 0.483333
vt 0.983333 0.368969
vt 1.283333 -0.179364
vt 1.166666 0.487236
vt 1.166666 0.283333
s 0
usemtl concrete_4
f 28/71/1 11/27/1 12/30/1 29/74/1
f 22/55/2 25/63/2 24/60/2 23/57/2
f 32/85/3 30/79/3 37/99/3 26/67/3
f 31/80/4 17/43/4 14/35/4 30/77/4
f 29/75/4 9/23/4 7/18/4 28/72/4
f 18/45/2 21/53/2 20/50/2 19/47/2
f 13/33/4 10/25/4 6/17/4 34/90/4
f 27/68/1 26/65/1 8/20/1 35/91/1
f 30/78/1 19/48/1 20/51/1 31/81/1
f 2/4/5 37/97/5 1/1/5 3/7/5
f 33/86/6 21/53/6 18/45/6 32/83/6
f 37/99/3 30/79/3 15/38/3 4/12/3
f 14/35/2 17/43/2 16/40/2 15/37/2
f 10/25/2 13/33/2 12/31/2 11/28/2
f 27/69/4 25/63/4 22/55/4 26/66/4
f 32/84/1 23/58/1 24/61/1 33/87/1
f 8/21/2 7/18/2 9/23/2 35/92/2
f 16/41/7 17/44/7 31/82/7
f 24/62/7 25/64/7 27/70/7 33/88/7
f 11/29/3 28/73/3 6/16/3 10/26/3
f 1/3/7 31/82/7 33/88/7 27/70/7
f 19/49/3 30/79/3 32/85/3 18/46/3
f 23/59/3 32/85/3 26/67/3 22/56/3
f 2/5/3 28/73/3 26/67/3 37/99/3
f 3/8/7 29/76/7 34/89/7
f 14/36/3 15/38/3 30/79/3
f 16/41/7 31/82/7 1/3/7 5/15/7
f 29/76/7 3/8/7 1/3/7 27/70/7
f 28/73/3 2/5/3 6/16/3
f 29/76/7 12/32/7 13/34/7 34/89/7
f 20/52/7 21/54/7 33/88/7 31/82/7
f 35/93/7 9/24/7 29/76/7 27/70/7
f 8/22/3 26/67/3 28/73/3 7/19/3
f 4/10/1 15/39/1 16/42/1 5/13/1
f 34/90/8 6/17/8 2/6/8 3/9/8
f 61/159/1 44/115/1 45/118/1 62/162/1
f 55/143/2 58/151/2 57/148/2 56/145/2
f 65/173/3 63/167/3 38/101/3 59/155/3
f 64/168/4 50/131/4 47/123/4 63/165/4
f 62/163/4 42/111/4 40/106/4 61/160/4
f 51/133/2 54/141/2 53/138/2 52/135/2
f 46/121/6 43/113/6 4/11/6 5/14/6
f 60/156/1 59/153/1 41/108/1 67/177/1
f 63/166/1 52/136/1 53/139/1 64/169/1
f 37/98/5 38/100/5 36/94/5 1/2/5
f 66/174/6 54/141/6 51/133/6 65/171/6
f 38/101/3 63/167/3 48/126/3 39/103/3
f 47/123/2 50/131/2 49/128/2 48/125/2
f 43/113/2 46/121/2 45/119/2 44/116/2
f 60/157/4 58/151/4 55/143/4 59/154/4
f 65/172/1 56/146/1 57/149/1 66/175/1
f 41/109/2 40/106/2 42/111/2 67/178/2
f 49/129/7 50/132/7 64/170/7
f 57/150/7 58/152/7 60/158/7 66/176/7
f 44/117/3 61/161/3 4/12/3 43/114/3
f 36/95/7 64/170/7 66/176/7 60/158/7
f 52/137/3 63/167/3 65/173/3 51/134/3
f 56/147/3 65/173/3 59/155/3 55/144/3
f 37/99/3 61/161/3 59/155/3 38/101/3
f 1/3/7 62/164/7 5/15/7
f 47/124/3 48/126/3 63/167/3
f 49/129/7 64/170/7 36/95/7 68/180/7
f 62/164/7 1/3/7 36/95/7 60/158/7
f 61/161/3 37/99/3 4/12/3
f 62/164/7 45/120/7 46/122/7 5/15/7
f 53/140/7 54/142/7 66/176/7 64/170/7
f 67/179/7 42/112/7 62/164/7 60/158/7
f 41/110/3 59/155/3 61/161/3 40/107/3
f 39/104/1 48/127/1 49/130/1 68/181/1
f 68/182/9 36/96/9 38/102/9 39/105/9
