# Blender 3.4.0
# www.blender.org
mtllib stairs_4.mtl
o stairs_4
v -1.999999 1.300000 -2.000000
v -1.999999 1.500000 -2.000000
v 1.999999 1.300000 -0.000000
v 1.999999 1.300000 -2.000000
v 1.999999 1.500000 -2.000000
v -2.000001 -0.200000 2.000000
v 2.000000 -0.200000 2.000000
v -2.000001 1.300000 -0.000000
v -2.000001 1.500000 -0.000000
v 2.000000 1.500000 -0.000000
v -2.000001 -0.000000 2.000000
v -2.000001 0.565602 1.676582
v -2.000001 0.600000 1.644999
v 2.000000 0.565602 1.676582
v -2.000001 0.265602 2.076583
v -2.000001 0.300000 2.045000
v 2.000000 0.300000 2.045000
v 2.000000 0.265602 2.076583
v -2.000001 1.465602 0.476582
v -2.000001 1.500000 0.445000
v 2.000000 1.500000 0.445000
v 2.000000 1.465602 0.476582
v -2.000001 1.165602 0.876582
v -2.000001 1.200000 0.844999
v 2.000000 1.200000 0.844999
v 2.000000 1.165602 0.876582
v -2.000001 0.865602 1.276582
v -2.000001 0.900000 1.244999
v 2.000000 0.900000 1.244999
v 2.000000 0.865602 1.276582
v -2.000001 0.600000 1.199999
v 2.000000 0.600000 1.199999
v -2.000001 0.300000 1.600000
v 2.000000 0.300000 1.600000
v -2.000001 1.200000 0.400000
v 2.000000 1.200000 0.399999
v -2.000001 0.900000 0.799999
v 2.000000 0.900000 0.799999
v 2.000000 -0.000000 2.000000
v 2.000000 0.600000 1.644999
vn -0.0000 -0.0000 -1.0000
vn -0.0000 1.0000 -0.0000
vn -1.0000 -0.0000 -0.0000
vn 1.0000 -0.0000 -0.0000
vn -0.0000 0.6763 0.7366
vn -0.0000 -0.2770 0.9609
vn 0.0021 -0.2770 0.9609
vn 0.0022 -0.2770 0.9609
vn -0.0000 -0.8000 -0.6000
vn -0.0000 -0.2771 0.9609
vn -0.0000 -1.0000 -0.0000
vn -0.0000 -0.0000 1.0000
vt -0.166666 0.716667
vt 0.716667 -0.179430
vt -0.166666 -0.179430
vt -0.166666 0.783333
vt -0.166666 -0.179430
vt 0.783333 -0.179430
vt 0.716667 0.487236
vt 1.166666 0.487236
vt 1.166666 0.716667
vt 0.716667 -0.179430
vt 1.166666 -0.179430
vt 1.166666 0.783333
vt 1.166666 -0.179430
vt 0.783333 -0.179430
vt -0.166667 1.153903
vt 0.216667 1.153903
vt -0.166667 0.216667
vt 1.166666 1.153903
vt 0.216667 1.153903
vt 1.166666 0.216667
vt 0.716667 0.487236
vt -0.166666 0.487236
vt 0.783333 0.487236
vt -0.166667 0.487236
vt 0.783333 0.487236
vt 1.166666 0.487236
vt 0.283333 1.153903
vt -0.166667 0.283333
vt -0.166667 0.471867
vt 0.471867 1.046097
vt -0.166667 1.035569
vt -0.166667 0.483333
vt 0.483333 1.035569
vt 1.166666 0.471867
vt 0.471867 1.046097
vt -0.166667 0.371867
vt 0.371867 1.179430
vt -0.166667 1.168903
vt -0.166667 0.383333
vt 0.383333 1.168903
vt 1.166666 1.168903
vt 1.166666 0.383333
vt 0.383333 1.168903
vt 1.166666 0.371867
vt 0.371867 1.179430
vt -0.166666 0.771867
vt 0.771867 0.646097
vt -0.166667 0.783333
vt 0.783333 0.635569
vt -0.166667 0.635569
vt 1.166666 0.783333
vt 0.783333 0.635569
vt 1.166666 0.635569
vt 1.166666 0.771867
vt 0.771867 0.646097
vt -0.166667 0.671867
vt 0.671867 0.779430
vt -0.166667 0.683333
vt -0.166667 0.768903
vt 0.683333 0.768903
vt 1.166666 0.683333
vt 1.166666 0.768903
vt 0.683333 0.768903
vt 1.166666 0.671867
vt 0.671867 0.779430
vt -0.166667 0.571867
vt 0.571867 0.912763
vt -0.166667 0.583333
vt -0.166667 0.902236
vt 0.583333 0.902236
vt 1.166666 0.583333
vt 1.166666 0.902236
vt 0.583333 0.902236
vt 1.166666 0.571867
vt 0.571867 0.912763
vt -0.166667 0.887236
vt -0.166667 0.483333
vt 0.483333 0.887236
vt 1.166666 0.887236
vt 1.166666 0.483333
vt 0.483333 0.887236
vt -0.166667 1.020570
vt -0.166667 0.383333
vt 0.383333 1.020570
vt 1.166666 1.020570
vt 1.166666 0.383333
vt 0.383333 1.020570
vt -0.166667 0.683333
vt -0.166667 0.620569
vt 0.683333 0.620569
vt 1.166666 0.683333
vt 1.166666 0.620569
vt 0.683333 0.620569
vt -0.166667 0.583333
vt -0.166667 0.753903
vt 0.583333 0.753903
vt 1.166666 0.583333
vt 1.166666 0.753903
vt 0.583333 0.753903
vt 0.283333 1.153903
vt 1.166666 0.283333
vt 1.166667 1.035569
vt 1.166667 0.483333
vt 0.483333 1.035569
s 0
usemtl concrete_4
f 1/1/1 2/4/1 5/12/1 4/9/1
f 5/13/2 2/5/2 9/24/2 10/26/2
f 8/21/3 9/23/3 2/6/3 1/2/3
f 4/10/4 5/14/4 10/25/4 3/7/4
f 33/82/2 16/38/2 17/41/2 34/85/2
f 27/66/5 30/74/5 29/71/5 28/68/5
f 37/96/3 35/90/3 8/21/3 31/78/3
f 36/91/6 22/54/6 19/46/6 35/88/6
f 34/86/7 14/34/8 12/29/7 33/83/7
f 23/56/5 26/64/5 25/61/5 24/58/5
f 18/44/6 15/36/6 11/28/6 39/101/6
f 32/79/2 31/76/2 13/31/2 40/102/2
f 35/89/2 24/59/2 25/62/2 36/92/2
f 6/15/9 8/22/9 3/8/9 7/18/9
f 38/97/10 26/64/10 23/56/10 37/94/10
f 8/21/3 35/90/3 20/49/3 9/23/3
f 19/46/5 22/54/5 21/51/5 20/48/5
f 15/36/5 18/44/5 17/42/5 16/39/5
f 32/80/6 30/74/6 27/66/6 31/77/6
f 37/95/2 28/69/2 29/72/2 38/98/2
f 13/32/5 12/29/5 14/34/5 40/103/5
f 21/52/4 22/55/4 36/93/4
f 29/73/4 30/75/4 32/81/4 38/99/4
f 16/40/3 33/84/3 11/27/3 15/37/3
f 3/7/4 36/93/4 38/99/4 32/81/4
f 24/60/3 35/90/3 37/96/3 23/57/3
f 28/70/3 37/96/3 31/78/3 27/67/3
f 6/16/3 33/84/3 31/78/3 8/21/3
f 7/19/4 34/87/4 39/100/4
f 19/47/3 20/49/3 35/90/3
f 21/52/4 36/93/4 3/7/4 10/25/4
f 34/87/4 7/19/4 3/7/4 32/81/4
f 33/84/3 6/16/3 11/27/3
f 34/87/4 17/43/4 18/45/4 39/100/4
f 25/63/4 26/65/4 38/99/4 36/93/4
f 40/104/4 14/35/4 34/87/4 32/81/4
f 13/33/3 31/78/3 33/84/3 12/30/3
f 9/24/2 20/50/2 21/53/2 10/26/2
f 4/11/11 3/8/11 8/22/11 1/3/11
f 39/101/12 11/28/12 6/17/12 7/20/12
