# Blender 3.4.0
# www.blender.org
mtllib stairs_5_wood.mtl
o stairs_5_wood
v 0.999999 1.300000 -0.000000
v -1.000000 -0.200000 2.000000
v 1.000000 -0.200000 2.000000
v -1.000000 1.500000 -0.000000
v 1.000000 1.500000 -0.000000
v -1.000000 -0.000000 2.000000
v -1.000000 0.565602 1.644999
v -1.000000 0.600000 1.644999
v 1.000000 0.565602 1.644999
v -1.000000 0.265602 2.045001
v -1.000000 0.300000 2.045000
v 1.000000 0.300000 2.045000
v 1.000000 0.265602 2.045001
v -1.000000 1.465602 0.444999
v -1.000000 1.500000 0.445000
v 1.000000 1.500000 0.445000
v 1.000000 1.465602 0.444999
v -1.000000 1.165602 0.844999
v -1.000000 1.200000 0.844999
v 1.000000 1.200000 0.844999
v 1.000000 1.165602 0.844999
v -1.000000 0.865602 1.244999
v -1.000000 0.900000 1.244999
v 1.000000 0.900000 1.244999
v 1.000000 0.865602 1.244999
v -1.000000 0.600000 1.199999
v 1.000000 0.600000 1.199999
v -1.000000 0.300000 1.600000
v 1.000000 0.300000 1.600000
v -1.000000 1.200000 0.400000
v 1.000000 1.200000 0.399999
v -1.000000 0.900000 0.799999
v 1.000000 0.900000 0.799999
v 1.000000 -0.000000 2.000000
v 1.000000 0.600000 1.644999
v 0.999999 2.800000 -2.000000
v -1.000000 1.300000 0.000000
v -1.000000 2.800000 -2.000000
v -1.000000 3.000000 -2.000000
v -1.000000 2.065602 -0.355000
v -1.000000 2.100000 -0.355001
v 1.000000 2.065602 -0.355000
v -1.000000 1.765602 0.045000
v -1.000000 1.800000 0.045000
v 1.000000 1.800000 0.045000
v 1.000000 1.765602 0.045000
v -1.000000 2.965602 -1.555001
v -1.000000 3.000000 -1.555000
v 1.000000 3.000000 -1.555000
v 1.000000 2.965602 -1.555001
v -1.000000 2.665602 -1.155001
v -1.000000 2.700000 -1.155001
v 1.000000 2.700000 -1.155001
v 1.000000 2.665602 -1.155001
v -1.000000 2.365602 -0.755001
v -1.000000 2.400000 -0.755001
v 1.000000 2.400000 -0.755001
v 1.000000 2.365602 -0.755001
v -1.000000 2.100000 -0.800001
v 1.000000 2.100000 -0.800001
v -1.000000 1.800000 -0.400000
v 1.000000 1.800000 -0.400000
v -1.000000 2.700000 -1.600000
v 1.000000 2.700000 -1.600001
v -1.000000 2.400000 -1.200001
v 1.000000 2.400000 -1.200001
v 1.000000 2.100000 -0.355001
v 1.000000 3.000000 -2.000000
v 1.000000 1.765602 0.000000
v -1.000000 1.765602 0.000000
v -1.000000 2.065602 -0.400000
v 1.000000 2.065602 -0.400000
v -1.000000 0.865602 1.199998
v 1.000000 0.865602 1.199998
v -1.000000 0.565602 1.600001
v 1.000000 0.565602 1.600001
v -1.000000 1.465602 0.400000
v 1.000000 1.465602 0.400000
v -1.000000 1.165602 0.799999
v 1.000000 1.165602 0.799999
v 1.000000 0.265602 2.000000
v -1.000000 0.265602 2.000000
v -1.000000 2.365602 -0.800001
v 1.000000 2.365602 -0.800001
v -1.000000 2.965602 -1.600000
v 1.000000 2.965602 -1.600000
v -1.000000 2.665602 -1.200000
v 1.000000 2.665602 -1.200001
vn -0.0000 1.0000 -0.0000
vn -0.0000 -0.0000 1.0000
vn -1.0000 -0.0000 -0.0000
vn -0.0000 -1.0000 -0.0000
vn -0.0000 -0.8000 -0.6000
vn 1.0000 -0.0000 -0.0000
vn -0.0000 -0.0000 -1.0000
vt 0.494438 0.252782
vt 0.524722 0.505563
vt 0.988875 0.747219
vt 0.104450 0.988875
vt 0.104450 0.747219
vt 0.988875 0.252781
vt 0.895550 0.011125
vt 0.104450 0.252781
vt 0.494437 0.747219
vt 0.524722 0.747219
vt 0.524722 0.494437
vt 0.494437 0.252781
vt 0.524722 0.252781
vt 0.475278 0.505563
vt 0.153894 0.988875
vt 0.153894 0.747219
vt 0.901112 0.747219
vt 0.293721 0.747219
vt 0.293721 0.901112
vt 0.901112 0.747219
vt 0.302225 0.747219
vt 0.302225 0.901112
vt 0.901112 0.252781
vt 0.293721 0.252781
vt 0.706279 0.098888
vt 0.219556 0.747219
vt 0.219556 1.000000
vt 1.000000 0.747219
vt 1.000000 0.747219
vt 0.228059 0.747219
vt 0.228059 1.000000
vt 1.000000 0.252781
vt 0.228059 0.252781
vt 0.771941 0.000000
vt 0.219556 0.252781
vt 0.780445 0.000000
vt 1.000000 0.252781
vt 0.604450 0.747219
vt 0.516218 0.747219
vt 0.516218 0.604450
vt 0.524722 0.747219
vt 0.524722 0.604450
vt 0.604450 0.747219
vt 0.524722 0.252781
vt 0.604450 0.252781
vt 0.475278 0.395550
vt 0.604450 0.252781
vt 0.516218 0.252781
vt 0.483782 0.395550
vt 0.442052 0.747219
vt 0.703337 0.747219
vt 0.442052 0.703337
vt 0.450556 0.747219
vt 0.703337 0.747219
vt 0.450556 0.703337
vt 0.450556 0.252781
vt 0.703337 0.252781
vt 0.549444 0.296663
vt 0.442052 0.252781
vt 0.703337 0.252781
vt 0.557948 0.296663
vt 0.367887 0.747219
vt 0.802224 0.747219
vt 0.367887 0.802225
vt 0.376391 0.747219
vt 0.802225 0.747219
vt 0.376391 0.802225
vt 0.376391 0.252781
vt 0.802225 0.252781
vt 0.623609 0.197776
vt 0.367887 0.252781
vt 0.802225 0.252781
vt 0.632113 0.197776
vt 0.791100 0.747219
vt 0.302225 0.791100
vt 0.302225 0.747219
vt 0.791100 0.252781
vt 0.697775 0.208900
vt 0.302225 0.252781
vt 0.889987 0.747219
vt 0.228059 0.889987
vt 0.228059 0.747219
vt 0.889988 0.252781
vt 0.771941 0.110013
vt 0.228059 0.252781
vt 0.593325 0.747219
vt 0.450556 0.593325
vt 0.450556 0.747219
vt 0.593325 0.252781
vt 0.549444 0.406675
vt 0.450556 0.252781
vt 0.692212 0.747219
vt 0.376391 0.692212
vt 0.376391 0.747219
vt 0.692212 0.252781
vt 0.623609 0.307788
vt 0.376391 0.252781
vt 0.846106 0.011125
vt 0.153894 0.252781
vt 0.901112 0.252781
vt 0.302225 0.252781
vt 0.697775 0.098888
vt 0.000000 0.252782
vt 0.846106 0.252782
vt 0.153894 1.000000
vt 0.494437 0.747219
vt 0.475278 0.494438
vt -0.000000 0.747219
vt 0.846106 0.000000
vt 0.846106 0.747219
vt 0.895550 0.000000
vt -0.000000 0.747219
vt 0.895550 0.747219
vt 0.406675 0.747219
vt 0.664549 0.747219
vt 0.664549 0.406675
vt 0.406675 0.747219
vt 0.673053 0.747219
vt 0.673053 0.406675
vt 0.406675 0.252781
vt 0.664549 0.252781
vt 0.335451 0.593325
vt 0.590384 0.747219
vt 0.590384 0.505562
vt 0.505562 0.747219
vt 0.505562 0.747219
vt 0.598887 0.747219
vt 0.598887 0.505562
vt 0.505562 0.252781
vt 0.598887 0.252781
vt 0.401113 0.494438
vt 0.590384 0.252781
vt 0.409616 0.494438
vt 0.505562 0.252781
vt 0.110012 0.747219
vt 0.887046 0.747219
vt 0.887046 0.110012
vt 0.895550 0.747219
vt 0.895550 0.110012
vt 0.110012 0.747219
vt 0.895550 0.252781
vt 0.110012 0.252781
vt 0.104450 0.889988
vt 0.110012 0.252781
vt 0.887046 0.252781
vt 0.112954 0.889988
vt 0.812880 0.747219
vt 0.208900 0.747219
vt 0.812881 0.208900
vt 0.821384 0.747219
vt 0.208900 0.747219
vt 0.821384 0.208900
vt 0.821384 0.252781
vt 0.208900 0.252781
vt 0.178616 0.791100
vt 0.812881 0.252781
vt 0.208900 0.252781
vt 0.187119 0.791100
vt 0.738715 0.747219
vt 0.307787 0.747219
vt 0.738715 0.307787
vt 0.747219 0.747219
vt 0.307787 0.747219
vt 0.747219 0.307787
vt 0.747219 0.252781
vt 0.307787 0.252781
vt 0.252781 0.692213
vt 0.738715 0.252781
vt 0.307787 0.252781
vt 0.261285 0.692213
vt 0.296662 0.747219
vt 0.673053 0.296662
vt 0.673053 0.747219
vt 0.296662 0.252781
vt 0.326947 0.703338
vt 0.673053 0.252781
vt 0.395550 0.747219
vt 0.598887 0.395550
vt 0.598887 0.747219
vt 0.395550 0.252781
vt 0.401113 0.604450
vt 0.598887 0.252781
vt 0.098887 0.747219
vt 0.821384 0.098887
vt 0.821384 0.747219
vt 0.098887 0.252781
vt 0.178616 0.901113
vt 0.821384 0.252781
vt 0.197775 0.747219
vt 0.747219 0.197775
vt 0.747219 0.747219
vt 0.197775 0.252781
vt 0.252781 0.802225
vt 0.747219 0.252781
vt 0.406675 0.252781
vt 0.673053 0.252781
vt 0.326947 0.593325
vt 0.000000 0.252781
vt 0.895550 0.252781
vt 0.104450 1.000000
vt 0.590384 0.252781
vt 0.409616 0.505563
vt 0.494438 0.252781
vt 0.590384 0.747219
vt 0.590384 0.494438
vt 0.494437 0.747219
vt 0.395550 0.747219
vt 0.664549 0.395550
vt 0.664549 0.747219
vt 0.395550 0.252781
vt 0.335451 0.604450
vt 0.664549 0.252781
vt 0.791100 0.747219
vt 0.367887 0.791100
vt 0.367887 0.747219
vt 0.791100 0.252781
vt 0.632113 0.208901
vt 0.367887 0.252781
vt 0.889988 0.747219
vt 0.293721 0.889988
vt 0.293721 0.747219
vt 0.889988 0.252781
vt 0.706279 0.110012
vt 0.293721 0.252781
vt 0.593325 0.747219
vt 0.516218 0.593325
vt 0.516218 0.747219
vt 0.593325 0.252781
vt 0.483782 0.406675
vt 0.516218 0.252781
vt 0.692212 0.747219
vt 0.442052 0.692212
vt 0.442052 0.747219
vt 0.692212 0.252781
vt 0.557948 0.307788
vt 0.442052 0.252781
vt 0.219556 0.252781
vt 0.780445 0.011125
vt 0.988875 0.252781
vt 0.219556 0.747219
vt 0.219556 0.988875
vt 0.988875 0.747219
vt 0.296662 0.747219
vt 0.738715 0.296662
vt 0.738715 0.747219
vt 0.296662 0.252781
vt 0.261285 0.703338
vt 0.738715 0.252781
vt 0.098887 0.747219
vt 0.887046 0.098888
vt 0.887046 0.747219
vt 0.098887 0.252781
vt 0.112954 0.901113
vt 0.887046 0.252781
vt 0.197775 0.747219
vt 0.812881 0.197775
vt 0.812880 0.747219
vt 0.197775 0.252781
vt 0.187119 0.802225
vt 0.812881 0.252781
s 0
usemtl floor_1
f 28/80/1 11/29/1 12/32/1 29/83/1
f 22/62/2 25/71/2 24/68/2 23/65/2
f 32/93/3 30/87/3 37/107/3 26/75/3
f 78/228/4 17/47/4 14/38/4 77/225/4
f 76/222/4 9/23/4 7/17/4 75/219/4
f 18/50/2 21/59/2 20/56/2 19/53/2
f 81/237/2 82/240/2 6/16/2 34/99/2
f 27/77/1 26/74/1 8/20/1 35/100/1
f 30/86/1 19/54/1 20/57/1 31/89/1
f 2/3/5 37/106/5 1/1/5 3/6/5
f 80/234/4 21/60/4 18/51/4 79/231/4
f 14/39/2 17/48/2 16/44/2 15/41/2
f 10/26/2 13/35/2 12/33/2 11/30/2
f 74/216/4 25/72/4 22/63/4 73/213/4
f 32/92/1 23/66/1 24/69/1 33/95/1
f 8/21/2 7/18/2 9/24/2 35/101/2
f 14/40/3 15/42/3 4/11/3 37/107/3 30/87/3 77/226/3
f 24/70/6 25/73/6 74/217/6 27/78/6 33/96/6
f 11/31/3 28/81/3 6/15/3 82/241/3 10/27/3
f 1/2/6 31/90/6 33/96/6 27/78/6
f 19/55/3 30/87/3 32/93/3 79/232/3 18/52/3
f 23/67/3 32/93/3 26/75/3 73/214/3 22/64/3
f 2/4/3 28/81/3 26/75/3 37/107/3
f 3/7/6 29/84/6 34/98/6
f 29/84/6 3/7/6 1/2/6 27/78/6
f 28/81/3 2/4/3 6/15/3
f 29/84/6 12/34/6 13/36/6 81/238/6 34/98/6
f 20/58/6 21/61/6 80/235/6 33/96/6 31/90/6
f 35/102/6 9/25/6 76/223/6 29/84/6 27/78/6
f 8/22/3 26/75/3 28/81/3 75/220/3 7/19/3
f 4/9/1 15/43/1 16/45/1 5/12/1
f 34/99/2 6/16/2 2/5/2 3/8/2
f 61/177/1 44/126/1 45/129/1 62/180/1
f 55/159/2 58/168/2 57/165/2 56/162/2
f 65/190/3 63/184/3 38/109/3 59/172/3
f 86/252/4 50/144/4 47/135/4 85/249/4
f 72/210/4 42/120/4 40/114/4 71/207/4
f 51/147/2 54/156/2 53/153/2 52/150/2
f 69/201/2 70/204/2 4/10/2 5/13/2
f 60/174/1 59/171/1 41/117/1 67/195/1
f 63/183/1 52/151/1 53/154/1 64/186/1
f 37/106/5 38/108/5 36/103/5 1/1/5
f 88/258/4 54/157/4 51/148/4 87/255/4
f 31/90/6 1/2/6 5/14/6 16/46/6 17/49/6 78/229/6
f 47/136/2 50/145/2 49/141/2 48/138/2
f 43/123/2 46/132/2 45/130/2 44/127/2
f 84/246/4 58/169/4 55/160/4 83/243/4
f 65/189/1 56/163/1 57/166/1 66/192/1
f 41/118/2 40/115/2 42/121/2 67/196/2
f 47/137/3 48/139/3 39/111/3 38/109/3 63/184/3 85/250/3
f 57/167/6 58/170/6 84/247/6 60/175/6 66/193/6
f 44/128/3 61/178/3 4/11/3 70/205/3 43/124/3
f 36/105/6 64/187/6 66/193/6 60/175/6
f 52/152/3 63/184/3 65/190/3 87/256/3 51/149/3
f 56/164/3 65/190/3 59/172/3 83/244/3 55/161/3
f 37/107/3 61/178/3 59/172/3 38/109/3
f 1/2/6 62/181/6 5/14/6
f 62/181/6 1/2/6 36/105/6 60/175/6
f 61/178/3 37/107/3 4/11/3
f 62/181/6 45/131/6 46/133/6 69/202/6 5/14/6
f 53/155/6 54/158/6 88/259/6 66/193/6 64/187/6
f 67/197/6 42/122/6 72/211/6 62/181/6 60/175/6
f 41/119/3 59/172/3 61/178/3 71/208/3 40/116/3
f 39/112/1 48/140/1 49/142/1 68/198/1
f 68/199/7 36/104/7 38/110/7 39/113/7
f 46/134/4 43/125/4 70/206/4 69/203/4
f 62/182/2 72/212/2 71/209/2 61/179/2
f 64/187/6 36/105/6 68/200/6 49/143/6 50/146/6 86/253/6
f 60/176/2 84/248/2 83/245/2 59/173/2
f 66/194/2 88/260/2 87/257/2 65/191/2
f 64/188/2 86/254/2 85/251/2 63/185/2
f 27/79/2 74/218/2 73/215/2 26/76/2
f 33/97/2 80/236/2 79/233/2 32/94/2
f 13/37/4 10/28/4 82/242/4 81/239/4
f 29/85/2 76/224/2 75/221/2 28/82/2
f 31/91/2 78/230/2 77/227/2 30/88/2
