# Blender 3.4.0
# www.blender.org
mtllib stairs_3.mtl
o stairs_3
v 1.999999 1.300000 -0.000000
v 1.999999 1.500000 -0.000000
v -2.000001 -0.200000 2.000000
v 2.000000 -0.200000 2.000000
v -2.000001 1.300000 -0.000000
v -2.000001 1.500000 -0.000000
v -2.000001 -0.000000 2.000000
v -2.000001 0.565602 1.676582
v -2.000001 0.600000 1.644999
v 2.000000 0.565602 1.676582
v -2.000001 0.265602 2.076583
v -2.000001 0.300000 2.045000
v 2.000000 0.300000 2.045000
v 2.000000 0.265602 2.076583
v -2.000001 1.465602 0.476582
v -2.000001 1.500000 0.445000
v 2.000000 1.500000 0.445000
v 2.000000 1.465602 0.476582
v -2.000001 1.165602 0.876582
v -2.000001 1.200000 0.844999
v 2.000000 1.200000 0.844999
v 2.000000 1.165602 0.876582
v -2.000001 0.865602 1.276582
v -2.000001 0.900000 1.244999
v 2.000000 0.900000 1.244999
v 2.000000 0.865602 1.276582
v -2.000001 0.600000 1.199999
v 2.000000 0.600000 1.199999
v -2.000001 0.300000 1.600000
v 2.000000 0.300000 1.600000
v -2.000001 1.200000 0.400000
v 2.000000 1.200000 0.399999
v -2.000001 0.900000 0.799999
v 2.000000 0.900000 0.799999
v 2.000000 -0.000000 2.000000
v 2.000000 0.600000 1.644999
vn -0.0000 -0.0000 -1.0000
vn -0.0000 1.0000 -0.0000
vn -0.0000 0.6763 0.7366
vn -1.0000 -0.0000 -0.0000
vn -0.0000 -0.2770 0.9609
vn 0.0021 -0.2770 0.9609
vn 0.0022 -0.2770 0.9609
vn -0.0000 -0.8000 -0.6000
vn -0.0000 -0.2771 0.9609
vn 1.0000 -0.0000 -0.0000
vn -0.0000 -0.0000 1.0000
vt 1.166666 0.716667
vt 1.166666 0.487236
vt 0.716667 0.487236
vt 1.166666 0.783333
vt 0.783333 0.487236
vt 1.166666 0.487236
vt -0.166667 1.153903
vt 0.216667 1.153903
vt -0.166667 0.216667
vt 1.166666 1.153903
vt 0.216667 1.153903
vt 1.166666 0.216667
vt -0.166666 0.716667
vt -0.166667 0.487236
vt 0.716667 0.487236
vt -0.166666 0.783333
vt 0.783333 0.487236
vt -0.166667 0.487236
vt 0.283333 1.153903
vt -0.166667 0.283333
vt -0.166667 0.471867
vt 0.471867 1.046097
vt -0.166667 1.035569
vt -0.166667 0.483333
vt 0.483333 1.035569
vt 1.166666 0.471867
vt 0.471867 1.046097
vt -0.166667 0.371867
vt 0.371867 1.179430
vt -0.166667 1.168903
vt -0.166667 0.383333
vt 0.383333 1.168903
vt 1.166666 1.168903
vt 1.166666 0.383333
vt 0.383333 1.168903
vt 1.166666 0.371867
vt 0.371867 1.179430
vt -0.166666 0.771867
vt 0.771867 0.646097
vt -0.166667 0.783333
vt 0.783333 0.635569
vt -0.166667 0.635569
vt 1.166666 0.783333
vt 0.783333 0.635569
vt 1.166666 0.635569
vt 1.166666 0.771867
vt 0.771867 0.646097
vt -0.166667 0.671867
vt 0.671867 0.779430
vt -0.166667 0.683333
vt -0.166667 0.768903
vt 0.683333 0.768903
vt 1.166666 0.683333
vt 1.166666 0.768903
vt 0.683333 0.768903
vt 1.166666 0.671867
vt 0.671867 0.779430
vt -0.166667 0.571867
vt 0.571867 0.912763
vt -0.166667 0.583333
vt -0.166667 0.902236
vt 0.583333 0.902236
vt 1.166666 0.583333
vt 1.166666 0.902236
vt 0.583333 0.902236
vt 1.166666 0.571867
vt 0.571867 0.912763
vt -0.166667 0.887236
vt -0.166667 0.483333
vt 0.483333 0.887236
vt 1.166666 0.887236
vt 1.166666 0.483333
vt 0.483333 0.887236
vt -0.166667 1.020570
vt -0.166667 0.383333
vt 0.383333 1.020570
vt 1.166666 1.020570
vt 1.166666 0.383333
vt 0.383333 1.020570
vt -0.166667 0.683333
vt -0.166667 0.620569
vt 0.683333 0.620569
vt 1.166666 0.683333
vt 1.166666 0.620569
vt 0.683333 0.620569
vt -0.166667 0.583333
vt -0.166667 0.753903
vt 0.583333 0.753903
vt 1.166666 0.583333
vt 1.166666 0.753903
vt 0.583333 0.753903
vt 0.283333 1.153903
vt 1.166666 0.283333
vt 1.166667 1.035569
vt 1.166667 0.483333
vt 0.483333 1.035569
s 0
usemtl concrete_4
f 5/13/1 6/16/1 2/4/1 1/1/1
f 29/74/2 12/30/2 13/33/2 30/77/2
f 23/58/3 26/66/3 25/63/3 24/60/3
f 33/88/4 31/82/4 5/15/4 27/70/4
f 32/83/5 18/46/5 15/38/5 31/80/5
f 30/78/6 10/26/7 8/21/6 29/75/6
f 19/48/3 22/56/3 21/53/3 20/50/3
f 14/36/5 11/28/5 7/20/5 35/93/5
f 28/71/2 27/68/2 9/23/2 36/94/2
f 31/81/2 20/51/2 21/54/2 32/84/2
f 3/7/8 5/14/8 1/2/8 4/10/8
f 34/89/9 22/56/9 19/48/9 33/86/9
f 5/15/4 31/82/4 16/41/4 6/17/4
f 15/38/3 18/46/3 17/43/3 16/40/3
f 11/28/3 14/36/3 13/34/3 12/31/3
f 28/72/5 26/66/5 23/58/5 27/69/5
f 33/87/2 24/61/2 25/64/2 34/90/2
f 9/24/3 8/21/3 10/26/3 36/95/3
f 17/44/10 18/47/10 32/85/10
f 25/65/10 26/67/10 28/73/10 34/91/10
f 12/32/4 29/76/4 7/19/4 11/29/4
f 1/3/10 32/85/10 34/91/10 28/73/10
f 20/52/4 31/82/4 33/88/4 19/49/4
f 24/62/4 33/88/4 27/70/4 23/59/4
f 3/8/4 29/76/4 27/70/4 5/15/4
f 4/11/10 30/79/10 35/92/10
f 15/39/4 16/41/4 31/82/4
f 17/44/10 32/85/10 1/3/10 2/5/10
f 30/79/10 4/11/10 1/3/10 28/73/10
f 29/76/4 3/8/4 7/19/4
f 30/79/10 13/35/10 14/37/10 35/92/10
f 21/55/10 22/57/10 34/91/10 32/85/10
f 36/96/10 10/27/10 30/79/10 28/73/10
f 9/25/4 27/70/4 29/76/4 8/22/4
f 6/18/2 16/42/2 17/45/2 2/6/2
f 35/93/11 7/20/11 3/9/11 4/12/11
