# Blender 3.4.0
# www.blender.org
mtllib wall_1_rounded_corner.mtl
o wall_1_rounded_corner
v 0.000000 0.000000 -1.940000
v 0.000000 3.000000 -1.940000
v 0.000000 0.000000 -2.060000
v 0.000000 3.000000 -2.060000
v -2.000000 0.000000 -2.060000
v -2.000000 3.000000 -2.059999
v -2.000000 0.000000 -1.939999
v -2.000000 3.000000 -1.940000
v -2.030000 0.000000 -2.030000
v -2.030000 3.000000 -2.029999
v -2.030000 0.000000 -1.969999
v -2.030000 3.000000 -1.970000
v 0.378475 0.000000 -1.902723
v 0.378475 3.000000 -1.902723
v 0.401886 0.000000 -2.020418
v 0.401886 3.000000 -2.020417
v 0.742406 0.000000 -1.792326
v 0.742406 3.000000 -1.792326
v 0.788328 0.000000 -1.903192
v 0.788328 3.000000 -1.903192
v 1.077806 0.000000 -1.613051
v 1.077806 3.000000 -1.613051
v 1.144475 0.000000 -1.712827
v 1.144475 3.000000 -1.712827
v 1.371787 0.000000 -1.371787
v 1.371787 3.000000 -1.371787
v 1.456640 0.000000 -1.456640
v 1.456640 3.000000 -1.456640
v 1.613051 0.000000 -1.077806
v 1.613051 3.000000 -1.077806
v 1.712827 0.000000 -1.144475
v 1.712827 3.000000 -1.144474
v 1.792326 0.000000 -0.742406
v 1.792326 3.000000 -0.742406
v 1.903192 0.000000 -0.788328
v 1.903192 3.000000 -0.788327
v 1.902723 0.000000 -0.378475
v 1.902723 3.000000 -0.378475
v 2.020418 0.000000 -0.401886
v 2.020418 3.000000 -0.401885
v 1.940000 0.000000 0.000000
v 1.940000 3.000000 0.000000
v 2.060000 0.000000 0.000000
v 2.060000 3.000000 0.000001
v 2.060000 3.000000 2.000001
v 1.940000 0.000000 2.000000
v 1.940000 3.000000 2.000000
v 2.060000 0.000000 2.000000
v 1.970000 0.000000 2.030000
v 1.970000 3.000000 2.030000
v 2.030000 0.000000 2.030000
v 2.030000 3.000000 2.030000
vn 0.0491 -0.0000 -0.9988
vn -0.0000 -0.0000 -1.0000
vn -0.7071 -0.0000 0.7071
vn -0.7071 -0.0000 -0.7071
vn -0.0000 -0.0000 1.0000
vn -0.0491 -0.0000 0.9988
vn -0.1951 -0.0000 0.9808
vn 0.1951 -0.0000 -0.9808
vn -0.3827 -0.0000 0.9239
vn 0.3827 -0.0000 -0.9239
vn -0.5556 -0.0000 0.8315
vn 0.5556 -0.0000 -0.8315
vn 0.7071 -0.0000 -0.7071
vn -0.8315 -0.0000 0.5556
vn 0.8315 -0.0000 -0.5556
vn -0.9239 -0.0000 0.3827
vn 0.9239 -0.0000 -0.3827
vn 0.9808 -0.0000 -0.1951
vn -0.9808 -0.0000 0.1951
vn 0.9988 -0.0000 -0.0491
vn -0.9988 -0.0000 0.0491
vn 1.0000 -0.0000 -0.0000
vn -1.0000 -0.0000 -0.0000
vn 0.7071 -0.0000 0.7071
vt 0.115605 0.000001
vt 0.115605 0.999999
vt 0.908172 0.000001
vt 0.908172 0.999999
vt 1.413547 0.000002
vt 1.172528 0.000000
vt 1.413547 0.999999
vt 1.172526 1.000000
vt -0.172525 0.000000
vt -0.389770 0.000001
vt -0.172525 1.000000
vt -0.389770 0.999999
vt 1.162762 0.000000
vt 1.162762 1.000000
vt -0.162760 0.000000
vt -0.162760 1.000000
vt 0.211704 0.000001
vt 0.211704 0.999999
vt 0.806129 0.000001
vt 0.806129 0.999999
vt 0.307803 0.000001
vt 0.307802 0.999999
vt 0.704086 0.000001
vt 0.704086 0.999999
vt 0.403901 0.000001
vt 0.403901 0.999999
vt 0.602043 0.000001
vt 0.602043 0.999999
vt 0.500000 0.000001
vt 0.500000 0.999999
vt 0.500000 0.000001
vt 0.500000 0.999999
vt 0.596099 0.000001
vt 0.596099 0.999999
vt 0.397957 0.000001
vt 0.397957 0.999999
vt 0.692198 0.000001
vt 0.692197 0.999999
vt 0.295914 0.000001
vt 0.295914 0.999999
vt 0.788296 0.000001
vt 0.788296 0.999999
vt 0.193871 0.000001
vt 0.193871 0.999999
vt 0.884395 0.000001
vt 0.884395 0.999999
vt 0.091828 0.000001
vt 0.091828 0.999999
vt -0.413547 0.999998
vt 0.162761 1.000000
vt 1.389770 0.000001
vt 0.837240 0.000000
vt 1.389770 0.999999
vt 0.837239 1.000000
vt -0.413547 0.000001
vt 0.162761 0.000000
vt 0.847006 0.000000
vt 0.847006 1.000000
vt 0.152995 0.000000
vt 0.152995 1.000000
s 1
usemtl wall_mp_1
f 7/9/3 8/11/3 12/16/3 11/15/3
f 7/10/5 1/1/6 2/2/6 8/12/5
f 2/2/6 1/1/6 13/17/7 14/18/7
f 14/18/7 13/17/7 17/21/9 18/22/9
f 18/22/9 17/21/9 21/25/11 22/26/11
f 22/26/11 21/25/11 25/29/3 26/30/3
f 26/30/3 25/29/3 29/33/14 30/34/14
f 30/34/14 29/33/14 33/37/16 34/38/16
f 34/38/16 33/37/16 37/41/19 38/42/19
f 38/42/19 37/41/19 41/45/21 42/46/21
f 42/46/21 41/45/21 46/51/23 47/53/23
s 0
f 47/54/3 46/52/3 49/57/3 50/58/3
s 1
usemtl wall_mp_1
f 3/3/1 5/5/2 6/7/2 4/4/1
f 6/8/4 5/6/4 9/13/4 10/14/4
f 3/3/1 4/4/1 16/20/8 15/19/8
f 15/19/8 16/20/8 20/24/10 19/23/10
f 19/23/10 20/24/10 24/28/12 23/27/12
f 23/27/12 24/28/12 28/32/13 27/31/13
f 27/31/13 28/32/13 32/36/15 31/35/15
f 31/35/15 32/36/15 36/40/17 35/39/17
f 35/39/17 36/40/17 40/44/18 39/43/18
f 39/43/18 40/44/18 44/48/20 43/47/20
f 43/47/20 44/48/20 45/49/22 48/55/22
s 0
f 48/56/24 45/50/24 52/60/24 51/59/24
