# Blender 3.4.0
# www.blender.org
mtllib wall_1_rounded_corner_1.mtl
o wall_1_rounded_corner_1
v 0.000000 0.000000 -1.940000
v 0.000000 3.000000 -1.940000
v 0.000000 0.000000 -2.060000
v 0.000000 3.000000 -2.060000
v -2.000000 0.000000 -2.060000
v -2.000000 3.000000 -2.059999
v -2.000000 0.000000 -1.939999
v -2.000000 3.000000 -1.940000
v -2.030000 0.000000 -2.030000
v -2.030000 3.000000 -2.029999
v -2.030000 0.000000 -1.969999
v -2.030000 3.000000 -1.970000
v 0.000000 0.160000 -2.060000
v 0.000000 0.000000 -2.090000
v -2.000000 0.160000 -2.059999
v -2.000000 0.160000 -2.070000
v -2.000000 0.000000 -2.090000
v -2.000000 0.160000 -1.940000
v -2.000000 0.110000 -1.910000
v -2.000000 0.000000 -1.909999
v 0.000000 0.160000 -1.940001
v -2.000000 0.160000 -1.930000
v 0.000000 0.000000 -1.910000
v 0.000000 0.160000 -2.070000
v 0.000000 0.110000 -2.090000
v -2.000000 0.110000 -2.090000
v -2.045000 0.000000 -2.045000
v -2.045000 0.110000 -2.045000
v -2.030000 0.160000 -2.030000
v -2.035000 0.160000 -2.035000
v -2.030000 0.160000 -1.969999
v -2.045000 0.000000 -1.954999
v -2.045000 0.110000 -1.955000
v -2.035000 0.160000 -1.964999
v 0.000000 0.160000 -1.930000
v 0.000000 0.110000 -1.910001
v 0.378475 0.000000 -1.902723
v 0.378475 3.000000 -1.902723
v 0.401886 0.000000 -2.020418
v 0.401886 3.000000 -2.020417
v 0.401886 0.160000 -2.020418
v 0.407739 0.000000 -2.049841
v 0.378475 0.160000 -1.902724
v 0.372622 0.000000 -1.873300
v 0.403837 0.160000 -2.030226
v 0.407739 0.110000 -2.049841
v 0.376524 0.160000 -1.892916
v 0.372623 0.110000 -1.873301
v 0.742406 0.000000 -1.792326
v 0.742406 3.000000 -1.792326
v 0.788328 0.000000 -1.903192
v 0.788328 3.000000 -1.903192
v 0.788328 0.160000 -1.903192
v 0.799809 0.000000 -1.930908
v 0.742406 0.160000 -1.792327
v 0.730925 0.000000 -1.764610
v 0.792155 0.160000 -1.912431
v 0.799809 0.110000 -1.930908
v 0.738579 0.160000 -1.783088
v 0.730926 0.110000 -1.764610
v 1.077806 0.000000 -1.613051
v 1.077806 3.000000 -1.613051
v 1.144475 0.000000 -1.712827
v 1.144475 3.000000 -1.712827
v 1.144475 0.160000 -1.712827
v 1.161142 0.000000 -1.737772
v 1.077806 0.160000 -1.613051
v 1.061139 0.000000 -1.588107
v 1.150031 0.160000 -1.721142
v 1.161142 0.110000 -1.737771
v 1.072251 0.160000 -1.604736
v 1.061140 0.110000 -1.588107
v 1.371787 0.000000 -1.371787
v 1.371787 3.000000 -1.371787
v 1.456640 0.000000 -1.456640
v 1.456640 3.000000 -1.456640
v 1.456640 0.160000 -1.456640
v 1.477853 0.000000 -1.477853
v 1.371787 0.160000 -1.371787
v 1.350574 0.000000 -1.350574
v 1.463711 0.160000 -1.463711
v 1.477853 0.110000 -1.477853
v 1.364716 0.160000 -1.364716
v 1.350574 0.110000 -1.350574
v 1.613051 0.000000 -1.077806
v 1.613051 3.000000 -1.077806
v 1.712827 0.000000 -1.144475
v 1.712827 3.000000 -1.144474
v 1.712827 0.160000 -1.144474
v 1.737772 0.000000 -1.161142
v 1.613051 0.160000 -1.077806
v 1.588107 0.000000 -1.061139
v 1.721142 0.160000 -1.150030
v 1.737772 0.110000 -1.161141
v 1.604737 0.160000 -1.072250
v 1.588107 0.110000 -1.061139
v 1.792326 -0.000000 -0.742406
v 1.792326 3.000000 -0.742406
v 1.903192 0.000000 -0.788328
v 1.903192 3.000000 -0.788327
v 1.903192 0.160000 -0.788327
v 1.930908 0.000000 -0.799808
v 1.792327 0.160000 -0.742406
v 1.764610 0.000000 -0.730925
v 1.912431 0.160000 -0.792154
v 1.930908 0.110000 -0.799808
v 1.783088 0.160000 -0.738579
v 1.764610 0.110000 -0.730925
v 1.902723 0.000000 -0.378475
v 1.902723 3.000000 -0.378475
v 2.020418 0.000000 -0.401886
v 2.020418 3.000000 -0.401885
v 2.020418 0.160000 -0.401886
v 2.049841 0.000000 -0.407738
v 1.902724 0.160000 -0.378475
v 1.873300 0.000000 -0.372622
v 2.030226 0.160000 -0.403836
v 2.049841 0.110000 -0.407738
v 1.892916 0.160000 -0.376524
v 1.873300 0.110000 -0.372622
v 1.940000 -0.000000 0.000000
v 1.940000 3.000000 0.000000
v 2.060000 0.000000 0.000000
v 2.060000 3.000000 0.000001
v 2.060000 0.160000 0.000001
v 2.090000 0.000000 0.000000
v 1.940000 0.160000 0.000000
v 1.910000 0.000000 0.000000
v 2.070000 0.160000 0.000000
v 2.090000 0.110000 0.000001
v 1.930000 0.160000 0.000000
v 1.910000 0.110000 0.000000
v 1.940000 3.000000 2.000000
v 2.090000 0.000000 2.000000
v 1.910000 0.000000 2.000000
v 1.940000 0.000000 2.000000
v 2.060000 0.000000 2.000000
v 2.060000 3.000000 2.000000
v 1.970000 0.000000 2.030000
v 1.970000 3.000000 2.030000
v 2.030000 0.000000 2.030000
v 2.030000 3.000000 2.030000
v 2.060000 0.160000 2.000000
v 1.940001 0.160000 2.000000
v 2.070000 0.160000 2.000000
v 2.090000 0.110000 2.000000
v 2.030000 0.160000 2.030000
v 2.045000 0.000000 2.045000
v 2.045000 0.110000 2.045000
v 2.035000 0.160000 2.035000
v 1.930001 0.160000 2.000000
v 1.910001 0.110000 2.000000
v 1.955001 0.000000 2.045000
v 1.955001 0.110000 2.045000
v 1.970001 0.160000 2.030000
v 1.965001 0.160000 2.035000
vn 0.0491 -0.0000 -0.9988
vn -0.0000 -0.0000 -1.0000
vn -0.7071 -0.0000 0.7071
vn -0.7071 -0.0000 -0.7071
vn -0.0000 -0.0000 1.0000
vn -0.0491 -0.0000 0.9988
vn -0.0000 0.3714 -0.9285
vn 0.0461 0.3710 -0.9275
vn 0.0450 0.3710 -0.9275
vn -0.0000 1.0000 -0.0000
vn -0.0450 0.3710 0.9275
vn -0.0000 0.3714 0.9285
vn -0.0461 0.3710 0.9275
vn -0.6804 0.2722 -0.6804
vn -0.6804 0.2722 0.6804
vn -0.1951 -0.0000 0.9808
vn 0.1951 -0.0000 -0.9808
vn -0.1811 0.3714 0.9106
vn 0.1811 0.3714 -0.9106
vn 0.3553 0.3714 -0.8578
vn -0.3827 -0.0000 0.9239
vn -0.3553 0.3714 0.8578
vn 0.3827 -0.0000 -0.9239
vn -0.5556 -0.0000 0.8315
vn 0.5158 0.3714 -0.7720
vn -0.5158 0.3714 0.7720
vn 0.5556 -0.0000 -0.8315
vn 0.7071 -0.0000 -0.7071
vn 0.6565 0.3714 -0.6565
vn -0.6565 0.3714 0.6565
vn 0.8315 -0.0000 -0.5556
vn -0.8315 -0.0000 0.5556
vn 0.7720 0.3714 -0.5158
vn -0.7720 0.3714 0.5158
vn 0.9239 -0.0000 -0.3827
vn -0.9239 -0.0000 0.3827
vn 0.8578 0.3714 -0.3553
vn -0.8578 0.3714 0.3553
vn 0.9808 -0.0000 -0.1951
vn -0.9808 -0.0000 0.1951
vn 0.9106 0.3714 -0.1811
vn -0.9106 0.3714 0.1811
vn -0.9275 0.3710 0.0461
vn -0.9275 0.3710 0.0450
vn 0.9988 -0.0000 -0.0491
vn -0.9988 -0.0000 0.0491
vn 0.9275 0.3710 -0.0461
vn 0.9275 0.3710 -0.0450
vn -0.9285 0.3714 -0.0000
vn 1.0000 -0.0000 -0.0000
vn -1.0000 -0.0000 -0.0000
vn 0.9285 0.3714 -0.0000
vn 0.7071 -0.0000 0.7071
vn 0.6804 0.2722 0.6804
vt 0.115605 0.000001
vt 0.115605 0.999999
vt 0.908172 0.000001
vt 0.908172 0.999999
vt 1.413547 0.000002
vt 1.172528 0.000000
vt 1.413547 0.999999
vt 1.172526 1.000000
vt -0.172525 0.000000
vt -0.389770 0.000001
vt -0.172525 1.000000
vt -0.389770 0.999999
vt 1.162762 0.000000
vt 1.162762 1.000000
vt -0.162760 0.000000
vt -0.162760 1.000000
vt 0.489117 -0.857208
vt 0.489117 -0.875468
vt -0.865175 -0.857207
vt -0.865175 -0.767125
vt 0.558525 -0.863979
vt -0.865175 -0.863979
vt -0.865175 -0.875468
vt 0.450181 -0.877522
vt -0.865175 -0.775950
vt 0.524667 -0.755635
vt -0.865175 -0.800982
vt -0.865175 -0.875468
vt 0.450181 -0.755635
vt 0.489117 -0.775951
vt -0.865175 -0.767125
vt -0.865175 -0.769179
vt 0.489117 -0.875468
vt 0.489117 -0.863979
vt 0.489117 -0.767125
vt 0.489117 -0.800982
vt -0.865175 -0.800982
vt 0.524667 -0.877522
vt 0.450181 -0.847050
vt 0.524667 -0.847050
vt -0.885489 -0.836893
vt 0.558525 -0.840279
vt -0.888875 -0.840279
vt -0.885489 -0.796264
vt 0.450181 -0.786107
vt 0.524667 -0.786107
vt -0.895647 -0.800982
vt -0.888875 -0.767125
vt -0.888875 -0.792878
vt 0.489117 -0.769179
vt 0.489117 -0.767125
vt 0.489117 -0.800982
vt 0.211704 0.000001
vt 0.211704 0.999999
vt 0.806129 0.000001
vt 0.806129 0.999999
vt 0.761253 -0.830405
vt 0.765216 -0.875468
vt 0.745400 -0.750709
vt 0.741437 -0.875468
vt 0.762573 -0.767125
vt 0.762574 -0.837046
vt 0.765215 -0.800982
vt 0.744079 -0.744067
vt 0.744079 -0.767125
vt 0.741437 -0.800982
vt 0.307803 0.000001
vt 0.307802 0.999999
vt 0.704086 0.000001
vt 0.704086 0.999999
vt 1.022931 -0.751026
vt 1.030704 -0.875468
vt 0.991835 -0.675954
vt 0.984060 -0.875468
vt 1.025521 -0.767125
vt 1.025522 -0.757282
vt 1.030704 -0.800982
vt 0.989244 -0.669698
vt 0.989243 -0.767125
vt 0.984061 -0.800982
vt 0.403901 0.000001
vt 0.403901 0.999999
vt 0.602043 0.000001
vt 0.602043 0.999999
vt 1.264094 -0.622121
vt 1.275380 -0.875468
vt 1.218950 -0.554558
vt 1.207663 -0.875468
vt 1.267856 -0.767125
vt 1.267856 -0.627751
vt 1.275380 -0.800982
vt 1.215188 -0.548928
vt 1.215187 -0.767125
vt 1.207663 -0.800982
vt 0.500000 0.000001
vt 0.500000 0.999999
vt 0.500000 0.000001
vt 0.500000 0.999999
vt 1.475475 -0.448645
vt 1.489840 -0.875468
vt 1.189723 -0.892758
vt 1.418018 -0.391187
vt 1.403653 -0.875468
vt 1.124388 -0.892758
vt 1.480264 -0.767125
vt 1.182464 -0.749837
vt 1.480264 -0.453433
vt 1.489840 -0.800982
vt 1.189723 -0.794500
vt 1.413229 -0.767125
vt 1.413230 -0.386399
vt 1.131648 -0.749836
vt 1.403653 -0.800982
vt 1.124388 -0.794499
vt 0.596099 0.000001
vt 0.596099 0.999999
vt 0.397957 0.000001
vt 0.397957 0.999999
vt 1.648952 -0.237263
vt 1.027149 -0.892758
vt 1.581389 -0.192119
vt 0.975815 -0.892758
vt 1.021445 -0.749836
vt 1.654582 -0.241025
vt 1.027148 -0.794499
vt 1.575758 -0.188357
vt 0.981519 -0.749836
vt 0.975815 -0.794499
vt 0.692198 0.000001
vt 0.692197 0.999999
vt 0.295914 0.000001
vt 0.295914 0.999999
vt 1.777857 0.003901
vt 0.841669 -0.892758
vt 1.702785 0.034996
vt 0.806310 -0.892758
vt 0.837740 -0.749836
vt 1.784112 0.001309
vt 0.841669 -0.794499
vt 1.696528 0.037588
vt 0.810238 -0.749836
vt 0.806310 -0.794499
vt 0.788296 0.000001
vt 0.788296 0.999999
vt 0.193871 0.000001
vt 0.193871 0.999999
vt 1.857235 0.265578
vt 0.640411 -0.892757
vt 1.777539 0.281431
vt 0.622386 -0.892757
vt 0.638409 -0.749836
vt 1.863877 0.264257
vt 0.640411 -0.794499
vt 0.624389 -0.749836
vt 1.770898 0.282752
vt 0.622386 -0.794499
vt 0.884395 0.000001
vt 0.884395 0.999999
vt 0.091828 0.000001
vt 0.091828 0.999999
vt 1.884038 0.537714
vt 0.431111 -0.892757
vt 1.802781 0.537714
vt 0.431111 -0.892757
vt 0.431111 -0.749836
vt 1.890810 0.537714
vt 0.431111 -0.794499
vt 0.431111 -0.749836
vt 1.796010 0.537714
vt 0.431111 -0.794499
vt 1.389770 0.999999
vt 0.837239 1.000000
vt -0.595530 -0.892757
vt 2.808603 -0.303332
vt -0.595530 -0.892757
vt -1.808663 -0.303330
vt 1.389770 0.000001
vt 0.837240 0.000000
vt -0.413547 0.000001
vt 0.162761 0.000000
vt -0.413547 0.999998
vt 0.162761 1.000000
vt 0.847006 0.000000
vt 0.847006 1.000000
vt 0.152995 0.000000
vt 0.152995 1.000000
vt 1.884038 1.892007
vt 0.500031 -0.290009
vt 1.802781 1.892006
vt 0.500000 -0.209995
vt -0.595530 -0.749836
vt 1.890810 1.892006
vt 2.798466 0.050245
vt 0.499985 -0.296669
vt -0.595530 -0.794499
vt 2.808599 -0.229998
vt 2.807899 0.016911
vt 0.520004 -0.270002
vt 2.766602 -0.303332
vt 2.766598 -0.229998
vt 2.765905 0.016911
vt 2.765813 0.050245
vt 0.523346 -0.273333
vt -0.595530 -0.749836
vt 1.796010 1.892006
vt -1.798451 0.050244
vt 0.500015 -0.203333
vt -0.595530 -0.794499
vt -1.808661 -0.229997
vt -1.807887 0.016911
vt -1.766662 -0.303330
vt -1.766660 -0.229996
vt -1.765888 0.016912
vt 0.520004 -0.229996
vt -1.765783 0.050246
vt 0.523346 -0.226662
s 1
usemtl wall_3
f 7/9/3 8/11/3 12/16/3 11/15/3
f 7/10/5 1/1/6 2/2/6 8/12/5
f 2/2/6 1/1/6 37/53/16 38/54/16
f 38/54/16 37/53/16 49/67/21 50/68/21
f 50/68/21 49/67/21 61/81/24 62/82/24
f 62/82/24 61/81/24 73/95/3 74/96/3
f 74/96/3 73/95/3 85/115/32 86/116/32
f 86/116/32 85/115/32 97/129/36 98/130/36
f 98/130/36 97/129/36 109/143/40 110/144/40
f 110/144/40 109/143/40 121/157/46 122/158/46
f 122/158/46 121/157/46 136/177/51 133/171/51
s 0
f 133/172/3 136/178/3 139/183/3 140/184/3
s 1
usemtl wall_3
f 3/3/1 5/5/2 6/7/2 4/4/1
f 6/8/4 5/6/4 9/13/4 10/14/4
f 3/3/1 4/4/1 40/56/17 39/55/17
f 39/55/17 40/56/17 52/70/23 51/69/23
f 51/69/23 52/70/23 64/84/27 63/83/27
f 63/83/27 64/84/27 76/98/28 75/97/28
f 75/97/28 76/98/28 88/118/31 87/117/31
f 87/117/31 88/118/31 100/132/35 99/131/35
f 99/131/35 100/132/35 112/146/39 111/145/39
f 111/145/39 112/146/39 124/160/45 123/159/45
f 123/159/45 124/160/45 138/181/50 137/179/50
s 0
f 137/180/53 138/182/53 142/186/53 141/185/53
s 1
usemtl door_frame_wood_1
f 17/23/2 26/37/2 25/36/1 14/18/1
f 16/20/7 24/35/8 25/36/9 26/37/7
f 15/19/10 13/17/10 24/34/10 16/22/10
f 23/33/6 36/52/6 19/27/5 20/28/5
f 35/51/11 22/31/12 19/27/12 36/52/13
f 21/30/10 18/25/10 22/32/10 35/50/10
f 16/21/14 26/38/14 28/40/14 30/42/14
f 15/19/10 16/22/10 30/43/10 29/41/10
f 19/26/3 33/46/3 32/45/3 20/29/3
f 26/38/4 17/24/4 27/39/4 28/40/4
f 22/31/15 34/48/15 33/47/15 19/27/15
f 18/25/10 31/44/10 34/49/10 22/32/10
f 14/18/1 25/36/1 46/63/17 42/58/17
f 21/30/10 35/50/10 47/64/10 43/59/10
f 36/52/6 23/33/6 44/60/16 48/66/16
f 35/51/11 36/52/13 48/66/18 47/65/18
f 24/34/10 13/17/10 41/57/10 45/62/10
f 25/36/9 24/35/8 45/61/19 46/63/19
f 46/63/19 45/61/19 57/75/20 58/77/20
f 43/59/10 47/64/10 59/78/10 55/73/10
f 45/62/10 41/57/10 53/71/10 57/76/10
f 47/65/18 48/66/18 60/80/22 59/79/22
f 42/58/17 46/63/17 58/77/23 54/72/23
f 48/66/16 44/60/16 56/74/21 60/80/21
f 60/80/21 56/74/21 68/88/24 72/94/24
f 58/77/20 57/75/20 69/89/25 70/91/25
f 55/73/10 59/78/10 71/92/10 67/87/10
f 57/76/10 53/71/10 65/85/10 69/90/10
f 59/79/22 60/80/22 72/94/26 71/93/26
f 54/72/23 58/77/23 70/91/27 66/86/27
f 66/86/27 70/91/27 82/108/28 78/100/28
f 72/94/24 68/88/24 80/103/3 84/113/3
f 70/91/25 69/89/25 81/105/29 82/108/29
f 67/87/10 71/92/10 83/111/10 79/102/10
f 69/90/10 65/85/10 77/99/10 81/107/10
f 71/93/26 72/94/26 84/113/30 83/110/30
f 78/101/28 82/109/28 94/125/31 90/120/31
f 84/114/3 80/104/3 92/122/32 96/128/32
f 82/109/29 81/106/29 93/123/33 94/125/33
f 79/102/10 83/111/10 95/126/10 91/121/10
f 81/107/10 77/99/10 89/119/10 93/124/10
f 83/112/30 84/114/30 96/128/34 95/127/34
f 90/120/31 94/125/31 106/139/35 102/134/35
f 96/128/32 92/122/32 104/136/36 108/142/36
f 94/125/33 93/123/33 105/137/37 106/139/37
f 91/121/10 95/126/10 107/140/10 103/135/10
f 93/124/10 89/119/10 101/133/10 105/138/10
f 95/127/34 96/128/34 108/142/38 107/141/38
f 102/134/35 106/139/35 118/153/39 114/148/39
f 108/142/36 104/136/36 116/150/40 120/156/40
f 106/139/37 105/137/37 117/151/41 118/153/41
f 103/135/10 107/140/10 119/155/10 115/149/10
f 105/138/10 101/133/10 113/147/10 117/152/10
f 107/141/38 108/142/38 120/156/42 119/154/42
f 119/154/42 120/156/42 132/170/43 131/168/44
f 114/148/39 118/153/39 130/167/45 126/162/45
f 120/156/40 116/150/40 128/164/46 132/170/46
f 118/153/41 117/151/41 129/165/47 130/167/48
f 115/149/10 119/155/10 131/169/10 127/163/10
f 117/152/10 113/147/10 125/161/10 129/166/10
f 131/168/44 132/170/43 152/208/49 151/204/49
f 126/162/45 130/167/45 146/195/50 134/173/50
f 132/170/46 128/164/46 135/175/51 152/208/51
f 130/167/48 129/165/47 145/191/52 146/195/52
f 127/163/10 131/169/10 151/205/10 144/189/10
f 129/166/10 125/161/10 143/187/10 145/192/10
s 0
f 146/196/53 149/200/53 148/199/53 134/174/53
f 152/209/3 135/176/3 153/211/3 154/212/3
f 145/193/54 150/202/54 149/201/54 146/197/54
f 151/206/15 152/210/15 154/213/15 156/215/15
f 144/190/10 151/207/10 156/216/10 155/214/10
f 143/188/10 147/198/10 150/203/10 145/194/10
