# Blender 3.4.0
# www.blender.org
mtllib wall_1_2_half.mtl
o wall_1_2_half
v 1.000000 0.000000 0.060000
v 1.000000 3.000000 0.060000
v 1.000000 0.000000 -0.060000
v 1.000000 3.000000 -0.060000
v 1.030000 0.000000 0.030000
v 1.030000 3.000000 0.030000
v 1.030000 0.000000 -0.030000
v 1.030000 3.000000 -0.030000
v -1.000000 0.000000 -0.060000
v -1.000000 3.000000 -0.060000
v -1.000000 0.000000 0.060001
v -1.000000 3.000000 0.060000
v -1.030000 0.000000 -0.030000
v -1.030000 3.000000 -0.030000
v -1.030000 0.000000 0.030001
v -1.030000 3.000000 0.030000
v 1.000000 0.160000 -0.060000
v 1.000000 0.000000 -0.090000
v -1.000000 0.160000 -0.060000
v -1.000000 0.160000 -0.070000
v -1.000000 0.000000 -0.090000
v -1.000000 0.160000 0.060000
v -1.000000 0.110000 0.090000
v -1.000000 0.000000 0.090001
v 1.000000 0.160000 0.059999
v -1.000000 0.160000 0.070000
v 1.000000 0.000000 0.090000
v 1.000000 0.160000 -0.070000
v 1.000000 0.110000 -0.090000
v -1.000000 0.110000 -0.090000
v 1.030000 0.160000 -0.030000
v 1.045000 0.000000 -0.045000
v 1.045000 0.110000 -0.045000
v 1.035000 0.160000 -0.035000
v -1.045000 0.000000 -0.045000
v -1.045000 0.110000 -0.045000
v -1.030000 0.160000 -0.030000
v -1.035000 0.160000 -0.035000
v -1.030000 0.160000 0.030001
v -1.045000 0.000000 0.045001
v -1.045000 0.110000 0.045000
v -1.035000 0.160000 0.035001
v 1.000000 0.160000 0.070000
v 1.000000 0.110000 0.089999
v 1.045000 0.000000 0.044999
v 1.045000 0.110000 0.044999
v 1.030000 0.160000 0.029999
v 1.035000 0.160000 0.034999
vn -0.0000 -0.0000 -1.0000
vn 0.7071 -0.0000 -0.7071
vn 0.7071 -0.0000 0.7071
vn -0.7071 -0.0000 0.7071
vn -0.7071 -0.0000 -0.7071
vn -0.0000 -0.0000 1.0000
vn -0.0000 0.3714 -0.9285
vn -0.0000 1.0000 -0.0000
vn -0.0000 0.3714 0.9285
vn 0.6804 0.2722 -0.6804
vn -0.6804 0.2722 -0.6804
vn -0.6804 0.2722 0.6804
vn 0.6804 0.2722 0.6804
vt 0.837240 0.000000
vt 0.750000 0.000000
vt 0.837239 1.000000
vt 0.750000 1.000000
vt 0.750000 0.000000
vt 0.162761 0.000000
vt 0.750000 1.000000
vt 0.162761 1.000000
vt 0.847006 0.000000
vt 0.847006 1.000000
vt 0.152995 0.000000
vt 0.152995 1.000000
vt 0.250000 0.000000
vt 1.172528 0.000000
vt 0.250000 1.000000
vt 1.172526 1.000000
vt -0.172525 0.000000
vt 0.250000 0.000000
vt -0.172525 1.000000
vt 0.250000 1.000000
vt 1.162762 0.000000
vt 1.162762 1.000000
vt -0.162760 0.000000
vt -0.162760 1.000000
vt 1.166667 -0.290000
vt 0.500031 -0.290009
vt 1.166667 -0.303333
vt 2.808603 -0.303332
vt -0.166667 -0.290000
vt -0.833333 -0.290000
vt -0.166667 -0.196667
vt -0.166667 -0.296667
vt 1.865838 -0.196667
vt -0.833333 -0.296667
vt -0.166667 -0.303333
vt 1.875266 -0.303333
vt -0.166667 -0.210000
vt -0.833333 -0.210000
vt -0.166667 -0.230000
vt -0.875333 -0.230000
vt -0.166667 -0.303333
vt -0.875334 -0.303333
vt 1.166667 -0.210000
vt 0.500000 -0.209995
vt -0.166667 -0.196667
vt -0.166667 -0.203333
vt -0.865895 -0.196667
vt -0.833333 -0.203333
vt 1.166667 -0.303333
vt -1.808663 -0.303330
vt 1.166667 -0.196667
vt 1.166667 -0.296667
vt 2.798466 0.050245
vt 0.499985 -0.296669
vt 1.166667 -0.230000
vt 2.808599 -0.229998
vt 2.807899 0.016911
vt -0.166667 -0.230000
vt 1.875266 -0.230000
vt 0.520004 -0.270002
vt 2.766602 -0.303332
vt 2.766598 -0.229998
vt 2.765905 0.016911
vt 2.765813 0.050245
vt 0.523346 -0.273333
vt 1.833266 -0.303333
vt 1.833266 -0.230000
vt -0.853333 -0.270000
vt 1.833172 -0.196667
vt -0.856667 -0.273333
vt -0.853333 -0.230000
vt -0.833333 -0.303333
vt -0.833333 -0.230000
vt -0.833228 -0.196667
vt -0.856667 -0.226666
vt 1.166667 -0.196667
vt 1.166667 -0.203334
vt -1.798451 0.050244
vt 0.500015 -0.203333
vt 1.166667 -0.230000
vt -1.808661 -0.229997
vt -1.807887 0.016911
vt -1.766662 -0.303330
vt -1.766660 -0.229996
vt -1.765888 0.016912
vt 0.520004 -0.229996
vt -1.765783 0.050246
vt 0.523346 -0.226662
s 0
usemtl wall_6
f 2/3/3 1/1/3 5/9/3 6/10/3
f 11/17/4 12/19/4 16/24/4 15/23/4
f 11/18/6 1/2/6 2/4/6 12/20/6
usemtl wall_6
f 3/5/1 9/13/1 10/15/1 4/7/1
f 3/6/2 4/8/2 8/12/2 7/11/2
f 10/16/5 9/14/5 13/21/5 14/22/5
usemtl wood_painted_white
f 21/35/1 30/58/1 29/55/1 18/27/1
f 20/31/7 28/51/7 29/55/7 30/58/7
f 19/29/8 17/25/8 28/52/8 20/32/8
f 27/49/6 44/80/6 23/39/6 24/41/6
f 43/76/9 26/45/9 23/39/9 44/80/9
f 25/43/8 22/37/8 26/46/8 43/77/8
f 29/56/2 33/62/2 32/61/2 18/28/2
f 44/81/3 27/50/3 45/83/3 46/84/3
f 28/53/10 34/64/10 33/63/10 29/57/10
f 20/33/11 30/59/11 36/67/11 38/69/11
f 19/30/8 20/34/8 38/70/8 37/68/8
f 23/40/4 41/73/4 40/72/4 24/42/4
f 30/59/5 21/36/5 35/66/5 36/67/5
f 26/47/12 42/74/12 41/73/12 23/40/12
f 22/38/8 39/71/8 42/75/8 26/48/8
f 43/78/13 44/82/13 46/85/13 48/87/13
f 25/44/8 43/79/8 48/88/8 47/86/8
f 17/26/8 31/60/8 34/65/8 28/54/8
