# Blender 3.4.0
# www.blender.org
mtllib wall_1_rounded_corner_1_2.mtl
o wall_1_rounded_corner_1_2
v 0.000000 0.000000 -1.940000
v 0.000000 3.000000 -1.940000
v 0.000000 0.000000 -2.060000
v 0.000000 3.000000 -2.060000
v -2.000000 0.000000 -2.060000
v -2.000000 3.000000 -2.059999
v -2.000000 0.000000 -1.939999
v -2.000000 3.000000 -1.940000
v -2.030000 0.000000 -2.030000
v -2.030000 3.000000 -2.029999
v -2.030000 0.000000 -1.969999
v -2.030000 3.000000 -1.970000
v -2.000000 0.160000 -1.940000
v -2.000000 0.110000 -1.910000
v -2.000000 0.000000 -1.909999
v 0.000000 0.160000 -1.940001
v -2.000000 0.160000 -1.930000
v 0.000000 0.000000 -1.910000
v -2.030000 0.160000 -1.969999
v -2.045000 0.000000 -1.954999
v -2.045000 0.110000 -1.955000
v -2.035000 0.160000 -1.964999
v 0.000000 0.160000 -1.930000
v 0.000000 0.110000 -1.910001
v 0.378475 0.000000 -1.902723
v 0.378475 3.000000 -1.902723
v 0.401886 0.000000 -2.020418
v 0.401886 3.000000 -2.020417
v 0.378475 0.160000 -1.902724
v 0.372622 0.000000 -1.873300
v 0.376524 0.160000 -1.892916
v 0.372623 0.110000 -1.873301
v 0.742406 0.000000 -1.792326
v 0.742406 3.000000 -1.792326
v 0.788328 0.000000 -1.903192
v 0.788328 3.000000 -1.903192
v 0.742406 0.160000 -1.792327
v 0.730925 0.000000 -1.764610
v 0.738579 0.160000 -1.783088
v 0.730926 0.110000 -1.764610
v 1.077806 0.000000 -1.613051
v 1.077806 3.000000 -1.613051
v 1.144475 0.000000 -1.712827
v 1.144475 3.000000 -1.712827
v 1.077806 0.160000 -1.613051
v 1.061139 0.000000 -1.588107
v 1.072251 0.160000 -1.604736
v 1.061140 0.110000 -1.588107
v 1.371787 0.000000 -1.371787
v 1.371787 3.000000 -1.371787
v 1.456640 0.000000 -1.456640
v 1.456640 3.000000 -1.456640
v 1.371787 0.160000 -1.371787
v 1.350574 0.000000 -1.350574
v 1.364716 0.160000 -1.364716
v 1.350574 0.110000 -1.350574
v 1.613051 0.000000 -1.077806
v 1.613051 3.000000 -1.077806
v 1.712827 0.000000 -1.144475
v 1.712827 3.000000 -1.144474
v 1.613051 0.160000 -1.077806
v 1.588107 0.000000 -1.061139
v 1.604737 0.160000 -1.072250
v 1.588107 0.110000 -1.061139
v 1.792326 -0.000000 -0.742406
v 1.792326 3.000000 -0.742406
v 1.903192 0.000000 -0.788328
v 1.903192 3.000000 -0.788327
v 1.792327 0.160000 -0.742406
v 1.764610 0.000000 -0.730925
v 1.783088 0.160000 -0.738579
v 1.764610 0.110000 -0.730925
v 1.902723 0.000000 -0.378475
v 1.902723 3.000000 -0.378475
v 2.020418 0.000000 -0.401886
v 2.020418 3.000000 -0.401885
v 1.902724 0.160000 -0.378475
v 1.873300 0.000000 -0.372622
v 1.892916 0.160000 -0.376524
v 1.873300 0.110000 -0.372622
v 1.940000 -0.000000 0.000000
v 1.940000 3.000000 0.000000
v 2.060000 0.000000 0.000000
v 2.060000 3.000000 0.000001
v 1.940000 0.160000 0.000000
v 1.910000 0.000000 0.000000
v 1.930000 0.160000 0.000000
v 1.910000 0.110000 0.000000
v 1.940000 3.000000 2.000000
v 1.910000 0.000000 2.000000
v 1.940000 0.000000 2.000000
v 2.060000 0.000000 2.000000
v 2.060000 3.000000 2.000000
v 1.970000 0.000000 2.030000
v 1.970000 3.000000 2.030000
v 2.030000 0.000000 2.030000
v 2.030000 3.000000 2.030000
v 1.940001 0.160000 2.000000
v 1.930001 0.160000 2.000000
v 1.910001 0.110000 2.000000
v 1.955001 0.000000 2.045000
v 1.955001 0.110000 2.045000
v 1.970001 0.160000 2.030000
v 1.965001 0.160000 2.035000
vn 0.0491 -0.0000 -0.9988
vn -0.0000 -0.0000 -1.0000
vn -0.7071 -0.0000 0.7071
vn -0.7071 -0.0000 -0.7071
vn -0.0000 -0.0000 1.0000
vn -0.0491 -0.0000 0.9988
vn -0.0450 0.3710 0.9275
vn -0.0000 0.3714 0.9285
vn -0.0461 0.3710 0.9275
vn -0.0000 1.0000 -0.0000
vn -0.6804 0.2722 0.6804
vn -0.1951 -0.0000 0.9808
vn -0.1811 0.3714 0.9106
vn 0.1951 -0.0000 -0.9808
vn -0.3827 -0.0000 0.9239
vn -0.3553 0.3714 0.8578
vn 0.3827 -0.0000 -0.9239
vn -0.5556 -0.0000 0.8315
vn -0.5158 0.3714 0.7720
vn 0.5556 -0.0000 -0.8315
vn -0.6565 0.3714 0.6565
vn 0.7071 -0.0000 -0.7071
vn -0.8315 -0.0000 0.5556
vn -0.7720 0.3714 0.5158
vn 0.8315 -0.0000 -0.5556
vn -0.9239 -0.0000 0.3827
vn -0.8578 0.3714 0.3553
vn 0.9239 -0.0000 -0.3827
vn 0.9808 -0.0000 -0.1951
vn -0.9808 -0.0000 0.1951
vn -0.9106 0.3714 0.1811
vn -0.9275 0.3710 0.0461
vn -0.9275 0.3710 0.0450
vn 0.9988 -0.0000 -0.0491
vn -0.9988 -0.0000 0.0491
vn -0.9285 0.3714 -0.0000
vn 1.0000 -0.0000 -0.0000
vn -1.0000 -0.0000 -0.0000
vn 0.7071 -0.0000 0.7071
vt 0.115605 0.000001
vt 0.115605 0.999999
vt 0.908172 0.000001
vt 0.908172 0.999999
vt 1.413547 0.000002
vt 1.172528 0.000000
vt 1.413547 0.999999
vt 1.172526 1.000000
vt -0.172525 0.000000
vt -0.389770 0.000001
vt -0.172525 1.000000
vt -0.389770 0.999999
vt 1.162762 0.000000
vt 1.162762 1.000000
vt -0.162760 0.000000
vt -0.162760 1.000000
vt -0.865175 -0.775950
vt 0.524667 -0.755635
vt -0.865175 -0.800982
vt -0.865175 -0.875468
vt 0.450181 -0.755635
vt 0.489117 -0.775951
vt -0.865175 -0.767125
vt -0.865175 -0.769179
vt 0.489117 -0.875468
vt -0.885489 -0.796264
vt 0.450181 -0.786107
vt 0.524667 -0.786107
vt -0.895647 -0.800982
vt -0.888875 -0.767125
vt -0.888875 -0.792878
vt 0.489117 -0.769179
vt 0.489117 -0.767125
vt 0.489117 -0.800982
vt 0.211704 0.000001
vt 0.211704 0.999999
vt 0.806129 0.000001
vt 0.806129 0.999999
vt 0.745400 -0.750709
vt 0.741437 -0.875468
vt 0.744079 -0.744067
vt 0.744079 -0.767125
vt 0.741437 -0.800982
vt 0.307803 0.000001
vt 0.307802 0.999999
vt 0.704086 0.000001
vt 0.704086 0.999999
vt 0.991835 -0.675954
vt 0.984060 -0.875468
vt 0.989244 -0.669698
vt 0.989243 -0.767125
vt 0.984061 -0.800982
vt 0.403901 0.000001
vt 0.403901 0.999999
vt 0.602043 0.000001
vt 0.602043 0.999999
vt 1.218950 -0.554558
vt 1.207663 -0.875468
vt 1.215188 -0.548928
vt 1.215187 -0.767125
vt 1.207663 -0.800982
vt 0.500000 0.000001
vt 0.500000 0.999999
vt 0.500000 0.000001
vt 0.500000 0.999999
vt 1.418018 -0.391187
vt 1.403653 -0.875468
vt 1.124388 -0.892758
vt 1.413229 -0.767125
vt 1.413230 -0.386399
vt 1.131648 -0.749836
vt 1.403653 -0.800982
vt 1.124388 -0.794499
vt 0.596099 0.000001
vt 0.596099 0.999999
vt 0.397957 0.000001
vt 0.397957 0.999999
vt 1.581389 -0.192119
vt 0.975815 -0.892758
vt 1.575758 -0.188357
vt 0.981519 -0.749836
vt 0.975815 -0.794499
vt 0.692198 0.000001
vt 0.692197 0.999999
vt 0.295914 0.000001
vt 0.295914 0.999999
vt 1.702785 0.034996
vt 0.806310 -0.892758
vt 1.696528 0.037588
vt 0.810238 -0.749836
vt 0.806310 -0.794499
vt 0.788296 0.000001
vt 0.788296 0.999999
vt 0.193871 0.000001
vt 0.193871 0.999999
vt 1.777539 0.281431
vt 0.622386 -0.892757
vt 0.624389 -0.749836
vt 1.770898 0.282752
vt 0.622386 -0.794499
vt 0.884395 0.000001
vt 0.884395 0.999999
vt 0.091828 0.000001
vt 0.091828 0.999999
vt 1.802781 0.537714
vt 0.431111 -0.892757
vt 0.431111 -0.749836
vt 1.796010 0.537714
vt 0.431111 -0.794499
vt 1.389770 0.999999
vt 0.837239 1.000000
vt -0.595530 -0.892757
vt -1.808663 -0.303330
vt 1.389770 0.000001
vt 0.837240 0.000000
vt -0.413547 0.000001
vt 0.162761 0.000000
vt -0.413547 0.999998
vt 0.162761 1.000000
vt 0.847006 0.000000
vt 0.847006 1.000000
vt 0.152995 0.000000
vt 0.152995 1.000000
vt 1.802781 1.892006
vt 0.500000 -0.209995
vt -0.595530 -0.749836
vt 1.796010 1.892006
vt -1.798451 0.050244
vt 0.500015 -0.203333
vt -0.595530 -0.794499
vt -1.808661 -0.229997
vt -1.807887 0.016911
vt -1.766662 -0.303330
vt -1.766660 -0.229996
vt -1.765888 0.016912
vt 0.520004 -0.229996
vt -1.765783 0.050246
vt 0.523346 -0.226662
s 1
usemtl wall_3
f 7/9/3 8/11/3 12/16/3 11/15/3
f 7/10/5 1/1/6 2/2/6 8/12/5
f 2/2/6 1/1/6 25/35/12 26/36/12
f 26/36/12 25/35/12 33/44/15 34/45/15
f 34/45/15 33/44/15 41/53/18 42/54/18
f 42/54/18 41/53/18 49/62/3 50/63/3
f 50/63/3 49/62/3 57/74/23 58/75/23
f 58/75/23 57/74/23 65/83/26 66/84/26
f 66/84/26 65/83/26 73/92/30 74/93/30
f 74/93/30 73/92/30 81/101/35 82/102/35
f 82/102/35 81/101/35 91/114/38 89/110/38
s 0
f 89/111/3 91/115/3 94/120/3 95/121/3
s 1
usemtl wall_mp_1
f 3/3/1 5/5/2 6/7/2 4/4/1
f 6/8/4 5/6/4 9/13/4 10/14/4
f 3/3/1 4/4/1 28/38/14 27/37/14
f 27/37/14 28/38/14 36/47/17 35/46/17
f 35/46/17 36/47/17 44/56/20 43/55/20
f 43/55/20 44/56/20 52/65/22 51/64/22
f 51/64/22 52/65/22 60/77/25 59/76/25
f 59/76/25 60/77/25 68/86/28 67/85/28
f 67/85/28 68/86/28 76/95/29 75/94/29
f 75/94/29 76/95/29 84/104/34 83/103/34
f 83/103/34 84/104/34 93/118/37 92/116/37
s 0
f 92/117/39 93/119/39 97/123/39 96/122/39
s 1
usemtl door_frame_wood_1
f 18/25/6 24/34/6 14/19/5 15/20/5
f 23/33/7 17/23/8 14/19/8 24/34/9
f 16/22/10 13/17/10 17/24/10 23/32/10
f 14/18/3 21/28/3 20/27/3 15/21/3
f 17/23/11 22/30/11 21/29/11 14/19/11
f 13/17/10 19/26/10 22/31/10 17/24/10
f 16/22/10 23/32/10 31/41/10 29/39/10
f 24/34/6 18/25/6 30/40/12 32/43/12
f 23/33/7 24/34/9 32/43/13 31/42/13
f 29/39/10 31/41/10 39/50/10 37/48/10
f 31/42/13 32/43/13 40/52/16 39/51/16
f 32/43/12 30/40/12 38/49/15 40/52/15
f 40/52/15 38/49/15 46/58/18 48/61/18
f 37/48/10 39/50/10 47/59/10 45/57/10
f 39/51/16 40/52/16 48/61/19 47/60/19
f 48/61/18 46/58/18 54/67/3 56/72/3
f 45/57/10 47/59/10 55/70/10 53/66/10
f 47/60/19 48/61/19 56/72/21 55/69/21
f 56/73/3 54/68/3 62/79/23 64/82/23
f 53/66/10 55/70/10 63/80/10 61/78/10
f 55/71/21 56/73/21 64/82/24 63/81/24
f 64/82/23 62/79/23 70/88/26 72/91/26
f 61/78/10 63/80/10 71/89/10 69/87/10
f 63/81/24 64/82/24 72/91/27 71/90/27
f 72/91/26 70/88/26 78/97/30 80/100/30
f 69/87/10 71/89/10 79/99/10 77/96/10
f 71/90/27 72/91/27 80/100/31 79/98/31
f 79/98/31 80/100/31 88/109/32 87/107/33
f 80/100/30 78/97/30 86/106/35 88/109/35
f 77/96/10 79/99/10 87/108/10 85/105/10
f 87/107/33 88/109/32 100/130/36 99/126/36
f 88/109/35 86/106/35 90/112/38 100/130/38
f 85/105/10 87/108/10 99/127/10 98/124/10
s 0
f 100/131/3 90/113/3 101/133/3 102/134/3
f 99/128/11 100/132/11 102/135/11 104/137/11
f 98/125/10 99/129/10 104/138/10 103/136/10
