# Blender 3.4.0
# www.blender.org
mtllib window_1_single.mtl
o window_1_single
v 2.000000 0.000000 0.060000
v 2.000000 3.000000 0.060000
v 2.000000 0.000000 -0.060000
v 2.000000 3.000000 -0.060000
v 2.030000 0.000000 0.030000
v 2.030000 3.000000 0.030000
v 2.030000 0.000000 -0.030000
v 2.030000 3.000000 -0.030000
v -2.000000 0.000000 -0.060000
v -2.000000 3.000000 -0.060000
v -2.000000 0.000000 0.060001
v -2.000000 3.000000 0.060000
v -2.030000 0.000000 -0.030000
v -2.030000 3.000000 -0.030000
v -2.030000 0.000000 0.030001
v -2.030000 3.000000 0.030000
v -0.640000 0.900000 -0.060000
v -0.640000 2.580000 -0.060000
v 0.640000 0.899999 -0.060000
v 0.640000 2.580000 -0.060000
v 0.640000 0.899999 0.060000
v -0.640000 0.900000 0.060000
v -0.640000 2.580000 0.060000
v 0.640000 2.580000 0.060000
v 0.640000 0.899999 -0.100000
v 0.639998 0.900000 0.100000
v -0.560000 0.900001 -0.080000
v -0.560000 0.900001 0.080000
v -0.640000 0.900001 -0.100000
v -0.640000 0.900001 0.100000
v 0.560000 0.900001 -0.080000
v -0.580000 0.900001 -0.080000
v -0.600000 0.900001 -0.100000
v 0.600000 0.900000 -0.100000
v 0.580000 0.900001 -0.080000
v 0.600000 0.899999 0.100000
v -0.600000 0.900001 0.100000
v -0.580000 0.900001 0.080000
v 0.580000 0.900000 0.080000
v -0.640000 2.580000 -0.100000
v -0.640000 2.580000 0.100000
v 0.559999 2.500000 -0.080000
v 0.559999 2.500000 0.080000
v 0.639999 2.580000 -0.100000
v 0.639999 2.580000 0.100000
v -0.560001 2.500000 -0.080000
v -0.560001 2.500000 0.080000
v 0.559999 0.900000 0.080000
v 0.599999 2.540000 -0.100000
v 0.579999 2.520000 -0.080000
v -0.600001 2.540000 -0.100000
v -0.580001 2.520000 -0.080000
v -0.580001 2.520000 0.080000
v -0.600001 2.540000 0.100000
v 0.599999 2.540000 0.100000
v 0.579999 2.520000 0.080000
v -0.780000 0.850000 0.000000
v -0.780000 0.900000 -0.000000
v 0.780000 0.860000 0.087500
v -0.780000 0.860000 0.087500
v -0.730000 0.870000 0.260000
v -0.780000 0.870000 0.210000
v -0.780000 0.900000 0.210000
v -0.730000 0.900000 0.260000
v 0.780000 0.870000 0.210000
v 0.730000 0.870000 0.260000
v 0.730000 0.900000 0.260000
v 0.780000 0.900000 0.210000
v -0.730000 0.800000 -0.000000
v -0.730000 0.800000 0.087500
v 0.730000 0.800000 0.087500
v 0.780000 0.850000 0.000000
v 0.780000 0.900000 0.000000
v -0.780000 0.860000 -0.087500
v 0.780000 0.860000 -0.087500
v 0.730000 0.870000 -0.260000
v 0.780000 0.870000 -0.210000
v 0.780000 0.900000 -0.210000
v 0.730000 0.900000 -0.260000
v -0.780000 0.870000 -0.210000
v -0.730000 0.870000 -0.260000
v -0.730000 0.900000 -0.260000
v -0.780000 0.900000 -0.210000
v 0.730000 0.800000 0.000000
v 0.730000 0.800000 -0.087500
v -0.730000 0.800000 -0.087500
v 0.560001 0.900000 -0.020000
v -0.559998 0.900000 -0.020000
v 0.560001 2.500000 -0.020000
v -0.559998 2.500000 -0.020000
v 0.530001 2.470000 0.000000
v 0.530001 0.930000 0.000000
v -0.529999 0.930000 0.000000
v -0.529999 2.470000 0.000000
v 0.530001 1.420000 0.000000
v -0.529999 1.420000 0.000000
v -0.529999 1.480000 0.000000
v 0.530001 1.480000 0.000000
v -0.529999 1.990000 0.000000
v 0.530001 1.990000 0.000000
v 0.530001 1.930000 0.000000
v -0.529999 1.930000 0.000000
v -0.029999 0.930000 0.000000
v -0.029999 2.470000 0.000000
v -0.029999 1.420000 0.000000
v -0.029999 1.480000 0.000000
v -0.029999 1.990000 0.000000
v -0.029999 1.930000 0.000000
v 0.030001 2.470000 0.000000
v 0.030001 1.420000 0.000000
v 0.030001 1.480000 0.000000
v 0.030001 1.990000 0.000000
v 0.030001 1.930000 0.000000
v 0.030001 0.930000 0.000000
v -0.559998 1.960000 -0.020000
v 0.560001 1.960000 -0.020000
v 0.560001 1.450000 -0.020000
v -0.559998 1.450000 -0.020000
v 0.000000 0.900000 -0.020000
v 0.000000 2.500000 -0.020000
v 0.000000 1.960000 -0.020000
v 0.000000 1.450000 -0.020000
v -0.559998 0.900000 0.030000
v 0.560001 0.900000 0.030000
v -0.559998 2.500000 0.030000
v 0.560001 2.500000 0.030000
v -0.529999 2.470000 0.010000
v -0.529999 0.930000 0.010000
v 0.530001 0.930000 0.010000
v 0.530001 2.470000 0.010000
v -0.529999 1.420000 0.010000
v 0.530001 1.420000 0.010000
v 0.530001 1.480000 0.010000
v -0.529999 1.480000 0.010000
v 0.530001 1.990000 0.010000
v -0.529999 1.990000 0.010000
v -0.529999 1.930000 0.010000
v 0.530001 1.930000 0.010000
v 0.030001 0.930000 0.010000
v 0.030001 2.470000 0.010000
v 0.030001 1.420000 0.010000
v 0.030001 1.480000 0.010000
v 0.030001 1.990000 0.010000
v 0.030001 1.930000 0.010000
v -0.029999 2.470000 0.010000
v -0.029999 1.420000 0.010000
v -0.029999 1.480000 0.010000
v -0.029999 1.990000 0.010000
v -0.029999 1.930000 0.010000
v -0.029999 0.930000 0.010000
v 0.560001 1.960000 0.030000
v -0.559998 1.960000 0.030000
v -0.559998 1.450000 0.030000
v 0.560001 1.450000 0.030000
v 0.000000 0.900000 0.030000
v 0.000000 2.500000 0.030000
v 0.000000 1.960000 0.030000
v 0.000000 1.450000 0.030000
v 0.530001 2.469999 0.000000
v 0.530001 0.930000 0.000000
v -0.529999 0.930000 0.000000
v -0.529999 2.469999 0.000000
v 0.530001 1.420000 0.000000
v -0.529999 1.420000 0.000000
v -0.529999 1.480000 0.000000
v 0.530001 1.480000 0.000000
v -0.529999 1.990000 0.000000
v 0.530001 1.990000 0.000000
v 0.530001 1.930000 0.000000
v -0.529999 1.930000 0.000000
v -0.029999 0.930000 0.000000
v -0.029999 2.469999 0.000000
v -0.029999 1.420000 0.000000
v -0.029999 1.480000 0.000000
v -0.029999 1.990000 0.000000
v -0.029999 1.930000 0.000000
v 0.030001 2.469999 0.000000
v 0.030001 1.420000 0.000000
v 0.030001 1.480000 0.000000
v 0.030001 1.990000 0.000000
v 0.030001 1.930000 0.000000
v 0.030001 0.930000 0.000000
v -0.529999 2.469999 0.010000
v -0.529999 0.930000 0.010000
v 0.530001 0.930000 0.010000
v 0.530001 2.469999 0.010000
v -0.529999 1.420000 0.010000
v 0.530001 1.420000 0.010000
v 0.530001 1.480000 0.010000
v -0.529999 1.480000 0.010000
v 0.530001 1.990000 0.010000
v -0.529999 1.990000 0.010000
v -0.529999 1.930000 0.010000
v 0.530001 1.930000 0.010000
v 0.030001 0.930000 0.010000
v 0.030001 2.469999 0.010000
v 0.030001 1.420000 0.010000
v 0.030001 1.480000 0.010000
v 0.030001 1.990000 0.010000
v 0.030001 1.930000 0.010000
v -0.029999 2.469999 0.010000
v -0.029999 1.420000 0.010000
v -0.029999 1.480000 0.010000
v -0.029999 1.990000 0.010000
v -0.029999 1.930000 0.010000
v -0.029999 0.930000 0.010000
vn -0.0000 -0.0000 -1.0000
vn 0.7071 -0.0000 -0.7071
vn 0.7071 -0.0000 0.7071
vn -0.7071 -0.0000 0.7071
vn -0.7071 -0.0000 -0.7071
vn -0.0000 -0.0000 1.0000
vn -0.0000 1.0000 -0.0000
vn -1.0000 -0.0000 -0.0000
vn 1.0000 -0.0000 -0.0000
vn -0.0000 -1.0000 -0.0000
vn -0.0000 -0.7071 -0.7071
vn -0.0000 -0.7071 0.7071
vn 0.7394 -0.6722 0.0384
vn -0.7394 -0.6722 0.0384
vn -0.0000 -0.9967 0.0814
vn -0.7394 -0.6722 -0.0384
vn 0.7394 -0.6722 -0.0384
vn -0.0000 -0.9967 -0.0814
vn -0.5547 -0.0000 -0.8321
vn -0.0000 -0.5547 -0.8321
vn 0.5547 -0.0000 -0.8320
vn -0.0000 0.5547 -0.8321
vn 0.5547 -0.0000 -0.8321
vn -0.5547 -0.0000 -0.8320
vn -0.0000 0.5547 -0.8320
vn 0.5547 -0.0000 0.8320
vn -0.0000 0.5547 0.8320
vn -0.0000 -0.5547 0.8321
vn -0.0000 0.5547 0.8321
vn -0.5547 -0.0000 0.8320
vn 0.5547 -0.0000 0.8321
vn -0.5547 -0.0000 0.8321
vt 1.000229 0.006770
vt 1.000000 -0.000000
vt 1.000229 0.993230
vt 1.000000 1.000000
vt 1.031021 0.006770
vt 1.000000 -0.000000
vt 1.031021 0.993230
vt 1.000000 1.000000
vt 1.007560 0.006770
vt 1.007560 0.993230
vt 1.023689 0.006770
vt 1.023689 0.993230
vt 1.031021 0.006770
vt 0.000000 -0.000000
vt 0.000000 1.000000
vt 1.031021 0.993230
vt 1.000229 0.006770
vt 0.000000 -0.000000
vt 1.000229 0.993230
vt 0.000000 1.000000
vt 1.023689 0.006770
vt 1.023689 0.993230
vt 1.007560 0.006770
vt 1.007560 0.993230
vt 0.340007 0.299187
vt 0.340007 0.299010
vt 0.340007 0.861032
vt 0.659993 0.299010
vt 0.659993 0.299187
vt 0.659993 0.861032
vt 0.659993 0.299187
vt 0.659993 0.299010
vt 0.340007 0.299010
vt 0.340007 0.299187
vt 0.340007 0.861032
vt 0.659993 0.860993
vt 0.114535 0.433594
vt 0.857694 0.900391
vt 0.857695 0.900391
vt 0.114535 0.566406
vt 0.114211 0.445312
vt 0.894409 0.855470
vt 0.114211 0.554688
vt 0.894411 0.855469
vt 0.114536 0.433594
vt 0.892866 0.806641
vt 0.114536 0.566406
vt 0.892866 0.806641
vt 0.114211 0.445312
vt 0.859247 0.843750
vt 0.895524 0.839844
vt 0.879567 0.863278
vt 0.893353 0.833985
vt 0.880742 0.851561
vt 0.858204 0.873047
vt 0.856830 0.849609
vt 0.860419 0.855469
vt 0.858579 0.837891
vt 0.858204 0.873047
vt 0.856833 0.849609
vt 0.893352 0.833985
vt 0.892034 0.857423
vt 0.895526 0.839844
vt 0.893721 0.869144
vt 0.860419 0.855469
vt 0.858578 0.837891
vt 0.073276 0.433594
vt 1.234375 0.433594
vt 0.073377 1.234375
vt -0.227576 0.806641
vt 0.073276 0.566406
vt 1.234375 0.566406
vt 0.073377 1.234375
vt -0.227576 0.806641
vt 1.179688 0.445312
vt -0.202349 0.843750
vt 0.871875 0.445312
vt 0.872135 1.179688
vt 1.179688 0.554688
vt 0.872135 1.179688
vt 0.871875 0.554688
vt -0.202349 0.843750
vt 0.926724 0.433594
vt 1.234375 0.433594
vt 0.926656 1.234375
vt -0.262702 0.900391
vt 0.926724 0.566406
vt -0.262702 0.900391
vt 1.234375 0.566406
vt 0.926656 1.234375
vt 1.179688 0.445312
vt -0.166914 0.855470
vt 0.128125 0.445313
vt 0.127746 1.179688
vt 1.179688 0.554688
vt -0.166913 0.855468
vt 0.127745 1.179688
vt 0.128125 0.554688
vt 0.114211 0.554688
vt 0.859246 0.843750
vt 0.899379 1.207031
vt -0.235391 0.873047
vt -0.237727 0.849609
vt 0.899476 0.433594
vt -0.214150 0.855469
vt -0.222185 0.837891
vt 0.887519 1.191406
vt 0.887594 0.445312
vt 0.100587 1.207031
vt -0.200304 0.833984
vt -0.210511 0.851562
vt 0.100444 0.433594
vt -0.178812 0.839844
vt -0.198663 0.863281
vt 0.112596 1.191406
vt 0.112488 0.445312
vt -0.178811 0.839843
vt 0.112596 1.191406
vt 0.112488 0.554688
vt -0.187186 0.869141
vt 0.100587 1.207031
vt 0.100444 0.566406
vt -0.200304 0.833984
vt -0.202626 0.857422
vt -0.235390 0.873047
vt 0.899379 1.207031
vt 0.899476 0.566406
vt -0.237727 0.849609
vt 0.887519 1.191406
vt 0.887594 0.554687
vt -0.214151 0.855469
vt -0.222185 0.837891
vt -0.019179 0.500000
vt 0.498958 0.391927
vt 0.299344 0.404350
vt -0.019097 0.607031
vt 0.536032 0.393144
vt 0.534115 0.391927
vt 1.019097 0.607031
vt 0.507407 0.452914
vt 0.507509 0.452691
vt 0.307492 0.465555
vt 1.019459 0.498511
vt 1.019097 0.546705
vt 0.507407 0.452914
vt 0.507509 0.452691
vt -0.019421 0.498511
vt 0.307496 0.465554
vt -0.019097 0.546705
vt 0.036478 0.488281
vt 0.511719 0.744531
vt 0.013127 0.433594
vt 0.511719 0.535156
vt 0.511719 0.713282
vt -0.019179 0.464844
vt 0.535156 0.535156
vt 0.535156 0.713282
vt -0.019097 0.464844
vt 0.013127 0.433594
vt 0.036478 0.511719
vt 0.535156 0.744531
vt 0.511719 0.535156
vt 0.511719 0.713282
vt 1.019097 0.464844
vt 1.019228 0.464844
vt 1.010397 0.488281
vt 0.511719 0.744531
vt 0.986822 0.433594
vt 0.986822 0.433594
vt 1.010397 0.511719
vt 0.535156 0.744531
vt 1.019228 0.464844
vt 0.535156 0.535156
vt 0.535156 0.713281
vt 1.019097 0.464844
vt 0.013127 0.464844
vt 0.013041 0.609020
vt 0.262672 0.404700
vt 0.986959 0.609020
vt 0.013041 0.546875
vt 0.013108 0.464844
vt 0.266971 0.465751
vt 0.266968 0.465752
vt 0.986959 0.546875
vt 0.986852 0.464844
vt 1.019228 0.500000
vt 0.498958 0.391927
vt 0.299345 0.404350
vt 1.019097 0.607031
vt 0.536032 0.393144
vt 0.534114 0.391927
vt -0.019097 0.607031
vt 0.507407 0.452914
vt 0.507509 0.452691
vt 0.307496 0.465554
vt 1.019421 0.498511
vt 1.019097 0.546705
vt 0.507407 0.452914
vt 0.507509 0.452691
vt -0.019459 0.498511
vt 0.307492 0.465555
vt -0.019097 0.546705
vt 0.036478 0.488281
vt 0.511719 0.744531
vt 0.013178 0.433594
vt 0.511719 0.535156
vt 0.511719 0.713281
vt -0.019097 0.464844
vt -0.019228 0.464844
vt -0.019228 0.464844
vt 0.535156 0.535156
vt 0.535156 0.713281
vt -0.019097 0.464844
vt 0.013178 0.433594
vt 0.036478 0.511719
vt 0.535156 0.744531
vt 0.511719 0.535156
vt 0.511719 0.713281
vt 1.019179 0.464844
vt 1.010397 0.488281
vt 0.511719 0.744531
vt 0.986873 0.433594
vt 0.986873 0.433594
vt 1.010397 0.511719
vt 0.535156 0.744531
vt 0.535156 0.535156
vt 0.535156 0.713281
vt 1.019097 0.464844
vt 0.986822 0.464844
vt 0.986959 0.609020
vt 0.013041 0.609020
vt 0.262675 0.404700
vt 0.013041 0.546875
vt 0.013148 0.464844
vt 0.266968 0.465752
vt 0.266971 0.465751
vt 0.986959 0.546875
vt 0.986892 0.464844
vt 0.943213 0.777177
vt 0.900331 -0.066367
vt 0.943213 -0.023486
vt 0.099668 -0.066367
vt -0.193213 0.777177
vt 0.900331 1.070058
vt -0.193213 -0.023486
vt 0.099668 1.070058
vt 0.876334 1.048699
vt -0.169095 0.753697
vt 0.876851 1.052971
vt 0.876851 -0.042888
vt 0.919733 0.753697
vt 0.919733 -0.000006
vt 0.123148 -0.042888
vt 0.123666 1.048699
vt -0.169095 -0.000006
vt 0.123148 1.052971
vt 0.570504 0.753697
vt 0.876851 0.306342
vt 0.123148 0.306342
vt 0.570503 -0.000006
vt 0.123148 0.342353
vt 0.534492 -0.000006
vt 0.876851 0.342353
vt 0.534492 0.753697
vt 0.123148 0.708466
vt 0.168380 -0.000006
vt 0.876851 0.708466
vt 0.168380 0.753697
vt 0.876444 0.666408
vt 0.876851 0.670180
vt 0.212282 0.753697
vt 0.123532 0.666254
vt 0.212282 -0.000006
vt 0.123148 0.670180
vt 0.919734 0.358633
vt 0.919733 0.359296
vt 0.481295 -0.042888
vt 0.481972 1.048699
vt -0.169093 0.358622
vt -0.169095 0.359368
vt 0.481295 1.052971
vt 0.570505 0.358621
vt 0.481295 0.306342
vt 0.570504 0.359370
vt 0.534492 0.358621
vt 0.481295 0.342353
vt 0.534492 0.359296
vt 0.168381 0.358633
vt 0.168380 0.359296
vt 0.481295 0.708466
vt 0.481895 0.666024
vt 0.212283 0.358633
vt 0.212282 0.359369
vt 0.481295 0.670180
vt 0.518030 1.048699
vt -0.169093 0.396032
vt -0.169095 0.396778
vt 0.518707 1.052971
vt 0.570505 0.396032
vt 0.570504 0.396779
vt 0.518707 0.306342
vt 0.534492 0.396032
vt 0.518707 0.342353
vt 0.534492 0.396706
vt 0.168381 0.396022
vt 0.518707 0.708466
vt 0.168380 0.396706
vt 0.518174 0.666408
vt 0.212283 0.396022
vt 0.212282 0.396778
vt 0.518707 0.670180
vt 0.919734 0.396022
vt 0.518707 -0.042888
vt 0.919733 0.396706
vt 0.100146 0.687795
vt 0.190987 -0.023486
vt 0.099121 0.688577
vt 0.900331 0.689323
vt 0.187523 0.777177
vt 0.900331 0.324348
vt 0.552498 0.777177
vt 0.552498 -0.023486
vt 0.099668 0.324348
vt 0.500000 -0.066367
vt 0.943213 0.377325
vt 0.500000 1.070058
vt -0.193212 0.377315
vt 0.187525 0.377325
vt 0.499999 0.689327
vt 0.552499 0.377315
vt 0.499999 0.324348
vt 0.099668 -0.066367
vt 0.943213 -0.023486
vt 0.900331 -0.066367
vt 0.943213 0.777177
vt -0.193213 -0.023486
vt 0.099668 1.070058
vt 0.900331 1.070058
vt -0.193213 0.777177
vt 0.123666 1.048699
vt -0.169095 -0.000006
vt 0.123148 1.052971
vt 0.919733 -0.000006
vt 0.123148 -0.042888
vt 0.876851 -0.042888
vt 0.919733 0.753697
vt 0.876334 1.048699
vt -0.169095 0.753697
vt 0.876851 1.052971
vt 0.123148 0.306342
vt 0.570503 -0.000006
vt 0.570504 0.753697
vt 0.876851 0.306342
vt 0.876851 0.342353
vt 0.534492 0.753697
vt 0.123148 0.342353
vt 0.534492 -0.000006
vt 0.876851 0.708466
vt 0.168380 0.753697
vt 0.123148 0.708466
vt 0.168380 -0.000006
vt 0.123556 0.666408
vt 0.212282 -0.000006
vt 0.123148 0.670180
vt 0.876444 0.666408
vt 0.876851 0.670180
vt 0.212282 0.753697
vt 0.919734 0.395060
vt 0.518706 -0.042888
vt 0.919733 0.394397
vt 0.518029 1.048699
vt -0.169093 0.395071
vt -0.169095 0.394324
vt 0.518706 1.052971
vt 0.570505 0.395072
vt 0.570504 0.394323
vt 0.518706 0.306342
vt 0.534492 0.395071
vt 0.518706 0.342353
vt 0.534492 0.394397
vt 0.168381 0.395060
vt 0.518706 0.708466
vt 0.168380 0.394397
vt 0.212283 0.395060
vt 0.518173 0.666408
vt 0.212282 0.394324
vt 0.518706 0.670180
vt 0.481969 1.048699
vt -0.169093 0.357660
vt -0.169095 0.356913
vt 0.481293 1.052971
vt 0.570505 0.357659
vt 0.481293 0.306342
vt 0.570504 0.356912
vt 0.534492 0.357660
vt 0.481293 0.342353
vt 0.534492 0.356986
vt 0.168381 0.357670
vt 0.168380 0.356986
vt 0.481293 0.708466
vt 0.481826 0.666408
vt 0.212283 0.357669
vt 0.212282 0.356913
vt 0.481293 0.670180
vt 0.919734 0.357669
vt 0.919733 0.356986
vt 0.481293 -0.042888
vt 0.900331 0.689323
vt 0.187523 0.777177
vt 0.099673 0.689265
vt 0.099676 0.689390
vt 0.187521 -0.023486
vt 0.099668 0.324348
vt 0.552498 -0.023486
vt 0.900331 0.324348
vt 0.552498 0.777177
vt 0.500001 -0.066367
vt 0.943213 0.376366
vt 0.500001 1.070058
vt -0.193212 0.376376
vt 0.187525 0.376366
vt 0.500001 0.689323
vt 0.552499 0.376376
vt 0.500001 0.324348
vt 0.940860 0.962121
vt 0.940860 0.045455
vt 0.059140 0.045455
vt 0.059140 0.962121
vt 0.940860 0.325758
vt 0.059140 0.325758
vt 0.059140 0.363636
vt 0.940860 0.363636
vt 0.059140 0.681818
vt 0.940860 0.681818
vt 0.940860 0.647727
vt 0.059140 0.647727
vt 0.473118 0.045455
vt 0.473118 0.962121
vt 0.473118 0.325758
vt 0.473118 0.363636
vt 0.473118 0.681818
vt 0.473118 0.647727
vt 0.521505 0.962121
vt 0.521505 0.325758
vt 0.521505 0.363636
vt 0.521505 0.681818
vt 0.521505 0.647727
vt 0.521505 0.045455
vt 0.059140 0.962121
vt 0.059140 0.045455
vt 0.940860 0.045455
vt 0.940860 0.962121
vt 0.059140 0.325758
vt 0.940860 0.325758
vt 0.940860 0.363636
vt 0.059140 0.363636
vt 0.940860 0.681818
vt 0.059140 0.681818
vt 0.059140 0.647727
vt 0.940860 0.647727
vt 0.521505 0.045455
vt 0.521505 0.962121
vt 0.521505 0.325758
vt 0.521505 0.363636
vt 0.521505 0.681818
vt 0.521505 0.647727
vt 0.473118 0.962121
vt 0.473118 0.325758
vt 0.473118 0.363636
vt 0.473118 0.681818
vt 0.473118 0.647727
vt 0.473118 0.045455
s 0
usemtl wall_mp_1
f 2/3/3 1/1/3 5/9/3 6/10/3
f 11/17/4 12/19/4 16/24/4 15/23/4
f 21/31/6 1/2/6 2/4/6 24/36/6
f 24/36/6 2/4/6 12/20/6 23/35/6
f 22/33/6 11/18/6 1/2/6 21/32/6
f 23/35/6 12/20/6 11/18/6 22/34/6
usemtl wall_mp_1
f 18/27/1 10/15/1 4/8/1 20/30/1
f 17/25/1 9/14/1 10/15/1 18/27/1
f 3/5/2 4/7/2 8/12/2 7/11/2
f 10/16/5 9/13/5 13/21/5 14/22/5
f 3/6/1 9/14/1 17/26/1 19/28/1
f 4/8/1 3/6/1 19/29/1 20/30/1
usemtl door_frame_wood_1
f 45/87/7 44/83/7 40/67/7 41/71/7
f 40/68/8 29/45/8 30/47/8 41/72/8
f 55/125/6 36/59/6 26/39/6 45/88/6
f 26/40/9 25/37/9 44/84/9 45/89/9
f 46/91/9 47/95/9 28/43/9 27/41/9
f 38/63/6 28/44/6 47/96/6 53/117/6
f 49/101/1 51/109/1 40/69/1 44/85/1
f 43/79/8 42/75/8 31/49/8 48/99/8
f 56/129/6 53/118/6 47/97/6 43/80/6
f 32/51/1 52/113/1 46/92/1 27/42/1
f 35/57/1 31/50/1 42/76/1 50/105/1
f 46/93/10 42/77/10 43/81/10 47/98/10
f 25/38/1 34/55/1 49/102/1 44/86/1
f 34/56/5 35/58/5 50/106/5 49/103/5
f 29/46/1 40/70/1 51/110/1 33/53/1
f 33/54/2 51/111/2 52/114/2 32/52/2
f 42/78/1 46/94/1 52/115/1 50/107/1
f 50/108/11 52/116/11 51/112/11 49/104/11
f 45/90/6 41/73/6 54/121/6 55/126/6
f 55/127/12 54/122/12 53/119/12 56/130/12
f 30/48/6 37/61/6 54/123/6 41/74/6
f 37/62/3 38/64/3 53/120/3 54/124/3
f 43/82/6 48/100/6 39/65/6 56/131/6
f 56/132/4 39/66/4 36/60/4 55/128/4
f 68/172/7 63/158/7 64/159/7 67/169/7
f 62/153/8 63/156/8 58/137/8 60/145/8
f 59/140/9 73/190/9 68/173/9 65/162/9
f 72/186/1 84/229/1 69/176/1 57/133/1
f 67/170/6 64/160/6 61/150/6 66/166/6
f 61/151/4 64/161/4 63/157/4 62/154/4
f 67/171/3 66/167/3 65/163/3 68/174/3
f 72/187/9 73/191/9 59/141/9
f 59/142/13 71/183/13 84/232/13 72/188/13
f 60/146/8 58/138/8 57/134/8
f 71/184/10 70/180/10 69/177/10 84/230/10
f 60/147/6 70/181/6 71/185/6 59/143/6
f 70/182/14 60/148/14 57/135/14 69/178/14
f 65/164/15 62/155/15 60/149/15 59/144/15
f 66/168/10 61/152/10 62/155/10 65/165/10
f 73/189/7 58/136/7 63/158/7 68/175/7
f 83/228/7 78/210/7 79/214/7 82/223/7
f 77/206/9 78/211/9 73/190/9 75/198/9
f 74/193/8 58/137/8 83/226/8 80/217/8
f 82/224/1 79/215/1 76/203/1 81/220/1
f 76/204/2 79/216/2 78/212/2 77/207/2
f 82/225/5 81/221/5 80/218/5 83/227/5
f 57/134/8 58/138/8 74/194/8
f 74/195/16 86/236/16 69/178/16 57/135/16
f 75/199/9 73/191/9 72/187/9
f 86/237/10 85/233/10 84/231/10 69/179/10
f 75/200/1 85/234/1 86/238/1 74/196/1
f 85/235/17 75/201/17 72/188/17 84/232/17
f 80/219/18 77/208/18 75/202/18 74/197/18
f 81/222/10 76/205/10 77/209/10 80/219/10
f 58/139/7 73/192/7 78/213/7 83/228/7
f 95/257/19 117/321/19 87/239/19 92/251/19
f 100/268/19 91/248/19 89/243/19 116/319/19
f 102/272/20 115/315/20 121/329/20 108/291/20
f 109/295/20 120/326/20 89/244/20 91/247/20
f 118/322/21 96/260/21 93/252/21 88/241/21
f 117/320/22 122/331/22 111/303/22 98/263/22
f 94/255/21 99/266/21 115/316/21 90/245/21
f 112/305/23 121/328/23 120/327/23 109/296/23
f 120/326/20 104/278/20 94/254/20 90/246/20
f 119/324/22 114/313/22 92/250/22 87/240/22
f 122/330/24 106/285/24 108/292/24 121/328/24
f 103/277/22 119/324/22 88/242/22 93/253/22
f 122/331/20 105/283/20 96/259/20 118/323/20
f 120/327/24 121/328/24 107/288/24 104/279/24
f 97/262/21 118/322/21 115/316/21 102/273/21
f 113/308/20 121/329/20 116/318/20 101/269/20
f 122/330/23 110/299/23 114/312/23 119/325/23
f 110/301/20 122/331/20 117/320/20 95/258/20
f 111/302/23 122/330/23 121/328/23 113/309/23
f 105/282/24 122/330/24 119/325/24 103/275/24
f 116/318/25 121/329/25 112/306/25 100/267/25
f 106/286/22 122/331/22 118/323/22 97/261/22
f 125/336/26 152/412/26 136/361/26 127/341/26
f 157/422/27 151/408/27 135/358/27 143/382/27
f 145/388/28 156/419/28 125/337/28 127/340/28
f 153/413/29 158/424/29 147/396/29 134/356/29
f 148/398/30 157/421/30 156/420/30 145/389/30
f 156/419/28 140/371/28 130/347/28 126/338/28
f 155/417/29 150/407/29 128/344/29 123/332/29
f 158/423/31 142/378/31 144/384/31 157/421/31
f 139/369/29 155/417/29 124/334/29 129/345/29
f 158/424/28 141/377/28 132/353/28 154/415/28
f 157/422/28 144/385/28 138/365/28 151/408/28
f 156/420/31 157/421/31 143/381/31 140/372/31
f 149/401/28 157/422/28 152/410/28 137/362/28
f 158/423/30 146/392/30 150/405/30 155/418/30
f 146/393/28 158/424/28 153/413/28 131/350/28
f 147/395/30 158/423/30 157/421/30 149/402/30
f 141/375/31 158/423/31 155/418/31 139/368/31
f 152/411/27 157/422/27 148/400/27 136/360/27
f 142/379/29 158/424/29 154/415/29 133/354/29
f 132/352/32 129/346/32 124/335/32 154/416/32
f 151/409/32 138/367/32 133/355/32 154/416/32
f 131/351/26 153/414/26 123/333/26 128/343/26
f 135/359/32 151/409/32 126/339/32 130/348/32
f 117/321/19 98/264/19 101/271/19 116/319/19
f 115/317/25 99/265/25 107/290/25 121/329/25
f 134/357/26 137/363/26 152/412/26 153/414/26
f 111/303/7 142/379/7 133/354/7 98/263/7
f 113/310/9 144/386/9 142/380/9 111/304/9
f 101/270/10 138/366/10 144/387/10 113/311/10
f 98/264/8 133/355/8 138/367/8 101/271/8
f 97/261/7 134/356/7 147/396/7 106/286/7
f 97/262/9 102/273/9 137/363/9 134/357/9
f 108/293/8 106/287/8 147/397/8 149/403/8
f 102/274/10 108/294/10 149/404/10 137/364/10
f 92/250/7 114/313/7 139/369/7 129/345/7
f 95/257/8 92/251/8 129/346/8 132/352/8
f 110/300/9 141/376/9 139/370/9 114/314/9
f 110/301/10 95/258/10 132/353/10 141/377/10
f 96/259/10 105/283/10 146/393/10 131/350/10
f 105/284/8 103/276/8 150/406/8 146/394/8
f 93/252/9 96/260/9 131/351/9 128/343/9
f 103/277/7 93/253/7 128/344/7 150/407/7
f 112/306/7 143/382/7 135/358/7 100/267/7
f 109/297/9 140/373/9 143/383/9 112/307/9
f 91/248/8 100/268/8 135/359/8 130/348/8
f 104/280/8 107/289/8 148/399/8 145/390/8
f 99/265/7 136/360/7 148/400/7 107/290/7
f 99/266/9 94/255/9 127/341/9 136/361/9
f 94/256/10 104/281/10 145/391/10 127/342/10
f 109/298/10 91/249/10 130/349/10 140/374/10
usemtl window_2
f 175/441/1 167/433/1 162/428/1 172/438/1
f 171/437/1 161/427/1 164/430/1 173/439/1
f 174/440/1 165/431/1 170/436/1 176/442/1
f 168/434/1 180/446/1 177/443/1 159/425/1
f 160/426/1 182/448/1 178/444/1 163/429/1
f 166/432/1 179/445/1 181/447/1 169/435/1
f 199/465/6 191/457/6 186/452/6 196/462/6
f 195/461/6 185/451/6 188/454/6 197/463/6
f 198/464/6 189/455/6 194/460/6 200/466/6
f 192/458/6 204/470/6 201/467/6 183/449/6
f 184/450/6 206/472/6 202/468/6 187/453/6
f 190/456/6 203/469/6 205/471/6 193/459/6
