# Blender 3.4.0
# www.blender.org
mtllib window_1_single_no_glass.mtl
o window_1_single_no_glass
v 2.000000 0.000000 0.060000
v 2.000000 3.000000 0.060000
v 2.000000 0.000000 -0.060000
v 2.000000 3.000000 -0.060000
v 2.030000 0.000000 0.030000
v 2.030000 3.000000 0.030000
v 2.030000 0.000000 -0.030000
v 2.030000 3.000000 -0.030000
v -2.000000 0.000000 -0.060000
v -2.000000 3.000000 -0.060000
v -2.000000 0.000000 0.060001
v -2.000000 3.000000 0.060000
v -2.030000 0.000000 -0.030000
v -2.030000 3.000000 -0.030000
v -2.030000 0.000000 0.030001
v -2.030000 3.000000 0.030000
v -0.640000 0.820000 -0.060000
v -0.640000 2.580000 -0.060000
v 0.640000 0.820000 -0.060000
v 0.640000 2.580000 -0.060000
v 0.640000 0.820000 0.060000
v -0.640000 0.820000 0.060000
v -0.640000 2.580000 0.060000
v 0.640000 2.580000 0.060000
v 0.640000 0.820001 -0.100000
v 0.639998 0.820001 0.100000
v -0.560000 0.900001 -0.080000
v -0.560000 0.900001 0.080000
v -0.640000 0.820001 -0.100000
v -0.640000 0.820001 0.100000
v 0.560000 0.900001 -0.080000
v -0.580000 0.880001 -0.080000
v -0.600000 0.860001 -0.100000
v 0.600000 0.860001 -0.100000
v 0.580000 0.880001 -0.080000
v 0.600000 0.860000 0.100000
v -0.600000 0.860001 0.100000
v -0.580000 0.880001 0.080000
v 0.580000 0.880001 0.080000
v -0.640000 2.580000 -0.100000
v -0.640000 2.580000 0.100000
v 0.559999 2.500000 -0.080000
v 0.559999 2.500000 0.080000
v 0.639999 2.580000 -0.100000
v 0.639999 2.580000 0.100000
v -0.560001 2.500000 -0.080000
v -0.560001 2.500000 0.080000
v 0.559999 0.900000 0.080000
v 0.599999 2.540000 -0.100000
v 0.579999 2.520000 -0.080000
v -0.600001 2.540000 -0.100000
v -0.580001 2.520000 -0.080000
v -0.580001 2.520000 0.080000
v -0.600001 2.540000 0.100000
v 0.599999 2.540000 0.100000
v 0.579999 2.520000 0.080000
v 0.560001 0.900000 -0.020000
v -0.559998 0.900000 -0.020000
v 0.560001 2.500000 -0.020000
v -0.559998 2.500000 -0.020000
v 0.530001 2.470000 0.000000
v 0.530001 0.930000 0.000000
v -0.529999 0.930000 0.000000
v -0.529999 2.470000 0.000000
v 0.530001 1.420000 0.000000
v -0.529999 1.420000 0.000000
v -0.529999 1.480000 0.000000
v 0.530001 1.480000 0.000000
v -0.529999 1.990000 0.000000
v 0.530001 1.990000 0.000000
v 0.530001 1.930000 0.000000
v -0.529999 1.930000 0.000000
v -0.029999 0.930000 0.000000
v -0.029999 2.470000 0.000000
v -0.029999 1.420000 0.000000
v -0.029999 1.480000 0.000000
v -0.029999 1.990000 0.000000
v -0.029999 1.930000 0.000000
v 0.030001 2.470000 0.000000
v 0.030001 1.420000 0.000000
v 0.030001 1.480000 0.000000
v 0.030001 1.990000 0.000000
v 0.030001 1.930000 0.000000
v 0.030001 0.930000 0.000000
v -0.559998 1.960000 -0.020000
v 0.560001 1.960000 -0.020000
v 0.560001 1.450000 -0.020000
v -0.559998 1.450000 -0.020000
v 0.000000 0.900000 -0.020000
v 0.000000 2.500000 -0.020000
v 0.000000 1.960000 -0.020000
v 0.000000 1.450000 -0.020000
v -0.559998 0.900000 0.030000
v 0.560001 0.900000 0.030000
v -0.559998 2.500000 0.030000
v 0.560001 2.500000 0.030000
v -0.529999 2.470000 0.010000
v -0.529999 0.930000 0.010000
v 0.530001 0.930000 0.010000
v 0.530001 2.470000 0.010000
v -0.529999 1.420000 0.010000
v 0.530001 1.420000 0.010000
v 0.530001 1.480000 0.010000
v -0.529999 1.480000 0.010000
v 0.530001 1.990000 0.010000
v -0.529999 1.990000 0.010000
v -0.529999 1.930000 0.010000
v 0.530001 1.930000 0.010000
v 0.030001 0.930000 0.010000
v 0.030001 2.470000 0.010000
v 0.030001 1.420000 0.010000
v 0.030001 1.480000 0.010000
v 0.030001 1.990000 0.010000
v 0.030001 1.930000 0.010000
v -0.029999 2.470000 0.010000
v -0.029999 1.420000 0.010000
v -0.029999 1.480000 0.010000
v -0.029999 1.990000 0.010000
v -0.029999 1.930000 0.010000
v -0.029999 0.930000 0.010000
v 0.560001 1.960000 0.030000
v -0.559998 1.960000 0.030000
v -0.559998 1.450000 0.030000
v 0.560001 1.450000 0.030000
v 0.000000 0.900000 0.030000
v 0.000000 2.500000 0.030000
v 0.000000 1.960000 0.030000
v 0.000000 1.450000 0.030000
vn -0.0000 -0.0000 -1.0000
vn 0.7071 -0.0000 -0.7071
vn 0.7071 -0.0000 0.7071
vn -0.7071 -0.0000 0.7071
vn -0.7071 -0.0000 -0.7071
vn -0.0000 -0.0000 1.0000
vn -0.0000 -1.0000 -0.0000
vn -0.0000 1.0000 -0.0000
vn -0.0000 0.7071 -0.7071
vn -0.0000 0.7071 0.7071
vn -1.0000 -0.0000 -0.0000
vn 1.0000 -0.0000 -0.0000
vn -0.0000 -0.7071 -0.7071
vn -0.0000 -0.7071 0.7071
vn -0.5547 -0.0000 -0.8321
vn -0.0000 -0.5547 -0.8321
vn 0.5547 -0.0000 -0.8320
vn -0.0000 0.5547 -0.8321
vn 0.5547 -0.0000 -0.8321
vn -0.5547 -0.0000 -0.8320
vn -0.0000 0.5547 -0.8320
vn 0.5547 -0.0000 0.8320
vn -0.0000 0.5547 0.8320
vn -0.0000 -0.5547 0.8321
vn -0.0000 0.5547 0.8321
vn -0.5547 -0.0000 0.8320
vn 0.5547 -0.0000 0.8321
vn -0.5547 -0.0000 0.8321
vt 1.000229 0.006770
vt 1.000000 -0.000000
vt 1.000229 0.993230
vt 1.000000 1.000000
vt 1.031021 0.006770
vt 1.000000 -0.000000
vt 1.031021 0.993230
vt 1.000000 1.000000
vt 1.007560 0.006770
vt 1.007560 0.993230
vt 1.023689 0.006770
vt 1.023689 0.993230
vt 1.031021 0.006770
vt 0.000000 -0.000000
vt 0.000000 1.000000
vt 1.031021 0.993230
vt 1.000229 0.006770
vt 0.000000 -0.000000
vt 1.000229 0.993230
vt 0.000000 1.000000
vt 1.023689 0.006770
vt 1.023689 0.993230
vt 1.007560 0.006770
vt 1.007560 0.993230
vt 0.340007 0.272431
vt 0.340007 0.861032
vt 0.659993 0.272433
vt 0.659993 0.861032
vt 0.659993 0.272431
vt 0.340007 0.272433
vt 0.340007 0.861032
vt 0.659993 0.860993
vt 0.073276 0.433594
vt 0.073377 1.234375
vt 0.061210 0.433594
vt 0.911046 0.900391
vt 0.073276 0.566406
vt 0.073377 1.234375
vt 0.911046 0.900391
vt 0.061210 0.566406
vt 0.871875 0.445312
vt 0.872135 1.179688
vt 0.114211 0.445312
vt 0.894409 0.855470
vt 0.872135 1.179688
vt 0.871875 0.554688
vt 0.114211 0.554688
vt 0.894411 0.855469
vt 0.926724 0.433594
vt 0.926656 1.234375
vt 0.061210 0.433594
vt 0.946221 0.806641
vt 0.926724 0.566406
vt 0.926656 1.234375
vt 0.061210 0.566406
vt 0.946220 0.806641
vt 0.128125 0.445313
vt 0.127746 1.179688
vt 0.114211 0.445312
vt 0.859247 0.843750
vt 0.887519 1.191406
vt 0.887594 0.445312
vt 0.908788 0.839844
vt 0.892878 0.863278
vt 0.899379 1.207031
vt 0.899476 0.433594
vt 0.920027 0.833985
vt 0.907358 0.851561
vt 0.100587 1.207031
vt 0.100444 0.433594
vt 0.884876 0.873047
vt 0.883526 0.849609
vt 0.112596 1.191406
vt 0.112488 0.445312
vt 0.873685 0.855469
vt 0.871921 0.837891
vt 0.100587 1.207031
vt 0.100444 0.566406
vt 0.884876 0.873047
vt 0.883529 0.849609
vt 0.899379 1.207031
vt 0.899476 0.566406
vt 0.920027 0.833985
vt 0.918733 0.857423
vt 0.887519 1.191406
vt 0.887594 0.554687
vt 0.908789 0.839844
vt 0.907065 0.869144
vt 0.112596 1.191406
vt 0.112488 0.554688
vt 0.873685 0.855469
vt 0.871920 0.837891
vt 0.073276 0.433594
vt 1.234375 0.433594
vt 0.073377 1.234375
vt -0.227576 0.806641
vt 0.073276 0.566406
vt 1.234375 0.566406
vt 0.073377 1.234375
vt -0.227576 0.806641
vt 1.179688 0.445312
vt -0.202349 0.843750
vt 0.871875 0.445312
vt 0.872135 1.179688
vt 1.179688 0.554688
vt 0.872135 1.179688
vt 0.871875 0.554688
vt -0.202349 0.843750
vt 0.926724 0.433594
vt 1.234375 0.433594
vt 0.926656 1.234375
vt -0.262702 0.900391
vt 0.926724 0.566406
vt -0.262702 0.900391
vt 1.234375 0.566406
vt 0.926656 1.234375
vt 1.179688 0.445312
vt -0.166914 0.855470
vt 0.128125 0.445313
vt 0.127746 1.179688
vt 1.179688 0.554688
vt -0.166913 0.855468
vt 0.127745 1.179688
vt 0.128125 0.554688
vt 0.127745 1.179688
vt 0.128125 0.554688
vt 0.114211 0.554688
vt 0.859246 0.843750
vt 0.899379 1.207031
vt -0.235391 0.873047
vt -0.237727 0.849609
vt 0.899476 0.433594
vt -0.214150 0.855469
vt -0.222185 0.837891
vt 0.887519 1.191406
vt 0.887594 0.445312
vt 0.100587 1.207031
vt -0.200304 0.833984
vt -0.210511 0.851562
vt 0.100444 0.433594
vt -0.178812 0.839844
vt -0.198663 0.863281
vt 0.112596 1.191406
vt 0.112488 0.445312
vt -0.178811 0.839843
vt 0.112596 1.191406
vt 0.112488 0.554688
vt -0.187186 0.869141
vt 0.100587 1.207031
vt 0.100444 0.566406
vt -0.200304 0.833984
vt -0.202626 0.857422
vt -0.235390 0.873047
vt 0.899379 1.207031
vt 0.899476 0.566406
vt -0.237727 0.849609
vt 0.887519 1.191406
vt 0.887594 0.554687
vt -0.214151 0.855469
vt -0.222185 0.837891
vt 0.943213 0.777177
vt 0.900331 -0.066367
vt 0.943213 -0.023486
vt 0.099668 -0.066367
vt -0.193213 0.777177
vt 0.900331 1.070058
vt -0.193213 -0.023486
vt 0.099668 1.070058
vt 0.876334 1.048699
vt -0.169095 0.753697
vt 0.876851 1.052971
vt 0.876851 -0.042888
vt 0.919733 0.753697
vt 0.919733 -0.000006
vt 0.123148 -0.042888
vt 0.123666 1.048699
vt -0.169095 -0.000006
vt 0.123148 1.052971
vt 0.570504 0.753697
vt 0.876851 0.306342
vt 0.123148 0.306342
vt 0.570503 -0.000006
vt 0.123148 0.342353
vt 0.534492 -0.000006
vt 0.876851 0.342353
vt 0.534492 0.753697
vt 0.123148 0.708466
vt 0.168380 -0.000006
vt 0.876851 0.708466
vt 0.168380 0.753697
vt 0.876444 0.666408
vt 0.876851 0.670180
vt 0.212282 0.753697
vt 0.123532 0.666254
vt 0.212282 -0.000006
vt 0.123148 0.670180
vt 0.919734 0.358633
vt 0.919733 0.359296
vt 0.481295 -0.042888
vt 0.481972 1.048699
vt -0.169093 0.358622
vt -0.169095 0.359368
vt 0.481295 1.052971
vt 0.570505 0.358621
vt 0.481295 0.306342
vt 0.570504 0.359370
vt 0.534492 0.358621
vt 0.481295 0.342353
vt 0.534492 0.359296
vt 0.168381 0.358633
vt 0.168380 0.359296
vt 0.481295 0.708466
vt 0.481895 0.666024
vt 0.212283 0.358633
vt 0.212282 0.359369
vt 0.481295 0.670180
vt 0.518030 1.048699
vt -0.169093 0.396032
vt -0.169095 0.396778
vt 0.518707 1.052971
vt 0.570505 0.396032
vt 0.570504 0.396779
vt 0.518707 0.306342
vt 0.534492 0.396032
vt 0.518707 0.342353
vt 0.534492 0.396706
vt 0.168381 0.396022
vt 0.518707 0.708466
vt 0.168380 0.396706
vt 0.518174 0.666408
vt 0.212283 0.396022
vt 0.212282 0.396778
vt 0.518707 0.670180
vt 0.919734 0.396022
vt 0.518707 -0.042888
vt 0.919733 0.396706
vt 0.100146 0.687795
vt 0.190987 -0.023486
vt 0.099121 0.688577
vt 0.900331 0.689323
vt 0.187523 0.777177
vt 0.900331 0.324348
vt 0.552498 0.777177
vt 0.552498 -0.023486
vt 0.099668 0.324348
vt 0.500000 -0.066367
vt 0.943213 0.377325
vt 0.500000 1.070058
vt -0.193212 0.377315
vt 0.187525 0.377325
vt 0.499999 0.689327
vt 0.552499 0.377315
vt 0.499999 0.324348
vt 0.099668 -0.066367
vt 0.943213 -0.023486
vt 0.900331 -0.066367
vt 0.943213 0.777177
vt -0.193213 -0.023486
vt 0.099668 1.070058
vt 0.900331 1.070058
vt -0.193213 0.777177
vt 0.123666 1.048699
vt -0.169095 -0.000006
vt 0.123148 1.052971
vt 0.919733 -0.000006
vt 0.123148 -0.042888
vt 0.876851 -0.042888
vt 0.919733 0.753697
vt 0.876334 1.048699
vt -0.169095 0.753697
vt 0.876851 1.052971
vt 0.123148 0.306342
vt 0.570503 -0.000006
vt 0.570504 0.753697
vt 0.876851 0.306342
vt 0.876851 0.342353
vt 0.534492 0.753697
vt 0.123148 0.342353
vt 0.534492 -0.000006
vt 0.876851 0.708466
vt 0.168380 0.753697
vt 0.123148 0.708466
vt 0.168380 -0.000006
vt 0.123556 0.666408
vt 0.212282 -0.000006
vt 0.123148 0.670180
vt 0.876444 0.666408
vt 0.876851 0.670180
vt 0.212282 0.753697
vt 0.919734 0.395060
vt 0.518706 -0.042888
vt 0.919733 0.394397
vt 0.518029 1.048699
vt -0.169093 0.395071
vt -0.169095 0.394324
vt 0.518706 1.052971
vt 0.570505 0.395072
vt 0.570504 0.394323
vt 0.518706 0.306342
vt 0.534492 0.395071
vt 0.518706 0.342353
vt 0.534492 0.394397
vt 0.168381 0.395060
vt 0.518706 0.708466
vt 0.168380 0.394397
vt 0.212283 0.395060
vt 0.518173 0.666408
vt 0.212282 0.394324
vt 0.518706 0.670180
vt 0.481969 1.048699
vt -0.169093 0.357660
vt -0.169095 0.356913
vt 0.481293 1.052971
vt 0.570505 0.357659
vt 0.481293 0.306342
vt 0.570504 0.356912
vt 0.534492 0.357660
vt 0.481293 0.342353
vt 0.534492 0.356986
vt 0.168381 0.357670
vt 0.168380 0.356986
vt 0.481293 0.708466
vt 0.481826 0.666408
vt 0.212283 0.357669
vt 0.212282 0.356913
vt 0.481293 0.670180
vt 0.919734 0.357669
vt 0.919733 0.356986
vt 0.481293 -0.042888
vt 0.900331 0.689323
vt 0.187523 0.777177
vt 0.099673 0.689265
vt 0.099676 0.689390
vt 0.187521 -0.023486
vt 0.099668 0.324348
vt 0.552498 -0.023486
vt 0.900331 0.324348
vt 0.552498 0.777177
vt 0.500001 -0.066367
vt 0.943213 0.376366
vt 0.500001 1.070058
vt -0.193212 0.376376
vt 0.187525 0.376366
vt 0.500001 0.689323
vt 0.552499 0.376376
vt 0.500001 0.324348
s 0
usemtl wall_mp_1
f 2/3/3 1/1/3 5/9/3 6/10/3
f 11/17/4 12/19/4 16/24/4 15/23/4
f 21/29/6 1/2/6 2/4/6 24/32/6
f 24/32/6 2/4/6 12/20/6 23/31/6
f 22/30/6 11/18/6 1/2/6 21/29/6
f 23/31/6 12/20/6 11/18/6 22/30/6
usemtl wall_mp_1
f 18/26/1 10/15/1 4/8/1 20/28/1
f 17/25/1 9/14/1 10/15/1 18/26/1
f 3/5/2 4/7/2 8/12/2 7/11/2
f 10/16/5 9/13/5 13/21/5 14/22/5
f 3/6/1 9/14/1 17/25/1 19/27/1
f 4/8/1 3/6/1 19/27/1 20/28/1
usemtl door_frame_wood_1
f 30/53/7 29/49/7 25/33/7 26/37/7
f 33/65/1 34/69/1 25/34/1 29/50/1
f 38/85/6 39/89/6 48/125/6 28/45/6
f 31/57/8 27/41/8 28/46/8 48/126/8
f 27/42/1 31/58/1 35/73/1 32/61/1
f 32/62/9 35/74/9 34/70/9 33/66/9
f 30/54/6 26/38/6 36/77/6 37/81/6
f 37/82/10 36/78/10 39/90/10 38/86/10
f 45/113/8 44/109/8 40/93/8 41/97/8
f 40/94/11 29/51/11 30/55/11 41/98/11
f 55/153/6 36/79/6 26/39/6 45/114/6
f 26/40/12 25/35/12 44/110/12 45/115/12
f 46/117/12 47/121/12 28/47/12 27/43/12
f 38/87/6 28/48/6 47/122/6 53/145/6
f 49/129/1 51/137/1 40/95/1 44/111/1
f 43/105/11 42/101/11 31/59/11 48/127/11
f 56/157/6 53/146/6 47/123/6 43/106/6
f 32/63/1 52/141/1 46/118/1 27/44/1
f 35/75/1 31/60/1 42/102/1 50/133/1
f 46/119/7 42/103/7 43/107/7 47/124/7
f 25/36/1 34/71/1 49/130/1 44/112/1
f 34/72/5 35/76/5 50/134/5 49/131/5
f 29/52/1 40/96/1 51/138/1 33/67/1
f 33/68/2 51/139/2 52/142/2 32/64/2
f 42/104/1 46/120/1 52/143/1 50/135/1
f 50/136/13 52/144/13 51/140/13 49/132/13
f 45/116/6 41/99/6 54/149/6 55/154/6
f 55/155/14 54/150/14 53/147/14 56/158/14
f 30/56/6 37/83/6 54/151/6 41/100/6
f 37/84/3 38/88/3 53/148/3 54/152/3
f 43/108/6 48/128/6 39/91/6 56/159/6
f 56/160/4 39/92/4 36/80/4 55/156/4
f 65/179/15 87/243/15 57/161/15 62/173/15
f 70/190/15 61/170/15 59/165/15 86/241/15
f 72/194/16 85/237/16 91/251/16 78/213/16
f 79/217/16 90/248/16 59/166/16 61/169/16
f 88/244/17 66/182/17 63/174/17 58/163/17
f 87/242/18 92/253/18 81/225/18 68/185/18
f 64/177/17 69/188/17 85/238/17 60/167/17
f 82/227/19 91/250/19 90/249/19 79/218/19
f 90/248/16 74/200/16 64/176/16 60/168/16
f 89/246/18 84/235/18 62/172/18 57/162/18
f 92/252/20 76/207/20 78/214/20 91/250/20
f 73/199/18 89/246/18 58/164/18 63/175/18
f 92/253/16 75/205/16 66/181/16 88/245/16
f 90/249/20 91/250/20 77/210/20 74/201/20
f 67/184/17 88/244/17 85/238/17 72/195/17
f 83/230/16 91/251/16 86/240/16 71/191/16
f 92/252/19 80/221/19 84/234/19 89/247/19
f 80/223/16 92/253/16 87/242/16 65/180/16
f 81/224/19 92/252/19 91/250/19 83/231/19
f 75/204/20 92/252/20 89/247/20 73/197/20
f 86/240/21 91/251/21 82/228/21 70/189/21
f 76/208/18 92/253/18 88/245/18 67/183/18
f 95/258/22 122/334/22 106/283/22 97/263/22
f 127/344/23 121/330/23 105/280/23 113/304/23
f 115/310/24 126/341/24 95/259/24 97/262/24
f 123/335/25 128/346/25 117/318/25 104/278/25
f 118/320/26 127/343/26 126/342/26 115/311/26
f 126/341/24 110/293/24 100/269/24 96/260/24
f 125/339/25 120/329/25 98/266/25 93/254/25
f 128/345/27 112/300/27 114/306/27 127/343/27
f 109/291/25 125/339/25 94/256/25 99/267/25
f 128/346/24 111/299/24 102/275/24 124/337/24
f 127/344/24 114/307/24 108/287/24 121/330/24
f 126/342/27 127/343/27 113/303/27 110/294/27
f 119/323/24 127/344/24 122/332/24 107/284/24
f 128/345/26 116/314/26 120/327/26 125/340/26
f 116/315/24 128/346/24 123/335/24 101/272/24
f 117/317/26 128/345/26 127/343/26 119/324/26
f 111/297/27 128/345/27 125/340/27 109/290/27
f 122/333/23 127/344/23 118/322/23 106/282/23
f 112/301/25 128/346/25 124/337/25 103/276/25
f 102/274/28 99/268/28 94/257/28 124/338/28
f 121/331/28 108/289/28 103/277/28 124/338/28
f 101/273/22 123/336/22 93/255/22 98/265/22
f 105/281/28 121/331/28 96/261/28 100/270/28
f 87/243/15 68/186/15 71/193/15 86/241/15
f 85/239/21 69/187/21 77/212/21 91/251/21
f 104/279/22 107/285/22 122/334/22 123/336/22
f 81/225/8 112/301/8 103/276/8 68/185/8
f 83/232/12 114/308/12 112/302/12 81/226/12
f 71/192/7 108/288/7 114/309/7 83/233/7
f 68/186/11 103/277/11 108/289/11 71/193/11
f 67/183/8 104/278/8 117/318/8 76/208/8
f 67/184/12 72/195/12 107/285/12 104/279/12
f 78/215/11 76/209/11 117/319/11 119/325/11
f 72/196/7 78/216/7 119/326/7 107/286/7
f 62/172/8 84/235/8 109/291/8 99/267/8
f 65/179/11 62/173/11 99/268/11 102/274/11
f 80/222/12 111/298/12 109/292/12 84/236/12
f 80/223/7 65/180/7 102/275/7 111/299/7
f 66/181/7 75/205/7 116/315/7 101/272/7
f 75/206/11 73/198/11 120/328/11 116/316/11
f 63/174/12 66/182/12 101/273/12 98/265/12
f 73/199/8 63/175/8 98/266/8 120/329/8
f 82/228/8 113/304/8 105/280/8 70/189/8
f 79/219/12 110/295/12 113/305/12 82/229/12
f 61/170/11 70/190/11 105/281/11 100/270/11
f 74/202/11 77/211/11 118/321/11 115/312/11
f 69/187/8 106/282/8 118/322/8 77/212/8
f 69/188/12 64/177/12 97/263/12 106/283/12
f 64/178/7 74/203/7 115/313/7 97/264/7
f 79/220/7 61/171/7 100/271/7 110/296/7
